<?xml version="1.0" encoding="UTF-8" standalone="no"?>
<!-- Created with Inkscape (http://www.inkscape.org/) -->

<svg
   version="1.1"
   id="svg2"
   width="300"
   height="300"
   viewBox="0 0 300 300"
   sodipodi:docname="ticket.svg"
   inkscape:version="1.2.2 (732a01da63, 2022-12-09)"
   xmlns:inkscape="http://www.inkscape.org/namespaces/inkscape"
   xmlns:sodipodi="http://sodipodi.sourceforge.net/DTD/sodipodi-0.dtd"
   xmlns="http://www.w3.org/2000/svg"
   xmlns:svg="http://www.w3.org/2000/svg">
  <defs
     id="defs6">
    <filter
       inkscape:collect="always"
       style="color-interpolation-filters:sRGB"
       id="filter3958"
       x="-0.0155952"
       y="-0.0155952"
       width="1.0311904"
       height="1.0311904">
      <feGaussianBlur
         inkscape:collect="always"
         stdDeviation="1.9494"
         id="feGaussianBlur3960" />
    </filter>
    <filter
       inkscape:collect="always"
       style="color-interpolation-filters:sRGB"
       id="filter3962"
       x="-0.070636077"
       y="-0.044291472"
       width="1.1412713"
       height="1.089264">
      <feGaussianBlur
         inkscape:collect="always"
         stdDeviation="1.9494"
         id="feGaussianBlur3964" />
    </filter>
  </defs>
  <sodipodi:namedview
     id="namedview4"
     pagecolor="#ffffff"
     bordercolor="#000000"
     borderopacity="0.25"
     inkscape:showpageshadow="2"
     inkscape:pageopacity="0.0"
     inkscape:pagecheckerboard="0"
     inkscape:deskcolor="#d1d1d1"
     showgrid="false"
     inkscape:zoom="2.3617366"
     inkscape:cx="15.878146"
     inkscape:cy="147.3492"
     inkscape:window-width="2560"
     inkscape:window-height="1369"
     inkscape:window-x="1912"
     inkscape:window-y="-8"
     inkscape:window-maximized="1"
     inkscape:current-layer="g8" />
  <g
     inkscape:groupmode="layer"
     inkscape:label="Image"
     id="g8">
    <rect
       style="display:none;opacity:0.372449;fill:#5866c4;fill-opacity:1;stroke:none;stroke-width:189.497;filter:url(#filter3958)"
       id="rect3903"
       width="300"
       height="300"
       x="0"
       y="0" />
    <path
       style="opacity:1;fill:none;fill-opacity:1;stroke:#753f4b;stroke-width:12.3;stroke-dasharray:none;filter:url(#filter3962)"
       d="m 185.68034,272.07028 c -5.17204,-0.72722 -6.141,-1.62401 -7.65597,-7.08566 -4.45768,-16.0705 -22.60464,-26.00235 -39.08782,-21.39279 -8.71759,2.4379 -16.03075,9.46389 -17.88171,17.17955 -0.68682,2.86299 -2.13779,6.33565 -3.22438,7.71702 -1.89368,2.40743 -2.42729,2.5116 -12.86553,2.5116 -17.760288,0 -25.062291,-3.94398 -27.771434,-15 -2.189016,-8.93338 -4.487125,-85.51057 -3.895719,-129.81247 0.757339,-56.731823 2.41969,-75.238807 7.940505,-88.401785 1.641836,-3.914542 2.840464,-5.144411 7.065829,-7.25 C 92.940318,28.225426 94.511144,28 105.97384,28 c 14.15532,0 16.40709,0.802161 17.54803,6.251242 0.89319,4.265869 5.80474,11.950329 9.98268,15.618612 1.83234,1.608814 5.86029,3.871248 8.951,5.027631 15.35542,5.7452 30.81004,-1.183399 38.38074,-17.206816 1.63307,-3.456402 3.69332,-6.88532 4.57834,-7.619818 2.40915,-1.999414 25.62329,-0.940618 31.41029,1.432622 4.81288,1.973751 8.47326,6.78953 9.49837,12.496527 0.34578,1.925 0.1912,14.3 -0.3435,27.5 -3.89363,96.12053 -4.69332,142.17833 -2.91693,168 1.17249,17.04337 0.53511,21.10569 -4.2158,26.86938 -1.87605,2.27597 -4.39791,3.97113 -6.91686,4.64942 -4.99831,1.3459 -19.90829,1.94315 -26.24986,1.05148 z m -36.00957,-74.7625 c 2.34562,-6.7945 2.69474,-9.36511 2.69011,-19.80778 -0.004,-9.5885 -0.41607,-13.12231 -2.04933,-17.58476 -5.01219,-13.6945 -6.99627,-14.95914 -9.72906,-6.20121 -2.78776,8.93412 -9.01698,21.35377 -16.23762,32.37413 -3.61191,5.51261 -6.25479,10.33544 -5.87305,10.71739 0.38173,0.38195 3.24423,0.76921 6.36112,0.86058 3.11688,0.0914 6.56706,0.22304 7.66706,0.29259 1.99492,0.12615 9.03474,8.86177 9.5,10.99412 1.0479,4.80267 5.32717,-4.85641 7.67077,-11.64506 z M 197.91855,180.25 c -1.77886,-7.66016 -1.21844,-10.08496 3.60287,-15.58865 3.33781,-3.81022 6.96032,-5.81474 5.6034,-8.54607 -0.82502,-1.66066 -6.58221,-1.17621 -14.01377,-2.12324 -11.8608,-1.51146 -21.59454,-4.19772 -29.29389,-8.08434 -9.36583,-4.72785 -10.86888,-3.01118 -5.8002,6.62455 6.1117,11.61852 18.21564,22.88296 30.98304,28.83412 3.025,1.41002 6.46511,2.57941 7.64469,2.59865 1.9693,0.0321 2.07347,-0.27168 1.27386,-3.71502 z m -76.50985,-5.57327 c 7.32028,-8.93344 15.27102,-28.14987 13.10019,-31.66234 C 134.16408,142.45648 130.60327,142 126.59597,142 c -6.08506,0 -7.59306,-0.3393 -9.14894,-2.05854 -3.993,-4.4122 2.25292,-8.02081 10.81095,-6.24608 2.88311,0.59789 5.16717,1.54761 5.72025,1.02725 0.81589,-0.76764 -5.77077,-7.09434 -9.35402,-8.97559 -3.4841,-1.82919 -5.83149,-2.1716 -15.12421,-2.20615 -16.048185,-0.0597 -21.363479,2.98473 -20.211132,11.57612 0.942916,7.02996 16.946892,36.9565 22.264292,41.63299 3.70151,3.25536 5.86145,2.80098 9.85554,-2.07327 z m 75.0262,-29.65198 c 2.14036,-0.81376 2.5651,-1.61269 2.5651,-4.82485 0,-8.44161 -11.73287,-36.17562 -18.25758,-43.157053 -3.04482,-3.257951 -4.97202,-3.662558 -9.42732,-1.979229 -7.94963,3.00358 -16.33212,16.814162 -16.30572,26.864522 l 0.009,3.57186 2.89404,-5.04548 c 5.4931,-9.57671 13.44273,-9.41145 10.90371,0.22667 -0.46092,1.74965 -3.11726,5.67501 -5.90297,8.72302 -2.78571,3.04801 -4.76449,6.02795 -4.3973,6.62208 1.07328,1.73661 11.39923,6.08858 18.98375,8.00088 8.03668,2.02631 15.23206,2.4054 18.9349,0.99758 z m -47.38524,-5.55043 c 3.42517,-1.77123 3.94918,-5.64209 1.42466,-10.52398 C 149.25482,126.5921 148.28974,126 145.66545,126 c -4.96669,0 -7.11296,2.01246 -6.32863,5.93409 0.70978,3.54893 4.22772,9.06591 5.78093,9.06591 0.53987,0 2.30922,-0.68656 3.93191,-1.52568 z"
       id="path1573"
       sodipodi:nodetypes="sssssssssssssssssssssssscsssssssssssssssssssssssscssscsssccsssssccssssss" />
    <path
       style="opacity:1;fill:#f6f6e1;fill-opacity:1"
       d="m 185.68034,272.07028 c -5.17204,-0.72722 -6.141,-1.62401 -7.65597,-7.08566 -4.45768,-16.0705 -22.60464,-26.00235 -39.08782,-21.39279 -8.71759,2.4379 -16.03075,9.46389 -17.88171,17.17955 -0.68682,2.86299 -2.13779,6.33565 -3.22438,7.71702 -1.89368,2.40743 -2.42729,2.5116 -12.86553,2.5116 -17.760288,0 -25.062291,-3.94398 -27.771434,-15 -2.189016,-8.93338 -4.487125,-85.51057 -3.895719,-129.81247 0.757339,-56.731823 2.41969,-75.238807 7.940505,-88.401785 1.641836,-3.914542 2.840464,-5.144411 7.065829,-7.25 C 92.940318,28.225426 94.511144,28 105.97384,28 c 14.15532,0 16.40709,0.802161 17.54803,6.251242 0.89319,4.265869 5.80474,11.950329 9.98268,15.618612 1.83234,1.608814 5.86029,3.871248 8.951,5.027631 15.35542,5.7452 30.81004,-1.183399 38.38074,-17.206816 1.63307,-3.456402 3.69332,-6.88532 4.57834,-7.619818 2.40915,-1.999414 25.62329,-0.940618 31.41029,1.432622 4.81288,1.973751 8.47326,6.78953 9.49837,12.496527 0.34578,1.925 0.1912,14.3 -0.3435,27.5 -3.89363,96.12053 -4.69332,142.17833 -2.91693,168 1.17249,17.04337 0.53511,21.10569 -4.2158,26.86938 -1.87605,2.27597 -4.39791,3.97113 -6.91686,4.64942 -4.99831,1.3459 -19.90829,1.94315 -26.24986,1.05148 z m -36.00957,-74.7625 c 2.34562,-6.7945 2.69474,-9.36511 2.69011,-19.80778 -0.004,-9.5885 -0.41607,-13.12231 -2.04933,-17.58476 -5.01219,-13.6945 -6.99627,-14.95914 -9.72906,-6.20121 -2.78776,8.93412 -9.01698,21.35377 -16.23762,32.37413 -3.61191,5.51261 -6.25479,10.33544 -5.87305,10.71739 0.38173,0.38195 3.24423,0.76921 6.36112,0.86058 3.11688,0.0914 6.56706,0.22304 7.66706,0.29259 1.99492,0.12615 9.03474,8.86177 9.5,10.99412 1.0479,4.80267 5.32717,-4.85641 7.67077,-11.64506 z M 197.91855,180.25 c -1.77886,-7.66016 -1.21844,-10.08496 3.60287,-15.58865 3.33781,-3.81022 6.96032,-5.81474 5.6034,-8.54607 -0.82502,-1.66066 -6.58221,-1.17621 -14.01377,-2.12324 -11.8608,-1.51146 -21.59454,-4.19772 -29.29389,-8.08434 -9.36583,-4.72785 -10.86888,-3.01118 -5.8002,6.62455 6.1117,11.61852 18.21564,22.88296 30.98304,28.83412 3.025,1.41002 6.46511,2.57941 7.64469,2.59865 1.9693,0.0321 2.07347,-0.27168 1.27386,-3.71502 z m -76.50985,-5.57327 c 7.32028,-8.93344 15.27102,-28.14987 13.10019,-31.66234 C 134.16408,142.45648 130.60327,142 126.59597,142 c -6.08506,0 -7.59306,-0.3393 -9.14894,-2.05854 -3.993,-4.4122 2.25292,-8.02081 10.81095,-6.24608 2.88311,0.59789 5.16717,1.54761 5.72025,1.02725 0.81589,-0.76764 -5.77077,-7.09434 -9.35402,-8.97559 -3.4841,-1.82919 -5.83149,-2.1716 -15.12421,-2.20615 -16.048185,-0.0597 -21.363479,2.98473 -20.211132,11.57612 0.942916,7.02996 16.946892,36.9565 22.264292,41.63299 3.70151,3.25536 5.86145,2.80098 9.85554,-2.07327 z m 75.0262,-29.65198 c 2.14036,-0.81376 2.5651,-1.61269 2.5651,-4.82485 0,-8.44161 -11.73287,-36.17562 -18.25758,-43.157053 -3.04482,-3.257951 -4.97202,-3.662558 -9.42732,-1.979229 -7.94963,3.00358 -16.33212,16.814162 -16.30572,26.864522 l 0.009,3.57186 2.89404,-5.04548 c 5.4931,-9.57671 13.44273,-9.41145 10.90371,0.22667 -0.46092,1.74965 -3.11726,5.67501 -5.90297,8.72302 -2.78571,3.04801 -4.76449,6.02795 -4.3973,6.62208 1.07328,1.73661 11.39923,6.08858 18.98375,8.00088 8.03668,2.02631 15.23206,2.4054 18.9349,0.99758 z m -47.38524,-5.55043 c 3.42517,-1.77123 3.94918,-5.64209 1.42466,-10.52398 C 149.25482,126.5921 148.28974,126 145.66545,126 c -4.96669,0 -7.11296,2.01246 -6.32863,5.93409 0.70978,3.54893 4.22772,9.06591 5.78093,9.06591 0.53987,0 2.30922,-0.68656 3.93191,-1.52568 z"
       id="path3901"
       sodipodi:nodetypes="sssssssssssssssssssssssscsssssssssssssssssssssssscssscsssccsssssccssssss" />
  </g>
</svg>
