<?xml version="1.0" encoding="UTF-8" standalone="no"?>
<!-- Created with Inkscape (http://www.inkscape.org/) -->

<svg
   version="1.1"
   id="svg1"
   width="300"
   height="300"
   viewBox="0 0 300 300"
   sodipodi:docname="bluestool.svg"
   inkscape:version="1.4.2 (f4327f4, 2025-05-13)"
   xmlns:inkscape="http://www.inkscape.org/namespaces/inkscape"
   xmlns:sodipodi="http://sodipodi.sourceforge.net/DTD/sodipodi-0.dtd"
   xmlns="http://www.w3.org/2000/svg"
   xmlns:svg="http://www.w3.org/2000/svg">
  <defs
     id="defs1">
    <filter
       inkscape:collect="always"
       style="color-interpolation-filters:sRGB"
       id="filter16"
       x="-0.047897718"
       y="-0.04705465"
       width="1.0961529"
       height="1.0941109">
      <feGaussianBlur
         inkscape:collect="always"
         stdDeviation="1.9494"
         id="feGaussianBlur16" />
    </filter>
  </defs>
  <sodipodi:namedview
     id="namedview1"
     pagecolor="#ffffff"
     bordercolor="#000000"
     borderopacity="0.25"
     inkscape:showpageshadow="2"
     inkscape:pageopacity="0.0"
     inkscape:pagecheckerboard="0"
     inkscape:deskcolor="#d1d1d1"
     inkscape:zoom="2.811928"
     inkscape:cx="180.65897"
     inkscape:cy="170.16794"
     inkscape:window-width="2560"
     inkscape:window-height="1411"
     inkscape:window-x="3191"
     inkscape:window-y="-9"
     inkscape:window-maximized="1"
     inkscape:current-layer="g1" />
  <g
     inkscape:groupmode="layer"
     inkscape:label="Image"
     id="g1">
    <path
       id="path10"
       style="fill:#ce9e9a;stroke-width:12.3;stroke:#753f4b;stroke-dasharray:none;filter:url(#filter16)"
       d="m 182.23516,34.995249 c -3.79837,0.07791 -6.30708,0.939751 -13.38493,3.781053 -5.60391,2.249613 -15.00321,6.228561 -20.88733,8.841692 -5.88411,2.613131 -13.38464,5.84094 -16.66847,7.17405 -3.28383,1.33311 -6.49334,2.835901 -7.13226,3.339266 -0.63891,0.503365 -3.90805,1.926819 -7.2636,3.164143 -3.35554,1.237324 -6.56506,2.626654 -7.13225,3.086533 -0.5672,0.459878 -3.78185,1.991098 -7.1442,3.402948 -15.080979,6.332494 -53.361226,25.639522 -57.402351,28.95092 -8.030944,6.580756 -9.653596,11.390586 -7.168079,21.261456 1.010977,4.01497 1.957666,5.1102 7.89643,9.13621 7.208409,4.88673 28.577259,18.84225 37.824454,24.70221 3.082155,1.95317 7.943963,5.04956 10.80386,6.88152 2.859898,1.83195 7.215676,4.06291 9.679496,4.95717 8.34194,3.0277 11.88166,2.12479 59.49983,-15.18591 5.60392,-2.0372 12.48146,-4.53386 15.28341,-5.5462 24.86858,-8.98505 68.63845,-32.27431 79.13743,-42.10899 4.33304,-4.058877 5.92405,-11.886125 3.89846,-19.177894 -1.14464,-4.120522 -7.63815,-9.151912 -37.95978,-29.416588 -20.10683,-13.437886 -26.76091,-16.477874 -37.4344,-17.104287 -1.76946,-0.103848 -3.1796,-0.165274 -4.44572,-0.139302 z m 75.25886,76.922531 c -1.37099,-0.0958 -3.65681,1.13172 -9.40089,4.69049 -18.52238,11.47561 -22.5385,13.74635 -35.9399,20.33012 -12.86571,6.3206 -19.74277,9.3423 -38.71797,17.01474 -14.41436,5.8283 -36.84208,13.89634 -48.90692,17.59383 -5.24759,1.60824 -8.39372,1.91894 -15.15406,1.49053 -7.75626,-0.49153 -9.19216,-0.93654 -15.79286,-4.88154 -3.993476,-2.38675 -7.490862,-4.63015 -7.771058,-4.98701 -0.280196,-0.35685 -4.406717,-3.34287 -9.170047,-6.63475 -4.76333,-3.29187 -11.182363,-7.73588 -14.264518,-9.87451 -11.669948,-8.09747 -22.156068,-15.00083 -22.783825,-15.00083 -0.846695,0 -0.844853,15.07503 0.002,19.30923 0.647088,3.23545 0.984375,3.53593 12.632694,11.25759 2.113415,1.40098 12.62613,8.41528 23.362925,15.58789 21.464774,14.33931 22.490491,14.87554 30.598659,15.9839 10.81504,1.47838 13.95799,1.11355 26.2007,-3.04275 6.60384,-2.24196 12.92484,-4.52296 14.04562,-5.0686 1.12079,-0.54565 4.7888,-1.9631 8.15116,-3.14822 20.56495,-7.24848 41.16251,-16.27852 58.58641,-25.68529 46.59047,-25.15319 45.15082,-24.01961 46.4353,-36.5568 0.54324,-5.30234 0.36445,-6.78495 -0.95322,-7.87853 -0.34771,-0.28856 -0.70319,-0.46756 -1.16019,-0.49949 z m -3.80095,35.18767 c -1.66002,0.0368 -4.42272,1.26981 -8.82776,3.45866 -4.93164,2.45051 -9.56719,5.1782 -10.30039,6.06163 -1.04807,1.26285 -1.18775,5.61825 -0.65471,20.3739 0.37288,10.32249 1.12885,19.95425 1.67957,21.40274 0.55243,1.453 2.48914,3.27972 4.32036,4.07558 4.62724,2.01103 6.37397,1.86802 9.40487,-0.77014 2.53415,-2.20578 2.69173,-3.00562 4.12333,-21.14205 0.81836,-10.36725 1.78424,-21.70728 2.14724,-25.19972 0.60417,-5.81264 0.53366,-8.31433 -1.89251,-8.2606 z m -213.420508,18.1769 c -1.506481,0 -1.641466,11.272 -0.469647,39.06823 0.645813,15.31909 0.802061,16.24195 3.078573,18.08537 3.44566,2.79013 9.775879,2.58418 12.775976,-0.41592 2.247613,-2.2476 2.393152,-3.3069 3.108423,-22.48134 0.699104,-18.74108 0.622513,-20.26417 -1.130335,-22.20274 -2.678551,-2.96235 -15.774108,-12.0536 -17.36299,-12.0536 z m 59.292871,37.18964 -0.264678,20.37788 c -0.145427,11.20784 0.08382,24.50441 0.509447,29.54793 l 0.774128,9.17005 3.56613,1.78108 c 5.42483,2.71 9.81273,2.31647 13.32323,-1.19402 1.63808,-1.63807 2.98971,-4.04521 3.00296,-5.3492 0.0244,-2.39864 1.03477,-15.38748 2.98703,-38.4334 0.7367,-8.6967 0.74125,-13.02438 0.0159,-13.89836 -0.67457,-0.8128 -4.24738,-1.32182 -9.9362,-1.41292 -4.88565,-0.0783 -10.02974,-0.24307 -11.43072,-0.36616 z" />
    <path
       style="fill:#ce9e9a"
       d="m 105.10339,163.4215 c -2.41813,-0.87767 -6.693135,-3.06684 -9.5,-4.86482 C 92.796526,156.75869 88.025,153.7192 85,151.80225 c -9.075717,-5.7513 -30.047871,-19.44763 -37.122609,-24.24374 -5.828637,-3.95135 -6.757771,-5.02637 -7.75,-8.96688 C 37.687965,108.9038 39.279323,104.18271 47.161343,97.723992 51.12753,94.473999 88.698684,75.525653 103.5,69.310587 c 3.3,-1.385669 6.45546,-2.888684 7.01214,-3.340034 0.55668,-0.451351 3.70668,-1.814221 7,-3.0286 3.29332,-1.21438 6.50091,-2.612171 7.12797,-3.106201 0.62706,-0.494031 3.77706,-1.968738 7,-3.277127 3.22294,-1.308389 10.58489,-4.477259 16.35989,-7.041933 5.775,-2.564674 15,-6.469505 20.5,-8.677402 9.26213,-3.71815 10.5534,-3.98188 17.5,-3.574194 10.47556,0.614797 17.00716,3.599248 36.74114,16.787945 29.75935,19.888893 36.13082,24.826553 37.25424,28.870665 1.98803,7.156553 0.42642,14.838342 -3.82627,18.821954 -10.30429,9.65231 -53.26169,32.51072 -77.66911,41.32915 -2.75,0.99357 -9.5,3.44239 -15,5.44182 -46.73515,16.98969 -50.20936,17.87643 -58.39661,14.90487 z"
       id="path6" />
    <path
       style="fill:#f6f6e1"
       d="M 107,192.98594 C 99.042183,191.89813 98.036264,191.37268 76.969527,177.29927 66.431833,170.25967 56.112993,163.375 54.03877,162 42.606453,154.42153 42.27528,154.1264 41.640191,150.95095 40.809052,146.79526 40.80854,132 41.639534,132 42.25565,132 52.546456,138.77602 64,146.72333 c 3.025,2.09897 9.325,6.45972 14,9.69055 4.675,3.23084 8.725,6.16081 9,6.51105 0.275,0.35024 3.706799,2.55339 7.626221,4.89588 6.478299,3.87184 7.887569,4.30732 15.499999,4.78974 6.63498,0.42046 9.7235,0.11701 14.87378,-1.4614 11.84111,-3.62893 33.85294,-11.54761 48,-17.26783 18.62333,-7.53016 25.37287,-10.49636 38,-16.69975 13.15288,-6.46168 17.09371,-8.69102 35.27262,-19.95382 7.51675,-4.65703 9.00068,-5.24582 10.36571,-4.11295 1.29324,1.0733 1.46947,2.52876 0.93631,7.73277 -1.26066,12.30471 0.15187,11.19268 -45.57464,35.87943 -17.10079,9.23234 -37.3164,18.09537 -57.5,25.20943 -3.3,1.16315 -6.9,2.55297 -8,3.0885 -1.1,0.53552 -7.30295,2.774 -13.78433,4.97438 -12.01569,4.07923 -15.10119,4.43759 -25.71567,2.98663 z"
       id="path5" />
    <path
       style="fill:#f6f6e1"
       d="m 238.24239,201.50593 c -1.79726,-0.7811 -3.69817,-2.57452 -4.24035,-4.00057 -0.54051,-1.42163 -1.28217,-10.87385 -1.64814,-21.00493 -0.52315,-14.48202 -0.3857,-18.75719 0.64293,-19.99662 0.7196,-0.86705 5.2685,-3.54425 10.10869,-5.94932 10.64211,-5.28803 11.51992,-4.89479 10.52125,4.71337 -0.35627,3.42768 -1.3049,14.55714 -2.10808,24.73214 -1.40506,17.80012 -1.5581,18.58512 -4.04526,20.75 -2.9747,2.58924 -4.68961,2.72967 -9.23104,0.75593 z"
       id="path4" />
    <path
       style="fill:#ce9e9a"
       d="m 44.867126,221.09349 c -2.234297,-1.80923 -2.388525,-2.71498 -3.022363,-17.75 C 40.694674,176.06271 40.827867,165 42.306412,165 c 1.559419,0 14.411826,8.92186 17.040706,11.82928 1.720344,1.90262 1.796555,3.39826 1.110415,21.79181 -0.702007,18.81888 -0.84573,19.85802 -3.051663,22.06395 -2.944464,2.94446 -9.156979,3.14684 -12.538744,0.40845 z"
       id="path3" />
    <path
       style="fill:#f6f6e1"
       d="m 105,261.24845 -3.5,-1.74845 -0.75951,-9 c -0.41773,-4.95 -0.64273,-18 -0.5,-29 l 0.25951,-20 2.5,0.21963 c 1.375,0.1208 6.42322,0.28249 11.21827,0.35931 5.58333,0.0894 9.09,0.58758 9.75206,1.38531 0.71189,0.85777 0.70684,5.10527 -0.0162,13.6407 -1.91605,22.61856 -2.90648,35.36781 -2.93044,37.72197 -0.013,1.27981 -1.33906,3.64231 -2.94676,5.25 -3.4454,3.4454 -7.75268,3.83128 -13.07692,1.17153 z"
       id="path1" />
    <path
       style="fill:#f6f6e1;stroke-width:1.01889"
       d="m 145.75324,105.93242 c -7.92194,-1.37058 -26.79778,-5.0003 -28.10942,-5.40529 -0.96156,-0.2969 -0.74805,-1.735349 0.85704,-5.773894 1.1757,-2.958171 3.82229,-9.734266 5.88131,-15.057987 0,0 1.65207,-4.146558 4.51232,-6.092441 6.87566,-4.677632 24.17858,-3.413296 24.17858,-3.413296 13.72096,0.09556 27.23972,0.557308 30.04168,1.026095 4.96485,0.830652 5.10248,0.948696 5.40911,4.639284 0.32162,3.87097 -6.19433,25.633469 -8.37,27.954789 -1.41106,1.50554 -28.35734,3.16829 -34.40062,2.12274 z m 27.39205,-18.036354 c 1.2415,-4.736015 2.07609,-8.792118 1.85464,-9.013563 -1.42537,-1.42537 -17.7957,-2.252138 -26.19958,-1.323186 -10.5451,1.165643 -9.82601,0.646326 -15.82521,11.428708 l -3.27048,5.878049 4.79883,0.630493 c 2.63934,0.346771 5.48657,0.783471 6.32715,0.970443 0.84059,0.186972 7.94738,0.272459 15.79286,0.189971 l 14.26452,-0.149979 z m -24.16349,3.10871 c -2.52177,-0.336126 -4.49993,-1.069641 -4.39591,-1.630033 0.10401,-0.560392 0.46867,-2.509027 0.81034,-4.3303 0,0 0.20537,-1.441242 1.06961,-2.158425 2.20972,-1.833717 8.16604,-1.152981 8.16604,-1.152981 9.41508,0 9.33034,-0.07155 7.54197,6.368088 -0.99446,3.580888 -1.29806,3.811242 -4.83406,3.667821 -2.07513,-0.08417 -5.83623,-0.428043 -8.35799,-0.76417 z"
       id="path9" />
  </g>
</svg>
