<?xml version="1.0" encoding="UTF-8" standalone="no"?>
<!-- Created with Inkscape (http://www.inkscape.org/) -->

<svg
   version="1.1"
   id="svg1"
   width="300"
   height="300"
   viewBox="0 0 300 300"
   sodipodi:docname="crug.svg"
   inkscape:version="1.4.2 (f4327f4, 2025-05-13)"
   xmlns:inkscape="http://www.inkscape.org/namespaces/inkscape"
   xmlns:sodipodi="http://sodipodi.sourceforge.net/DTD/sodipodi-0.dtd"
   xmlns="http://www.w3.org/2000/svg"
   xmlns:svg="http://www.w3.org/2000/svg">
  <defs
     id="defs1">
    <filter
       inkscape:collect="always"
       style="color-interpolation-filters:sRGB"
       id="filter4"
       x="-0.043140254"
       y="-0.060139738"
       width="1.0865521"
       height="1.1216921">
      <feGaussianBlur
         inkscape:collect="always"
         stdDeviation="1.9494"
         id="feGaussianBlur4" />
    </filter>
  </defs>
  <sodipodi:namedview
     id="namedview1"
     pagecolor="#ffffff"
     bordercolor="#000000"
     borderopacity="0.25"
     inkscape:showpageshadow="2"
     inkscape:pageopacity="0.0"
     inkscape:pagecheckerboard="0"
     inkscape:deskcolor="#d1d1d1"
     inkscape:zoom="3.9766667"
     inkscape:cx="149.87427"
     inkscape:cy="150"
     inkscape:window-width="2560"
     inkscape:window-height="1411"
     inkscape:window-x="3191"
     inkscape:window-y="-9"
     inkscape:window-maximized="1"
     inkscape:current-layer="g1" />
  <g
     inkscape:groupmode="layer"
     inkscape:label="Image"
     id="g1">
    <path
       id="path3"
       style="fill:#ce9e9a;stroke-width:12.3;stroke:#753f4b;stroke-dasharray:none;filter:url(#filter4)"
       d="m 258.95313,59.783118 c -3.74312,0 -6.71062,0.947123 -25.11392,8.009335 -4.31454,1.655694 -11.77943,4.433471 -16.58939,6.17458 -9.90998,3.587212 -14.29883,7.37343 -14.29883,12.333839 0,1.623736 0.93464,6.555275 2.07607,10.95873 1.73668,6.699818 1.99194,9.854948 1.57237,19.339618 -0.42355,9.57451 -0.96846,12.54487 -3.51821,19.12894 -6.67052,17.22487 -17.8827,28.05087 -35.2606,34.04829 -7.21762,2.49091 -10.06376,2.94996 -18.80145,3.02792 -9.18626,0.0819 -11.23517,-0.24129 -19.01594,-2.9992 -9.8859,-3.50406 -18.79081,-8.93174 -24.78451,-15.10704 C 99.430161,148.7342 92.68145,138.252 91.182281,132.8975 c -0.70186,-2.5068 -2.195012,-5.20094 -3.317112,-5.98689 -3.990624,-2.79514 -8.121597,-1.84571 -34.452396,7.91932 -5.393181,2.00011 -13.196349,4.80337 -17.340151,6.22821 -7.996682,2.74964 -12.034173,5.69558 -12.983089,9.47637 -0.66139,2.63519 3.752353,14.54878 8.518776,22.99571 9.418803,16.69175 26.548967,36.03843 40.213294,45.41688 13.985235,9.59869 32.879667,17.39971 48.201567,19.90076 10.4655,1.70832 47.27614,1.09311 56.94249,-0.95186 30.92613,-6.5426 59.92862,-26.81414 78.05941,-54.55999 10.31739,-15.78889 15.17204,-27.5427 19.64604,-47.55806 4.73242,-21.17143 1.81333,-54.552343 -6.14968,-70.323947 -2.22145,-4.399835 -4.36566,-5.670885 -9.5683,-5.670885 z" />
    <path
       id="path1"
       style="fill:#ce9e9a;stroke-width:0.980578"
       d="m 258.9627,60.78668 c -3.32964,0.599568 -6.52541,1.768596 -9.74253,2.790222 -13.13373,4.45381 -26.06989,9.467361 -38.95413,14.591522 -2.21772,0.861258 -4.22132,2.571692 -4.86076,4.93479 -0.97418,3.483223 -0.39447,7.155964 0.20928,10.652914 1.85124,8.662652 2.47799,17.581592 1.92326,26.420412 -0.33851,6.04163 -1.55535,12.05158 -3.86632,17.65526 -6.20857,15.25912 -19.12929,27.74049 -34.75348,33.07652 -6.64555,2.3155 -13.75342,2.79099 -20.73846,2.83403 -5.40179,-0.0698 -10.87853,-0.33211 -16.10388,-1.81143 -13.68722,-4.07052 -25.85259,-12.86584 -34.295013,-24.34898 -3.36394,-4.56078 -6.035975,-9.61159 -8.006052,-14.92193 -0.980963,-2.2172 -2.150619,-4.73599 -4.560072,-5.67854 -2.526855,-0.87399 -5.195273,-0.0782 -7.635067,0.69714 -9.679775,3.01108 -19.210464,6.47839 -28.730606,9.95516 -6.436981,2.40331 -13.006638,4.84177 -19.382929,7.58128 -1.863191,0.65347 -3.495226,2.02794 -4.199483,3.90379 -1.09683,2.69116 -0.600461,5.71635 0.43642,8.34222 2.419529,6.44151 5.628272,12.55528 9.003603,18.54014 3.052949,5.37462 6.454358,10.56051 10.387421,15.33584 6.126848,7.4891 12.832231,14.52535 20.166715,20.84228 5.503638,4.71107 11.617068,8.6657 17.921906,12.21266 1.657014,0.9101 3.308314,1.7798 5.055761,2.63192 5.125596,2.52553 10.581822,4.69013 15.940486,6.39821 4.42552,1.41428 8.98448,2.58959 13.46245,3.5329 3.84552,0.85755 7.82274,1.25895 11.69169,1.57492 1.35893,0.0855 2.94751,0.21685 4.39854,0.2824 1.80463,0.10843 3.49722,0.16587 5.3383,0.23662 8.58064,0.23387 17.19084,0.23754 25.74166,-0.59625 21.03476,-2.46198 41.38075,-10.53931 58.3773,-23.1746 9.12312,-6.7481 17.29197,-14.76862 24.29051,-23.69719 0.74031,-0.95892 1.62748,-2.11555 2.40356,-3.16581 6.10544,-8.32758 11.28377,-17.34355 15.33494,-26.84334 0.21173,-0.50829 0.54573,-1.33102 0.80435,-1.95989 3.42544,-8.65773 6.2084,-17.59713 7.93666,-26.75351 0.34122,-1.82412 0.6223,-3.74648 0.80921,-5.48821 0.22296,-1.94963 0.36419,-3.76009 0.49113,-5.73972 0.22923,-3.86372 0.29885,-7.86323 0.23029,-11.80587 -0.0408,-2.64388 -0.15504,-5.36927 -0.31072,-7.97041 -0.50934,-7.750674 -1.38179,-15.512397 -3.26541,-23.060832 -0.12917,-0.487573 -0.34327,-1.312648 -0.52979,-1.922822 -1.30157,-4.171666 -2.57626,-8.439974 -4.93303,-12.160014 -1.22308,-1.973466 -3.20088,-3.595158 -5.57626,-3.826932 -0.6319,-0.08702 -1.27399,-0.130187 -1.91145,-0.09687 z" />
    <path
       style="fill:#f6f6e1;stroke-width:0.980578"
       d="M 120.02254,238.84781 C 104.70065,236.34676 85.806892,228.54628 71.821657,218.94759 58.157331,209.56914 41.026912,190.22197 31.608109,173.53022 c -4.766423,-8.44693 -9.179217,-20.35988 -8.517826,-22.99506 0.948915,-3.78079 4.985837,-6.72781 12.982519,-9.47745 4.143802,-1.42484 11.94679,-4.22708 17.339971,-6.22719 26.330799,-9.76503 30.462568,-10.71479 34.453192,-7.91965 1.1221,0.78596 2.614432,3.48003 3.316293,5.98683 1.499168,5.35449 8.247902,15.83584 14.036462,21.79978 5.9937,6.1753 14.89771,11.60271 24.78361,15.10677 7.78077,2.75791 9.83058,3.08119 19.01684,2.99928 8.73769,-0.0779 11.58335,-0.53607 18.80097,-3.02699 17.3779,-5.99743 28.58985,-16.82423 35.26038,-34.0491 2.54974,-6.58406 3.09619,-9.55377 3.51974,-19.12828 0.41957,-9.48467 0.16274,-12.64062 -1.57394,-19.340443 -1.14144,-4.403455 -2.07533,-9.334793 -2.07533,-10.958529 0,-4.960408 4.38824,-8.745376 14.29821,-12.332588 4.80996,-1.741109 12.27547,-4.520312 16.59001,-6.176006 18.4033,-7.062211 21.3707,-8.008476 25.11382,-8.008476 5.20264,0 7.34773,1.271278 9.56918,5.671113 7.96302,15.771605 10.88208,49.152289 6.14966,70.323719 -4.47399,20.01536 -9.32971,31.76917 -19.6471,47.55806 -18.13079,27.74585 -47.13298,48.01699 -78.05911,54.55959 -9.66635,2.04497 -46.47761,2.66053 -56.94312,0.95221 z m 56.94312,-7.46095 c 17.4258,-3.70757 36.08082,-13.30349 51.00621,-26.237 21.68592,-18.7918 37.50676,-47.92805 41.73811,-76.86645 1.86442,-12.75087 0.68565,-35.52015 -2.44658,-47.258201 -3.16811,-11.872472 -4.88013,-15.35862 -7.54252,-15.35862 -2.23018,0 -11.97012,3.358516 -29.80398,10.27697 -6.47182,2.510672 -13.09072,5.040183 -14.70868,5.621136 -6.08527,2.185016 -6.43503,3.602865 -3.86338,15.661444 3.4773,16.305201 1.11036,35.250161 -6.13976,49.142531 -6.86356,13.15165 -23.13455,26.27297 -37.23831,30.02989 -27.80423,7.40641 -56.77511,-2.15118 -72.969654,-24.07294 -3.893055,-5.26983 -10.696121,-17.92701 -10.696121,-19.90025 0,-2.28469 -5.15274,-0.73727 -35.791114,10.74842 -5.9325,2.22396 -12.710051,4.72679 -15.061226,5.56183 -4.091745,1.45323 -4.252033,1.65894 -3.741909,4.80247 0.74358,4.58215 8.433111,19.61519 14.608848,28.5603 18.791694,27.21843 45.7157,44.78778 77.737676,50.72795 11.57853,2.14786 41.77174,1.35637 54.91239,-1.43948 z M 46.269153,174.23818 c -1.648306,-2.04803 -8.055346,-15.29755 -8.055346,-16.65818 0,-2.38576 20.077133,-11.12734 22.253286,-9.68906 0.528042,0.34899 2.213873,2.84083 3.746291,5.53742 1.532419,2.69659 2.910011,5.06845 3.061316,5.27079 0.375993,0.50282 8.183253,-2.63423 10.877165,-4.37057 l 2.185786,-1.40883 -2.039647,-3.91315 c -2.102886,-4.03448 -4.607213,-5.01759 -6.615954,-2.59721 -1.29546,1.56094 -0.494843,2.60637 1.996012,2.60637 2.712043,0 2.156006,2.85406 -0.772994,3.96767 -1.748345,0.66471 -2.969347,0.64655 -3.816816,-0.0568 -1.777301,-1.47503 -3.734655,-6.57486 -3.129125,-8.15284 0.645602,-1.68242 11.963606,-5.98537 13.40313,-5.09569 1.781476,1.10102 9.065934,16.39243 8.198516,17.21019 -0.444583,0.41913 -5.537625,2.74269 -11.317872,5.16347 -11.547036,4.83589 -10.914943,4.93397 -14.497078,-2.24966 -1.210195,-2.42693 -2.348187,-4.5779 -2.528871,-4.77993 -0.752737,-0.84168 -13.158517,4.26666 -13.158517,5.41829 0,1.91927 3.191189,8.18685 4.168394,8.18685 1.527518,0 4.656812,-1.99998 4.656812,-2.97623 0,-0.52035 -1.103151,-0.94608 -2.451446,-0.94608 -3.462243,0 -3.096611,-2.47625 0.640943,-4.34079 1.700815,-0.84848 3.2075,-1.54269 3.34819,-1.54269 0.392809,0 5.327715,8.98925 5.316389,9.68415 -0.0055,0.33656 -1.880842,1.4257 -4.167458,2.42031 -2.286617,0.9946 -5.547814,2.41633 -7.247104,3.1594 -2.421875,1.05903 -3.298046,1.09205 -4.054002,0.15278 z M 218.15126,102.68343 c -0.85005,-2.831424 -1.80126,-6.962237 -2.1138,-9.179589 -0.70941,-5.032947 0.50097,-6.0108 12.11744,-9.789586 9.77012,-3.178175 10.67865,-2.900914 13.49248,4.117533 1.05859,2.64039 2.03678,4.969935 2.17378,5.176765 0.13699,0.206831 3.13192,-0.449549 6.65537,-1.458621 4.34886,-1.245459 6.38232,-2.310989 6.33167,-3.317791 -0.14692,-2.921001 -2.57337,-8.345308 -3.69005,-8.249106 -0.62603,0.05393 -1.80013,0.164247 -2.6091,0.245145 -2.16343,0.216343 -1.79132,2.776289 0.49029,3.372943 4.06202,1.062245 1.3405,4.547635 -3.59607,4.605381 -1.7343,0.02029 -4.79513,-8.657484 -3.50775,-9.944858 1.34114,-1.341148 13.97665,-4.860743 15.05583,-4.193773 1.06813,0.66014 4.50678,11.817153 4.94515,16.04497 0.22776,2.196635 -0.14678,3.537844 -1.13022,4.047303 -2.95761,1.532143 -20.98341,6.681204 -21.74397,6.211144 -0.43096,-0.26635 -1.50529,-2.999059 -2.38741,-6.072689 -0.88211,-3.07363 -1.77003,-5.876591 -1.97317,-6.228802 -0.39324,-0.681854 -13.17822,2.840831 -14.23475,3.922147 -0.84893,0.868846 1.92865,9.956044 3.04315,9.956044 0.48789,0 2.01895,-0.43033 3.40235,-0.95631 2.93658,-1.116481 3.34754,-2.966001 0.65904,-2.966001 -3.27379,0 -3.20301,-2.695378 0.10102,-3.847169 1.66565,-0.580648 3.35985,-1.055723 3.7649,-1.055723 0.76621,0 3.38366,9.686523 2.75858,10.208783 -0.89142,0.74478 -13.1805,4.49989 -14.72645,4.49989 -1.24034,0 -2.17198,-1.46298 -3.27831,-5.14803 z"
       id="path2" />
  </g>
</svg>
