<?xml version="1.0" encoding="UTF-8" standalone="no"?>
<!-- Created with Inkscape (http://www.inkscape.org/) -->

<svg
   version="1.1"
   id="svg1"
   width="300"
   height="300"
   viewBox="0 0 300 300"
   sodipodi:docname="curtain.svg"
   inkscape:version="1.4.2 (f4327f4, 2025-05-13)"
   xmlns:inkscape="http://www.inkscape.org/namespaces/inkscape"
   xmlns:sodipodi="http://sodipodi.sourceforge.net/DTD/sodipodi-0.dtd"
   xmlns="http://www.w3.org/2000/svg"
   xmlns:svg="http://www.w3.org/2000/svg">
  <defs
     id="defs1">
    <filter
       inkscape:collect="always"
       style="color-interpolation-filters:sRGB"
       id="filter2"
       x="-0.040474254"
       y="-0.058480149"
       width="1.0812795"
       height="1.1172177">
      <feGaussianBlur
         inkscape:collect="always"
         stdDeviation="1.9494"
         id="feGaussianBlur2" />
    </filter>
  </defs>
  <sodipodi:namedview
     id="namedview1"
     pagecolor="#ffffff"
     bordercolor="#000000"
     borderopacity="0.25"
     inkscape:showpageshadow="2"
     inkscape:pageopacity="0.0"
     inkscape:pagecheckerboard="0"
     inkscape:deskcolor="#d1d1d1"
     inkscape:zoom="2.811928"
     inkscape:cx="144.38492"
     inkscape:cy="172.30171"
     inkscape:window-width="2560"
     inkscape:window-height="1411"
     inkscape:window-x="3191"
     inkscape:window-y="-9"
     inkscape:window-maximized="1"
     inkscape:current-layer="g1" />
  <g
     inkscape:groupmode="layer"
     inkscape:label="Image"
     id="g1">
    <path
       style="fill:#f6f6e1;stroke-width:12.3;stroke:#753f4b;stroke-dasharray:none;filter:url(#filter2)"
       d="m 41.623441,239.65664 c -4.285391,-1.72662 -4.32796,-2.36111 -3.299759,-49.18192 0.534688,-24.34784 0.715021,-62.84811 0.40074,-85.55615 l -0.571419,-41.287332 3.02122,-2.151298 c 3.442505,-2.451279 6.173145,-2.064905 8.242322,1.166253 1.426878,2.228165 2.629099,28.447472 4.358841,95.062167 0.479127,18.45185 1.396502,42.61094 2.038611,53.68686 0.642109,11.07593 0.863742,21.34821 0.492517,22.82728 -0.486027,1.93648 -1.805788,3.2026 -4.714914,4.52325 -4.397356,1.99626 -6.742454,2.21056 -9.968159,0.91089 z m 204.291659,-2.19282 -2.55708,-2.19951 1.09903,-30.6304 c 0.60447,-16.84673 1.70895,-47.23708 2.45442,-67.53411 0.74546,-20.29704 1.64066,-45.431485 1.98933,-55.854332 0.5963,-17.825968 0.7541,-19.034801 2.65883,-20.368925 2.62521,-1.838772 5.4217,-1.798468 8.15722,0.117567 l 2.19275,1.535863 -0.65199,43.755047 c -0.41393,27.7787 -0.26433,52.15485 0.4097,66.75994 0.58393,12.6527 1.34061,31.49707 1.6815,41.87638 0,0 1.69727,13.62054 -0.61552,19.47409 -0.50846,1.28688 -1.69992,2.33265 -1.69992,2.33265 -2.49521,2.4952 -3.65679,2.93525 -7.74821,2.93525 -3.63705,0 -5.43774,-0.5374 -7.37006,-2.19951 z M 115.12854,218.54557 c -18.107299,-3.32081 -22.81213,-3.472 -27.862733,-0.89537 -3.242704,1.65431 -5.310011,1.90889 -13.620976,1.67744 l -9.798051,-0.27287 -0.267019,-10.54391 -0.267018,-10.54392 40.156377,-0.3063 c 22.08601,-0.16846 43.12626,-0.5998 46.7561,-0.95854 3.62985,-0.35873 10.91313,-0.26797 16.18509,0.20169 6.54478,0.58305 14.15725,0.46946 23.99807,-0.35807 11.52559,-0.96923 17.47795,-0.97477 29.71467,-0.0277 8.41609,0.65137 15.47421,1.34419 15.68471,1.5396 0.21052,0.19541 0.42619,4.97817 0.47927,10.62837 l 0.0965,10.27309 -3.62153,0.86835 c -1.99184,0.47759 -5.08903,0.59304 -6.88263,0.25656 -2.84858,-0.53439 -3.4558,-1.18383 -4.80028,-5.13394 -0.84655,-2.48717 -2.11788,-5.56725 -2.82518,-6.8446 -1.19256,-2.15373 -1.32563,-2.18854 -1.83136,-0.47927 -0.29996,1.01375 -0.83424,3.47241 -1.1873,5.46369 -1.09319,6.16568 -6.13056,7.39924 -8.63797,2.11527 -2.23709,-4.7143 -2.78169,-4.76466 -4.73289,-0.43769 -1.79397,3.97832 -3.2247,4.53447 -7.49172,2.91215 -1.59445,-0.6062 -4.17155,-0.46228 -7.97033,0.44513 -7.77025,1.85608 -12.53213,1.72904 -19.03352,-0.50777 -7.28973,-2.50803 -8.71185,-2.44189 -20.60856,0.95854 -5.53333,1.58159 -11.57121,2.83493 -13.41751,2.78522 -1.8463,-0.0497 -10.0427,-1.31654 -18.21424,-2.81515 z M 70.600849,191.59719 c -3.138806,-0.43953 -6.360159,-1.45238 -7.158561,-2.25078 -1.246046,-1.24604 -1.564422,-9.62979 -2.247955,-59.1948 -0.538197,-39.026302 -0.478134,-58.441491 0.185298,-59.897567 l 0.981613,-2.154406 70.716016,0.02103 c 38.89381,0.01157 78.27943,-0.269482 87.52358,-0.624556 15.15937,-0.58228 16.96958,-0.483574 18.45972,1.006566 1.48593,1.485922 1.59896,3.452798 1.12342,19.548399 -0.72298,24.470774 -2.23941,68.379804 -2.9939,86.690164 l -0.62286,15.1158 -2.48818,0.63704 c -3.40701,0.87228 -11.10683,0.82509 -23.26264,-0.1426 -8.14592,-0.64847 -12.34581,-0.4741 -20.61137,0.85574 -9.62668,1.54881 -11.26292,1.56197 -22.52333,0.18109 -9.01278,-1.10526 -14.32391,-1.2691 -20.60575,-0.63569 -11.72492,1.18225 -69.506501,1.82037 -76.475101,0.84457 z M 22.150391,82.711244 c -3.866615,-1.503552 -4.912239,-6.37263 -2.111318,-9.83162 1.286536,-1.588805 2.985741,-2.216099 6.709764,-2.477037 l 4.986931,-0.349428 v 6.102444 c 0,4.680388 -0.353322,6.238025 -1.516202,6.684264 -1.837538,0.705129 -6.099769,0.637189 -8.069175,-0.128623 z M 268.17506,81.824126 c -0.35147,-0.351463 -0.63903,-3.155186 -0.63903,-6.230495 v -5.591469 h 5.72661 c 5.41427,0 5.80907,0.159452 7.23842,2.92352 2.81602,5.445567 -0.23979,9.53747 -7.12251,9.53747 -2.51046,0 -4.85203,-0.287562 -5.20349,-0.639026 z"
       id="path1"
       sodipodi:nodetypes="ssscsssssssscssssscsssssssssscccssssssscsssssssssssssssssscssssscsssssssssscssssscssss" />
    <path
       style="fill:#f6f6e1;stroke-width:0.958538"
       d="m 41.623441,239.65664 c -4.285391,-1.72662 -4.32796,-2.36111 -3.299759,-49.18192 0.534688,-24.34784 0.715021,-62.84811 0.40074,-85.55615 l -0.571419,-41.287332 3.02122,-2.151298 c 3.442505,-2.451279 6.173145,-2.064905 8.242322,1.166253 1.426878,2.228165 2.629099,28.447472 4.358841,95.062167 0.479127,18.45185 1.396502,42.61094 2.038611,53.68686 0.642109,11.07593 0.863742,21.34821 0.492517,22.82728 -0.486027,1.93648 -1.805788,3.2026 -4.714914,4.52325 -4.397356,1.99626 -6.742454,2.21056 -9.968159,0.91089 z m 204.291659,-2.19282 -2.55708,-2.19951 1.09903,-30.6304 c 0.60447,-16.84673 1.70895,-47.23708 2.45442,-67.53411 0.74546,-20.29704 1.64066,-45.431485 1.98933,-55.854332 0.5963,-17.825968 0.7541,-19.034801 2.65883,-20.368925 2.62521,-1.838772 5.4217,-1.798468 8.15722,0.117567 l 2.19275,1.535863 -0.65199,43.755047 c -0.41393,27.7787 -0.26433,52.15485 0.4097,66.75994 0.58393,12.6527 1.34061,31.49707 1.6815,41.87638 0,0 1.69727,13.62054 -0.61552,19.47409 -0.50846,1.28688 -1.69992,2.33265 -1.69992,2.33265 -2.49521,2.4952 -3.65679,2.93525 -7.74821,2.93525 -3.63705,0 -5.43774,-0.5374 -7.37006,-2.19951 z M 115.12854,218.54557 c -18.107299,-3.32081 -22.81213,-3.472 -27.862733,-0.89537 -3.242704,1.65431 -5.310011,1.90889 -13.620976,1.67744 l -9.798051,-0.27287 -0.267019,-10.54391 -0.267018,-10.54392 40.156377,-0.3063 c 22.08601,-0.16846 43.12626,-0.5998 46.7561,-0.95854 3.62985,-0.35873 10.91313,-0.26797 16.18509,0.20169 6.54478,0.58305 14.15725,0.46946 23.99807,-0.35807 11.52559,-0.96923 17.47795,-0.97477 29.71467,-0.0277 8.41609,0.65137 15.47421,1.34419 15.68471,1.5396 0.21052,0.19541 0.42619,4.97817 0.47927,10.62837 l 0.0965,10.27309 -3.62153,0.86835 c -1.99184,0.47759 -5.08903,0.59304 -6.88263,0.25656 -2.84858,-0.53439 -3.4558,-1.18383 -4.80028,-5.13394 -0.84655,-2.48717 -2.11788,-5.56725 -2.82518,-6.8446 -1.19256,-2.15373 -1.32563,-2.18854 -1.83136,-0.47927 -0.29996,1.01375 -0.83424,3.47241 -1.1873,5.46369 -1.09319,6.16568 -6.13056,7.39924 -8.63797,2.11527 -2.23709,-4.7143 -2.78169,-4.76466 -4.73289,-0.43769 -1.79397,3.97832 -3.2247,4.53447 -7.49172,2.91215 -1.59445,-0.6062 -4.17155,-0.46228 -7.97033,0.44513 -7.77025,1.85608 -12.53213,1.72904 -19.03352,-0.50777 -7.28973,-2.50803 -8.71185,-2.44189 -20.60856,0.95854 -5.53333,1.58159 -11.57121,2.83493 -13.41751,2.78522 -1.8463,-0.0497 -10.0427,-1.31654 -18.21424,-2.81515 z M 70.600849,191.59719 c -3.138806,-0.43953 -6.360159,-1.45238 -7.158561,-2.25078 -1.246046,-1.24604 -1.564422,-9.62979 -2.247955,-59.1948 -0.538197,-39.026302 -0.478134,-58.441491 0.185298,-59.897567 l 0.981613,-2.154406 70.716016,0.02103 c 38.89381,0.01157 78.27943,-0.269482 87.52358,-0.624556 15.15937,-0.58228 16.96958,-0.483574 18.45972,1.006566 1.48593,1.485922 1.59896,3.452798 1.12342,19.548399 -0.72298,24.470774 -2.23941,68.379804 -2.9939,86.690164 l -0.62286,15.1158 -2.48818,0.63704 c -3.40701,0.87228 -11.10683,0.82509 -23.26264,-0.1426 -8.14592,-0.64847 -12.34581,-0.4741 -20.61137,0.85574 -9.62668,1.54881 -11.26292,1.56197 -22.52333,0.18109 -9.01278,-1.10526 -14.32391,-1.2691 -20.60575,-0.63569 -11.72492,1.18225 -69.506501,1.82037 -76.475101,0.84457 z M 22.150391,82.711244 c -3.866615,-1.503552 -4.912239,-6.37263 -2.111318,-9.83162 1.286536,-1.588805 2.985741,-2.216099 6.709764,-2.477037 l 4.986931,-0.349428 v 6.102444 c 0,4.680388 -0.353322,6.238025 -1.516202,6.684264 -1.837538,0.705129 -6.099769,0.637189 -8.069175,-0.128623 z M 268.17506,81.824126 c -0.35147,-0.351463 -0.63903,-3.155186 -0.63903,-6.230495 v -5.591469 h 5.72661 c 5.41427,0 5.80907,0.159452 7.23842,2.92352 2.81602,5.445567 -0.23979,9.53747 -7.12251,9.53747 -2.51046,0 -4.85203,-0.287562 -5.20349,-0.639026 z"
       id="path2"
       sodipodi:nodetypes="ssscsssssssscssssscsssssssssscccssssssscsssssssssssssssssscssssscsssssssssscssssscssss" />
  </g>
</svg>
