<?xml version="1.0" encoding="UTF-8" standalone="no"?>
<!-- Created with Inkscape (http://www.inkscape.org/) -->

<svg
   version="1.1"
   id="svg1"
   width="300"
   height="300"
   viewBox="0 0 300 300"
   sodipodi:docname="curtainleft.svg"
   inkscape:version="1.4.2 (f4327f4, 2025-05-13)"
   xmlns:inkscape="http://www.inkscape.org/namespaces/inkscape"
   xmlns:sodipodi="http://sodipodi.sourceforge.net/DTD/sodipodi-0.dtd"
   xmlns="http://www.w3.org/2000/svg"
   xmlns:svg="http://www.w3.org/2000/svg">
  <defs
     id="defs1">
    <filter
       inkscape:collect="always"
       style="color-interpolation-filters:sRGB"
       id="filter10"
       x="-0.060941201"
       y="-0.050652336"
       width="1.1220647"
       height="1.101828">
      <feGaussianBlur
         inkscape:collect="always"
         stdDeviation="1.9494"
         id="feGaussianBlur10" />
    </filter>
  </defs>
  <sodipodi:namedview
     id="namedview1"
     pagecolor="#ffffff"
     bordercolor="#000000"
     borderopacity="0.25"
     inkscape:showpageshadow="2"
     inkscape:pageopacity="0.0"
     inkscape:pagecheckerboard="0"
     inkscape:deskcolor="#d1d1d1"
     inkscape:zoom="2.811928"
     inkscape:cx="94.597018"
     inkscape:cy="161.9885"
     inkscape:window-width="2560"
     inkscape:window-height="1411"
     inkscape:window-x="3191"
     inkscape:window-y="-9"
     inkscape:window-maximized="1"
     inkscape:current-layer="g1" />
  <g
     inkscape:groupmode="layer"
     inkscape:label="Image"
     id="g1">
    <path
       id="path6"
       style="mix-blend-mode:normal;fill:#f6f6e1;stroke:#753f4b;stroke-width:12.3;stroke-dasharray:none;filter:url(#filter10)"
       d="m 191.29883,43.189453 c -1.56538,0.03371 -3.65021,0.281659 -6.86524,0.691406 -26.78568,3.413774 -63.83254,3.899061 -79.29492,1.03711 -7.325128,-1.355818 -7.369968,-1.351013 -9.316404,1.052734 -1.757973,2.171005 -1.891488,3.433082 -1.330078,12.472656 2.080944,33.506424 3.87075,52.481011 5.949222,63.056641 1.29711,6.6 3.587,18.3 5.08789,26 1.50089,7.7 3.0929,14.97165 3.53906,16.1582 0.88415,2.3514 3.09419,3.04635 13.70703,4.31641 3.69828,0.44258 9.19399,0.74291 12.21094,0.66601 L 140.4707,168.5 152.32031,155 c 23.9317,-27.26468 44.98073,-58.508307 53.11524,-78.839844 3.53844,-8.844047 6.63072,-26.937685 5.22851,-30.591797 -0.79503,-2.07181 -4.53042,-1.999604 -6.88672,0.132813 -1.77687,1.608048 -2.11335,1.573223 -6.14453,-0.628906 -2.55782,-1.39727 -3.72502,-1.938993 -6.33398,-1.882813 z m 33.98633,4.910156 c -5.18195,-0.08311 -6.38685,0.221187 -7.25,1.833985 -1.68334,3.145356 -1.27618,11.680855 0.64843,13.605468 1.40622,1.406218 2.83812,1.569698 8.71875,0.990235 3.87014,-0.381353 7.8177,-1.111548 8.77344,-1.623047 2.41287,-1.29133 3.33131,-7.080438 1.66992,-10.529297 -1.58026,-3.280454 -4.11074,-4.141817 -12.56054,-4.277344 z M 76.130859,48.212891 C 63.681145,47.869166 61,48.988017 61,54.523438 61,56.667052 61.766956,58.766956 63,60 c 1.758579,1.758579 3.332565,2 13.044922,2 H 87.091797 L 86.794922,55.25 86.5,48.5 Z M 110.22461,171.55078 c -2.28526,0.12402 -3.20892,0.54962 -3.31055,1.30664 -0.0475,0.35365 -0.21937,2.85503 -0.38086,5.5586 -0.25833,4.32511 0.0396,5.19521 2.47461,7.24414 2.97606,2.50419 12.71845,7.87102 15.68164,8.63867 3.66219,0.94872 9.94568,0.6676 11.11133,-0.49805 2.36628,-2.36628 1.39982,-5.81078 -2.05078,-7.31055 l -3.25,-1.41211 3,-0.0547 c 4.04701,-0.0735 5.36728,-1.07343 6.46484,-4.90039 1.78308,-6.21725 1.16132,-6.49212 -18.25976,-8.06836 -5.54906,-0.45037 -9.19522,-0.62792 -11.48047,-0.50391 z M 109,192 c -0.57734,0 -1.52423,1.2375 -2.10547,2.75 C 103.6381,203.22388 95,240.48327 95,246.05664 c 0,1.52938 0.279445,3.50811 0.621094,4.39844 0.642181,1.67349 4.994876,4.27955 9.373046,5.61133 6.43931,1.95875 27.51968,0.30114 29.16602,-2.29297 0.44461,-0.70055 0.81621,-3.05715 0.82422,-5.23633 0.0127,-3.2779 0.71873,-4.6784 4.08789,-8.11133 l 4.07226,-4.14844 -1.04687,-7.88867 c -0.57586,-4.33858 -2.49428,-12.47875 -4.26368,-18.08984 l -3.21679,-10.20313 -5.5586,-0.67968 c -3.1349,-0.38332 -8.49029,-2.14712 -12.2832,-4.04688 C 113.07662,193.51654 109.57735,192 109,192 Z"
       transform="matrix(1.0694631,0,0,1.0694631,-10.409776,-10.427204)" />
    <path
       style="fill:#f6f6e1;stroke-width:1.06946"
       d="m 56.966399,53.740582 c -1.318695,-1.318695 -2.138926,-3.564877 -2.138926,-5.857393 0,-5.919927 2.866346,-7.115231 16.180856,-6.74763 l 11.090453,0.306197 0.316229,7.218876 0.31623,7.218876 H 70.918283 c -10.387007,0 -12.071149,-0.258191 -13.951884,-2.138926 z"
       id="path5" />
    <path
       style="fill:#f6f6e1;stroke-width:1.06946"
       d="m 223.46324,57.526251 c -2.0583,-2.058302 -2.49271,-11.186766 -0.69244,-14.550608 0.92311,-1.724828 2.21171,-2.050902 7.75361,-1.962014 9.03675,0.144941 11.74259,1.066483 13.43262,4.574808 1.77679,3.688427 0.79542,9.878643 -1.78505,11.259673 -1.02213,0.547029 -5.24485,1.328288 -9.38383,1.736131 -6.28911,0.619714 -7.82101,0.445908 -9.32491,-1.05799 z"
       id="path4" />
    <path
       style="fill:#ce9e9a;stroke-width:1.06946"
       d="m 120.89446,169.21582 c -11.35004,-1.35829 -13.71354,-2.10277 -14.6591,-4.61751 -0.47716,-1.26897 -2.18085,-9.04484 -3.786,-17.27971 -1.60515,-8.23486 -4.053458,-20.74758 -5.440669,-27.80604 -2.222845,-11.31024 -4.137625,-31.603386 -6.363117,-67.43727 -0.600408,-9.667491 -0.456358,-11.017086 1.423729,-13.338896 2.081641,-2.570719 2.129662,-2.576146 9.963617,-1.126149 16.53645,3.060751 56.15656,2.543252 84.80285,-1.107653 9.16894,-1.168559 9.73897,-1.117119 14.11577,1.273806 4.3112,2.355096 4.67107,2.391906 6.57137,0.672158 2.51998,-2.280542 6.51525,-2.357382 7.3655,-0.141657 1.49961,3.907938 -1.80771,23.257738 -5.59194,32.71612 -8.69956,21.743828 -31.21112,55.157991 -56.80519,84.316561 l -12.6728,14.43775 -5.86639,0.14954 c -3.22652,0.0822 -9.10245,-0.23773 -13.05763,-0.71105 z"
       id="path3" />
    <path
       style="fill:#f6f6e1;stroke-width:1.06946"
       d="m 122.9419,197.3686 c -3.16902,-0.82097 -13.5893,-6.56132 -16.77208,-9.23946 -2.60415,-2.19125 -2.92197,-3.12191 -2.64569,-7.74745 0.1727,-2.89137 0.35555,-5.56651 0.40633,-5.94472 0.21738,-1.61922 3.95016,-1.82179 15.81919,-0.85848 20.77013,1.68573 21.43481,1.97944 19.52787,8.62856 -1.1738,4.09279 -2.58584,5.16334 -6.91397,5.2419 l -3.20839,0.0583 3.47575,1.51071 c 3.69029,1.60395 4.72305,5.2862 2.1924,7.81685 -1.24662,1.24662 -7.96483,1.54847 -11.88141,0.53385 z"
       id="path2" />
    <path
       style="fill:#ce9e9a;stroke-width:1.06946"
       d="m 101.87693,263.42557 c -4.682292,-1.42429 -9.336593,-4.21044 -10.023382,-6.00018 -0.365381,-0.95218 -0.66433,-3.06946 -0.66433,-4.70507 0,-5.96051 9.237242,-45.80708 12.719872,-54.86959 0.62162,-1.61756 1.63539,-2.94102 2.25284,-2.94102 0.61745,0 4.35911,1.62106 8.3148,3.60235 4.05638,2.03172 9.78398,3.91925 13.13664,4.3292 l 5.94444,0.72685 3.44058,10.91065 c 1.8923,6.00085 3.94444,14.70696 4.5603,19.34692 l 1.11973,8.43626 -4.35533,4.43777 c -3.60319,3.67139 -4.35817,5.16955 -4.37172,8.67514 -0.009,2.33056 -0.40541,4.85037 -0.88091,5.59959 -1.7607,2.7743 -24.30693,4.54594 -31.19353,2.45113 z"
       id="path1" />
  </g>
</svg>
