<?xml version="1.0" encoding="UTF-8" standalone="no"?>
<!-- Created with Inkscape (http://www.inkscape.org/) -->

<svg
   version="1.1"
   id="svg1"
   width="300"
   height="300"
   viewBox="0 0 300 300"
   sodipodi:docname="dresser.svg"
   inkscape:version="1.4.2 (f4327f4, 2025-05-13)"
   xmlns:inkscape="http://www.inkscape.org/namespaces/inkscape"
   xmlns:sodipodi="http://sodipodi.sourceforge.net/DTD/sodipodi-0.dtd"
   xmlns="http://www.w3.org/2000/svg"
   xmlns:svg="http://www.w3.org/2000/svg">
  <defs
     id="defs1">
    <filter
       inkscape:collect="always"
       style="color-interpolation-filters:sRGB"
       id="filter5"
       x="-0.05864214"
       y="-0.04141292"
       width="1.1160368"
       height="1.08285">
      <feGaussianBlur
         inkscape:collect="always"
         stdDeviation="1.9494"
         id="feGaussianBlur5" />
    </filter>
  </defs>
  <sodipodi:namedview
     id="namedview1"
     pagecolor="#ffffff"
     bordercolor="#000000"
     borderopacity="0.25"
     inkscape:showpageshadow="2"
     inkscape:pageopacity="0.0"
     inkscape:pagecheckerboard="0"
     inkscape:deskcolor="#d1d1d1"
     inkscape:zoom="1.9883333"
     inkscape:cx="120.20117"
     inkscape:cy="87.761945"
     inkscape:window-width="2560"
     inkscape:window-height="1411"
     inkscape:window-x="3191"
     inkscape:window-y="-9"
     inkscape:window-maximized="1"
     inkscape:current-layer="g1" />
  <g
     inkscape:groupmode="layer"
     inkscape:label="Image"
     id="g1">
    <path
       style="opacity:1;fill:#f6f6e1;stroke-width:12.3;stroke-dasharray:none;stroke:#753f4b;filter:url(#filter5)"
       d="m 136.94976,279.4135 c -1.51412,-2.31084 -3.31973,-18.30544 -3.35306,-29.70235 l -0.0158,-5.38852 7.09546,-3.50843 c 3.9025,-1.92963 8.32813,-3.81781 9.83473,-4.19594 l 2.73927,-0.68751 -0.65066,19.10391 c -0.70411,20.67373 -1.49375,24.03403 -6.05528,25.76832 -4.32678,1.64504 -7.95023,1.1203 -9.5947,-1.38948 z m 81.56135,-41.27739 c -2.65445,-2.08801 -3.04921,-4.02688 -4.02566,-19.77241 -0.7099,-11.44724 -0.6139,-11.61867 9.29324,-16.59432 7.40787,-3.72046 8.70592,-4.10631 9.22891,-2.7434 1.16258,3.02963 -0.57271,32.28903 -2.08884,35.22092 -3.18626,6.16154 -7.71441,7.58091 -12.40765,3.88921 z M 94.846298,236.21537 c -12.037491,-4.28502 -22.207263,-8.76686 -26.741455,-11.78502 -3.27076,-2.17716 -4.098945,-3.36601 -4.621539,-6.63413 -0.402644,-2.518 -0.183715,-4.87452 0.595568,-6.41062 1.216205,-2.39735 2.143294,-2.87439 19.147032,-9.85237 9.012701,-3.69863 24.006746,-9.90891 34.861186,-14.43893 4.52711,-1.88936 13.89605,-5.94089 20.81987,-9.00339 6.92382,-3.06252 17.81794,-7.84878 24.20915,-10.63615 6.39122,-2.78737 13.92108,-6.10473 16.73302,-7.37191 2.81193,-1.26719 5.42652,-2.30666 5.8102,-2.30994 0.38367,-0.003 2.00487,-0.69735 3.60267,-1.54239 1.5978,-0.84502 4.92061,-2.33972 7.38401,-3.32156 2.4634,-0.98183 6.38528,-2.67297 8.7153,-3.75809 9.76317,-4.54689 12.35557,-5.0731 16.14163,-3.2765 1.90325,0.90316 7.23469,5.36738 11.84762,9.92049 6.8458,6.75702 8.61381,9.11648 9.62048,12.83883 1.36935,5.06337 0.99674,7.50427 -1.84933,12.1146 -3.15694,5.11389 -8.1391,7.97344 -37.45054,21.49498 -29.17066,13.45661 -29.4216,13.57107 -45.88107,20.92701 -5.59232,2.49927 -15.39702,6.96643 -21.78824,9.92703 -11.56742,5.35837 -11.66895,5.38441 -22.27242,5.71551 -9.85156,0.3076 -11.27057,0.11242 -18.883142,-2.59745 z m -0.552284,-54.19316 c -4.417238,-1.78779 -5.314714,-5.03085 -7.198868,-26.01333 -2.946962,-32.8182 -4.847397,-60.130904 -4.829234,-69.404921 0.02168,-11.071449 2.976631,-25.676422 6.171867,-30.50475 7.707748,-11.647192 25.228171,-24.266971 38.848781,-27.982373 11.5732,-3.156909 28.12375,0.171451 34.9886,7.0363 6.46313,6.463131 8.27196,13.6101 8.97784,35.472782 0.72477,22.447879 -0.4796,70.620512 -1.91838,76.731782 -1.34826,5.72682 -3.92295,9.06665 -8.4868,11.00895 -5.96968,2.5406 -34.23526,14.09863 -39.37145,16.09932 -2.66301,1.03733 -6.77598,2.76669 -9.13993,3.84304 -9.95983,4.5349 -13.972018,5.36062 -18.042426,3.7132 z m 16.124336,-18.78083 c 1.37452,-0.71727 7.69311,-3.57995 14.04131,-6.36151 6.34821,-2.78155 13.72102,-6.09437 16.38403,-7.36183 2.66301,-1.26745 7.76613,-3.59619 11.34029,-5.17496 5.20642,-2.29978 6.65041,-3.41545 7.26274,-5.61147 0.42036,-1.50754 0.76429,-19.95368 0.76429,-40.99144 0,0 1.26133,-26.809712 -1.6437,-39.224512 -0.45137,-1.928911 -0.99322,-4.351965 -0.99322,-4.351965 -3.87305,-7.82269 -7.82713,-10.167845 -17.14363,-10.167845 -6.57496,0 -8.08509,0.38116 -14.59644,3.684192 -14.01148,7.107636 -22.96684,19.346117 -25.29347,34.566272 -1.674098,10.951493 0.78182,73.828608 3.12989,80.132298 0.92275,2.47728 3.11651,2.75776 6.74791,0.86277 z m -2.80992,-6.2575 c -1.53735,-1.53736 -1.97751,-3.87 -2.5218,-13.36456 -0.36266,-6.32619 -1.09315,-16.03063 -1.62334,-21.56544 -2.22671,-23.245888 -0.74173,-42.175666 4.04673,-51.585442 3.05859,-6.01045 13.3197,-15.445402 20.72435,-19.055765 8.58311,-4.184961 15.04748,-4.239144 20.6604,-0.173171 2.19121,1.587304 4.67051,4.213551 5.50957,5.836106 2.97291,5.74896 3.7308,17.952994 2.54282,40.945795 -0.61117,11.828857 -1.10729,24.601277 -1.10251,28.383157 0.0137,10.89214 -0.65338,11.95313 -10.4273,16.58193 -12.94547,6.13082 -31.44017,14.43688 -33.8172,15.18746 -1.47393,0.46542 -2.70251,0.0991 -3.99172,-1.19007 z m -38.337754,17.18291 c -3.117966,-3.70549 -3.141508,-5.18941 -0.130099,-8.20082 3.15462,-3.15462 7.595171,-3.14489 10.763641,0.0235 1.853094,1.8531 2.26139,3.0124 1.790529,5.08393 -1.452425,6.38989 -8.23024,8.07742 -12.424071,3.09333 z m -6.211662,-28.31281 c -2.970983,-3.16247 -2.843439,-8.72929 0.271366,-11.84409 3.482155,-3.48216 8.521208,-3.24817 12.342497,0.57312 2.550481,2.55048 2.872262,3.43576 2.375878,6.53647 -0.749481,4.68171 -3.644299,6.97573 -8.80264,6.97573 -3.014349,0 -4.632108,-0.58603 -6.187101,-2.24123 z M 185.21394,132.52636 c -2.64823,-0.97965 -5.15142,-4.59842 -5.15142,-7.44724 0,-3.15089 4.14439,-7.00326 7.53411,-7.00326 3.83103,0 6.99138,3.57168 6.99138,7.90134 0,5.04908 -4.649,8.29708 -9.37407,6.54916 z M 61.393648,110.85713 c -2.794054,-2.79405 -3.22898,-8.56441 -0.896516,-11.894468 2.030615,-2.899109 7.182579,-3.736784 10.962033,-1.782353 6.406424,3.312891 6.995485,11.560101 1.045453,14.636991 -4.148733,2.14539 -8.370216,1.78058 -11.11097,-0.96017 z M 180.83698,98.663613 c -2.52213,-2.522129 -2.86847,-3.452533 -2.38782,-6.414485 1.06778,-6.579939 6.56827,-9.559628 12.23631,-6.628572 5.42312,2.804404 6.35924,8.843532 2.0403,13.16247 -3.8509,3.850904 -7.95974,3.809634 -11.88879,-0.119413 z M 62.578458,80.500108 c -3.096868,-3.422 -2.503119,-8.401983 1.232033,-10.333506 4.035911,-2.087051 5.625489,-1.859194 8.737095,1.252412 3.171249,3.171249 3.044277,7.055039 -0.307399,9.402644 -2.795163,1.957808 -7.748115,1.792971 -9.661729,-0.32155 z M 181.99925,65.499381 c -3.20278,-1.619999 -5.14352,-5.820865 -4.35267,-9.42164 1.40263,-6.386099 9.97888,-8.964639 14.56453,-4.378981 3.46751,3.4675 3.37668,10.25323 -0.17461,13.046677 -2.89482,2.277068 -6.49182,2.547256 -10.03725,0.753944 z m -4.77154,-33.25452 c -1.10386,-1.403329 -2.00702,-3.523387 -2.00702,-4.711238 0,-3.480221 3.58989,-7.262746 6.89286,-7.262746 4.33819,0 8.01957,4.087117 7.25374,8.053212 -1.2298,6.368929 -8.39383,8.682726 -12.13958,3.920772 z"
       id="path5"
       sodipodi:nodetypes="sscsscsssssssssssssssssscssssssssssssssssssssssssssssssssssssssssssssssssscsssccssssssssssssssssssssssssssssssssssss" />
    <path
       style="opacity:1;fill:#f6f6e1;stroke-width:0.968366"
       d="m 136.94976,279.4135 c -1.51412,-2.31084 -3.31973,-18.30544 -3.35306,-29.70235 l -0.0158,-5.38852 7.09546,-3.50843 c 3.9025,-1.92963 8.32813,-3.81781 9.83473,-4.19594 l 2.73927,-0.68751 -0.65066,19.10391 c -0.70411,20.67373 -1.49375,24.03403 -6.05528,25.76832 -4.32678,1.64504 -7.95023,1.1203 -9.5947,-1.38948 z m 81.56135,-41.27739 c -2.65445,-2.08801 -3.04921,-4.02688 -4.02566,-19.77241 -0.7099,-11.44724 -0.6139,-11.61867 9.29324,-16.59432 7.40787,-3.72046 8.70592,-4.10631 9.22891,-2.7434 1.16258,3.02963 -0.57271,32.28903 -2.08884,35.22092 -3.18626,6.16154 -7.71441,7.58091 -12.40765,3.88921 z M 94.846298,236.21537 c -12.037491,-4.28502 -22.207263,-8.76686 -26.741455,-11.78502 -3.27076,-2.17716 -4.098945,-3.36601 -4.621539,-6.63413 -0.402644,-2.518 -0.183715,-4.87452 0.595568,-6.41062 1.216205,-2.39735 2.143294,-2.87439 19.147032,-9.85237 9.012701,-3.69863 24.006746,-9.90891 34.861186,-14.43893 4.52711,-1.88936 13.89605,-5.94089 20.81987,-9.00339 6.92382,-3.06252 17.81794,-7.84878 24.20915,-10.63615 6.39122,-2.78737 13.92108,-6.10473 16.73302,-7.37191 2.81193,-1.26719 5.42652,-2.30666 5.8102,-2.30994 0.38367,-0.003 2.00487,-0.69735 3.60267,-1.54239 1.5978,-0.84502 4.92061,-2.33972 7.38401,-3.32156 2.4634,-0.98183 6.38528,-2.67297 8.7153,-3.75809 9.76317,-4.54689 12.35557,-5.0731 16.14163,-3.2765 1.90325,0.90316 7.23469,5.36738 11.84762,9.92049 6.8458,6.75702 8.61381,9.11648 9.62048,12.83883 1.36935,5.06337 0.99674,7.50427 -1.84933,12.1146 -3.15694,5.11389 -8.1391,7.97344 -37.45054,21.49498 -29.17066,13.45661 -29.4216,13.57107 -45.88107,20.92701 -5.59232,2.49927 -15.39702,6.96643 -21.78824,9.92703 -11.56742,5.35837 -11.66895,5.38441 -22.27242,5.71551 -9.85156,0.3076 -11.27057,0.11242 -18.883142,-2.59745 z m -0.552284,-54.19316 c -4.417238,-1.78779 -5.314714,-5.03085 -7.198868,-26.01333 -2.946962,-32.8182 -4.847397,-60.130904 -4.829234,-69.404921 0.02168,-11.071449 2.976631,-25.676422 6.171867,-30.50475 7.707748,-11.647192 25.228171,-24.266971 38.848781,-27.982373 11.5732,-3.156909 28.12375,0.171451 34.9886,7.0363 6.46313,6.463131 8.27196,13.6101 8.97784,35.472782 0.72477,22.447879 -0.4796,70.620512 -1.91838,76.731782 -1.34826,5.72682 -3.92295,9.06665 -8.4868,11.00895 -5.96968,2.5406 -34.23526,14.09863 -39.37145,16.09932 -2.66301,1.03733 -6.77598,2.76669 -9.13993,3.84304 -9.95983,4.5349 -13.972018,5.36062 -18.042426,3.7132 z m 16.124336,-18.78083 c 1.37452,-0.71727 7.69311,-3.57995 14.04131,-6.36151 6.34821,-2.78155 13.72102,-6.09437 16.38403,-7.36183 2.66301,-1.26745 7.76613,-3.59619 11.34029,-5.17496 5.20642,-2.29978 6.65041,-3.41545 7.26274,-5.61147 0.42036,-1.50754 0.76429,-19.95368 0.76429,-40.99144 0,0 1.26133,-26.809712 -1.6437,-39.224512 -0.45137,-1.928911 -0.99322,-4.351965 -0.99322,-4.351965 -3.87305,-7.82269 -7.82713,-10.167845 -17.14363,-10.167845 -6.57496,0 -8.08509,0.38116 -14.59644,3.684192 -14.01148,7.107636 -22.96684,19.346117 -25.29347,34.566272 -1.674098,10.951493 0.78182,73.828608 3.12989,80.132298 0.92275,2.47728 3.11651,2.75776 6.74791,0.86277 z m -2.80992,-6.2575 c -1.53735,-1.53736 -1.97751,-3.87 -2.5218,-13.36456 -0.36266,-6.32619 -1.09315,-16.03063 -1.62334,-21.56544 -2.22671,-23.245888 -0.74173,-42.175666 4.04673,-51.585442 3.05859,-6.01045 13.3197,-15.445402 20.72435,-19.055765 8.58311,-4.184961 15.04748,-4.239144 20.6604,-0.173171 2.19121,1.587304 4.67051,4.213551 5.50957,5.836106 2.97291,5.74896 3.7308,17.952994 2.54282,40.945795 -0.61117,11.828857 -1.10729,24.601277 -1.10251,28.383157 0.0137,10.89214 -0.65338,11.95313 -10.4273,16.58193 -12.94547,6.13082 -31.44017,14.43688 -33.8172,15.18746 -1.47393,0.46542 -2.70251,0.0991 -3.99172,-1.19007 z m -38.337754,17.18291 c -3.117966,-3.70549 -3.141508,-5.18941 -0.130099,-8.20082 3.15462,-3.15462 7.595171,-3.14489 10.763641,0.0235 1.853094,1.8531 2.26139,3.0124 1.790529,5.08393 -1.452425,6.38989 -8.23024,8.07742 -12.424071,3.09333 z m -6.211662,-28.31281 c -2.970983,-3.16247 -2.843439,-8.72929 0.271366,-11.84409 3.482155,-3.48216 8.521208,-3.24817 12.342497,0.57312 2.550481,2.55048 2.872262,3.43576 2.375878,6.53647 -0.749481,4.68171 -3.644299,6.97573 -8.80264,6.97573 -3.014349,0 -4.632108,-0.58603 -6.187101,-2.24123 z M 185.21394,132.52636 c -2.64823,-0.97965 -5.15142,-4.59842 -5.15142,-7.44724 0,-3.15089 4.14439,-7.00326 7.53411,-7.00326 3.83103,0 6.99138,3.57168 6.99138,7.90134 0,5.04908 -4.649,8.29708 -9.37407,6.54916 z M 61.393648,110.85713 c -2.794054,-2.79405 -3.22898,-8.56441 -0.896516,-11.894468 2.030615,-2.899109 7.182579,-3.736784 10.962033,-1.782353 6.406424,3.312891 6.995485,11.560101 1.045453,14.636991 -4.148733,2.14539 -8.370216,1.78058 -11.11097,-0.96017 z M 180.83698,98.663613 c -2.52213,-2.522129 -2.86847,-3.452533 -2.38782,-6.414485 1.06778,-6.579939 6.56827,-9.559628 12.23631,-6.628572 5.42312,2.804404 6.35924,8.843532 2.0403,13.16247 -3.8509,3.850904 -7.95974,3.809634 -11.88879,-0.119413 z M 62.578458,80.500108 c -3.096868,-3.422 -2.503119,-8.401983 1.232033,-10.333506 4.035911,-2.087051 5.625489,-1.859194 8.737095,1.252412 3.171249,3.171249 3.044277,7.055039 -0.307399,9.402644 -2.795163,1.957808 -7.748115,1.792971 -9.661729,-0.32155 z M 181.99925,65.499381 c -3.20278,-1.619999 -5.14352,-5.820865 -4.35267,-9.42164 1.40263,-6.386099 9.97888,-8.964639 14.56453,-4.378981 3.46751,3.4675 3.37668,10.25323 -0.17461,13.046677 -2.89482,2.277068 -6.49182,2.547256 -10.03725,0.753944 z m -4.77154,-33.25452 c -1.10386,-1.403329 -2.00702,-3.523387 -2.00702,-4.711238 0,-3.480221 3.58989,-7.262746 6.89286,-7.262746 4.33819,0 8.01957,4.087117 7.25374,8.053212 -1.2298,6.368929 -8.39383,8.682726 -12.13958,3.920772 z"
       id="path1"
       sodipodi:nodetypes="sscsscsssssssssssssssssscssssssssssssssssssssssssssssssssssssssssssssssssscsssccssssssssssssssssssssssssssssssssssss" />
    <path
       id="path4"
       style="opacity:1;fill:#ce9e9a;stroke-width:0.968366"
       d="m 139.67863,48.23245 c -3.3906,0.02842 -7.15295,1.086862 -11.4445,3.179343 -7.40465,3.610363 -17.66482,13.046693 -20.72342,19.057144 -3.68021,7.23198 -5.41032,20.085963 -5.00259,36.202143 l 49.70631,-52.465778 c -1.01107,-1.078166 -2.20267,-2.156742 -3.31931,-2.965621 -2.80646,-2.032987 -5.8259,-3.035651 -9.21649,-3.007231 z m 17.11663,52.79865 -32.1055,51.50308 c 6.51025,-2.92493 14.30171,-6.50445 20.7272,-9.54748 9.77391,-4.6288 10.4407,-5.68925 10.42695,-16.58138 -0.004,-3.46274 0.41205,-14.46253 0.95135,-25.37422 z m -55.36521,3.99452 -0.0889,2.87861 0.19481,-0.20426 c -0.0174,-1.10111 -0.0949,-1.61618 -0.10592,-2.67435 z" />
  </g>
</svg>
