<?xml version="1.0" encoding="UTF-8" standalone="no"?>
<!-- Created with Inkscape (http://www.inkscape.org/) -->

<svg
   version="1.1"
   id="svg1"
   width="300"
   height="300"
   viewBox="0 0 300 300"
   sodipodi:docname="stickjar.svg"
   inkscape:version="1.4.2 (f4327f4, 2025-05-13)"
   xmlns:inkscape="http://www.inkscape.org/namespaces/inkscape"
   xmlns:sodipodi="http://sodipodi.sourceforge.net/DTD/sodipodi-0.dtd"
   xmlns="http://www.w3.org/2000/svg"
   xmlns:svg="http://www.w3.org/2000/svg">
  <defs
     id="defs1">
    <filter
       inkscape:collect="always"
       style="color-interpolation-filters:sRGB"
       id="filter2"
       x="-0.073115407"
       y="-0.043795225"
       width="1.1446294"
       height="1.0876411">
      <feGaussianBlur
         inkscape:collect="always"
         stdDeviation="1.9494"
         id="feGaussianBlur2" />
    </filter>
  </defs>
  <sodipodi:namedview
     id="namedview1"
     pagecolor="#ffffff"
     bordercolor="#000000"
     borderopacity="0.25"
     inkscape:showpageshadow="2"
     inkscape:pageopacity="0.0"
     inkscape:pagecheckerboard="0"
     inkscape:deskcolor="#d1d1d1"
     inkscape:zoom="1.9883333"
     inkscape:cx="120.70411"
     inkscape:cy="100.33529"
     inkscape:window-width="2560"
     inkscape:window-height="1411"
     inkscape:window-x="3191"
     inkscape:window-y="-9"
     inkscape:window-maximized="1"
     inkscape:current-layer="g1" />
  <g
     inkscape:groupmode="layer"
     inkscape:label="Image"
     id="g1">
    <path
       style="fill:#f6f6e1;stroke-width:12.3;stroke-dasharray:none;stroke:#753f4b;filter:url(#filter2)"
       d="m 128.50735,271.95675 c -22.05082,-4.93823 -40.621724,-14.33433 -45.628566,-23.08614 -2.172907,-3.79818 -2.985454,-7.98233 -4.515297,-23.25123 -2.76768,-27.62335 -3.510191,-51.40597 -1.824335,-58.43341 1.64538,-6.85871 5.633416,-10.88372 15.937405,-16.08516 8.276723,-4.17808 25.714943,-10.1158 29.708603,-10.1158 2.49634,0 2.93681,0.49672 2.93681,3.31191 0,6.23197 -1.75423,8.71802 -7.53867,10.68358 -6.31935,2.14733 -16.15359,8.52637 -16.15677,10.48019 -0.005,2.61538 32.7035,10.87516 42.32291,10.68792 5.80372,-0.11297 10.7954,-1.90998 25.74927,-9.26979 10.22963,-5.03469 12.77433,-6.83535 16.14091,-11.42157 2.19818,-2.99451 4.74855,-5.44458 5.66746,-5.44458 3.31064,0 6.26724,2.52522 8.36429,7.14391 1.88265,4.14648 2.13914,7.60834 2.16099,29.16722 0.0265,26.20957 -1.04466,37.47015 -4.686,49.25946 -1.96503,6.36202 -3.37521,8.4949 -9.79484,14.8146 -11.57309,11.39293 -32.10641,22.37673 -43.48129,23.25924 -3.25634,0.25264 -9.95055,-0.48827 -15.36288,-1.70035 z m 12.05741,-101.23516 c -0.79642,-0.79641 3.93064,-7.72132 20.68387,-30.30081 5.98654,-8.06848 19.13912,-25.94353 29.22795,-39.72233 15.43732,-21.083501 18.96331,-25.256979 22.25685,-26.343943 5.13136,-1.693504 8.73792,-0.685486 10.37095,2.89865 1.74417,3.828018 1.66926,6.834778 -0.24631,9.887672 -10.55056,16.814721 -37.85627,60.077201 -40.32713,63.893331 -2.61795,4.04327 -4.74797,5.65228 -11.41216,8.6207 -4.5064,2.00728 -12.31982,5.4831 -17.36315,7.72406 -9.13286,4.0581 -11.79966,4.73389 -13.19087,3.34267 z m -12.40617,-1.21136 c -5.59227,-0.84069 -5.68075,0.22373 3.12187,-37.55289 2.67553,-11.48206 6.47682,-27.98577 8.44731,-36.674891 1.9705,-8.689129 5.29875,-23.161607 7.39611,-32.161061 2.09736,-8.999455 4.40534,-19.409483 5.12884,-23.133395 1.48864,-7.662097 3.35406,-10.322866 8.87401,-12.657557 3.51309,-1.485874 4.09548,-1.438063 6.77075,0.555818 1.60988,1.199842 3.77838,3.651868 4.81887,5.448947 2.11398,3.651106 2.24854,2.692658 -8.06359,57.433415 -2.57222,13.654344 -5.5931,29.739924 -6.71306,35.745744 -2.13907,11.47081 -2.63482,12.43134 -17.07828,33.09021 -5.56089,7.95388 -7.93768,10.7839 -8.86148,10.55127 -0.36929,-0.093 -2.09791,-0.38351 -3.84135,-0.64561 z"
       id="path1" />
    <path
       style="fill:#f6f6e1;stroke-width:1.12846"
       d="m 128.50735,271.95675 c -22.05082,-4.93823 -40.621724,-14.33433 -45.628566,-23.08614 -2.172907,-3.79818 -2.985454,-7.98233 -4.515297,-23.25123 -2.76768,-27.62335 -3.510191,-51.40597 -1.824335,-58.43341 1.64538,-6.85871 5.633416,-10.88372 15.937405,-16.08516 8.276723,-4.17808 25.714943,-10.1158 29.708603,-10.1158 2.49634,0 2.93681,0.49672 2.93681,3.31191 0,6.23197 -1.75423,8.71802 -7.53867,10.68358 -6.31935,2.14733 -16.15359,8.52637 -16.15677,10.48019 -0.005,2.61538 32.7035,10.87516 42.32291,10.68792 5.80372,-0.11297 10.7954,-1.90998 25.74927,-9.26979 10.22963,-5.03469 12.77433,-6.83535 16.14091,-11.42157 2.19818,-2.99451 4.74855,-5.44458 5.66746,-5.44458 3.31064,0 6.26724,2.52522 8.36429,7.14391 1.88265,4.14648 2.13914,7.60834 2.16099,29.16722 0.0265,26.20957 -1.04466,37.47015 -4.686,49.25946 -1.96503,6.36202 -3.37521,8.4949 -9.79484,14.8146 -11.57309,11.39293 -32.10641,22.37673 -43.48129,23.25924 -3.25634,0.25264 -9.95055,-0.48827 -15.36288,-1.70035 z m 12.05741,-101.23516 c -0.79642,-0.79641 3.93064,-7.72132 20.68387,-30.30081 5.98654,-8.06848 19.13912,-25.94353 29.22795,-39.72233 15.43732,-21.083501 18.96331,-25.256979 22.25685,-26.343943 5.13136,-1.693504 8.73792,-0.685486 10.37095,2.89865 1.74417,3.828018 1.66926,6.834778 -0.24631,9.887672 -10.55056,16.814721 -37.85627,60.077201 -40.32713,63.893331 -2.61795,4.04327 -4.74797,5.65228 -11.41216,8.6207 -4.5064,2.00728 -12.31982,5.4831 -17.36315,7.72406 -9.13286,4.0581 -11.79966,4.73389 -13.19087,3.34267 z m -12.40617,-1.21136 c -5.59227,-0.84069 -5.68075,0.22373 3.12187,-37.55289 2.67553,-11.48206 6.47682,-27.98577 8.44731,-36.674891 1.9705,-8.689129 5.29875,-23.161607 7.39611,-32.161061 2.09736,-8.999455 4.40534,-19.409483 5.12884,-23.133395 1.48864,-7.662097 3.35406,-10.322866 8.87401,-12.657557 3.51309,-1.485874 4.09548,-1.438063 6.77075,0.555818 1.60988,1.199842 3.77838,3.651868 4.81887,5.448947 2.11398,3.651106 2.24854,2.692658 -8.06359,57.433415 -2.57222,13.654344 -5.5931,29.739924 -6.71306,35.745744 -2.13907,11.47081 -2.63482,12.43134 -17.07828,33.09021 -5.56089,7.95388 -7.93768,10.7839 -8.86148,10.55127 -0.36929,-0.093 -2.09791,-0.38351 -3.84135,-0.64561 z"
       id="path2" />
  </g>
</svg>
