<?xml version="1.0" encoding="UTF-8" standalone="no"?>
<!-- Created with Inkscape (http://www.inkscape.org/) -->

<svg
   version="1.1"
   id="svg1"
   width="300"
   height="300"
   viewBox="0 0 300 300"
   sodipodi:docname="vase.svg"
   inkscape:version="1.4.2 (f4327f4, 2025-05-13)"
   xmlns:inkscape="http://www.inkscape.org/namespaces/inkscape"
   xmlns:sodipodi="http://sodipodi.sourceforge.net/DTD/sodipodi-0.dtd"
   xmlns="http://www.w3.org/2000/svg"
   xmlns:svg="http://www.w3.org/2000/svg">
  <defs
     id="defs1">
    <filter
       inkscape:collect="always"
       style="color-interpolation-filters:sRGB"
       id="filter24"
       x="-0.089585951"
       y="-0.042499324"
       width="1.1795091"
       height="1.0849968">
      <feGaussianBlur
         inkscape:collect="always"
         stdDeviation="1.9494"
         id="feGaussianBlur24" />
    </filter>
  </defs>
  <sodipodi:namedview
     id="namedview1"
     pagecolor="#ffffff"
     bordercolor="#000000"
     borderopacity="0.25"
     inkscape:showpageshadow="2"
     inkscape:pageopacity="0.0"
     inkscape:pagecheckerboard="0"
     inkscape:deskcolor="#d1d1d1"
     inkscape:zoom="1.9883333"
     inkscape:cx="110.64543"
     inkscape:cy="56.58005"
     inkscape:window-width="2560"
     inkscape:window-height="1411"
     inkscape:window-x="3191"
     inkscape:window-y="-9"
     inkscape:window-maximized="1"
     inkscape:current-layer="g1" />
  <g
     inkscape:groupmode="layer"
     inkscape:label="Image"
     id="g1">
    <path
       id="path13"
       style="fill:#f6f6e1;stroke:#753f4b;stroke-width:12.3;stroke-dasharray:none;filter:url(#filter24)"
       d="m 189.49796,20.744232 c -6.97358,0 -9.58884,7.566124 -4.18172,12.099223 0.85348,0.71552 2.72055,0.715467 3.40862,1.820366 0.6804,1.09258 0.18636,3.28786 0.48798,4.41384 1.15641,4.316837 3.32865,6.667869 7.24858,7.842563 3.73946,1.120614 3.76208,1.118063 7.42219,-0.411228 2.41682,-1.009809 3.76876,-2.467774 5.12116,-5.525068 1.80752,-4.086235 1.76177,-5.448609 -0.32899,-9.792694 -1.2804,-2.660359 -5.24545,-4.832378 -8.81855,-4.832378 -1.76806,0 -3.46194,-0.931027 -5.10835,-2.807312 -1.70222,-1.939892 -3.32431,-2.807312 -5.25092,-2.807312 z m -16.72507,12.464757 c -4.83983,-0.24455 -9.62908,3.391332 -9.61358,9.057969 0.01,3.565148 1.04434,5.310062 4.60209,7.762145 8.23112,5.673079 18.08856,-6.570374 11.19635,-13.906796 -1.77404,-1.888379 -3.98494,-2.802157 -6.18486,-2.913318 z m 10.99165,24.114374 c -1.46236,-0.01913 -2.99675,0.412928 -4.69348,1.290339 -5.47763,2.832596 -5.60829,11.990381 -0.21383,15.019851 9.02767,5.069839 18.25394,-7.346298 10.38121,-13.970764 -1.83207,-1.541585 -3.59371,-2.314833 -5.4739,-2.339426 z m -24.91124,6.466321 c -2.47645,0 -6.97441,3.982812 -6.97441,6.175721 0,2.332406 2.09433,5.803115 4.08303,6.766061 4.86904,2.357631 9.01776,-0.367106 9.01776,-5.923502 0,-3.918319 -2.70556,-7.01828 -6.12638,-7.01828 z m -57.18071,6.660056 c -2.627866,0.120112 -5.243947,1.148449 -7.562924,3.099741 -6.36936,5.359462 -5.38103,15.78049 1.917233,20.230558 6.250771,3.811365 14.359021,1.105194 17.816201,-5.947262 2.31382,-4.72006 1.41486,-9.383056 -2.57703,-13.374941 -2.81578,-2.815778 -6.21479,-4.162526 -9.59348,-4.008096 z m 25.28409,6.440734 c -2.99313,0 -7.82977,4.740929 -7.82977,7.674417 0,2.758709 2.38077,6.236514 5.01332,7.32533 7.78752,3.220907 14.15597,-7.274919 7.75483,-12.780947 -1.41832,-1.219986 -3.6408,-2.2188 -4.93838,-2.2188 z m 46.94572,0.07493 c -1.6971,0.10688 -3.38644,3.218999 -5.46293,9.825592 -5.4892,17.464474 -15.89766,43.438394 -17.4068,43.438394 -0.33358,0 -2.44348,-3.60362 -4.68799,-8.00886 -4.71031,-9.24478 -18.58022,-25.678876 -21.6726,-25.678876 -4.46226,0 -3.41362,2.528247 7.24309,17.474426 4.82417,6.76596 8.20041,15.92719 11.94021,32.39557 0.33207,1.46229 1.50802,2.98299 2.67024,3.45065 1.14262,0.45977 3.82036,0.86291 5.95091,0.89556 l 3.87468,0.0585 3.78877,-9.12376 c 2.0837,-5.01807 5.52256,-13.75583 7.64152,-19.41725 2.11896,-5.66141 4.29063,-11.42656 4.8269,-12.81202 0.67561,-1.74546 1.88157,-2.70043 3.92585,-3.1107 5.64157,-1.13226 6.22507,-1.48412 6.22507,-3.74857 0,-1.8429 -0.61428,-2.3481 -3.50914,-2.88041 -1.93003,-0.354896 -3.73842,-0.994772 -4.01906,-1.423761 -0.28064,-0.428989 -0.0139,-4.896597 0.59399,-9.926115 0.92725,-7.671659 0.89437,-9.366814 -0.20835,-10.531075 -0.58166,-0.614118 -1.14867,-0.912912 -1.71436,-0.877285 z m 25.30236,15.008885 c -3.71584,-0.109177 -7.45823,1.696377 -9.41071,5.472065 -2.85025,5.511766 -1.32095,10.780166 4.05013,13.947006 8.93627,5.26891 19.06228,-4.01715 14.61045,-13.398703 -1.84462,-3.887252 -5.53403,-5.911192 -9.24987,-6.020368 z m -81.59665,12.239961 c -0.46565,0.004 -0.98221,0.0718 -1.5846,0.19007 -1.63857,0.32179 -3.50548,1.29139 -4.14882,2.15484 -1.65005,2.21458 -1.45303,6.83511 0.37833,8.85875 2.36967,2.61846 7.26249,2.23408 9.61357,-0.75484 2.57012,-3.26737 2.44564,-5.53399 -0.4624,-8.44203 -1.45668,-1.45669 -2.39914,-2.01768 -3.79608,-2.00679 z m 18.56737,39.72089 c -0.60447,-0.027 -1.37478,-0.0156 -2.35405,0.0183 -2.46902,0.0854 -5.45323,0.78743 -6.63081,1.559 -1.17757,0.77158 -5.32366,6.12896 -9.21332,11.90548 -6.30725,9.36688 -7.61366,10.7662 -12.0846,12.94544 -3.70751,1.80712 -5.55624,3.43765 -7.100525,6.26162 l -2.089036,3.81802 2.330289,17.23682 c 5.156702,38.15673 7.970012,54.62337 9.609932,56.24128 2.35273,2.32119 22.92428,14.53399 31.40132,18.64231 8.42549,4.08335 8.39018,4.08493 22.59557,-0.75666 16.17932,-5.51437 31.44035,-12.189 32.76294,-14.32899 2.02995,-3.28451 7.62968,-63.00834 6.76971,-72.20238 -0.22505,-2.40616 -1.53072,-6.66577 -2.90052,-9.46555 -1.93442,-3.95379 -3.41425,-5.57885 -6.62716,-7.28329 -3.23732,-1.71739 -5.08558,-3.76666 -8.50418,-9.42168 -5.22412,-8.64167 -5.96905,-9.36603 -12.90522,-12.54151 -4.32237,-1.97885 -5.66379,-2.24262 -6.76058,-1.33238 -2.07067,1.7185 -1.64279,3.60946 0.96501,4.26397 3.75462,0.94235 1.95597,1.97418 -7.19009,4.12141 l -8.58459,2.01411 -7.78225,-3.00836 c -7.98083,-3.08545 -9.3728,-4.25655 -5.67859,-4.7812 1.38196,-0.19627 2.10548,-0.94286 2.10548,-2.17128 0,-1.22478 -0.32132,-1.65357 -2.13473,-1.73447 z m -17.08512,73.32093 c 1.97553,0 3.10166,1.2691 9.35953,10.54752 5.7131,8.47066 5.71779,9.9395 0.0439,15.06554 -4.29142,3.87703 -4.79611,4.00856 -6.77338,1.75823 -1.54475,-1.75808 -11.01541,-18.35989 -11.01541,-19.30941 0,-1.39863 6.93068,-8.06188 8.38539,-8.06188 z m 56.55747,1.87155 c 0.6327,0 4.07037,2.01919 7.63968,4.48695 4.70361,3.252 6.40565,4.96814 6.18121,6.2342 -0.17032,0.96074 -3.96019,5.67754 -8.42194,10.48356 -4.46174,4.806 -8.7447,8.72633 -9.51671,8.7107 -2.45375,-0.0497 -14.03656,-8.44416 -14.03656,-10.17285 0,-1.87565 16.42949,-19.74257 18.15432,-19.74256 z" />
    <path
       style="fill:#f6f6e1;stroke-width:0.935771"
       d="m 196.46139,46.919417 c -3.91993,-1.174694 -6.09295,-3.525481 -7.24935,-7.842318 -0.30163,-1.12598 0.19337,-3.319969 -0.48703,-4.412549 -0.68807,-1.104899 -2.55459,-1.106054 -3.40807,-1.821574 -5.40712,-4.533098 -2.79271,-12.098744 4.18087,-12.098744 1.92661,0 3.54923,0.86742 5.25145,2.807312 1.64642,1.876285 3.34072,2.807312 5.10878,2.807312 3.5731,0 7.53675,2.172603 8.81715,4.832962 2.09076,4.344084 2.13649,5.705413 0.32896,9.791649 -1.35239,3.057294 -2.70448,4.516254 -5.1213,5.526064 -3.6601,1.529291 -3.682,1.5305 -7.42146,0.409886 z"
       id="path12"
       sodipodi:nodetypes="sssssssssss" />
    <path
       style="fill:#f6f6e1;stroke-width:0.935771"
       d="m 167.76126,50.03001 c -3.55775,-2.452084 -4.59282,-4.197904 -4.60256,-7.763052 -0.0226,-8.242382 10.12137,-12.188373 15.7983,-6.14556 6.89222,7.336422 -2.96462,19.581691 -11.19574,13.908612 z"
       id="path11" />
    <path
       style="fill:#f6f6e1;stroke-width:0.935771"
       d="m 178.85811,73.633897 c -5.39446,-3.02947 -5.26452,-12.186789 0.21311,-15.019385 3.87823,-2.005511 6.90969,-1.693206 10.16669,1.047388 7.87273,6.624466 -1.35213,19.041836 -10.3798,13.971997 z"
       id="path10" />
    <path
       style="fill:#f6f6e1;stroke-width:0.935771"
       d="m 155.96266,76.731777 c -1.9887,-0.962947 -4.08377,-4.434564 -4.08377,-6.76697 0,-2.192909 4.49713,-6.175123 6.97359,-6.175123 3.42083,0 6.1272,3.099961 6.1272,7.01828 0,5.556396 -4.14797,8.281444 -9.01702,5.923813 z"
       id="path9" />
    <path
       style="fill:#f6f6e1;stroke-width:0.935771"
       d="m 124.13983,91.890835 c -2.63254,-1.088816 -5.01292,-4.567798 -5.01292,-7.326507 0,-2.933488 4.83676,-7.673854 7.82988,-7.673854 1.29758,0 3.51968,0.998172 4.938,2.218158 6.40114,5.506028 0.0326,16.003109 -7.75496,12.782203 z"
       id="path8" />
    <path
       style="fill:#f6f6e1;stroke-width:0.935771"
       d="m 96.026309,93.780923 c -7.298263,-4.450068 -8.285196,-14.872417 -1.915837,-20.23188 5.30052,-4.460094 12.150138,-4.0974 17.155968,0.908427 3.99188,3.991885 4.89012,8.655208 2.5763,13.375269 -3.45718,7.052456 -11.56566,9.759549 -17.816431,5.948184 z"
       id="path7" />
    <path
       style="fill:#f6f6e1;stroke-width:0.935771"
       d="m 193.8444,111.39329 c -5.37108,-3.16684 -6.90121,-8.43472 -4.05096,-13.946491 3.90496,-7.551375 14.97122,-7.226232 18.66047,0.548272 4.45183,9.381549 -5.67323,18.667139 -14.60951,13.398219 z"
       id="path6" />
    <path
       style="fill:#f6f6e1;stroke-width:0.935771"
       d="m 112.25367,115.41733 c -1.83136,-2.02363 -2.02903,-6.64404 -0.37898,-8.85862 0.64334,-0.86344 2.51036,-1.83317 4.14893,-2.15496 2.40955,-0.47318 3.43843,-0.12585 5.38069,1.8164 2.90803,2.90804 3.03211,5.17547 0.46199,8.44284 -2.35108,2.98892 -7.24296,3.37281 -9.61263,0.75434 z"
       id="path5" />
    <path
       id="path3"
       style="fill:#f6f6e1;stroke-width:0.935771"
       d="m 136.17548,143.93515 c -0.60447,-0.027 -1.37478,-0.0156 -2.35405,0.0183 -2.46902,0.0854 -5.45323,0.78743 -6.63081,1.559 -1.17757,0.77158 -5.32366,6.12896 -9.21332,11.90549 -6.30725,9.36688 -7.61366,10.7662 -12.0846,12.94544 -3.70751,1.80712 -5.55624,3.43765 -7.100525,6.26162 l -2.089036,3.81802 2.330289,17.23682 c 5.156702,38.15673 7.970012,54.62337 9.609932,56.24128 2.35274,2.32118 22.92428,14.53399 31.40132,18.64231 8.42549,4.08334 8.39018,4.08493 22.59557,-0.75666 16.17932,-5.51437 31.44035,-12.189 32.76294,-14.32899 2.02995,-3.28452 7.62968,-63.00834 6.76971,-72.20238 -0.22505,-2.40616 -1.53072,-6.66577 -2.90052,-9.46555 -1.93442,-3.95379 -3.41425,-5.57885 -6.62716,-7.28329 -3.23732,-1.71739 -5.08558,-3.76666 -8.50418,-9.42168 -5.22412,-8.64167 -5.96905,-9.36603 -12.90522,-12.54151 -4.32237,-1.97885 -5.66379,-2.24263 -6.76058,-1.33238 -2.07067,1.7185 -1.64279,3.60945 0.96501,4.26397 3.75462,0.94235 1.95597,1.97418 -7.19009,4.12141 l -8.58459,2.0141 -7.78225,-3.00835 c -7.98083,-3.08545 -9.3728,-4.25655 -5.67859,-4.78121 1.38196,-0.19627 2.10548,-0.94286 2.10548,-2.17128 0,-1.22478 -0.32132,-1.65357 -2.13473,-1.73447 z m -17.08512,73.32093 c 1.97553,0 3.10166,1.26909 9.35953,10.54752 5.7131,8.47066 5.71779,9.9395 0.0439,15.06554 -4.29142,3.87703 -4.79611,4.00856 -6.77338,1.75823 -1.54475,-1.75808 -11.01541,-18.35989 -11.01541,-19.30941 0,-1.39863 6.93068,-8.06188 8.38539,-8.06188 z m 56.55747,1.87154 c 0.6327,0 4.07037,2.01919 7.63968,4.48695 4.70361,3.252 6.40565,4.96814 6.18121,6.2342 -0.17032,0.96075 -3.96019,5.67755 -8.42194,10.48357 -4.46174,4.806 -8.7447,8.72633 -9.51671,8.7107 -2.45375,-0.0497 -14.03656,-8.44416 -14.03656,-10.17285 0,-1.87565 16.42949,-19.74257 18.15432,-19.74257 z" />
    <path
       style="fill:#ce9e9a;stroke-width:0.935771"
       d="m 146.5262,149.86179 c -1.16222,-0.46766 -2.339,-1.98754 -2.67107,-3.44983 -3.7398,-16.46838 -7.11643,-25.62931 -11.9406,-32.39527 -10.65672,-14.946173 -11.70481,-17.475031 -7.24255,-17.475031 3.09238,0 16.96236,16.433431 21.67267,25.678211 2.24452,4.40525 4.35386,8.00953 4.68744,8.00953 1.50914,0 11.91738,-25.97391 17.40659,-43.438383 2.76865,-8.808791 4.85141,-11.405378 7.17801,-8.94891 1.10273,1.164262 1.1364,2.860711 0.20915,10.532371 -0.60792,5.029517 -0.87569,9.495568 -0.59505,9.924557 0.28064,0.428989 2.08936,1.07035 4.01939,1.425247 2.89486,0.532308 3.50914,1.036318 3.50914,2.879228 0,2.26445 -0.58388,2.61599 -6.22544,3.74824 -2.04428,0.41028 -3.24966,1.36565 -3.92528,3.11112 -0.53626,1.38545 -2.70873,7.15107 -4.82769,12.81248 -2.11896,5.66142 -5.55751,14.39918 -7.64121,19.41725 l -3.78855,9.12376 -3.87373,-0.0593 c -2.13055,-0.0327 -4.8086,-0.43549 -5.95122,-0.89525 z"
       id="path4" />
  </g>
</svg>
