<?xml version="1.0" encoding="UTF-8" standalone="no"?>
<!-- Created with Inkscape (http://www.inkscape.org/) -->

<svg
   version="1.1"
   id="svg1"
   width="300"
   height="300"
   viewBox="0 0 300 300"
   sodipodi:docname="prop_bell.svg"
   inkscape:version="1.4.2 (f4327f4, 2025-05-13)"
   xmlns:inkscape="http://www.inkscape.org/namespaces/inkscape"
   xmlns:sodipodi="http://sodipodi.sourceforge.net/DTD/sodipodi-0.dtd"
   xmlns="http://www.w3.org/2000/svg"
   xmlns:svg="http://www.w3.org/2000/svg">
  <defs
     id="defs1">
    <filter
       inkscape:collect="always"
       style="color-interpolation-filters:sRGB"
       id="filter14"
       x="-0.062003548"
       y="-0.046554084"
       width="1.1236428"
       height="1.0932465">
      <feGaussianBlur
         inkscape:collect="always"
         stdDeviation="1.9411164"
         id="feGaussianBlur14" />
    </filter>
  </defs>
  <sodipodi:namedview
     id="namedview1"
     pagecolor="#ffffff"
     bordercolor="#000000"
     borderopacity="0.25"
     inkscape:showpageshadow="2"
     inkscape:pageopacity="0.0"
     inkscape:pagecheckerboard="0"
     inkscape:deskcolor="#d1d1d1"
     inkscape:zoom="2.811928"
     inkscape:cx="105.97711"
     inkscape:cy="137.45018"
     inkscape:window-width="2560"
     inkscape:window-height="1411"
     inkscape:window-x="3191"
     inkscape:window-y="-9"
     inkscape:window-maximized="1"
     inkscape:current-layer="g1" />
  <g
     inkscape:groupmode="layer"
     inkscape:label="Image"
     id="g1">
    <path
       id="path7"
       style="fill:#f6f6e1;stroke-width:12.3;stroke:#753f4b;stroke-dasharray:none;filter:url(#filter14)"
       d="M 118.37109 32.490234 C 112.64834 32.490234 121.60983 46.855368 130.80469 52.421875 C 135.31553 55.152709 136.31088 56.244819 136.33398 58.476562 C 136.36893 61.864744 134.91424 61.945991 123.98828 59.171875 C 113.76036 56.574993 113.3876 56.532113 112.9082 57.884766 C 112.32055 59.542866 118.99927 65.679544 123.89844 67.982422 C 126.21481 69.071246 130.97023 70.522981 134.46484 71.208984 C 147.92885 73.852 147.5033 79.017578 133.82227 79.017578 C 128.65476 79.017578 127.47633 80.472433 130.33008 83.326172 C 132.25216 85.248237 133.57881 85.462135 144.0625 85.546875 C 153.91253 85.626496 156.30378 85.966818 159.875 87.794922 C 162.18906 88.979486 164.08203 90.308882 164.08203 90.75 C 164.08203 92.214697 155.72345 97.581711 151.70508 98.697266 C 143.62315 100.94094 131.8817 99.775896 121.79883 95.728516 C 120.05003 95.02653 118.29674 94.775527 117.90234 95.169922 C 115.15883 97.913425 125.00855 107.47638 133.39258 110.20898 C 136.31479 111.16141 140.9134 111.56593 146.75781 111.38477 C 158.11929 111.0326 163.28996 108.40008 173.27148 97.890625 C 177.18319 93.77203 182.92077 88.762546 186.02148 86.757812 C 191.6057 83.147398 194.39454 79.822296 193.31055 78.068359 C 193.00171 77.568649 187.9707 77.220642 182.12891 77.294922 C 172.96717 77.411414 170.78674 77.113089 166.27148 75.117188 C 159.38116 72.071424 153.87937 65.74696 151.25391 57.857422 C 148.4239 49.353246 147.08675 47.789374 140.5625 45.353516 C 133.21158 42.609013 125.56032 38.218748 122.55664 35.021484 C 121.24871 33.629261 119.36514 32.490234 118.37109 32.490234 z M 43.050781 102.77734 C 41.559458 102.77734 44.595728 107.19624 49.927734 112.78711 C 54.51676 117.59895 55.023983 118.51018 53.720703 119.5918 C 52.893209 120.27856 52.214844 121.15841 52.214844 121.54883 C 52.214844 124.2149 70.938603 127.65019 86.59375 127.85547 C 93.609094 127.94745 97.640537 128.37355 97.435547 129.00195 C 96.926477 130.56245 85.54234 134.92419 72.650391 138.49805 C 59.224223 142.22001 58.997283 143.31845 71.224609 145.38086 L 78.177734 146.55273 L 77.615234 150.02539 C 77.054621 153.48005 77.067821 153.49347 80.208984 152.86523 C 84.63438 151.98016 96.063165 146.02001 103.46484 140.73828 C 113.10045 133.86245 123.93736 118.74624 120.67578 116.73047 C 119.97006 116.29431 113.52118 115.67595 106.3457 115.35547 C 89.61767 114.60836 71.903183 111.52742 56.251953 106.64453 C 49.434174 104.51752 43.493275 102.77734 43.050781 102.77734 z M 146.33789 115.75781 C 139.13651 116.0006 136.64041 117.49568 127.70117 123.19727 C 123.38454 125.95048 122.50391 126.99978 122.50391 129.38867 C 122.50391 133.06423 123.71546 133.54445 135.37305 134.49219 C 146.95584 135.43386 174.44947 134.72316 182.14844 133.2832 C 187.14443 132.34878 187.8418 131.93803 187.8418 129.91406 C 187.8418 126.8622 184.20443 123.62902 176.14062 119.51562 C 169.67368 116.21677 169.21637 116.13605 155.51953 115.82422 C 151.66068 115.73637 148.73835 115.67688 146.33789 115.75781 z M 184.36523 136.63867 C 180.14801 136.63187 173.2306 137.09452 161.60742 138.02539 C 157.79603 138.33063 147.42283 138.07361 138.55664 137.45312 C 129.69046 136.83265 121.55515 136.6036 120.47852 136.94531 C 117.67636 137.83468 116.46259 140.7875 111.01953 159.95508 C 107.60954 171.96327 105.68583 177.19303 104.54492 177.55859 C 102.43801 178.23369 101.5963 182.70567 103.26172 184.37109 C 104.63507 185.74443 118.68382 188.65973 126.95898 189.28906 C 129.68141 189.49607 144.82714 189.52829 160.61719 189.35938 C 188.27686 189.06349 191.57759 188.77417 205.41406 185.44336 C 208.32483 184.74266 208.50533 179.85023 205.69336 177.88867 C 204.39424 176.98244 202.73466 172.9065 200.70703 165.64062 C 196.58366 150.86491 192.82559 140.27439 190.92188 138.07227 C 190.09976 137.12131 188.58246 136.64548 184.36523 136.63867 z M 155.79297 150.29688 C 157.26887 150.29688 168.04297 161.74238 168.04297 163.31055 C 168.04297 164.01579 165.49461 167.16788 162.38086 170.31445 C 159.26712 173.46103 156.24654 176.03516 155.66797 176.03516 C 154.05422 176.03516 143.29297 164.79156 143.29297 163.10547 C 143.29297 161.42892 154.15697 150.29688 155.79297 150.29688 z M 110.72656 190.02148 C 108.24328 190.03196 107.71524 190.45124 107.10547 191.28516 C 105.73634 193.15756 104.08287 206.93209 105.04102 208.48242 C 105.35713 208.99391 107.91635 209.68452 110.72852 210.01758 C 113.54068 210.35064 116.11664 210.89655 116.45117 211.23047 C 116.7857 211.5644 117.28049 214.5851 117.55273 217.94336 C 118.04544 224.02113 118.06473 224.05277 121.51367 224.66211 C 123.41936 224.9988 127.97769 225.3326 131.64258 225.4043 C 139.06148 225.54939 138.99814 225.61558 139.56445 217.12305 L 139.82812 213.16602 L 154.67773 213.20898 L 169.52734 213.25195 L 169.82422 218.89258 C 170.09094 223.96218 170.36934 224.59308 172.58203 225.14844 C 173.93581 225.48822 178.92531 225.38052 183.66992 224.9082 L 192.29688 224.04883 L 192.58594 217.46484 L 192.87695 210.88086 L 198.95508 209.81055 C 202.29749 209.22179 205.34007 208.39857 205.7168 207.98047 C 206.86896 206.70177 204.85967 192.62921 203.30273 191.07227 C 202.02643 189.79597 199.82187 189.8165 185.10742 191.24219 C 163.78407 193.30825 148.29226 193.29938 126.08594 191.20508 C 117.64843 190.40934 113.20984 190.011 110.72656 190.02148 z M 207.14648 213.16016 L 203.88867 213.31055 C 196.34163 213.65893 195.88307 214.0709 195.56055 220.83789 L 195.26562 227.01953 L 188.33594 227.79297 C 184.52455 228.21816 178.28795 228.44005 174.47656 228.28711 L 167.54688 228.00977 L 167.05273 222.56445 L 166.55664 217.11914 L 155.25195 216.83789 C 142.42986 216.51863 142.34176 216.56537 142.31836 223.80078 L 142.30273 228.50391 L 131.66016 228.38672 C 125.80695 228.32229 119.68228 227.98718 118.04883 227.64062 C 115.33708 227.06531 115.05674 226.62188 114.81836 222.55859 C 114.31354 213.95366 114.10783 213.6543 108.73242 213.6543 C 103.07863 213.6543 103.19763 213.41244 102.16797 227.05273 C 101.59309 234.66819 101.73137 236.19621 103.10938 237.33984 C 104.1054 238.16646 108.8118 238.95355 115.34766 239.38477 C 143.36744 241.23342 205.48831 239.9609 207.96094 237.48828 C 208.58041 236.86877 208.6086 232.3374 208.03711 224.8418 L 207.14648 213.16016 z M 210.80664 241.60742 C 210.22999 241.6074 209.59602 241.65504 208.90039 241.74023 C 185.32238 244.6278 132.74159 244.95551 107.72461 242.37109 C 99.50788 241.52225 97.140746 241.56387 96.134766 242.57617 C 94.444356 244.27721 92.319724 258.11465 93.558594 259.35352 C 94.501884 260.29681 111.62035 262.41482 131.9082 264.09961 C 146.1296 265.28063 181.81345 264.51866 198.73047 262.67188 C 206.08101 261.86943 212.78989 261.20416 213.63867 261.19336 C 214.48745 261.18254 215.96478 260.60023 216.92188 259.90039 C 218.49865 258.74742 218.55193 257.98185 217.48828 251.73438 C 216.15854 243.9239 214.84318 241.60759 210.80664 241.60742 z " />
    <path
       style="fill:#f6f6e1;stroke-width:0.989972"
       d="m 133.39308,110.20892 c -8.38403,-2.7326 -18.2346,-12.296015 -15.49109,-15.039518 0.3944,-0.394395 2.14791,-0.142729 3.89671,0.559257 10.08287,4.04738 21.82386,5.213231 29.90579,2.96956 4.01837,-1.115555 12.37772,-6.483233 12.37772,-7.94793 0,-0.441118 -1.89332,-1.771221 -4.20738,-2.955785 -3.57122,-1.828104 -5.96201,-2.167936 -15.81204,-2.247557 -10.48369,-0.08474 -11.81018,-0.299321 -13.73226,-2.221386 -2.85375,-2.853739 -1.67529,-4.307235 3.49222,-4.307235 13.68103,0 14.10527,-5.165867 0.64126,-7.808883 -3.49461,-0.686003 -8.24906,-2.138134 -10.56543,-3.226958 -4.89917,-2.302878 -11.57884,-8.43949 -10.99119,-10.09759 0.4794,-1.352653 0.85304,-1.309235 11.08096,1.287647 10.92596,2.774116 12.38152,2.692048 12.34657,-0.696134 -0.0231,-2.231744 -1.01985,-3.322833 -5.53069,-6.053667 -9.19486,-5.566507 -18.15604,-19.933096 -12.43329,-19.933096 0.99405,0 2.87749,1.139091 4.18542,2.531314 3.00368,3.197264 10.65454,7.587549 18.00546,10.332052 6.52425,2.435858 7.86183,4.000194 10.69184,12.50437 2.62546,7.889538 8.12837,14.213342 15.01869,17.259105 4.51526,1.995901 6.69435,2.295339 15.85609,2.178847 5.84179,-0.07428 10.87413,0.273801 11.18297,0.773511 1.08399,1.753937 -1.70527,5.078773 -7.28949,8.689188 -3.10071,2.004734 -8.83815,7.014731 -12.74986,11.133326 -9.98152,10.509452 -15.15288,13.141192 -26.51436,13.493362 -5.84441,0.18116 -10.44241,-0.22337 -13.36462,-1.1758 z"
       id="path8" />
    <path
       style="fill:#f6f6e1;stroke-width:0.989972"
       d="m 135.37303,134.49269 c -11.65759,-0.94774 -12.86964,-1.42844 -12.86964,-5.104 0,-2.38889 0.88072,-3.43804 5.19735,-6.19125 11.91899,-7.60211 12.38431,-7.72545 27.81971,-7.37404 13.69684,0.31183 14.15287,0.39348 20.61982,3.69233 8.0638,4.1134 11.70127,7.34555 11.70127,10.39741 0,2.02397 -0.69635,2.43631 -5.69234,3.37073 -7.69897,1.43996 -35.19338,2.15049 -46.77617,1.20882 z"
       id="path9" />
    <path
       style="fill:#ce9e9a;stroke-width:0.989972"
       d="m 77.61519,150.02468 0.563364,-3.4716 -6.954809,-1.17308 c -12.227326,-2.06241 -11.999675,-3.16081 1.426493,-6.88277 12.891949,-3.57386 24.275383,-7.93522 24.784453,-9.49572 0.20499,-0.6284 -3.82652,-1.05484 -10.841864,-1.14682 -15.655147,-0.20528 -34.377445,-3.63918 -34.377445,-6.30525 0,-0.39042 0.67704,-1.27175 1.504534,-1.95851 1.30328,-1.08162 0.795893,-1.99169 -3.793133,-6.80353 -5.332006,-5.59087 -8.367569,-10.00974 -6.876246,-10.00974 0.442494,0 6.382718,1.74028 13.200497,3.86729 15.65123,4.88289 33.366473,7.96316 50.094506,8.71027 7.17548,0.32048 13.62374,0.93955 14.32946,1.37571 3.26158,2.01577 -7.57467,17.13203 -17.21028,24.00786 -7.401679,5.28173 -18.830923,11.24111 -23.256319,12.12618 -3.141163,0.62824 -3.153824,0.61437 -2.593211,-2.84029 z"
       id="path10" />
    <path
       style="fill:#f6f6e1;stroke-width:0.989972"
       d="m 126.95826,189.28959 c -8.27516,-0.62933 -22.32404,-3.54539 -23.69739,-4.91873 -1.66542,-1.66542 -0.82209,-6.13629 1.28482,-6.81139 1.14091,-0.36556 3.06453,-5.59583 6.47452,-17.60402 5.44306,-19.16758 6.65693,-22.12038 9.45909,-23.00975 1.07663,-0.34171 9.21166,-0.11362 18.07784,0.50686 8.86619,0.62049 19.23875,0.8784 23.05014,0.57316 23.24636,-1.86175 27.66995,-1.85461 29.31418,0.0473 1.90372,2.20212 5.66313,12.7921 9.7865,27.56781 2.02763,7.26587 3.68684,11.34168 4.98596,12.24791 2.81197,1.96156 2.63039,6.85433 -0.28038,7.55503 -13.83647,3.33081 -17.13656,3.61924 -44.79623,3.91512 -15.79005,0.16891 -30.93662,0.13771 -33.65905,-0.0693 z m 35.42249,-18.97506 c 3.11375,-3.14657 5.66135,-6.29805 5.66135,-7.00329 0,-1.56817 -10.77324,-13.01493 -12.24914,-13.01493 -1.636,0 -12.50016,11.13339 -12.50016,12.80994 0,1.68609 10.7609,12.92933 12.37465,12.92933 0.57857,0 3.59956,-2.57447 6.7133,-5.72105 z"
       id="path11" />
    <path
       style="fill:#f6f6e1;stroke-width:0.989972"
       d="m 121.51342,224.66138 c -3.44894,-0.60934 -3.46718,-0.64031 -3.95989,-6.71808 -0.27224,-3.35826 -0.76868,-6.37913 -1.10321,-6.71306 -0.33453,-0.33392 -2.90909,-0.87963 -5.72125,-1.21269 -2.81217,-0.33306 -5.37168,-1.02405 -5.68779,-1.53554 -0.95815,-1.55033 0.69581,-15.32494 2.06494,-17.19734 1.21955,-1.66784 2.10539,-1.67158 18.98041,-0.0801 22.20632,2.0943 37.69841,2.10436 59.02176,0.0383 14.71445,-1.42569 16.91845,-1.44628 18.19475,-0.16998 1.55694,1.55694 3.56561,15.62828 2.41345,16.90698 -0.37673,0.4181 -3.41967,1.24189 -6.76208,1.83065 l -6.07712,1.07047 -0.29049,6.5841 -0.29049,6.58411 -8.62657,0.85875 c -4.74461,0.47232 -9.7342,0.58077 -11.08798,0.24099 -2.21269,-0.55536 -2.49138,-1.18761 -2.7581,-6.25721 l -0.2967,-5.63943 -14.84958,-0.0436 -14.84958,-0.0436 -0.26387,3.95708 c -0.56631,8.49253 -0.50336,8.42672 -7.92226,8.28163 -3.66489,-0.0717 -8.22266,-0.40579 -10.12835,-0.74248 z"
       id="path12" />
    <path
       style="fill:#f6f6e1;stroke-width:0.989972"
       d="m 115.34852,239.38412 c -6.53586,-0.43122 -11.24214,-1.21718 -12.23817,-2.0438 -1.378,-1.14363 -1.5181,-2.67157 -0.94322,-10.28703 1.02966,-13.64029 0.91133,-13.39878 6.56512,-13.39878 5.37541,0 5.58046,0.30007 6.08528,8.905 0.23838,4.06329 0.51924,4.50491 3.23099,5.08023 1.63345,0.34655 7.7589,0.6828 13.61211,0.74723 l 10.6422,0.11712 0.0152,-4.70236 c 0.0234,-7.23541 0.11182,-7.28306 12.93391,-6.9638 l 11.30525,0.28148 0.49499,5.44485 0.49498,5.44485 6.92981,0.27807 c 3.81139,0.15294 10.04821,-0.0698 13.8596,-0.49499 l 6.92981,-0.77306 0.29454,-6.18027 c 0.32252,-6.76699 0.7799,-7.18055 8.32694,-7.52893 l 3.25818,-0.1504 0.89067,11.68197 c 0.57149,7.4956 0.54467,12.02797 -0.0748,12.64748 -2.47263,2.47262 -64.59353,3.74379 -92.61331,1.89514 z"
       id="path13" />
    <path
       style="fill:#ce9e9a;stroke-width:0.989972"
       d="m 131.90812,264.10029 c -20.28785,-1.68479 -37.406659,-3.80382 -38.349949,-4.74711 -1.23887,-1.23887 0.88628,-15.07551 2.57669,-16.77655 1.00598,-1.0123 3.37213,-1.05425 11.588859,-0.20541 25.01698,2.58442 77.59961,2.25638 101.17762,-0.63119 5.56504,-0.68155 7.06773,1.06718 8.58744,9.99344 1.06365,6.24747 1.01048,7.01429 -0.56629,8.16726 -0.9571,0.69984 -2.43462,1.2813 -3.2834,1.29212 -0.84878,0.0108 -7.55732,0.67622 -14.90786,1.47867 -16.91702,1.84679 -52.60171,2.60979 -66.82311,1.42877 z"
       id="path14" />
  </g>
</svg>
