<?xml version="1.0" encoding="UTF-8" standalone="no"?>
<!-- Created with Inkscape (http://www.inkscape.org/) -->

<svg
   version="1.1"
   id="svg739"
   width="300"
   height="300"
   viewBox="0 0 300 300"
   sodipodi:docname="oven2.svg"
   inkscape:version="1.2.2 (732a01da63, 2022-12-09)"
   xmlns:inkscape="http://www.inkscape.org/namespaces/inkscape"
   xmlns:sodipodi="http://sodipodi.sourceforge.net/DTD/sodipodi-0.dtd"
   xmlns="http://www.w3.org/2000/svg"
   xmlns:svg="http://www.w3.org/2000/svg">
  <defs
     id="defs743">
    <filter
       inkscape:collect="always"
       style="color-interpolation-filters:sRGB"
       id="filter7204"
       x="-0.05246152"
       y="-0.050959836"
       width="1.105019"
       height="1.1022135">
      <feGaussianBlur
         inkscape:collect="always"
         stdDeviation="1.9494"
         id="feGaussianBlur7206" />
    </filter>
  </defs>
  <sodipodi:namedview
     id="namedview741"
     pagecolor="#ffffff"
     bordercolor="#000000"
     borderopacity="0.25"
     inkscape:showpageshadow="2"
     inkscape:pageopacity="0.0"
     inkscape:pagecheckerboard="0"
     inkscape:deskcolor="#d1d1d1"
     showgrid="false"
     inkscape:zoom="3.34"
     inkscape:cx="145.95808"
     inkscape:cy="149.1018"
     inkscape:window-width="2560"
     inkscape:window-height="1369"
     inkscape:window-x="1912"
     inkscape:window-y="-8"
     inkscape:window-maximized="1"
     inkscape:current-layer="g745" />
  <g
     inkscape:groupmode="layer"
     inkscape:label="Image"
     id="g745">
    <path
       style="fill:none;fill-opacity:1;stroke-width:12.3;stroke:#753f4b;stroke-dasharray:none;filter:url(#filter7204)"
       d="m 122.23995,257.14899 c -7.75225,-1.91448 -34.366529,-12.79117 -46.975922,-19.19808 -15.625817,-7.93955 -24.742826,-14.8733 -27.762587,-21.11424 -3.242166,-6.70058 -6.877758,-32.80977 -8.496417,-61.01741 -1.528205,-26.63139 -0.560933,-38.36941 3.969143,-48.16627 6.9382,-15.00474 22.575346,-30.742914 41.32498,-41.591987 5.59098,-3.235101 13.136681,-8.129294 16.768223,-10.875981 9.48007,-7.170194 15.60999,-8.765366 36.19579,-9.419114 20.57475,-0.653397 29.51946,1.108924 37.83162,7.453736 2.80089,2.137968 9.00442,5.515738 13.7856,7.506154 13.42958,5.590743 27.66595,14.907705 37.07215,24.261759 11.43722,11.373819 16.39824,21.766753 18.11312,37.945573 1.86049,17.55259 -0.56467,67.97852 -3.88435,80.7669 -1.42608,5.49374 -6.82252,11.60674 -13.10378,14.84385 -3.36236,1.73283 -4.5475,1.92123 -4.90112,0.77922 -0.25652,-0.82844 -0.78121,-9.39964 -1.16596,-19.04712 -0.4357,-10.92497 -1.23194,-18.18235 -2.11108,-19.24165 -1.01322,-1.22084 -3.08433,-1.54984 -7.33975,-1.16588 -11.31153,1.02063 -47.80571,16.6102 -53.9871,23.06218 -4.00865,4.1841 -5.45137,12.37065 -5.46061,30.98516 -0.004,7.56038 -0.50268,15.05038 -1.10874,16.64445 -1.91941,5.04842 -19.08152,8.97971 -28.76321,6.58875 z m 37.81203,-95.29651 c 6.30506,-2.63499 20.72791,-8.25145 32.05078,-12.48102 24.05282,-8.98475 28.99671,-11.3354 29.91309,-14.22262 0.89621,-2.8237 -2.35805,-15.06661 -5.24756,-19.74193 -5.00667,-8.10093 -15.70511,-12.88254 -28.78294,-12.86436 -17.11072,0.0238 -28.42285,5.94293 -37.04949,19.38636 -10.22846,15.93968 -13.23064,44.71446 -4.66521,44.71446 1.27467,0 7.47627,-2.1559 13.78133,-4.79089 z M 155.6343,63.025424 c 2.91159,-0.667405 6.52949,-2.019326 8.03977,-3.004267 2.59471,-1.692173 2.63658,-1.911651 0.76017,-3.985071 -3.21421,-3.551647 -17.22293,-6.163827 -28.21057,-5.26037 -15.30742,1.258652 -21.54056,3.785022 -19.89817,8.065001 1.67199,4.357135 26.85905,7.038484 39.3088,4.184707 z"
       id="path3438" />
    <path
       style="fill:#f6f6e1;fill-opacity:1;stroke-width:1.1764"
       d="m 122.23995,257.14899 c -7.75225,-1.91448 -34.366529,-12.79117 -46.975922,-19.19808 -15.625817,-7.93955 -24.742826,-14.8733 -27.762587,-21.11424 -3.242166,-6.70058 -6.877758,-32.80977 -8.496417,-61.01741 -1.528205,-26.63139 -0.560933,-38.36941 3.969143,-48.16627 6.9382,-15.00474 22.575346,-30.742914 41.32498,-41.591987 5.59098,-3.235101 13.136681,-8.129294 16.768223,-10.875981 9.48007,-7.170194 15.60999,-8.765366 36.19579,-9.419114 20.57475,-0.653397 29.51946,1.108924 37.83162,7.453736 2.80089,2.137968 9.00442,5.515738 13.7856,7.506154 13.42958,5.590743 27.66595,14.907705 37.07215,24.261759 11.43722,11.373819 16.39824,21.766753 18.11312,37.945573 1.86049,17.55259 -0.56467,67.97852 -3.88435,80.7669 -1.42608,5.49374 -6.82252,11.60674 -13.10378,14.84385 -3.36236,1.73283 -4.5475,1.92123 -4.90112,0.77922 -0.25652,-0.82844 -0.78121,-9.39964 -1.16596,-19.04712 -0.4357,-10.92497 -1.23194,-18.18235 -2.11108,-19.24165 -1.01322,-1.22084 -3.08433,-1.54984 -7.33975,-1.16588 -11.31153,1.02063 -47.80571,16.6102 -53.9871,23.06218 -4.00865,4.1841 -5.45137,12.37065 -5.46061,30.98516 -0.004,7.56038 -0.50268,15.05038 -1.10874,16.64445 -1.91941,5.04842 -19.08152,8.97971 -28.76321,6.58875 z m 37.81203,-95.29651 c 6.30506,-2.63499 20.72791,-8.25145 32.05078,-12.48102 24.05282,-8.98475 28.99671,-11.3354 29.91309,-14.22262 0.89621,-2.8237 -2.35805,-15.06661 -5.24756,-19.74193 -5.00667,-8.10093 -15.70511,-12.88254 -28.78294,-12.86436 -17.11072,0.0238 -28.42285,5.94293 -37.04949,19.38636 -10.22846,15.93968 -13.23064,44.71446 -4.66521,44.71446 1.27467,0 7.47627,-2.1559 13.78133,-4.79089 z M 155.6343,63.025424 c 2.91159,-0.667405 6.52949,-2.019326 8.03977,-3.004267 2.59471,-1.692173 2.63658,-1.911651 0.76017,-3.985071 -3.21421,-3.551647 -17.22293,-6.163827 -28.21057,-5.26037 -15.30742,1.258652 -21.54056,3.785022 -19.89817,8.065001 1.67199,4.357135 26.85905,7.038484 39.3088,4.184707 z"
       id="path7198" />
  </g>
</svg>
