<?xml version="1.0" encoding="UTF-8" standalone="no"?>
<!-- Created with Inkscape (http://www.inkscape.org/) -->

<svg
   version="1.1"
   id="svg2"
   width="300"
   height="300"
   viewBox="0 0 300 300"
   sodipodi:docname="oven1.svg"
   inkscape:version="1.2.2 (732a01da63, 2022-12-09)"
   xmlns:inkscape="http://www.inkscape.org/namespaces/inkscape"
   xmlns:sodipodi="http://sodipodi.sourceforge.net/DTD/sodipodi-0.dtd"
   xmlns="http://www.w3.org/2000/svg"
   xmlns:svg="http://www.w3.org/2000/svg">
  <defs
     id="defs6">
    <filter
       inkscape:collect="always"
       style="color-interpolation-filters:sRGB"
       id="filter6097"
       x="-0.057717309"
       y="-0.050062579"
       width="1.1155026"
       height="1.10009">
      <feGaussianBlur
         inkscape:collect="always"
         stdDeviation="1.9494"
         id="feGaussianBlur6099" />
    </filter>
  </defs>
  <sodipodi:namedview
     id="namedview4"
     pagecolor="#ffffff"
     bordercolor="#000000"
     borderopacity="0.25"
     inkscape:showpageshadow="2"
     inkscape:pageopacity="0.0"
     inkscape:pagecheckerboard="0"
     inkscape:deskcolor="#d1d1d1"
     showgrid="false"
     inkscape:zoom="3.34"
     inkscape:cx="125.2994"
     inkscape:cy="150"
     inkscape:window-width="2560"
     inkscape:window-height="1369"
     inkscape:window-x="1912"
     inkscape:window-y="-8"
     inkscape:window-maximized="1"
     inkscape:current-layer="g8" />
  <g
     inkscape:groupmode="layer"
     inkscape:label="Image"
     id="g8">
    <path
       style="fill:none;fill-opacity:1;stroke-width:12.3;stroke:#753f4b;stroke-dasharray:none;filter:url(#filter6097)"
       d="M 140.15621,256.8938 C 133.61076,255.36332 99.115379,238.42138 84.986701,229.79803 62.917141,216.32804 61.52734,214.37821 59.726582,194.35983 56.489073,158.36905 56.037387,149.6139 56.465478,131.15371 56.91693,111.69115 57.078565,110.55224 60.671625,101.52264 68.97123,80.665082 81.699069,66.372391 99.526211,57.890937 c 6.206449,-2.952801 12.347519,-6.334797 13.646819,-7.515566 11.07864,-10.068379 42.44555,-11.930173 58.08939,-3.447917 3.5508,1.925287 11.91508,6.159956 18.5873,9.410368 21.26585,10.359717 34.25521,20.852592 43.47779,35.121804 9.48388,14.673444 9.9811,17.013404 10.49419,49.385934 0.4302,27.14558 -0.91441,53.37839 -3.27167,63.83028 -1.53336,6.79863 -13.03668,17.5218 -16.50026,15.38121 -0.64067,-0.39596 -1.13931,-7.28834 -1.13931,-15.7478 0,-18.42574 -0.66673,-22.19929 -4.20721,-23.81245 -7.37393,-3.3598 -43.49117,15.36552 -48.84133,25.32215 -0.77788,1.44782 -1.71188,11.69299 -2.19374,24.06395 -0.61309,15.74171 -1.26948,21.9573 -2.43732,23.08226 -2.01275,1.93878 -13.36147,5.30097 -17.36442,5.14441 -1.65825,-0.065 -5.12783,-0.61195 -7.71023,-1.21577 z m 51.81837,-106.95113 29.69257,-14.3793 0.0352,-5.53161 c 0.11831,-18.85407 -16.01102,-32.768338 -33.87279,-29.22098 -8.33587,1.65552 -14.75257,6.12293 -20.39499,14.19933 -8.51653,12.19025 -14.2977,39.48025 -9.81348,46.32406 1.07675,1.64328 2.56608,2.98778 3.30958,2.98778 0.74351,0 14.71347,-6.47069 31.04435,-14.37928 z M 159.57846,59.856391 c 10.80324,-3.001197 10.49405,-7.438339 -0.76182,-10.936344 -11.7977,-3.666342 -34.50699,-0.345102 -34.50699,5.046637 0,1.142054 0.66027,2.61683 1.46727,3.27729 3.93992,3.224447 25.57846,4.896833 33.80154,2.612417 z"
       id="path3440" />
    <path
       style="fill:#f6f6e1;fill-opacity:1;stroke-width:1.17382"
       d="M 140.15621,256.8938 C 133.61076,255.36332 99.115379,238.42138 84.986701,229.79803 62.917141,216.32804 61.52734,214.37821 59.726582,194.35983 56.489073,158.36905 56.037387,149.6139 56.465478,131.15371 56.91693,111.69115 57.078565,110.55224 60.671625,101.52264 68.97123,80.665082 81.699069,66.372391 99.526211,57.890937 c 6.206449,-2.952801 12.347519,-6.334797 13.646819,-7.515566 11.07864,-10.068379 42.44555,-11.930173 58.08939,-3.447917 3.5508,1.925287 11.91508,6.159956 18.5873,9.410368 21.26585,10.359717 34.25521,20.852592 43.47779,35.121804 9.48388,14.673444 9.9811,17.013404 10.49419,49.385934 0.4302,27.14558 -0.91441,53.37839 -3.27167,63.83028 -1.53336,6.79863 -13.03668,17.5218 -16.50026,15.38121 -0.64067,-0.39596 -1.13931,-7.28834 -1.13931,-15.7478 0,-18.42574 -0.66673,-22.19929 -4.20721,-23.81245 -7.37393,-3.3598 -43.49117,15.36552 -48.84133,25.32215 -0.77788,1.44782 -1.71188,11.69299 -2.19374,24.06395 -0.61309,15.74171 -1.26948,21.9573 -2.43732,23.08226 -2.01275,1.93878 -13.36147,5.30097 -17.36442,5.14441 -1.65825,-0.065 -5.12783,-0.61195 -7.71023,-1.21577 z m 51.81837,-106.95113 29.69257,-14.3793 0.0352,-5.53161 c 0.11831,-18.85407 -16.01102,-32.768338 -33.87279,-29.22098 -8.33587,1.65552 -14.75257,6.12293 -20.39499,14.19933 -8.51653,12.19025 -14.2977,39.48025 -9.81348,46.32406 1.07675,1.64328 2.56608,2.98778 3.30958,2.98778 0.74351,0 14.71347,-6.47069 31.04435,-14.37928 z M 159.57846,59.856391 c 10.80324,-3.001197 10.49405,-7.438339 -0.76182,-10.936344 -11.7977,-3.666342 -34.50699,-0.345102 -34.50699,5.046637 0,1.142054 0.66027,2.61683 1.46727,3.27729 3.93992,3.224447 25.57846,4.896833 33.80154,2.612417 z"
       id="path6091" />
  </g>
</svg>
