<?xml version="1.0" encoding="UTF-8" standalone="no"?>
<!-- Created with Inkscape (http://www.inkscape.org/) -->

<svg
   version="1.1"
   id="svg743"
   width="300"
   height="300"
   viewBox="0 0 300 300"
   sodipodi:docname="hair_cellist_belonging.svg"
   inkscape:version="1.2.2 (732a01da63, 2022-12-09)"
   xmlns:inkscape="http://www.inkscape.org/namespaces/inkscape"
   xmlns:sodipodi="http://sodipodi.sourceforge.net/DTD/sodipodi-0.dtd"
   xmlns="http://www.w3.org/2000/svg"
   xmlns:svg="http://www.w3.org/2000/svg">
  <defs
     id="defs747">
    <filter
       inkscape:collect="always"
       style="color-interpolation-filters:sRGB"
       id="filter1823"
       x="-0.06905082"
       y="-0.0409606"
       width="1.1382357"
       height="1.0818977">
      <feGaussianBlur
         inkscape:collect="always"
         stdDeviation="1.9494"
         id="feGaussianBlur1825" />
    </filter>
  </defs>
  <sodipodi:namedview
     id="namedview745"
     pagecolor="#ffffff"
     bordercolor="#000000"
     borderopacity="0.25"
     inkscape:showpageshadow="2"
     inkscape:pageopacity="0.0"
     inkscape:pagecheckerboard="0"
     inkscape:deskcolor="#d1d1d1"
     showgrid="false"
     inkscape:zoom="3.4233333"
     inkscape:cx="107.64362"
     inkscape:cy="126.04674"
     inkscape:window-width="2560"
     inkscape:window-height="1351"
     inkscape:window-x="2391"
     inkscape:window-y="-9"
     inkscape:window-maximized="1"
     inkscape:current-layer="g749" />
  <g
     inkscape:groupmode="layer"
     inkscape:label="Image"
     id="g749">
    <path
       style="fill:none;fill-opacity:1;stroke-width:12.3;stroke-dasharray:none;stroke:#753f4b;filter:url(#filter1823)"
       d="m 196.12161,279.30488 c 0.0156,-0.8793 0.0894,-2.19046 -0.81178,-3.58199 -0.96787,-1.49443 -2.99994,-3.11531 -5.14529,-5.4087 -3.5777,-3.82458 -5.987,-6.98114 -7.12902,-10.27976 -1.47349,-4.25603 -1.45485,-6.07685 6.37212,-17.46249 0,0 3.2568,-3.82259 3.20179,-6.31947 -0.0548,-2.48612 -3.4653,-6.41147 -3.4653,-6.41147 -5.40965,-8.36978 -7.57392,-14.44037 -8.18389,-26.98658 -0.55894,-11.4965 2.51708,-32.51994 6.21539,-46.13087 2.79391,-10.28245 3.59729,-23.31453 1.71352,-27.7961 -1.41118,-3.35726 -1.51896,-2.98421 -0.89468,7.38693 0.39553,6.57083 -1.41442,13.69184 -3.85492,18.09542 -3.03709,5.48006 -4.05494,5.55817 -6.20789,5.51884 -1.90086,-0.0658 -7.81005,-2.62997 -13.31005,-4.93956 -18.72084,-7.86137 -33.11394,-10.11895 -49.07027,-7.69674 -12.3826,1.87971 -18.945562,4.2703 -27.938031,10.17657 -6.452514,4.23803 -7.035406,4.43547 -8.238218,2.79053 -4.316582,-5.90328 -4.303571,-22.40881 0.025,-31.71998 3.964787,-8.52863 13.961264,-17.98323 24.721519,-23.38144 21.40484,-10.738399 62.84102,-10.446577 83.34238,0.58696 12.58364,6.77232 22.45437,16.76579 28.21194,28.56276 4.67118,9.57098 6.00272,15.31574 5.49851,30.05162 -0.36672,10.71785 -1.56776,13.58211 -2.96533,18.11973 -1.90947,6.1996 -4.83889,7.11767 -5.66447,2.23213 -0.33856,-2.00351 -0.25664,-5.24992 -0.42556,-9.28377 -0.46312,-11.05923 -0.60733,-11.76481 -1.83948,-9 -0.91992,2.06421 -1.21362,5.96333 -0.94153,12.5 0.37585,9.0297 0.64853,10.01981 5.5082,20 6.43756,13.22069 9.4919,23.50597 9.65128,32.5 0.18128,10.22969 -0.54475,11.86102 -7.32927,16.4683 -7.89831,5.36364 -9.042,7.19284 -9.06864,14.50421 -0.0245,6.72817 -2.38531,13.02567 -6.38091,17.02127 -3.31111,3.31112 -5.67015,3.99388 -5.59712,-0.11635 z M 88.122115,277.804 c -6.18189,-2.46506 -10.013688,-7.89426 -10.158861,-13.47091 -0.100618,-3.86517 1.757587,-7.828 5.055969,-10.81299 2.156925,-1.95199 3.124874,-4.45264 1.417335,-7.10423 -1.059694,-1.64557 -3.451461,-2.82539 -6.314956,-5.55578 -7.944913,-7.5756 -8.100533,-8.15886 -4.922472,-18.44822 3.706797,-12.00122 4.972767,-19.69812 5.910536,-35.9352 0.759334,-13.14752 1.254709,-16.39878 2.818734,-18.5 1.971814,-2.64906 6.666167,-4.90959 7.813318,-3.76244 0.362528,0.36253 1.458436,9.33381 2.435352,19.93618 2.667733,28.95266 4.298932,33.70618 15.77151,45.96011 3.1402,3.35408 3.40226,4.09089 2.93364,8.24843 -0.65795,5.83729 -5.21474,13.35561 -14.045745,23.17433 -5.709402,6.34798 -7.275263,7.32297 -6.404778,11.04242 0.231452,0.98896 1.170864,2.60498 1.940857,3.98556 0.622881,1.11682 -0.4897,2.74235 -4.250439,1.24274 z M 199.20544,110.81273 c -2.9789,-2.25836 -6.8039,-4.89527 -8.5,-5.85979 -8.03424,-4.56882 -10.58383,-6.297314 -10.58383,-7.175297 0,-0.523737 1.6875,-1.612157 3.75,-2.41871 13.68749,-5.352574 23.90315,-15.48886 25.63804,-25.438824 2.69511,-15.457089 -19.05238,-25.909392 -36.1367,-17.368056 -6.62734,3.313348 -10.28066,8.753539 -8.52326,12.692031 0.6244,1.39934 1.60268,1.666448 2.09352,0.995388 0.40783,-0.557557 0.37102,-2.219727 0.94104,-3.508349 2.40542,-5.43785 6.98328,-8.303122 14.95559,-9.360687 5.80792,-0.770447 14.49256,1.361774 18.55179,4.554771 6.46029,5.081662 5.60665,13.693533 -2.20454,22.240215 -9.95466,10.891988 -19.70777,13.670744 -48.18062,13.727136 -20.4107,0.04042 -19.92652,0.225031 -26.68545,-10.174472 -5.26894,-8.10695 -6.83821,-13.85568 -5.30893,-19.448324 3.44987,-12.616349 23.27102,-32.897196 42.02796,-41.666019 8.27017,-3.866285 11.43582,-4.865131 20.36498,-4.744323 0,0 5.7828,0.07687 9.46086,0.774581 2.65669,0.50396 7.55177,3.560479 7.55177,3.560479 14.27185,9.27573 27.71584,27.15287 30.10836,40.036583 0.97299,5.239571 -1.52329,13.254811 -5.92245,19.016217 -1.97793,2.590413 -3.20845,3.589987 -3.37909,4.925979 -0.12276,0.961067 0.47915,2.201938 0.91991,3.838776 2.01293,7.475416 -1.30498,16.925205 -7.94538,22.629455 -3.77669,3.24425 -6.87771,2.8078 -12.99357,-1.82876 z"
       id="path1711"
       sodipodi:nodetypes="sssssssssssscsssssssssssssssssssssssssssssssssssssssssssssssssssssssssssss"
       inkscape:label="path1711" />
    <path
       style="fill:#f6f6e1;fill-opacity:1;stroke-width:0;stroke-dasharray:none"
       d="m 196.12161,279.30488 c 0.0156,-0.8793 0.0894,-2.19046 -0.81178,-3.58199 -0.96787,-1.49443 -2.99994,-3.11531 -5.14529,-5.4087 -3.5777,-3.82458 -5.987,-6.98114 -7.12902,-10.27976 -1.47349,-4.25603 -1.45485,-6.07685 6.37212,-17.46249 0,0 3.2568,-3.82259 3.20179,-6.31947 -0.0548,-2.48612 -3.4653,-6.41147 -3.4653,-6.41147 -5.40965,-8.36978 -7.57392,-14.44037 -8.18389,-26.98658 -0.55894,-11.4965 2.51708,-32.51994 6.21539,-46.13087 2.79391,-10.28245 3.59729,-23.31453 1.71352,-27.7961 -1.41118,-3.35726 -1.51896,-2.98421 -0.89468,7.38693 0.39553,6.57083 -1.41442,13.69184 -3.85492,18.09542 -3.03709,5.48006 -4.05494,5.55817 -6.20789,5.51884 -1.90086,-0.0658 -7.81005,-2.62997 -13.31005,-4.93956 -18.72084,-7.86137 -33.11394,-10.11895 -49.07027,-7.69674 -12.3826,1.87971 -18.945562,4.2703 -27.938031,10.17657 -6.452514,4.23803 -7.035406,4.43547 -8.238218,2.79053 -4.316582,-5.90328 -4.303571,-22.40881 0.025,-31.71998 3.964787,-8.52863 13.961264,-17.98323 24.721519,-23.38144 21.40484,-10.738399 62.84102,-10.446577 83.34238,0.58696 12.58364,6.77232 22.45437,16.76579 28.21194,28.56276 4.67118,9.57098 6.00272,15.31574 5.49851,30.05162 -0.36672,10.71785 -1.56776,13.58211 -2.96533,18.11973 -1.90947,6.1996 -4.83889,7.11767 -5.66447,2.23213 -0.33856,-2.00351 -0.25664,-5.24992 -0.42556,-9.28377 -0.46312,-11.05923 -0.60733,-11.76481 -1.83948,-9 -0.91992,2.06421 -1.21362,5.96333 -0.94153,12.5 0.37585,9.0297 0.64853,10.01981 5.5082,20 6.43756,13.22069 9.4919,23.50597 9.65128,32.5 0.18128,10.22969 -0.54475,11.86102 -7.32927,16.4683 -7.89831,5.36364 -9.042,7.19284 -9.06864,14.50421 -0.0245,6.72817 -2.38531,13.02567 -6.38091,17.02127 -3.31111,3.31112 -5.67015,3.99388 -5.59712,-0.11635 z M 88.122115,277.804 c -6.18189,-2.46506 -10.013688,-7.89426 -10.158861,-13.47091 -0.100618,-3.86517 1.757587,-7.828 5.055969,-10.81299 2.156925,-1.95199 3.124874,-4.45264 1.417335,-7.10423 -1.059694,-1.64557 -3.451461,-2.82539 -6.314956,-5.55578 -7.944913,-7.5756 -8.100533,-8.15886 -4.922472,-18.44822 3.706797,-12.00122 4.972767,-19.69812 5.910536,-35.9352 0.759334,-13.14752 1.254709,-16.39878 2.818734,-18.5 1.971814,-2.64906 6.666167,-4.90959 7.813318,-3.76244 0.362528,0.36253 1.458436,9.33381 2.435352,19.93618 2.667733,28.95266 4.298932,33.70618 15.77151,45.96011 3.1402,3.35408 3.40226,4.09089 2.93364,8.24843 -0.65795,5.83729 -5.21474,13.35561 -14.045745,23.17433 -5.709402,6.34798 -7.275263,7.32297 -6.404778,11.04242 0.231452,0.98896 1.170864,2.60498 1.940857,3.98556 0.622881,1.11682 -0.4897,2.74235 -4.250439,1.24274 z M 199.20544,110.81273 c -2.9789,-2.25836 -6.8039,-4.89527 -8.5,-5.85979 -8.03424,-4.56882 -10.58383,-6.297314 -10.58383,-7.175297 0,-0.523737 1.6875,-1.612157 3.75,-2.41871 13.68749,-5.352574 23.90315,-15.48886 25.63804,-25.438824 2.69511,-15.457089 -19.05238,-25.909392 -36.1367,-17.368056 -6.62734,3.313348 -10.28066,8.753539 -8.52326,12.692031 0.6244,1.39934 1.60268,1.666448 2.09352,0.995388 0.40783,-0.557557 0.37102,-2.219727 0.94104,-3.508349 2.40542,-5.43785 6.98328,-8.303122 14.95559,-9.360687 5.80792,-0.770447 14.49256,1.361774 18.55179,4.554771 6.46029,5.081662 5.60665,13.693533 -2.20454,22.240215 -9.95466,10.891988 -19.70777,13.670744 -48.18062,13.727136 -20.4107,0.04042 -19.92652,0.225031 -26.68545,-10.174472 -5.26894,-8.10695 -6.83821,-13.85568 -5.30893,-19.448324 3.44987,-12.616349 23.27102,-32.897196 42.02796,-41.666019 8.27017,-3.866285 11.43582,-4.865131 20.36498,-4.744323 0,0 5.7828,0.07687 9.46086,0.774581 2.65669,0.50396 7.55177,3.560479 7.55177,3.560479 14.27185,9.27573 27.71584,27.15287 30.10836,40.036583 0.97299,5.239571 -1.52329,13.254811 -5.92245,19.016217 -1.97793,2.590413 -3.20845,3.589987 -3.37909,4.925979 -0.12276,0.961067 0.47915,2.201938 0.91991,3.838776 2.01293,7.475416 -1.30498,16.925205 -7.94538,22.629455 -3.77669,3.24425 -6.87771,2.8078 -12.99357,-1.82876 z"
       id="path1817"
       sodipodi:nodetypes="sssssssssssscsssssssssssssssssssssssssssssssssssssssssssssssssssssssssssss" />
  </g>
</svg>
