<?xml version="1.0" encoding="UTF-8" standalone="no"?>
<!-- Created with Inkscape (http://www.inkscape.org/) -->

<svg
   version="1.1"
   id="svg2"
   width="330"
   height="300"
   viewBox="0 0 330 300"
   sodipodi:docname="ult_cape_star.svg"
   inkscape:version="1.2.2 (732a01da63, 2022-12-09)"
   xmlns:inkscape="http://www.inkscape.org/namespaces/inkscape"
   xmlns:sodipodi="http://sodipodi.sourceforge.net/DTD/sodipodi-0.dtd"
   xmlns="http://www.w3.org/2000/svg"
   xmlns:svg="http://www.w3.org/2000/svg">
  <defs
     id="defs6" />
  <sodipodi:namedview
     id="namedview4"
     pagecolor="#ffffff"
     bordercolor="#000000"
     borderopacity="0.25"
     inkscape:showpageshadow="2"
     inkscape:pageopacity="0.0"
     inkscape:pagecheckerboard="0"
     inkscape:deskcolor="#d1d1d1"
     showgrid="false"
     inkscape:zoom="1.7116667"
     inkscape:cx="33.008763"
     inkscape:cy="89.678674"
     inkscape:window-width="2560"
     inkscape:window-height="1351"
     inkscape:window-x="2391"
     inkscape:window-y="-9"
     inkscape:window-maximized="1"
     inkscape:current-layer="g8" />
  <g
     inkscape:groupmode="layer"
     inkscape:label="Image"
     id="g8">
    <path
       style="fill:#888888;fill-opacity:1"
       d="m 125.88803,271.28056 c -12.03853,-2.20067 -12.66644,-2.73264 -27.538623,-18.95333 -9.500859,-10.36233 -10.705166,-12.26232 -10.03302,-17.32622 0.36968,-2.78514 1.042686,-9.36785 1.495568,-14.62825 1.012587,-11.76155 2.286851,-14.35653 11.658735,-23.74246 7.29589,-7.30683 7.29589,-7.30683 19.0505,-6.76686 11.75462,0.53996 11.75462,0.53996 16.58212,5.29487 6.56545,6.46673 8.66363,11.16067 9.00042,20.13529 0.27501,7.32837 0.53061,7.4014 -6.21939,13.80033 -3.7125,3.51941 -5.43549,6.04951 -5.43549,6.60426 0,1.64348 5.61531,1.83828 9.92989,-0.12673 5.32078,-2.42327 11.12386,-9.02375 12.53233,-14.2544 0.72421,-2.6895 1.2969,-18.76251 1.57033,-44.07228 0.56454,-52.25572 1.50509,-67.55104 5.30729,-86.307663 4.09239,-20.188221 4.37399,-21.04489 10.90092,-33.163379 5.90476,-10.963304 6.17446,-11.247729 21.10494,-22.257071 2.9787,-2.196412 6.8037,-4.255202 8.5,-4.57509 1.69631,-0.319888 4.88419,-0.977703 7.08419,-1.461811 15.29896,-3.366525 14.36518,-3.345804 25,-0.554736 5.5,1.443454 10.9178,3.222503 12.03956,3.953443 1.95051,1.270956 21.57709,26.250084 24.23902,30.849468 0.88889,1.53587 1.19367,5.777175 1,13.916097 -0.27858,11.706921 -0.27858,11.706921 -8.27858,19.306249 -4.4,4.179623 -9.04179,8.024013 -10.3151,8.543083 -1.2733,0.51906 -6.8983,0.92907 -12.5,0.91112 -10.1849,-0.0326 -10.1849,-0.0326 -16.03063,-6.519793 -6.24387,-6.92898 -8.61883,-12.754469 -8.6424,-21.198773 -0.0108,-3.879012 0.49153,-4.731304 5.73813,-9.735201 3.1625,-3.016205 6.5375,-5.745993 7.5,-6.066195 2.61697,-0.870609 2.11,-3.318953 -0.84059,-4.059504 -10.36953,-2.602585 -23.44355,11.649145 -22.06192,24.049247 1.46028,13.105976 2.64892,22.611709 3.57164,28.562849 5.18344,33.4309 5.13023,32.46631 3.03274,54.98108 -1.05136,11.2854 -2.56223,22.76892 -3.3575,25.51892 -6.82538,23.60186 -11.10293,35.76064 -14.77591,42 -2.26642,3.85 -5.42666,9.34426 -7.02276,12.20946 -2.1956,3.94138 -5.14067,6.8833 -12.09885,12.08589 -11.83237,8.84701 -11.65368,8.76072 -25.35492,12.24485 -13.28647,3.37865 -12.39318,3.3514 -26.33264,0.80324 z M 88.079897,144.31987 c -2.471711,-0.91869 -5.003382,-5.9328 -9.682471,-19.17663 -2.393911,-6.7758 -3.358732,-8.23942 -7.386144,-11.20472 -13.625378,-10.03208 -16.070989,-12.87938 -14.148231,-16.472083 1.315268,-2.45761 4.170163,-3.94729 14.515689,-7.574286 3.113076,-1.091401 5.325884,-1.424257 7.493752,-2.747767 2.861168,-1.746776 5.720676,-4.836059 11.226311,-9.882094 4.16597,-3.818203 5.757325,-6.443937 8.058875,-7.994731 4.325192,-2.914329 7.645832,-2.124856 10.569852,1.030719 1.45817,1.573639 3.49339,5.286139 4.52272,8.25 3.91865,11.28341 5.7203,13.921214 14.75902,21.608712 4.83966,4.11617 8.74409,7.4323 9.4068,9.39773 0.35284,1.04645 0.10183,3.44574 -0.51611,5.31811 -1.26463,3.83186 -2.33974,4.3577 -16.52122,8.08057 -9,2.36264 -9,2.36264 -18,11.81775 -4.95,5.20032 -9.675,9.66843 -10.5,9.92914 -0.825,0.26072 -2.534479,0.0895 -3.798843,-0.38042 z"
       id="path847"
       sodipodi:nodetypes="ssssssssssssssssssssssssssssssssssssssscsssssssssssssssc" />
  </g>
</svg>
