<?xml version="1.0" encoding="UTF-8" standalone="no"?>
<!-- Created with Inkscape (http://www.inkscape.org/) -->

<svg
   version="1.1"
   id="svg18232"
   width="300"
   height="300"
   viewBox="0 0 300 300"
   sodipodi:docname="cape_arum_petal.svg"
   inkscape:version="1.2.2 (732a01da63, 2022-12-09)"
   xmlns:inkscape="http://www.inkscape.org/namespaces/inkscape"
   xmlns:sodipodi="http://sodipodi.sourceforge.net/DTD/sodipodi-0.dtd"
   xmlns:xlink="http://www.w3.org/1999/xlink"
   xmlns="http://www.w3.org/2000/svg"
   xmlns:svg="http://www.w3.org/2000/svg">
  <defs
     id="defs18236">
    <linearGradient
       inkscape:collect="always"
       id="linearGradient22395">
      <stop
         style="stop-color:#b79ea1;stop-opacity:1;"
         offset="0"
         id="stop22391" />
      <stop
         style="stop-color:#d0d3c7;stop-opacity:1;"
         offset="0.40000001"
         id="stop23851" />
      <stop
         style="stop-color:#e3fee6;stop-opacity:1;"
         offset="0.69999999"
         id="stop24579" />
      <stop
         style="stop-color:#f6ffff;stop-opacity:1;"
         offset="1"
         id="stop22393" />
    </linearGradient>
    <filter
       inkscape:collect="always"
       style="color-interpolation-filters:sRGB"
       id="filter21638"
       x="-0.044867504"
       y="-0.077673582"
       width="1.0897905"
       height="1.15534">
      <feGaussianBlur
         inkscape:collect="always"
         stdDeviation="1.9494"
         id="feGaussianBlur21640" />
    </filter>
    <radialGradient
       inkscape:collect="always"
       xlink:href="#linearGradient22395"
       id="radialGradient25307"
       cx="153.49449"
       cy="16.620306"
       fx="153.49449"
       fy="16.620306"
       r="120.70253"
       gradientTransform="matrix(0,0.93837394,-2.1947258,0,189.97151,-76.456824)"
       gradientUnits="userSpaceOnUse" />
  </defs>
  <sodipodi:namedview
     id="namedview18234"
     pagecolor="#ffffff"
     bordercolor="#000000"
     borderopacity="0.25"
     inkscape:showpageshadow="2"
     inkscape:pageopacity="0.0"
     inkscape:pagecheckerboard="0"
     inkscape:deskcolor="#d1d1d1"
     showgrid="false"
     inkscape:zoom="0.4175"
     inkscape:cx="-358.08383"
     inkscape:cy="-335.32934"
     inkscape:window-width="2560"
     inkscape:window-height="1369"
     inkscape:window-x="1912"
     inkscape:window-y="-8"
     inkscape:window-maximized="1"
     inkscape:current-layer="g18238" />
  <g
     inkscape:groupmode="layer"
     inkscape:label="Image"
     id="g18238">
    <path
       style="fill:none;fill-opacity:1;stroke:#753f4b;stroke-width:12.3;stroke-dasharray:none;filter:url(#filter21638)"
       d="m 173.5,205.51981 c -2.75,-0.73986 -5.225,-1.29933 -5.5,-1.24327 -0.275,0.0561 -3.43016,-1.25633 -7.01147,-2.91643 -12.4704,-5.78061 -25.76701,-24.32012 -22.93438,-31.97747 0.61987,-1.67565 2.46283,-2.40329 9.60643,-3.79283 23.80311,-4.63008 39.65583,-13.45505 55.63015,-30.96846 8.74661,-9.58932 9.96214,-9.84438 14.6074,-3.06506 4.427,6.46078 15.54549,15.86297 24.14987,20.42199 11.28524,6.40122 24.13881,9.75704 34.202,18.77227 4.83614,4.61391 2.40917,8.44365 -2.95598,4.68213 -4.55998,-3.19701 -14.17194,-2.02262 -19.60972,0.38277 -2.39861,1.06102 -7.47133,3.96617 -11.2727,6.4559 -8.65336,5.66755 -14.43937,9.19972 -21.46453,12.68515 -5.72051,3.48935 -12.11923,6.08051 -17.25288,8.01641 -9.04969,3.39922 -11.8495,4.01657 -17.95772,3.9596 -3.98006,-0.0371 -9.48647,-0.67284 -12.23647,-1.4127 z M 55.138723,198.1323 c -10.546145,-3.73809 -12.937958,-9.37518 -9.242655,-21.78332 3.737829,-12.55093 2.660601,-19.93579 -4.156068,-28.49164 -5.154889,-6.47008 -5.760693,-16.38493 -1.295516,-21.20294 2.101455,-2.2675 2.434975,-2.3167 8.073709,-1.19076 4.053703,0.80944 7.82194,1.33178 11.197007,0.72166 3.595117,-0.6499 6.769069,-2.53129 10.209958,-4.91244 C 74.948993,117.79629 80.627847,111.84162 98,91.834456 c 9.15872,-10.547912 20.52959,-18.117962 33,-21.969436 6.04664,-1.8675 9.82537,-2.320882 19.5,-2.339665 16.31147,-0.03167 27.77215,3.097412 39.94841,10.907015 7.22467,4.633756 25.53018,19.551431 25.66674,20.916558 0.70692,7.066212 -13.36677,29.693572 -23.91511,38.450192 -16.20621,13.45346 -27.15335,18.13034 -51.95004,22.1943 -4.81195,0.9718 -9.99133,2.26191 -14.21906,4.50988 -5.73406,3.04894 -10.23594,7.42004 -14.53094,11.04662 -4.95,4.21748 -9.45,8.20946 -10,8.87106 -2.570886,3.09256 -14.570758,10.14006 -20.93213,12.29339 -9.844101,3.33224 -18.644046,3.82292 -25.429147,1.41793 z"
       id="path21630"
       sodipodi:nodetypes="sssssssccsssccssssssssssssscscscsss"
       inkscape:label="stroke" />
    <path
       style="fill:url(#radialGradient25307);fill-opacity:1"
       d="m 173.5,205.51981 c -2.75,-0.73986 -5.225,-1.29933 -5.5,-1.24327 -0.275,0.0561 -3.43016,-1.25633 -7.01147,-2.91643 -12.4704,-5.78061 -25.76701,-24.32012 -22.93438,-31.97747 0.61987,-1.67565 2.46283,-2.40329 9.60643,-3.79283 23.80311,-4.63008 39.65583,-13.45505 55.63015,-30.96846 8.74661,-9.58932 9.96214,-9.84438 14.6074,-3.06506 4.427,6.46078 15.54549,15.86297 24.14987,20.42199 11.28524,6.40122 24.13881,9.75704 34.202,18.77227 4.83614,4.61391 2.40917,8.44365 -2.95598,4.68213 -4.55998,-3.19701 -14.17194,-2.02262 -19.60972,0.38277 -2.39861,1.06102 -7.47133,3.96617 -11.2727,6.4559 -8.65336,5.66755 -14.43937,9.19972 -21.46453,12.68515 -5.72051,3.48935 -12.11923,6.08051 -17.25288,8.01641 -9.04969,3.39922 -11.8495,4.01657 -17.95772,3.9596 -3.98006,-0.0371 -9.48647,-0.67284 -12.23647,-1.4127 z M 55.138723,198.1323 c -10.546145,-3.73809 -12.937958,-9.37518 -9.242655,-21.78332 3.737829,-12.55093 2.660601,-19.93579 -4.156068,-28.49164 -5.154889,-6.47008 -5.760693,-16.38493 -1.295516,-21.20294 2.101455,-2.2675 2.434975,-2.3167 8.073709,-1.19076 4.053703,0.80944 7.82194,1.33178 11.197007,0.72166 3.595117,-0.6499 6.769069,-2.53129 10.209958,-4.91244 C 74.948993,117.79629 80.627847,111.84162 98,91.834456 c 9.15872,-10.547912 20.52959,-18.117962 33,-21.969436 6.04664,-1.8675 9.82537,-2.320882 19.5,-2.339665 16.31147,-0.03167 27.77215,3.097412 39.94841,10.907015 7.22467,4.633756 25.53018,19.551431 25.66674,20.916558 0.70692,7.066212 -13.36677,29.693572 -23.91511,38.450192 -16.20621,13.45346 -27.15335,18.13034 -51.95004,22.1943 -4.81195,0.9718 -9.99133,2.26191 -14.21906,4.50988 -5.73406,3.04894 -10.23594,7.42004 -14.53094,11.04662 -4.95,4.21748 -9.45,8.20946 -10,8.87106 -2.570886,3.09256 -14.570758,10.14006 -20.93213,12.29339 -9.844101,3.33224 -18.644046,3.82292 -25.429147,1.41793 z"
       id="path21632"
       sodipodi:nodetypes="sssssssccsssccssssssssssssscscscsss"
       inkscape:label="cape" />
  </g>
</svg>
