<?xml version="1.0" encoding="UTF-8" standalone="no"?>
<!-- Created with Inkscape (http://www.inkscape.org/) -->

<svg
   version="1.1"
   id="svg13700"
   width="300"
   height="300"
   viewBox="0 0 300 300"
   sodipodi:docname="hair_spiky_sprig.svg"
   xml:space="preserve"
   inkscape:version="1.2.2 (732a01da63, 2022-12-09)"
   xmlns:inkscape="http://www.inkscape.org/namespaces/inkscape"
   xmlns:sodipodi="http://sodipodi.sourceforge.net/DTD/sodipodi-0.dtd"
   xmlns="http://www.w3.org/2000/svg"
   xmlns:svg="http://www.w3.org/2000/svg"><defs
     id="defs13704"><filter
       inkscape:collect="always"
       style="color-interpolation-filters:sRGB"
       id="filter14196"
       x="-0.05870768"
       y="-0.066842963"
       width="1.1162607"
       height="1.1336859"><feGaussianBlur
         inkscape:collect="always"
         stdDeviation="1.9494"
         id="feGaussianBlur14198" /></filter></defs><sodipodi:namedview
     id="namedview13702"
     pagecolor="#ffffff"
     bordercolor="#000000"
     borderopacity="0.25"
     inkscape:showpageshadow="2"
     inkscape:pageopacity="0.0"
     inkscape:pagecheckerboard="0"
     inkscape:deskcolor="#d1d1d1"
     showgrid="false"
     inkscape:zoom="1.67"
     inkscape:cx="-48.802395"
     inkscape:cy="119.76048"
     inkscape:window-width="2560"
     inkscape:window-height="1369"
     inkscape:window-x="1912"
     inkscape:window-y="-8"
     inkscape:window-maximized="1"
     inkscape:current-layer="g13706"><sodipodi:guide
       position="497.60479,530.53892"
       orientation="0,-1"
       id="guide14930"
       inkscape:locked="false" /></sodipodi:namedview><g
     inkscape:groupmode="layer"
     inkscape:label="Image"
     id="g13706"><path
       style="mix-blend-mode:normal;fill:none;fill-opacity:1;stroke:#753f4b;stroke-width:12.3;stroke-dasharray:none;filter:url(#filter14196)"
       d="m 169.1949,254.38766 c 0.44917,-10.6436 0.26031,-13.42669 -1.10662,-16.30728 -0.90652,-1.91035 -7.37561,-9.5226 -14.37574,-16.91609 -13.83643,-14.61397 -22.92948,-24.94109 -25.60505,-29.08009 -1.57841,-2.44173 -1.58353,-2.75872 -0.0689,-4.27332 0.89977,-0.89977 2.88879,-2.28381 4.42003,-3.07565 1.53124,-0.79184 3.03716,-2.09924 3.34649,-2.90534 0.64538,-1.68183 -2.12052,-0.99812 -17.4109,4.3038 -10.47354,3.6317 -31.48017,7.95389 -42.65915,8.77728 -9.44598,0.69574 -9.90769,0.21437 -5.71395,-5.95728 1.3948,-2.05267 2.03838,-3.73213 1.43015,-3.73213 -3.60631,0 -16.939413,12.14806 -28.823907,26.26205 -4.046722,4.80587 -7.732664,8.73795 -8.190983,8.73795 -4.487075,0 -6.415533,-29.6457 -2.905361,-44.6634 2.038107,-8.71971 4.362002,-14.85268 6.015082,-15.87434 0.60025,-0.37098 2.841158,0.73167 4.979796,2.45033 l 3.888432,3.12483 1.679888,-3.26871 C 53.8618,150.76774 66.74606,136.03015 74.46034,131.83151 c 6.2589,-3.40652 7.03967,-2.91157 7.8988,5.00729 l 0.62589,5.76902 6,-6.84914 c 11.69496,-13.35006 34.44001,-30.53712 40.41229,-30.53712 1.71272,0 3.03562,1.88985 6.69427,9.56329 2.50785,5.25981 5.1294,9.78189 5.82567,10.04907 0.69626,0.26718 6.84634,0.0775 13.66685,-0.4216 13.93842,-1.01989 20.71669,-0.44183 22.1843,1.8919 0.71409,1.13552 -2.1e-4,5.23217 -2.52825,14.5 -2.48285,9.10214 -3.18855,13.10684 -2.38934,13.55896 0.62382,0.3529 3.83421,1.19238 7.13421,1.86552 8.24805,1.68246 15.87863,4.64877 18.0062,6.99971 1.71335,1.89323 1.68031,2.11293 -0.90559,6.02047 -1.4761,2.23055 -4.3242,5.6028 -6.32911,7.49388 -2.00491,1.89109 -3.44869,3.62469 -3.20839,3.85246 0.24029,0.22776 2.7337,1.76146 5.54091,3.40821 9.60152,5.63239 18.4749,12.62856 20.26911,15.98108 2.97856,5.56548 0.26411,10.70578 -11.47872,21.73705 l -8.51604,8 2.27018,4.13183 1.39918,2.54657 c 0.68098,1.50015 0.0571,2.65429 -0.54684,3.45028 l -2.6632,3.50315 c -5.45131,7.17059 -22.11114,23.86817 -23.81422,23.86817 -1.098,0 -1.25241,-2.4357 -0.8136,-12.8339 z"
       id="path14192"
       sodipodi:nodetypes="sssssssssssssssscssscssssssssssssssssccccsss"
       transform="matrix(1.2206681,0,0,1.2206681,1.0907753,-77.314719)" /><path
       style="fill:#f6f6e1;fill-opacity:1;stroke-width:1.22067"
       d="m 207.49139,233.20819 c 0.54829,-12.9923 0.31775,-16.38953 -1.35081,-19.90578 -1.10656,-2.3319 -9.00318,-11.62393 -17.54801,-20.64893 -16.88969,-17.83881 -27.98929,-30.44479 -31.25527,-35.49714 -1.92671,-2.98054 -1.93296,-3.36748 -0.0841,-5.2163 1.09832,-1.09832 3.52625,-2.78778 5.39539,-3.75435 1.86913,-0.96657 3.70736,-2.56248 4.08495,-3.54646 0.78779,-2.05295 -2.58845,-1.21837 -21.25293,5.25351 -12.78472,4.4331 -38.42684,9.70906 -52.072669,10.71415 -11.530407,0.84927 -12.094002,0.26167 -6.974837,-7.27186 1.702588,-2.50563 2.488186,-4.55569 1.745739,-4.55569 -4.402108,0 -20.677402,14.82875 -35.184424,32.05724 -4.939705,5.86638 -9.439017,10.66614 -9.998472,10.66614 -5.47723,0 -7.831237,-36.18756 -3.546482,-54.51919 2.487852,-10.64387 5.324557,-18.13019 7.342419,-19.3773 0.732706,-0.45284 3.468111,0.89313 6.078678,2.99104 l 4.746485,3.81438 2.050586,-3.99001 c 7.040317,-13.69898 22.767722,-31.688696 32.184298,-36.813841 7.640039,-4.15823 8.593099,-3.554061 9.641809,6.112235 l 0.76401,7.04206 7.32401,-8.36052 c 14.27567,-16.295996 42.03982,-37.275692 49.32999,-37.275692 2.09067,0 3.70549,2.306879 8.17149,11.673603 3.06125,6.420482 6.26129,11.940441 7.11121,12.266579 0.8499,0.326138 8.3571,0.0946 16.68268,-0.514634 17.01419,-1.244947 25.28821,-0.539328 27.07967,2.309382 0.87167,1.386093 -2.6e-4,6.386743 -3.08615,17.699692 -3.03074,11.110696 -3.89216,15.999106 -2.91659,16.550996 0.76147,0.43077 4.68029,1.4555 8.7085,2.27718 10.06813,2.05372 19.38254,5.6746 21.97959,8.54432 2.09143,2.31101 2.0511,2.57919 -1.10542,7.349 -1.80183,2.72276 -5.27842,6.83915 -7.72574,9.14754 -2.44733,2.30839 -4.20971,4.42454 -3.91638,4.70257 0.29331,0.27802 3.33694,2.15016 6.76361,4.16029 11.72027,6.87528 22.55172,15.41528 24.74185,19.5076 3.63584,6.7936 0.32239,13.0682 -14.0117,26.53372 l -10.39526,9.76535 2.77113,5.04359 1.70794,3.10852 c 0.83125,1.83118 0.0697,3.24 -0.66751,4.21164 l -3.25088,4.27619 c -6.65424,8.75291 -26.99037,29.13511 -29.06926,29.13511 -1.3403,0 -1.52878,-2.97318 -0.99314,-15.66593 z"
       id="path14194"
       sodipodi:nodetypes="sssssssssssssssscssscssssssssssssssssccccsss" /></g></svg>
