<?xml version="1.0" encoding="UTF-8" standalone="no"?>
<!-- Created with Inkscape (http://www.inkscape.org/) -->

<svg
   version="1.1"
   id="svg2"
   width="300"
   height="300"
   viewBox="0 0 300 300"
   sodipodi:docname="hair_arum_petal.svg"
   inkscape:version="1.2.2 (732a01da63, 2022-12-09)"
   xmlns:inkscape="http://www.inkscape.org/namespaces/inkscape"
   xmlns:sodipodi="http://sodipodi.sourceforge.net/DTD/sodipodi-0.dtd"
   xmlns="http://www.w3.org/2000/svg"
   xmlns:svg="http://www.w3.org/2000/svg">
  <defs
     id="defs6">
    <filter
       inkscape:collect="always"
       style="color-interpolation-filters:sRGB"
       id="filter6769"
       x="-0.044927212"
       y="-0.059265645"
       width="1.0903641"
       height="1.1187407">
      <feGaussianBlur
         inkscape:collect="always"
         stdDeviation="1.9494"
         id="feGaussianBlur6771" />
    </filter>
  </defs>
  <sodipodi:namedview
     id="namedview4"
     pagecolor="#ffffff"
     bordercolor="#000000"
     borderopacity="0.25"
     inkscape:showpageshadow="2"
     inkscape:pageopacity="0.0"
     inkscape:pagecheckerboard="0"
     inkscape:deskcolor="#d1d1d1"
     showgrid="false"
     inkscape:zoom="4"
     inkscape:cx="140.625"
     inkscape:cy="84.75"
     inkscape:window-width="2560"
     inkscape:window-height="1369"
     inkscape:window-x="1912"
     inkscape:window-y="-8"
     inkscape:window-maximized="1"
     inkscape:current-layer="g8" />
  <g
     inkscape:groupmode="layer"
     inkscape:label="Image"
     id="g8">
    <path
       id="path4579"
       style="fill:none;fill-opacity:1;stroke:#753f4b;stroke-width:12.3;stroke-dasharray:none;filter:url(#filter6769)"
       d="M 210.75195 32.144531 C 208.95594 32.171188 206.18068 32.919051 201.50977 34.402344 C 190.68384 37.840214 180.46044 46.892026 182.91602 50.865234 C 183.33983 51.550976 187.92024 53.404034 193.09375 54.982422 C 202.81513 57.948318 211.62623 58.213749 214.875 55.638672 C 216.56452 54.299507 215.97533 37.690479 214.11523 34.214844 C 213.36448 32.812021 212.54797 32.117874 210.75195 32.144531 z M 149.29688 52.132812 C 144.402 52.076635 141.11069 52.480069 136.82227 53.513672 C 122.03299 57.078206 113.37659 61.280344 103.01562 69.923828 C 86.898536 83.36927 76.985547 98.202275 69.447266 120.15234 C 67.492609 125.84395 63.780408 134.76644 61.197266 139.98047 C 57.320346 147.80596 54.92922 151.05482 47.5 158.5957 C 38.338909 167.89448 32.274959 171.66493 18.738281 176.48047 C 12.530125 178.68896 11.199498 181.06751 13.984375 184.97852 C 20.346413 193.91317 50.499021 206.02122 75 209.48047 C 93.930122 212.15319 101.61888 211.2468 96.445312 206.95312 C 95.589843 206.24315 93.112362 202.67379 90.941406 199.01953 C 87.104586 192.56121 83.075584 178.67191 83.021484 171.71875 C 83.009581 170.18898 82.36093 168.69222 81.580078 168.39258 C 80.799226 168.09294 76.636721 169.49308 72.330078 171.50391 C 61.242687 176.68078 61.209585 176.69395 53.839844 178.89258 C 44.272602 181.7468 32.794902 183.83461 29.671875 183.05078 C 27.286521 182.45209 30.460819 181.50682 36.103516 179.98242 C 70.40254 170.71641 100.07864 148.69838 114.1582 122.07227 C 115.62702 119.29456 117.80052 114.39124 118.20898 113.89844 C 119.335 112.5399 119 117.44784 119 118.73438 C 119 124.54136 113.48108 136.43558 106.60156 145.45508 C 103.4679 149.56352 103.41348 150 106.0332 150 C 111.99936 150 137.50706 133.245 150.83398 120.57227 C 157.45538 114.2759 164.67916 104.86038 167.19141 99.25 C 168.64284 96.008633 170.17838 90.344735 171.54688 90.716797 C 172.84954 91.070961 171.64836 97.089856 171.33398 100.25 C 170.93792 104.2312 171.31619 106.66635 172.90234 110.32617 C 175.73799 116.86901 180.91022 124.49561 186.69531 130.66602 C 191.41988 135.70524 202.74737 145.04227 215.51953 154.42383 C 218.34005 156.53098 224.80557 161.26892 230.55664 167.12695 C 237.64724 174.34944 243.87119 183.07911 243.47852 188.32812 C 243.00489 194.65944 241.49239 191.87935 240.62891 187.65625 C 238.61986 179.65155 220.35197 161.31601 217.36328 164.30469 C 217.04789 164.62009 215.6821 168.84333 214.33008 173.68945 C 211.36055 184.33338 205.90667 193.88913 197.9375 202.4082 C 194.67204 205.89898 192 209.40952 192 210.20898 C 192 211.69636 194.93049 213.55469 198.5 214.33203 C 202.38904 215.17896 219.55803 214.93869 223.71875 213.97852 C 235.26739 211.3134 244.92068 203.94744 249.7168 194.14453 C 253.53225 186.34602 254.05417 173.85188 251.05273 162.16211 C 249.06991 154.43957 241.75131 134.79404 240.00195 132.5 C 239.09804 131.31466 234.0019 119.52547 229.84375 109 C 222.27152 89.832456 214.04425 76.910806 204.01367 68.431641 C 196.42219 62.014324 191.48551 59.563757 179.82812 56.427734 C 167.2498 53.043968 167.014 53.00615 154.82227 52.335938 C 152.7378 52.221349 150.9285 52.151538 149.29688 52.132812 z M 215.42188 59.173828 C 211.41634 59.146405 208 59.914252 208 61.570312 C 208 62.846593 212.95947 70.225129 216.35547 74 C 217.09767 74.824998 218.4996 76.737504 219.46875 78.25 C 221.98997 82.184752 223.818 81.665092 226.17188 76.34375 C 229.31311 69.242459 229.64782 64.647819 227.19922 62.199219 C 225.25893 60.258928 219.96147 59.204907 215.42188 59.173828 z "
       inkscape:label="stroke" />
    <path
       id="path6760"
       style="fill:#ce9e9a;fill-opacity:1"
       d="M 210.75195 32.144531 C 208.95594 32.171188 206.18069 32.91905 201.50977 34.402344 C 190.68383 37.840218 180.46044 46.892022 182.91602 50.865234 C 183.33983 51.550976 187.92023 53.404033 193.09375 54.982422 C 202.81514 57.948321 211.62623 58.213752 214.875 55.638672 C 216.56452 54.299506 215.97533 37.690483 214.11523 34.214844 C 213.36447 32.81202 212.54797 32.117874 210.75195 32.144531 z M 215.42188 59.173828 C 211.41634 59.146405 208 59.91425 208 61.570312 C 208 62.846594 212.95947 70.225125 216.35547 74 C 217.09767 74.824999 218.4996 76.737502 219.46875 78.25 C 221.98997 82.184756 223.818 81.665097 226.17188 76.34375 C 229.31312 69.242452 229.64782 64.647822 227.19922 62.199219 C 225.25893 60.258926 219.96148 59.204907 215.42188 59.173828 z "
       inkscape:label="accent" />
    <path
       style="fill:#f6f6e1;fill-opacity:1"
       d="m 198.5,214.33245 c -3.56951,-0.77734 -6.5,-2.63662 -6.5,-4.124 0,-0.79947 2.67173,-4.30968 5.93719,-7.80046 7.96918,-8.51908 13.42405,-18.07521 16.39358,-28.71915 1.35202,-4.84613 2.71626,-9.0692 3.03165,-9.3846 2.98869,-2.98868 21.25686,15.34634 23.26591,23.35105 0.86348,4.2231 2.3766,7.00417 2.85023,0.67285 0.39267,-5.24902 -5.83227,-13.97935 -12.92288,-21.20184 -5.75108,-5.85804 -12.2153,-10.59561 -15.03582,-12.70276 -12.77217,-9.38157 -24.10048,-18.71836 -28.82505,-23.75759 -5.7851,-6.17041 -10.95657,-13.7969 -13.79222,-20.33974 -1.58616,-3.65983 -1.96544,-6.09501 -1.56938,-10.07621 0.31438,-3.160147 1.51602,-9.179359 0.21335,-9.533523 -1.3685,-0.372062 -2.90462,5.292153 -4.35606,8.533523 -2.51225,5.61039 -9.73493,15.02596 -16.35633,21.32233 C 137.50723,133.24508 111.9994,150 106.03324,150 c -2.61973,0 -2.56519,-0.43603 0.56848,-4.54448 C 113.48124,136.43601 119,124.54216 119,118.73517 c 0,-1.28654 0.33463,-6.1952 -0.79139,-4.83666 -0.40846,0.4928 -2.58086,5.39654 -4.04968,8.17425 -14.07958,26.62614 -43.756016,48.6431 -78.055075,57.90912 -5.642702,1.5244 -8.817679,2.47079 -6.432323,3.06948 3.12303,0.78383 14.601146,-1.30468 24.168397,-4.1589 7.369749,-2.19863 7.402937,-2.21189 18.490339,-7.38877 4.306647,-2.01083 8.469147,-3.4109 9.25,-3.11126 0.780853,0.29964 1.429471,1.79642 1.441374,3.32619 0.0541,6.95317 4.083537,20.84209 7.920361,27.30042 2.170958,3.65426 4.647126,7.225 5.502596,7.93498 C 101.61817,211.2477 93.930141,212.1536 75,209.48088 50.498996,206.02163 20.346711,193.91313 13.984667,184.97847 c -2.78488,-3.91101 -1.454242,-6.28967 4.75392,-8.49816 C 32.275278,171.66477 38.3389,167.89418 47.5,158.59539 c 7.429227,-7.54089 9.819704,-10.78983 13.696628,-18.61533 2.583145,-5.21403 6.295893,-14.13682 8.250552,-19.82843 7.538289,-21.950091 17.450675,-36.781987 33.56778,-50.227442 10.36098,-8.643493 19.01817,-12.845723 33.80746,-16.410261 5.71791,-1.378138 9.66214,-1.636241 18,-1.177885 12.19175,0.670213 12.42785,0.708855 25.00619,4.092625 11.6574,3.136026 16.59299,5.585585 24.18448,12.002908 10.03059,8.479174 18.25791,21.400862 25.83015,40.568425 4.15815,10.52548 9.25407,22.31466 10.15798,23.5 1.74936,2.29404 9.06933,21.93963 11.05216,29.66218 3.00144,11.68978 2.47954,24.18435 -1.33592,31.98287 -4.79612,9.80292 -14.45058,17.16749 -25.99923,19.83261 -4.16072,0.96018 -21.32919,1.20172 -25.21823,0.35479 z"
       id="path6762"
       inkscape:label="main" />
  </g>
</svg>
