<?xml version="1.0" encoding="UTF-8" standalone="no"?>
<!-- Created with Inkscape (http://www.inkscape.org/) -->

<svg
   version="1.1"
   id="svg13700"
   width="300"
   height="300"
   viewBox="0 0 300 300"
   sodipodi:docname="hair_spiky_sprig_spell.svg"
   xml:space="preserve"
   inkscape:version="1.2.2 (732a01da63, 2022-12-09)"
   xmlns:inkscape="http://www.inkscape.org/namespaces/inkscape"
   xmlns:sodipodi="http://sodipodi.sourceforge.net/DTD/sodipodi-0.dtd"
   xmlns="http://www.w3.org/2000/svg"
   xmlns:svg="http://www.w3.org/2000/svg"><defs
     id="defs13704" /><sodipodi:namedview
     id="namedview13702"
     pagecolor="#ffffff"
     bordercolor="#000000"
     borderopacity="0.25"
     inkscape:showpageshadow="2"
     inkscape:pageopacity="0.0"
     inkscape:pagecheckerboard="0"
     inkscape:deskcolor="#d1d1d1"
     showgrid="false"
     inkscape:zoom="1.67"
     inkscape:cx="-97.904192"
     inkscape:cy="119.76048"
     inkscape:window-width="2560"
     inkscape:window-height="1369"
     inkscape:window-x="1912"
     inkscape:window-y="-8"
     inkscape:window-maximized="1"
     inkscape:current-layer="g13706"><sodipodi:guide
       position="497.60479,530.53892"
       orientation="0,-1"
       id="guide14930"
       inkscape:locked="false" /></sodipodi:namedview><g
     inkscape:groupmode="layer"
     inkscape:label="Image"
     id="g13706"><rect
       style="fill:#292c2b;fill-opacity:1;stroke:none;stroke-width:43.8978;stop-color:#000000"
       id="rect32909"
       width="300"
       height="300"
       x="0"
       y="0"
       ry="45"
       rx="45"
       inkscape:label="spell_background" /><path
       style="fill:#f9f0d4;fill-opacity:1;stroke-width:1.22067"
       d="m 207.49139,233.20819 c 0.54829,-12.9923 0.31775,-16.38953 -1.35081,-19.90578 -1.10656,-2.3319 -9.00318,-11.62393 -17.54801,-20.64893 -16.88969,-17.83881 -27.98929,-30.44479 -31.25527,-35.49714 -1.92671,-2.98054 -1.93296,-3.36748 -0.0841,-5.2163 1.09832,-1.09832 3.52625,-2.78778 5.39539,-3.75435 1.86913,-0.96657 3.70736,-2.56248 4.08495,-3.54646 0.78779,-2.05295 -2.58845,-1.21837 -21.25293,5.25351 -12.78472,4.4331 -38.42684,9.70906 -52.072669,10.71415 -11.530407,0.84927 -12.094002,0.26167 -6.974837,-7.27186 1.702588,-2.50563 2.488186,-4.55569 1.745739,-4.55569 -4.402108,0 -20.677402,14.82875 -35.184424,32.05724 -4.939705,5.86638 -9.439017,10.66614 -9.998472,10.66614 -5.47723,0 -7.831237,-36.18756 -3.546482,-54.51919 2.487852,-10.64387 5.324557,-18.13019 7.342419,-19.3773 0.732706,-0.45284 3.468111,0.89313 6.078678,2.99104 l 4.746485,3.81438 2.050586,-3.99001 c 7.040317,-13.69898 22.767722,-31.688696 32.184298,-36.813841 7.640039,-4.15823 8.593099,-3.554061 9.641809,6.112235 l 0.76401,7.04206 7.32401,-8.36052 c 14.27567,-16.295996 42.03982,-37.275692 49.32999,-37.275692 2.09067,0 3.70549,2.306879 8.17149,11.673603 3.06125,6.420482 6.26129,11.940441 7.11121,12.266579 0.8499,0.326138 8.3571,0.0946 16.68268,-0.514634 17.01419,-1.244947 25.28821,-0.539328 27.07967,2.309382 0.87167,1.386093 -2.6e-4,6.386743 -3.08615,17.699692 -3.03074,11.110696 -3.89216,15.999106 -2.91659,16.550996 0.76147,0.43077 4.68029,1.4555 8.7085,2.27718 10.06813,2.05372 19.38254,5.6746 21.97959,8.54432 2.09143,2.31101 2.0511,2.57919 -1.10542,7.349 -1.80183,2.72276 -5.27842,6.83915 -7.72574,9.14754 -2.44733,2.30839 -4.20971,4.42454 -3.91638,4.70257 0.29331,0.27802 3.33694,2.15016 6.76361,4.16029 11.72027,6.87528 22.55172,15.41528 24.74185,19.5076 3.63584,6.7936 0.32239,13.0682 -14.0117,26.53372 l -10.39526,9.76535 2.77113,5.04359 1.70794,3.10852 c 0.83125,1.83118 0.0697,3.24 -0.66751,4.21164 l -3.25088,4.27619 c -6.65424,8.75291 -26.99037,29.13511 -29.06926,29.13511 -1.3403,0 -1.52878,-2.97318 -0.99314,-15.66593 z"
       id="path14194"
       sodipodi:nodetypes="sssssssssssssssscssscssssssssssssssssccccsss" /></g></svg>
