<?xml version="1.0" encoding="UTF-8" standalone="no"?>
<!-- Created with Inkscape (http://www.inkscape.org/) -->

<svg
   version="1.1"
   id="svg2"
   width="300"
   height="300"
   viewBox="0 0 300 300"
   sodipodi:docname="hair_arum_petal_spell.svg"
   inkscape:version="1.2.2 (732a01da63, 2022-12-09)"
   xmlns:inkscape="http://www.inkscape.org/namespaces/inkscape"
   xmlns:sodipodi="http://sodipodi.sourceforge.net/DTD/sodipodi-0.dtd"
   xmlns="http://www.w3.org/2000/svg"
   xmlns:svg="http://www.w3.org/2000/svg">
  <defs
     id="defs6" />
  <sodipodi:namedview
     id="namedview4"
     pagecolor="#ffffff"
     bordercolor="#000000"
     borderopacity="0.25"
     inkscape:showpageshadow="2"
     inkscape:pageopacity="0.0"
     inkscape:pagecheckerboard="0"
     inkscape:deskcolor="#d1d1d1"
     showgrid="false"
     inkscape:zoom="2"
     inkscape:cx="-32.25"
     inkscape:cy="120.5"
     inkscape:window-width="2560"
     inkscape:window-height="1369"
     inkscape:window-x="1912"
     inkscape:window-y="-8"
     inkscape:window-maximized="1"
     inkscape:current-layer="g8" />
  <g
     inkscape:groupmode="layer"
     inkscape:label="Image"
     id="g8">
    <rect
       style="fill:#292c2b;fill-opacity:1;stroke:none;stroke-width:43.8978;stop-color:#000000"
       id="rect32909"
       width="300"
       height="300"
       x="0"
       y="0"
       ry="45"
       rx="45"
       inkscape:label="spell_background" />
    <path
       id="path6760"
       style="fill:#c79290;fill-opacity:1"
       d="M 210.75195 32.144531 C 208.95594 32.171188 206.18069 32.91905 201.50977 34.402344 C 190.68383 37.840218 180.46044 46.892022 182.91602 50.865234 C 183.33983 51.550976 187.92023 53.404033 193.09375 54.982422 C 202.81514 57.948321 211.62623 58.213752 214.875 55.638672 C 216.56452 54.299506 215.97533 37.690483 214.11523 34.214844 C 213.36447 32.81202 212.54797 32.117874 210.75195 32.144531 z M 215.42188 59.173828 C 211.41634 59.146405 208 59.91425 208 61.570312 C 208 62.846594 212.95947 70.225125 216.35547 74 C 217.09767 74.824999 218.4996 76.737502 219.46875 78.25 C 221.98997 82.184756 223.818 81.665097 226.17188 76.34375 C 229.31312 69.242452 229.64782 64.647822 227.19922 62.199219 C 225.25893 60.258926 219.96148 59.204907 215.42188 59.173828 z "
       inkscape:label="accent" />
    <path
       style="fill:#f9f0d4;fill-opacity:1"
       d="m 198.5,214.33245 c -3.56951,-0.77734 -6.5,-2.63662 -6.5,-4.124 0,-0.79947 2.67173,-4.30968 5.93719,-7.80046 7.96918,-8.51908 13.42405,-18.07521 16.39358,-28.71915 1.35202,-4.84613 2.71626,-9.0692 3.03165,-9.3846 2.98869,-2.98868 21.25686,15.34634 23.26591,23.35105 0.86348,4.2231 2.3766,7.00417 2.85023,0.67285 0.39267,-5.24902 -5.83227,-13.97935 -12.92288,-21.20184 -5.75108,-5.85804 -12.2153,-10.59561 -15.03582,-12.70276 -12.77217,-9.38157 -24.10048,-18.71836 -28.82505,-23.75759 -5.7851,-6.17041 -10.95657,-13.7969 -13.79222,-20.33974 -1.58616,-3.65983 -1.96544,-6.09501 -1.56938,-10.07621 0.31438,-3.160147 1.51602,-9.179359 0.21335,-9.533523 -1.3685,-0.372062 -2.90462,5.292153 -4.35606,8.533523 -2.51225,5.61039 -9.73493,15.02596 -16.35633,21.32233 C 137.50723,133.24508 111.9994,150 106.03324,150 c -2.61973,0 -2.56519,-0.43603 0.56848,-4.54448 C 113.48124,136.43601 119,124.54216 119,118.73517 c 0,-1.28654 0.33463,-6.1952 -0.79139,-4.83666 -0.40846,0.4928 -2.58086,5.39654 -4.04968,8.17425 -14.07958,26.62614 -43.756016,48.6431 -78.055075,57.90912 -5.642702,1.5244 -8.817679,2.47079 -6.432323,3.06948 3.12303,0.78383 14.601146,-1.30468 24.168397,-4.1589 7.369749,-2.19863 7.402937,-2.21189 18.490339,-7.38877 4.306647,-2.01083 8.469147,-3.4109 9.25,-3.11126 0.780853,0.29964 1.429471,1.79642 1.441374,3.32619 0.0541,6.95317 4.083537,20.84209 7.920361,27.30042 2.170958,3.65426 4.647126,7.225 5.502596,7.93498 C 101.61817,211.2477 93.930141,212.1536 75,209.48088 50.498996,206.02163 20.346711,193.91313 13.984667,184.97847 c -2.78488,-3.91101 -1.454242,-6.28967 4.75392,-8.49816 C 32.275278,171.66477 38.3389,167.89418 47.5,158.59539 c 7.429227,-7.54089 9.819704,-10.78983 13.696628,-18.61533 2.583145,-5.21403 6.295893,-14.13682 8.250552,-19.82843 7.538289,-21.950091 17.450675,-36.781987 33.56778,-50.227442 10.36098,-8.643493 19.01817,-12.845723 33.80746,-16.410261 5.71791,-1.378138 9.66214,-1.636241 18,-1.177885 12.19175,0.670213 12.42785,0.708855 25.00619,4.092625 11.6574,3.136026 16.59299,5.585585 24.18448,12.002908 10.03059,8.479174 18.25791,21.400862 25.83015,40.568425 4.15815,10.52548 9.25407,22.31466 10.15798,23.5 1.74936,2.29404 9.06933,21.93963 11.05216,29.66218 3.00144,11.68978 2.47954,24.18435 -1.33592,31.98287 -4.79612,9.80292 -14.45058,17.16749 -25.99923,19.83261 -4.16072,0.96018 -21.32919,1.20172 -25.21823,0.35479 z"
       id="path6762"
       inkscape:label="main" />
  </g>
</svg>
