<?xml version="1.0" encoding="UTF-8" standalone="no"?>
<!-- Created with Inkscape (http://www.inkscape.org/) -->

<svg
   version="1.1"
   id="svg29316"
   width="300"
   height="300"
   viewBox="0 0 300 300"
   sodipodi:docname="prop_lilypad_umbrella_spell.svg"
   inkscape:version="1.2.2 (732a01da63, 2022-12-09)"
   xmlns:inkscape="http://www.inkscape.org/namespaces/inkscape"
   xmlns:sodipodi="http://sodipodi.sourceforge.net/DTD/sodipodi-0.dtd"
   xmlns="http://www.w3.org/2000/svg"
   xmlns:svg="http://www.w3.org/2000/svg">
  <defs
     id="defs29320" />
  <sodipodi:namedview
     id="namedview29318"
     pagecolor="#ffffff"
     bordercolor="#000000"
     borderopacity="0.25"
     inkscape:showpageshadow="2"
     inkscape:pageopacity="0.0"
     inkscape:pagecheckerboard="0"
     inkscape:deskcolor="#d1d1d1"
     showgrid="false"
     inkscape:zoom="2.8284271"
     inkscape:cx="-56.74532"
     inkscape:cy="155.20994"
     inkscape:window-width="2560"
     inkscape:window-height="1369"
     inkscape:window-x="1912"
     inkscape:window-y="-8"
     inkscape:window-maximized="1"
     inkscape:current-layer="g29322" />
  <g
     inkscape:groupmode="layer"
     inkscape:label="Image"
     id="g29322">
    <rect
       style="fill:#292c2b;fill-opacity:1;stroke:none;stroke-width:43.8978;stop-color:#000000"
       id="rect32909"
       width="300"
       height="300"
       x="0"
       y="0"
       ry="45"
       rx="45"
       inkscape:label="spell_background" />
    <path
       style="fill:#f9f0d4;fill-opacity:1"
       d="m 177.97584,260.67969 c -7.57381,-3.11615 -13.38485,-7.30964 -20.53317,-14.8176 C 150.07119,238.11975 146.49128,232.95523 141.24866,222.5 133.30933,206.66682 128,186.57707 128,172.36901 c 0,-6.8718 0.39479,-7.25046 5.04966,-4.84333 2.11884,1.09569 2.95034,2.25807 2.95034,4.12436 0,1.42927 1.14848,8.27081 2.55217,15.20342 6.21468,30.6932 16.97816,51.68926 29.92053,58.36521 3.45785,1.78363 3.9109,2.10148 11.51001,1.56207 3.72742,-0.26458 6.39816,-0.71463 8.04958,-0.60956 1.99404,0.12688 2.9361,0.72402 3.73347,1.86243 2.40289,3.43059 1.69062,10.18901 -1.08021,12.79208 -2.9217,2.74479 -5.76295,2.71215 -12.70971,-0.146 z M 205.5,179.24927 c -15.80753,-1.72102 -53.48735,-12.45844 -78,-22.22725 -11.65178,-4.64348 -30.851987,-14.376 -36.410642,-18.45643 -2.647497,-1.94344 -8.813169,-7.89327 -13.701494,-13.22186 C 72.499539,120.01515 65.658717,112.92043 62.186038,109.5777 50.968423,98.779837 35.954869,81.849561 32.947765,76.606691 29.386594,70.397808 29.238944,66.176252 32.349346,59.49696 36.723744,50.103358 52.051398,38.777086 62.287965,37.374008 c 3.206272,-0.439468 7.476678,0.332504 17.237124,3.115998 10.942649,3.120636 13.240639,4.388509 25.486171,4.218722 4.83662,-0.06706 10.40896,0.306695 14.04001,0.859901 12.61429,1.921843 24.0714,8.792795 48.44873,26.769196 15.88924,11.717088 21.97401,15.145481 41,23.100956 33.04013,13.815309 44.22011,20.423519 51.94975,30.706219 11.5787,15.40308 12.36962,32.08826 2.01204,42.44584 -5.15885,5.15886 -9.82498,7.62238 -18.52568,9.78082 -11.03551,2.73764 -12.51337,2.42013 -20.36412,-4.37511 -8.71433,-7.54271 -10.28014,-7.6773 -11.1712,-0.96021 -0.73315,5.52679 -2.07842,6.73796 -6.90079,6.21293 z m -13.27545,-34.53611 c -0.64393,-4.31764 -8.96061,-17.50797 -16.45254,-24.84675 -3.7246,-3.64847 -7.349,-5.99492 -7.07032,-7.29604 0.36766,-1.71656 23.19045,-0.23452 27.76798,0.73517 2.84699,0.6031 13.01693,3.21231 19.25607,4.55256 2.7963,0.60069 4.53739,1.41523 5.00698,0.74252 1.83111,-2.62317 -10.77951,-6.85468 -25.92495,-9.12949 -9.88798,-1.48515 -26.43577,-1.94568 -30.52465,-0.8495 -1.21929,0.32687 -2.51725,1.54068 -2.88436,2.69736 -0.51808,1.63231 0.0883,2.67135 2.70912,4.64203 5.98204,4.4981 14.42448,13.78246 20.93798,23.02602 3.49305,4.95713 6.23248,8.76017 7.05681,8.44522 0.68775,-0.26277 0.32772,-1.33892 0.12188,-2.7191 z m -57.01761,-16.25033 c 4.44463,-4.69545 10.72911,-10.39461 13.9655,-12.66481 5.64808,-3.96191 7.14293,-6.66937 3.29197,-5.96242 -2.72482,0.50021 -12.42747,6.86062 -16.80667,11.01734 C 129.05032,127.12466 123.14103,137 125.99551,137 c 0.62166,0 4.7668,-3.84173 9.21143,-8.53717 z M 157.97804,103.25 c -0.0901,-11.286292 -27.00128,-40.425882 -36.08601,-39.074206 -1.8363,0.273214 -1.17343,1.109397 4.21448,5.316399 3.51642,2.745707 9.18991,7.79091 12.60776,11.211564 6.27505,6.28021 14.03314,16.882164 13.06335,17.851955 -0.28906,0.289057 -2.04477,-0.361058 -3.90159,-1.4447 -5.55797,-3.24364 -18.67547,-8.112 -30.37603,-11.273594 -13.80845,-3.731165 -31.445587,-4.98059 -36.060687,-2.55456 L 78.5,84.827974 81,85.361287 c 1.375,0.293322 7.675,1.02976 14,1.636529 20.96412,2.011128 36.67677,6.532182 52.29775,15.047814 8.73623,4.76247 10.71048,4.9851 10.68029,1.20437 z m 25.25668,-1.82957 c 15.93298,-3.958584 18.61898,-6.109508 6.37368,-5.103978 -7.3194,0.601035 -21.53369,4.546728 -24.12399,6.696488 -1.81501,1.50632 -0.90172,3.2442 1.34975,2.56839 0.91621,-0.27501 8.29646,-2.14742 16.40056,-4.1609 z"
       id="path29808"
       sodipodi:nodetypes="ssssssssssssssssssssssssssssssssssssssssssssssssssssssssssscsssssssss"
       inkscape:label="main" />
  </g>
</svg>
