<?xml version="1.0" encoding="UTF-8" standalone="no"?>
<!-- Created with Inkscape (http://www.inkscape.org/) -->

<svg
   version="1.1"
   id="svg2"
   width="300"
   height="300"
   viewBox="0 0 300 300"
   sodipodi:docname="bloomticket.svg"
   xml:space="preserve"
   inkscape:version="1.2.2 (732a01da63, 2022-12-09)"
   xmlns:inkscape="http://www.inkscape.org/namespaces/inkscape"
   xmlns:sodipodi="http://sodipodi.sourceforge.net/DTD/sodipodi-0.dtd"
   xmlns="http://www.w3.org/2000/svg"
   xmlns:svg="http://www.w3.org/2000/svg"><defs
     id="defs6"><filter
       inkscape:collect="always"
       style="color-interpolation-filters:sRGB"
       id="filter1690"
       x="-0.070701937"
       y="-0.044186029"
       width="1.1413902"
       height="1.0883471"><feGaussianBlur
         inkscape:collect="always"
         stdDeviation="1.9494"
         id="feGaussianBlur1692" /></filter></defs><sodipodi:namedview
     id="namedview4"
     pagecolor="#ffffff"
     bordercolor="#000000"
     borderopacity="0.25"
     inkscape:showpageshadow="2"
     inkscape:pageopacity="0.0"
     inkscape:pagecheckerboard="0"
     inkscape:deskcolor="#d1d1d1"
     showgrid="false"
     inkscape:zoom="1.67"
     inkscape:cx="-93.113772"
     inkscape:cy="74.251497"
     inkscape:window-width="2560"
     inkscape:window-height="1369"
     inkscape:window-x="1912"
     inkscape:window-y="-8"
     inkscape:window-maximized="1"
     inkscape:current-layer="g8" /><g
     inkscape:groupmode="layer"
     inkscape:label="Image"
     id="g8"><path
       style="fill:none;fill-opacity:1;stroke-width:12.3;stroke:#753f4b;stroke-dasharray:none;filter:url(#filter1690)"
       d="m 180.69881,270.70851 c -0.87929,-1.11636 -2.30092,-4.18621 -2.93272,-6.82185 -0.63178,-2.63562 -4.20345,-7.8271 -7.93707,-11.53655 -16.99414,-16.88437 -42.73424,-11.07101 -50.04916,10.9797 l -1.55237,4.6796 c -0.36079,1.04182 -1.0305,2.40142 -2.87758,2.3765 l -10.2542,0.38899 C 89.362222,271.37175 81.846667,268.576 78.658083,260.94461 73.903644,249.56564 71.21324,127.61048 74.601655,77.067554 77.569399,32.799342 80.98458,27.540935 106.7678,27.540935 c 13.67344,0 15.25996,0.786624 17.09593,8.476375 1.58859,6.653683 12.1985,16.850239 19.93541,19.15873 15.0805,4.499631 31.50493,-3.748807 38.09976,-19.133901 l 1.56753,-3.656878 c 0.82504,-2.28558 2.55942,-3.519237 5.24766,-3.395654 l 12.46021,0.429174 c 15.17915,0.522827 16.47991,0.840689 20.69633,5.057518 5.48337,5.483947 5.43092,3.257588 2.21771,94.103391 -1.25479,35.4765 -1.85901,79.40149 -1.34271,97.61108 0.87203,30.75669 0.71684,33.47318 -2.18483,38.24459 -1.71794,2.82493 -4.8123,5.84874 -7.10279,6.7196 -6.19585,2.35564 -30.81643,2.02012 -32.7592,-0.44645 z M 126.96276,208.8488 c 2.8739,-1.20131 6.22309,-3.38738 7.44266,-4.85795 2.033,-2.4514 2.61727,-2.33729 7.02585,1.37228 4.87024,4.09804 7.9411,4.85706 16.73794,4.13707 13.0541,-1.06839 22.36134,-14.52435 16.98925,-24.56219 -1.38628,-2.59029 -1.02145,-3.45017 2.05951,-4.85395 6.25356,-2.8493 11.8039,-12.55071 11.8039,-20.63194 0,-9.12676 -4.59764,-13.37206 -14.48182,-13.37206 -3.42691,0 -6.13146,0.56233 -6.98839,-0.15005 -0.92532,-0.76918 -1.47438,-3.58518 -2.76349,-6.50706 -3.36569,-7.62842 -9.8931,-11.20495 -20.44994,-11.20495 -12.86983,0 -21.08123,7.63541 -21.08123,19.6025 0,5.75973 -0.40829,6.56154 -2.84169,5.58049 -1.56293,-0.63009 -5.46296,-1.51926 -8.66675,-1.9759 -16.123244,-2.29811 -30.0183,19.43024 -18.313291,28.63741 2.353188,1.85103 5.331889,3.28117 6.613151,3.3655 1.73142,0.11399 1.51985,1.03578 -1.030906,4.27855 -4.471295,5.68434 -4.283853,12.15466 0.481823,16.63178 6.813583,6.40101 18.391633,8.30254 27.463423,4.51047 z m -0.34025,-29.69934 c -4.46074,-5.67091 -4.25879,-7.56893 1.40837,-13.23611 6.01704,-6.01704 13.84162,-7.78652 19.12469,-4.32491 7.54234,4.94193 6.80045,13.50537 -1.61458,18.63621 -7.53514,4.59436 -14.78281,4.18246 -18.91848,-1.07519 z m 69.56621,-45.02796 c 10.4101,-5.17283 15.2781,-14.6719 14.63443,-25.87612 l -0.21827,-3.7992 c -0.0683,-1.92282 -0.83983,-2.6005 -2.12559,-3.16206 -1.48075,-0.64671 -5.04335,1.7428 -5.04335,1.7428 -1.13689,0.41814 -3.27698,1.74298 -4.64371,1.1574 -0.94531,-0.40505 -2.0456,-2.33401 -2.43425,-3.25441 -1.3317,-3.153691 -3.05823,-1.997438 -6.1516,-0.0236 -10.01633,6.39145 -17.22606,23.04106 -14.3072,34.67075 1.00724,4.01316 1.54502,4.25714 7.10617,3.22369 3.30906,-0.61493 9.24157,-2.72061 13.18334,-4.6793 z m -25.73408,-23.8227 c 3.59669,-1.92488 4.30744,-10.865917 1.32702,-16.693806 -4.07218,-7.962743 -14.97593,-12.290103 -17.08948,-6.782271 -1.75005,4.560528 1.17854,13.833597 6.16108,19.508377 5.58498,6.36094 5.32802,6.25476 9.60138,3.9677 z"
       id="path847"
       sodipodi:nodetypes="ssssccsssssssccssssssssssssssssssssssssssssssssscssssssssssssss" /><path
       style="fill:#f6f6e1;fill-opacity:1;stroke-width:1.62382"
       d="m 180.69881,270.70851 c -0.87929,-1.11636 -2.30092,-4.18621 -2.93272,-6.82185 -0.63178,-2.63562 -4.20345,-7.8271 -7.93707,-11.53655 -16.99414,-16.88437 -42.73424,-11.07101 -50.04916,10.9797 l -1.55237,4.6796 c -0.36079,1.04182 -1.0305,2.40142 -2.87758,2.3765 l -10.2542,0.38899 C 89.362222,271.37175 81.846667,268.576 78.658083,260.94461 73.903644,249.56564 71.21324,127.61048 74.601655,77.067554 77.569399,32.799342 80.98458,27.540935 106.7678,27.540935 c 13.67344,0 15.25996,0.786624 17.09593,8.476375 1.58859,6.653683 12.1985,16.850239 19.93541,19.15873 15.0805,4.499631 31.50493,-3.748807 38.09976,-19.133901 l 1.56753,-3.656878 c 0.82504,-2.28558 2.55942,-3.519237 5.24766,-3.395654 l 12.46021,0.429174 c 15.17915,0.522827 16.47991,0.840689 20.69633,5.057518 5.48337,5.483947 5.43092,3.257588 2.21771,94.103391 -1.25479,35.4765 -1.85901,79.40149 -1.34271,97.61108 0.87203,30.75669 0.71684,33.47318 -2.18483,38.24459 -1.71794,2.82493 -4.8123,5.84874 -7.10279,6.7196 -6.19585,2.35564 -30.81643,2.02012 -32.7592,-0.44645 z M 126.96276,208.8488 c 2.8739,-1.20131 6.22309,-3.38738 7.44266,-4.85795 2.033,-2.4514 2.61727,-2.33729 7.02585,1.37228 4.87024,4.09804 7.9411,4.85706 16.73794,4.13707 13.0541,-1.06839 22.36134,-14.52435 16.98925,-24.56219 -1.38628,-2.59029 -1.02145,-3.45017 2.05951,-4.85395 6.25356,-2.8493 11.8039,-12.55071 11.8039,-20.63194 0,-9.12676 -4.59764,-13.37206 -14.48182,-13.37206 -3.42691,0 -6.13146,0.56233 -6.98839,-0.15005 -0.92532,-0.76918 -1.47438,-3.58518 -2.76349,-6.50706 -3.36569,-7.62842 -9.8931,-11.20495 -20.44994,-11.20495 -12.86983,0 -21.08123,7.63541 -21.08123,19.6025 0,5.75973 -0.40829,6.56154 -2.84169,5.58049 -1.56293,-0.63009 -5.46296,-1.51926 -8.66675,-1.9759 -16.123244,-2.29811 -30.0183,19.43024 -18.313291,28.63741 2.353188,1.85103 5.331889,3.28117 6.613151,3.3655 1.73142,0.11399 1.51985,1.03578 -1.030906,4.27855 -4.471295,5.68434 -4.283853,12.15466 0.481823,16.63178 6.813583,6.40101 18.391633,8.30254 27.463423,4.51047 z m -0.34025,-29.69934 c -4.46074,-5.67091 -4.25879,-7.56893 1.40837,-13.23611 6.01704,-6.01704 13.84162,-7.78652 19.12469,-4.32491 7.54234,4.94193 6.80045,13.50537 -1.61458,18.63621 -7.53514,4.59436 -14.78281,4.18246 -18.91848,-1.07519 z m 69.56621,-45.02796 c 10.4101,-5.17283 15.2781,-14.6719 14.63443,-25.87612 l -0.21827,-3.7992 c -0.0683,-1.92282 -0.83983,-2.6005 -2.12559,-3.16206 -1.48075,-0.64671 -5.04335,1.7428 -5.04335,1.7428 -1.13689,0.41814 -3.27698,1.74298 -4.64371,1.1574 -0.94531,-0.40505 -2.0456,-2.33401 -2.43425,-3.25441 -1.3317,-3.153691 -3.05823,-1.997438 -6.1516,-0.0236 -10.01633,6.39145 -17.22606,23.04106 -14.3072,34.67075 1.00724,4.01316 1.54502,4.25714 7.10617,3.22369 3.30906,-0.61493 9.24157,-2.72061 13.18334,-4.6793 z m -25.73408,-23.8227 c 3.59669,-1.92488 4.30744,-10.865917 1.32702,-16.693806 -4.07218,-7.962743 -14.97593,-12.290103 -17.08948,-6.782271 -1.75005,4.560528 1.17854,13.833597 6.16108,19.508377 5.58498,6.36094 5.32802,6.25476 9.60138,3.9677 z"
       id="path1684"
       sodipodi:nodetypes="ssssccsssssssccssssssssssssssssssssssssssssssssscssssssssssssss" /></g></svg>
