<?xml version="1.0" encoding="UTF-8" standalone="no"?>
<!-- Created with Inkscape (http://www.inkscape.org/) -->

<svg
   version="1.1"
   id="svg2"
   width="300"
   height="300"
   viewBox="0 0 300 300"
   sodipodi:docname="cape_spell.svg"
   inkscape:version="1.2.2 (732a01da63, 2022-12-09)"
   inkscape:export-filename="cape.png"
   inkscape:export-xdpi="96"
   inkscape:export-ydpi="96"
   xmlns:inkscape="http://www.inkscape.org/namespaces/inkscape"
   xmlns:sodipodi="http://sodipodi.sourceforge.net/DTD/sodipodi-0.dtd"
   xmlns:xlink="http://www.w3.org/1999/xlink"
   xmlns="http://www.w3.org/2000/svg"
   xmlns:svg="http://www.w3.org/2000/svg">
  <defs
     id="defs6">
    <linearGradient
       inkscape:collect="always"
       id="linearGradient82260">
      <stop
         style="stop-color:#5f4987;stop-opacity:1;"
         offset="0"
         id="stop82256" />
      <stop
         style="stop-color:#836baf;stop-opacity:0.53496504;"
         offset="1"
         id="stop82258" />
    </linearGradient>
    <linearGradient
       inkscape:collect="always"
       id="linearGradient56068">
      <stop
         style="stop-color:#cd9896;stop-opacity:1;"
         offset="0"
         id="stop56064" />
      <stop
         style="stop-color:#f9f0d4;stop-opacity:1;"
         offset="1"
         id="stop56066" />
    </linearGradient>
    <linearGradient
       inkscape:collect="always"
       id="linearGradient42318">
      <stop
         style="stop-color:#b6757d;stop-opacity:1;"
         offset="0"
         id="stop42314" />
      <stop
         style="stop-color:#e8c8b7;stop-opacity:1;"
         offset="1"
         id="stop42316" />
    </linearGradient>
    <linearGradient
       inkscape:collect="always"
       xlink:href="#linearGradient42318"
       id="linearGradient42320"
       x1="149.16794"
       y1="79.811707"
       x2="149.16794"
       y2="197.30998"
       gradientUnits="userSpaceOnUse" />
    <filter
       inkscape:collect="always"
       style="color-interpolation-filters:sRGB"
       id="filter44639"
       x="-0.041882638"
       y="-0.07059218"
       width="1.083273"
       height="1.1412337">
      <feGaussianBlur
         inkscape:collect="always"
         stdDeviation="1.9494"
         id="feGaussianBlur44641" />
    </filter>
    <linearGradient
       inkscape:collect="always"
       xlink:href="#linearGradient56068"
       id="linearGradient55336"
       gradientUnits="userSpaceOnUse"
       x1="149.16794"
       y1="79.811707"
       x2="149.16794"
       y2="197.30998"
       gradientTransform="translate(7.1281974e-4)" />
    <filter
       inkscape:collect="always"
       style="color-interpolation-filters:sRGB"
       id="filter79996"
       x="-0.0076904767"
       y="-0.013000375"
       width="1.0153833"
       height="1.0259999">
      <feGaussianBlur
         inkscape:collect="always"
         stdDeviation="0.67693861"
         id="feGaussianBlur79998" />
    </filter>
    <linearGradient
       inkscape:collect="always"
       xlink:href="#linearGradient82260"
       id="linearGradient82262"
       x1="149.47704"
       y1="79.38308"
       x2="149.47704"
       y2="201.53896"
       gradientUnits="userSpaceOnUse" />
  </defs>
  <sodipodi:namedview
     id="namedview4"
     pagecolor="#ffffff"
     bordercolor="#000000"
     borderopacity="0.25"
     inkscape:showpageshadow="2"
     inkscape:pageopacity="0.0"
     inkscape:pagecheckerboard="0"
     inkscape:deskcolor="#d1d1d1"
     showgrid="false"
     inkscape:zoom="0.83499998"
     inkscape:cx="-132.33533"
     inkscape:cy="-94.61078"
     inkscape:window-width="1920"
     inkscape:window-height="1009"
     inkscape:window-x="4472"
     inkscape:window-y="352"
     inkscape:window-maximized="1"
     inkscape:current-layer="g8" />
  <g
     inkscape:groupmode="layer"
     inkscape:label="Image"
     id="g8">
    <rect
       style="display:inline;fill:#292c2b;fill-opacity:1;stroke:none;stroke-width:137.245;stop-color:#000000"
       id="rect3034"
       width="300"
       height="300"
       x="0"
       y="0"
       ry="45"
       rx="45" />
    <path
       id="path847"
       style="display:none;fill:none;fill-opacity:0.47093;stroke:#5f4987;stroke-width:12.3;stroke-dasharray:none;stroke-opacity:1;filter:url(#filter44639)"
       inkscape:label="stroke"
       d="m 175.98047,65.080078 c -0.35925,0.03469 -0.73557,0.147692 -1.13867,0.371094 -1.43621,0.795961 -3.70561,1.845637 -7.35352,3.611328 -8.08335,3.91257 -9.56776,4.290453 -18.39062,4.677734 -8.47144,0.371857 -10.74073,0.07598 -19.34571,-2.521484 l -8.72461,-2.632812 c 0,-10e-7 -0.75526,-0.178611 -0.95898,-0.150391 -0.41713,0.05778 -1.1543,0.511719 -1.1543,0.511719 L 97.751953,81.982422 C 85.513764,89.521092 65.824988,101.64441 54,108.92188 c -11.824988,7.27746 -22.607903,14.13224 -23.960938,15.23437 -2.312608,1.88375 -2.368992,2.16424 -0.964843,4.67383 0.821524,1.46829 3.202274,3.56992 5.291015,4.66992 1.742897,0.91787 3.554985,1.41069 4.558594,2.30859 2.470616,2.2104 1.36467,4.32253 2.097656,8.82618 1.185061,7.2813 2.93653,9.80546 9.111328,13.13671 7.826342,4.22224 8.64082,5.15306 12.341797,14.11524 1.904773,4.61254 4.151817,9.14736 4.994141,10.07812 0.838484,0.90767 1.70369,1.67495 2.580078,2.38477 -0.663533,1.01194 -0.864165,2.18315 -0.49414,3.22851 0.820163,2.31708 3.799794,4.78391 6.966796,2.41602 0.439935,-0.32893 0.826246,-0.82641 1.164063,-1.37695 2.352494,0.92166 4.731057,1.6876 7.085937,2.49804 5.648546,1.94396 9.455615,1.25061 17.728516,-1.11523 3.8465,-1.1 8.15002,-2 9.56445,-2 6.01245,0 12.60788,3.08845 21.26758,9.96094 5.78406,4.51711 9.70814,7.45974 13.19336,8.26562 1.93434,0.44727 5.66931,1.71903 9.68359,2.25391 4.91256,0.65457 10.31836,0.93413 13.7754,0.75976 4.97961,-0.0866 9.08415,-0.56249 11.07226,-0.85742 5.29284,-0.78518 5.88824,-1.25855 12.8125,-5.02734 4.7472,-2.58384 8.2521,-5.02322 11.31836,-6.06836 4.41255,-1.45276 7.55888,-2.28883 10.70508,-3.14649 1.35879,1.48383 3.94271,3.37262 5.66406,2.71485 1.05303,-0.4024 2.12345,-3.00382 1.96094,-4.98633 1.68414,-0.54482 3.40469,-1.1087 5.54687,-1.89844 7.71349,-3.6128 10.80956,-8.1628 14.38282,-21.13672 1.39488,-5.06458 2.24409,-6.21285 8,-10.79296 6.8501,-5.45079 10.57159,-9.7415 10.67578,-13.52344 0.0447,-5.18588 -0.0129,-8.19529 5.63672,-12.55078 3.05029,-2.76048 4.58237,-5.8522 3.9707,-8.71094 -0.50904,-2.3791 -2.60135,-4.56495 -5.63281,-6.56641 -10.85703,-7.16809 -80.41992,-47.606675 -87.20704,-50.695309 -0.92138,-0.419293 -1.83241,-1.018122 -2.91015,-0.914063 z M 277,113.21289 c -2.46218,0.0543 -4.64189,2.71772 -2.9668,5.84766 1.30642,2.44106 4.73955,2.27347 6.35938,-0.31055 0.79601,-1.26984 0.79601,-2.23016 0,-3.5 -0.91995,-1.46754 -2.19012,-2.06362 -3.39258,-2.03711 z m -248.96875,1.29297 c -0.733693,0.007 -1.146864,0.11652 -1.667969,0.70312 -0.845505,0.95178 -1.159118,2.23392 -0.826172,3.10157 0.530887,1.39062 2.992425,1.33728 4.503907,0.13867 0.913077,-1.09344 0.548614,-1.77273 -0.376954,-3.21289 -0.436217,-0.50171 -0.871033,-0.73847 -1.632812,-0.73047 z m 251.74609,11.58789 c -4.07587,0 -4.85224,1.18319 -4.77734,2.25977 0.0898,1.29154 1.14445,3.58862 2.54297,5.09765 2.0299,2.19029 3.08882,2.60978 5.25,2.07617 4.23892,-1.04663 4.76589,-2.13424 2.91406,-6.01757 -1.54893,-3.24813 -1.75047,-3.41602 -5.92969,-3.41602 z m -13.03515,10.64063 c -1.2739,0.0364 -2.88263,0.74006 -2.96094,1.88867 -0.0426,0.62507 0.30627,1.40765 0.875,1.83789 0.72863,0.55122 1.79505,0.66743 2.59766,0.67773 1.07433,0.0138 2.56735,-0.75348 2.65625,-1.82422 0.10151,-1.22213 -1.43377,-2.38391 -2.64844,-2.55273 -0.1629,-0.0226 -0.33755,-0.0325 -0.51953,-0.0273 z m -234.939456,1.41601 c -0.219826,0.005 -0.448808,0.021 -0.685546,0.0488 -2.917031,0.34328 -5.79062,4.60576 -4.816407,7.14453 C 26.720675,146.43797 28.09553,147 30.347656,147 33.19403,147 33.962458,146.50485 35,144 c 1.464146,-3.53477 0.100148,-5.93118 -3.197266,-5.84961 z m 230.648436,19.08203 c -1.89233,-0.0468 -2.50272,1.27297 -1.91406,4.01758 0.38348,1.78796 0.89589,3.5875 1.13867,4 0.55258,0.93885 4.54971,1.07776 5.66602,0.78906 0.80569,-0.20837 1.25638,-1.05398 1.60547,-1.47461 0.50927,-0.61364 0.45037,-1.45928 0.33398,-2.24414 -0.12431,-0.83826 -0.44156,-2.00045 -0.85742,-2.50195 -0.55359,-0.66759 -1.94278,-1.44489 -3.15625,-1.90625 -1.13859,-0.43289 -2.07593,-0.66136 -2.81641,-0.67969 z M 43.554688,160 c -5.069065,0 -6.118774,0.82709 -6.566407,6.09961 -0.267254,3.14793 -0.115257,4.45767 1.523438,4.98437 1.344467,0.43213 7.142621,0.28208 7.865234,-0.24609 1.133098,-0.8282 1.095697,-1.82843 1.544922,-3.87109 C 49.203913,161.13721 48.559704,160 43.554688,160 Z m 206.216792,7.20703 c -1.47473,-0.004 -2.91704,1.74932 -2.14648,2.99609 0.27117,0.43876 1.36605,0.79688 2.43359,0.79688 2.33979,0 2.59945,-2.81066 0.33985,-3.67773 -0.20565,-0.0789 -0.41628,-0.11464 -0.62696,-0.11524 z m -12.67773,19.00781 c -0.93296,0.0439 -1.27318,0.65152 -1.66016,2.19336 -0.35946,1.43223 -0.37148,4.11414 -0.0254,5.95899 0.49913,2.66059 1.29867,3.56802 3.86133,4.39062 4.98241,1.59932 5.70284,1.44475 6.81055,-1.46875 1.97153,-5.18549 -0.73909,-9.20896 -7.28711,-10.81836 -0.7284,-0.17903 -1.27515,-0.27581 -1.69922,-0.25586 z m -131.60156,4.20118 c -0.27471,0.003 -0.54893,0.0524 -0.81446,0.15429 -1.67177,0.64153 -2.2785,3.4969 -1.01171,4.76367 1.2462,1.24622 4.39416,0.67175 5.00195,-0.9121 0.70212,-1.82972 -1.25286,-4.03024 -3.17578,-4.00586 z m 18.24804,6.16406 c -0.70519,-0.007 -1.49854,0.33548 -2.53711,1.10742 -1.31893,0.98033 -2.76647,2.29822 -2.98632,3.71289 -0.091,0.5854 -0.1006,2.2823 0.35742,3.75391 0.34376,1.10448 0.86804,2.15561 1.60547,2.70117 0.97419,0.7207 1.40173,1.01746 2.87304,1.19922 1.68126,-0.004 4.15879,-2.42826 4.84571,-3.65625 0.48517,-0.86732 0.12564,-2.42624 -0.0996,-3.62696 -0.22503,-1.19951 -0.709,-2.24726 -1.12891,-2.99023 -0.4891,-0.86538 -1.14524,-1.48083 -1.7207,-1.82813 -0.39545,-0.23864 -0.78586,-0.36907 -1.20899,-0.37304 z m 46.84375,13.10937 c -0.086,0.003 -0.1689,0.0132 -0.24804,0.0352 -1.20655,0.33427 -2.76005,4.45877 -2.47656,5.30469 0.29742,0.8875 3.24157,3.70555 4.65234,3.55468 0.73713,-0.0788 2.92285,-2.68018 2.89453,-4.16992 -0.0192,-1.01165 -3.07392,-4.77873 -4.82227,-4.72461 z M 30.058291,115.87837 c -0.733693,0.007 -1.146864,0.11652 -1.667969,0.70312 -0.845505,0.95178 -1.159118,2.23392 -0.826172,3.10157 0.530887,1.39062 2.112934,2.38518 3.624416,1.18657 0.913077,-1.09344 1.428105,-2.82063 0.502537,-4.26079 -0.436217,-0.50171 -0.871033,-0.73847 -1.632812,-0.73047 z"
       sodipodi:nodetypes="ssssccsccssssssssccsscssscsscssccsccssccssssssssscsccccssssssssssssssccssscssssssssssssssscssscsssssssscssscssssscssssssscssssscscccc" />
    <path
       id="path43791"
       style="display:inline;fill:url(#linearGradient42320);fill-opacity:1"
       inkscape:label="cape_inner"
       d="m 175.0625,68.326172 c -2.65831,1.51202 -5.29673,3.068697 -8.09877,4.307884 -3.77116,1.816683 -7.74427,3.348313 -11.94029,3.766335 -4.82014,0.464065 -9.70632,0.760559 -14.52667,0.145606 -4.26762,-0.612599 -8.41298,-1.853538 -12.5489,-3.03629 -2.42525,-0.739834 -4.85136,-1.476851 -7.27599,-2.218691 -15.71499,9.779862 -31.470502,19.494123 -47.238369,29.188424 -13.232257,8.19204 -26.574669,16.21127 -39.615152,24.70611 -1.3652,0.96558 -1.462867,3.1465 -0.193359,4.23242 1.357189,1.28502 3.163635,1.84654 4.861328,2.51367 2.256725,1.02385 4.034856,3.01038 4.739,5.39411 0.777214,2.40704 0.292697,4.99593 0.867,7.44485 0.49505,2.8462 1.218054,5.95451 3.592235,7.84967 2.031367,1.70547 4.493041,2.77098 6.708279,4.07886 2.905773,1.6071 5.642513,3.7053 7.355635,6.60408 1.76204,2.88684 2.884824,6.09602 4.237851,9.18117 0.382933,-0.18252 1.045066,-1.46239 1.169357,-0.62836 0.403183,1.27586 0.806366,2.55172 1.209549,3.82757 -0.385915,-0.0713 -1.41707,-0.72417 -0.93113,-0.002 0.611188,1.36126 1.464754,2.88636 2.198708,4.01542 0.386693,0.81946 1.22938,1.36187 1.873047,1.99609 3.736487,3.27859 8.617884,4.7017 13.216492,6.24076 2.635402,0.96622 5.452028,1.70371 8.276548,1.27512 4.696362,-0.65906 9.138821,-2.44163 13.776651,-3.38258 2.32681,-0.53695 4.70751,-1.04482 7.10771,-0.74686 6.2867,0.55557 11.95092,3.75584 17.02,7.31503 7.61246,7.1654 8.29377,5.99075 10.72174,7.94111 2.07368,1.39597 4.23369,2.82046 6.74206,3.25861 3.4648,0.96984 6.96117,1.90401 10.56213,2.18339 3.66536,0.36826 7.3557,0.60398 11.03956,0.46034 3.66015,-0.0741 7.47125,-0.34444 11.1505,-0.89985 2.25435,-0.27826 4.51499,-0.78658 6.48556,-1.96319 3.81498,-2.05323 7.5805,-4.1949 11.29947,-6.41644 2.21216,-1.31619 4.67688,-2.40099 7.08791,-3.08575 5.5717,-1.8029 11.36195,-3.1066 16.97224,-4.96554 2.52475,-0.87077 5.1374,-1.58777 7.41593,-3.02589 3.18193,-1.78579 5.42276,-4.84509 6.85745,-8.14076 1.78987,-3.90194 2.78625,-8.09292 4.07522,-12.17 0.87546,-2.75798 2.63571,-5.14778 4.81791,-7.01964 3.9059,-3.39435 8.28839,-6.35652 11.4257,-10.5395 0.94758,-1.30632 1.75566,-2.85031 1.57566,-4.51521 -0.12735,-6.48192 2.64179,-10.4347 7.07668,-14.18596 1.14767,-1.14436 2.23205,-2.47891 2.58204,-4.09961 -0.83618,0.33674 -1.02321,0.14678 -0.50999,-0.61138 0.23716,-0.50964 0.64924,-1.05249 0.17005,-1.55284 -1.86864,-2.95141 -5.12611,-4.50961 -7.96882,-6.34492 -19.21087,-11.72656 -38.749,-22.906189 -58.14228,-34.322087 -8.06131,-4.723339 -16.17315,-9.370743 -24.4806,-13.649244 -0.63735,-0.295619 -1.27472,-0.591202 -1.91211,-0.886719 -0.29493,0.160807 -0.58985,0.321615 -0.88477,0.482422 z"
       sodipodi:nodetypes="ccccccccccccccccccccccccccccccccccccccccccccccccccc" />
    <path
       id="path79993"
       style="display:none;fill:none;fill-opacity:1;stroke:url(#linearGradient82262);stroke-width:0.5;stroke-dasharray:none;stroke-opacity:1;filter:url(#filter79996)"
       inkscape:label="cape_trim_stroke"
       d="m 175.98118,65.080078 c -0.35925,0.03469 -0.73557,0.147692 -1.13867,0.371094 -1.43621,0.795961 -3.70561,1.845637 -7.35352,3.611328 -8.08335,3.91257 -9.56776,4.290453 -18.39062,4.677734 -8.47144,0.371857 -10.74073,0.07598 -19.34571,-2.521484 l -8.72461,-2.632812 c 0,-10e-7 -0.75526,-0.178611 -0.95898,-0.150391 -0.41713,0.05778 -1.1543,0.511719 -1.1543,0.511719 L 97.752666,81.982422 c -12.238189,7.53867 -31.926965,19.661988 -43.751953,26.939458 -11.824988,7.27746 -22.607903,14.13224 -23.960938,15.23437 -2.312608,1.88375 -2.368992,2.16424 -0.964843,4.67383 0.821524,1.46829 3.202274,3.56992 5.291015,4.66992 1.742897,0.91787 3.554985,1.41069 4.558594,2.30859 2.470616,2.2104 1.36467,4.32253 2.097656,8.82618 1.185061,7.2813 2.93653,9.80546 9.111328,13.13671 7.826342,4.22224 8.64082,5.15306 12.341797,14.11524 1.904773,4.61254 4.151817,9.14736 4.994141,10.07812 5.278279,5.71381 11.389249,7.11525 17.302734,9.15039 5.648546,1.94396 9.455615,1.25061 17.728513,-1.11523 3.8465,-1.1 8.15002,-2 9.56445,-2 6.01245,0 12.60788,3.08845 21.26758,9.96094 5.78406,4.51711 9.70814,7.45974 13.19336,8.26562 1.93434,0.44727 5.66931,1.71903 9.68359,2.25391 4.91256,0.65457 10.31836,0.93413 13.7754,0.75976 4.97961,-0.0866 9.08415,-0.56249 11.07226,-0.85742 5.29284,-0.78518 5.88824,-1.25855 12.8125,-5.02734 4.7472,-2.58384 8.2521,-5.02322 11.31836,-6.06836 9.64679,-3.17605 13.34387,-3.4333 23.87695,-7.31641 7.71349,-3.6128 10.80956,-8.1628 14.38282,-21.13672 1.39488,-5.06458 2.24409,-6.21285 8,-10.79296 6.8501,-5.45079 10.57159,-9.7415 10.67578,-13.52344 0.0447,-5.18588 -0.0129,-8.19529 5.63672,-12.55078 3.05029,-2.76048 4.58237,-5.8522 3.9707,-8.71094 -0.50904,-2.3791 -2.60135,-4.56495 -5.63281,-6.56641 -10.85703,-7.16809 -80.41992,-47.606675 -87.20704,-50.695309 -0.92138,-0.419293 -1.83241,-1.018122 -2.91015,-0.914063 z m 0.0391,5.001953 c 0.13515,0.05545 0.80377,0.363891 0.99805,0.462891 0.8837,0.402145 7.23338,3.763775 14.85547,8.08789 7.62208,4.324115 16.7957,9.812939 26.58203,15.501954 19.57266,11.378024 39.94984,23.465814 44.88867,26.726564 2.51738,1.66204 3.44445,3.19071 3.49805,3.4414 0.0999,0.46709 -0.14679,1.88395 -2.4375,3.95704 l 0.30273,-0.25196 c -3.2723,2.52275 -5.49865,5.23661 -6.57422,8.23633 -1.06281,2.96415 -0.98841,5.59866 -1.00781,8.13672 -0.008,0.30485 -0.28355,1.37726 -1.69922,3.12891 -1.41567,1.75162 -3.82172,4.01706 -7.0918,6.61914 -2.94349,2.3422 -4.92652,3.97441 -6.53906,6.15039 -1.61253,2.17595 -2.42724,4.5371 -3.16797,7.22656 -1.7282,6.27479 -3.29271,10.15363 -4.95312,12.59375 -1.63002,2.39546 -3.34485,3.72151 -6.58399,5.25781 -10.00548,3.66677 -13.63704,3.9434 -23.46679,7.17969 -0.0163,0.006 -0.0326,0.0116 -0.0488,0.0176 -4.21374,1.43626 -7.6015,3.96205 -12.0957,6.4082 -6.97297,3.79531 -6.09813,3.72425 -11.15625,4.47461 -1.77229,0.26291 -5.71684,0.72083 -10.42579,0.80273 -0.0547,0.001 -0.10936,0.003 -0.16406,0.006 -2.92661,0.14762 -8.24198,-0.10689 -12.86328,-0.72265 -3.38825,-0.45147 -6.63199,-1.5703 -9.2168,-2.16797 -1.68492,-0.38961 -5.49254,-2.84568 -11.24218,-7.33594 l 0.0293,0.0254 C 127.38351,186.85742 119.78987,183 112.06516,183 c -1.76771,0 -3.02772,0.30298 -4.89453,0.69336 -1.86681,0.39038 -3.99432,0.91358 -6.04492,1.5 -8.131304,2.32535 -10.077613,2.79331 -14.726559,1.19336 -6.233999,-2.14546 -10.98613,-3.21473 -15.228516,-7.78906 0.782607,0.86213 -0.481001,-0.81797 -1.320313,-2.51172 -0.843184,-1.70158 -1.84563,-3.90798 -2.753906,-6.10742 -1.876567,-4.54426 -3.152484,-7.55639 -5.480469,-10.21875 -2.327983,-2.66239 -5.12487,-4.23907 -9.109375,-6.38868 -2.796821,-1.50884 -3.966644,-2.49222 -4.691406,-3.53711 -0.724762,-1.04487 -1.312914,-2.65636 -1.857422,-6.00195 -0.282534,-1.73596 -0.176457,-2.96896 -0.353515,-4.92187 -0.177061,-1.95294 -1.244316,-4.94807 -3.345704,-6.82813 -2.554956,-2.28585 -4.430973,-2.40996 -5.5625,-3.00586 -0.576279,-0.30349 -1.218978,-0.66004 -1.746093,-1.15625 -0.270603,-0.28458 -0.375634,-0.79331 0.107422,-1.15625 0.09538,-0.0637 0.215392,-0.14315 0.380859,-0.25195 1.350709,-0.88817 3.180313,-2.06577 5.337891,-3.4375 4.315153,-2.74346 9.952251,-6.26754 15.845703,-9.89453 11.826058,-7.27815 31.514908,-19.400286 43.753903,-26.939456 l 20.58008,-12.771484 7.70703,2.349609 c 8.88692,2.450262 12.23277,3.370855 20.85937,2.992188 8.94066,-0.392452 11.95875,-1.285903 20.14454,-5.248047 3.13884,-1.519297 4.70573,-2.61461 6.35351,-3.480469 z" />
    <path
       id="path79990"
       style="display:inline;fill:url(#linearGradient55336);fill-opacity:1"
       inkscape:label="cape_trim"
       d="m 175.98118,65.080078 c -0.35925,0.03469 -0.73557,0.147692 -1.13867,0.371094 -1.43621,0.795961 -3.70561,1.845637 -7.35352,3.611328 -8.08335,3.91257 -9.56776,4.290453 -18.39062,4.677734 -8.47144,0.371857 -10.74073,0.07598 -19.34571,-2.521484 l -8.72461,-2.632812 c 0,-10e-7 -0.75526,-0.178611 -0.95898,-0.150391 -0.41713,0.05778 -1.1543,0.511719 -1.1543,0.511719 L 97.752666,81.982422 c -12.238189,7.53867 -31.926965,19.661988 -43.751953,26.939458 -11.824988,7.27746 -22.607903,14.13224 -23.960938,15.23437 -2.312608,1.88375 -2.368992,2.16424 -0.964843,4.67383 0.821524,1.46829 3.202274,3.56992 5.291015,4.66992 1.742897,0.91787 3.554985,1.41069 4.558594,2.30859 2.470616,2.2104 1.36467,4.32253 2.097656,8.82618 1.185061,7.2813 2.93653,9.80546 9.111328,13.13671 7.826342,4.22224 8.64082,5.15306 12.341797,14.11524 1.904773,4.61254 4.151817,9.14736 4.994141,10.07812 5.278279,5.71381 11.389249,7.11525 17.302734,9.15039 5.648546,1.94396 9.455615,1.25061 17.728513,-1.11523 3.8465,-1.1 8.15002,-2 9.56445,-2 6.01245,0 12.60788,3.08845 21.26758,9.96094 5.78406,4.51711 9.70814,7.45974 13.19336,8.26562 1.93434,0.44727 5.66931,1.71903 9.68359,2.25391 4.91256,0.65457 10.31836,0.93413 13.7754,0.75976 4.97961,-0.0866 9.08415,-0.56249 11.07226,-0.85742 5.29284,-0.78518 5.88824,-1.25855 12.8125,-5.02734 4.7472,-2.58384 8.2521,-5.02322 11.31836,-6.06836 9.64679,-3.17605 13.34387,-3.4333 23.87695,-7.31641 7.71349,-3.6128 10.80956,-8.1628 14.38282,-21.13672 1.39488,-5.06458 2.24409,-6.21285 8,-10.79296 6.8501,-5.45079 10.57159,-9.7415 10.67578,-13.52344 0.0447,-5.18588 -0.0129,-8.19529 5.63672,-12.55078 3.05029,-2.76048 4.58237,-5.8522 3.9707,-8.71094 -0.50904,-2.3791 -2.60135,-4.56495 -5.63281,-6.56641 -10.85703,-7.16809 -80.41992,-47.606675 -87.20704,-50.695309 -0.92138,-0.419293 -1.83241,-1.018122 -2.91015,-0.914063 z m 0.0391,5.001953 c 0.13515,0.05545 0.80377,0.363891 0.99805,0.462891 0.8837,0.402145 7.23338,3.763775 14.85547,8.08789 7.62208,4.324115 16.7957,9.812939 26.58203,15.501954 19.57266,11.378024 39.94984,23.465814 44.88867,26.726564 2.51738,1.66204 3.44445,3.19071 3.49805,3.4414 0.0999,0.46709 -0.14679,1.88395 -2.4375,3.95704 l 0.30273,-0.25196 c -3.2723,2.52275 -5.49865,5.23661 -6.57422,8.23633 -1.06281,2.96415 -0.98841,5.59866 -1.00781,8.13672 -0.008,0.30485 -0.28355,1.37726 -1.69922,3.12891 -1.41567,1.75162 -3.82172,4.01706 -7.0918,6.61914 -2.94349,2.3422 -4.92652,3.97441 -6.53906,6.15039 -1.61253,2.17595 -2.42724,4.5371 -3.16797,7.22656 -1.7282,6.27479 -3.29271,10.15363 -4.95312,12.59375 -1.63002,2.39546 -3.34485,3.72151 -6.58399,5.25781 -10.00548,3.66677 -13.63704,3.9434 -23.46679,7.17969 -0.0163,0.006 -0.0326,0.0116 -0.0488,0.0176 -4.21374,1.43626 -7.6015,3.96205 -12.0957,6.4082 -6.97297,3.79531 -6.09813,3.72425 -11.15625,4.47461 -1.77229,0.26291 -5.71684,0.72083 -10.42579,0.80273 -0.0547,0.001 -0.10936,0.003 -0.16406,0.006 -2.92661,0.14762 -8.24198,-0.10689 -12.86328,-0.72265 -3.38825,-0.45147 -6.63199,-1.5703 -9.2168,-2.16797 -1.68492,-0.38961 -5.49254,-2.84568 -11.24218,-7.33594 l 0.0293,0.0254 C 127.38351,186.85742 119.78987,183 112.06516,183 c -1.76771,0 -3.02772,0.30298 -4.89453,0.69336 -1.86681,0.39038 -3.99432,0.91358 -6.04492,1.5 -8.131304,2.32535 -10.077613,2.79331 -14.726559,1.19336 -6.233999,-2.14546 -10.98613,-3.21473 -15.228516,-7.78906 0.782607,0.86213 -0.481001,-0.81797 -1.320313,-2.51172 -0.843184,-1.70158 -1.84563,-3.90798 -2.753906,-6.10742 -1.876567,-4.54426 -3.152484,-7.55639 -5.480469,-10.21875 -2.327983,-2.66239 -5.12487,-4.23907 -9.109375,-6.38868 -2.796821,-1.50884 -3.966644,-2.49222 -4.691406,-3.53711 -0.724762,-1.04487 -1.312914,-2.65636 -1.857422,-6.00195 -0.282534,-1.73596 -0.176457,-2.96896 -0.353515,-4.92187 -0.177061,-1.95294 -1.244316,-4.94807 -3.345704,-6.82813 -2.554956,-2.28585 -4.430973,-2.40996 -5.5625,-3.00586 -0.576279,-0.30349 -1.218978,-0.66004 -1.746093,-1.15625 -0.270603,-0.28458 -0.375634,-0.79331 0.107422,-1.15625 0.09538,-0.0637 0.215392,-0.14315 0.380859,-0.25195 1.350709,-0.88817 3.180313,-2.06577 5.337891,-3.4375 4.315153,-2.74346 9.952251,-6.26754 15.845703,-9.89453 11.826058,-7.27815 31.514908,-19.400286 43.753903,-26.939456 l 20.58008,-12.771484 7.70703,2.349609 c 8.88692,2.450262 12.23277,3.370855 20.85937,2.992188 8.94066,-0.392452 11.95875,-1.285903 20.14454,-5.248047 3.13884,-1.519297 4.70573,-2.61461 6.35351,-3.480469 z" />
    <path
       id="path43793"
       style="display:inline;opacity:1;fill:#f9f0d4;fill-opacity:1;stroke:none;stroke-width:12.3"
       inkscape:label="dots_overlap"
       d="m 54.074219,133.89844 c -1.347924,-0.004 -2.692221,0.42303 -3.455078,1.29101 -1.315315,1.49658 -0.747372,4.63363 0.767578,5.92774 1.429198,1.22087 4.266189,1.12817 5.636719,-0.15821 1.408032,-1.32157 1.830917,-4.34302 0.529296,-5.76953 -0.778895,-0.85362 -2.130591,-1.28742 -3.478515,-1.29101 z m 194.779301,0.91211 c -0.71814,1.1e-4 -1.39774,0.20735 -1.6504,0.54297 -0.7065,0.93849 -0.12625,3.19713 1,3.53125 0.58506,0.17357 1.63973,-0.0107 2.26563,-0.45899 0.80232,-0.57469 0.90464,-1.76071 0.40625,-2.69922 -0.34472,-0.64914 -1.20761,-0.91614 -2.02148,-0.91601 z M 53.267578,149.06641 c -0.942607,0.0136 -1.914161,0.3633 -2.453125,0.98828 -0.720508,0.8355 -0.62993,2.70137 0.199219,3.30273 1.086756,0.78819 3.224056,0.86706 4.33789,-0.45703 0.653046,-0.77631 0.659116,-2.51931 -0.152343,-3.22851 -0.483308,-0.42242 -1.198502,-0.61606 -1.931641,-0.60547 z m 176.660152,17.41992 c -0.25562,0.007 -0.49742,0.0542 -0.71484,0.15039 -1.36272,0.60278 -1.58686,3.46267 -0.53906,4.4375 0.70901,0.65963 2.0037,0.90099 3.15234,0.57226 1.27148,-0.36388 1.88928,-0.98568 2.04102,-1.70898 0.32593,-1.55361 -2.15009,-3.50321 -3.93946,-3.45117 z m -129.5957,11.92773 c -0.870503,0.0908 -5.900244,4.191 -6.01953,5.25782 -0.161684,1.44598 1.389278,5.80521 2.783203,6.125 1.565205,0.35906 6.222327,-2.40046 6.404297,-4.5254 0.0759,-0.8858 -2.0597,-6.31058 -3.0293,-6.82421 -0.0236,-0.0125 -0.0462,-0.0228 -0.0684,-0.0293 -0.0191,-0.006 -0.0422,-0.007 -0.0703,-0.004 z m -26.226561,3.64453 c -0.420769,-0.004 -0.838611,0.0558 -1.236328,0.18946 -2.729477,0.91721 -4.012562,3.35783 -3.314453,5.33007 0.820164,2.31708 3.79979,4.78391 6.966796,2.41602 1.325725,-0.99121 2.444678,-3.26613 1.808594,-5.15234 -0.522698,-1.54999 -2.401279,-2.76462 -4.224609,-2.78321 z m 62.734371,3.31055 c -0.21191,-0.004 -0.38736,0.0305 -0.5,0.10938 -0.54807,0 -1.04569,1.232 -1.05664,2.08593 -0.0113,0.87964 0.48166,1.7638 1.06641,1.99024 0.78704,0.30478 2.93221,-1.39442 2.96484,-2.44727 0.0305,-0.98304 -1.55633,-1.72177 -2.47461,-1.73828 z m 81.00196,2.24609 c -0.51281,-0.0105 -0.9537,0.0822 -1.26172,0.29688 -1.18506,0.82595 -1.894,4.73449 -1.25391,5.61328 1.08303,1.48689 4.26844,4.07982 6.23047,3.33008 1.2825,-0.49008 2.62174,-4.25759 1.68359,-6.17383 -0.82609,-1.68739 -3.56697,-3.02878 -5.39843,-3.06641 z m -29.05664,5.45899 c -0.8523,0.0237 -1.79882,0.48404 -2.38868,0.99805 -0.90232,0.83738 -1.03807,2.55283 -0.4707,3.63476 0.45348,0.86476 1.70632,1.7291 2.60352,1.34375 1.74299,-0.74861 2.37352,-4.6019 1.59179,-5.46484 -0.34651,-0.3825 -0.82456,-0.52594 -1.33593,-0.51172 z" />
    <path
       id="path43795"
       style="display:inline;fill:#f9f0d4;fill-opacity:1"
       inkscape:label="dots"
       d="m 277,113.21289 c -2.46218,0.0543 -4.64189,2.71772 -2.9668,5.84766 1.30642,2.44107 4.73955,2.27347 6.35938,-0.31055 0.79601,-1.26984 0.79601,-2.23016 0,-3.5 -0.91995,-1.46754 -2.19012,-2.06362 -3.39258,-2.03711 z m -248.96875,1.29297 c -0.733694,0.007 -1.146864,0.11652 -1.667969,0.70312 -0.845506,0.95178 -1.159119,2.23392 -0.826172,3.10157 0.530887,1.39062 2.992424,1.33728 4.503907,0.13867 0.913078,-1.09344 0.548614,-1.77273 -0.376954,-3.21289 -0.436218,-0.50171 -0.871032,-0.73847 -1.632812,-0.73047 z m 251.74609,11.58789 c -4.07588,0 -4.85224,1.18319 -4.77734,2.25977 0.0898,1.29155 1.14445,3.58862 2.54297,5.09765 2.0299,2.19029 3.08882,2.60978 5.25,2.07617 4.23893,-1.04663 4.76589,-2.13423 2.91406,-6.01757 -1.54893,-3.24813 -1.75047,-3.41602 -5.92969,-3.41602 z m -13.03515,10.64063 c -1.2739,0.0364 -2.88263,0.74006 -2.96094,1.88867 -0.0426,0.62507 0.30627,1.40765 0.875,1.83789 0.72863,0.55122 1.79505,0.66743 2.59766,0.67773 1.07433,0.0138 2.56735,-0.75348 2.65625,-1.82422 0.10151,-1.22213 -1.43377,-2.38391 -2.64844,-2.55273 -0.1629,-0.0226 -0.33755,-0.0325 -0.51953,-0.0273 z m -234.939456,1.41601 c -0.219827,0.005 -0.448807,0.021 -0.685546,0.0488 -2.917033,0.34328 -5.790621,4.60576 -4.816407,7.14453 0.419894,1.09422 1.794746,1.65625 4.046875,1.65625 2.846377,0 3.614801,-0.49515 4.652344,-3 1.464147,-3.53477 0.100151,-5.93118 -3.197266,-5.84961 z m 230.648436,19.08203 c -1.89233,-0.0468 -2.50272,1.27297 -1.91406,4.01758 0.38348,1.78796 0.89589,3.5875 1.13867,4 0.55258,0.93885 4.54971,1.07776 5.66602,0.78906 0.80569,-0.20837 1.25638,-1.05398 1.60547,-1.47461 0.50927,-0.61364 0.45037,-1.45928 0.33398,-2.24414 -0.12431,-0.83826 -0.44156,-2.00045 -0.85742,-2.50195 -0.55359,-0.66759 -1.94278,-1.44489 -3.15625,-1.90625 -1.13859,-0.43289 -2.07593,-0.66136 -2.81641,-0.67969 z M 43.554688,160 c -5.06907,0 -6.118774,0.82709 -6.566407,6.09961 -0.267255,3.14793 -0.115258,4.45767 1.523438,4.98437 1.344469,0.43213 7.14262,0.28208 7.865234,-0.24609 1.133099,-0.8282 1.095697,-1.82842 1.544922,-3.87109 C 49.203914,161.13721 48.55971,160 43.554688,160 Z m 206.216792,7.20703 c -1.47474,-0.004 -2.91704,1.74931 -2.14648,2.99609 0.27117,0.43876 1.36605,0.79688 2.43359,0.79688 2.33979,0 2.59945,-2.81065 0.33985,-3.67773 -0.20565,-0.0789 -0.41628,-0.11464 -0.62696,-0.11524 z m -12.67773,19.00781 c -0.93296,0.0439 -1.27318,0.65152 -1.66016,2.19336 -0.35946,1.43223 -0.37149,4.11414 -0.0254,5.95899 0.49913,2.6606 1.29867,3.56802 3.86133,4.39062 4.98241,1.59932 5.70284,1.44475 6.81055,-1.46875 1.97153,-5.1855 -0.73908,-9.20896 -7.28711,-10.81836 -0.7284,-0.17903 -1.27515,-0.27581 -1.69922,-0.25586 z m -131.60156,4.20118 c -0.27471,0.003 -0.54893,0.0524 -0.81446,0.15429 -1.67178,0.64153 -2.2785,3.49689 -1.01171,4.76367 1.24621,1.24622 4.39416,0.67176 5.00195,-0.9121 0.70212,-1.82972 -1.25286,-4.03024 -3.17578,-4.00586 z m 18.24804,6.16406 c -0.7052,-0.007 -1.49854,0.33548 -2.53711,1.10742 -1.31894,0.98033 -2.76647,2.29822 -2.98632,3.71289 -0.091,0.5854 -0.1006,2.2823 0.35742,3.75391 0.34376,1.10448 0.86804,2.15561 1.60547,2.70117 0.97419,0.7207 1.40172,1.01746 2.87304,1.19922 1.68126,-0.004 4.15879,-2.42826 4.84571,-3.65625 0.48517,-0.86732 0.12565,-2.42624 -0.0996,-3.62696 -0.22503,-1.19952 -0.709,-2.24726 -1.12891,-2.99023 -0.4891,-0.86538 -1.14524,-1.48083 -1.7207,-1.82813 -0.39545,-0.23865 -0.78586,-0.36907 -1.20899,-0.37304 z m 46.84375,13.10937 c -0.086,0.003 -0.1689,0.0132 -0.24804,0.0352 -1.20655,0.33427 -2.76005,4.45877 -2.47656,5.30469 0.29743,0.8875 3.24157,3.70555 4.65234,3.55468 0.73713,-0.0788 2.92285,-2.68018 2.89453,-4.16992 -0.0192,-1.01165 -3.07392,-4.77873 -4.82227,-4.72461 z" />
    <path
       id="path43797"
       style="display:inline;fill:#e5c2b3;fill-opacity:0.19607843"
       inkscape:label="lines_translucent"
       d="m 94.818359,107.80664 c -0.138609,0.003 -0.311828,0.0285 -0.519531,0.082 C 91.138414,108.70239 75.445099,121.31166 70,125.78516 c -6.847191,5.62539 -8.961138,8.32538 -8.171875,9.42578 0.496769,0.69261 1.277237,1.02244 4.708984,-1.07032 4.574175,-2.78942 32.578168,-26.41585 28.28125,-26.33398 z m 120.472661,0.71289 c -0.0914,0.005 -0.16097,0.0308 -0.20704,0.0781 -0.71298,0.7324 14.58161,15.39994 20.875,20.01953 5.05585,3.71114 6.04102,4.03271 6.04102,1.97265 0,-2.63378 -23.87656,-22.22511 -26.70898,-22.07031 z M 99.75,130.20898 c -1.647663,0.19296 -11.799333,12.48902 -16.060547,18.07227 -2.788289,3.65337 -12.068638,14.0232 -10.044922,15.96289 1.820366,1.74477 6.440234,-5.03952 9.535157,-8.81641 3.505298,-4.27768 20.379802,-25.66488 16.570312,-25.21875 z m 107,2.35352 c -1.07177,0.0446 -0.40896,1.76728 0.0664,2.33008 2.16224,2.56001 7.15446,7.78306 9.87695,10.52148 1.84259,1.85338 8.60523,8.5505 10.75586,10.13867 1.07951,0.79717 2.51084,0.0734 1.45898,-1.89062 -1.67126,-3.04837 -7.84359,-8.74782 -9.63672,-10.56641 -4.562,-4.62678 -8.8606,-8.712 -10.35156,-9.64453 -1.06527,-0.66627 -1.75053,-0.90611 -2.16992,-0.88867 z m -34.00586,5.69531 c -0.97797,-0.11112 -0.94239,2.7069 -0.79102,3.58399 0.75414,4.36949 4.5262,17.40904 5.79102,22.34961 0.85603,3.34378 4.60348,18.15713 5.97656,21.39453 0.68922,1.625 1.9503,0.98649 2.05078,-1.97071 0.11269,-4.61505 -3.62199,-19.05677 -4.44531,-22.32812 -2.09468,-8.32284 -5.03966,-17.68423 -6.08203,-19.74414 -1.19724,-2.36595 -1.98773,-3.22695 -2.5,-3.28516 z m -23.98828,4.71094 c -0.44214,-0.0184 -0.50878,0.32494 -0.69727,1.00195 -1.04081,3.73847 -0.94348,16.69786 -0.86328,25.34375 0.0691,7.45582 -0.33806,17.85987 0.95703,21.96485 0.35756,1.13331 1.06747,1.60129 1.6836,1.58789 1.90559,-0.0413 1.18398,-21.78271 1.07812,-27.28711 -0.0666,-3.46091 0.13548,-17.45316 -1.28515,-21.53125 -0.24443,-0.70166 -0.32483,-1.05728 -0.87305,-1.08008 z m -54.22461,10.37891 c -0.217683,0.03 -0.527719,0.23454 -0.962891,0.5957 -1.700342,1.41116 -12.084648,19.57421 -13.039062,22.80664 -1.25875,4.26316 1.962766,2.39468 5.171875,-3 C 91.274449,164.38102 95,156.7621 95,154.73633 c 0,-1.00384 -0.105945,-1.43859 -0.46875,-1.38867 z m 96.60742,0.68554 c -0.92683,-0.0942 -0.3142,2.12057 -0.0176,2.75977 1.41055,3.03963 4.84807,9.39637 6.75196,12.75586 1.28856,2.27371 7.08264,12.11961 8.73828,14.21875 0.83105,1.05365 1.87945,0.24026 1.38281,-1.93164 -0.80814,-3.38121 -5.63475,-11.71625 -6.88476,-13.94336 -3.18027,-5.66613 -6.39819,-10.63159 -7.57813,-11.93555 -1.23204,-1.36153 -1.97129,-1.88102 -2.39258,-1.92383 z" />
    <path
       d="m 91,127.02397 c 12.91861,-12.73233 22.4853,-21.13196 20.59221,-22.11267 -2.06036,-1.06736 -6.24439,2.6654 -27.893806,23.47308 C 62.808145,148.46242 60.371066,151.17335 61.528244,153.0457 62.486802,154.59668 67.644,150.04319 91,127.02397 Z m -44.930678,4.13887 c 9.372143,-4.52812 28.217651,-16.39578 26.919142,-17.93754 -0.580926,-0.68976 -5.572412,1.52069 -19.417903,9.73348 -10.849356,6.43557 -15.022958,9.37691 -12.880835,10.04122 0.663739,0.20584 3.167736,-0.7685 5.379596,-1.83716 z M 85.700465,173.75 C 91.273754,164.381 95,156.76256 95,154.73679 c 0,-1.60615 -0.271325,-1.7565 -1.431785,-0.7934 -1.700346,1.41116 -12.084233,19.57418 -13.038649,22.80661 -1.258752,4.26316 1.961784,2.3947 5.170899,-3 z m 21.338365,-5.5 C 111.01061,157.78609 123,124.87175 123,124.43195 123,124.19438 122.61662,124 122.14804,124 120.42472,124 102,167.99085 102,172.10546 c 0,3.96108 2.91994,1.72689 5.03883,-3.85546 z m 23.4423,12.50556 C 133.7089,172.68857 137.31048,145 135.13202,145 c -1.49853,0 -3.70096,8.29285 -6.10839,23 -1.12537,6.875 -2.27465,13.5125 -2.55394,14.75 -0.91427,4.05107 2.21503,2.49522 4.01144,-1.99444 z m 40.892,19.44972 c 0.27014,-0.4371 0.0525,-4.1496 -0.48361,-8.25 -0.53612,-4.1004 -2.49654,-20.88374 -4.35649,-37.29629 -1.85995,-16.41256 -3.04197,-31.03569 -4.36906,-30.79092 -1.26337,0.23301 -0.25523,20.29933 0.81458,35.13193 1.87781,26.03533 3.21677,37.50278 4.64128,39.75 1.46344,2.30863 2.8852,2.85989 3.7533,1.45528 z M 225,174.67711 c 0,-1.27759 -2.6035,-5.89009 -5.78555,-10.25 C 216.0324,160.0672 209.96519,151.55 205.73176,145.5 195.99233,131.58138 195.52586,131 194.0976,131 c -1.56809,0 1.73533,5.64507 16.23892,27.75 6.58586,10.0375 12.57935,18.25 13.31888,18.25 0.74023,0 1.3446,-1.04408 1.3446,-2.32289 z m 24,-25.95752 c 0,-0.70423 -3.4875,-4.18014 -7.75,-7.72424 -9.08395,-7.55295 -21.53385,-18.23671 -22.25,-19.09363 -0.275,-0.32905 -5.61151,-4.96754 -11.85891,-10.30775 -4.75713,-4.06634 -8.18667,-6.80246 -10.15093,-8.12739 -1.14997,-0.77566 -1.76698,-1.0095 -1.91563,-0.85973 -0.56786,0.57214 0.20849,1.87499 1.85677,3.58012 3.18559,3.29542 30.02486,28.4837 40.04998,37.26211 7.09371,6.21155 12.01872,8.37129 12.01872,5.27051 z m 12.4174,-25.58594 c 0.86303,-1.39642 -2.36949,-3.72546 -11.27269,-8.12195 -6.25254,-3.08757 -11.14949,-5.42644 -11.7879,-4.22018 -0.36837,0.69603 2.78336,2.87392 6.44346,5.168 5.96659,3.73972 13.62694,7.96246 15.39071,8.01852 0.38004,0.0121 0.93193,-0.3679 1.22642,-0.84439 z"
       style="display:inline;fill:#f9f0d4;fill-opacity:1;opacity:1"
       id="path43799"
       inkscape:label="lines_solid"
       sodipodi:nodetypes="ssssssssssssssssssssssssssssssssssssssssssssssssssssss" />
  </g>
</svg>
