<?xml version="1.0" encoding="UTF-8" standalone="no"?>
<!-- Created with Inkscape (http://www.inkscape.org/) -->

<svg
   version="1.1"
   id="svg5617"
   width="300"
   height="300"
   viewBox="0 0 300 300"
   sodipodi:docname="gondola_spell.svg"
   inkscape:version="1.2.2 (732a01da63, 2022-12-09)"
   inkscape:export-filename="gondola_spell.png"
   inkscape:export-xdpi="96"
   inkscape:export-ydpi="96"
   xmlns:inkscape="http://www.inkscape.org/namespaces/inkscape"
   xmlns:sodipodi="http://sodipodi.sourceforge.net/DTD/sodipodi-0.dtd"
   xmlns="http://www.w3.org/2000/svg"
   xmlns:svg="http://www.w3.org/2000/svg">
  <defs
     id="defs5621">
    <filter
       inkscape:collect="always"
       style="color-interpolation-filters:sRGB"
       id="filter6323"
       x="-0.049940297"
       y="-0.066645776"
       width="1.1002587"
       height="1.1335232">
      <feGaussianBlur
         inkscape:collect="always"
         stdDeviation="1.9494"
         id="feGaussianBlur6325" />
    </filter>
  </defs>
  <sodipodi:namedview
     id="namedview5619"
     pagecolor="#ffffff"
     bordercolor="#000000"
     borderopacity="0.25"
     inkscape:showpageshadow="2"
     inkscape:pageopacity="0.0"
     inkscape:pagecheckerboard="0"
     inkscape:deskcolor="#d1d1d1"
     showgrid="false"
     inkscape:zoom="2.3617366"
     inkscape:cx="46.364188"
     inkscape:cy="116.43974"
     inkscape:window-width="2560"
     inkscape:window-height="1369"
     inkscape:window-x="1912"
     inkscape:window-y="-8"
     inkscape:window-maximized="1"
     inkscape:current-layer="g5623" />
  <g
     inkscape:groupmode="layer"
     inkscape:label="Image"
     id="g5623">
    <rect
       style="display:inline;fill:#292c2b;fill-opacity:1;stroke:none;stroke-width:137.245;stop-color:#000000"
       id="rect3034"
       width="300"
       height="300"
       x="0"
       y="0"
       ry="45.696117"
       rx="45.696117" />
    <path
       style="display:none;fill:none;fill-opacity:1;stroke:#753f4b;stroke-width:12.3;stroke-dasharray:none;filter:url(#filter6323)"
       d="m 129.5,231.3246 c -21.25904,-1.03129 -34.790182,-4.17812 -44.032661,-10.24032 -11.220536,-7.35962 -36.457095,-35.01224 -36.472321,-39.96405 -0.0027,-0.89113 2.95296,-13.65122 6.568222,-28.35577 0,0 6.848197,-24.50717 6.292514,-26.94138 -0.474955,-2.08058 -8.128715,-10.05862 -8.128715,-10.05862 -12.810525,-15.63644 -12.449809,-14.85543 -9.324314,-20.188685 3.12744,-5.336573 17.666404,-22.810359 20.813053,-25.014359 2.576977,-1.804985 15.704615,-2.136212 24.908706,-0.628478 5.044969,0.826422 6.17182,1.500081 10.936666,6.538198 2.92169,3.089265 7.43407,7.873572 8.33157,9.057884 1.11215,1.467558 0.44391,9.174925 -2.39792,30.48573 0,0 -2.21533,16.02011 -1.83282,17.46183 0.36698,1.38318 4.27524,6.33564 4.27524,6.33564 2.62792,3.4555 5.80334,6.95452 7.05649,7.77562 1.83763,1.20406 8.20855,1.61287 32.92917,2.11303 l 30.65072,0.62013 3.55142,-3.4105 c 9.49534,-9.11857 10.59215,-12.15632 14.8628,-41.16437 1.15291,-7.83107 2.34788,-12.538837 3.58049,-14.105843 1.06269,-1.350985 4.95298,-3.451953 9.14087,-4.936563 8.25649,-2.926929 36.21962,-9.932995 39.60278,-9.938915 3.08599,-0.0054 5.25715,3.725955 4.85939,13.411358 -0.17217,4.192414 -0.0322,7.077469 -1.25808,9.13831 -1.52296,2.560353 -6.13664,4.570733 -15.67622,9.839313 l -9.39537,5.18894 c -0.78852,0.36567 -0.84459,1.62054 -0.80191,1.85845 l 0.26977,9.45261 c 0.17025,5.96542 1.32824,22.49128 2.12049,34.26597 0,0 2.607,29.514 1.45358,33.21607 -0.55134,1.33973 -8.13361,7.98677 -8.13361,7.98677 -8.14665,7.76609 -23.10046,19.62406 -31.95455,25.05079 -3.74393,2.29468 -6.98615,3.41653 -11.81288,4.01911 -7.326,0.91459 -41.26204,1.60365 -50.98257,1.1321 z M 85.215577,100.07014 c 4.198658,-4.198661 4.773429,-5.222166 3.875165,-6.900586 C 87.616615,90.415121 78.096399,83 76.034131,83 c -2.497369,0 -11.108373,8.907727 -11.131093,11.461142 -0.0168,1.887466 1.002229,3.980686 5.645002,7.493278 5.825489,4.4074 8.751785,4.03147 14.667537,-1.88428 z m 152.454893,69.51351 c -1.04728,-2.72917 -1.96293,-14.28226 -1.33138,-16.79855 0.4213,-1.67859 2.15906,-3.06495 5.87949,-4.69057 9.73373,-4.25311 12.86036,-5.34892 13.48359,-4.72569 0.34056,0.34055 0.95746,4.38928 0.94231,9.13547 -0.0351,10.98962 -0.40364,11.89718 -7.86663,15.36119 -6.40217,2.97162 -10.34933,3.69359 -11.10738,1.71815 z m -2.17708,-30.59435 c -0.34356,-0.55588 -0.8835,-5.00613 -1.19988,-9.88943 -0.6678,-10.30766 -1.6053,-9.21567 12.20053,-14.2112 11.42066,-4.13248 12.0556,-3.64727 11.04849,8.44294 -0.8219,9.86681 -1.07587,10.19629 -10.80305,14.01461 -7.20669,2.82892 -10.23936,3.272 -11.24609,1.64308 z"
       id="path6107"
       sodipodi:nodetypes="sscssssssssssssscssssssssccsccsssssssssssssssssssssss" />
    <path
       style="fill:#f9f0d4;fill-opacity:1"
       d="m 129.5,231.3246 c -21.25904,-1.03129 -34.790182,-4.17812 -44.032661,-10.24032 -11.220536,-7.35962 -36.457095,-35.01224 -36.472321,-39.96405 -0.0027,-0.89113 2.95296,-13.65122 6.568222,-28.35577 0,0 6.848197,-24.50717 6.292514,-26.94138 -0.474955,-2.08058 -8.128715,-10.05862 -8.128715,-10.05862 -12.810525,-15.63644 -12.449809,-14.85543 -9.324314,-20.188685 3.12744,-5.336573 17.666404,-22.810359 20.813053,-25.014359 2.576977,-1.804985 15.704615,-2.136212 24.908706,-0.628478 5.044969,0.826422 6.17182,1.500081 10.936666,6.538198 2.92169,3.089265 7.43407,7.873572 8.33157,9.057884 1.11215,1.467558 0.44391,9.174925 -2.39792,30.48573 0,0 -2.21533,16.02011 -1.83282,17.46183 0.36698,1.38318 4.27524,6.33564 4.27524,6.33564 2.62792,3.4555 5.80334,6.95452 7.05649,7.77562 1.83763,1.20406 8.20855,1.61287 32.92917,2.11303 l 30.65072,0.62013 3.55142,-3.4105 c 9.49534,-9.11857 10.59215,-12.15632 14.8628,-41.16437 1.15291,-7.83107 2.34788,-12.538837 3.58049,-14.105843 1.06269,-1.350985 4.95298,-3.451953 9.14087,-4.936563 8.25649,-2.926929 36.21962,-9.932995 39.60278,-9.938915 3.08599,-0.0054 5.25715,3.725955 4.85939,13.411358 -0.17217,4.192414 -0.0322,7.077469 -1.25808,9.13831 -1.52296,2.560353 -6.13664,4.570733 -15.67622,9.839313 l -9.39537,5.18894 c -0.78852,0.36567 -0.84459,1.62054 -0.80191,1.85845 l 0.26977,9.45261 c 0.17025,5.96542 1.32824,22.49128 2.12049,34.26597 0,0 2.607,29.514 1.45358,33.21607 -0.55134,1.33973 -8.13361,7.98677 -8.13361,7.98677 -8.14665,7.76609 -23.10046,19.62406 -31.95455,25.05079 -3.74393,2.29468 -6.98615,3.41653 -11.81288,4.01911 -7.326,0.91459 -41.26204,1.60365 -50.98257,1.1321 z M 85.215577,100.07014 c 4.198658,-4.198661 4.773429,-5.222166 3.875165,-6.900586 C 87.616615,90.415121 78.096399,83 76.034131,83 c -2.497369,0 -11.108373,8.907727 -11.131093,11.461142 -0.0168,1.887466 1.002229,3.980686 5.645002,7.493278 5.825489,4.4074 8.751785,4.03147 14.667537,-1.88428 z m 152.454893,69.51351 c -1.04728,-2.72917 -1.96293,-14.28226 -1.33138,-16.79855 0.4213,-1.67859 2.15906,-3.06495 5.87949,-4.69057 9.73373,-4.25311 12.86036,-5.34892 13.48359,-4.72569 0.34056,0.34055 0.95746,4.38928 0.94231,9.13547 -0.0351,10.98962 -0.40364,11.89718 -7.86663,15.36119 -6.40217,2.97162 -10.34933,3.69359 -11.10738,1.71815 z m -2.17708,-30.59435 c -0.34356,-0.55588 -0.8835,-5.00613 -1.19988,-9.88943 -0.6678,-10.30766 -1.6053,-9.21567 12.20053,-14.2112 11.42066,-4.13248 12.0556,-3.64727 11.04849,8.44294 -0.8219,9.86681 -1.07587,10.19629 -10.80305,14.01461 -7.20669,2.82892 -10.23936,3.272 -11.24609,1.64308 z"
       id="path6210"
       sodipodi:nodetypes="sscssssssssssssscssssssssccsccsssssssssssssssssssssss" />
  </g>
</svg>
