<?xml version="1.0" encoding="UTF-8" standalone="no"?>
<!-- Created with Inkscape (http://www.inkscape.org/) -->

<svg
   version="1.1"
   id="svg2"
   width="300"
   height="300"
   viewBox="0 0 300 300"
   sodipodi:docname="beret.svg"
   inkscape:version="1.2.2 (732a01da63, 2022-12-09)"
   xml:space="preserve"
   xmlns:inkscape="http://www.inkscape.org/namespaces/inkscape"
   xmlns:sodipodi="http://sodipodi.sourceforge.net/DTD/sodipodi-0.dtd"
   xmlns="http://www.w3.org/2000/svg"
   xmlns:svg="http://www.w3.org/2000/svg"><defs
     id="defs6"><filter
       inkscape:collect="always"
       style="color-interpolation-filters:sRGB"
       id="filter2362"
       x="-0.057928247"
       y="-0.088701428"
       width="1.1158831"
       height="1.1775468"><feGaussianBlur
         inkscape:collect="always"
         stdDeviation="1.9494"
         id="feGaussianBlur2364" /></filter></defs><sodipodi:namedview
     id="namedview4"
     pagecolor="#ffffff"
     bordercolor="#000000"
     borderopacity="0.25"
     inkscape:showpageshadow="2"
     inkscape:pageopacity="0.0"
     inkscape:pagecheckerboard="0"
     inkscape:deskcolor="#d1d1d1"
     showgrid="false"
     inkscape:zoom="3.34"
     inkscape:cx="74.101796"
     inkscape:cy="150.1497"
     inkscape:window-width="2560"
     inkscape:window-height="1351"
     inkscape:window-x="2391"
     inkscape:window-y="-9"
     inkscape:window-maximized="1"
     inkscape:current-layer="g8" /><g
     inkscape:groupmode="layer"
     inkscape:label="Image"
     id="g8"><rect
       style="display:none;fill:#292c2b;fill-opacity:1;stroke:none;stroke-width:137.245;stop-color:#000000"
       id="rect3034"
       width="300"
       height="300"
       x="0"
       y="0"
       ry="45"
       rx="45" /><path
       style="fill:#f6f6e1;stroke:#753f4b;filter:url(#filter2362);stroke-width:12.3;stroke-dasharray:none"
       d="m 109.5,213.41146 c -7.15526,-1.59211 -16.180925,-5.06387 -15.343032,-5.90176 0.256324,-0.25633 7.863362,-0.70405 16.904542,-0.99493 31.55612,-1.01529 45.83279,-2.45655 75.16698,-7.58828 C 195.42916,197.31692 204.16141,196 205.63348,196 c 2.6632,0 2.66703,0.0107 0.77151,2.15387 -4.38655,4.95964 -22.19498,11.30442 -40.40499,14.39548 -13.96361,2.37026 -47.42731,2.88086 -56.5,0.86211 z m -45.363639,-17.2751 c -2.5137,-2.5137 -4.067852,-8.11189 -5.103205,-18.38218 -1.5953,-15.82475 1.838262,-31.80675 10.68369,-49.72873 4.570189,-9.25979 6.941374,-12.75264 12.28502,-18.09628 C 94.127652,97.803382 109.6052,92.540475 133,92.588019 c 17.26888,0.03509 23.81331,2.655953 31.70318,12.696221 1.01332,1.28949 3.38043,1.4501 15,1.01773 16.64966,-0.61955 27.95087,1.34712 41.83856,7.28088 6.93539,2.96327 10.20952,5.07965 14.49946,9.37236 7.92792,7.93306 9.4588,11.58187 9.4588,22.54479 0,8.32632 -0.25263,9.46583 -3.37504,15.2232 -9.20066,16.965 -25.77062,24.90731 -66.12496,31.695 -19.61695,3.29962 -35.34209,4.3622 -75.66639,5.11293 -33.440493,0.62258 -34.209531,0.59295 -36.197249,-1.39477 z M 135,134.01023 c 0,-2.10737 -8.99138,-14.85493 -15.39751,-21.82989 -3.6975,-4.02581 -6.54736,-7.84573 -6.33303,-8.48872 0.7227,-2.16809 7.52966,-4.104178 10.18152,-2.89591 3.07193,1.39966 9.81504,12.83715 12.50125,21.20429 2.33093,7.26046 3.62826,9.75284 4.58076,8.80034 0.84946,-0.84946 -1.16683,-10.47061 -4.14955,-19.80034 -3.25476,-10.18068 -6.58468,-14.042929 -12.70189,-14.732426 -5.31686,-0.599287 -12.34108,1.593745 -15.19089,4.742746 -2.16111,2.388 -1.59477,3.39716 7.65946,13.6485 3.49244,3.86872 8.59988,10.01168 11.34988,13.65102 4.5536,6.02623 7.5,8.26564 7.5,5.70039 z"
       id="path847" /><path
       style="fill:#f6f6e1"
       d="m 109.5,213.41146 c -7.15526,-1.59211 -16.180925,-5.06387 -15.343032,-5.90176 0.256324,-0.25633 7.863362,-0.70405 16.904542,-0.99493 31.55612,-1.01529 45.83279,-2.45655 75.16698,-7.58828 C 195.42916,197.31692 204.16141,196 205.63348,196 c 2.6632,0 2.66703,0.0107 0.77151,2.15387 -4.38655,4.95964 -22.19498,11.30442 -40.40499,14.39548 -13.96361,2.37026 -47.42731,2.88086 -56.5,0.86211 z m -45.363639,-17.2751 c -2.5137,-2.5137 -4.067852,-8.11189 -5.103205,-18.38218 -1.5953,-15.82475 1.838262,-31.80675 10.68369,-49.72873 4.570189,-9.25979 6.941374,-12.75264 12.28502,-18.09628 C 94.127652,97.803382 109.6052,92.540475 133,92.588019 c 17.26888,0.03509 23.81331,2.655953 31.70318,12.696221 1.01332,1.28949 3.38043,1.4501 15,1.01773 16.64966,-0.61955 27.95087,1.34712 41.83856,7.28088 6.93539,2.96327 10.20952,5.07965 14.49946,9.37236 7.92792,7.93306 9.4588,11.58187 9.4588,22.54479 0,8.32632 -0.25263,9.46583 -3.37504,15.2232 -9.20066,16.965 -25.77062,24.90731 -66.12496,31.695 -19.61695,3.29962 -35.34209,4.3622 -75.66639,5.11293 -33.440493,0.62258 -34.209531,0.59295 -36.197249,-1.39477 z M 135,134.01023 c 0,-2.10737 -8.99138,-14.85493 -15.39751,-21.82989 -3.6975,-4.02581 -6.54736,-7.84573 -6.33303,-8.48872 0.7227,-2.16809 7.52966,-4.104178 10.18152,-2.89591 3.07193,1.39966 9.81504,12.83715 12.50125,21.20429 2.33093,7.26046 3.62826,9.75284 4.58076,8.80034 0.84946,-0.84946 -1.16683,-10.47061 -4.14955,-19.80034 -3.25476,-10.18068 -6.58468,-14.042929 -12.70189,-14.732426 -5.31686,-0.599287 -12.34108,1.593745 -15.19089,4.742746 -2.16111,2.388 -1.59477,3.39716 7.65946,13.6485 3.49244,3.86872 8.59988,10.01168 11.34988,13.65102 4.5536,6.02623 7.5,8.26564 7.5,5.70039 z"
       id="path849"
       inkscape:label="path849" /></g></svg>
