<?xml version="1.0" encoding="UTF-8" standalone="no"?>
<!-- Created with Inkscape (http://www.inkscape.org/) -->

<svg
   version="1.1"
   id="svg2"
   width="300"
   height="300"
   viewBox="0 0 300 300"
   sodipodi:docname="plush_spell.svg"
   inkscape:version="1.2.2 (732a01da63, 2022-12-09)"
   inkscape:export-filename="plush_spell.png"
   inkscape:export-xdpi="96"
   inkscape:export-ydpi="96"
   xmlns:inkscape="http://www.inkscape.org/namespaces/inkscape"
   xmlns:sodipodi="http://sodipodi.sourceforge.net/DTD/sodipodi-0.dtd"
   xmlns="http://www.w3.org/2000/svg"
   xmlns:svg="http://www.w3.org/2000/svg">
  <defs
     id="defs6">
    <filter
       inkscape:collect="always"
       style="color-interpolation-filters:sRGB"
       id="filter4700"
       x="-0.0155952"
       y="-0.0155952"
       width="1.0311904"
       height="1.0311904">
      <feGaussianBlur
         inkscape:collect="always"
         stdDeviation="1.9494"
         id="feGaussianBlur4702" />
    </filter>
    <filter
       inkscape:collect="always"
       style="color-interpolation-filters:sRGB"
       id="filter4704"
       x="-0.053117624"
       y="-0.062803956"
       width="1.1059379"
       height="1.1263322">
      <feGaussianBlur
         inkscape:collect="always"
         stdDeviation="1.9494"
         id="feGaussianBlur4706" />
    </filter>
  </defs>
  <sodipodi:namedview
     id="namedview4"
     pagecolor="#ffffff"
     bordercolor="#000000"
     borderopacity="0.25"
     inkscape:showpageshadow="2"
     inkscape:pageopacity="0.0"
     inkscape:pagecheckerboard="0"
     inkscape:deskcolor="#d1d1d1"
     showgrid="false"
     inkscape:zoom="1.67"
     inkscape:cx="-42.814371"
     inkscape:cy="174.2515"
     inkscape:window-width="2560"
     inkscape:window-height="1369"
     inkscape:window-x="1912"
     inkscape:window-y="-8"
     inkscape:window-maximized="1"
     inkscape:current-layer="g8" />
  <g
     inkscape:groupmode="layer"
     inkscape:label="Image"
     id="g8">
    <rect
       style="display:none;fill:#ce9e9a;fill-opacity:0.421512;stroke:none;stroke-width:254.129;filter:url(#filter4700)"
       id="rect4645"
       width="300"
       height="300"
       x="0"
       y="0" />
    <rect
       style="display:inline;fill:#292c2b;fill-opacity:1;stroke:none;stroke-width:137.245;stop-color:#000000"
       id="rect3034"
       width="300"
       height="300"
       x="0"
       y="0"
       ry="45"
       rx="45" />
    <path
       id="path2307"
       style="display:none;fill:#f6f6e1;stroke:#753f4b;stroke-width:12.3;stroke-dasharray:none;filter:url(#filter4704)"
       d="M 105.12891,63.398438 C 98.119797,63.380757 92.287524,65.083085 84.003906,69.160156 66.108733,77.967888 53.047603,96.039055 49.427734,117 c -3.483079,20.16886 1.071677,39.11428 13.947266,58 2.81227,4.125 12.120926,14.70001 20.685547,23.5 8.56462,8.79999 18.298683,19.375 21.630863,23.5 6.89334,8.53343 8.60761,10.2062 12.81054,12.49414 4.38071,2.38471 18.43856,1.44269 29.99805,-2.00976 18.52685,-5.5334 43.4228,-19.24437 63.48047,-34.95899 6.93639,-5.43447 21.26517,-20.87431 25.48047,-27.45703 16.43416,-25.66408 18.69443,-52.53041 6.41015,-76.183594 C 239.46133,85.393811 231.60645,76.718689 224.62109,72.625 218.76024,69.190307 206.37951,66 198.90625,66 186.17379,66 173.54276,70.007191 161.62109,77.830078 157.28804,80.673395 153.38063,83 152.9375,83 c -0.44313,0 -4.9973,-2.83663 -10.12109,-6.304688 -11.90437,-8.057499 -19.66552,-11.334931 -30.15235,-12.730468 -2.73181,-0.363537 -5.19878,-0.560513 -7.53515,-0.566406 z" />
    <path
       style="display:inline;fill:#f9f0d4;fill-opacity:1"
       d="M 118.50223,234.4934 C 114.29929,232.20546 112.5848,230.53344 105.69145,222 102.35927,217.875 92.625508,207.3 84.060879,198.5 75.49625,189.7 66.187875,179.125 63.375602,175 50.5,156.11426 45.943691,137.16888 49.426774,117 53.046646,96.039034 66.107827,77.9673 84.003018,69.159559 c 11.044835,-5.4361 17.734442,-6.64844 28.661702,-5.194293 10.48684,1.395539 18.24691,4.67166 30.15129,12.729168 C 147.93981,80.162495 152.49457,83 152.9377,83 c 0.44313,0 4.35093,-2.326353 8.68399,-5.169673 C 173.54337,70.007432 186.17294,66 198.90541,66 c 7.47327,0 19.85538,3.189466 25.71624,6.624162 6.98536,4.093693 14.84043,12.768733 19.2502,21.259696 12.28429,23.653212 10.02355,50.519812 -6.41063,76.183922 -4.2153,6.58273 -18.54428,22.02382 -25.48068,27.4583 -20.05769,15.71464 -44.95367,29.42454 -63.48054,34.95794 -11.5595,3.45246 -25.61706,4.39409 -29.99777,2.00938 z"
       id="path4588" />
    <path
       id="path4590"
       style="fill:#c79290;fill-opacity:1"
       d="m 122.82031,103.08789 c -1.15761,-0.0257 -2.34168,0.0126 -3.57422,0.10547 -10.13588,0.76395 -18.40788,6.52037 -22.583981,15.7168 -2.954119,6.50541 -2.861237,18.69597 0.195313,25.54492 3.474998,7.78657 9.164108,14.54056 18.164058,21.5625 4.56989,3.56552 11.27309,9.11919 14.89454,12.3418 8.17741,7.27679 11.87539,9.63629 15.08398,9.62304 1.375,-0.006 5.875,-1.84496 10,-4.08789 24.96668,-13.57541 44.89011,-34.32965 48.22656,-50.23633 3.763,-17.94019 -9.82704,-32.89397 -27.48437,-30.24609 -6.03303,0.90471 -14.16348,4.90933 -19.49414,9.60156 -3.90761,3.43962 -4.80997,3.83567 -6.25782,2.75195 -12.30625,-9.21125 -19.06666,-12.49786 -27.16992,-12.67773 z"
       sodipodi:nodetypes="sssssscssssss" />
  </g>
</svg>
