<?xml version="1.0" encoding="UTF-8" standalone="no"?>
<!-- Created with Inkscape (http://www.inkscape.org/) -->

<svg
   version="1.1"
   id="svg10997"
   width="300"
   height="300"
   viewBox="0 0 300 300"
   sodipodi:docname="cape_loft.svg"
   inkscape:version="1.2.2 (732a01da63, 2022-12-09)"
   xmlns:inkscape="http://www.inkscape.org/namespaces/inkscape"
   xmlns:sodipodi="http://sodipodi.sourceforge.net/DTD/sodipodi-0.dtd"
   xmlns="http://www.w3.org/2000/svg"
   xmlns:svg="http://www.w3.org/2000/svg">
  <defs
     id="defs11001">
    <filter
       inkscape:collect="always"
       style="color-interpolation-filters:sRGB"
       id="filter14537"
       x="-0.058072477"
       y="-0.057185525"
       width="1.1168651"
       height="1.1144284">
      <feGaussianBlur
         inkscape:collect="always"
         stdDeviation="1.9494"
         id="feGaussianBlur14539" />
    </filter>
  </defs>
  <sodipodi:namedview
     id="namedview10999"
     pagecolor="#ffffff"
     bordercolor="#000000"
     borderopacity="0.25"
     inkscape:showpageshadow="2"
     inkscape:pageopacity="0.0"
     inkscape:pagecheckerboard="0"
     inkscape:deskcolor="#d1d1d1"
     showgrid="false"
     inkscape:zoom="1.67"
     inkscape:cx="-11.077844"
     inkscape:cy="114.97006"
     inkscape:window-width="2560"
     inkscape:window-height="1369"
     inkscape:window-x="1912"
     inkscape:window-y="-8"
     inkscape:window-maximized="1"
     inkscape:current-layer="g11003" />
  <g
     inkscape:groupmode="layer"
     inkscape:label="Image"
     id="g11003">
    <path
       id="path12347"
       style="fill:none;fill-opacity:1;stroke:#54425c;stroke-opacity:1;stroke-width:12.3;stroke-dasharray:none;filter:url(#filter14537)"
       d="M 170.98438 69.625 C 170.29145 69.63776 169.30425 69.84294 167.81055 70.191406 C 163.94697 71.092741 128.79663 70.825949 125.07227 69.867188 C 123.17362 69.378421 114.93314 85.636126 105.49023 108.5 C 95.94335 131.61565 80.865472 161.79206 74.617188 170.28906 C 73.022434 172.40265 73.077134 173.56976 75.533203 175.5332 C 77.165116 176.88297 81.947506 180.05442 86.160156 182.58203 C 90.372807 185.10963 94.656011 188.24905 96.054688 189.55859 L 97.466797 190.9668 C 98.11121 191.50498 97.965904 192.55207 97.728516 193.29883 L 95.197266 201.67773 C 93.08766 208.65996 92.398467 211.77528 93.142578 212.67188 C 95.131399 215.06825 105.20775 221.23478 118.32031 228.08008 C 125.56954 231.86444 132.20062 234.96967 133.05664 234.98047 C 133.91267 234.99127 137.80573 232.75 141.70898 230 C 145.61224 227.25 149.11188 225 149.48438 225 C 149.85685 225 152.48688 226.49696 155.33008 228.32617 C 164.26664 234.0756 165.89759 235 167.09961 235 C 169.28446 235 191.78509 220.19447 200.60352 214.39648 C 201.73266 213.65409 203.35942 212.49022 203.88867 211.98828 C 204.85798 211.06897 203.11967 207.13741 201.38477 202.80469 C 198.84159 196.4534 197.05441 193.19416 197.61133 191.26953 C 198.16159 189.36793 201.4899 187.35201 207 183.98438 C 212.22499 180.79099 217.75235 177.59278 219.58203 176.03125 L 221.93359 173.78711 C 223.27546 172.82578 223.1483 171.83048 222.37695 170.27734 L 214.21484 154.5 C 204.98936 135.92247 204.37979 134.63274 196.51367 117 C 190.36427 103.21546 184.88882 92.425436 178.77539 82.046875 C 176.0366 77.397345 173.4178 72.600586 172.95703 71.388672 C 172.47313 70.115929 172.13924 69.603727 170.98438 69.625 z M 114.38477 78 C 112.75128 78 106.22801 82.404215 105.01367 84.326172 C 101.18832 90.380628 95.893716 100.24533 87.478516 117 C 79.105253 133.67117 71.887609 147.05846 61.869141 164.5 C 56.136359 174.48042 55.597751 176.3202 57.392578 179.79102 C 59.835956 184.51598 64.666714 188.78037 73.189453 193.73242 C 77.526928 196.25266 81.285 198.65217 81.541016 199.06641 C 81.797032 199.48066 80.655858 203.64974 79.003906 208.33008 C 74.595064 220.82127 74.67233 221.15621 83.25 226.6875 C 92.354317 232.5584 125.25159 249.28735 138.5 254.7832 C 143.99999 257.06478 148.84714 258.94816 149.27148 258.9668 C 151.45136 259.06258 170.1224 250.9944 182 244.82422 C 196.80562 237.133 217.66265 223.65706 219.65625 220.49414 C 220.7281 218.79361 220.41621 216.98569 217.61133 208.61133 L 214.30273 198.73242 L 217.27344 197.11719 C 222.30775 194.37827 237.90108 182.08271 239.57031 179.53516 C 241.02992 177.30751 240.99558 176.79834 239.13086 172.8125 C 238.02129 170.44082 235.58067 165.8 233.70703 162.5 C 222.94565 143.5462 217.21725 132.5591 210.45117 117.89648 C 201.71994 98.975227 197.4978 90.666726 194.57422 86.648438 C 192.6297 83.975797 183.31079 78.355225 182.375 79.291016 C 182.14067 79.525348 183.53291 82.520463 185.46875 85.945312 C 189.36164 92.832524 194.46918 103.32897 201.30859 118.5 C 203.7881 123.99999 210.58275 138.35191 216.4082 150.39258 C 222.23366 162.43325 227 173.07981 227 174.05273 C 227 176.29307 223.56461 179.17484 212.11914 186.5332 C 205.43656 190.82948 203.00684 192.94352 203.02734 194.44727 C 203.04271 195.57595 204.35298 200.28316 205.9375 204.90625 C 207.52203 209.52935 208.61935 213.80435 208.37695 214.40625 C 207.40508 216.81959 169.43082 240 166.44922 240 C 165.79352 240 161.81023 237.75 157.59766 235 C 153.38508 232.25 150.16208 230 149.10547 230 C 148.23597 230 145.22535 232.25 141.5 235 C 137.77465 237.75 134.05574 240 133.23633 240 C 131.27545 240 100.52526 224.03428 93.490234 219.36328 C 87.089127 215.11319 87.02185 214.74821 90.515625 203.5 C 91.882296 199.1 92.999925 194.75665 93 193.84766 C 93.000084 192.82907 89.450978 190.06881 83.75 186.6543 C 78.662505 183.60722 72.979967 179.83385 71.123047 178.26953 L 69.28125 176.71875 C 68.213701 175.84155 68.010276 174.85125 68.697266 173.50781 L 69.708984 171.46289 C 70.787505 169.28327 74.931277 161.64999 78.917969 154.5 C 86.788999 140.38358 95.165937 122.78386 103.11328 103.66797 C 105.89574 96.975286 109.7087 88.462496 111.58594 84.75 C 113.46317 81.037504 114.72205 78 114.38477 78 z M 186.9375 120.5 C 188.53545 120.5 193.39824 131.54833 192.46484 133.05859 C 191.21282 135.08443 188.95321 133.8261 187.41992 130.25 C 185.28859 125.27907 185.05122 120.5 186.9375 120.5 z M 111.28125 121.01367 C 113.22547 120.97777 113.07625 124.58149 110.9375 129.32422 C 109.65399 132.17044 108.3564 134.78125 108.05273 135.125 C 107.01726 136.29716 105 134.83917 105 132.91797 C 105 130.71666 110.10816 121.03527 111.28125 121.01367 z M 193.25 137.05664 C 194.08323 137.02984 195.20031 137.60137 196.17383 138.75 C 199.02925 142.11904 202.09751 148.3012 201.58203 149.64453 C 200.93 151.34369 198.56695 151.40115 197.24414 149.75 C 195.46332 147.52715 192 140.12348 192 138.53906 C 192 137.56882 192.51479 137.08026 193.25 137.05664 z M 103.00195 138.34375 C 103.48218 138.33975 103.95845 138.55169 104.44922 138.95898 C 105.69738 139.99486 105.53076 140.91377 103.24219 145.58008 C 101.5495 149.03139 99.955006 151 98.851562 151 C 96.023212 151 95.820241 149.36149 98.058594 144.59961 C 100.08445 140.28978 101.56128 138.35471 103.00195 138.34375 z M 203.44141 153.49023 C 204.04895 153.39017 204.59638 154.03891 205.74414 155.66406 C 210.01531 161.71176 213.16747 168.89719 212.48828 171.03711 C 211.88645 172.93332 202.64732 179.55713 194.125 184.20312 C 192.58127 185.04469 191.22613 185.60486 190.83594 186.87891 C 190.31355 188.58462 191.34528 191.22818 192.69727 195.05078 C 193.54845 197.45743 194.63181 201.13568 195.10352 203.22656 C 195.94311 206.94801 195.70617 207.18667 190.83008 211.04102 C 185.32045 215.39611 170.91801 223.51183 166.97656 224.48242 C 165.03787 224.95983 162.84766 224.04776 157.52344 220.55078 C 153.71205 218.04745 149.89765 216.00968 149.04688 216.02148 C 148.19609 216.03328 144.38845 218.05827 140.58594 220.52148 C 136.7834 222.98471 132.95121 225 132.06836 225 C 128.39226 225 102.70602 210.28207 101.66992 207.58203 C 101.42265 206.93766 102.28081 202.38061 103.57617 197.45508 C 104.87154 192.52953 106.50639 187.54128 106.52539 186.61914 C 106.54609 185.61587 103.78603 183.88093 100.48828 181.99414 C 92.796434 177.59332 85 171.25023 85 169.39453 C 85 167.54951 91.714161 155.81713 93.359375 154.78711 C 93.98648 154.3945 95.081989 154.65452 95.792969 155.36523 C 96.849835 156.42173 96.423207 157.82848 93.457031 163.07617 L 90.751953 167.5 C 89.969163 169.02753 89.933581 169.88391 91.365234 170.98633 L 93.617188 172.79492 C 95.408899 174.29071 99.413433 176.54668 103.16406 178.51758 C 110.46469 182.35394 112.65263 184.88088 111.1582 187.75 C 110.65686 188.7125 109.42188 193.04382 108.41211 197.375 L 106.57617 205.25 L 109.53711 207.68555 C 111.16636 209.02499 116.89908 212.3532 122.27539 215.08203 C 133.04175 220.54666 131.91046 220.57879 141.06055 214.55273 C 144.04249 212.58889 147.2579 210.73483 148.20703 210.43359 C 149.2645 210.09796 153.03715 211.87765 157.94727 215.02734 L 163.79688 218.7793 C 165.56284 220.01397 166.07691 220.41555 168.07422 218.99805 L 175.33008 214.99023 C 180.48344 212.14362 185.9124 208.84486 187.39453 207.6582 L 188.84961 206.76953 C 189.94038 206.04943 190.14067 204.62418 189.9668 203.39648 L 188.33594 195.42578 C 186.76191 188.93839 185.54615 184.90887 186.11719 183.81836 C 186.60131 182.89383 191.0512 180.00013 196.00781 177.38672 C 208.27093 170.92092 208.6216 170.46676 205.64844 164.875 C 204.34676 162.42687 202.66433 159.43613 201.91016 158.22852 C 200.72636 156.33295 200.758 155.81428 202.14062 154.43164 C 202.6914 153.88086 203.07688 153.55027 203.44141 153.49023 z " />
    <path
       id="path14528"
       style="fill:#8ea4b9;fill-opacity:1"
       d="m 170.98438,69.625 c -0.69293,0.01276 -1.68013,0.217939 -3.17383,0.566406 -3.86358,0.901336 -39.01391,0.634544 -42.73828,-0.324218 -1.89865,-0.488767 -10.13912,15.768915 -19.58204,38.632812 -9.546894,23.11567 -24.624751,53.29205 -30.873042,61.78906 -1.594755,2.11359 -1.540057,3.28069 0.916015,5.24414 1.631915,1.34977 6.414299,4.52122 10.626953,7.04883 4.212655,2.5276 8.495854,5.66701 9.894532,6.97656 l 1.412627,1.40822 c 0.644414,0.53818 0.498972,1.58514 0.261583,2.3319 l -2.531632,8.37902 c -2.109608,6.98223 -2.7988,10.09755 -2.054688,10.99415 1.988823,2.39638 12.065152,8.5629 25.177732,15.4082 7.24923,3.78437 13.88031,6.88959 14.73633,6.90039 0.85603,0.0108 4.74908,-2.23047 8.65234,-4.98047 3.90326,-2.75 7.4029,-5 7.7754,-5 0.37248,0 3.0025,1.49696 5.8457,3.32617 8.93657,5.74943 10.56751,6.67383 11.76953,6.67383 2.18485,0 24.68578,-14.80551 33.50421,-20.6035 1.12915,-0.7424 2.75565,-1.90718 3.2849,-2.40912 0.96931,-0.91931 -0.76884,-4.84915 -2.50375,-9.18188 -2.54318,-6.35129 -4.33139,-9.61146 -3.77447,-11.53609 0.55026,-1.9016 3.87939,-3.91739 9.3895,-7.28503 5.225,-3.19339 10.75323,-6.39064 12.58291,-7.95217 l 2.35121,-2.24504 c 1.34187,-0.96133 1.21407,-1.9572 0.44272,-3.51034 L 214.21484,154.5 C 204.98935,135.92245 204.3798,134.63276 196.51367,117 190.36426,103.21545 184.88883,92.425446 178.77539,82.046875 176.0366,77.39734 173.4178,72.600587 172.95703,71.388672 172.47313,70.115928 172.13925,69.603727 170.98438,69.625 Z M 186.9375,120.5 c 1.59795,0 6.46074,11.04832 5.52734,12.55859 -1.25203,2.02584 -3.51163,0.76751 -5.04492,-2.80859 -2.13133,-4.97093 -2.3687,-9.75 -0.48242,-9.75 z m -75.65625,0.51367 c 1.94422,-0.0359 1.795,3.56782 -0.34375,8.31055 -1.28351,2.84622 -2.5811,5.45703 -2.88477,5.80078 C 107.01725,136.29716 105,134.83917 105,132.91797 c 0,-2.20131 5.10816,-11.8827 6.28125,-11.9043 z M 193.25,137.05664 c 0.83323,-0.0268 1.95031,0.54473 2.92383,1.69336 2.85542,3.36904 5.92368,9.5512 5.4082,10.89453 -0.65203,1.69916 -3.01508,1.75662 -4.33789,0.10547 C 195.46332,147.52715 192,140.12348 192,138.53906 c 0,-0.97024 0.51479,-1.4588 1.25,-1.48242 z m -90.24805,1.28711 c 0.48023,-0.004 0.9565,0.20794 1.44727,0.61523 1.24816,1.03588 1.08154,1.95479 -1.20703,6.6211 C 101.5495,149.0314 99.955007,151 98.851562,151 c -2.828353,0 -3.031323,-1.6385 -0.792968,-6.40039 2.025856,-4.30983 3.502686,-6.2449 4.943356,-6.25586 z m 100.43946,15.14648 c 0.60754,-0.10006 1.15497,0.54868 2.30273,2.17383 4.27117,6.0477 7.42333,13.23313 6.74414,15.37305 -0.60183,1.89621 -9.84095,8.52001 -18.36328,13.16601 -1.54373,0.84157 -2.89931,1.40253 -3.2895,2.67658 -0.52239,1.70572 0.50909,4.34784 1.86108,8.17045 0.85119,2.40665 1.93453,6.0849 2.40624,8.17578 0.8396,3.72145 0.60336,3.96074 -4.27274,7.81509 -5.50963,4.3551 -19.91207,12.47081 -23.85352,13.4414 -1.93869,0.47741 -4.12889,-0.43466 -9.45312,-3.93164 -3.81139,-2.50333 -7.62578,-4.5411 -8.47656,-4.5293 -0.85079,0.0118 -4.65842,2.03678 -8.46094,4.5 -3.80254,2.46323 -7.63473,4.47852 -8.51758,4.47852 -3.6761,0 -29.36234,-14.71793 -30.39844,-17.41797 -0.24727,-0.64437 0.61089,-5.20141 1.90625,-10.12695 1.29537,-4.92555 2.93105,-9.91456 2.95005,-10.8367 0.0207,-1.00327 -2.74019,-2.73745 -6.03794,-4.62424 C 92.796425,177.59331 85,171.25023 85,169.39453 c 0,-1.84502 6.714159,-13.5774 8.359375,-14.60742 0.627106,-0.39261 1.722614,-0.1326 2.433594,0.57812 1.056867,1.0565 0.630241,2.46324 -2.335938,7.71094 l -2.705215,4.42451 c -0.782791,1.52753 -0.818303,2.38383 0.613352,3.48625 l 2.251995,1.80816 c 1.791713,1.49579 5.796264,3.75159 9.546897,5.72249 7.30063,3.83637 9.48857,6.3633 7.99414,9.23242 -0.50134,0.9625 -1.73632,5.29382 -2.74609,9.625 l -1.83594,7.875 2.96094,2.43555 c 1.62925,1.33944 7.36196,4.66765 12.73828,7.39648 10.76637,5.46463 9.63506,5.49676 18.78516,-0.5293 2.98195,-1.96385 6.19735,-3.8179 7.14648,-4.11914 1.05747,-0.33563 4.83012,1.44405 9.74024,4.59375 l 5.84961,3.75196 c 1.76597,1.23467 2.28003,1.63625 4.27734,0.21875 l 7.25586,-4.00782 c 5.15337,-2.84662 10.58232,-6.14537 12.06445,-7.33203 l 1.45537,-0.8895 c 1.09077,-0.7201 1.29089,-2.14363 1.11702,-3.37133 l -1.63116,-7.97222 c -1.57403,-6.4874 -2.78961,-10.51628 -2.21857,-11.60679 0.48412,-0.92453 4.934,-3.81823 9.89062,-6.43164 12.26313,-6.46581 12.6138,-6.91995 9.64063,-12.51172 -1.30168,-2.44813 -2.98411,-5.43886 -3.73828,-6.64648 -1.1838,-1.89557 -1.15217,-2.41424 0.23046,-3.79688 0.55078,-0.55078 0.93626,-0.88137 1.30079,-0.94141 z"
       sodipodi:nodetypes="ssssccscccsssssssssssssccccsssssssscssscssssssssssssssssssssssssssssssssccccsssccsssccccccccssssss" />
    <path
       style="display:inline;fill:#9fd2e2;fill-opacity:1"
       d="m 138.5,254.78388 c -13.24842,-5.49586 -46.145674,-22.22471 -55.25,-28.09562 -8.577679,-5.5313 -8.655294,-5.86684 -4.246447,-18.35804 1.651953,-4.68034 2.794084,-8.84863 2.538067,-9.26288 -0.256016,-0.41424 -4.014331,-2.81519 -8.35181,-5.33543 C 64.667062,188.77985 59.8354,184.51616 57.39202,179.79119 55.597191,176.32037 56.135849,174.48043 61.868636,164.5 71.887114,147.05844 79.104795,133.67119 87.478066,117 95.893275,100.24531 101.18758,90.379879 105.01294,84.325417 106.22728,82.403458 112.75205,78 114.38554,78 c 0.33728,0 -0.92268,3.0375 -2.79991,6.75 -1.87724,3.7125 -5.68971,12.225841 -8.47217,18.91853 -7.947352,19.11591 -16.32443,36.71504 -24.195468,50.83147 -3.986696,7.15 -8.130964,14.78332 -9.209486,16.96294 l -1.011495,2.04416 c -0.68699,1.34344 -0.482629,2.33418 0.584921,3.21138 l 1.841847,1.55162 c 1.856922,1.56432 7.538721,5.33728 12.626221,8.38436 5.700984,3.41452 9.249948,6.17425 9.249864,7.19284 -7.5e-5,0.90899 -1.118322,5.2527 -2.484994,9.6527 -3.493778,11.24822 -3.425494,11.61222 2.97562,15.86232 7.03503,4.671 37.78543,20.63768 39.74631,20.63768 0.81941,0 4.53785,-2.25 8.2632,-5 3.72535,-2.75 6.73626,-5 7.60576,-5 1.05661,0 4.27904,2.25 8.49162,5 4.21258,2.75 8.19571,5 8.85141,5 2.9816,0 40.95641,-23.18104 41.92828,-25.59438 0.2424,-0.6019 -0.8557,-4.8769 -2.44023,-9.5 -1.58452,-4.62309 -2.89352,-9.32909 -2.90889,-10.45778 -0.0205,-1.50375 2.40911,-3.61896 9.0917,-7.91524 C 223.56513,179.17423 227,176.29359 227,174.05325 227,173.08032 222.23372,162.43282 216.40826,150.39214 210.5828,138.35146 203.78782,124 201.30831,118.5 c -6.83942,-15.17105 -11.9467,-25.668121 -15.83959,-32.555339 -1.93584,-3.424853 -3.32798,-6.418732 -3.09365,-6.653065 0.93579,-0.935792 10.2553,4.683937 12.19982,7.35658 2.92358,4.018293 7.14478,12.326678 15.87602,31.247954 6.76608,14.66263 12.49488,25.65005 23.25627,44.60387 1.87364,3.3 4.31444,7.94047 5.42401,10.31215 1.86472,3.98584 1.89789,4.49453 0.43828,6.72218 -1.66923,2.54756 -17.2609,14.84332 -22.29522,17.58224 l -2.97136,1.61657 3.30838,9.87764 c 2.80488,8.37437 3.11597,10.1829 2.04412,11.88343 -1.9936,3.16292 -22.84976,16.6383 -37.65539,24.32953 -11.87761,6.17019 -30.54859,14.23814 -32.72847,14.14236 C 148.84719,258.94746 144,257.06546 138.5,254.78388 Z"
       id="path14530"
       sodipodi:nodetypes="ssssssssssssssccssssssssssssssssssssssssscsssss" />
  </g>
</svg>
