<?xml version="1.0" encoding="UTF-8" standalone="no"?>
<!-- Created with Inkscape (http://www.inkscape.org/) -->

<svg
   version="1.1"
   id="svg20157"
   width="300"
   height="300"
   viewBox="0 0 300 300"
   sodipodi:docname="furniture_stool.svg"
   inkscape:version="1.2.2 (732a01da63, 2022-12-09)"
   xmlns:inkscape="http://www.inkscape.org/namespaces/inkscape"
   xmlns:sodipodi="http://sodipodi.sourceforge.net/DTD/sodipodi-0.dtd"
   xmlns="http://www.w3.org/2000/svg"
   xmlns:svg="http://www.w3.org/2000/svg">
  <defs
     id="defs20161">
    <filter
       inkscape:collect="always"
       style="color-interpolation-filters:sRGB"
       id="filter20672"
       x="-0.059226368"
       y="-0.058837264"
       width="1.1187111"
       height="1.1176898">
      <feGaussianBlur
         inkscape:collect="always"
         stdDeviation="1.9494"
         id="feGaussianBlur20674" />
    </filter>
  </defs>
  <sodipodi:namedview
     id="namedview20159"
     pagecolor="#ffffff"
     bordercolor="#000000"
     borderopacity="0.25"
     inkscape:showpageshadow="2"
     inkscape:pageopacity="0.0"
     inkscape:pagecheckerboard="0"
     inkscape:deskcolor="#d1d1d1"
     showgrid="false"
     inkscape:zoom="0.835"
     inkscape:cx="-726.3473"
     inkscape:cy="125.7485"
     inkscape:window-width="2560"
     inkscape:window-height="1369"
     inkscape:window-x="1912"
     inkscape:window-y="-8"
     inkscape:window-maximized="1"
     inkscape:current-layer="g20163" />
  <g
     inkscape:groupmode="layer"
     inkscape:label="Image"
     id="g20163">
    <path
       id="path20657"
       style="fill:none;stroke:#753f4b;stroke-opacity:1;stroke-width:12.3;stroke-dasharray:none;filter:url(#filter20672)"
       d="M 149.7832 58.896484 C 142.25313 58.707489 135.26852 60.464985 119.33789 63.933594 C 65.532071 75.648842 67.74069 75.026379 65.876953 79.021484 C 64.297354 82.40751 58 107.48303 58 110.38672 C 58 112.62511 61.243354 113.50802 121.5 127.6582 C 127.54999 129.07893 135.65 131.04561 139.5 132.0293 C 143.35 133.013 147.79772 133.8582 149.38477 133.9082 C 151.93974 133.98878 161.37015 131.61812 201 120.92578 C 206.77499 119.36765 214.2 117.37977 217.5 116.50977 C 220.8 115.63976 227.4375 113.74868 232.25 112.30664 C 242.46148 109.24681 242.14573 110.06599 238.56055 95.994141 C 235.50106 83.985676 232.65982 77.323839 230.32422 76.677734 C 229.32071 76.40013 220.62499 74.318958 211 72.052734 C 201.37501 69.78651 188.99999 66.857689 183.5 65.544922 C 165.38813 61.221888 157.31328 59.08548 149.7832 58.896484 z M 217.18945 126.69141 C 213.54289 126.9077 194.19149 132.40812 192.9043 133.69531 C 191.82476 134.77485 191.76471 134.07492 196.94336 181.46289 C 198.62407 196.84242 200 209.99033 200 210.68164 C 200 211.37294 202.1375 212.59705 204.75 213.40039 C 211.0164 215.32729 211.07738 215.32554 216.62109 212.94922 C 228.45107 207.8783 238 202.68638 238 201.32617 C 238 198.97571 223.10355 140.12121 220.41211 131.83789 C 219.57884 129.27339 218.35846 126.97007 217.69922 126.7207 C 217.60571 126.68533 217.43256 126.67699 217.18945 126.69141 z M 80.466797 128.08789 C 79.699193 128.07037 79.099185 128.13152 78.708984 128.28125 C 76.875438 128.98485 75.76187 132.67359 70.488281 155.5 C 68.455217 164.29999 65.463137 176.77814 63.839844 183.22852 C 62.0366 190.39394 61.006591 196.81294 61.193359 199.72852 C 61.49905 204.50055 61.500012 204.49907 74 210.69531 C 80.874993 214.10325 87.446137 216.91575 88.601562 216.94531 C 90.376099 216.99071 96.805295 215.25266 97.8125 214.45508 C 98.260609 214.10023 100.75927 172.68663 101.58789 151.87695 C 102.28965 134.25301 102.28937 134.25217 96.394531 132.0332 C 90.261744 129.72466 83.79308 128.16381 80.466797 128.08789 z M 130.60352 137.45703 C 129.7432 137.4344 129.25868 137.58074 129.06836 137.88867 C 127.98124 139.64768 122.04607 218.88915 122.00977 232.12891 C 121.99827 236.32772 122.58697 236.67652 136.10156 240.48828 C 140.72032 241.79099 145.45085 242.88853 146.61328 242.92773 C 152.81911 243.13712 168.56878 238.28865 171.63281 235.22461 C 173.07602 233.7814 173.18974 231.39033 172.60938 214.54688 C 171.47009 181.48258 168.9257 138.53302 168.05469 137.6582 C 167.59381 137.1953 162.6807 137.82858 157.13672 139.06641 C 147.05675 141.31704 147.05667 141.31829 138.41406 139.03516 C 134.51507 138.00515 132.03738 137.49475 130.60352 137.45703 z " />
    <path
       style="fill:#ce9e9a"
       d="M 74,210.69625 C 61.5,204.5 61.5,204.5 61.194309,199.72796 c -0.186769,-2.91558 0.842508,-9.33457 2.645754,-16.5 1.623295,-6.45038 4.614862,-18.92796 6.647928,-27.72796 5.273594,-22.82643 6.387735,-26.51508 8.221283,-27.21868 2.081072,-0.79858 10.137513,0.9105 17.685566,3.75179 5.89484,2.21897 5.89484,2.21897 5.19308,19.84293 -0.82862,20.8097 -3.326907,62.22442 -3.775016,62.57927 -1.007206,0.79758 -7.437589,2.53634 -9.212127,2.49094 C 87.44535,216.91669 80.875,214.10419 74,210.69625 Z"
       id="path20663" />
    <path
       id="path20659"
       style="fill:#f6f6e1"
       d="M 149.7832 58.896484 C 142.25313 58.707489 135.26852 60.464985 119.33789 63.933594 C 65.532071 75.648842 67.74069 75.026379 65.876953 79.021484 C 64.297354 82.40751 58 107.48303 58 110.38672 C 58 112.62511 61.243354 113.50802 121.5 127.6582 C 127.54999 129.07893 135.65 131.04561 139.5 132.0293 C 143.35 133.013 147.79772 133.8582 149.38477 133.9082 C 151.93974 133.98878 161.37015 131.61812 201 120.92578 C 206.77499 119.36765 214.2 117.37977 217.5 116.50977 C 220.8 115.63976 227.4375 113.74868 232.25 112.30664 C 242.46148 109.24681 242.14573 110.06599 238.56055 95.994141 C 235.50106 83.985676 232.65982 77.323839 230.32422 76.677734 C 229.32071 76.40013 220.62499 74.318958 211 72.052734 C 201.37501 69.78651 188.99999 66.857689 183.5 65.544922 C 165.38813 61.221888 157.31328 59.08548 149.7832 58.896484 z M 217.18945 126.69141 C 213.54289 126.9077 194.19149 132.40812 192.9043 133.69531 C 191.82476 134.77485 191.76471 134.07492 196.94336 181.46289 C 198.62407 196.84242 200 209.99033 200 210.68164 C 200 211.37294 202.1375 212.59705 204.75 213.40039 C 211.0164 215.32729 211.07738 215.32554 216.62109 212.94922 C 228.45107 207.8783 238 202.68638 238 201.32617 C 238 198.97571 223.10355 140.12121 220.41211 131.83789 C 219.57884 129.27339 218.35846 126.97007 217.69922 126.7207 C 217.60571 126.68533 217.43256 126.67699 217.18945 126.69141 z M 130.60352 137.45703 C 129.7432 137.4344 129.25868 137.58074 129.06836 137.88867 C 127.98124 139.64768 122.04607 218.88915 122.00977 232.12891 C 121.99827 236.32772 122.58697 236.67652 136.10156 240.48828 C 140.72032 241.79099 145.45085 242.88853 146.61328 242.92773 C 152.81911 243.13712 168.56878 238.28865 171.63281 235.22461 C 173.07602 233.7814 173.18974 231.39033 172.60938 214.54688 C 171.47009 181.48258 168.9257 138.53302 168.05469 137.6582 C 167.59381 137.1953 162.6807 137.82858 157.13672 139.06641 C 147.05675 141.31704 147.05667 141.31829 138.41406 139.03516 C 134.51507 138.00515 132.03738 137.49475 130.60352 137.45703 z " />
  </g>
</svg>
