<?xml version="1.0" encoding="UTF-8" standalone="no"?>
<!-- Created with Inkscape (http://www.inkscape.org/) -->

<svg
   version="1.1"
   id="svg17091"
   width="300"
   height="300"
   viewBox="0 0 300 300"
   sodipodi:docname="hat_pencil.svg"
   inkscape:version="1.2.2 (732a01da63, 2022-12-09)"
   xmlns:inkscape="http://www.inkscape.org/namespaces/inkscape"
   xmlns:sodipodi="http://sodipodi.sourceforge.net/DTD/sodipodi-0.dtd"
   xmlns="http://www.w3.org/2000/svg"
   xmlns:svg="http://www.w3.org/2000/svg">
  <defs
     id="defs17095">
    <filter
       inkscape:collect="always"
       style="color-interpolation-filters:sRGB"
       id="filter18328"
       x="-0.061539209"
       y="-0.069785556"
       width="1.1229786"
       height="1.1385697">
      <feGaussianBlur
         inkscape:collect="always"
         stdDeviation="1.9494"
         id="feGaussianBlur18330" />
    </filter>
  </defs>
  <sodipodi:namedview
     id="namedview17093"
     pagecolor="#ffffff"
     bordercolor="#000000"
     borderopacity="0.25"
     inkscape:showpageshadow="2"
     inkscape:pageopacity="0.0"
     inkscape:pagecheckerboard="0"
     inkscape:deskcolor="#d1d1d1"
     showgrid="false"
     inkscape:zoom="1.1808683"
     inkscape:cx="-51.233485"
     inkscape:cy="176.9884"
     inkscape:window-width="2560"
     inkscape:window-height="1369"
     inkscape:window-x="1912"
     inkscape:window-y="-8"
     inkscape:window-maximized="1"
     inkscape:current-layer="g17097" />
  <g
     inkscape:groupmode="layer"
     inkscape:label="Image"
     id="g17097">
    <path
       id="path18315"
       style="fill:none;fill-opacity:1;stroke:#753f4b;stroke-opacity:1;stroke-width:12.3;stroke-dasharray:none;opacity:1;filter:url(#filter18328)"
       d="M 64.648438 71.615234 C 64.575188 71.620276 64.51128 71.63348 64.457031 71.654297 C 61.743546 72.695559 62.887241 76.92194 67.126953 81.521484 C 69.396999 83.984193 71.730497 86 72.3125 86 C 73.819196 86 78 81.889594 78 80.408203 C 78 78.675844 66.919182 71.458933 64.648438 71.615234 z M 86.089844 82.728516 C 85.171557 83.009826 83.509523 85.898235 81.109375 88.830078 L 78.095703 92.511719 C 77.316746 93.40047 76.910668 94.75937 77.763672 96.335938 L 81.042969 103.33008 C 85.347957 112.51529 89.513867 120.40712 91.294922 122.75 C 92.514886 124.3548 93.484745 124.32325 96.798828 122.57422 C 102.63192 119.49576 119 100.55193 119 96.878906 C 119 95.870677 117.9875 94.386983 116.75 93.582031 C 113.15316 91.242412 87.042626 82.436637 86.089844 82.728516 z M 127.36523 102.02539 C 126.74099 102.01138 125.54689 103.0416 124.71289 104.31445 C 122.94298 107.01568 116.08375 114.77982 107.25 124.08008 C 103.8125 127.69911 101.0149 131.07412 101.0332 131.58008 C 101.08418 132.98989 103.8469 135.88635 112.02148 143.09961 C 120.03486 150.17061 149.69121 175.31561 162.61914 186 C 166.94483 189.575 171.61305 193.46352 172.99219 194.64062 C 174.37132 195.81772 179.29899 200.02932 183.94141 204 C 196.32002 214.58748 204.91259 221.28341 210 224.30664 C 214.58615 227.03199 217.35032 227.48072 222.83008 226.38477 C 230.02117 224.94655 239.07059 213.02017 239.18359 204.83203 C 239.23838 200.86234 238.79909 200.23752 229.87109 191.56445 C 220.09763 182.07008 210.66586 173.74951 185.5 152.41992 C 177.25001 145.42756 168.66511 138.08526 166.42188 136.10352 C 154.59006 125.65092 147.54551 119.35152 138.5 111.13477 C 133.00001 106.13868 127.98947 102.03939 127.36523 102.02539 z " />
    <path
       style="fill:#ce9e9a;fill-opacity:1"
       d="M 67.12736,81.522343 C 62.887644,76.922794 61.743992,72.695953 64.45748,71.65469 66.193427,70.988545 78,78.620184 78,80.408427 78,81.889819 73.819607,86 72.312909,86 71.730905,86 69.397408,83.985054 67.12736,81.522343 Z"
       id="path18317" />
    <path
       style="fill:#f6f6e1;fill-opacity:1"
       d="m 91.29464,122.75 c -1.781057,-2.34288 -5.947107,-10.23415 -10.2521,-19.41937 L 77.763779,96.334999 C 76.910774,94.75843 77.31587,93.401128 78.094828,92.512376 l 3.014054,-3.681747 c 2.40015,-2.931846 4.063118,-5.819878 4.981406,-6.101189 0.952783,-0.291879 27.062872,8.513494 30.659712,10.853116 1.2375,0.804953 2.25,2.288465 2.25,3.296695 0,3.673029 -16.36724,22.617169 -22.20034,25.695629 -3.314086,1.74903 -4.285055,1.77992 -5.50502,0.17512 z"
       id="path18319" />
    <path
       style="fill:#ce9e9a;fill-opacity:1"
       d="m 210,224.30692 c -5.08742,-3.02323 -13.68061,-9.71962 -26.05924,-20.30711 -4.64242,-3.97068 -9.56915,-8.18251 -10.94828,-9.35961 -1.37914,-1.17711 -6.04673,-5.0652 -10.37242,-8.6402 -12.92794,-10.6844 -42.58531,-35.82984 -50.59869,-42.90085 -8.17459,-7.21327 -10.93712,-10.10928 -10.9881,-11.51909 -0.0183,-0.50596 2.77923,-3.88096 6.21673,-7.5 8.83376,-9.30027 15.69374,-17.06456 17.46365,-19.76579 0.834,-1.27285 2.02712,-2.30281 2.65136,-2.2888 0.62424,0.014 5.63499,4.11317 11.13499,9.10926 9.04552,8.21676 16.08956,14.51583 27.92139,24.96844 2.24324,1.98175 10.82861,9.32421 19.07861,16.31658 25.16589,21.32961 34.59672,29.64962 44.37019,39.144 8.92801,8.67308 9.36747,9.29923 9.31268,13.26893 -0.113,8.18815 -9.16109,20.11296 -16.35219,21.55118 -5.47976,1.09596 -8.24453,0.64841 -12.83068,-2.07694 z"
       id="path18321" />
  </g>
</svg>
