<?xml version="1.0" encoding="UTF-8" standalone="no"?>
<!-- Created with Inkscape (http://www.inkscape.org/) -->

<svg
   version="1.1"
   id="svg2"
   width="300"
   height="300"
   viewBox="0 0 300 300"
   sodipodi:docname="outfit_ultimate.svg"
   inkscape:version="1.2.2 (732a01da63, 2022-12-09)"
   inkscape:export-filename="outfit_ultimate.png"
   inkscape:export-xdpi="96"
   inkscape:export-ydpi="96"
   xmlns:inkscape="http://www.inkscape.org/namespaces/inkscape"
   xmlns:sodipodi="http://sodipodi.sourceforge.net/DTD/sodipodi-0.dtd"
   xmlns="http://www.w3.org/2000/svg"
   xmlns:svg="http://www.w3.org/2000/svg">
  <defs
     id="defs6">
    <filter
       inkscape:collect="always"
       style="color-interpolation-filters:sRGB"
       id="filter3928"
       x="-0.077109506"
       y="-0.046689236"
       width="1.1536277"
       height="1.0933787">
      <feGaussianBlur
         inkscape:collect="always"
         stdDeviation="1.9494"
         id="feGaussianBlur3930" />
    </filter>
  </defs>
  <sodipodi:namedview
     id="namedview4"
     pagecolor="#ffffff"
     bordercolor="#000000"
     borderopacity="0.25"
     inkscape:showpageshadow="2"
     inkscape:pageopacity="0.0"
     inkscape:pagecheckerboard="0"
     inkscape:deskcolor="#d1d1d1"
     showgrid="false"
     inkscape:zoom="1.1808683"
     inkscape:cx="-43.188558"
     inkscape:cy="155.81754"
     inkscape:window-width="1350"
     inkscape:window-height="1205"
     inkscape:window-x="2232"
     inkscape:window-y="148"
     inkscape:window-maximized="0"
     inkscape:current-layer="g8" />
  <g
     inkscape:groupmode="layer"
     inkscape:label="Image"
     id="g8">
    <path
       id="path1000"
       style="display:inline;fill:none;fill-opacity:1;stroke:#753f4b;stroke-opacity:1;stroke-width:12.3;stroke-dasharray:none;filter:url(#filter3928)"
       d="M 136.11328 30.03125 C 135.46204 30.02275 134.82403 30.030734 134.22461 30.066406 C 133.33449 30.146236 132.53795 30.684023 132.10938 31.582031 L 131.7793 32.974609 C 130.96128 36.429944 132.31807 55.797213 134.54688 62.25 L 135.75391 65.556641 C 135.95776 66.527823 136.98736 66.959426 138.00781 66.939453 L 143.84375 66.992188 C 148.05455 66.988288 154.55801 66.696654 158.29492 66.34375 C 161.6389 66.027955 164.35061 66.073655 165.57422 65.357422 C 166.7861 64.648049 167.49686 60.071119 168.62305 52.572266 C 170.34902 41.079652 170.53245 32.33803 168.98828 31.144531 C 167.45382 29.95853 166.35935 29.979158 161.08008 30.189453 C 158.70138 30.131763 152.86182 31.538332 150.07617 31.482422 C 147.95364 31.439822 143.82523 30.608869 141.75586 30.394531 C 140.04264 30.174923 138.067 30.056671 136.11328 30.03125 z M 173.12695 40.521484 C 172.93785 40.518684 172.76867 40.54156 172.62109 40.59375 C 172.15396 40.758944 171.99714 41.677982 171.99414 42.25 C 171.99114 42.937498 171.3159 47.960041 170.49414 53.412109 C 169.33052 61.132356 168.5335 64.378771 169.08008 66.201172 C 169.46927 67.49878 170.69582 68.073573 172.25 69.03125 C 174.78991 70.596329 177.43559 71.579642 178.46094 71.138672 C 179.49258 70.694998 179.91799 68.42594 180.56445 65.5 C 181.17204 62.750004 181.96783 57.255224 182.33789 53.289062 L 182.91406 47.111328 C 182.97646 46.446456 182.63319 45.711956 182.23438 45.523438 L 179.27148 43.539062 C 176.74066 41.843569 174.45067 40.540984 173.12695 40.521484 z M 128.38672 41.197266 C 127.05904 41.276896 120.24378 45.796171 119.30664 47.3125 C 117.82641 49.707565 120.33735 69.500846 122.58203 73.132812 C 122.88821 73.628217 123.66886 73.718689 124.31836 73.335938 C 132.59956 68.455545 133.20683 67.859965 132.60547 65.173828 C 132.27632 63.703605 131.35558 57.837922 130.56055 52.140625 C 129.76552 46.443328 128.87306 41.539081 128.57617 41.242188 C 128.53977 41.205828 128.47523 41.191956 128.38672 41.197266 z M 185.80273 49.376953 C 185.37527 49.392803 185.02051 49.946995 184.83984 50.835938 L 183.89062 56.039062 C 183.09856 60.379524 182.61582 68.873276 182.73633 76.347656 C 182.91823 87.630247 183.24418 89.853759 185.41602 94.597656 C 186.77622 97.568783 187.73417 99.961766 188.70312 99.972656 C 190.40219 99.991746 204.39094 89.563709 204.86133 88.337891 C 205.46172 86.773311 190.62195 55.704125 187.7207 51.539062 L 186.62891 49.972656 C 186.34161 49.550904 186.05921 49.367444 185.80273 49.376953 z M 115.18945 53.611328 C 114.86602 53.689048 114.48272 54.156415 113.92773 54.841797 C 112.94333 56.057511 108.48354 64.098753 104.01758 72.710938 L 96.716797 86.789062 C 96.223885 87.726328 96.328676 88.718151 96.966797 89.216797 L 99.134766 90.933594 C 100.9158 92.344617 104.42783 94.938122 106.9375 96.695312 C 109.44717 98.452504 112.04987 99.723122 112.63281 99.945312 C 113.71903 100.35934 114.74385 97.6137 116.33008 94.685547 C 117.38048 92.74651 118.30786 91.459968 118.8125 88.685547 C 119.17629 86.685099 118.38857 84.375667 118.51562 81.982422 C 118.62487 79.925 119.90399 78.363599 119.93359 76.083984 C 120.00389 70.67537 118.68775 65.090254 117.60938 60.566406 C 116.31912 55.153843 115.901 53.44034 115.18945 53.611328 z M 157.98828 69 L 147.65039 69.318359 C 147.65039 69.318359 136.92923 68.910009 135.37695 69.318359 C 133.82466 69.726711 129.22656 72.931641 129.22656 72.931641 C 120.86035 78.338982 120.65348 78.892279 121.94922 92.308594 C 123.46229 107.97515 123.66218 108.68735 126.80859 109.56055 C 128.2887 109.9713 134.78594 110.49853 140.83594 110.87109 C 156.21625 111.81823 167.73153 111.98554 170.23828 109.90234 C 170.95367 109.30783 170.66952 107.82574 173.15625 106.60156 C 173.93661 106.2174 176.00186 105.77072 176.79297 105.76172 C 180.07642 105.72432 180.07448 104.6576 180.10938 97.765625 C 180.12677 94.318743 180.63148 88.837494 180.74609 85.8125 C 180.91745 81.290003 180.65829 77.842238 179.68555 76.328125 C 178.97393 75.220434 176.17348 73.529712 173.34961 71.914062 C 170.34161 70.193064 167.94685 68.865042 167.20312 69.146484 C 166.45278 69.430434 166.35907 70.467757 166.26367 71.490234 C 166.16657 72.530817 165.82837 73.718085 165.58203 74.347656 C 164.84343 76.235315 164.19342 77.679595 164.64648 78.283203 C 164.94745 78.684192 165.76436 78.927885 166.76367 79.074219 C 168.96338 79.396328 169 80.401726 169 88.320312 C 169 95.02743 168.65106 97.005862 167.24609 98.277344 C 164.70889 100.57349 154.88006 104.97883 152.26953 104.99023 C 149.44057 105.00263 142.60324 102.32555 137.75 99.306641 L 136.16797 98.322266 C 134.37936 97.209682 134.0388 96.753618 134 94.816406 L 134 88.546875 C 134 83.801744 133.69584 80.538359 134.8125 79.513672 C 135.68786 78.710409 140.33289 78.581855 145.53516 78.271484 L 153.98438 77.767578 C 154.87133 77.714668 155.3041 77.488438 155.70703 76.794922 L 157.42578 73.353516 C 157.94801 72.419137 158.46995 71.48516 158.99219 70.550781 C 159.68588 69.35842 159.22725 69.0127 157.98828 69 z M 142.64453 80.052734 C 138.87578 80.085434 136.90573 80.344306 136.16211 81.107422 C 134.86295 82.440649 135.13524 87.646833 135.41211 92.111328 C 135.51001 93.68991 135.36971 95.090794 135.91016 96.083984 C 136.95437 98.002892 139.61984 99.012022 145 101.13281 C 147.475 102.10842 150.625 102.92296 152 102.94336 C 155.04043 102.98836 164.78558 98.293566 166.72266 96.074219 C 167.73039 94.919642 167.83437 82.475809 166.53125 81.195312 C 165.85978 80.535503 159.38414 80.355142 151.49414 80.177734 C 147.8146 80.095004 144.9058 80.033116 142.64453 80.052734 z M 207.94531 91.986328 L 204.22266 93.892578 C 199.28225 96.420017 190 103.87258 190 105.3125 C 190 105.58938 190.65601 106.96242 191.62695 108.82812 C 191.62896 108.83198 191.63275 108.83793 191.63477 108.8418 C 192.04492 109.6296 192.64594 110.68812 193.17773 111.66211 C 193.1807 111.66754 193.18453 111.67425 193.1875 111.67969 C 194.25326 113.63124 195.33905 115.62344 196.71094 117.97852 C 203.1132 128.96903 203.44228 129.84592 203.81055 137 C 203.92409 139.20527 203.5119 141.51189 203.74609 143.06055 C 203.94999 144.40868 204.79274 145.13204 204.99805 145.34961 C 205.4392 145.81711 206.74539 145.25461 207.90039 144.09961 C 209.05539 142.94461 209.9631 142.02548 210.75 142.02148 C 211.53677 142.01748 212.78422 143.85657 214.35352 146.07422 C 216.08288 148.5181 217.83853 149.83887 218.85352 149.79297 C 221.72452 149.66325 221.40279 147.01787 221.59961 143.59766 C 221.83065 139.58258 220.61105 134.28397 219.54297 128.58398 C 218.02289 120.47182 214.13921 106.56934 211.48828 99.097656 C 211.48008 99.074529 211.47497 99.063983 211.4668 99.041016 C 211.00639 97.746332 210.59749 96.70051 210.23242 95.867188 C 210.23172 95.865596 210.23117 95.864871 210.23047 95.863281 C 209.96476 95.257142 209.70148 94.666767 209.50391 94.365234 L 207.94531 91.986328 z M 93.873047 92.361328 C 93.228632 92.391328 92.787474 92.835466 92.107422 93.554688 C 91.939988 93.731765 91.71872 94.136983 91.474609 94.636719 C 91.127028 95.348277 90.689074 96.455535 90.222656 97.699219 C 90.220919 97.703852 90.220488 97.7063 90.21875 97.710938 C 87.292959 105.51668 82.489007 122.2119 81.042969 130.43359 C 79.890312 136.98723 79.668692 145.97445 80.599609 148.40039 C 81.396761 150.47773 84.134716 149.02314 86.998047 145.00195 C 89.538726 141.43391 90.918854 141.2554 93.416016 144.17188 C 95.22792 146.28802 95.311127 146.29484 96.662109 144.44727 C 97.639401 143.11074 97.880907 140.91966 97.480469 137.02539 C 96.946187 131.82954 97.183946 131.0225 101.46484 123.5 C 103.83365 119.33747 106.73877 114.01529 108.30859 111.00195 C 108.39819 110.83005 108.61964 110.44377 108.69922 110.28906 C 109.22745 109.26215 109.57757 108.54916 109.90039 107.86719 C 111.17593 105.17257 110.97033 104.62492 109.53516 103.03906 C 108.52127 101.91873 104.59867 98.88961 100.81836 96.306641 C 96.582494 93.412403 94.947073 92.311334 93.873047 92.361328 z M 178.5918 108.0625 C 177.42423 108.0346 176.23159 108.34252 174.57422 108.97266 C 172.26805 109.84946 172.13082 110.1921 173.16992 112.47266 C 174.53453 115.46764 179.21283 115.94005 182.77734 113.44336 C 185.64309 111.43611 185.5789 110.58434 182.45312 109.16016 C 180.90161 108.45323 179.75937 108.09044 178.5918 108.0625 z M 123.79883 112.12305 C 123.62476 112.12905 123.52189 112.14417 123.49805 112.16797 C 123.30728 112.35874 123.0054 113.84446 122.82617 115.46875 C 122.43591 119.00554 124.8309 120.49606 133.11133 121.87109 C 139.5992 122.94846 158.92194 123.2458 165.33203 122.36719 C 170.86188 121.60924 173.78728 118.3396 171.9707 114.94531 C 170.93523 113.01051 170.28234 112.94186 158.69141 113.57422 C 151.21574 113.98206 142.11807 113.77287 135.17188 113.03125 C 129.72063 112.44924 125.01733 112.07864 123.79883 112.12305 z M 179.23438 117 C 172.40219 117 167.34139 131.80496 173.33594 134.20312 C 174.05898 134.49238 176.44637 134.87848 178.82617 134.92188 C 182.32836 134.98577 183.70782 134.4465 186.05859 132.0957 C 188.681 129.47332 188.8586 128.89122 187.88477 126.09766 C 186.45956 122.0093 181.69669 117 179.23438 117 z M 122.42383 122.38086 C 122.25552 122.39126 122.14313 122.41231 122.08984 122.44531 C 119.71924 123.91043 111.82046 158.7311 109.39453 178.41406 L 108.08398 189.04297 L 107.83203 191.09375 L 107.7832 191.48438 C 107.73 192.10423 107.79643 192.40284 108.24023 192.79102 L 108.58984 193.08008 L 110.20312 194.41406 C 111.59098 195.56139 114.13811 197.26622 115.86328 198.20312 C 116.50432 198.55126 117.02128 198.87087 117.43555 199.19727 C 117.84981 199.52366 118.16075 199.85773 118.39258 200.23438 C 118.62441 200.61102 118.77735 201.03041 118.87109 201.5293 C 118.96484 202.02819 119 202.60571 119 203.29883 C 119 205.28571 119.72478 207.31663 120.75 208.20312 C 121.36568 208.73551 122.58293 209.41521 124.18164 210.16016 C 125.78035 210.9051 127.76106 211.71612 129.90625 212.51172 C 134.19664 214.10292 139.14293 215.6327 143 216.45508 C 146.575 217.21731 150.175 217.87065 151 217.90625 C 154.11293 218.04056 165.25426 214.91114 172.50586 211.86719 C 180.0441 208.7029 180.33686 208.3919 181.21875 202.53516 C 181.38147 201.4545 183.08662 199.56022 185.00781 198.32617 C 186.71466 197.2298 187.99047 196.44276 188.99023 195.74219 C 189.22585 195.57745 189.54533 195.35408 189.74609 195.19727 C 189.84043 195.12281 189.90908 195.05016 189.99609 194.97656 C 190.85061 194.26036 191.38336 193.52142 191.64062 192.58008 C 191.68539 192.41563 191.71372 192.22568 191.74414 192.04492 C 191.85458 191.38502 191.89574 190.60242 191.84766 189.62891 C 191.7594 187.84196 191.47263 185.46753 191.10352 181.94336 C 189.80225 169.51949 186.1956 142.87595 185.32422 139.25 C 184.84852 137.27059 184.15189 137 179.52734 137 C 172.51209 137 169.01286 134.5207 168.80664 128.86133 L 168.70898 126.2168 C 168.71398 125.0363 168.27949 124.67611 166.69141 124.79883 L 154.5 124.92188 C 145.68304 125.01177 137.23509 124.4916 131.68164 123.51562 C 127.43797 122.76985 123.60198 122.30824 122.42383 122.38086 z M 151.31641 135.00391 C 160.87314 134.99991 162.57284 135.56649 168.25195 140.64453 C 170.31604 142.49015 172.22409 143.39424 172.83203 143.74414 C 173.51054 144.13465 175.54238 144.97427 176.74609 146.0957 C 177.24677 146.56215 178.08954 147.6697 178.14062 148.27734 C 178.2717 149.83638 178.56584 151.64069 178.64062 159.51172 C 178.74336 170.31592 177.87831 170.99523 175.76367 172.12695 C 172.92302 173.64722 141.56279 174.26585 134.18164 172.94727 C 124.7041 171.25416 124.67254 171.88979 124.99414 158.51562 L 125.23438 148.54102 C 125.21168 147.26115 125.61403 146.37425 126.69336 145.67578 L 131 142.70117 C 142.49619 134.75975 141.84089 135.00791 151.31641 135.00391 z M 148.82617 136.05859 C 143.93168 136.00889 142.55878 136.44618 138.82617 139.25 C 137.48846 140.25484 136.16488 141.83819 134.41797 143.03906 C 132.23394 144.20208 130.22172 145.28402 128.23047 146.7168 C 126.60363 147.88641 126.6534 148.55986 126.42578 150.44727 L 126 158.45508 C 126 169.93083 126.04862 170.02554 132.5 171.08984 C 135.70536 171.61864 144.18059 172.05669 152.65625 172.05469 C 162.35022 172.05269 172.04539 171.53197 173.85156 170.90234 L 175.73438 170.24609 C 176.839 169.84232 176.9578 169.5064 177 167.87109 L 177 158.92188 L 177.05664 151.25586 C 177.05664 149.16439 176.66514 147.84473 174.91602 146.9707 L 173.25 146.11523 C 171.1875 145.05579 167.75541 142.68296 165.62305 140.84375 C 164.04932 139.48639 162.92629 138.1501 161.18164 137.42578 C 158.27438 136.21879 154.33759 136.11459 148.82617 136.05859 z M 107.69727 196.40625 C 107.27494 196.34385 107.00348 196.59531 106.86914 197.47461 L 106.61523 198.77148 C 106.32126 200.27239 105.80998 204.2 105.47852 207.5 C 105.14707 210.8 104.65557 214.67954 104.38672 216.12109 C 103.98098 218.29663 104.49618 219.0948 107.41406 220.81641 C 112.22875 223.65711 125.70702 227.80567 135.4375 229.44141 C 139.87206 230.18689 144.36599 230.71005 144.74609 230.76562 C 146.31393 230.99513 147.73625 221.8082 145.81445 220.36133 C 145.09159 219.8171 139.09997 217.43899 132.5 215.07617 C 125.90003 212.71336 119.93265 210.32085 119.24023 209.75977 C 118.92762 209.50646 118.13395 209.23298 117.81836 208.46094 C 117.43496 207.5229 117.54469 205.18137 117.35547 203.99805 C 116.80419 200.55058 116.14875 200.60176 111.93945 198.46875 L 108.62305 196.78906 C 108.25884 196.59467 107.95066 196.4437 107.69727 196.40625 z M 191.01172 197.18359 C 190.11478 197.24279 188.83445 197.98399 186.93555 199.26367 C 184.73369 200.7475 183.47974 201.83656 183.04688 203.95312 C 182.68358 205.72945 183.16401 208.83374 181.69141 209.63477 C 179.90288 210.60761 164.39702 217.35417 159.25 218.46094 C 156.13711 219.13031 156 219.36076 156 223.91406 C 156 226.52869 156.3375 229.0149 156.75 229.43945 C 158.11085 230.84007 168.33299 229.10321 179 225.66016 C 195.59506 220.30363 195.28568 220.52484 194.60938 214.54883 C 194.29514 211.77218 193.74499 206.6875 193.38867 203.25 C 192.93599 198.88292 192.50661 197.085 191.01172 197.18359 z M 190.41797 224.23633 C 190.33837 224.24233 190.25673 224.2558 190.17383 224.2793 C 178.41515 227.6071 163.50058 232.16739 163.11719 232.55078 C 162.20234 233.46563 164.49346 238.28972 166.25 239.14648 C 167.2125 239.61595 168.78377 240.38365 169.74219 240.85352 C 170.70062 241.32339 172.9215 245.26089 174.67773 249.60352 C 176.43399 253.94613 178.35338 258.2875 178.94336 259.25 C 179.66995 260.43536 181.27753 261 183.92578 261 C 191.0574 261 191.01439 261.08039 190.32812 249.08594 C 189.80072 239.86797 189.96086 237.9879 191.4707 235.68359 C 193.73085 232.23418 192.88481 224.06123 190.41797 224.23633 z M 108.00781 225 C 106.43049 225 106.62387 232.90042 108.13477 236.3418 C 108.68883 237.60379 110.41859 237.83751 110.57227 238.76953 C 111.14029 242.21426 110.30264 248.02534 109.53516 254.74805 C 108.97507 259.65409 108.97164 260.05827 111.15625 260.93359 C 114.53473 262.28728 119.68432 262.33201 121.50781 260.88281 C 122.37288 260.19531 124.2433 255.29333 126.05273 250.15234 C 127.07782 247.23987 127.9303 244.37993 128.63672 242.48438 C 128.84907 241.91456 129.04132 241.2991 129.58594 240.94336 C 130.47792 240.36073 131.97075 240.58469 132.22461 240.49219 C 134.71163 239.58566 136.50195 236.42192 136.50195 234.0918 C 136.50195 232.20754 135.22201 231.88768 131.75 231.04102 C 129.4125 230.471 123.34151 228.87813 118.25781 227.50195 C 113.17414 226.1258 108.56162 225 108.00781 225 z " />
    <path
       id="path3919"
       style="display:inline;fill:#ce9e9a;fill-opacity:1"
       d="m 173.12695,40.521484 c -0.1891,-0.0028 -0.35828,0.02008 -0.50586,0.07227 -0.46713,0.165194 -0.62395,1.084231 -0.62695,1.65625 -0.003,0.687499 -0.67824,5.710035 -1.5,11.162109 -1.16362,7.720254 -1.96064,10.96666 -1.41406,12.789063 0.38919,1.297609 1.61574,1.8724 3.16992,2.830078 2.53991,1.565081 5.18559,2.548393 6.21094,2.107422 1.03164,-0.443674 1.45705,-2.712729 2.10351,-5.638672 0.60759,-2.749999 1.40338,-8.244773 1.77344,-12.210938 l 0.57617,-6.177734 c 0.0624,-0.664873 -0.28086,-1.399371 -0.67968,-1.58789 l -2.9629,-1.984376 c -2.53083,-1.695495 -4.82081,-2.998078 -6.14453,-3.017578 z m -44.74023,0.675782 c -1.32768,0.07963 -8.14294,4.598903 -9.08008,6.115234 -1.48023,2.395067 1.03071,22.188342 3.27539,25.820312 0.30618,0.495405 1.08683,0.585878 1.73633,0.203126 8.28121,-4.880397 8.88847,-5.47597 8.28711,-8.16211 -0.32915,-1.470225 -1.24989,-7.3359 -2.04492,-13.033203 -0.79503,-5.697303 -1.68749,-10.601543 -1.98438,-10.898437 -0.0364,-0.03636 -0.10094,-0.05023 -0.18945,-0.04492 z M 157.98828,69 147.65039,69.318359 c 0,0 -10.72116,-0.408351 -12.27344,0 -1.55229,0.408352 -6.15039,3.613282 -6.15039,3.613282 -8.36622,5.407347 -8.57308,5.960625 -7.27734,19.376953 1.51307,15.666576 1.71295,16.378756 4.85937,17.251956 1.48011,0.41075 7.97735,0.93798 14.02735,1.31054 15.38033,0.94714 26.89559,1.11445 29.40234,-0.96875 0.71539,-0.59451 0.43124,-2.0766 2.91797,-3.30078 0.78036,-0.38416 2.84561,-0.83084 3.63672,-0.83984 3.28345,-0.0374 3.28151,-1.10411 3.31641,-7.996095 0.0174,-3.446885 0.5221,-8.928128 0.63671,-11.953125 0.17136,-4.522502 -0.0878,-7.97026 -1.06054,-9.484375 -0.71162,-1.107692 -3.51207,-2.798412 -6.33594,-4.414063 -3.008,-1.721 -5.40276,-3.049021 -6.14649,-2.767578 -0.75035,0.28395 -0.84405,1.321272 -0.93945,2.34375 -0.0971,1.040584 -0.4353,2.22785 -0.68164,2.857422 -0.7386,1.887661 -1.38861,3.331938 -0.93555,3.935547 0.30097,0.400989 1.11788,0.644682 2.11719,0.791016 2.19971,0.32211 2.23633,1.327499 2.23633,9.246093 0,6.707124 -0.34894,8.685549 -1.75391,9.957032 -2.53721,2.296146 -12.36603,6.701486 -14.97656,6.712886 -2.82896,0.0124 -9.66629,-2.66468 -14.51953,-5.683589 l -1.58203,-0.984375 C 134.37936,97.209681 134.0388,96.75362 134,94.816406 v -6.269531 c 0,-4.745136 -0.30416,-8.008515 0.8125,-9.033203 0.87536,-0.803264 5.52039,-0.931817 10.72266,-1.242188 l 8.44922,-0.503906 c 0.88696,-0.05291 1.31972,-0.279139 1.72265,-0.972656 l 1.71875,-3.441406 c 0.52223,-0.93438 1.04417,-1.868355 1.56641,-2.802735 C 159.68588,69.358419 159.22725,69.0127 157.98828,69 Z m 49.95703,22.986328 -3.72265,1.90625 C 199.28225,96.420019 190,103.87258 190,105.3125 c 0,0.62864 3.01945,6.32895 6.71094,12.66602 6.40227,10.99053 6.73134,11.86739 7.09961,19.02148 0.11354,2.20527 -0.29869,4.51189 -0.0645,6.06055 0.2039,1.34813 1.04665,2.07149 1.25196,2.28906 0.44115,0.4675 1.74734,-0.095 2.90234,-1.25 1.155,-1.155 2.06271,-2.07413 2.84961,-2.07813 0.78677,-0.004 2.03422,1.83509 3.60352,4.05274 1.72937,2.44388 3.48501,3.76465 4.5,3.71875 2.87101,-0.12972 2.54927,-2.77509 2.74609,-6.19531 0.23104,-4.01508 -0.98856,-9.31369 -2.05664,-15.01368 -1.98242,-10.57951 -8.00736,-31.117979 -10.03906,-34.218746 z m -114.072263,0.375 c -0.644416,0.03 -1.085572,0.474138 -1.765625,1.19336 -1.901083,2.010576 -9.224943,26.420062 -11.064453,36.878902 -1.152658,6.55364 -1.374278,15.54086 -0.44336,17.9668 0.797152,2.07734 3.535104,0.62275 6.398438,-3.39844 2.540682,-3.56805 3.920805,-3.74655 6.417969,-0.83007 1.811906,2.11615 1.895109,2.12297 3.246093,0.27539 0.977293,-1.33653 1.218799,-3.52761 0.81836,-7.42188 -0.534282,-5.19586 -0.296531,-6.00288 3.984371,-13.52539 2.50395,-4.4 5.75991,-10.34446 7.23438,-13.21094 2.61539,-5.08449 2.63434,-5.26278 0.83594,-7.25 -1.01389,-1.12033 -4.93649,-4.149447 -8.7168,-6.732419 C 96.58249,93.4124 94.947074,92.311334 93.873047,92.361328 Z M 178.5918,108.0625 c -1.16757,-0.0279 -2.36021,0.28002 -4.01758,0.91016 -2.30617,0.8768 -2.4434,1.21944 -1.4043,3.5 1.36461,2.99499 6.0429,3.46739 9.60742,0.9707 2.86575,-2.00725 2.80156,-2.85901 -0.32422,-4.2832 -1.55152,-0.70693 -2.69375,-1.06972 -3.86132,-1.09766 z m -54.79297,4.06055 c -0.17407,0.006 -0.27694,0.0211 -0.30078,0.0449 -0.19077,0.19077 -0.49265,1.67649 -0.67188,3.30078 -0.39026,3.53679 2.00472,5.0273 10.28516,6.40234 6.48788,1.07737 25.8106,1.37471 32.2207,0.4961 5.52985,-0.75795 8.45525,-4.02759 6.63867,-7.42188 -1.03547,-1.9348 -1.68834,-2.00345 -13.27929,-1.37109 -7.47567,0.40784 -16.57333,0.19865 -23.51953,-0.54297 -5.45125,-0.58201 -10.15455,-0.95261 -11.37305,-0.9082 z M 179.23438,117 c -6.83219,0 -11.89299,14.80495 -5.89844,17.20312 0.72304,0.28926 3.11043,0.67536 5.49023,0.71876 3.50219,0.0639 4.88164,-0.47538 7.23242,-2.82618 2.62241,-2.62239 2.80002,-3.20447 1.82618,-5.99804 C 186.45956,122.0093 181.6967,117 179.23438,117 Z m -56.81055,5.38086 c -0.16831,0.0104 -0.2807,0.0315 -0.33399,0.0645 -2.37061,1.46512 -10.26938,36.28577 -12.69531,55.96875 l -1.56267,12.67936 c -0.0278,1.13092 0.38861,1.2615 0.75826,1.98729 l 1.613,1.33335 c 1.38786,1.14733 3.93499,2.85215 5.66016,3.78906 2.56416,1.39256 3.13672,2.32323 3.13672,5.09571 0,1.98688 0.72478,4.01779 1.75,4.90429 2.46273,2.12956 14.53586,6.60721 22.25,8.25196 3.575,0.76223 7.175,1.41557 8,1.45117 3.11293,0.13431 14.25425,-2.9951 21.50586,-6.03906 7.53825,-3.16429 7.831,-3.47528 8.71289,-9.33203 0.16272,-1.08066 1.86787,-2.97494 3.78906,-4.20899 8.00333,-5.14084 7.43356,-3.60961 6.09571,-16.38281 -1.30127,-12.42388 -4.90792,-39.06741 -5.7793,-42.69336 -0.4757,-1.97941 -1.17233,-2.25 -5.79688,-2.25 -7.01526,0 -10.51448,-2.47929 -10.7207,-8.13867 l -0.0977,-2.64453 c 0.005,-1.1805 -0.42948,-1.54069 -2.01757,-1.41797 L 154.5,124.92188 c -8.81697,0.0899 -17.26491,-0.43028 -22.81836,-1.40626 -4.24367,-0.74578 -8.07966,-1.20738 -9.25781,-1.13476 z m 28.89258,12.62305 c 9.55674,-0.004 11.25642,0.56257 16.93554,5.64062 2.06409,1.84562 3.97214,2.74971 4.58008,3.09961 0.67851,0.39051 2.71035,1.23013 3.91406,2.35156 0.50068,0.46645 1.34344,1.574 1.39453,2.18164 0.13108,1.55904 0.42521,3.36334 0.5,11.23438 0.10274,10.80421 -0.76231,11.48351 -2.87695,12.61523 -2.84065,1.52027 -34.20087,2.13891 -41.58203,0.82032 -9.47755,-1.69311 -9.5091,-1.05747 -9.1875,-14.43165 l 0.24024,-9.9746 c -0.0227,-1.27987 0.37965,-2.16677 1.45898,-2.86524 L 131,142.70117 c 11.4962,-7.94143 10.84088,-7.69326 20.31641,-7.69726 z m 39.10156,89.23242 c -0.0796,0.006 -0.16124,0.0195 -0.24414,0.043 -11.75869,3.32781 -26.67325,7.88809 -27.05664,8.27148 -0.91485,0.91485 1.37627,5.73893 3.13281,6.5957 0.9625,0.46947 2.53377,1.23717 3.49219,1.70704 0.95843,0.46987 3.1793,4.40737 4.93554,8.75 1.75626,4.34262 3.67565,8.68398 4.26563,9.64648 0.72659,1.18536 2.33417,1.75 4.98242,1.75 7.13163,0 7.08861,0.0804 6.40234,-11.91406 -0.52741,-9.21798 -0.36726,-11.09804 1.14258,-13.40235 2.26015,-3.44942 1.41411,-11.62236 -1.05273,-11.44726 z M 108.00781,225 c -1.57732,0 -1.38394,7.90042 0.12696,11.3418 0.55406,1.26199 2.28382,1.49571 2.4375,2.42773 0.56802,3.44473 -0.26963,9.25581 -1.03711,15.97852 -0.56009,4.90605 -0.56352,5.31022 1.62109,6.18554 3.37848,1.35369 8.52807,1.3984 10.35156,-0.0508 0.86507,-0.6875 2.73548,-5.58948 4.54492,-10.73047 1.02509,-2.91248 1.87757,-5.7724 2.58399,-7.66796 0.21235,-0.56982 0.4046,-1.18528 0.94922,-1.54102 0.89198,-0.58263 2.38481,-0.35867 2.63867,-0.45117 2.48702,-0.90653 4.27734,-4.07026 4.27734,-6.40039 0,-1.88426 -1.27994,-2.20411 -4.75195,-3.05078 -2.3375,-0.57002 -8.40849,-2.16289 -13.49219,-3.53907 C 113.17413,226.12578 108.56162,225 108.00781,225 Z"
       sodipodi:nodetypes="sscsssssccccsssscssssccscssssscsssssssssssccccssccccccccsssssscscssccsssssssssssssssssssscsssssssssssssscccccsssssssssssccccssssssscssccccsscsssssssssssssssssscssss" />
    <path
       id="path3921"
       style="display:inline;fill:#f6f6e1;fill-opacity:1"
       d="M 136.11328 30.03125 C 135.46204 30.02275 134.82403 30.030734 134.22461 30.066406 C 133.33449 30.146236 132.53796 30.684022 132.10938 31.582031 L 131.7793 32.974609 C 130.96128 36.429947 132.31807 55.797207 134.54688 62.25 L 135.75391 65.556641 C 135.95776 66.527824 136.98736 66.959426 138.00781 66.939453 L 143.84375 66.992188 C 148.05455 66.988288 154.558 66.696654 158.29492 66.34375 C 161.6389 66.027955 164.35061 66.073656 165.57422 65.357422 C 166.7861 64.648048 167.49686 60.071127 168.62305 52.572266 C 170.34902 41.079641 170.53245 32.338031 168.98828 31.144531 C 167.45382 29.958529 166.35936 29.979158 161.08008 30.189453 C 158.70138 30.131763 152.86182 31.538332 150.07617 31.482422 C 147.95364 31.439822 143.82523 30.608869 141.75586 30.394531 C 140.04264 30.174923 138.067 30.056671 136.11328 30.03125 z M 185.80273 49.376953 C 185.37527 49.392803 185.02051 49.946995 184.83984 50.835938 L 183.89062 56.039062 C 183.09855 60.379528 182.61582 68.873268 182.73633 76.347656 C 182.91823 87.630258 183.24418 89.853754 185.41602 94.597656 C 186.77623 97.568786 187.73416 99.961766 188.70312 99.972656 C 190.40219 99.991746 204.39094 89.563711 204.86133 88.337891 C 205.46172 86.77331 190.62195 55.704129 187.7207 51.539062 L 186.62891 49.972656 C 186.34161 49.550903 186.05921 49.367444 185.80273 49.376953 z M 115.18945 53.611328 C 114.86602 53.689048 114.48272 54.156414 113.92773 54.841797 C 112.94332 56.057512 108.48355 64.098745 104.01758 72.710938 L 96.716797 86.789062 C 96.223885 87.726328 96.328675 88.718151 96.966797 89.216797 L 99.134766 90.933594 C 100.9158 92.344619 104.42783 94.93812 106.9375 96.695312 C 109.44717 98.452505 112.04987 99.723121 112.63281 99.945312 C 113.71903 100.35934 114.74385 97.613703 116.33008 94.685547 C 117.38048 92.746508 118.30786 91.459971 118.8125 88.685547 C 119.17629 86.685097 118.38856 84.37567 118.51562 81.982422 C 118.62487 79.924998 119.90399 78.363601 119.93359 76.083984 C 120.00389 70.675364 118.68776 65.090258 117.60938 60.566406 C 116.31912 55.153837 115.901 53.44034 115.18945 53.611328 z M 142.64453 80.052734 C 138.87577 80.085434 136.90573 80.344305 136.16211 81.107422 C 134.86295 82.44065 135.13524 87.646828 135.41211 92.111328 C 135.51001 93.689911 135.36971 95.090793 135.91016 96.083984 C 136.95437 98.002894 139.61983 99.012017 145 101.13281 C 147.475 102.10842 150.625 102.92296 152 102.94336 C 155.04043 102.98836 164.78558 98.293568 166.72266 96.074219 C 167.73039 94.919641 167.83437 82.47581 166.53125 81.195312 C 165.85978 80.535502 159.38415 80.355142 151.49414 80.177734 C 147.8146 80.095004 144.9058 80.033116 142.64453 80.052734 z M 91.474609 94.636719 C 91.12586 95.350669 90.687064 96.46152 90.21875 97.710938 C 92.721856 100.45294 97.968495 104.62296 103.46289 108.3125 C 104.71825 109.15549 106.59358 110.19142 108.30859 111.00195 C 108.39819 110.83005 108.61964 110.44377 108.69922 110.28906 C 109.22745 109.26215 109.57757 108.54916 109.90039 107.86719 C 107.62241 105.7869 104.10862 103.17336 100.05664 100.25 C 96.110954 97.403327 93.324363 95.519557 91.474609 94.636719 z M 210.23047 95.863281 C 205.16207 98.445565 195.83712 104.41721 193.51562 106.98242 C 192.91753 107.64332 192.2156 108.2482 191.62695 108.82812 C 192.0412 109.62412 192.6486 110.69289 193.1875 111.67969 C 193.58967 111.43957 194.07047 111.09134 194.68945 110.61133 C 196.14146 109.4853 202.0875 106.07879 205.25 103.88281 C 207.62471 102.23386 209.84865 100.57752 211.48828 99.097656 C 211.01819 97.772702 210.602 96.710822 210.23047 95.863281 z M 148.82617 136.05859 C 143.93167 136.00889 142.55878 136.44618 138.82617 139.25 C 137.48846 140.25484 136.16488 141.83819 134.41797 143.03906 C 132.23394 144.20208 130.22172 145.28402 128.23047 146.7168 C 126.60363 147.88641 126.6534 148.55986 126.42578 150.44727 L 126 158.45508 C 126 169.93084 126.04861 170.02554 132.5 171.08984 C 135.70536 171.61864 144.18058 172.05669 152.65625 172.05469 C 162.35023 172.05269 172.04539 171.53197 173.85156 170.90234 L 175.73438 170.24609 C 176.83901 169.84232 176.9578 169.5064 177 167.87109 L 177 158.92188 L 177.05664 151.25586 C 177.05664 149.16439 176.66515 147.84473 174.91602 146.9707 L 173.25 146.11523 C 171.1875 145.05578 167.75542 142.68296 165.62305 140.84375 C 164.04932 139.48639 162.92629 138.1501 161.18164 137.42578 C 158.27438 136.21879 154.33759 136.11459 148.82617 136.05859 z M 108.08398 189.04297 L 107.7832 191.48438 C 107.73 192.10424 107.79643 192.40284 108.24023 192.79102 L 110.20312 194.41406 C 111.59098 195.56139 114.13811 197.26623 115.86328 198.20312 C 118.42744 199.59568 119 200.52635 119 203.29883 C 119 205.28571 119.72478 207.31664 120.75 208.20312 C 123.21273 210.33268 135.28588 214.81033 143 216.45508 C 146.575 217.21731 150.175 217.87065 151 217.90625 C 154.11293 218.04056 165.25427 214.91113 172.50586 211.86719 C 180.04409 208.7029 180.33686 208.39189 181.21875 202.53516 C 181.38147 201.4545 183.08662 199.56022 185.00781 198.32617 C 190.80229 194.60417 192.07888 194.31701 191.84766 189.62891 C 189.32555 190.44387 186.04579 191.90893 184.01758 192.75195 C 181.70404 193.71356 178.89741 194.56013 177.47656 196.45703 C 177.13452 196.93733 176.49047 198.15463 176.44727 198.87305 C 176.43727 199.03658 176.03172 202.62884 176.01172 203.79297 C 175.99172 204.95711 175.59869 205.84481 173.80469 206.46484 L 167.6582 208.59375 C 153.61317 213.11041 142.9508 212.87554 131.01953 207.78516 C 127.88839 206.44928 126.10952 205.75913 125.38086 204.39062 C 124.92247 203.52977 125.02362 202.27303 125.01562 200.81836 C 125.00963 199.84332 125.23637 198.4997 124.60938 197.62695 C 123.31851 195.83018 119.95011 194.48392 114.2832 191.62891 C 111.61993 190.28712 109.56889 189.42014 108.08398 189.04297 z M 107.69727 196.40625 C 107.27494 196.34385 107.00348 196.59531 106.86914 197.47461 L 106.61523 198.77148 C 106.32126 200.27239 105.80998 204.2 105.47852 207.5 C 105.14707 210.8 104.65557 214.67953 104.38672 216.12109 C 103.98098 218.29663 104.49617 219.0948 107.41406 220.81641 C 112.22875 223.65712 125.70701 227.80567 135.4375 229.44141 C 139.87206 230.18689 144.36599 230.71004 144.74609 230.76562 C 146.31393 230.99513 147.73625 221.8082 145.81445 220.36133 C 145.09159 219.8171 139.09998 217.43899 132.5 215.07617 C 125.90002 212.71336 119.93265 210.32085 119.24023 209.75977 C 118.92762 209.50646 118.13395 209.23298 117.81836 208.46094 C 117.43496 207.5229 117.54469 205.18137 117.35547 203.99805 C 116.80419 200.55058 116.14875 200.60176 111.93945 198.46875 L 108.62305 196.78906 C 108.25884 196.59467 107.95066 196.4437 107.69727 196.40625 z M 191.01172 197.18359 C 190.11478 197.24279 188.83446 197.98399 186.93555 199.26367 C 184.73369 200.7475 183.47975 201.83655 183.04688 203.95312 C 182.68358 205.72945 183.16402 208.83374 181.69141 209.63477 C 179.90288 210.60762 164.39703 217.35417 159.25 218.46094 C 156.13711 219.13031 156 219.36075 156 223.91406 C 156 226.52869 156.3375 229.0149 156.75 229.43945 C 158.11085 230.84007 168.33298 229.10322 179 225.66016 C 195.59508 220.30363 195.28569 220.52485 194.60938 214.54883 C 194.29514 211.77218 193.74499 206.6875 193.38867 203.25 C 192.93599 198.88292 192.50661 197.085 191.01172 197.18359 z " />
  </g>
</svg>
