<?xml version="1.0" encoding="UTF-8" standalone="no"?>
<!-- Created with Inkscape (http://www.inkscape.org/) -->

<svg
   version="1.1"
   id="svg11546"
   width="300"
   height="300"
   viewBox="0 0 300 300"
   sodipodi:docname="cape_spell.svg"
   inkscape:version="1.2.2 (732a01da63, 2022-12-09)"
   inkscape:export-filename="cape_spell.png"
   inkscape:export-xdpi="96"
   inkscape:export-ydpi="96"
   xml:space="preserve"
   xmlns:inkscape="http://www.inkscape.org/namespaces/inkscape"
   xmlns:sodipodi="http://sodipodi.sourceforge.net/DTD/sodipodi-0.dtd"
   xmlns="http://www.w3.org/2000/svg"
   xmlns:svg="http://www.w3.org/2000/svg"><defs
     id="defs11550" /><sodipodi:namedview
     id="namedview11548"
     pagecolor="#ffffff"
     bordercolor="#000000"
     borderopacity="0.25"
     inkscape:showpageshadow="2"
     inkscape:pageopacity="0.0"
     inkscape:pagecheckerboard="0"
     inkscape:deskcolor="#d1d1d1"
     showgrid="false"
     inkscape:zoom="2.4206622"
     inkscape:cx="78.284363"
     inkscape:cy="135.29356"
     inkscape:window-width="2560"
     inkscape:window-height="1351"
     inkscape:window-x="2391"
     inkscape:window-y="-9"
     inkscape:window-maximized="1"
     inkscape:current-layer="g11552" /><g
     inkscape:groupmode="layer"
     inkscape:label="Image"
     id="g11552"><rect
       style="fill:#292c2b;fill-opacity:1;stroke:none;stroke-width:43.8978;stop-color:#000000"
       id="rect32909"
       width="300"
       height="300"
       x="0"
       y="0"
       ry="45"
       rx="45"
       inkscape:label="spell_background" /><path
       style="display:inline;fill:#c79290;fill-opacity:1"
       d="M 130,245.38837 C 115.49904,243.44674 84.667399,234.66994 70.5,228.4506 52.46781,220.53465 43.042122,214.99122 39.304788,212.41986 31.902585,207.32701 15,191.65478 15,189.29907 15,187.07716 19.963617,182.41978 35.554365,170.01286 40.401223,166.15579 45.016159,163 45.809779,163 c 0.793619,0 5.139,2.26659 9.656403,5.03688 4.517402,2.77028 9.957058,5.91093 11.864982,6.22055 3.638286,0.59041 4.225742,-0.65844 11.279839,-9.97066 4.256506,-5.61908 18.694992,-28.91048 20.479704,-33.03677 2.821723,-6.52388 0.535293,-5.06689 -5.310233,3.38388 C 90.876213,138.83251 87.6,143.50507 86.5,145.01733 c -1.1,1.51227 -3.694429,5.22154 -5.765397,8.24282 C 74.811531,161.90118 69.04041,168 66.78674,168 58.185524,168 30,141.6357 30,133.59025 c 0,-0.89599 4.57047,-3.97718 11.25,-7.58423 15.666677,-8.46023 25.055599,-15.15022 41.112856,-29.294615 16.316757,-14.372979 28.094184,-23.537026 31.275374,-24.335454 1.70399,-0.427674 3.75432,0.585395 8.10911,4.006717 9.86223,7.748207 21.04411,10.426133 35.97807,8.616321 10.35644,-1.255074 16.91026,-3.246445 23.52996,-7.149558 2.65795,-1.567187 4.54892,-2.978528 6.15295,-2.849431 1.47643,0.118827 4.47963,2.320586 20.7606,16.067317 13.07672,11.041243 28.76377,22.835373 33.83108,25.435533 1.925,0.98776 6.9875,4.07041 11.25,6.85033 8.77048,5.71995 9.40393,7.31896 5.29489,13.36595 -3.40077,5.00467 -19.03384,20.73527 -24.84915,25.00417 -8.6938,6.38193 -10.6403,5.18084 -25.48144,-15.7233 -12.82134,-18.0592 -14.44531,-20.32703 -16.4643,-19.99997 -1.83271,0.29688 -2.28485,0.34534 1.92189,7.36916 C 204.73491,151.84071 220.70237,171 225.03361,171 c 4.01315,0 10.31008,-3.73979 19.37825,-11.50888 4.80904,-4.12012 7.86624,-7.13839 9.13732,-7.12965 1.86574,0.0128 2.59913,1.00647 4.85296,2.6784 2.25382,1.67192 9.38536,6.8782 15.84786,11.56951 5.43552,3.9458 9.95492,6.98635 11.26027,8.88125 0.5347,0.76286 0.29568,1.21116 -0.0455,1.84015 -2.84194,4.1694 -19.20469,19.3224 -27.58556,26.00123 -9.38992,7.48296 -30.49718,20.98202 -43.11645,27.57497 -18.05705,9.43393 -45.37744,16.19516 -64.61209,15.99017 C 144.84278,246.84058 135.775,246.16163 130,245.38837 Z m -15.68602,-15.55426 5.86726,-6.16589 3.3584,3.66589 C 126.00063,230.02043 127.7133,231 129.94902,231 132.7611,231 133,230.7297 133,227.54804 c 0,-3.00092 -0.62064,-3.87139 -4.75,-6.66205 -2.01155,-1.35942 -3.73189,-2.48501 -4.5164,-3.01659 -0.58133,-0.36523 -0.432,-1.00197 -0.24339,-1.47852 0.24718,-0.62453 0.56109,-1.19098 1.14896,-2.3694 2.33234,-4.67531 0.93079,-8.41347 -3.30973,-8.82757 -3.97611,-0.38827 -22.767502,4.20787 -26.081344,6.37919 -2.260765,1.48131 -2.446372,2.10496 -1.928305,6.47922 0.687946,5.80863 2.831984,10.31792 6.988329,14.69768 4.6298,4.87866 7.07279,4.37005 14.00586,-2.91589 z m 85.90667,-2.68569 C 208.21985,224.93031 212,222.64018 212,220.01213 c 0,-2.20594 -2.76223,-4.00478 -6.18426,-4.02744 -2.28479,-0.0151 -4.45561,0.0428 -4.83968,-0.91953 -0.42067,-1.05408 1.12357,-3.26296 2.69057,-6.45801 2.61048,-5.32268 2.69445,-5.87372 1.28013,-8.40172 -3.29141,-5.88313 -8.75686,-3.29622 -10.02826,4.74659 -0.46086,2.91541 -1.11011,5.57292 -1.44277,5.90559 -0.33267,0.33266 -2.03829,-0.2604 -3.79029,-1.31792 -16.83274,-10.16036 -21.54023,-9.65275 -16.32003,1.75977 1.36728,2.9892 2.99315,7.3184 3.61303,9.62047 1.72194,6.3948 3.97309,8.08007 10.7932,8.08007 3.17441,0 8.77646,-0.83321 12.44901,-1.85158 z M 70.384147,212.70837 c 1.674686,-1.22456 1.678113,-1.5123 0.06595,-5.54149 -0.652988,-1.63198 -1.089143,-2.94205 -1.253869,-3.7496 -0.05369,-0.72732 0.03954,-1.17364 0.613429,-1.40046 1.001124,-0.33842 2.917883,-0.61791 5.185118,-1.02634 1.654852,-0.29811 3.039773,-0.98519 4.174977,-1.57556 2.521047,-1.31108 3.589636,-2.98887 2.509104,-4.0694 -0.205592,-0.20559 -0.966532,-1.04668 -1.910211,-0.88315 -0.950725,0.16475 -2.088023,1.33658 -3.326289,1.79541 -5.741228,2.12785 -7.827604,1.41846 -7.063574,-2.40169 1.344116,-6.72058 -1.895926,-11.77889 -6.59044,-10.28891 C 57.896316,185.11985 48,196.34169 48,200.33629 c 0,2.30664 7.075207,8.68249 12.5,11.26442 5.727332,2.72593 7.412739,2.9148 9.884147,1.10766 z M 236.88843,196.86778 c 1.98636,-3.20461 4.15777,-6.04046 4.82534,-6.30188 0.66757,-0.26143 3.81164,0.20133 6.98681,1.02836 C 255.91672,193.47383 259,192.84808 259,189.504 c 0,-3.21171 -3.64122,-5.5558 -8.95963,-5.76787 -2.05242,-0.0818 -3.45064,0.0634 -3.8633,-0.32665 -0.33248,-0.31425 0.10291,-1.06566 0.36725,-1.87438 1.21999,-3.7325 0.97216,-6.7711 -0.6365,-7.80372 -2.20429,-1.41498 -15.39606,2.66595 -18.43217,5.70206 -2.71517,2.71517 -4.46226,8.33637 -4.47007,14.3823 -0.007,5.13473 1.34363,8.00797 4.2725,9.09142 3.68418,1.36287 5.87578,-0.0144 9.61035,-6.03938 z"
       id="path12036"
       sodipodi:nodetypes="sssssssssssssssssssssssssssssssssssccssssscsssscssssssssssssssssssssssccsssscsssssssssssssscss" /><path
       id="path12767"
       style="display:inline;fill:#f9f0d4;fill-opacity:1"
       d="M 104.08203 78.607422 C 98.549413 82.834757 91.217488 88.911512 82.363281 96.710938 C 79.413426 99.309383 76.863226 101.43345 74.283203 103.58594 L 86.597656 115.63867 C 92.29963 121.01385 98.25675 125.73728 99.654297 127.35352 C 100.63065 126.71099 100.51276 127.96019 99.089844 131.25 C 97.908204 133.98198 91.261062 144.93045 85.613281 153.77344 C 89.064983 157.03777 113.65045 165.8936 126 167.99805 C 136.83509 169.84443 154.69026 168.71379 173 165.02148 C 185.93966 162.4121 203.16759 155.53129 206.5 152.28711 C 202.0971 146.46526 197.57989 139.89421 193.67188 133.36914 C 189.46514 126.34533 189.91729 126.29688 191.75 126 C 192.01734 125.95669 192.2821 125.97246 192.5625 126.05078 C 194.72983 122.7595 203.66313 113.14011 211.9043 104.27148 L 217.25781 98.511719 C 214.19979 96.062862 211.11234 93.552469 208.16797 91.066406 C 201.33577 85.297685 197.19797 81.884231 194.17383 79.482422 L 191.39062 82.759766 C 187.78375 87.368508 179.17453 92.619006 170.39062 95.568359 C 164.04828 97.697917 160.53704 98.232773 152.5 98.289062 C 147.00001 98.32758 140.025 97.765807 137 97.041016 C 129.4415 95.229996 118.72077 89.714516 111.26953 83.802734 C 108.61421 81.696015 105.86583 79.620983 104.08203 78.607422 z M 226.36523 106.72852 C 225.20117 106.01951 214.59466 117.48529 204.35742 130.51758 L 201.21289 134.51953 L 204.80859 139.9082 L 208.40625 145.29688 L 221.63281 131.71289 C 228.90778 124.24192 235.32419 117.26349 235.89062 116.20508 C 236.77053 114.56096 236.24411 113.78751 232.27734 110.89062 C 229.72373 109.02574 227.06253 107.15324 226.36523 106.72852 z M 66.679688 109.76758 C 62.291115 113.13614 58.092367 116.03464 53.632812 118.82812 C 55.52164 120.97526 61.594976 126.98505 67.175781 132.17578 C 73.872128 138.40408 80.284635 144.42298 81.425781 145.55078 C 82.263868 146.37907 83.660243 147.49224 84.433594 147.9707 C 85.118682 146.99736 86.105838 145.55947 86.5 145.01758 C 87.549757 143.57439 90.650259 139.15031 93.449219 135.10938 L 80.710938 123.07617 C 74.838226 117.3637 68.446315 111.14837 66.679688 109.76758 z M 214.28516 161.86133 L 204.2793 166.79688 C 190.18599 173.46847 168.10026 179.79139 153.5 180.68555 C 143.94488 181.27073 125.13173 179.62448 116.55273 177.80078 C 110.6356 176.54293 92.769822 169.92993 85.943359 166.4707 C 83.864686 165.41735 80.714881 164.03539 79.177734 163.45703 C 79.033161 163.65524 78.738369 164.1194 78.611328 164.28711 C 74.164486 170.15745 72.287198 172.81699 70.595703 173.83789 C 71.644055 175.07259 74.601292 176.67738 80.142578 179.33008 C 91.117493 184.58394 107.6471 190.34776 119.26172 192.9707 C 136.04225 196.76029 170.89728 195.15032 187 189.8418 C 196.25433 186.79096 219.99281 174.20918 223.82422 170.63867 C 221.70327 169.64676 218.26123 166.37242 214.28516 161.86133 z " /></g></svg>
