<?xml version="1.0" encoding="UTF-8" standalone="no"?>
<!-- Created with Inkscape (http://www.inkscape.org/) -->

<svg
   version="1.1"
   id="svg11546"
   width="300"
   height="300"
   viewBox="0 0 300 300"
   sodipodi:docname="cape.svg"
   inkscape:version="1.2.2 (732a01da63, 2022-12-09)"
   xmlns:inkscape="http://www.inkscape.org/namespaces/inkscape"
   xmlns:sodipodi="http://sodipodi.sourceforge.net/DTD/sodipodi-0.dtd"
   xmlns="http://www.w3.org/2000/svg"
   xmlns:svg="http://www.w3.org/2000/svg">
  <defs
     id="defs11550">
    <filter
       inkscape:collect="always"
       style="color-interpolation-filters:sRGB"
       id="filter14961"
       x="-0.039983749"
       y="-0.061968243"
       width="1.0799168"
       height="1.1239828">
      <feGaussianBlur
         inkscape:collect="always"
         stdDeviation="1.9494"
         id="feGaussianBlur14963" />
    </filter>
  </defs>
  <sodipodi:namedview
     id="namedview11548"
     pagecolor="#ffffff"
     bordercolor="#000000"
     borderopacity="0.25"
     inkscape:showpageshadow="2"
     inkscape:pageopacity="0.0"
     inkscape:pagecheckerboard="0"
     inkscape:deskcolor="#d1d1d1"
     showgrid="false"
     inkscape:zoom="0.60516555"
     inkscape:cx="199.11907"
     inkscape:cy="-125.58547"
     inkscape:window-width="2560"
     inkscape:window-height="1351"
     inkscape:window-x="2391"
     inkscape:window-y="-9"
     inkscape:window-maximized="1"
     inkscape:current-layer="g11552" />
  <g
     inkscape:groupmode="layer"
     inkscape:label="Image"
     id="g11552">
    <path
       id="path14951"
       style="display:inline;fill:none;fill-opacity:1;stroke:#742b1c;stroke-opacity:1;stroke-width:12.3;stroke-dasharray:none;filter:url(#filter14961)"
       d="M 115.01172 72.339844 C 114.51183 72.251552 114.06467 72.268082 113.63867 72.375 C 112.18374 72.740164 108.74505 75.044525 104.08203 78.607422 C 103.0401 79.403535 101.90301 80.302912 100.72461 81.240234 C 98.786541 82.777584 96.740202 84.429674 94.46875 86.320312 C 94.462062 86.325879 94.453956 86.332321 94.447266 86.337891 C 93.68786 86.97186 92.878024 87.666458 92.083984 88.337891 C 89.070084 90.880112 85.872737 93.619555 82.363281 96.710938 C 79.413429 99.30938 76.863224 101.43345 74.283203 103.58594 C 71.685555 105.75313 69.06572 107.93612 66.679688 109.76758 C 66.678984 109.76812 66.678438 109.76899 66.677734 109.76953 C 64.565416 111.39084 62.498477 112.89365 60.423828 114.33789 C 60.212882 114.48526 60.000195 114.62744 59.789062 114.77344 C 57.768242 116.166 55.741017 117.50769 53.652344 118.81641 C 53.645876 118.82046 53.639282 118.82407 53.632812 118.82812 C 49.816512 121.21868 45.811009 123.54285 41.25 126.00586 C 34.570477 129.61291 30 132.69385 30 133.58984 C 30 141.63529 58.185902 168 66.787109 168 C 69.040777 168 74.811309 161.90079 80.734375 153.25977 C 82.063254 151.3211 83.206785 149.7137 84.433594 147.9707 C 85.118681 146.99736 86.105838 145.55947 86.5 145.01758 C 87.549757 143.57439 90.650259 139.15031 93.449219 135.10938 C 93.583179 134.91597 93.648599 134.82654 93.78125 134.63477 C 96.679039 130.44549 98.694487 127.98516 99.654297 127.35352 C 99.68298 127.33464 99.701726 127.33397 99.728516 127.31836 C 99.927426 127.20261 100.08237 127.16131 100.17383 127.22852 C 100.1748 127.22921 100.17678 127.2278 100.17773 127.22852 C 100.1879 127.23616 100.18847 127.25958 100.19727 127.26953 C 100.27737 127.36183 100.30971 127.5357 100.27148 127.82422 C 100.27138 127.82502 100.27159 127.82536 100.27148 127.82617 C 100.23052 128.1351 100.11194 128.5716 99.929688 129.10938 C 99.922211 129.13144 99.923735 129.13966 99.916016 129.16211 C 99.915751 129.16288 99.916281 129.16329 99.916016 129.16406 C 99.720154 129.73351 99.445285 130.42821 99.089844 131.25 C 98.707263 132.13453 97.535423 134.20916 96.214844 136.49219 C 95.713454 137.35476 95.210091 138.2179 94.621094 139.20508 C 94.21219 139.89316 93.725106 140.68256 93.283203 141.41602 C 90.905556 145.34467 88.188085 149.74195 85.613281 153.77344 C 82.985436 157.88797 80.669975 161.41114 79.177734 163.45703 C 79.033161 163.65524 78.738369 164.1194 78.611328 164.28711 C 76.626815 166.90689 75.2842 168.69129 74.111328 170.17188 C 73.215127 171.3082 72.460204 172.21394 71.820312 172.83594 C 71.386988 173.25802 70.983322 173.60289 70.597656 173.83594 C 70.596985 173.83634 70.596374 173.83749 70.595703 173.83789 C 69.603955 174.43646 68.676769 174.47603 67.332031 174.25781 C 65.424109 173.94819 59.984194 170.80739 55.466797 168.03711 C 50.949398 165.26682 46.604165 163 45.810547 163 C 45.016928 163 40.401541 166.15661 35.554688 170.01367 C 19.963955 182.42058 15 187.07692 15 189.29883 C 15 191.65454 31.902492 207.32708 39.304688 212.41992 C 43.042018 214.99128 52.467828 220.53523 70.5 228.45117 C 84.667385 234.67051 115.49905 243.44704 130 245.38867 C 135.77499 246.16193 144.84251 246.83991 150.15039 246.89648 C 169.38502 247.10147 196.70664 240.34017 214.76367 230.90625 C 227.38293 224.31331 248.489 210.81498 257.87891 203.33203 C 266.25977 196.65321 282.62291 181.49947 285.46484 177.33008 C 285.80602 176.70109 286.04447 176.25309 285.50977 175.49023 C 284.20442 173.59534 279.68551 170.55517 274.25 166.60938 C 267.78751 161.91807 260.65616 156.71098 258.40234 155.03906 C 256.14852 153.36713 255.41457 152.37413 253.54883 152.36133 C 252.27775 152.35259 249.22114 155.37012 244.41211 159.49023 C 235.34395 167.25932 229.04635 171 225.0332 171 C 224.70225 171 224.28367 170.85355 223.82422 170.63867 C 223.45837 170.46757 223.04004 170.20586 222.59961 169.9043 C 222.08188 169.55374 221.46554 169.02429 220.85742 168.51172 C 219.73621 167.55511 218.51988 166.42418 217.1543 164.99609 C 216.23933 164.03925 215.27917 162.9891 214.28516 161.86133 C 211.83224 159.07835 209.21224 155.87343 206.5 152.28711 C 204.77036 150.00005 203.02965 147.57751 201.30859 145.10742 C 200.5097 143.95751 199.71483 142.80307 198.93164 141.62891 C 198.43757 140.89023 197.94786 140.14947 197.46289 139.4043 C 196.16158 137.3998 194.87802 135.383 193.67188 133.36914 C 192.62019 131.61319 191.86039 130.29378 191.33984 129.29688 C 190.8193 128.29997 190.53717 127.62571 190.44531 127.16211 C 190.35345 126.69851 190.45116 126.4451 190.68555 126.28906 C 190.91993 126.13302 191.29182 126.07422 191.75 126 C 192.01734 125.95669 192.2821 125.97246 192.5625 126.05078 C 194.39973 126.56397 197.09123 130.33209 208.21484 146 C 223.05597 166.90412 225.00152 168.10458 233.69531 161.72266 C 239.51062 157.45376 255.14416 141.72341 258.54492 136.71875 C 262.65396 130.67177 262.02047 129.07346 253.25 123.35352 C 248.9875 120.5736 243.925 117.48971 242 116.50195 C 238.07366 114.48725 227.78125 106.93885 217.25781 98.511719 C 214.1998 96.062864 211.11234 93.552467 208.16797 91.066406 C 204.7054 88.142807 202.11666 85.981955 199.74219 84.011719 C 197.44851 82.108522 195.69668 80.692301 194.21094 79.511719 C 194.19989 79.502939 194.18484 79.491166 194.17383 79.482422 C 189.99151 76.160781 188.26506 75.068962 187.4082 75 C 185.80417 74.870903 183.91381 76.282424 181.25586 77.849609 C 174.63617 81.752718 168.08104 83.742974 157.72461 84.998047 C 142.79066 86.807857 131.61027 84.131012 121.74805 76.382812 C 118.48196 73.816824 116.51137 72.604719 115.01172 72.339844 z M 244.60742 173.44531 C 245.18502 173.46321 245.63267 173.5536 245.9082 173.73047 C 247.51686 174.76309 247.76491 177.80266 246.54492 181.53516 C 246.28058 182.34388 245.84525 183.09591 246.17773 183.41016 C 246.59039 183.80021 247.9886 183.65453 250.04102 183.73633 C 255.35942 183.9484 259 186.2922 259 189.50391 C 259 192.84798 255.9173 193.47332 248.70117 191.59375 C 245.52601 190.76672 242.38046 190.30498 241.71289 190.56641 C 241.04532 190.82783 238.87503 193.66258 236.88867 196.86719 C 233.15411 202.89216 230.96152 204.26912 227.27734 202.90625 C 224.34848 201.8228 222.99886 198.95113 223.00586 193.81641 C 223.01367 187.77048 224.7614 182.14876 227.47656 179.43359 C 230.13316 176.777 240.56423 173.32001 244.60742 173.44531 z M 64.474609 183.30664 C 68.221351 183.36855 70.555007 187.97497 69.378906 193.85547 C 68.614877 197.67561 70.700184 198.38566 76.441406 196.25781 C 77.679671 195.79898 78.818807 194.62764 79.769531 194.46289 C 80.713209 194.29936 81.474096 195.14011 81.679688 195.3457 C 82.760218 196.42623 81.690966 198.10298 79.169922 199.41406 C 78.034719 200.00443 76.648991 200.69212 74.994141 200.99023 C 72.726908 201.39866 70.81167 201.67916 69.810547 202.01758 C 69.236658 202.2444 69.141623 202.69065 69.195312 203.41797 C 69.360038 204.22552 69.796231 205.53404 70.449219 207.16602 C 72.06138 211.1952 72.05945 211.48443 70.384766 212.70898 C 67.91336 214.51612 66.227326 214.32749 60.5 211.60156 C 55.075212 209.01964 48 202.64258 48 200.33594 C 48 196.34134 57.897041 185.11907 62.789062 183.56641 C 63.375876 183.38016 63.939361 183.2978 64.474609 183.30664 z M 200.66211 197.00195 C 202.17202 196.98488 203.71299 197.99891 204.94727 200.20508 C 206.36158 202.73308 206.27649 203.28475 203.66602 208.60742 C 202.09902 211.80247 200.55589 214.01037 200.97656 215.06445 C 201.36063 216.02678 203.53162 215.96928 205.81641 215.98438 C 209.23843 216.00703 212 217.80578 212 220.01172 C 212 222.63977 208.2199 224.93033 200.2207 227.14844 C 196.54816 228.16681 190.94589 229 187.77148 229 C 180.95138 229 178.70045 227.31472 176.97852 220.91992 C 176.35864 218.61785 174.73251 214.28803 173.36523 211.29883 C 168.14504 199.88632 172.85282 199.37871 189.68555 209.53906 C 191.43755 210.59658 193.14389 211.19008 193.47656 210.85742 C 193.80922 210.52475 194.45711 207.86658 194.91797 204.95117 C 195.71259 199.92442 198.14559 197.03041 200.66211 197.00195 z M 121.33008 205.19336 C 125.57059 205.60746 126.97101 209.34618 124.63867 214.02148 C 124.0508 215.1999 123.73741 215.7661 123.49023 216.39062 C 123.30162 216.86717 123.15305 217.50391 123.73438 217.86914 C 124.51888 218.40072 126.23845 219.5273 128.25 220.88672 C 132.37936 223.67738 133 224.54791 133 227.54883 C 133 230.73048 132.7613 231 129.94922 231 C 127.7135 231 126.00005 230.0203 123.53906 227.33398 L 120.18164 223.66797 L 114.31445 229.83398 C 107.38139 237.11992 104.93839 237.62866 100.30859 232.75 C 96.152253 228.37024 94.008258 223.86136 93.320312 218.05273 C 92.802246 213.67848 92.987284 213.05357 95.248047 211.57227 C 98.561886 209.40095 117.35397 204.80509 121.33008 205.19336 z " />
    <path
       style="display:inline;fill:#ffa159;fill-opacity:1"
       d="M 130,245.38837 C 115.49904,243.44674 84.667399,234.66994 70.5,228.4506 52.46781,220.53465 43.042122,214.99122 39.304788,212.41986 31.902585,207.32701 15,191.65478 15,189.29907 15,187.07716 19.963617,182.41978 35.554365,170.01286 40.401223,166.15579 45.016159,163 45.809779,163 c 0.793619,0 5.139,2.26659 9.656403,5.03688 4.517402,2.77028 9.957058,5.91093 11.864982,6.22055 3.638286,0.59041 4.225742,-0.65844 11.279839,-9.97066 4.256506,-5.61908 18.694992,-28.91048 20.479704,-33.03677 2.821723,-6.52388 0.535293,-5.06689 -5.310233,3.38388 C 90.876213,138.83251 87.6,143.50507 86.5,145.01733 c -1.1,1.51227 -3.694429,5.22154 -5.765397,8.24282 C 74.811531,161.90118 69.04041,168 66.78674,168 58.185524,168 30,141.6357 30,133.59025 c 0,-0.89599 4.57047,-3.97718 11.25,-7.58423 15.666677,-8.46023 25.055599,-15.15022 41.112856,-29.294615 16.316757,-14.372979 28.094184,-23.537026 31.275374,-24.335454 1.70399,-0.427674 3.75432,0.585395 8.10911,4.006717 9.86223,7.748207 21.04411,10.426133 35.97807,8.616321 10.35644,-1.255074 16.91026,-3.246445 23.52996,-7.149558 2.65795,-1.567187 4.54892,-2.978528 6.15295,-2.849431 1.47643,0.118827 4.47963,2.320586 20.7606,16.067317 13.07672,11.041243 28.76377,22.835373 33.83108,25.435533 1.925,0.98776 6.9875,4.07041 11.25,6.85033 8.77048,5.71995 9.40393,7.31896 5.29489,13.36595 -3.40077,5.00467 -19.03384,20.73527 -24.84915,25.00417 -8.6938,6.38193 -10.6403,5.18084 -25.48144,-15.7233 -12.82134,-18.0592 -14.44531,-20.32703 -16.4643,-19.99997 -1.83271,0.29688 -2.28485,0.34534 1.92189,7.36916 C 204.73491,151.84071 220.70237,171 225.03361,171 c 4.01315,0 10.31008,-3.73979 19.37825,-11.50888 4.80904,-4.12012 7.86624,-7.13839 9.13732,-7.12965 1.86574,0.0128 2.59913,1.00647 4.85296,2.6784 2.25382,1.67192 9.38536,6.8782 15.84786,11.56951 5.43552,3.9458 9.95492,6.98635 11.26027,8.88125 0.5347,0.76286 0.29568,1.21116 -0.0455,1.84015 -2.84194,4.1694 -19.20469,19.3224 -27.58556,26.00123 -9.38992,7.48296 -30.49718,20.98202 -43.11645,27.57497 -18.05705,9.43393 -45.37744,16.19516 -64.61209,15.99017 C 144.84278,246.84058 135.775,246.16163 130,245.38837 Z m -15.68602,-15.55426 5.86726,-6.16589 3.3584,3.66589 C 126.00063,230.02043 127.7133,231 129.94902,231 132.7611,231 133,230.7297 133,227.54804 c 0,-3.00092 -0.62064,-3.87139 -4.75,-6.66205 -2.01155,-1.35942 -3.73189,-2.48501 -4.5164,-3.01659 -0.58133,-0.36523 -0.432,-1.00197 -0.24339,-1.47852 0.24718,-0.62453 0.56109,-1.19098 1.14896,-2.3694 2.33234,-4.67531 0.93079,-8.41347 -3.30973,-8.82757 -3.97611,-0.38827 -22.767502,4.20787 -26.081344,6.37919 -2.260765,1.48131 -2.446372,2.10496 -1.928305,6.47922 0.687946,5.80863 2.831984,10.31792 6.988329,14.69768 4.6298,4.87866 7.07279,4.37005 14.00586,-2.91589 z m 85.90667,-2.68569 C 208.21985,224.93031 212,222.64018 212,220.01213 c 0,-2.20594 -2.76223,-4.00478 -6.18426,-4.02744 -2.28479,-0.0151 -4.45561,0.0428 -4.83968,-0.91953 -0.42067,-1.05408 1.12357,-3.26296 2.69057,-6.45801 2.61048,-5.32268 2.69445,-5.87372 1.28013,-8.40172 -3.29141,-5.88313 -8.75686,-3.29622 -10.02826,4.74659 -0.46086,2.91541 -1.11011,5.57292 -1.44277,5.90559 -0.33267,0.33266 -2.03829,-0.2604 -3.79029,-1.31792 -16.83274,-10.16036 -21.54023,-9.65275 -16.32003,1.75977 1.36728,2.9892 2.99315,7.3184 3.61303,9.62047 1.72194,6.3948 3.97309,8.08007 10.7932,8.08007 3.17441,0 8.77646,-0.83321 12.44901,-1.85158 z M 70.384147,212.70837 c 1.674686,-1.22456 1.678113,-1.5123 0.06595,-5.54149 -0.652988,-1.63198 -1.089143,-2.94205 -1.253869,-3.7496 -0.05369,-0.72732 0.03954,-1.17364 0.613429,-1.40046 1.001124,-0.33842 2.917883,-0.61791 5.185118,-1.02634 1.654852,-0.29811 3.039773,-0.98519 4.174977,-1.57556 2.521047,-1.31108 3.589636,-2.98887 2.509104,-4.0694 -0.205592,-0.20559 -0.966532,-1.04668 -1.910211,-0.88315 -0.950725,0.16475 -2.088023,1.33658 -3.326289,1.79541 -5.741228,2.12785 -7.827604,1.41846 -7.063574,-2.40169 1.344116,-6.72058 -1.895926,-11.77889 -6.59044,-10.28891 C 57.896316,185.11985 48,196.34169 48,200.33629 c 0,2.30664 7.075207,8.68249 12.5,11.26442 5.727332,2.72593 7.412739,2.9148 9.884147,1.10766 z M 236.88843,196.86778 c 1.98636,-3.20461 4.15777,-6.04046 4.82534,-6.30188 0.66757,-0.26143 3.81164,0.20133 6.98681,1.02836 C 255.91672,193.47383 259,192.84808 259,189.504 c 0,-3.21171 -3.64122,-5.5558 -8.95963,-5.76787 -2.05242,-0.0818 -3.45064,0.0634 -3.8633,-0.32665 -0.33248,-0.31425 0.10291,-1.06566 0.36725,-1.87438 1.21999,-3.7325 0.97216,-6.7711 -0.6365,-7.80372 -2.20429,-1.41498 -15.39606,2.66595 -18.43217,5.70206 -2.71517,2.71517 -4.46226,8.33637 -4.47007,14.3823 -0.007,5.13473 1.34363,8.00797 4.2725,9.09142 3.68418,1.36287 5.87578,-0.0144 9.61035,-6.03938 z"
       id="path12036"
       sodipodi:nodetypes="sssssssssssssssssssssssssssssssssssccssssscsssscssssssssssssssssssssssccsssscsssssssssssssscss" />
    <path
       id="path12767"
       style="display:inline;fill:#fef87c;fill-opacity:1"
       d="M 104.08203 78.607422 C 98.549413 82.834757 91.217488 88.911512 82.363281 96.710938 C 79.413426 99.309383 76.863226 101.43345 74.283203 103.58594 L 86.597656 115.63867 C 92.29963 121.01385 98.25675 125.73728 99.654297 127.35352 C 100.63065 126.71099 100.51276 127.96019 99.089844 131.25 C 97.908204 133.98198 91.261062 144.93045 85.613281 153.77344 C 89.064983 157.03777 113.65045 165.8936 126 167.99805 C 136.83509 169.84443 154.69026 168.71379 173 165.02148 C 185.93966 162.4121 203.16759 155.53129 206.5 152.28711 C 202.0971 146.46526 197.57989 139.89421 193.67188 133.36914 C 189.46514 126.34533 189.91729 126.29688 191.75 126 C 192.01734 125.95669 192.2821 125.97246 192.5625 126.05078 C 194.72983 122.7595 203.66313 113.14011 211.9043 104.27148 L 217.25781 98.511719 C 214.19979 96.062862 211.11234 93.552469 208.16797 91.066406 C 201.33577 85.297685 197.19797 81.884231 194.17383 79.482422 L 191.39062 82.759766 C 187.78375 87.368508 179.17453 92.619006 170.39062 95.568359 C 164.04828 97.697917 160.53704 98.232773 152.5 98.289062 C 147.00001 98.32758 140.025 97.765807 137 97.041016 C 129.4415 95.229996 118.72077 89.714516 111.26953 83.802734 C 108.61421 81.696015 105.86583 79.620983 104.08203 78.607422 z M 226.36523 106.72852 C 225.20117 106.01951 214.59466 117.48529 204.35742 130.51758 L 201.21289 134.51953 L 204.80859 139.9082 L 208.40625 145.29688 L 221.63281 131.71289 C 228.90778 124.24192 235.32419 117.26349 235.89062 116.20508 C 236.77053 114.56096 236.24411 113.78751 232.27734 110.89062 C 229.72373 109.02574 227.06253 107.15324 226.36523 106.72852 z M 66.679688 109.76758 C 62.291115 113.13614 58.092367 116.03464 53.632812 118.82812 C 55.52164 120.97526 61.594976 126.98505 67.175781 132.17578 C 73.872128 138.40408 80.284635 144.42298 81.425781 145.55078 C 82.263868 146.37907 83.660243 147.49224 84.433594 147.9707 C 85.118682 146.99736 86.105838 145.55947 86.5 145.01758 C 87.549757 143.57439 90.650259 139.15031 93.449219 135.10938 L 80.710938 123.07617 C 74.838226 117.3637 68.446315 111.14837 66.679688 109.76758 z M 214.28516 161.86133 L 204.2793 166.79688 C 190.18599 173.46847 168.10026 179.79139 153.5 180.68555 C 143.94488 181.27073 125.13173 179.62448 116.55273 177.80078 C 110.6356 176.54293 92.769822 169.92993 85.943359 166.4707 C 83.864686 165.41735 80.714881 164.03539 79.177734 163.45703 C 79.033161 163.65524 78.738369 164.1194 78.611328 164.28711 C 74.164486 170.15745 72.287198 172.81699 70.595703 173.83789 C 71.644055 175.07259 74.601292 176.67738 80.142578 179.33008 C 91.117493 184.58394 107.6471 190.34776 119.26172 192.9707 C 136.04225 196.76029 170.89728 195.15032 187 189.8418 C 196.25433 186.79096 219.99281 174.20918 223.82422 170.63867 C 221.70327 169.64676 218.26123 166.37242 214.28516 161.86133 z " />
  </g>
</svg>
