<?xml version="1.0" encoding="UTF-8" standalone="no"?>
<!-- Created with Inkscape (http://www.inkscape.org/) -->

<svg
   version="1.1"
   id="svg2"
   width="300"
   height="300"
   viewBox="0 0 300 300"
   sodipodi:docname="prop.svg"
   inkscape:version="1.2.2 (732a01da63, 2022-12-09)"
   inkscape:export-filename="prop.png"
   inkscape:export-xdpi="96"
   inkscape:export-ydpi="96"
   xmlns:inkscape="http://www.inkscape.org/namespaces/inkscape"
   xmlns:sodipodi="http://sodipodi.sourceforge.net/DTD/sodipodi-0.dtd"
   xmlns="http://www.w3.org/2000/svg"
   xmlns:svg="http://www.w3.org/2000/svg">
  <defs
     id="defs6">
    <filter
       inkscape:collect="always"
       style="color-interpolation-filters:sRGB"
       id="filter1694"
       x="-0.058939904"
       y="-0.05954949"
       width="1.1178798"
       height="1.1190859">
      <feGaussianBlur
         inkscape:collect="always"
         stdDeviation="1.9494"
         id="feGaussianBlur1696" />
    </filter>
  </defs>
  <sodipodi:namedview
     id="namedview4"
     pagecolor="#ffffff"
     bordercolor="#000000"
     borderopacity="0.25"
     inkscape:showpageshadow="2"
     inkscape:pageopacity="0.0"
     inkscape:pagecheckerboard="0"
     inkscape:deskcolor="#d1d1d1"
     showgrid="false"
     inkscape:zoom="3.4233333"
     inkscape:cx="118.74391"
     inkscape:cy="150.29211"
     inkscape:window-width="2560"
     inkscape:window-height="1351"
     inkscape:window-x="2391"
     inkscape:window-y="-9"
     inkscape:window-maximized="1"
     inkscape:current-layer="g8" />
  <g
     inkscape:groupmode="layer"
     inkscape:label="Image"
     id="g8">
    <path
       id="path1684"
       style="display:inline;mix-blend-mode:normal;fill:none;fill-opacity:1;stroke:#753f4b;stroke-width:12.3;stroke-dasharray:none;stroke-opacity:1;filter:url(#filter1694)"
       d="m 105.05638,59.082193 c -4.63899,-0.14709 -8.354627,0.453687 -11.044917,1.826172 -8.422912,4.297047 -19.856829,18.918079 -25.376952,32.451172 -0.69329,1.699664 -1.34786,3.415736 -1.972657,5.142578 -0.0047,0.01296 -0.009,0.02611 -0.01367,0.03906 -0.767338,2.122805 -1.467033,4.272045 -2.130859,6.435545 -0.134644,0.43913 -0.266119,0.87951 -0.396484,1.32031 -0.625565,2.11344 -1.212743,4.24106 -1.740235,6.39258 -0.01696,0.0693 -0.03587,0.1377 -0.05273,0.20703 -0.565512,2.32181 -1.066189,4.6695 -1.517578,7.03516 -0.0536,0.28157 -0.100366,0.56546 -0.152344,0.84765 -0.409039,2.21507 -0.770697,4.44827 -1.080078,6.70117 -0.02072,0.1514 -0.04418,0.30157 -0.06445,0.45313 -0.668308,4.97984 -1.089278,10.05364 -1.271485,15.21484 -0.0029,0.0834 -0.007,0.16657 -0.0098,0.25 -0.176272,5.22097 -0.102223,10.53345 0.21875,15.93555 2.72e-4,0.005 -2.73e-4,0.009 0,0.0137 0.41072,6.90381 1.20424,13.94491 2.427734,21.13672 2.609311,15.33776 3.468251,18.46317 7.419922,27.04492 4.883369,10.6051 11.861452,15.5105 34.037103,23.92383 3.40013,1.28999 6.38375,2.29883 9.44727,3.25195 2.40386,0.7479 5.07623,1.49418 7.95898,2.22461 0.62841,0.16079 1.28604,0.32921 1.95508,0.49414 3.53048,0.86105 7.46713,1.77217 12.66406,2.89649 0.63382,0.13712 1.84052,0.24144 3.26953,0.33203 0.32633,0.0208 0.65189,0.0401 1.01367,0.0586 0.7595,0.0386 1.71455,0.0612 2.61524,0.0898 1.91726,0.062 4.0383,0.10356 6.45117,0.12304 0.72123,0.005 1.37314,0.0138 2.12695,0.0156 6.87121,0.0209 14.78254,-0.10216 22.11914,-0.3457 0.0154,-5.2e-4 0.0295,-0.001 0.0449,-0.002 6.4e-4,-1.3e-4 0.001,1.4e-4 0.002,0 8.08738,-0.26915 15.29392,-0.66873 18.72851,-1.17578 21.75493,-3.21171 34.50824,-9.81342 40.4375,-20.93164 1.79202,-3.36029 2.19234,-6.10656 2.50782,-17.17578 0.15304,-5.36983 0.0364,-10.31882 -0.36914,-15.30664 -1.1e-4,-0.001 10e-5,-0.003 0,-0.004 -0.37325,-4.58902 -1.01813,-9.25175 -1.9668,-14.26953 -0.0784,-0.41654 -0.16732,-0.85515 -0.25,-1.27734 -0.39083,-1.98536 -0.83405,-4.05131 -1.32422,-6.1875 -0.14986,-0.65531 -0.29348,-1.31028 -0.45313,-1.98242 -0.62956,-2.6428 -1.30966,-5.37797 -2.0957,-8.32813 -1.3191,-4.95091 -2.19776,-8.33215 -2.86523,-11.06641 -0.49374,-2.01583 -0.8572,-3.62419 -1.05664,-4.7832 -0.12508,-0.72604 -0.21972,-1.37251 -0.24414,-1.85156 -4.9e-4,-0.01 -0.005,-0.0276 -0.006,-0.0371 -0.0676,-1.4266 0.28706,-1.91544 0.93554,-2.32617 0.75887,-0.48065 4.04991,-0.88068 7.31446,-0.88868 7.13413,-0.0184 10.56445,-2.45091 10.56445,-7.49218 0,-8.29991 -15.41966,-33.297799 -28.38867,-46.023436 -19.11194,-18.753285 -29.04375,-19.231543 -32.51953,-1.564453 -0.63991,3.252571 -1.61245,5.910592 -2.19727,6.041015 -0.0148,0.0033 -0.0326,0.02344 -0.0469,0.02344 -0.57878,0 -4.94513,-1.846686 -9.70118,-4.103516 -4.03688,-1.915581 -7.90466,-3.651897 -11.69336,-5.30664 -1.86803,-0.817071 -3.72917,-1.628668 -5.53515,-2.382813 -0.30394,-0.126683 -0.61387,-0.259879 -0.91602,-0.384765 -5.53555,-2.292431 -10.76246,-4.275413 -15.66601,-5.958985 -0.003,-9.43e-4 -0.005,-0.003 -0.008,-0.0039 -12.24939,-4.205129 -22.46848,-6.518703 -30.13281,-6.761719 z m 35.71094,57.537117 c 7.31712,0.0536 12.59445,1.07764 17.58789,3.76953 5.3e-4,2.8e-4 0.001,-2.9e-4 0.002,0 2.99556,1.61506 5.88891,3.83179 9.0586,6.79687 1.09953,1.02856 2.11527,2.04777 3.05469,3.07031 0.93982,1.02291 1.8034,2.04743 2.5996,3.08594 1.5919,2.07636 2.91237,4.20632 4.0293,6.47461 0.38876,0.78951 0.73706,1.56296 1.04883,2.32617 0.62388,1.52701 1.10043,3.00782 1.46484,4.46875 0.18213,0.7302 0.33732,1.45426 0.4668,2.17774 5.8e-4,0.003 0.001,0.007 0.002,0.01 0.25758,1.44172 0.41878,2.87618 0.51563,4.33008 1.3e-4,0.002 -1.3e-4,0.004 0,0.006 0.0971,1.45986 0.1289,2.93856 0.1289,4.46289 0,1.84673 -0.0351,3.53562 -0.1289,5.10938 -0.28132,4.72167 -1.08643,8.38983 -3.02149,12.0625 -1.53175,2.90723 -4.31209,6.9777 -6.17968,9.04492 -0.5537,0.61288 -1.19439,1.22607 -1.90625,1.83203 -0.71184,0.60593 -1.49645,1.20415 -2.33789,1.78906 -1.68265,1.16956 -3.59536,2.28404 -5.625,3.28516 -2.03006,1.00126 -4.17725,1.89121 -6.32618,2.61133 -2.14892,0.72011 -4.30034,1.2713 -6.33984,1.59765 -5.41892,0.86714 -7.48678,1.08508 -10.96094,0.66992 -1.1581,-0.13838 -2.47212,-0.34623 -4.11914,-0.625 -0.67433,-0.11413 -1.34499,-0.25355 -2.01172,-0.41601 -1.33345,-0.32491 -2.64944,-0.74476 -3.9414,-1.25391 -0.64544,-0.25438 -1.28566,-0.53196 -1.91797,-0.83008 -5.2e-4,-2.4e-4 -10e-4,2.5e-4 -0.002,0 -0.63233,-0.29816 -1.25764,-0.61859 -1.875,-0.95898 -4.9e-4,-2.7e-4 -0.001,2.7e-4 -0.002,0 -0.61786,-0.34071 -1.2271,-0.70249 -1.82812,-1.08398 -1.20202,-0.76291 -2.36859,-1.60448 -3.49219,-2.52149 -1.1236,-0.91701 -2.20397,-1.90969 -3.23438,-2.96875 -2.05222,-2.1093 -3.90312,-4.48859 -5.49804,-7.08984 -0.007,-0.0114 -0.0145,-0.0218 -0.0215,-0.0332 -0.005,-0.009 -0.0102,-0.0184 -0.0156,-0.0273 -0.79306,-1.29844 -1.52418,-2.65192 -2.18164,-4.05469 -0.79737,-1.70126 -1.40681,-3.32715 -1.875,-4.89453 -0.2341,-0.78369 -0.43353,-1.55321 -0.60156,-2.30859 -0.8399,-3.77665 -0.92188,-7.22136 -0.92188,-10.54883 0,-4.2 0.13537,-8.2893 1.41406,-12.60156 0.42623,-1.43742 0.97969,-2.89886 1.69727,-4.39844 0.5453,-1.13957 1.11315,-2.23268 1.70508,-3.28125 1.18386,-2.09715 2.46383,-4.01621 3.84961,-5.76563 0.69289,-0.8747 1.41293,-1.7062 2.16015,-2.49804 0.74699,-0.79145 1.52234,-1.54254 2.32617,-2.25391 2.41236,-2.13506 5.08598,-3.91645 8.05664,-5.3789 5.95034,-2.92934 7.45405,-3.2443 15.19727,-3.1875 z"
       transform="matrix(1.0774984,0,0,1.0774984,-11.624655,-11.624757)" />
    <path
       style="display:inline;fill:#ce9e9a;fill-opacity:1;stroke-width:1.0775"
       d="m 133.14919,247.31951 c -17.77677,-3.84586 -24.02115,-5.57454 -34.506697,-9.5527 -23.894255,-9.06536 -31.41451,-14.35097 -36.676338,-25.77796 -4.257923,-9.24683 -5.181891,-12.61536 -7.993422,-29.14179 -5.860824,-34.45045 -3.063107,-65.881 8.356198,-93.876486 5.94793,-14.581902 18.268776,-30.337617 27.34446,-34.967682 11.595149,-5.915406 40.862229,1.489068 80.808259,20.444224 5.12464,2.431735 9.82776,4.421336 10.45139,4.421336 0.62364,0 1.71233,-2.940186 2.41932,-6.533744 3.74516,-19.036282 14.44695,-18.521655 35.04006,1.685001 13.9741,13.711868 30.58785,40.646341 30.58785,49.589491 0,5.43197 -3.69615,8.05335 -11.38318,8.07318 -3.51755,0.009 -7.06455,0.44023 -7.88223,0.95813 -1.80862,1.14552 -1.5646,2.65826 3.48721,21.61885 5.67223,21.28915 7.43948,34.24297 6.96118,51.02497 -0.33993,11.92708 -0.77223,14.88696 -2.70313,18.50767 -6.38878,11.97987 -20.12963,19.09243 -43.57056,22.55304 -10.70292,1.58009 -54.67986,2.28561 -60.74037,0.97447 z m 15.62372,-48.90824 c 8.79024,-1.4066 19.50775,-6.6927 24.28065,-11.97572 2.01234,-2.22743 5.0092,-6.61287 6.65968,-9.74543 2.77968,-5.27572 3.39431,-10.54509 3.39431,-18.50447 0,-6.56698 -0.55659,-12.35339 -3.90772,-19.15898 -2.40698,-4.88818 -5.69442,-9.17634 -10.43338,-13.60942 -9.10902,-8.52103 -16.09962,-11.29281 -28.71434,-11.38527 -8.34333,-0.0612 -9.96365,0.27876 -16.37514,3.43512 -8.53572,4.20213 -14.80082,10.84067 -19.50133,20.66377 -3.09274,6.46318 -3.35141,12.28347 -3.35141,18.31747 0,5.73657 0.22615,11.79624 3.66281,19.12869 5.70823,12.17906 16.41217,20.91497 28.03768,22.88261 7.09866,1.20147 8.46301,1.1974 16.24819,-0.0484 z"
       id="path1679"
       sodipodi:nodetypes="ssssssssssscsssssssssssscsssssss" />
    <path
       id="path1577"
       style="display:inline;fill:#f6f6e1;fill-opacity:1;stroke-width:1.0775"
       d="m 130.93526,59.265135 c -2.47619,0.07018 -5.14067,0.330743 -8.56106,0.509287 -18.56078,0.968865 -36.035548,9.424012 -51.713604,25.020271 -4.334039,4.311427 -7.777079,7.138539 -10.457207,9.716426 -7.303063,20.184541 -10.243462,42.092571 -8.847271,65.561151 1.973422,0.69102 4.286596,0.53177 6.490244,0.80602 19.180275,2.38709 39.042341,14.63419 46.475528,28.65683 7.64975,14.43114 9.50394,27.28042 6.31347,43.76916 -0.77711,4.01624 -1.60841,6.43606 -1.81406,7.9655 6.14651,1.91232 12.76232,3.54828 24.32789,6.05041 3.96477,0.85774 24.0703,0.84117 40.55771,0.29252 7.99816,-1.71236 13.89754,-4.97718 23.55344,-10.13101 7.3563,-3.92642 11.64451,-7.35674 21.78568,-17.42938 10.96334,-10.88927 13.12594,-13.63819 16.42553,-20.87864 1.68347,-3.69412 3.21463,-6.97216 4.29317,-10.38144 -0.83042,-10.21377 -2.84521,-20.58336 -6.56181,-34.53257 -3.10007,-11.63528 -4.3794,-16.67139 -4.49518,-19.11296 -0.89008,-2.30754 -2.11796,-5.36707 -3.49556,-8.98618 -2.99221,-7.86087 -5.12652,-8.0269 -13.21619,-12.06924 -9.67695,-4.83548 -12.13176,-7.57463 -13.10045,-14.617789 -1.21854,-8.859858 -5.83246,-14.90194 -17.91131,-20.630304 -0.0159,0.0036 -0.0351,0.02526 -0.0505,0.02526 -0.62364,0 -5.32837,-1.989799 -10.45301,-4.421532 -13.46027,-6.38716 -25.67154,-11.428496 -36.43923,-15.124964 -1.02822,-0.06038 -2.05326,-0.08666 -3.10622,-0.05682 z m -11.69044,21.417387 c 8.75799,-0.19653 14.59108,5.089728 11.96823,10.846536 -1.27713,2.803152 -5.20233,3.24239 -7.2226,0.808124 -1.81471,-2.186589 -5.2709,-2.033442 -12.15132,0.540854 -5.7965,2.168746 -10.76173,6.339699 -13.062557,10.972804 -2.58349,5.20226 -8.188569,2.83169 -8.188569,-3.46399 0,-8.165197 16.380646,-19.428851 28.656816,-19.704328 z m 20.80709,33.349848 c 12.61472,0.0924 19.60464,2.86426 28.71365,11.38528 4.73896,4.43307 8.02708,8.72156 10.43406,13.60973 3.35112,6.80558 3.90803,12.5923 3.90803,19.15927 0,7.95937 -0.61486,13.22695 -3.39454,18.50267 -1.65047,3.13255 -4.64626,7.51846 -6.6586,9.74589 -4.77289,5.28302 -15.49137,10.57005 -24.2816,11.97664 -7.78517,1.24579 -9.1501,1.24987 -16.24876,0.0484 -11.6255,-1.96763 -22.32988,-10.70516 -28.0381,-22.88421 -3.43666,-7.33242 -3.66182,-13.39112 -3.66182,-19.12768 0,-6.03399 0.25971,-11.8543 3.35246,-18.31747 4.7005,-9.82309 10.96447,-16.46186 19.50019,-20.66397 6.41148,-3.15636 8.03171,-3.49573 16.37503,-3.43453 z m 63.28831,75.81843 c 2.53575,0 5.77261,3.61808 5.77261,6.45236 0,5.77197 -11.25604,18.9197 -19.87059,23.21251 -6.57529,3.27661 -12.71694,3.475 -15.68686,0.50508 -2.53241,-2.53241 -2.69932,-4.23283 -0.68397,-6.98901 1.3161,-1.79987 1.83394,-1.86228 4.89716,-0.59346 4.00793,1.66014 6.66712,0.76676 13.26039,-4.45521 4.78298,-3.7882 7.30888,-8.09965 7.30888,-12.47541 0,-3.69386 1.73517,-5.65686 5.00238,-5.65686 z" />
  </g>
</svg>
