<?xml version="1.0" encoding="UTF-8" standalone="no"?>
<!-- Created with Inkscape (http://www.inkscape.org/) -->

<svg
   version="1.1"
   id="svg2"
   width="300"
   height="300"
   viewBox="0 0 300 300"
   sodipodi:docname="prop_spell.svg"
   inkscape:version="1.2.2 (732a01da63, 2022-12-09)"
   inkscape:export-filename="prop_spell"
   inkscape:export-xdpi="96"
   inkscape:export-ydpi="96"
   xml:space="preserve"
   xmlns:inkscape="http://www.inkscape.org/namespaces/inkscape"
   xmlns:sodipodi="http://sodipodi.sourceforge.net/DTD/sodipodi-0.dtd"
   xmlns="http://www.w3.org/2000/svg"
   xmlns:svg="http://www.w3.org/2000/svg"><defs
     id="defs6" /><sodipodi:namedview
     id="namedview4"
     pagecolor="#ffffff"
     bordercolor="#000000"
     borderopacity="0.25"
     inkscape:showpageshadow="2"
     inkscape:pageopacity="0.0"
     inkscape:pagecheckerboard="0"
     inkscape:deskcolor="#d1d1d1"
     showgrid="false"
     inkscape:zoom="3.4233333"
     inkscape:cx="118.74391"
     inkscape:cy="150.29211"
     inkscape:window-width="2560"
     inkscape:window-height="1351"
     inkscape:window-x="2391"
     inkscape:window-y="-9"
     inkscape:window-maximized="1"
     inkscape:current-layer="g8" /><g
     inkscape:groupmode="layer"
     inkscape:label="Image"
     id="g8"><rect
       style="fill:#292c2b;fill-opacity:1;stroke:none;stroke-width:43.8978;stop-color:#000000"
       id="rect32909"
       width="300"
       height="300"
       x="0"
       y="0"
       ry="45"
       rx="45"
       inkscape:label="spell_background" /><path
       style="display:inline;fill:#c79290;fill-opacity:1;stroke-width:1.0775"
       d="m 133.14919,247.31951 c -17.77677,-3.84586 -24.02115,-5.57454 -34.506697,-9.5527 -23.894255,-9.06536 -31.41451,-14.35097 -36.676338,-25.77796 -4.257923,-9.24683 -5.181891,-12.61536 -7.993422,-29.14179 -5.860824,-34.45045 -3.063107,-65.881 8.356198,-93.876486 5.94793,-14.581902 18.268776,-30.337617 27.34446,-34.967682 11.595149,-5.915406 40.862229,1.489068 80.808259,20.444224 5.12464,2.431735 9.82776,4.421336 10.45139,4.421336 0.62364,0 1.71233,-2.940186 2.41932,-6.533744 3.74516,-19.036282 14.44695,-18.521655 35.04006,1.685001 13.9741,13.711868 30.58785,40.646341 30.58785,49.589491 0,5.43197 -3.69615,8.05335 -11.38318,8.07318 -3.51755,0.009 -7.06455,0.44023 -7.88223,0.95813 -1.80862,1.14552 -1.5646,2.65826 3.48721,21.61885 5.67223,21.28915 7.43948,34.24297 6.96118,51.02497 -0.33993,11.92708 -0.77223,14.88696 -2.70313,18.50767 -6.38878,11.97987 -20.12963,19.09243 -43.57056,22.55304 -10.70292,1.58009 -54.67986,2.28561 -60.74037,0.97447 z m 15.62372,-48.90824 c 8.79024,-1.4066 19.50775,-6.6927 24.28065,-11.97572 2.01234,-2.22743 5.0092,-6.61287 6.65968,-9.74543 2.77968,-5.27572 3.39431,-10.54509 3.39431,-18.50447 0,-6.56698 -0.55659,-12.35339 -3.90772,-19.15898 -2.40698,-4.88818 -5.69442,-9.17634 -10.43338,-13.60942 -9.10902,-8.52103 -16.09962,-11.29281 -28.71434,-11.38527 -8.34333,-0.0612 -9.96365,0.27876 -16.37514,3.43512 -8.53572,4.20213 -14.80082,10.84067 -19.50133,20.66377 -3.09274,6.46318 -3.35141,12.28347 -3.35141,18.31747 0,5.73657 0.22615,11.79624 3.66281,19.12869 5.70823,12.17906 16.41217,20.91497 28.03768,22.88261 7.09866,1.20147 8.46301,1.1974 16.24819,-0.0484 z"
       id="path1679"
       sodipodi:nodetypes="ssssssssssscsssssssssssscsssssss" /><path
       id="path1577"
       style="display:inline;fill:#f9f0d4;fill-opacity:1;stroke-width:1.0775"
       d="m 130.93526,59.265135 c -2.47619,0.07018 -5.14067,0.330743 -8.56106,0.509287 -18.56078,0.968865 -36.035548,9.424012 -51.713604,25.020271 -4.334039,4.311427 -7.777079,7.138539 -10.457207,9.716426 -7.303063,20.184541 -10.243462,42.092571 -8.847271,65.561151 1.973422,0.69102 4.286596,0.53177 6.490244,0.80602 19.180275,2.38709 39.042341,14.63419 46.475528,28.65683 7.64975,14.43114 9.50394,27.28042 6.31347,43.76916 -0.77711,4.01624 -1.60841,6.43606 -1.81406,7.9655 6.14651,1.91232 12.76232,3.54828 24.32789,6.05041 3.96477,0.85774 24.0703,0.84117 40.55771,0.29252 7.99816,-1.71236 13.89754,-4.97718 23.55344,-10.13101 7.3563,-3.92642 11.64451,-7.35674 21.78568,-17.42938 10.96334,-10.88927 13.12594,-13.63819 16.42553,-20.87864 1.68347,-3.69412 3.21463,-6.97216 4.29317,-10.38144 -0.83042,-10.21377 -2.84521,-20.58336 -6.56181,-34.53257 -3.10007,-11.63528 -4.3794,-16.67139 -4.49518,-19.11296 -0.89008,-2.30754 -2.11796,-5.36707 -3.49556,-8.98618 -2.99221,-7.86087 -5.12652,-8.0269 -13.21619,-12.06924 -9.67695,-4.83548 -12.13176,-7.57463 -13.10045,-14.617789 -1.21854,-8.859858 -5.83246,-14.90194 -17.91131,-20.630304 -0.0159,0.0036 -0.0351,0.02526 -0.0505,0.02526 -0.62364,0 -5.32837,-1.989799 -10.45301,-4.421532 -13.46027,-6.38716 -25.67154,-11.428496 -36.43923,-15.124964 -1.02822,-0.06038 -2.05326,-0.08666 -3.10622,-0.05682 z m -11.69044,21.417387 c 8.75799,-0.19653 14.59108,5.089728 11.96823,10.846536 -1.27713,2.803152 -5.20233,3.24239 -7.2226,0.808124 -1.81471,-2.186589 -5.2709,-2.033442 -12.15132,0.540854 -5.7965,2.168746 -10.76173,6.339699 -13.062557,10.972804 -2.58349,5.20226 -8.188569,2.83169 -8.188569,-3.46399 0,-8.165197 16.380646,-19.428851 28.656816,-19.704328 z m 20.80709,33.349848 c 12.61472,0.0924 19.60464,2.86426 28.71365,11.38528 4.73896,4.43307 8.02708,8.72156 10.43406,13.60973 3.35112,6.80558 3.90803,12.5923 3.90803,19.15927 0,7.95937 -0.61486,13.22695 -3.39454,18.50267 -1.65047,3.13255 -4.64626,7.51846 -6.6586,9.74589 -4.77289,5.28302 -15.49137,10.57005 -24.2816,11.97664 -7.78517,1.24579 -9.1501,1.24987 -16.24876,0.0484 -11.6255,-1.96763 -22.32988,-10.70516 -28.0381,-22.88421 -3.43666,-7.33242 -3.66182,-13.39112 -3.66182,-19.12768 0,-6.03399 0.25971,-11.8543 3.35246,-18.31747 4.7005,-9.82309 10.96447,-16.46186 19.50019,-20.66397 6.41148,-3.15636 8.03171,-3.49573 16.37503,-3.43453 z m 63.28831,75.81843 c 2.53575,0 5.77261,3.61808 5.77261,6.45236 0,5.77197 -11.25604,18.9197 -19.87059,23.21251 -6.57529,3.27661 -12.71694,3.475 -15.68686,0.50508 -2.53241,-2.53241 -2.69932,-4.23283 -0.68397,-6.98901 1.3161,-1.79987 1.83394,-1.86228 4.89716,-0.59346 4.00793,1.66014 6.66712,0.76676 13.26039,-4.45521 4.78298,-3.7882 7.30888,-8.09965 7.30888,-12.47541 0,-3.69386 1.73517,-5.65686 5.00238,-5.65686 z" /></g></svg>
