<?xml version="1.0" encoding="UTF-8" standalone="no"?>
<!-- Created with Inkscape (http://www.inkscape.org/) -->

<svg
   version="1.1"
   id="svg30129"
   width="300"
   height="300"
   viewBox="0 0 300 300"
   sodipodi:docname="accessory.svg"
   inkscape:export-filename="accessory.png"
   inkscape:export-xdpi="96"
   inkscape:export-ydpi="96"
   inkscape:version="1.2.2 (732a01da63, 2022-12-09)"
   xmlns:inkscape="http://www.inkscape.org/namespaces/inkscape"
   xmlns:sodipodi="http://sodipodi.sourceforge.net/DTD/sodipodi-0.dtd"
   xmlns:xlink="http://www.w3.org/1999/xlink"
   xmlns="http://www.w3.org/2000/svg"
   xmlns:svg="http://www.w3.org/2000/svg">
  <defs
     id="defs30133">
    <linearGradient
       inkscape:collect="always"
       id="linearGradient34007">
      <stop
         style="stop-color:#bc7b81;stop-opacity:1;"
         offset="0"
         id="stop34003" />
      <stop
         style="stop-color:#bc7b81;stop-opacity:1;"
         offset="0.43131059"
         id="stop34376" />
      <stop
         style="stop-color:#824651;stop-opacity:1;"
         offset="1"
         id="stop34005" />
    </linearGradient>
    <radialGradient
       inkscape:collect="always"
       xlink:href="#linearGradient34007"
       id="radialGradient34374"
       cx="146.42929"
       cy="71.965004"
       fx="146.42929"
       fy="71.965004"
       r="82.703995"
       gradientTransform="matrix(0,1.5369463,-1.7668124,0,277.14846,-116.82271)"
       gradientUnits="userSpaceOnUse" />
    <filter
       inkscape:collect="always"
       style="color-interpolation-filters:sRGB"
       id="filter34384"
       x="-0.054829706"
       y="-0.093383799"
       width="1.1096607"
       height="1.1805179">
      <feGaussianBlur
         inkscape:collect="always"
         stdDeviation="1.9494"
         id="feGaussianBlur34386" />
    </filter>
    <filter
       inkscape:collect="always"
       style="color-interpolation-filters:sRGB"
       id="filter34388"
       x="-0.092271959"
       y="-0.079296554"
       width="1.1845798"
       height="1.1574041">
      <feGaussianBlur
         inkscape:collect="always"
         stdDeviation="1.9494"
         id="feGaussianBlur34390" />
    </filter>
  </defs>
  <sodipodi:namedview
     id="namedview30131"
     pagecolor="#ffffff"
     bordercolor="#000000"
     borderopacity="0.25"
     inkscape:showpageshadow="2"
     inkscape:pageopacity="0.0"
     inkscape:pagecheckerboard="0"
     inkscape:deskcolor="#d1d1d1"
     showgrid="false"
     inkscape:zoom="3.4233333"
     inkscape:cx="83.106134"
     inkscape:cy="150.87634"
     inkscape:window-width="2560"
     inkscape:window-height="1351"
     inkscape:window-x="2391"
     inkscape:window-y="-9"
     inkscape:window-maximized="1"
     inkscape:current-layer="g30135" />
  <g
     inkscape:groupmode="layer"
     inkscape:label="Image"
     id="g30135">
    <path
       id="path34380"
       style="fill:none;fill-opacity:1;stroke:#753f4b;stroke-width:12.3;stroke-dasharray:none;filter:url(#filter34384)"
       d="m 97.659324,101.71868 c -2.16506,-0.1982 -6.995901,2.94061 -6.995901,2.94061 -10.939426,6.06242 -24.389016,19.58437 -30.532422,32.11581 -6.656321,13.57771 -8.944697,23.10973 -8.87546,36.97331 0.05954,11.92211 3.306502,33.5305 6.07477,36.46494 1.55501,1.84813 2.723001,2.22924 5.615372,2.15473 2.312911,-0.80206 2.865238,-4.4113 2.387931,-8.37408 -0.432268,-3.58883 -0.705748,-13.82857 -0.886146,-23.67877 -0.2985,-16.2988 -0.07542,-18.60747 2.485875,-25.67027 5.312196,-14.64849 13.861268,-25.9895 26.689337,-35.40624 2.828494,-2.0763 4.298164,-3.17974 4.988074,-4.91811 0.77694,-1.95763 0.57286,-4.68784 0.36379,-9.89685 0,0 -0.0977,-2.30818 -0.91879,-2.6188 -0.11844,-0.0448 -0.2521,-0.073 -0.39643,-0.0863 z m 111.831816,5.65871 c -2.82308,0.11311 -1.46418,2.98739 -1.48091,8.3051 -0.0169,5.38334 0.45367,6.32092 6.4199,12.76517 17.93374,19.37058 25.25569,47.17596 21.0693,80.02604 -1.20104,9.42461 -1.21009,12.22889 -0.0372,13.64201 3.19335,3.84774 8.73865,1.2514 10.84131,-5.0767 3.52652,-10.61332 3.13884,-54.6776 -0.55034,-62.55263 -1.03574,-2.21088 -2.71774,-6.41482 -3.73815,-9.34185 -3.81584,-10.94572 -14.81968,-25.57579 -25.34612,-33.6969 -3.27623,-2.52757 -5.88924,-4.12186 -7.17768,-4.07024 z"
       sodipodi:nodetypes="scssccssssscssssssssssss" />
    <path
       id="path32162"
       style="fill:url(#radialGradient34374);fill-opacity:1;stroke-width:1.19397"
       d="m 97.659324,101.71868 c -2.16506,-0.1982 -6.995901,2.94061 -6.995901,2.94061 -10.939426,6.06242 -24.389016,19.58437 -30.532422,32.11581 -6.656321,13.57771 -8.944697,23.10973 -8.87546,36.97331 0.05954,11.92211 3.306502,33.5305 6.07477,36.46494 1.55501,1.84813 2.723001,2.22924 5.615372,2.15473 2.312911,-0.80206 2.865238,-4.4113 2.387931,-8.37408 -0.432268,-3.58883 -0.705748,-13.82857 -0.886146,-23.67877 -0.2985,-16.2988 -0.07542,-18.60747 2.485875,-25.67027 5.312196,-14.64849 13.861268,-25.9895 26.689337,-35.40624 2.828494,-2.0763 4.298164,-3.17974 4.988074,-4.91811 0.77694,-1.95763 0.57286,-4.68784 0.36379,-9.89685 0,0 -0.0977,-2.30818 -0.91879,-2.6188 -0.11844,-0.0448 -0.2521,-0.073 -0.39643,-0.0863 z m 111.831816,5.65871 c -2.82308,0.11311 -1.46418,2.98739 -1.48091,8.3051 -0.0169,5.38334 0.45367,6.32092 6.4199,12.76517 17.93374,19.37058 25.25569,47.17596 21.0693,80.02604 -1.20104,9.42461 -1.21009,12.22889 -0.0372,13.64201 3.19335,3.84774 8.73865,1.2514 10.84131,-5.0767 3.52652,-10.61332 3.13884,-54.6776 -0.55034,-62.55263 -1.03574,-2.21088 -2.71774,-6.41482 -3.73815,-9.34185 -3.81584,-10.94572 -14.81968,-25.57579 -25.34612,-33.6969 -3.27623,-2.52757 -5.88924,-4.12186 -7.17768,-4.07024 z"
       sodipodi:nodetypes="scssccssssscssssssssssss" />
    <path
       style="fill:none;fill-opacity:1;stroke:#753f4b;stroke-width:12.3;stroke-dasharray:none;filter:url(#filter34388)"
       d="m 121.84109,213.60926 c -17.03581,-0.83468 -31.576566,-1.89472 -32.268763,-2.58692 -0.842239,-0.84224 1.304899,-6.23652 6.826997,-17.15149 l 8.055676,-15.92284 0.59912,-49.85449 c 0.37436,-31.150936 -0.11378,-44.907136 0.62605,-49.163892 0.13942,-0.802175 0.94698,-1.795703 1.11768,-1.937378 0.9835,-0.81624 4.40143,-0.611204 9.98401,0.545598 4.52599,0.93786 17.48488,3.453966 28.79755,5.591349 l 20.56847,3.88615 16.15252,-2.236435 c 10.08033,-1.395697 16.54253,-1.812489 17.18998,-1.108704 0.57061,0.620253 1.381,19.932702 1.80089,42.916542 0.75657,41.4139 2.01044,62.42278 4.27548,71.63797 0.64563,2.62672 1.1867,6.19824 1.20237,7.93671 0.0267,2.95204 -0.4709,3.2478 -7.53159,4.47737 -4.15806,0.72409 -10.55411,1.31653 -14.21345,1.31653 h -6.65334 l -2.72179,-6.56681 c -1.497,-3.61175 -3.19941,-9.40294 -3.93387,-9.40294 -0.73445,0 -2.45502,5.6068 -3.67275,8.99319 -1.21773,3.3864 -2.40285,7.02408 -3.61323,8.23445 -2.50861,2.50862 0.0445,2.48487 -42.58801,0.39604 z m 61.51465,-40.95058 c 1.27873,-2.40411 2.28239,-3.5742 1.89003,-4.68036 -0.27509,-0.7755 -15.00561,-9.13528 -15.90023,-8.23095 -0.46619,0.47126 2.06567,6.19129 4.02694,9.81905 2.18714,4.04556 4.25987,8.19968 5.9245,8.35901 1.36237,0.13041 2.71471,-2.7399 4.05876,-5.26675 z m -25.63476,-8.98802 c 2.29278,-4.65731 4.05354,-8.54081 7.51992,-11.26094 3.09037,-2.42508 8.11652,-4.40673 13.1262,-5.62103 4.1697,-1.01069 6.3674,-1.6423 6.26831,-3.73664 -0.11163,-2.35968 -2.09617,-3.35029 -8.14513,-5.76325 -2.08095,-0.83011 -5.40556,-2.6762 -8.32639,-4.6699 -0.73098,-0.49895 -2.34839,-2.6071 -2.85281,-3.16981 -2.56958,-2.86671 -2.98796,-5.58009 -4.47078,-11.81708 -3.80276,-15.99509 -5.49522,-16.42007 -11.40577,-2.86402 -2.77505,6.36466 -5.07014,10.84006 -9.20247,13.84335 -2.55032,1.85353 -6.15129,2.93039 -9.94771,4.19021 -3.63411,1.20597 -7.40196,2.44939 -7.45417,4.02476 -0.0763,2.3003 2.68357,3.57194 5.7551,5.87333 3.32679,2.49266 6.7463,5.10323 9.257,8.26099 3.19426,4.01747 5.18448,8.72995 6.54892,13.13513 1.81274,5.85255 3.28705,9.86441 5.33877,9.93323 2.14711,0.072 4.89753,-4.07457 7.99101,-10.35833 z m -28.53243,-0.28476 c 1.49493,-2.61778 2.76752,-5.06699 2.33896,-5.42568 -0.46253,-0.38712 -3.06051,1.08172 -6.17773,2.49037 -2.54748,1.15119 -4.62757,1.9614 -5.18095,2.9174 -0.4782,0.8261 0.83495,2.8125 1.88249,4.26199 0.82663,1.14384 1.53595,2.8933 2.24772,2.74646 1.48071,-0.30545 3.13104,-3.91127 4.88951,-6.99054 z m 50.62861,-44.70707 c 5.37606,-4.7322 5.51269,-5.01158 3.52494,-7.208 -1.13733,-1.25674 -2.8236,-2.13078 -3.74724,-1.94229 -1.77648,0.36251 -7.92772,14.07329 -6.31388,14.07329 0.51885,0 3.46012,-2.21535 6.53618,-4.923 z m -47.9283,-5.22669 c -1.55387,-3.51281 -2.40591,-5.66568 -3.27754,-5.90617 -0.6714,-0.18523 -1.78067,0.89848 -3.15105,2.22309 -1.07112,1.03535 -2.34743,1.61041 -2.26515,2.24797 0.14129,1.09456 1.73762,2.49341 4.35718,4.6966 2.55401,2.14808 6.98196,5.78535 7.43753,5.48387 0.85904,-0.56845 -1.74154,-5.67213 -3.10097,-8.74536 z"
       id="path32152"
       sodipodi:nodetypes="ssscssssscssssssscsssssssssssssssssssssssssssssssssssssssssssssss" />
    <path
       style="fill:#f6f6e1;fill-opacity:1;stroke-width:1.19397"
       d="m 121.84109,213.60926 c -17.03581,-0.83468 -31.576566,-1.89472 -32.268763,-2.58692 -0.842239,-0.84224 1.304899,-6.23652 6.826997,-17.15149 l 8.055676,-15.92284 0.59912,-49.85449 c 0.37436,-31.150936 -0.11378,-44.907136 0.62605,-49.163892 0.13942,-0.802175 0.94698,-1.795703 1.11768,-1.937378 0.9835,-0.81624 4.40143,-0.611204 9.98401,0.545598 4.52599,0.93786 17.48488,3.453966 28.79755,5.591349 l 20.56847,3.88615 16.15252,-2.236435 c 10.08033,-1.395697 16.54253,-1.812489 17.18998,-1.108704 0.57061,0.620253 1.381,19.932702 1.80089,42.916542 0.75657,41.4139 2.01044,62.42278 4.27548,71.63797 0.64563,2.62672 1.1867,6.19824 1.20237,7.93671 0.0267,2.95204 -0.4709,3.2478 -7.53159,4.47737 -4.15806,0.72409 -10.55411,1.31653 -14.21345,1.31653 h -6.65334 l -2.72179,-6.56681 c -1.497,-3.61175 -3.19941,-9.40294 -3.93387,-9.40294 -0.73445,0 -2.45502,5.6068 -3.67275,8.99319 -1.21773,3.3864 -2.40285,7.02408 -3.61323,8.23445 -2.50861,2.50862 0.0445,2.48487 -42.58801,0.39604 z m 61.51465,-40.95058 c 1.27873,-2.40411 2.28239,-3.5742 1.89003,-4.68036 -0.27509,-0.7755 -15.00561,-9.13528 -15.90023,-8.23095 -0.46619,0.47126 2.06567,6.19129 4.02694,9.81905 2.18714,4.04556 4.25987,8.19968 5.9245,8.35901 1.36237,0.13041 2.71471,-2.7399 4.05876,-5.26675 z m -25.63476,-8.98802 c 2.29278,-4.65731 4.05354,-8.54081 7.51992,-11.26094 3.09037,-2.42508 8.11652,-4.40673 13.1262,-5.62103 4.1697,-1.01069 6.3674,-1.6423 6.26831,-3.73664 -0.11163,-2.35968 -2.09617,-3.35029 -8.14513,-5.76325 -2.08095,-0.83011 -5.40556,-2.6762 -8.32639,-4.6699 -0.73098,-0.49895 -2.34839,-2.6071 -2.85281,-3.16981 -2.56958,-2.86671 -2.98796,-5.58009 -4.47078,-11.81708 -3.80276,-15.99509 -5.49522,-16.42007 -11.40577,-2.86402 -2.77505,6.36466 -5.07014,10.84006 -9.20247,13.84335 -2.55032,1.85353 -6.15129,2.93039 -9.94771,4.19021 -3.63411,1.20597 -7.40196,2.44939 -7.45417,4.02476 -0.0763,2.3003 2.68357,3.57194 5.7551,5.87333 3.32679,2.49266 6.7463,5.10323 9.257,8.26099 3.19426,4.01747 5.18448,8.72995 6.54892,13.13513 1.81274,5.85255 3.28705,9.86441 5.33877,9.93323 2.14711,0.072 4.89753,-4.07457 7.99101,-10.35833 z m -28.53243,-0.28476 c 1.49493,-2.61778 2.76752,-5.06699 2.33896,-5.42568 -0.46253,-0.38712 -3.06051,1.08172 -6.17773,2.49037 -2.54748,1.15119 -4.62757,1.9614 -5.18095,2.9174 -0.4782,0.8261 0.83495,2.8125 1.88249,4.26199 0.82663,1.14384 1.53595,2.8933 2.24772,2.74646 1.48071,-0.30545 3.13104,-3.91127 4.88951,-6.99054 z m 50.62861,-44.70707 c 5.37606,-4.7322 5.51269,-5.01158 3.52494,-7.208 -1.13733,-1.25674 -2.8236,-2.13078 -3.74724,-1.94229 -1.77648,0.36251 -7.92772,14.07329 -6.31388,14.07329 0.51885,0 3.46012,-2.21535 6.53618,-4.923 z m -47.9283,-5.22669 c -1.55387,-3.51281 -2.40591,-5.66568 -3.27754,-5.90617 -0.6714,-0.18523 -1.78067,0.89848 -3.15105,2.22309 -1.07112,1.03535 -2.34743,1.61041 -2.26515,2.24797 0.14129,1.09456 1.73762,2.49341 4.35718,4.6966 2.55401,2.14808 6.98196,5.78535 7.43753,5.48387 0.85904,-0.56845 -1.74154,-5.67213 -3.10097,-8.74536 z"
       id="path34378"
       sodipodi:nodetypes="ssscssssscssssssscsssssssssssssssssssssssssssssssssssssssssssssss" />
  </g>
</svg>
