<?xml version="1.0" encoding="UTF-8" standalone="no"?>
<!-- Created with Inkscape (http://www.inkscape.org/) -->

<svg
   version="1.1"
   id="svg24723"
   width="300"
   height="300"
   viewBox="0 0 300 300"
   sodipodi:docname="broom.svg"
   inkscape:version="1.2.2 (732a01da63, 2022-12-09)"
   xmlns:inkscape="http://www.inkscape.org/namespaces/inkscape"
   xmlns:sodipodi="http://sodipodi.sourceforge.net/DTD/sodipodi-0.dtd"
   xmlns="http://www.w3.org/2000/svg"
   xmlns:svg="http://www.w3.org/2000/svg">
  <defs
     id="defs24727">
    <filter
       inkscape:collect="always"
       style="color-interpolation-filters:sRGB"
       id="filter25381"
       x="-0.054080409"
       y="-0.047758635"
       width="1.1076216"
       height="1.0951051">
      <feGaussianBlur
         inkscape:collect="always"
         stdDeviation="1.9494"
         id="feGaussianBlur25383" />
    </filter>
  </defs>
  <sodipodi:namedview
     id="namedview24725"
     pagecolor="#ffffff"
     bordercolor="#000000"
     borderopacity="0.25"
     inkscape:showpageshadow="2"
     inkscape:pageopacity="0.0"
     inkscape:pagecheckerboard="0"
     inkscape:deskcolor="#d1d1d1"
     showgrid="false"
     inkscape:zoom="2.4206622"
     inkscape:cx="29.537372"
     inkscape:cy="192.71586"
     inkscape:window-width="2560"
     inkscape:window-height="1351"
     inkscape:window-x="2391"
     inkscape:window-y="-9"
     inkscape:window-maximized="1"
     inkscape:current-layer="g24729" />
  <g
     inkscape:groupmode="layer"
     inkscape:label="Image"
     id="g24729">
    <path
       style="fill:#f6f6e1;fill-opacity:1;stroke-width:12.3;stroke:#753f4b;stroke-dasharray:none;filter:url(#filter25381)"
       d="m 49.061075,262.65611 c -0.843268,-2.19753 1.337664,-11.69017 3.790393,-16.49791 1.129669,-2.21433 4.032678,-6.4206 6.451133,-9.34727 5.217737,-6.31418 5.122952,-7.49282 0.838427,-5.27721 -4.271823,2.20903 -5.314273,2.07372 -6.41951,-0.83326 -2.633258,-6.926 4.66643,-23.60888 13.500639,-31.55158 5.988692,-5.38436 18.607632,-12.01625 24.753055,-13.00898 3.655475,-0.59051 4.525174,-0.25249 8.059248,3.13228 2.17887,2.08682 5.59854,4.7964 7.66708,5.81781 2.06854,1.02141 5.91517,2.86705 7.83597,4.30488 3.0797,2.30536 2.96331,3.21089 2.94931,7.66375 -0.0392,12.47378 -6.12994,27.97725 -14.03443,35.72371 -5.0846,4.98294 -14.963223,10.84146 -25.040022,14.99894 -14.251784,5.88002 -28.844475,8.80154 -30.351293,4.87484 z m 63.373095,-68.33695 c -6.76015,-3.34625 -13.509953,-10.17593 -13.505069,-14.15605 0.005,-4.38086 3.751199,-10.63687 7.043199,-11.46312 3.75152,-0.94157 4.78477,0.34884 5.59836,5.77488 1.19395,7.96177 2.12319,8.57933 10.66974,7.09101 8.28992,-1.44363 9.83003,-0.76121 8.67431,3.84355 -0.97099,3.86871 -8.56867,11.11774 -11.65133,11.11664 -1.3049,-4.8e-4 -4.37804,-0.99358 -6.82921,-2.20691 z m 4.11429,-16.36234 c -0.6507,-0.78405 -1.32341,-3.57541 -1.49491,-6.20301 0,0 -0.85543,-3.04339 0.11978,-4.30665 1.06497,-1.37955 4.93732,-1.77624 4.93732,-1.77624 6.28858,-0.59572 6.56905,-0.35251 7.54319,6.301 0,0 0.60122,3.18759 -0.36722,4.56397 -0.70406,1.00067 -3.67654,1.58932 -3.67654,1.58932 -2.80292,0.59555 -3.19891,0.5111 -4.14975,0.77583 -0.95082,0.26472 -2.26117,-0.16016 -2.91187,-0.94422 z m 15.44899,-2.81984 c -0.33275,-0.53844 -1.25312,-3.80374 -2.04523,-7.25623 -1.59146,-6.93654 -0.75322,-6.54239 -11.9868,-5.63614 0,0 -3.67503,1.32799 -5.03933,0.15879 -1.11224,-0.9532 -1.02937,-3.31045 -0.96882,-5.01046 0.0766,-2.15196 0.50292,-4.43244 1.67444,-6.2392 0.59022,-0.91025 1.29971,-2.19613 2.52559,-2.05269 0.9811,0.11481 1.87417,1.30519 2.47865,2.49625 0.39669,0.78165 1.12744,1.53576 2.51769,1.94693 1.33267,0.39414 2.24004,0.96161 3.51481,1.89271 1.33392,0.97427 3.48736,2.43577 5.4917,2.81178 2.54643,0.47771 5.02443,2.67079 7.02076,4.642 1.57397,1.55417 3.7966,3.44565 3.72966,5.48859 -0.0412,1.25547 -2.10334,3.02685 -2.10334,3.02685 -3.28292,3.50994 -6.01963,5.00928 -6.80978,3.73082 z m 38.69441,-17.21404 c -2.19064,-2.36373 -2.8367,-3.48409 -2.3588,-6.42909 0.32793,-2.02084 1.06196,-4.13996 1.63115,-4.70915 1.60627,-1.60626 6.41118,0.0404 8.2623,2.86556 0.73243,1.11785 0.99219,1.87521 1.07449,2.85787 0.0783,0.93401 0.0123,2.07153 -0.56329,3.91554 -0.74925,2.4007 -1.70042,3.83282 -2.8232,4.25572 -1.35993,0.51223 -3.05303,-0.41539 -5.22265,-2.75645 z m -37.68251,-4.67377 c -5.20279,-1.69953 -8.6391,-4.74959 -7.84444,-7.91578 1.25937,-5.01773 8.26531,-18.64341 9.98789,-19.20262 2.17716,-0.70677 4.28606,-0.80653 7.04504,-0.8146 7.85965,-0.023 9.45173,-0.64987 12.53135,-6.02345 4.26605,-7.44372 14.80373,-22.963458 23.80396,-35.058049 7.26766,-9.766381 10.80412,-14.140998 17.80804,-22.028622 1.31199,-1.47753 3.26757,-4.04405 4.34572,-5.703378 1.07816,-1.659326 3.80418,-3.95764 6.05783,-5.107364 3.71155,-1.893496 4.16493,-2.598481 4.81304,-7.484185 0.39354,-2.966579 1.12533,-5.647066 1.62623,-5.956638 1.62089,-1.001763 5.09365,1.612901 5.447,4.10108 0.33654,2.369824 0.67317,2.426314 16.19355,2.717501 9.93319,0.186362 14.67545,-0.270132 15.9737,0.867334 0.912,0.799071 -0.26695,3.193331 -1.40267,5.315462 -0.98935,1.848615 -2.1712,1.579086 -12.02452,1.579086 -12.26121,0 -13.7465,0.700135 -15.1097,7.122402 -0.32039,1.509367 -0.39675,2.696779 -1.16494,3.248474 -0.78455,0.563435 -2.28141,0.47816 -4.59613,0.787498 -6.86012,0.91679 -11.72694,4.179804 -18.85907,12.644261 -7.81793,9.27838 -20.36644,28.199828 -26.48476,39.935458 0,0 -2.7895,6.15124 -3.42056,9.58031 -0.34716,1.88631 0.73414,3.64145 0.73414,3.64145 1.55299,2.85184 3.47675,4.45801 6.93516,5.79016 5.33273,2.05413 6.26564,3.32689 3.88603,5.3018 -1.28108,1.06321 -4.76696,1.0558 -17.14918,-0.0364 -17.87073,-1.57634 -17.39795,-1.73421 -21.2242,7.08689 -1.39462,3.21518 -2.82305,6.10857 -3.41406,6.33386 -0.59102,0.22529 -2.72141,-0.14273 -4.49445,-0.72191 z m 55.37988,-18.99142 c 0,0 -1.58068,-1.82261 -1.28473,-3.08473 0.18944,-0.80798 1.22404,-1.25802 1.22404,-1.25802 4.19305,-2.24404 14.4137,4.69519 10.19044,6.50041 -2.17995,0.93181 -5.18936,1.85334 -7.27322,0.85098 -1.12821,-0.54269 -2.04494,-1.86885 -2.85653,-3.00864 z m 13.96672,-86.962166 c -3.38687,-0.958981 -6.89748,-6.810372 -5.92473,-9.875218 0.62415,-1.966547 1.26076,-2.180571 4.64866,-1.56287 5.17448,0.943446 6.57055,2.47332 6.88667,7.546737 0.28434,4.563017 -0.7369,5.271317 -5.6106,3.891351 z"
       id="path25220"
       sodipodi:nodetypes="ssssssssssssssssscsssssssssssssssssaasssssasssssssssssssssssssssssssssssssssssssssssssssssssss" />
    <path
       style="fill:#f6f6e1;fill-opacity:1;stroke-width:1.07457"
       d="m 49.061075,262.65611 c -0.843268,-2.19753 1.337664,-11.69017 3.790393,-16.49791 1.129669,-2.21433 4.032678,-6.4206 6.451133,-9.34727 5.217737,-6.31418 5.122952,-7.49282 0.838427,-5.27721 -4.271823,2.20903 -5.314273,2.07372 -6.41951,-0.83326 -2.633258,-6.926 4.66643,-23.60888 13.500639,-31.55158 5.988692,-5.38436 18.607632,-12.01625 24.753055,-13.00898 3.655475,-0.59051 4.525174,-0.25249 8.059248,3.13228 2.17887,2.08682 5.59854,4.7964 7.66708,5.81781 2.06854,1.02141 5.91517,2.86705 7.83597,4.30488 3.0797,2.30536 2.96331,3.21089 2.94931,7.66375 -0.0392,12.47378 -6.12994,27.97725 -14.03443,35.72371 -5.0846,4.98294 -14.963223,10.84146 -25.040022,14.99894 -14.251784,5.88002 -28.844475,8.80154 -30.351293,4.87484 z m 63.373095,-68.33695 c -6.76015,-3.34625 -13.509953,-10.17593 -13.505069,-14.15605 0.005,-4.38086 3.751199,-10.63687 7.043199,-11.46312 3.75152,-0.94157 4.78477,0.34884 5.59836,5.77488 1.19395,7.96177 2.12319,8.57933 10.66974,7.09101 8.28992,-1.44363 9.83003,-0.76121 8.67431,3.84355 -0.97099,3.86871 -8.56867,11.11774 -11.65133,11.11664 -1.3049,-4.8e-4 -4.37804,-0.99358 -6.82921,-2.20691 z m 4.11429,-16.36234 c -0.6507,-0.78405 -1.32341,-3.57541 -1.49491,-6.20301 0,0 -0.85543,-3.04339 0.11978,-4.30665 1.06497,-1.37955 4.93732,-1.77624 4.93732,-1.77624 6.28858,-0.59572 6.56905,-0.35251 7.54319,6.301 0,0 0.60122,3.18759 -0.36722,4.56397 -0.70406,1.00067 -3.67654,1.58932 -3.67654,1.58932 -2.80292,0.59555 -3.19891,0.5111 -4.14975,0.77583 -0.95082,0.26472 -2.26117,-0.16016 -2.91187,-0.94422 z m 15.44899,-2.81984 c -0.33275,-0.53844 -1.25312,-3.80374 -2.04523,-7.25623 -1.59146,-6.93654 -0.75322,-6.54239 -11.9868,-5.63614 0,0 -3.67503,1.32799 -5.03933,0.15879 -1.11224,-0.9532 -1.02937,-3.31045 -0.96882,-5.01046 0.0766,-2.15196 0.50292,-4.43244 1.67444,-6.2392 0.59022,-0.91025 1.29971,-2.19613 2.52559,-2.05269 0.9811,0.11481 1.87417,1.30519 2.47865,2.49625 0.39669,0.78165 1.12744,1.53576 2.51769,1.94693 1.33267,0.39414 2.24004,0.96161 3.51481,1.89271 1.33392,0.97427 3.48736,2.43577 5.4917,2.81178 2.54643,0.47771 5.02443,2.67079 7.02076,4.642 1.57397,1.55417 3.7966,3.44565 3.72966,5.48859 -0.0412,1.25547 -2.10334,3.02685 -2.10334,3.02685 -3.28292,3.50994 -6.01963,5.00928 -6.80978,3.73082 z m 38.69441,-17.21404 c -2.19064,-2.36373 -2.8367,-3.48409 -2.3588,-6.42909 0.32793,-2.02084 1.06196,-4.13996 1.63115,-4.70915 1.60627,-1.60626 6.41118,0.0404 8.2623,2.86556 0.73243,1.11785 0.99219,1.87521 1.07449,2.85787 0.0783,0.93401 0.0123,2.07153 -0.56329,3.91554 -0.74925,2.4007 -1.70042,3.83282 -2.8232,4.25572 -1.35993,0.51223 -3.05303,-0.41539 -5.22265,-2.75645 z m -37.68251,-4.67377 c -5.20279,-1.69953 -8.6391,-4.74959 -7.84444,-7.91578 1.25937,-5.01773 8.26531,-18.64341 9.98789,-19.20262 2.17716,-0.70677 4.28606,-0.80653 7.04504,-0.8146 7.85965,-0.023 9.45173,-0.64987 12.53135,-6.02345 4.26605,-7.44372 14.80373,-22.963458 23.80396,-35.058049 7.26766,-9.766381 10.80412,-14.140998 17.80804,-22.028622 1.31199,-1.47753 3.26757,-4.04405 4.34572,-5.703378 1.07816,-1.659326 3.80418,-3.95764 6.05783,-5.107364 3.71155,-1.893496 4.16493,-2.598481 4.81304,-7.484185 0.39354,-2.966579 1.12533,-5.647066 1.62623,-5.956638 1.62089,-1.001763 5.09365,1.612901 5.447,4.10108 0.33654,2.369824 0.67317,2.426314 16.19355,2.717501 9.93319,0.186362 14.67545,-0.270132 15.9737,0.867334 0.912,0.799071 -0.26695,3.193331 -1.40267,5.315462 -0.98935,1.848615 -2.1712,1.579086 -12.02452,1.579086 -12.26121,0 -13.7465,0.700135 -15.1097,7.122402 -0.32039,1.509367 -0.39675,2.696779 -1.16494,3.248474 -0.78455,0.563435 -2.28141,0.47816 -4.59613,0.787498 -6.86012,0.91679 -11.72694,4.179804 -18.85907,12.644261 -7.81793,9.27838 -20.36644,28.199828 -26.48476,39.935458 0,0 -2.7895,6.15124 -3.42056,9.58031 -0.34716,1.88631 0.73414,3.64145 0.73414,3.64145 1.55299,2.85184 3.47675,4.45801 6.93516,5.79016 5.33273,2.05413 6.26564,3.32689 3.88603,5.3018 -1.28108,1.06321 -4.76696,1.0558 -17.14918,-0.0364 -17.87073,-1.57634 -17.39795,-1.73421 -21.2242,7.08689 -1.39462,3.21518 -2.82305,6.10857 -3.41406,6.33386 -0.59102,0.22529 -2.72141,-0.14273 -4.49445,-0.72191 z m 55.37988,-18.99142 c 0,0 -1.58068,-1.82261 -1.28473,-3.08473 0.18944,-0.80798 1.22404,-1.25802 1.22404,-1.25802 4.19305,-2.24404 14.4137,4.69519 10.19044,6.50041 -2.17995,0.93181 -5.18936,1.85334 -7.27322,0.85098 -1.12821,-0.54269 -2.04494,-1.86885 -2.85653,-3.00864 z m 13.96672,-86.962166 c -3.38687,-0.958981 -6.89748,-6.810372 -5.92473,-9.875218 0.62415,-1.966547 1.26076,-2.180571 4.64866,-1.56287 5.17448,0.943446 6.57055,2.47332 6.88667,7.546737 0.28434,4.563017 -0.7369,5.271317 -5.6106,3.891351 z"
       id="path25379"
       sodipodi:nodetypes="ssssssssssssssssscsssssssssssssssssaasssssasssssssssssssssssssssssssssssssssssssssssssssssssss" />
  </g>
</svg>
