<?xml version="1.0" encoding="UTF-8" standalone="no"?>
<!-- Created with Inkscape (http://www.inkscape.org/) -->

<svg
   version="1.1"
   id="svg17296"
   width="300"
   height="300"
   viewBox="0 0 300 300"
   sodipodi:docname="cape_spell.svg"
   inkscape:export-filename="cape_spell.png"
   inkscape:export-xdpi="96"
   inkscape:export-ydpi="96"
   inkscape:version="1.2.2 (732a01da63, 2022-12-09)"
   xml:space="preserve"
   xmlns:inkscape="http://www.inkscape.org/namespaces/inkscape"
   xmlns:sodipodi="http://sodipodi.sourceforge.net/DTD/sodipodi-0.dtd"
   xmlns="http://www.w3.org/2000/svg"
   xmlns:svg="http://www.w3.org/2000/svg"><defs
     id="defs17300" /><sodipodi:namedview
     id="namedview17298"
     pagecolor="#ffffff"
     bordercolor="#000000"
     borderopacity="0.25"
     inkscape:showpageshadow="2"
     inkscape:pageopacity="0.0"
     inkscape:pagecheckerboard="0"
     inkscape:deskcolor="#d1d1d1"
     showgrid="false"
     inkscape:zoom="3.4233333"
     inkscape:cx="100.92502"
     inkscape:cy="142.69718"
     inkscape:window-width="2560"
     inkscape:window-height="1351"
     inkscape:window-x="2391"
     inkscape:window-y="-9"
     inkscape:window-maximized="1"
     inkscape:current-layer="g17302" /><g
     inkscape:groupmode="layer"
     inkscape:label="Image"
     id="g17302"><rect
       style="fill:#292c2b;fill-opacity:1;stroke:none;stroke-width:43.8978;stop-color:#000000"
       id="rect32909"
       width="300"
       height="300"
       x="0"
       y="0"
       ry="45"
       rx="45"
       inkscape:label="spell_background" /><path
       style="fill:#535dbe;fill-opacity:1;stroke-width:0.975795"
       d="m 154.74112,257.148 c -8.24882,-7.90375 -18.53837,-24.70559 -20.90535,-34.13641 -1.02545,-4.08572 -2.1167,-2.38298 -3.44743,5.37915 -0.66676,3.88924 -1.51118,7.41506 -1.87647,7.83517 -1.28514,1.47798 -3.99655,-0.5505 -6.54226,-4.89443 -2.27483,-3.88172 -2.6539,-5.85065 -3.27491,-17.01022 -0.38626,-6.9412 -0.88022,-12.7983 -1.09769,-13.01577 -0.21747,-0.21746 -2.50343,3.1222 -5.0799,7.42149 -3.29834,5.50387 -5.16422,7.71716 -6.30572,7.47981 -2.79774,-0.58172 -1.53344,-5.31053 5.14161,-19.23098 4.09097,-8.53149 6.57406,-15.05044 6.991,-18.35379 0.75089,-5.94903 -0.0233,-6.35137 -4.05727,-2.10841 -1.57629,1.65797 -4.107,3.66253 -5.62379,4.45457 -2.44554,1.27704 -3.01783,1.2697 -5.0546,-0.0649 -1.26323,-0.82771 -3.08089,-2.83228 -4.039215,-4.45459 -1.9963,-3.37942 -3.273218,-3.79597 -3.273218,-1.06773 0,2.42383 -2.589743,5.017 -4.339706,4.34547 -1.179558,-0.45264 -2.06341,-3.26539 -4.039063,-12.85388 -0.61846,-3.00158 -2.130781,-1.86466 -4.323225,3.25011 -3.188609,7.43872 -6.599204,7.7006 -12.516604,0.96105 -3.956149,-4.50581 -5.773574,-8.11042 -7.02034,-13.92389 l -1.013812,-4.72725 -6.281226,6.28124 c -5.31177,5.31176 -6.510773,6.09071 -7.768499,5.0469 -2.09402,-1.7379 -1.886783,-8.70517 0.441162,-14.83183 1.060639,-2.79138 1.794945,-5.20871 1.631791,-5.37187 -0.505377,-0.50537 -8.221134,9.37711 -13.580471,17.39414 -2.807517,4.19975 -5.653462,7.84913 -6.324321,8.10971 -1.513418,0.58786 -1.644836,-5.21393 -0.233213,-10.29572 1.883099,-6.77907 16.130342,-28.2511 24.872036,-37.48468 2.50892,-2.65008 4.170052,-3.31799 11.620512,-4.67242 4.781219,-0.86919 9.045512,-1.36255 9.476206,-1.09638 0.430693,0.26619 1.069225,2.00927 1.418961,3.87351 0.828519,4.4164 3.901584,8.25155 6.611872,8.25155 2.516152,0 6.488965,-2.54306 6.488965,-4.15367 0,-0.80623 -0.324741,-0.79088 -1.170955,0.0553 -1.676318,1.67633 -5.246925,1.44426 -7.156301,-0.46512 -1.284477,-1.28449 -1.551653,-2.96216 -1.243198,-7.80637 0.216092,-3.39364 0.04929,-6.17026 -0.370678,-6.17026 -0.419964,0 -4.72861,1.31732 -9.574768,2.92737 -4.846158,1.61007 -9.792653,2.89398 -10.992214,2.85315 -2.94625,-0.10028 -8.825676,-2.28324 -9.179576,-3.40827 -0.157195,-0.49971 3.923104,-2.85816 9.06733,-5.24099 7.784575,-3.60586 10.645508,-5.60583 17.059365,-11.925563 4.238423,-4.176226 7.706225,-7.974329 7.706225,-8.440229 0,-1.089378 4.422944,-3.111942 6.805204,-3.111942 1.00892,0 6.901173,2.647173 13.093904,5.882605 12.2358,6.392681 29.39121,13.520529 34.56036,14.359359 2.83245,0.45964 3.78015,7.7e-4 7.46286,-3.613542 l 4.21839,-4.140046 3.72525,3.513763 c 2.04889,1.932565 4.65584,3.513765 5.79321,3.513765 3.76657,0 30.64582,-12.30216 44.0763,-20.172946 4.95528,-2.903983 6.39323,-2.586604 13.32292,2.940574 10.95934,8.741271 13.21999,10.301198 24.83402,17.136442 6.6554,3.91694 11.83661,7.58105 11.6198,8.21745 -0.44091,1.29425 -5.96295,1.47072 -12.15403,0.3884 l -4.13589,-0.72303 4.56043,4.15686 c 15.09876,13.76267 28.67233,35.02793 26.30161,41.20589 -0.95009,2.4759 -3.50372,0.56233 -12.21465,-9.15312 -7.12331,-7.94473 -9.60655,-9.8619 -8.27322,-6.38729 0.82352,2.14604 -1.52486,15.01556 -3.20898,17.58586 -1.92214,2.93354 -3.11266,3.0113 -4.1269,0.26954 -0.67769,-1.83196 -1.16852,-1.27601 -3.75711,4.25566 -2.36581,5.05563 -3.60436,6.58143 -6.02835,7.42644 -2.70328,0.94237 -3.20746,0.81885 -4.42629,-1.08433 -0.75652,-1.18131 -1.87649,-4.12382 -2.4888,-6.53891 -1.79805,-7.09184 -2.06344,-7.80636 -2.89949,-7.80636 -0.43727,0 -1.95095,3.70746 -3.36375,8.23879 -4.79339,15.37404 -7.74739,14.67731 -8.23505,-1.9423 -0.18036,-6.14651 -0.67346,-11.17546 -1.09577,-11.17546 -0.42232,0 -1.47123,3.84219 -2.33093,8.5382 -2.12035,11.58214 -4.7987,19.19129 -6.89949,19.60133 -1.02278,0.19963 -4.12436,-2.01057 -7.87365,-5.61082 -10.35915,-9.94738 -10.32473,-8.86381 0.38523,12.12576 7.4742,14.64806 9.3539,19.89063 8.43888,23.53637 -1.41247,5.6277 -5.28974,0.79201 -9.88504,-12.32848 l -2.22144,-6.34267 -0.094,13.66113 c -0.0776,11.27238 -0.42322,14.38628 -1.97651,17.80826 -1.03535,2.28091 -2.31234,4.14713 -2.83776,4.14713 -0.52541,0 -1.822,-2.30532 -2.8813,-5.12293 -2.21228,-5.8844 -2.27695,-5.76479 -4.08835,7.56241 -1.44691,10.64548 -3.45003,17.36062 -5.81784,19.50346 -1.94859,1.76345 -2.06116,1.71114 -6.45369,-2.99958 l -4.4705,-4.79434 0.3323,11.12895 c 0.21514,7.2054 -0.0298,11.25369 -0.69497,11.48275 -0.56499,0.19459 -3.00304,-1.53933 -5.41789,-3.85316 z m -4.77057,-35.35416 c 2.5059,-3.01944 -1.53223,-24.71546 -4.1187,-22.12899 -0.5795,0.5795 -0.53265,2.32665 0.126,4.69875 1.52142,5.47939 1.37252,12.07048 -0.27269,12.07048 -2.5055,0 -6.20206,-3.82908 -8.20815,-8.50239 -2.33317,-5.43532 -4.10826,-16.95719 -4.15056,-26.94079 -0.0381,-8.97375 -1.68046,-6.76322 -2.53367,3.41003 -1.44227,17.19686 4.34742,31.99578 14.76078,37.72975 2.58239,1.42195 2.9614,1.39293 4.39699,-0.33684 z m 19.67171,-23.9096 c 2.23811,-3.00992 4.27279,-13.35315 3.35001,-17.02974 -0.92168,-3.6723 -1.4546,-2.82396 -3.06692,4.88206 -1.32433,6.32965 -3.56079,11.18162 -5.15404,11.18162 -0.41858,0 -1.69853,-1.86621 -2.84435,-4.14714 -2.0589,-4.09853 -2.08397,-4.11282 -2.1402,-1.21973 -0.0313,1.61006 0.83092,4.38355 1.91601,6.16331 2.3391,3.83662 5.16783,3.89704 7.93949,0.16962 z M 87.881115,158.42129 c 1.966518,-3.0013 3.181376,-10.76946 1.816177,-11.6132 -0.535987,-0.33126 -1.797527,1.68949 -2.805829,4.49443 -3.899621,10.8481 -8.290931,5.34001 -9.143084,-11.46835 -0.504075,-9.94266 -0.638997,-10.51799 -1.830699,-7.80635 -0.707585,1.61005 -1.330733,6.22069 -1.384773,10.24584 -0.105994,7.89485 2.045758,14.43558 6.07425,18.46407 2.408427,2.40843 4.644733,1.69626 7.273958,-2.31644 z m 93.614625,0.46999 c 1.81552,-1.59405 4.77099,-5.87535 6.5677,-9.514 2.86219,-5.79638 3.2996,-7.70337 3.53186,-15.39788 0.2836,-9.39514 -0.14637,-8.87111 -2.97335,3.62374 -1.75226,7.74478 -6.11975,17.10719 -8.59945,18.43428 -1.15865,0.62009 -2.42649,0.58503 -3.7114,-0.10263 -1.69261,-0.90586 -1.95159,-0.74208 -1.95159,1.2342 0,2.22741 1.59969,4.62057 3.08859,4.62057 0.41068,0 2.2321,-1.30421 4.04764,-2.89828 z m -68.02351,-10.28616 c 1.98606,-1.98604 2.39391,-3.23485 2.1512,-6.58661 -0.34948,-4.82588 -1.83559,-5.38245 -3.2269,-1.20854 -1.61569,4.84707 -2.30703,5.50642 -4.52752,4.31806 -2.00895,-1.07516 -7.66776,-11.86375 -7.66915,-14.62136 -4.3e-4,-0.83662 -0.64547,-2.3735 -1.433434,-3.41528 -1.316316,-1.74033 -1.435178,-1.45768 -1.463692,3.48049 -0.04301,7.44932 5.212766,17.51415 10.214826,19.56146 2.95207,1.20827 3.31008,1.11638 5.95467,-1.52822 z m 127.67391,-0.69381 c 2.10971,-3.01205 1.8874,-6.26924 -0.82559,-12.0958 -2.00652,-4.3093 -6.12532,-8.81626 -7.13461,-7.80697 -0.17979,0.17979 1.0009,3.13367 2.6238,6.56417 3.17565,6.71278 3.71433,10.73268 1.66599,12.43266 -1.90499,1.581 -5.15119,-1.07173 -6.56914,-5.36818 -0.92643,-2.80711 -1.35508,-3.23456 -2.03151,-2.02585 -1.92982,3.44841 3.7699,10.46868 8.49946,10.46868 1.23893,0 2.93613,-0.97592 3.7716,-2.16871 z M 209.43475,141.632 c 2.32728,-2.95867 4.79472,-10.76475 5.84195,-18.48184 0.39332,-2.89837 0.96741,-5.52207 1.27577,-5.83042 0.30836,-0.30836 1.89698,0.13039 3.53027,0.97499 6.21672,3.21479 11.84867,0.8887 11.84867,-4.89369 0,-4.54338 -2.27883,-9.74342 -4.87994,-11.13549 -3.21635,-1.72134 -3.40885,-0.50177 -0.51884,3.28723 1.87563,2.45906 2.51774,4.32059 2.29409,6.6507 -0.43535,4.53571 -4.01504,4.81808 -10.92934,0.86213 -2.87734,-1.64625 -5.47716,-2.99319 -5.77739,-2.99319 -0.30023,0 -0.46633,3.84219 -0.36912,8.53822 0.21569,10.41944 -2.1273,18.65131 -6.31047,22.17122 -3.39795,2.85918 -3.46821,3.44339 -0.41417,3.44339 1.40178,0 3.20131,-1.05855 4.40852,-2.59325 z M 130.93664,96.006936 C 116.0239,89.948949 86.537957,74.08207 86.537957,72.115264 c 0,-2.340692 23.340743,-14.735765 27.748423,-14.735765 1.79344,0 4.27103,-0.818017 5.50573,-1.817817 2.34126,-1.895835 2.27503,-3.269644 -0.70024,-14.526749 -0.80535,-3.047077 0.70562,-2.852554 10.4532,1.345739 13.22589,5.696405 15.66265,7.700605 18.2785,15.03385 1.23752,3.469204 2.60421,6.664388 3.0371,7.10041 0.43289,0.436022 2.2216,-2.765964 3.97492,-7.115526 l 3.18784,-7.908292 10.82579,-5.32586 c 12.086,-5.945829 14.87167,-6.573119 13.90115,-3.130321 -0.34042,1.207546 -0.88848,4.878359 -1.21794,8.157361 -0.69637,6.931035 -0.40856,7.264241 7.16211,8.291603 3.40878,0.462581 8.1357,2.369392 14.17376,5.717603 11.22634,6.225214 12.84893,7.419796 11.9825,8.821723 -2.23703,3.619593 -39.4283,23.213125 -48.46605,25.533439 -5.94715,1.526847 -6.83609,0.750748 -10.05773,-8.780986 -1.39221,-4.119061 -3.13089,-8.573411 -3.86376,-9.898557 -1.32811,-2.40149 -1.33613,-2.395121 -2.45726,1.95159 -3.52836,13.679694 -5.95617,18.553913 -9.17969,18.429685 -1.14582,-0.04415 -5.59617,-1.507314 -9.88967,-3.251458 z"
       id="path18521" /></g></svg>
