<?xml version="1.0" encoding="UTF-8" standalone="no"?>
<!-- Created with Inkscape (http://www.inkscape.org/) -->

<svg
   version="1.1"
   id="svg17296"
   width="300"
   height="300"
   viewBox="0 0 300 300"
   sodipodi:docname="cape.svg"
   inkscape:export-filename="cape.png"
   inkscape:export-xdpi="96"
   inkscape:export-ydpi="96"
   inkscape:version="1.2.2 (732a01da63, 2022-12-09)"
   xmlns:inkscape="http://www.inkscape.org/namespaces/inkscape"
   xmlns:sodipodi="http://sodipodi.sourceforge.net/DTD/sodipodi-0.dtd"
   xmlns="http://www.w3.org/2000/svg"
   xmlns:svg="http://www.w3.org/2000/svg">
  <defs
     id="defs17300">
    <filter
       inkscape:collect="always"
       style="color-interpolation-filters:sRGB"
       id="filter18523"
       x="-0.044434349"
       y="-0.048030976"
       width="1.0894481"
       height="1.0962728">
      <feGaussianBlur
         inkscape:collect="always"
         stdDeviation="1.9494"
         id="feGaussianBlur18525" />
    </filter>
  </defs>
  <sodipodi:namedview
     id="namedview17298"
     pagecolor="#ffffff"
     bordercolor="#000000"
     borderopacity="0.25"
     inkscape:showpageshadow="2"
     inkscape:pageopacity="0.0"
     inkscape:pagecheckerboard="0"
     inkscape:deskcolor="#d1d1d1"
     showgrid="false"
     inkscape:zoom="3.4233333"
     inkscape:cx="100.92502"
     inkscape:cy="142.69718"
     inkscape:window-width="2560"
     inkscape:window-height="1351"
     inkscape:window-x="2391"
     inkscape:window-y="-9"
     inkscape:window-maximized="1"
     inkscape:current-layer="g17302" />
  <g
     inkscape:groupmode="layer"
     inkscape:label="Image"
     id="g17302">
    <path
       style="fill:#535dbe;fill-opacity:1;stroke:#221147;stroke-width:12.3;stroke-dasharray:none;stroke-opacity:1;filter:url(#filter18523)"
       d="m 154.81508,258.8193 c -8.37749,-8.02704 -18.82753,-25.09095 -21.23143,-34.66887 -1.04145,-4.14945 -2.14972,-2.42015 -3.50121,5.46305 -0.67716,3.9499 -1.53475,7.53072 -1.90574,7.95738 -1.30518,1.50104 -4.05888,-0.55908 -6.6443,-4.97077 -2.31032,-3.94227 -2.6953,-5.94191 -3.32599,-17.27554 -0.39229,-7.04947 -0.89395,-12.99793 -1.11482,-13.21879 -0.22086,-0.22086 -2.54248,3.1709 -5.15913,7.53725 -3.34979,5.58971 -5.24477,7.83753 -6.40408,7.59648 -2.84138,-0.5908 -1.55736,-5.39337 5.22181,-19.53095 4.15478,-8.66456 6.6766,-15.28519 7.10005,-18.64007 0.7626,-6.04182 -0.0237,-6.45044 -4.12056,-2.1413 -1.60088,1.68383 -4.17106,3.71966 -5.71151,4.52406 -2.48369,1.29695 -3.0649,1.2895 -5.13344,-0.0659 -1.28294,-0.84062 -3.128951,-2.87645 -4.102222,-4.52407 -2.027438,-3.43213 -3.324274,-3.85518 -3.324274,-1.08438 0,2.46163 -2.630137,5.09525 -4.407396,4.41325 -1.197957,-0.4597 -2.095595,-3.31633 -4.102064,-13.05438 -0.628107,-3.0484 -2.164017,-1.89374 -4.390659,3.30081 -3.238345,7.55475 -6.702138,7.82071 -12.711837,0.97604 -4.017857,-4.57609 -5.86363,-8.23693 -7.129843,-14.14108 l -1.029626,-4.80098 -6.3792,6.37921 c -5.394623,5.39462 -6.612328,6.18572 -7.889672,5.12562 -2.126682,-1.765 -1.916213,-8.84095 0.448043,-15.06317 1.077183,-2.83492 1.822943,-5.28996 1.657244,-5.45566 -0.51326,-0.51326 -8.349367,9.52337 -13.792299,17.66545 -2.851309,4.26526 -5.741644,7.97156 -6.422967,8.23621 -1.537025,0.59702 -1.670493,-5.29526 -0.236851,-10.45632 1.912471,-6.88481 16.381942,-28.69176 25.259989,-38.06936 2.548054,-2.69142 4.235096,-3.36975 11.801768,-4.7453 4.855797,-0.88275 9.186604,-1.38381 9.624016,-1.11348 0.437411,0.27034 1.085903,2.04061 1.441094,3.93393 0.841442,4.48528 3.962441,8.38025 6.715004,8.38025 2.555399,0 6.590179,-2.58272 6.590179,-4.21846 0,-0.8188 -0.329806,-0.80321 -1.189219,0.0562 -1.702465,1.70247 -5.328766,1.46678 -7.267925,-0.47238 -1.304512,-1.30452 -1.575856,-3.00836 -1.262589,-7.92813 0.219462,-3.44658 0.05006,-6.26651 -0.37646,-6.26651 -0.426515,0 -4.802367,1.33787 -9.724115,2.97304 -4.921748,1.63518 -9.945399,2.93912 -11.16367,2.89765 -2.992206,-0.10184 -8.963339,-2.31885 -9.322759,-3.46143 -0.159647,-0.50751 3.984296,-2.90274 9.208762,-5.32274 7.905999,-3.66211 10.811556,-5.693276 17.325456,-12.111583 4.304534,-4.241367 7.826427,-8.098712 7.826427,-8.571879 0,-1.106371 4.491933,-3.160482 6.911351,-3.160482 1.024657,0 7.008818,2.688463 13.298144,5.974361 12.42665,6.492394 29.84965,13.731423 35.09943,14.583343 2.87663,0.46681 3.83911,7.8e-4 7.57927,-3.669913 l 4.28419,-4.204622 3.78335,3.56857 c 2.08085,1.962713 4.72846,3.568575 5.88357,3.568575 3.82533,0 31.12384,-12.494051 44.76381,-20.487605 5.03257,-2.949279 6.49295,-2.62695 13.53073,2.986441 11.13028,8.877617 13.42619,10.461876 25.22138,17.403744 6.75921,3.97803 12.02123,7.69929 11.80104,8.34562 -0.44779,1.31444 -6.05596,1.49366 -12.34361,0.39446 l -4.2004,-0.73431 4.63156,4.2217 c 15.33428,13.97734 29.11956,35.57429 26.71187,41.84862 -0.96491,2.51452 -3.55837,0.5711 -12.40518,-9.29589 -7.23442,-8.06865 -9.75639,-10.01573 -8.40226,-6.48692 0.83636,2.17951 -1.54865,15.24977 -3.25904,17.86016 -1.95212,2.9793 -3.16121,3.05827 -4.19127,0.27375 -0.68826,-1.86054 -1.18674,-1.29592 -3.81571,4.32204 -2.40271,5.13448 -3.66058,6.68408 -6.12238,7.54227 -2.74545,0.95707 -3.25749,0.83163 -4.49533,-1.10124 -0.76832,-1.19973 -1.90576,-4.18814 -2.52762,-6.6409 -1.8261,-7.20246 -2.09563,-7.92813 -2.94472,-7.92813 -0.44409,0 -1.98138,3.76529 -3.41622,8.3673 -4.86815,15.61385 -7.86823,14.90625 -8.3635,-1.97259 -0.18317,-6.24239 -0.68396,-11.34978 -1.11286,-11.34978 -0.4289,0 -1.49418,3.90212 -2.36729,8.67138 -2.15342,11.7628 -4.87355,19.49064 -7.0071,19.90707 -1.03874,0.20275 -4.1887,-2.04193 -7.99647,-5.69834 -10.52073,-10.10253 -10.48577,-9.00206 0.39124,12.3149 7.59078,14.87654 9.4998,20.20089 8.57051,23.90349 -1.4345,5.71548 -5.37225,0.80436 -10.03922,-12.52078 l -2.25609,-6.4416 -0.0955,13.87421 c -0.0788,11.44821 -0.42982,14.61068 -2.00734,18.08604 -1.0515,2.31649 -2.34841,4.21181 -2.88202,4.21181 -0.53361,0 -1.85042,-2.34127 -2.92625,-5.20283 -2.24678,-5.97619 -2.31246,-5.85471 -4.15212,7.68037 -1.46948,10.81152 -3.50384,17.63141 -5.90858,19.80767 -1.97899,1.79096 -2.09331,1.73783 -6.55436,-3.04637 l -4.54023,-4.86912 0.33749,11.30254 c 0.21849,7.31779 -0.0303,11.42922 -0.70582,11.66186 -0.5738,0.19762 -3.04988,-1.56334 -5.50239,-3.91326 z m -4.84499,-35.90562 c 2.54499,-3.06653 -1.55612,-25.10097 -4.18294,-22.47415 -0.58854,0.58853 -0.54096,2.36294 0.12797,4.77204 1.54515,5.56485 1.39393,12.25875 -0.27695,12.25875 -2.54458,0 -6.2988,-3.8888 -8.33618,-8.63501 -2.36956,-5.5201 -4.17234,-17.22169 -4.2153,-27.36101 -0.0387,-9.11372 -1.70667,-6.86871 -2.57319,3.46322 -1.46476,17.4651 4.41523,32.49485 14.99102,38.31826 2.62267,1.44413 3.00759,1.41465 4.46557,-0.3421 z m 19.97855,-24.28254 c 2.27302,-3.05687 4.33944,-13.56143 3.40227,-17.29537 -0.93606,-3.72958 -1.47729,-2.86801 -3.11476,4.95821 -1.34499,6.42838 -3.61633,11.35603 -5.23443,11.35603 -0.42511,0 -1.72503,-1.89532 -2.88872,-4.21182 -2.09101,-4.16246 -2.11648,-4.17698 -2.17358,-1.23876 -0.0318,1.63517 0.84388,4.45192 1.94589,6.25945 2.37559,3.89646 5.24844,3.95782 8.06333,0.17226 z M 86.912189,158.55265 c 1.997192,-3.04811 3.230999,-10.93744 1.844506,-11.79434 -0.544348,-0.33643 -1.825565,1.71584 -2.849595,4.56453 -3.960447,11.01731 -8.420252,5.4233 -9.285697,-11.64723 -0.511938,-10.09775 -0.648964,-10.68205 -1.859254,-7.92812 -0.718622,1.63517 -1.35149,6.31772 -1.406373,10.40566 -0.107647,8.01799 2.077668,14.66074 6.168996,18.75207 2.445993,2.446 4.717181,1.72272 7.387417,-2.35257 z m 95.074821,0.47732 c 1.84384,-1.61891 4.84541,-5.96699 6.67015,-9.6624 2.90683,-5.88679 3.35106,-7.82353 3.58695,-15.63805 0.28802,-9.54169 -0.14866,-9.00949 -3.01973,3.68026 -1.77959,7.86558 -6.21521,17.37403 -8.73359,18.72182 -1.17672,0.62976 -2.46433,0.59415 -3.76929,-0.10424 -1.71901,-0.91998 -1.98203,-0.75365 -1.98203,1.25346 0,2.26215 1.62464,4.69264 3.13677,4.69264 0.41708,0 2.26692,-1.32456 4.11077,-2.94349 z m -69.08453,-10.4466 c 2.01703,-2.01702 2.43125,-3.28531 2.18475,-6.68935 -0.35493,-4.90115 -1.86422,-5.46641 -3.27723,-1.22739 -1.6409,4.92267 -2.34302,5.59231 -4.59814,4.38541 -2.04029,-1.09193 -7.787366,-12.0488 -7.788783,-14.84942 -4.3e-4,-0.84967 -0.655534,-2.41052 -1.455788,-3.46855 -1.336848,-1.76748 -1.457564,-1.48042 -1.486523,3.53478 -0.04368,7.56551 5.294074,17.78733 10.374154,19.86657 2.99812,1.22712 3.36171,1.1338 6.04756,-1.55205 z m 129.66536,-0.70464 c 2.14262,-3.05903 1.91684,-6.36702 -0.83847,-12.28447 -2.03782,-4.37651 -6.22086,-8.95377 -7.24589,-7.92874 -0.1826,0.1826 1.01651,3.18255 2.66472,6.66656 3.22519,6.81749 3.77227,10.90009 1.69198,12.62658 -1.93471,1.60566 -5.23154,-1.08844 -6.67161,-5.45191 -0.94088,-2.85089 -1.37621,-3.28501 -2.06319,-2.05745 -1.95993,3.5022 3.8287,10.63197 8.63203,10.63197 1.25825,0 2.98193,-0.99114 3.83043,-2.20254 z m -32.20602,-6.37725 c 2.36358,-3.00482 4.8695,-10.93266 5.93307,-18.77012 0.39945,-2.94358 0.9825,-5.6082 1.29567,-5.92136 0.31317,-0.31317 1.92657,0.13242 3.58533,0.9902 6.31369,3.26493 12.03349,0.90256 12.03349,-4.97003 0,-4.61424 -2.31438,-9.89539 -4.95606,-11.30918 -3.26652,-1.748194 -3.46202,-0.5096 -0.52693,3.33851 1.90488,2.49741 2.55701,4.38798 2.32987,6.75444 -0.44214,4.60645 -4.07767,4.89323 -11.09981,0.87557 -2.92223,-1.67193 -5.5626,-3.03987 -5.86751,-3.03987 -0.30491,0 -0.4736,3.90212 -0.37488,8.67139 0.21906,10.58197 -2.16048,18.94224 -6.4089,22.51705 -3.45095,2.90378 -3.52231,3.4971 -0.42063,3.4971 1.42365,0 3.25125,-1.07506 4.47729,-2.6337 z M 130.63929,95.164754 C 115.49395,89.012275 85.54808,72.897905 85.54808,70.90042 c 0,-2.377202 23.70481,-14.965613 28.18124,-14.965613 1.82142,0 4.33765,-0.830776 5.59161,-1.846171 2.37778,-1.925406 2.31052,-3.320644 -0.71116,-14.753337 -0.81791,-3.094605 0.71663,-2.897048 10.61625,1.36673 13.43219,5.785258 15.90695,7.820719 18.56361,15.268348 1.25682,3.523316 2.64483,6.768339 3.08447,7.211162 0.43964,0.442823 2.25625,-2.809108 4.03692,-7.226514 l 3.23756,-8.031645 10.99465,-5.408933 c 12.27452,-6.038572 15.10364,-6.675646 14.11798,-3.179148 -0.34573,1.226382 -0.90234,4.954452 -1.23693,8.2846 -0.70724,7.039145 -0.41494,7.377548 7.27382,8.420935 3.46195,0.469796 8.2626,2.40635 14.39484,5.806786 11.40145,6.322315 13.04935,7.53553 12.1694,8.959324 -2.27192,3.676051 -40.0433,23.575202 -49.22202,25.931709 -6.03991,1.550662 -6.94272,0.762458 -10.21461,-8.917952 -1.41392,-4.18331 -3.17972,-8.707139 -3.92402,-10.052954 -1.34883,-2.438949 -1.35697,-2.43248 -2.49559,1.982031 -3.5834,13.893069 -6.04908,18.843316 -9.32288,18.71715 -1.16369,-0.04484 -5.68346,-1.530825 -10.04393,-3.302174 z"
       id="path17793"
       transform="matrix(0.98464159,0,0,0.98464159,2.3037591,2.3037607)" />
    <path
       style="fill:#535dbe;fill-opacity:1;stroke-width:0.975795"
       d="m 154.74112,257.148 c -8.24882,-7.90375 -18.53837,-24.70559 -20.90535,-34.13641 -1.02545,-4.08572 -2.1167,-2.38298 -3.44743,5.37915 -0.66676,3.88924 -1.51118,7.41506 -1.87647,7.83517 -1.28514,1.47798 -3.99655,-0.5505 -6.54226,-4.89443 -2.27483,-3.88172 -2.6539,-5.85065 -3.27491,-17.01022 -0.38626,-6.9412 -0.88022,-12.7983 -1.09769,-13.01577 -0.21747,-0.21746 -2.50343,3.1222 -5.0799,7.42149 -3.29834,5.50387 -5.16422,7.71716 -6.30572,7.47981 -2.79774,-0.58172 -1.53344,-5.31053 5.14161,-19.23098 4.09097,-8.53149 6.57406,-15.05044 6.991,-18.35379 0.75089,-5.94903 -0.0233,-6.35137 -4.05727,-2.10841 -1.57629,1.65797 -4.107,3.66253 -5.62379,4.45457 -2.44554,1.27704 -3.01783,1.2697 -5.0546,-0.0649 -1.26323,-0.82771 -3.08089,-2.83228 -4.039215,-4.45459 -1.9963,-3.37942 -3.273218,-3.79597 -3.273218,-1.06773 0,2.42383 -2.589743,5.017 -4.339706,4.34547 -1.179558,-0.45264 -2.06341,-3.26539 -4.039063,-12.85388 -0.61846,-3.00158 -2.130781,-1.86466 -4.323225,3.25011 -3.188609,7.43872 -6.599204,7.7006 -12.516604,0.96105 -3.956149,-4.50581 -5.773574,-8.11042 -7.02034,-13.92389 l -1.013812,-4.72725 -6.281226,6.28124 c -5.31177,5.31176 -6.510773,6.09071 -7.768499,5.0469 -2.09402,-1.7379 -1.886783,-8.70517 0.441162,-14.83183 1.060639,-2.79138 1.794945,-5.20871 1.631791,-5.37187 -0.505377,-0.50537 -8.221134,9.37711 -13.580471,17.39414 -2.807517,4.19975 -5.653462,7.84913 -6.324321,8.10971 -1.513418,0.58786 -1.644836,-5.21393 -0.233213,-10.29572 1.883099,-6.77907 16.130342,-28.2511 24.872036,-37.48468 2.50892,-2.65008 4.170052,-3.31799 11.620512,-4.67242 4.781219,-0.86919 9.045512,-1.36255 9.476206,-1.09638 0.430693,0.26619 1.069225,2.00927 1.418961,3.87351 0.828519,4.4164 3.901584,8.25155 6.611872,8.25155 2.516152,0 6.488965,-2.54306 6.488965,-4.15367 0,-0.80623 -0.324741,-0.79088 -1.170955,0.0553 -1.676318,1.67633 -5.246925,1.44426 -7.156301,-0.46512 -1.284477,-1.28449 -1.551653,-2.96216 -1.243198,-7.80637 0.216092,-3.39364 0.04929,-6.17026 -0.370678,-6.17026 -0.419964,0 -4.72861,1.31732 -9.574768,2.92737 -4.846158,1.61007 -9.792653,2.89398 -10.992214,2.85315 -2.94625,-0.10028 -8.825676,-2.28324 -9.179576,-3.40827 -0.157195,-0.49971 3.923104,-2.85816 9.06733,-5.24099 7.784575,-3.60586 10.645508,-5.60583 17.059365,-11.925563 4.238423,-4.176226 7.706225,-7.974329 7.706225,-8.440229 0,-1.089378 4.422944,-3.111942 6.805204,-3.111942 1.00892,0 6.901173,2.647173 13.093904,5.882605 12.2358,6.392681 29.39121,13.520529 34.56036,14.359359 2.83245,0.45964 3.78015,7.7e-4 7.46286,-3.613542 l 4.21839,-4.140046 3.72525,3.513763 c 2.04889,1.932565 4.65584,3.513765 5.79321,3.513765 3.76657,0 30.64582,-12.30216 44.0763,-20.172946 4.95528,-2.903983 6.39323,-2.586604 13.32292,2.940574 10.95934,8.741271 13.21999,10.301198 24.83402,17.136442 6.6554,3.91694 11.83661,7.58105 11.6198,8.21745 -0.44091,1.29425 -5.96295,1.47072 -12.15403,0.3884 l -4.13589,-0.72303 4.56043,4.15686 c 15.09876,13.76267 28.67233,35.02793 26.30161,41.20589 -0.95009,2.4759 -3.50372,0.56233 -12.21465,-9.15312 -7.12331,-7.94473 -9.60655,-9.8619 -8.27322,-6.38729 0.82352,2.14604 -1.52486,15.01556 -3.20898,17.58586 -1.92214,2.93354 -3.11266,3.0113 -4.1269,0.26954 -0.67769,-1.83196 -1.16852,-1.27601 -3.75711,4.25566 -2.36581,5.05563 -3.60436,6.58143 -6.02835,7.42644 -2.70328,0.94237 -3.20746,0.81885 -4.42629,-1.08433 -0.75652,-1.18131 -1.87649,-4.12382 -2.4888,-6.53891 -1.79805,-7.09184 -2.06344,-7.80636 -2.89949,-7.80636 -0.43727,0 -1.95095,3.70746 -3.36375,8.23879 -4.79339,15.37404 -7.74739,14.67731 -8.23505,-1.9423 -0.18036,-6.14651 -0.67346,-11.17546 -1.09577,-11.17546 -0.42232,0 -1.47123,3.84219 -2.33093,8.5382 -2.12035,11.58214 -4.7987,19.19129 -6.89949,19.60133 -1.02278,0.19963 -4.12436,-2.01057 -7.87365,-5.61082 -10.35915,-9.94738 -10.32473,-8.86381 0.38523,12.12576 7.4742,14.64806 9.3539,19.89063 8.43888,23.53637 -1.41247,5.6277 -5.28974,0.79201 -9.88504,-12.32848 l -2.22144,-6.34267 -0.094,13.66113 c -0.0776,11.27238 -0.42322,14.38628 -1.97651,17.80826 -1.03535,2.28091 -2.31234,4.14713 -2.83776,4.14713 -0.52541,0 -1.822,-2.30532 -2.8813,-5.12293 -2.21228,-5.8844 -2.27695,-5.76479 -4.08835,7.56241 -1.44691,10.64548 -3.45003,17.36062 -5.81784,19.50346 -1.94859,1.76345 -2.06116,1.71114 -6.45369,-2.99958 l -4.4705,-4.79434 0.3323,11.12895 c 0.21514,7.2054 -0.0298,11.25369 -0.69497,11.48275 -0.56499,0.19459 -3.00304,-1.53933 -5.41789,-3.85316 z m -4.77057,-35.35416 c 2.5059,-3.01944 -1.53223,-24.71546 -4.1187,-22.12899 -0.5795,0.5795 -0.53265,2.32665 0.126,4.69875 1.52142,5.47939 1.37252,12.07048 -0.27269,12.07048 -2.5055,0 -6.20206,-3.82908 -8.20815,-8.50239 -2.33317,-5.43532 -4.10826,-16.95719 -4.15056,-26.94079 -0.0381,-8.97375 -1.68046,-6.76322 -2.53367,3.41003 -1.44227,17.19686 4.34742,31.99578 14.76078,37.72975 2.58239,1.42195 2.9614,1.39293 4.39699,-0.33684 z m 19.67171,-23.9096 c 2.23811,-3.00992 4.27279,-13.35315 3.35001,-17.02974 -0.92168,-3.6723 -1.4546,-2.82396 -3.06692,4.88206 -1.32433,6.32965 -3.56079,11.18162 -5.15404,11.18162 -0.41858,0 -1.69853,-1.86621 -2.84435,-4.14714 -2.0589,-4.09853 -2.08397,-4.11282 -2.1402,-1.21973 -0.0313,1.61006 0.83092,4.38355 1.91601,6.16331 2.3391,3.83662 5.16783,3.89704 7.93949,0.16962 z M 87.881115,158.42129 c 1.966518,-3.0013 3.181376,-10.76946 1.816177,-11.6132 -0.535987,-0.33126 -1.797527,1.68949 -2.805829,4.49443 -3.899621,10.8481 -8.290931,5.34001 -9.143084,-11.46835 -0.504075,-9.94266 -0.638997,-10.51799 -1.830699,-7.80635 -0.707585,1.61005 -1.330733,6.22069 -1.384773,10.24584 -0.105994,7.89485 2.045758,14.43558 6.07425,18.46407 2.408427,2.40843 4.644733,1.69626 7.273958,-2.31644 z m 93.614625,0.46999 c 1.81552,-1.59405 4.77099,-5.87535 6.5677,-9.514 2.86219,-5.79638 3.2996,-7.70337 3.53186,-15.39788 0.2836,-9.39514 -0.14637,-8.87111 -2.97335,3.62374 -1.75226,7.74478 -6.11975,17.10719 -8.59945,18.43428 -1.15865,0.62009 -2.42649,0.58503 -3.7114,-0.10263 -1.69261,-0.90586 -1.95159,-0.74208 -1.95159,1.2342 0,2.22741 1.59969,4.62057 3.08859,4.62057 0.41068,0 2.2321,-1.30421 4.04764,-2.89828 z m -68.02351,-10.28616 c 1.98606,-1.98604 2.39391,-3.23485 2.1512,-6.58661 -0.34948,-4.82588 -1.83559,-5.38245 -3.2269,-1.20854 -1.61569,4.84707 -2.30703,5.50642 -4.52752,4.31806 -2.00895,-1.07516 -7.66776,-11.86375 -7.66915,-14.62136 -4.3e-4,-0.83662 -0.64547,-2.3735 -1.433434,-3.41528 -1.316316,-1.74033 -1.435178,-1.45768 -1.463692,3.48049 -0.04301,7.44932 5.212766,17.51415 10.214826,19.56146 2.95207,1.20827 3.31008,1.11638 5.95467,-1.52822 z m 127.67391,-0.69381 c 2.10971,-3.01205 1.8874,-6.26924 -0.82559,-12.0958 -2.00652,-4.3093 -6.12532,-8.81626 -7.13461,-7.80697 -0.17979,0.17979 1.0009,3.13367 2.6238,6.56417 3.17565,6.71278 3.71433,10.73268 1.66599,12.43266 -1.90499,1.581 -5.15119,-1.07173 -6.56914,-5.36818 -0.92643,-2.80711 -1.35508,-3.23456 -2.03151,-2.02585 -1.92982,3.44841 3.7699,10.46868 8.49946,10.46868 1.23893,0 2.93613,-0.97592 3.7716,-2.16871 z M 209.43475,141.632 c 2.32728,-2.95867 4.79472,-10.76475 5.84195,-18.48184 0.39332,-2.89837 0.96741,-5.52207 1.27577,-5.83042 0.30836,-0.30836 1.89698,0.13039 3.53027,0.97499 6.21672,3.21479 11.84867,0.8887 11.84867,-4.89369 0,-4.54338 -2.27883,-9.74342 -4.87994,-11.13549 -3.21635,-1.72134 -3.40885,-0.50177 -0.51884,3.28723 1.87563,2.45906 2.51774,4.32059 2.29409,6.6507 -0.43535,4.53571 -4.01504,4.81808 -10.92934,0.86213 -2.87734,-1.64625 -5.47716,-2.99319 -5.77739,-2.99319 -0.30023,0 -0.46633,3.84219 -0.36912,8.53822 0.21569,10.41944 -2.1273,18.65131 -6.31047,22.17122 -3.39795,2.85918 -3.46821,3.44339 -0.41417,3.44339 1.40178,0 3.20131,-1.05855 4.40852,-2.59325 z M 130.93664,96.006936 C 116.0239,89.948949 86.537957,74.08207 86.537957,72.115264 c 0,-2.340692 23.340743,-14.735765 27.748423,-14.735765 1.79344,0 4.27103,-0.818017 5.50573,-1.817817 2.34126,-1.895835 2.27503,-3.269644 -0.70024,-14.526749 -0.80535,-3.047077 0.70562,-2.852554 10.4532,1.345739 13.22589,5.696405 15.66265,7.700605 18.2785,15.03385 1.23752,3.469204 2.60421,6.664388 3.0371,7.10041 0.43289,0.436022 2.2216,-2.765964 3.97492,-7.115526 l 3.18784,-7.908292 10.82579,-5.32586 c 12.086,-5.945829 14.87167,-6.573119 13.90115,-3.130321 -0.34042,1.207546 -0.88848,4.878359 -1.21794,8.157361 -0.69637,6.931035 -0.40856,7.264241 7.16211,8.291603 3.40878,0.462581 8.1357,2.369392 14.17376,5.717603 11.22634,6.225214 12.84893,7.419796 11.9825,8.821723 -2.23703,3.619593 -39.4283,23.213125 -48.46605,25.533439 -5.94715,1.526847 -6.83609,0.750748 -10.05773,-8.780986 -1.39221,-4.119061 -3.13089,-8.573411 -3.86376,-9.898557 -1.32811,-2.40149 -1.33613,-2.395121 -2.45726,1.95159 -3.52836,13.679694 -5.95617,18.553913 -9.17969,18.429685 -1.14582,-0.04415 -5.59617,-1.507314 -9.88967,-3.251458 z"
       id="path18521" />
  </g>
</svg>
