<?xml version="1.0" encoding="UTF-8" standalone="no"?>
<!-- Created with Inkscape (http://www.inkscape.org/) -->

<svg
   version="1.1"
   id="svg10092"
   width="300"
   height="300"
   viewBox="0 0 300 300"
   sodipodi:docname="cauldron_spell.svg"
   inkscape:version="1.2.2 (732a01da63, 2022-12-09)"
   inkscape:export-filename="cauldron_spell.png"
   inkscape:export-xdpi="96"
   inkscape:export-ydpi="96"
   xml:space="preserve"
   xmlns:inkscape="http://www.inkscape.org/namespaces/inkscape"
   xmlns:sodipodi="http://sodipodi.sourceforge.net/DTD/sodipodi-0.dtd"
   xmlns="http://www.w3.org/2000/svg"
   xmlns:svg="http://www.w3.org/2000/svg"><defs
     id="defs10096" /><sodipodi:namedview
     id="namedview10094"
     pagecolor="#ffffff"
     bordercolor="#000000"
     borderopacity="0.25"
     inkscape:showpageshadow="2"
     inkscape:pageopacity="0.0"
     inkscape:pagecheckerboard="0"
     inkscape:deskcolor="#d1d1d1"
     showgrid="false"
     inkscape:zoom="2.4206622"
     inkscape:cx="42.343785"
     inkscape:cy="148.51308"
     inkscape:window-width="2560"
     inkscape:window-height="1351"
     inkscape:window-x="2391"
     inkscape:window-y="-9"
     inkscape:window-maximized="1"
     inkscape:current-layer="g10098" /><g
     inkscape:groupmode="layer"
     inkscape:label="Image"
     id="g10098"><rect
       style="fill:#292c2b;fill-opacity:1;stroke:none;stroke-width:43.8978;stop-color:#000000"
       id="rect32909"
       width="300"
       height="300"
       x="0"
       y="0"
       ry="45"
       rx="45"
       inkscape:label="spell_background" /><path
       style="fill:#f9f0d4;fill-opacity:1"
       d="m 153.80604,250.30133 c -6.33666,-2.88325 -6.64846,-3.65944 -6.30548,-15.69661 0.26895,-9.43888 0.54466,-10.87359 2.30548,-11.99701 1.1,-0.70181 10.55,-2.19876 21,-3.32655 22.66703,-2.44629 25.43767,-2.05924 32.2953,4.51152 l 4.49767,4.30953 -0.67588,7.28106 c -0.45004,4.8481 -1.25083,7.85214 -2.39649,8.99011 -1.24984,1.24144 -6.50868,2.38058 -19.2206,4.16345 -27.25559,3.82265 -27.00726,3.80874 -31.5,1.7645 z m -49.01629,-2.28544 c -4.57734,-4.01897 -6.483706,-7.74338 -6.483706,-12.66704 0,-6.88223 4.927266,-10.51714 19.286566,-14.22795 5.58464,-1.44321 18.70252,-0.57353 19.90532,1.31967 0.42762,0.67307 0.78438,4.30572 0.7928,8.07255 0.0142,6.35943 -0.20335,7.05305 -3.04494,9.70749 -1.68314,1.57229 -5.78442,4.67784 -9.11396,6.90121 -5.35064,3.57303 -6.73324,4.04251 -11.90495,4.04251 -5.13673,0 -6.28913,-0.38447 -9.43713,-3.14844 z m -31.549041,-6.14137 c -12.837725,-4.37649 -15.210742,-7.26828 -15.169248,-18.48548 0.03451,-9.32802 1.190504,-12.61916 5.312999,-15.1262 6.765259,-4.1142 14.105312,-3.35978 30.421584,3.12676 8.227176,3.27072 8.495736,5.4861 1.172928,9.67579 -7.58591,4.34022 -7.919413,4.92207 -7.638796,13.32711 0.13353,3.99951 0.180477,7.83433 0.104325,8.52183 -0.215657,1.94697 -6.87191,1.45969 -14.203792,-1.03981 z m 142.863041,-0.5434 c -0.93126,0 -1.79771,-3.02261 -1.79771,-9.16719 0,0 0.40407,-7.42136 -0.41311,-9.1952 -0.58646,-1.27302 -3.83689,-3.17003 -3.83689,-3.17003 -2.79233,-2.32026 -3.90702,-3.86282 -3.25,-4.49749 0.55,-0.5313 5.46348,-2.81429 10.91884,-5.07331 l 9.91884,-4.10732 5.08116,1.50082 c 5.25124,1.55106 9.61901,3.69164 10.68234,4.99594 0.95028,1.16564 0.97836,2.60868 1.24,4.1924 0.81517,4.93424 0.83526,11.73121 0.0408,13.80158 -1.22058,3.18078 -24.72596,10.7198 -28.58426,10.7198 z M 112.57457,208.60714 C 96.136339,206.81347 85.497795,203.86062 75.422747,198.29522 59.592178,189.5505 52.134317,176.91141 50.920249,156.77002 49.720582,136.86756 53.881796,116.57384 62.014581,102.66433 65.756915,96.263812 73.764511,87.705987 82.132229,81.164327 l 3.197857,-2.5 -1.742418,-4.717403 c -1.577579,-4.271125 -1.602367,-5.113979 -0.26202,-8.909411 0.814218,-2.305603 2.605396,-5.011538 3.980396,-6.013187 3.840461,-2.79767 20.460226,-7.512462 33.115346,-9.394353 14.01889,-2.08469 51.47003,-1.567332 64.38465,0.889424 6.86589,1.306103 25.18766,6.830536 25.91828,7.814954 2.96967,4.001243 3.58172,5.942703 3.58172,11.361353 0,3.3475 -0.5625,6.825275 -1.25,7.728388 -1.10868,1.456388 -15.19943,6.661483 -26.25,9.696703 -1.51094,0.415004 -5.68033,1.232471 -10.53381,1.710504 -2.21343,0.218007 -5.62296,0.456394 -7.93874,0.506802 -6.89688,0.150123 -11.04721,0.677216 -13.12667,1.325997 -1.71331,0.534542 -1.33878,1.395563 -0.50758,2.226762 0.41793,0.417928 8.03793,0.762926 16.93333,0.766667 14.76708,0.0062 17.0384,-0.239714 26.1202,-2.828114 5.4707,-1.559202 12.5872,-4.167821 15.81445,-5.796931 3.52018,-1.77698 5.80535,-3.029416 7.36385,-2.872437 1.09615,0.11041 5.06306,4.13329 8.41281,7.813319 12.77715,14.036966 18.61997,32.361176 19.67065,61.690966 0.53732,14.99933 0.5372,15.00036 -2.59772,23.093 -7.92896,20.46826 -27.08583,31.23564 -61.11077,34.34817 -15.60771,1.42776 -57.72406,1.13917 -72.73147,-0.49836 z m 52.96853,-45.17941 c 7.56962,-7.55513 13.76294,-14.41181 13.76294,-15.23706 0,-1.66273 -26.86698,-29.02634 -28.49954,-29.02634 -0.56448,0 -7.53402,6.51932 -15.48787,14.48739 l -14.46154,14.48739 14.51261,14.51261 c 7.98194,7.98193 14.93963,14.51261 15.46153,14.51261 0.52191,0 7.14225,-6.18147 14.71187,-13.7366 z m -25.6128,-5.13867 c -7.91948,-7.94931 -10.07622,-9.83764 -9.55151,-11.49088 0.77522,-2.4425 18.49283,-19.63385 20.24749,-19.63385 1.45226,0 20.67976,19.09444 20.67976,20.53665 0,1.30415 -19.22783,20.90152 -20.53665,20.90152 -0.55048,0 -5.42807,-4.88204 -10.83909,-10.31344 z m -5.83403,-67.245438 c 0.37719,-1.993754 -2.4642,-2.847236 -9.54023,-2.86564 -6.70128,-0.01743 -7.32834,2.392253 -1,3.842824 5.98813,1.372588 10.16902,0.984978 10.54023,-0.977184 z m 46.1079,-25.420877 c 12.52888,-2.021009 13.17041,-3.818709 2.49671,-6.996302 -9.1129,-2.712937 -16.57496,-3.450554 -34.89484,-3.449318 -14.35633,9.68e-4 -19.63587,0.39343 -26.08131,1.938789 -12.46851,2.989445 -15.61406,4.844535 -11.66869,6.881604 7.66487,3.957519 49.65808,4.930438 70.14813,1.625227 z"
       id="path10591"
       sodipodi:nodetypes="ssssscssssssssssssssssssssssssssscssssssssssscsssssssssssssssssssssssssscsssssssssssssssssss" /></g></svg>
