<?xml version="1.0" encoding="UTF-8" standalone="no"?>
<!-- Created with Inkscape (http://www.inkscape.org/) -->

<svg
   version="1.1"
   id="svg2"
   width="300"
   height="300"
   viewBox="0 0 300 300"
   sodipodi:docname="hair_spell.svg"
   inkscape:export-filename="hair.png"
   inkscape:export-xdpi="96"
   inkscape:export-ydpi="96"
   inkscape:version="1.2.2 (732a01da63, 2022-12-09)"
   xml:space="preserve"
   xmlns:inkscape="http://www.inkscape.org/namespaces/inkscape"
   xmlns:sodipodi="http://sodipodi.sourceforge.net/DTD/sodipodi-0.dtd"
   xmlns="http://www.w3.org/2000/svg"
   xmlns:svg="http://www.w3.org/2000/svg"><defs
     id="defs6" /><sodipodi:namedview
     id="namedview4"
     pagecolor="#ffffff"
     bordercolor="#000000"
     borderopacity="0.25"
     inkscape:showpageshadow="2"
     inkscape:pageopacity="0.0"
     inkscape:pagecheckerboard="0"
     inkscape:deskcolor="#d1d1d1"
     showgrid="false"
     inkscape:zoom="3.4233333"
     inkscape:cx="118.4518"
     inkscape:cy="148.83155"
     inkscape:window-width="2560"
     inkscape:window-height="1351"
     inkscape:window-x="2391"
     inkscape:window-y="-9"
     inkscape:window-maximized="1"
     inkscape:current-layer="g8" /><g
     inkscape:groupmode="layer"
     inkscape:label="Image"
     id="g8"><rect
       style="fill:#292c2b;fill-opacity:1;stroke:none;stroke-width:43.8978;stop-color:#000000"
       id="rect32909"
       width="300"
       height="300"
       x="0"
       y="0"
       ry="45"
       rx="45"
       inkscape:label="spell_background" /><path
       style="fill:#f9f0d4;fill-opacity:1;stroke-width:1.01667"
       d="m 194.20538,258.47765 c 3.71039,-7.3221 2.89823,-11.29042 -2.91257,-14.23099 -10.97882,-5.55584 -11.84148,-7.5703 -6.41406,-14.97793 4.72214,-6.44505 8.73272,-16.69834 9.39854,-24.02796 1.32642,-14.60172 -13.45119,-41.74228 -27.25153,-50.05018 l -5.45404,-3.28337 -6.59328,2.09464 c -7.8774,2.50259 -25.39863,3.05212 -32.45225,1.01783 -5.27946,-1.52263 -14.9079,-7.82918 -20.51756,-13.43883 l -4.263626,-3.58114 0.314995,2.5308 c 0.196888,1.58185 0.497863,4.32646 1.106363,6.072 1.016708,2.91654 0.70779,3.81403 -3.812518,11.07643 l -4.91887,7.90273 0.103986,19.82954 c 0.09651,18.40541 0.307347,20.55971 2.93556,29.99625 4.127408,14.81938 4.143614,15.10725 1.138763,20.23464 -2.972318,5.07187 -3.304153,9.3453 -1.191848,15.34881 0.786964,2.23667 1.063007,4.44712 0.61343,4.91211 -1.231548,1.27376 -13.160543,-8.2355 -13.868227,-11.05513 -0.346898,-1.38215 0.314128,-5.18592 1.523624,-8.76743 1.174997,-3.47935 2.134648,-7.4954 2.132558,-8.92454 -0.0048,-3.23653 -3.477942,-9.08348 -5.84787,-9.84456 -8.726358,-2.80237 -13.133837,-6.22116 -14.004679,-10.86314 -0.448666,-2.3916 0.635026,-6.72028 4.120687,-16.4596 5.171002,-14.44837 5.510906,-17.33388 4.087447,-34.69921 l -0.844404,-10.30123 3.587444,-5.96549 c 1.973093,-3.28102 4.356943,-8.65712 5.297443,-11.94689 3.70789,-12.9698 13.280169,-24.88322 26.009522,-32.370807 3.5395,-2.081982 11.04149,-5.255687 16.67107,-7.052677 8.74243,-2.790621 11.71877,-3.264001 20.40233,-3.244945 22.15596,0.04862 52.33066,12.247523 60.38938,24.413979 2.54904,3.84835 3.07068,5.85056 3.69551,14.18479 0.51798,6.90871 1.14161,9.86286 2.16501,10.25557 0.7906,0.30338 3.72034,-0.6328 6.51054,-2.08039 l 5.07307,-2.63201 2.51157,5.49085 c 7.83556,17.13027 7.74241,42.22327 -0.22956,61.84242 -3.09279,7.6114 -6.68086,12.47911 -15.19583,20.61524 -8.18047,7.8165 -8.24578,9.18227 -0.86949,18.18123 3.07543,3.75197 5.58998,7.58453 5.58789,8.51679 -0.004,1.84316 -3.56991,8.14499 -5.55104,9.81043 -4.45384,3.7441 -14.14158,10.69301 -14.90752,10.69301 -0.50709,0 0.26874,-2.34974 1.72404,-5.22164 z M 79.75994,201.55794 c 0,-6.2077 -0.210229,-7.06671 -1.473,-6.01869 -0.810149,0.67236 -1.995124,2.80453 -2.633276,4.73815 -0.957595,2.90154 -0.873788,3.9529 0.479768,6.01869 2.702609,4.12471 3.626508,2.9176 3.626508,-4.73815 z M 230.37886,136.8982 c -0.53181,-0.99422 -1.53676,-4.705 -2.23322,-8.24619 -0.82019,-4.17029 -1.93019,-6.85315 -3.15077,-7.61542 -1.9795,-1.23621 -2.32181,-5.39357 -0.93561,-11.36279 l 0.70829,-3.05001 4.12859,4.23101 c 6.52677,6.68868 8.96222,16.06123 6.00969,23.12762 -1.78537,4.27301 -3.28449,5.23858 -4.52697,2.91578 z m -19.84316,-8.11289 c -0.3531,-0.35311 -0.64201,-4.15763 -0.64201,-8.4545 0,-6.44194 -0.46139,-8.68625 -2.62998,-12.7931 -3.56223,-6.74605 -5.65558,-8.811571 -12.77737,-12.607441 -3.34425,-1.78247 -6.33765,-3.911072 -6.65199,-4.730225 -0.32373,-0.843611 0.69796,-2.825087 2.35638,-4.570045 2.63326,-2.770659 3.37293,-3.020883 7.35021,-2.486525 2.43227,0.326782 7.1844,2.066328 10.56028,3.865657 5.60139,2.985511 6.39242,3.838617 9.04857,9.758679 3.85323,8.58812 4.01151,17.61553 0.44322,25.27935 -2.31524,4.97257 -5.64435,8.15112 -7.05731,6.73815 z M 97.618906,93.661242 c 1.648796,-5.292756 2.458864,-6.702698 4.998894,-8.700687 6.61159,-5.200672 15.40149,-6.407189 20.19825,-2.772445 2.94879,2.234445 1.24326,3.352178 -7.19121,4.712802 -6.79745,1.096547 -8.37237,1.770612 -12.04364,5.154674 -4.839508,4.460896 -7.036029,5.052423 -5.962294,1.605656 z M 213.17037,84.789546 c -7.34351,-4.489209 -14.97284,-6.635736 -20.13986,-5.666395 -1.97535,0.370577 -5.38092,2.290374 -7.56794,4.266216 l -3.97641,3.329943 -5.02408,-1.406235 c -4.87435,-1.364325 -5.07691,-1.888962 -6.22821,-6.68811 -2.19616,-9.154612 -7.47086,-13.176313 -17.28154,-13.176313 -7.88245,0 -16.9634,5.522613 -19.33414,11.758122 -0.9498,2.498176 -1.32229,2.636754 -5.32716,1.981871 -5.22541,-0.854472 -15.56639,-1.114497 -19.04766,-0.478958 -2.20697,0.402904 -2.50553,0.129305 -2.26718,-2.077666 0.45142,-4.17987 5.40658,-13.359126 9.7626,-18.084844 4.78792,-5.194284 10.85956,-8.945211 15.9997,-9.884269 l 2.20734,-0.403263 c 1.06214,-0.32579 1.60838,0.0021 1.81202,1.081272 l 0.92399,3.567107 c 1.05293,4.064838 1.41714,4.563684 2.10435,2.882263 0.45706,-1.118336 0.87019,-4.092096 0.91806,-6.608354 0.1127,-5.92479 0.58089,-6.544716 7.20444,-9.539259 7.50869,-3.394724 13.8518,-4.165505 21.85404,-2.655591 7.75608,1.463469 11.82907,3.938872 16.45051,9.997983 3.66308,4.802623 4.10626,6.263547 1.90005,6.263547 -1.83193,0 -7.3932,4.638108 -8.87006,7.397641 -1.16065,2.168698 0.0812,1.587561 11.84207,-5.54127 5.44375,-3.29975 11.44376,-1.780565 18.63815,4.719126 7.93548,7.169238 14.35088,23.012977 11.04896,27.287017 -1.0741,1.390333 -1.9852,1.112093 -7.60204,-2.321581 z m -51.5685,-3.132501 c -2.23668,-0.462641 -8.29857,-0.867528 -13.47088,-0.899754 -5.16026,-0.03215 -8.2007,0.186903 -9.22053,-0.536923 -0.96928,-0.687931 -0.083,-2.263092 1.40305,-4.384608 2.26554,-3.234523 6.80295,-5.303759 11.62999,-5.303759 5.07332,0 9.05369,1.942083 12.58727,6.141508 2.52787,3.0042 3.54814,6.194285 1.90028,5.941615 -0.41938,-0.0643 -2.59251,-0.495439 -4.82918,-0.958079 z"
       id="path953"
       sodipodi:nodetypes="ssssscssscssscsssssssssssscssssssssscsssscsssssssssssscssssssssssssssssssssssscsssssssssccssssssssssssssssssss" /></g></svg>
