<?xml version="1.0" encoding="UTF-8" standalone="no"?>
<!-- Created with Inkscape (http://www.inkscape.org/) -->

<svg
   version="1.1"
   id="svg2"
   width="300"
   height="300"
   viewBox="0 0 300 300"
   sodipodi:docname="hair.svg"
   inkscape:export-filename="hair.png"
   inkscape:export-xdpi="96"
   inkscape:export-ydpi="96"
   inkscape:version="1.2.2 (732a01da63, 2022-12-09)"
   xmlns:inkscape="http://www.inkscape.org/namespaces/inkscape"
   xmlns:sodipodi="http://sodipodi.sourceforge.net/DTD/sodipodi-0.dtd"
   xmlns="http://www.w3.org/2000/svg"
   xmlns:svg="http://www.w3.org/2000/svg">
  <defs
     id="defs6">
    <filter
       inkscape:collect="always"
       style="color-interpolation-filters:sRGB"
       id="filter959"
       x="-0.064378928"
       y="-0.048176429"
       width="1.1286319"
       height="1.0965786">
      <feGaussianBlur
         inkscape:collect="always"
         stdDeviation="1.9494"
         id="feGaussianBlur961" />
    </filter>
  </defs>
  <sodipodi:namedview
     id="namedview4"
     pagecolor="#ffffff"
     bordercolor="#000000"
     borderopacity="0.25"
     inkscape:showpageshadow="2"
     inkscape:pageopacity="0.0"
     inkscape:pagecheckerboard="0"
     inkscape:deskcolor="#d1d1d1"
     showgrid="false"
     inkscape:zoom="3.4233333"
     inkscape:cx="118.4518"
     inkscape:cy="148.83155"
     inkscape:window-width="2560"
     inkscape:window-height="1351"
     inkscape:window-x="2391"
     inkscape:window-y="-9"
     inkscape:window-maximized="1"
     inkscape:current-layer="g8" />
  <g
     inkscape:groupmode="layer"
     inkscape:label="Image"
     id="g8">
    <path
       style="mix-blend-mode:normal;fill:#f6f6e1;fill-opacity:1;stroke:#753f4b;stroke-width:12.3;stroke-dasharray:none;filter:url(#filter959)"
       d="m 193.48057,256.69899 c 3.64955,-7.20205 2.8507,-11.1053 -2.86482,-13.99765 -10.7988,-5.46475 -11.64732,-7.44618 -6.30889,-14.73235 4.64471,-6.33937 8.58953,-16.42454 9.24444,-23.63398 1.30467,-14.3623 -13.23064,-41.05785 -26.8047,-49.22953 l -5.36461,-3.22953 -6.48518,2.06029 c -7.74823,2.46156 -24.98218,3.00208 -31.92014,1.00114 -5.1929,-1.49766 -14.66346,-7.7008 -20.18114,-13.21848 l -4.193722,-3.52242 0.30983,2.48931 c 0.19366,1.55591 0.4897,4.25552 1.08822,5.97244 1.000042,2.86872 0.696192,3.75149 -3.750003,10.89481 l -4.838217,7.77315 0.102281,19.50441 c 0.09493,18.10362 0.302307,20.2226 2.887426,29.50441 4.059733,14.57639 4.075673,14.85954 1.120092,19.90286 -2.923583,4.98871 -3.249977,9.19207 -1.172306,15.09714 0.77406,2.2 1.045577,4.37421 0.603372,4.83157 -1.211355,1.25288 -12.944755,-8.10046 -13.640836,-10.87386 -0.34121,-1.35949 0.308978,-5.10089 1.498642,-8.62368 1.155731,-3.4223 2.099647,-7.3725 2.097591,-8.7782 -0.0047,-3.18347 -3.420915,-8.93455 -5.751985,-9.68315 -8.583275,-2.75642 -12.918487,-6.11915 -13.77505,-10.68502 -0.441309,-2.35238 0.624614,-6.61009 4.053122,-16.18972 5.086215,-14.21146 5.420546,-17.04966 4.020427,-34.13026 l -0.830559,-10.13232 3.528622,-5.86768 c 1.940741,-3.22722 4.285504,-8.51517 5.210583,-11.751 3.647094,-12.75714 13.06242,-24.47522 25.58306,-31.840038 3.48146,-2.047844 10.86044,-5.169511 16.39772,-6.937037 8.59908,-2.744864 11.52662,-3.210482 20.0678,-3.191739 21.79268,0.04782 51.47262,12.046706 59.3992,24.013674 2.50725,3.78525 3.02033,5.75463 3.63492,13.95221 0.50948,6.79543 1.12289,9.70114 2.12951,10.08741 0.77764,0.29841 3.65934,-0.62242 6.40379,-2.04628 l 4.98989,-2.58885 2.47039,5.40082 c 7.70708,16.84939 7.61546,41.53095 -0.2258,60.82841 -3.04208,7.4866 -6.57132,12.2745 -14.94667,20.27722 -8.04634,7.68834 -8.11058,9.03171 -0.85523,17.88312 3.025,3.69045 5.49832,7.46017 5.49626,8.37715 -0.004,1.81293 -3.51137,8.01144 -5.46002,9.64957 -4.38081,3.68271 -13.9097,10.51768 -14.66309,10.51768 -0.49877,0 0.26434,-2.31121 1.69578,-5.13602 z M 80.911638,200.71257 c 0,-6.10592 -0.206782,-6.95084 -1.448848,-5.92001 -0.796866,0.66134 -1.962411,2.75855 -2.590099,4.66046 -0.941894,2.85397 -0.859461,3.88809 0.471901,5.92001 2.658295,4.05707 3.567046,2.86976 3.567046,-4.66046 z M 229.06092,137.11302 c -0.52309,-0.97791 -1.51156,-4.62785 -2.1966,-8.11098 -0.80674,-4.10191 -1.89854,-6.74078 -3.09911,-7.49055 -1.94704,-1.21594 -2.28374,-5.30513 -0.92027,-11.17648 l 0.69668,-3 4.0609,4.16164 c 6.41975,6.57901 8.81527,15.79788 5.91115,22.7484 -1.7561,4.20295 -3.23064,5.15269 -4.45275,2.86797 z m -19.5178,-7.97986 c -0.34731,-0.34732 -0.63148,-4.08946 -0.63148,-8.31588 0,-6.33631 -0.45382,-8.54382 -2.58686,-12.58333 -3.50382,-6.63544 -5.56284,-8.667091 -12.56786,-12.400725 -3.28942,-1.753244 -6.23374,-3.846944 -6.54292,-4.652666 -0.31842,-0.829778 0.68651,-2.778765 2.31774,-4.495112 2.59009,-2.725229 3.31763,-2.971351 7.22969,-2.445754 2.39239,0.321424 7.0666,2.032447 10.38713,3.802273 5.50955,2.936559 6.28761,3.775677 8.90021,9.59867 3.79005,8.447304 3.94573,17.326694 0.43595,24.864854 -2.27728,4.89104 -5.5518,8.01747 -6.9416,6.62767 z M 98.477778,94.585005 c 1.621762,-5.205973 2.418552,-6.592796 4.916932,-8.558025 6.50318,-5.115399 15.14896,-6.302133 19.86707,-2.726986 2.90044,2.197807 1.22287,3.297213 -7.0733,4.635528 -6.686,1.078567 -8.23509,1.74158 -11.84617,5.070155 -4.760152,4.387752 -6.920662,4.96958 -5.864532,1.579328 z m 113.656812,-8.72623 c -7.2231,-4.415601 -14.72733,-6.526933 -19.80963,-5.573486 -1.94296,0.364501 -5.29269,2.25282 -7.44385,4.196265 l -3.91121,3.275343 -4.9417,-1.383177 c -4.79443,-1.341955 -4.99367,-1.85799 -6.12609,-6.578448 -2.16015,-9.004508 -7.34837,-12.960267 -16.99819,-12.960267 -7.7532,0 -16.68525,5.432061 -19.01712,11.565329 -0.93423,2.457215 -1.30061,2.593521 -5.23981,1.949375 -5.13974,-0.840461 -15.31116,-1.096223 -18.73535,-0.471104 -2.17078,0.396298 -2.46445,0.127185 -2.23,-2.0436 0.44401,-4.111334 5.31793,-13.140082 9.60252,-17.788314 4.70942,-5.109116 10.6815,-8.79854 15.73736,-9.722201 l 2.17115,-0.396651 c 1.04472,-0.320448 1.58201,0.0021 1.78231,1.063543 l 0.90884,3.508619 c 1.03566,3.998188 1.3939,4.488855 2.06984,2.835004 0.44957,-1.1 0.85593,-4.025 0.90301,-6.5 0.11085,-5.827644 0.57137,-6.437405 7.08631,-9.382848 7.38558,-3.339062 13.62468,-4.097205 21.49571,-2.612048 7.62891,1.439473 11.63512,3.874288 16.18078,9.83405 3.60302,4.723876 4.03893,6.160846 1.8689,6.160846 -1.8019,0 -7.27198,4.562059 -8.72463,7.276345 -1.14162,2.133139 0.0799,1.561531 11.6479,-5.450412 5.3545,-3.245645 11.25613,-1.75137 18.33255,4.641749 7.80537,7.051687 14.11558,22.635643 10.8678,26.839603 -1.05649,1.367536 -1.95265,1.093858 -7.4774,-2.283515 z m -50.72295,-3.081139 c -2.2,-0.455055 -8.1625,-0.853303 -13.25,-0.885001 -5.07565,-0.03162 -8.06624,0.183838 -9.06935,-0.528119 -0.95338,-0.676652 -0.0816,-2.225985 1.38005,-4.312716 2.22839,-3.181488 6.6914,-5.216795 11.4393,-5.216795 4.99013,0 8.90524,1.910239 12.38088,6.040808 2.48642,2.954942 3.48996,6.09272 1.86912,5.844193 -0.4125,-0.06325 -2.55,-0.487316 -4.75,-0.94237 z"
       id="path855"
       sodipodi:nodetypes="ssssscssscssscsssssssssssscssssssssscsssscsssssssssssscssssssssssssssssssssssscsssssssssccssssssssssssssssssss"
       transform="matrix(1.0166699,0,0,1.0166699,-2.5004873,-2.5004874)" />
    <path
       style="fill:#f6f6e1;fill-opacity:1;stroke-width:1.01667"
       d="m 194.20538,258.47765 c 3.71039,-7.3221 2.89823,-11.29042 -2.91257,-14.23099 -10.97882,-5.55584 -11.84148,-7.5703 -6.41406,-14.97793 4.72214,-6.44505 8.73272,-16.69834 9.39854,-24.02796 1.32642,-14.60172 -13.45119,-41.74228 -27.25153,-50.05018 l -5.45404,-3.28337 -6.59328,2.09464 c -7.8774,2.50259 -25.39863,3.05212 -32.45225,1.01783 -5.27946,-1.52263 -14.9079,-7.82918 -20.51756,-13.43883 l -4.263626,-3.58114 0.314995,2.5308 c 0.196888,1.58185 0.497863,4.32646 1.106363,6.072 1.016708,2.91654 0.70779,3.81403 -3.812518,11.07643 l -4.91887,7.90273 0.103986,19.82954 c 0.09651,18.40541 0.307347,20.55971 2.93556,29.99625 4.127408,14.81938 4.143614,15.10725 1.138763,20.23464 -2.972318,5.07187 -3.304153,9.3453 -1.191848,15.34881 0.786964,2.23667 1.063007,4.44712 0.61343,4.91211 -1.231548,1.27376 -13.160543,-8.2355 -13.868227,-11.05513 -0.346898,-1.38215 0.314128,-5.18592 1.523624,-8.76743 1.174997,-3.47935 2.134648,-7.4954 2.132558,-8.92454 -0.0048,-3.23653 -3.477942,-9.08348 -5.84787,-9.84456 -8.726358,-2.80237 -13.133837,-6.22116 -14.004679,-10.86314 -0.448666,-2.3916 0.635026,-6.72028 4.120687,-16.4596 5.171002,-14.44837 5.510906,-17.33388 4.087447,-34.69921 l -0.844404,-10.30123 3.587444,-5.96549 c 1.973093,-3.28102 4.356943,-8.65712 5.297443,-11.94689 3.70789,-12.9698 13.280169,-24.88322 26.009522,-32.370807 3.5395,-2.081982 11.04149,-5.255687 16.67107,-7.052677 8.74243,-2.790621 11.71877,-3.264001 20.40233,-3.244945 22.15596,0.04862 52.33066,12.247523 60.38938,24.413979 2.54904,3.84835 3.07068,5.85056 3.69551,14.18479 0.51798,6.90871 1.14161,9.86286 2.16501,10.25557 0.7906,0.30338 3.72034,-0.6328 6.51054,-2.08039 l 5.07307,-2.63201 2.51157,5.49085 c 7.83556,17.13027 7.74241,42.22327 -0.22956,61.84242 -3.09279,7.6114 -6.68086,12.47911 -15.19583,20.61524 -8.18047,7.8165 -8.24578,9.18227 -0.86949,18.18123 3.07543,3.75197 5.58998,7.58453 5.58789,8.51679 -0.004,1.84316 -3.56991,8.14499 -5.55104,9.81043 -4.45384,3.7441 -14.14158,10.69301 -14.90752,10.69301 -0.50709,0 0.26874,-2.34974 1.72404,-5.22164 z M 79.75994,201.55794 c 0,-6.2077 -0.210229,-7.06671 -1.473,-6.01869 -0.810149,0.67236 -1.995124,2.80453 -2.633276,4.73815 -0.957595,2.90154 -0.873788,3.9529 0.479768,6.01869 2.702609,4.12471 3.626508,2.9176 3.626508,-4.73815 z M 230.37886,136.8982 c -0.53181,-0.99422 -1.53676,-4.705 -2.23322,-8.24619 -0.82019,-4.17029 -1.93019,-6.85315 -3.15077,-7.61542 -1.9795,-1.23621 -2.32181,-5.39357 -0.93561,-11.36279 l 0.70829,-3.05001 4.12859,4.23101 c 6.52677,6.68868 8.96222,16.06123 6.00969,23.12762 -1.78537,4.27301 -3.28449,5.23858 -4.52697,2.91578 z m -19.84316,-8.11289 c -0.3531,-0.35311 -0.64201,-4.15763 -0.64201,-8.4545 0,-6.44194 -0.46139,-8.68625 -2.62998,-12.7931 -3.56223,-6.74605 -5.65558,-8.811571 -12.77737,-12.607441 -3.34425,-1.78247 -6.33765,-3.911072 -6.65199,-4.730225 -0.32373,-0.843611 0.69796,-2.825087 2.35638,-4.570045 2.63326,-2.770659 3.37293,-3.020883 7.35021,-2.486525 2.43227,0.326782 7.1844,2.066328 10.56028,3.865657 5.60139,2.985511 6.39242,3.838617 9.04857,9.758679 3.85323,8.58812 4.01151,17.61553 0.44322,25.27935 -2.31524,4.97257 -5.64435,8.15112 -7.05731,6.73815 z M 97.618906,93.661242 c 1.648796,-5.292756 2.458864,-6.702698 4.998894,-8.700687 6.61159,-5.200672 15.40149,-6.407189 20.19825,-2.772445 2.94879,2.234445 1.24326,3.352178 -7.19121,4.712802 -6.79745,1.096547 -8.37237,1.770612 -12.04364,5.154674 -4.839508,4.460896 -7.036029,5.052423 -5.962294,1.605656 z M 213.17037,84.789546 c -7.34351,-4.489209 -14.97284,-6.635736 -20.13986,-5.666395 -1.97535,0.370577 -5.38092,2.290374 -7.56794,4.266216 l -3.97641,3.329943 -5.02408,-1.406235 c -4.87435,-1.364325 -5.07691,-1.888962 -6.22821,-6.68811 -2.19616,-9.154612 -7.47086,-13.176313 -17.28154,-13.176313 -7.88245,0 -16.9634,5.522613 -19.33414,11.758122 -0.9498,2.498176 -1.32229,2.636754 -5.32716,1.981871 -5.22541,-0.854472 -15.56639,-1.114497 -19.04766,-0.478958 -2.20697,0.402904 -2.50553,0.129305 -2.26718,-2.077666 0.45142,-4.17987 5.40658,-13.359126 9.7626,-18.084844 4.78792,-5.194284 10.85956,-8.945211 15.9997,-9.884269 l 2.20734,-0.403263 c 1.06214,-0.32579 1.60838,0.0021 1.81202,1.081272 l 0.92399,3.567107 c 1.05293,4.064838 1.41714,4.563684 2.10435,2.882263 0.45706,-1.118336 0.87019,-4.092096 0.91806,-6.608354 0.1127,-5.92479 0.58089,-6.544716 7.20444,-9.539259 7.50869,-3.394724 13.8518,-4.165505 21.85404,-2.655591 7.75608,1.463469 11.82907,3.938872 16.45051,9.997983 3.66308,4.802623 4.10626,6.263547 1.90005,6.263547 -1.83193,0 -7.3932,4.638108 -8.87006,7.397641 -1.16065,2.168698 0.0812,1.587561 11.84207,-5.54127 5.44375,-3.29975 11.44376,-1.780565 18.63815,4.719126 7.93548,7.169238 14.35088,23.012977 11.04896,27.287017 -1.0741,1.390333 -1.9852,1.112093 -7.60204,-2.321581 z m -51.5685,-3.132501 c -2.23668,-0.462641 -8.29857,-0.867528 -13.47088,-0.899754 -5.16026,-0.03215 -8.2007,0.186903 -9.22053,-0.536923 -0.96928,-0.687931 -0.083,-2.263092 1.40305,-4.384608 2.26554,-3.234523 6.80295,-5.303759 11.62999,-5.303759 5.07332,0 9.05369,1.942083 12.58727,6.141508 2.52787,3.0042 3.54814,6.194285 1.90028,5.941615 -0.41938,-0.0643 -2.59251,-0.495439 -4.82918,-0.958079 z"
       id="path953"
       sodipodi:nodetypes="ssssscssscssscsssssssssssscssssssssscsssscsssssssssssscssssssssssssssssssssssscsssssssssccssssssssssssssssssss" />
  </g>
</svg>
