<?xml version="1.0" encoding="UTF-8" standalone="no"?>
<!-- Created with Inkscape (http://www.inkscape.org/) -->

<svg
   version="1.1"
   id="svg1"
   width="300"
   height="300"
   viewBox="0 0 300 300"
   sodipodi:docname="accessory.svg"
   inkscape:version="1.4.2 (f4327f4, 2025-05-13)"
   inkscape:export-filename="accessory.png"
   inkscape:export-xdpi="96"
   inkscape:export-ydpi="96"
   xmlns:inkscape="http://www.inkscape.org/namespaces/inkscape"
   xmlns:sodipodi="http://sodipodi.sourceforge.net/DTD/sodipodi-0.dtd"
   xmlns="http://www.w3.org/2000/svg"
   xmlns:svg="http://www.w3.org/2000/svg">
  <defs
     id="defs1">
    <filter
       inkscape:collect="always"
       style="color-interpolation-filters:sRGB"
       id="filter2"
       x="-0.0535934"
       y="-0.051291095"
       width="1.1071538"
       height="1.1025182">
      <feGaussianBlur
         inkscape:collect="always"
         stdDeviation="1.9494"
         id="feGaussianBlur2" />
    </filter>
  </defs>
  <sodipodi:namedview
     id="namedview1"
     pagecolor="#ffffff"
     bordercolor="#000000"
     borderopacity="0.25"
     inkscape:showpageshadow="2"
     inkscape:pageopacity="0.0"
     inkscape:pagecheckerboard="0"
     inkscape:deskcolor="#d1d1d1"
     inkscape:zoom="2.811928"
     inkscape:cx="216.93301"
     inkscape:cy="101.88739"
     inkscape:window-width="2560"
     inkscape:window-height="1411"
     inkscape:window-x="3191"
     inkscape:window-y="-9"
     inkscape:window-maximized="1"
     inkscape:current-layer="g1" />
  <g
     inkscape:groupmode="layer"
     inkscape:label="Image"
     id="g1">
    <path
       style="opacity:1;fill:#f6f6e1;stroke-width:12.3;stroke:#753f4b;stroke-dasharray:none;filter:url(#filter2)"
       d="m 146.07158,252.92154 c -8.82091,-8.82087 3.56793,-61.8587 14.44921,-61.8587 9.63576,0 17.84958,11.78706 20.62671,19.04088 2.55961,6.68571 0.51193,19.29086 -11.63239,32.29138 -12.54094,13.42514 -18.06464,15.90535 -23.44353,10.52644 z M 74.911531,214.76298 c -9.53158,-20.91952 -6.390293,-40.52461 8.941664,-55.80608 7.714358,-7.68889 9.836744,-10.54158 15.957435,-12.3425 6.99148,-2.05717 12.67481,-2.07279 13.11704,-4.09656 0.55345,-2.53269 -4.15233,-6.87452 -6.46366,-11.19361 -6.41761,-11.99155 -7.804986,-40.195623 -1.28769,-55.503973 6.30688,-14.813552 20.63189,-31.528098 26.90194,-31.389348 6.54045,0.144577 8.61804,7.776547 21.05422,27.319492 2.78442,4.375536 12.90083,18.284469 15.66217,23.369907 4.70801,8.670452 3.90162,12.746832 3.42365,19.792432 -0.3323,4.90085 -1.58792,10.4254 -1.68865,12.44737 -0.16183,3.24875 3.37762,1.13874 12.85732,-1.42458 16.92205,-4.57558 39.98609,3.55119 54.57484,18.13989 7.21905,7.21909 13.12555,15.00072 13.12555,17.29259 0,5.13952 -45.5949,26.7023 -56.28711,26.70696 -4.27174,0.002 -19.10338,-0.0686 -26.32704,-3.80397 -7.22366,-3.73547 -13.99711,-9.32856 -14.46597,-8.56015 -4.51705,7.40346 -8.02142,14.9196 -11.93962,20.14917 -7.94629,10.60585 -16.10158,15.68921 -27.40421,18.53521 -10.49235,2.64201 -26.882259,6.6521 -30.325559,7.97344 -3.935855,1.51033 -6.230008,-0.59013 -9.426493,-7.60569 z M 59.340915,139.60912 C 50.052958,129.34602 45.244032,98.483117 52.257516,94.148579 58.23924,90.45164 79.964511,106.43371 91.100074,121.18124 c 4.388277,5.81169 8.272558,14.46972 0.578609,20.09565 -11.42942,8.35741 -23.518758,8.07714 -32.337768,-1.66777 z M 186.89618,114.14091 c -3.39752,-7.77461 -1.75473,-21.605637 3.99618,-27.837453 5.65865,-6.131873 12.2261,-8.405955 21.45299,-9.138726 4.39087,-0.348707 9.16678,-0.174359 14.30957,0.438181 25.70946,3.063253 18.90472,11.391787 1.41464,24.732108 -19.50988,14.88093 -40.20248,14.02771 -41.17338,11.80589 z"
       id="path1"
       sodipodi:nodetypes="ssssscsssscsssssssssscsssccsssssssssss" />
    <path
       style="opacity:1;fill:#f6f6e1;stroke-width:4.31572"
       d="m 146.07158,252.92154 c -8.82091,-8.82087 3.56793,-61.8587 14.44921,-61.8587 9.63576,0 17.84958,11.78706 20.62671,19.04088 2.55961,6.68571 0.51193,19.29086 -11.63239,32.29138 -12.54094,13.42514 -18.06464,15.90535 -23.44353,10.52644 z M 74.911531,214.76298 c -9.53158,-20.91952 -6.390293,-40.52461 8.941664,-55.80608 7.714358,-7.68889 9.836744,-10.54158 15.957435,-12.3425 6.99148,-2.05717 12.67481,-2.07279 13.11704,-4.09656 0.55345,-2.53269 -4.15233,-6.87452 -6.46366,-11.19361 -6.41761,-11.99155 -7.804986,-40.195623 -1.28769,-55.503973 6.30688,-14.813552 20.63189,-31.528098 26.90194,-31.389348 6.54045,0.144577 8.61804,7.776547 21.05422,27.319492 2.78442,4.375536 12.90083,18.284469 15.66217,23.369907 4.70801,8.670452 3.90162,12.746832 3.42365,19.792432 -0.3323,4.90085 -1.58792,10.4254 -1.68865,12.44737 -0.16183,3.24875 3.37762,1.13874 12.85732,-1.42458 16.92205,-4.57558 39.98609,3.55119 54.57484,18.13989 7.21905,7.21909 13.12555,15.00072 13.12555,17.29259 0,5.13952 -45.5949,26.7023 -56.28711,26.70696 -4.27174,0.002 -19.10338,-0.0686 -26.32704,-3.80397 -7.22366,-3.73547 -13.99711,-9.32856 -14.46597,-8.56015 -4.51705,7.40346 -8.02142,14.9196 -11.93962,20.14917 -7.94629,10.60585 -16.10158,15.68921 -27.40421,18.53521 -10.49235,2.64201 -26.882259,6.6521 -30.325559,7.97344 -3.935855,1.51033 -6.230008,-0.59013 -9.426493,-7.60569 z M 59.340915,139.60912 C 50.052958,129.34602 45.244032,98.483117 52.257516,94.148579 58.23924,90.45164 79.964511,106.43371 91.100074,121.18124 c 4.388277,5.81169 8.272558,14.46972 0.578609,20.09565 -11.42942,8.35741 -23.518758,8.07714 -32.337768,-1.66777 z M 186.89618,114.14091 c -3.39752,-7.77461 -1.75473,-21.605637 3.99618,-27.837453 5.65865,-6.131873 12.2261,-8.405955 21.45299,-9.138726 4.39087,-0.348707 9.16678,-0.174359 14.30957,0.438181 25.70946,3.063253 18.90472,11.391787 1.41464,24.732108 -19.50988,14.88093 -40.20248,14.02771 -41.17338,11.80589 z"
       id="path2"
       sodipodi:nodetypes="ssssscsssscsssssssssscsssccsssssssssss" />
  </g>
</svg>
