<?xml version="1.0" encoding="UTF-8" standalone="no"?>
<!-- Created with Inkscape (http://www.inkscape.org/) -->

<svg
   version="1.1"
   id="svg1"
   width="300"
   height="300"
   viewBox="0 0 300 300"
   sodipodi:docname="cape.svg"
   xml:space="preserve"
   inkscape:version="1.4.2 (f4327f4, 2025-05-13)"
   inkscape:export-filename="cape.png"
   inkscape:export-xdpi="96"
   inkscape:export-ydpi="96"
   xmlns:inkscape="http://www.inkscape.org/namespaces/inkscape"
   xmlns:sodipodi="http://sodipodi.sourceforge.net/DTD/sodipodi-0.dtd"
   xmlns="http://www.w3.org/2000/svg"
   xmlns:svg="http://www.w3.org/2000/svg"><defs
     id="defs1"><filter
       inkscape:collect="always"
       style="color-interpolation-filters:sRGB"
       id="filter3"
       x="-0.046237825"
       y="-0.071099582"
       width="1.0920259"
       height="1.1428641"><feGaussianBlur
         inkscape:collect="always"
         stdDeviation="1.9494"
         id="feGaussianBlur3" /></filter></defs><sodipodi:namedview
     id="namedview1"
     pagecolor="#ffffff"
     bordercolor="#000000"
     borderopacity="0.25"
     inkscape:showpageshadow="2"
     inkscape:pageopacity="0.0"
     inkscape:pagecheckerboard="0"
     inkscape:deskcolor="#d1d1d1"
     inkscape:zoom="11.247712"
     inkscape:cx="124.20304"
     inkscape:cy="122.64717"
     inkscape:window-width="2560"
     inkscape:window-height="1411"
     inkscape:window-x="3191"
     inkscape:window-y="-9"
     inkscape:window-maximized="1"
     inkscape:current-layer="g1" /><g
     inkscape:groupmode="layer"
     inkscape:label="Image"
     id="g1"><path
       style="display:inline;fill:none;fill-opacity:1;stroke:#386081;stroke-width:12.3;stroke-opacity:1;filter:url(#filter3);stroke-dasharray:none"
       d="M 125.24254,223.85068 C 75.201289,212.39284 22.711665,165.68306 34.701654,143.27958 c 1.729933,-3.23246 20.515431,-16.64051 41.745535,-29.79566 0,0 25.117741,-15.195786 37.424971,-23.19031 0.82179,-0.533826 1.70949,-0.286777 2.22812,0.05037 1.81354,1.178407 7.92937,5.862409 7.92937,5.862409 12.64816,9.351211 39.01494,9.333201 52.17223,-0.03551 0,0 4.99166,-3.731815 7.34742,-5.538026 1.90094,-1.457493 3.67172,-0.630923 5.10386,0.02371 6.70245,3.059587 34.89749,20.708957 34.89749,20.708957 20.88481,12.02866 39.44693,24.75778 41.24914,28.28704 5.1712,10.12664 1.68351,19.3036 -14.04151,36.94668 -31.85189,35.73702 -86.29469,56.23298 -125.51574,47.2526 z m 32.3772,-11.49937 c 6.25649,-6.25647 5.86116,-11.11078 -1.44313,-17.72103 -7.75767,-7.02065 -15.69681,-2.83158 -17.09887,9.02216 -1.47477,12.4685 9.58413,17.65673 18.542,8.69887 z m -13.09108,-5.67858 c -1.67038,-2.66215 0.0438,-7.16619 4.34676,-7.63559 5.44204,-0.5937 9.74858,4.69341 6.15286,8.82372 -3.39238,3.89674 -8.09394,2.64592 -10.49962,-1.18813 z m -17.80481,-14.84815 c 0,-2.44415 -1.39904,-3.91714 -3.02848,-3.91714 -1.62944,0 -2.89676,1.47299 -2.89676,3.91714 0,2.44417 1.33318,3.71961 2.96262,3.71961 1.62944,0 2.96262,-1.27544 2.96262,-3.71961 z m 50.36453,1.48132 c 0,-1.62944 -1.33318,-2.96262 -2.96262,-2.96262 -1.62944,0 -2.96261,1.33318 -2.96261,2.96262 0,1.62944 1.33317,2.96262 2.96261,2.96262 1.62944,0 2.96262,-1.33318 2.96262,-2.96262 z m -1.73976,-25.40737 c 1.87575,-4.48932 1.80771,-7.4562 1.8344,-10.06539 0.0267,-2.73541 -0.79026,-9.39839 -3.17922,-13.10929 -9.34977,-14.5235 -28.4919,-19.31617 -43.26329,-6.61034 -10.65477,9.16486 -11.22732,25.10633 -1.28189,35.69275 7.65226,8.14549 15.8876,10.67936 29.36023,7.73036 7.41245,-1.6225 12.7883,-4.68349 16.52977,-13.63809 z m -39.73691,1.70641 c -5.97214,-5.97214 -7.68104,-16.49157 -3.65791,-22.51679 6.86214,-10.27698 25.89907,-11.56392 33.61052,-2.27216 5.17324,6.23339 3.84718,22.50166 -2.19429,26.91925 -7.69424,5.62619 -21.02487,4.60314 -27.75832,-2.1303 z m 23.10327,-10.62843 c 1.0588,-7.41046 -6.4111,-14.42754 -12.76357,-11.98986 -6.54698,2.51232 -8.6511,10.10691 -4.26449,15.39243 5.25405,6.33076 15.94253,4.19495 17.02806,-3.40257 z m -14.21541,-2.70336 c 0,-3.05138 1.9417,-4.50446 5.18459,-3.87993 2.91453,0.56129 3.68457,2.00593 3.76774,3.52329 0.0951,1.73382 -0.9202,3.56258 -4.35191,4.27714 -2.68408,0.55886 -4.60042,-1.07422 -4.60042,-3.9205 z m 11.85048,-39.82051 c 0,-3.16272 -3.21862,-8.32989 -5.87482,-8.36955 -3.18279,-0.0474 -6.7929,4.16106 -4.65477,9.73294 2.53955,6.61797 10.52959,5.51362 10.52959,-1.36339 z M 136.06863,94.853742 c -7.61304,-2.032719 -18.11624,-11.229277 -18.11624,-16.198837 0,-2.061155 0.0741,-7.739632 4.76247,-2.358097 0.63471,0.728542 1.58936,1.710077 2.66764,2.764036 2.1442,2.09579 5.33126,5.211221 10.00592,7.226453 5.03269,2.169552 10.83987,2.581889 14.38452,2.581889 6.83713,0 15.77044,-2.033894 22.45808,-6.57224 2.9804,-2.022561 6.15227,-4.84324 7.10309,-6.479283 2.72867,-4.695161 7.01539,5.180522 -3.15407,13.258254 -7.49038,5.949716 -28.7065,8.822988 -40.11141,5.777825 z"
       id="path1"
       sodipodi:nodetypes="sssssssssssssssssssssssssssssssssssssssssssssssssssssssssssssssssss" /><rect
       style="display:inline;opacity:1;fill:#386081;fill-opacity:1;stroke:none;stroke-width:12.3;stroke-dasharray:none;stroke-opacity:1"
       id="rect3"
       width="83.928185"
       height="20.804232"
       x="106.68837"
       y="183.68181" /><path
       style="display:inline;fill:#23c4fc;fill-opacity:1;stroke-width:2.96262"
       d="M 125.24254,223.85068 C 75.201289,212.39284 22.711665,165.68306 34.701654,143.27958 c 1.729933,-3.23246 20.515431,-16.64051 41.745535,-29.79566 0,0 25.117741,-15.195786 37.424971,-23.19031 0.82179,-0.533826 1.70949,-0.286777 2.22812,0.05037 1.81354,1.178407 7.92937,5.862409 7.92937,5.862409 12.64816,9.351211 39.01494,9.333201 52.17223,-0.03551 0,0 4.99166,-3.731815 7.34742,-5.538026 1.90094,-1.457493 3.67172,-0.630923 5.10386,0.02371 6.70245,3.059587 34.89749,20.708957 34.89749,20.708957 20.88481,12.02866 39.44693,24.75778 41.24914,28.28704 5.1712,10.12664 1.68351,19.3036 -14.04151,36.94668 -31.85189,35.73702 -86.29469,56.23298 -125.51574,47.2526 z m 32.3772,-11.49937 c 6.25649,-6.25647 5.86116,-11.11078 -1.44313,-17.72103 -7.75767,-7.02065 -15.69681,-2.83158 -17.09887,9.02216 -1.47477,12.4685 9.58413,17.65673 18.542,8.69887 z m -13.09108,-5.67858 c -1.67038,-2.66215 0.0438,-7.16619 4.34676,-7.63559 5.44204,-0.5937 9.74858,4.69341 6.15286,8.82372 -3.39238,3.89674 -8.09394,2.64592 -10.49962,-1.18813 z m -17.80481,-14.84815 c 0,-2.44415 -1.39904,-3.91714 -3.02848,-3.91714 -1.62944,0 -2.89676,1.47299 -2.89676,3.91714 0,2.44417 1.33318,3.71961 2.96262,3.71961 1.62944,0 2.96262,-1.27544 2.96262,-3.71961 z m 50.36453,1.48132 c 0,-1.62944 -1.33318,-2.96262 -2.96262,-2.96262 -1.62944,0 -2.96261,1.33318 -2.96261,2.96262 0,1.62944 1.33317,2.96262 2.96261,2.96262 1.62944,0 2.96262,-1.33318 2.96262,-2.96262 z m -1.73976,-25.40737 c 1.87575,-4.48932 1.80771,-7.4562 1.8344,-10.06539 0.0267,-2.73541 -0.79026,-9.39839 -3.17922,-13.10929 -9.34977,-14.5235 -28.4919,-19.31617 -43.26329,-6.61034 -10.65477,9.16486 -11.22732,25.10633 -1.28189,35.69275 7.65226,8.14549 15.8876,10.67936 29.36023,7.73036 7.41245,-1.6225 12.7883,-4.68349 16.52977,-13.63809 z m -39.73691,1.70641 c -5.97214,-5.97214 -7.68104,-16.49157 -3.65791,-22.51679 6.86214,-10.27698 24.74328,-11.38611 32.45473,-2.09435 5.17324,6.23339 5.00297,22.32385 -1.0385,26.74144 -7.69424,5.62619 -21.02487,4.60314 -27.75832,-2.1303 z m 23.10327,-10.62843 c 1.0588,-7.41046 -6.4111,-14.42754 -12.76357,-11.98986 -6.54698,2.51232 -8.6511,10.10691 -4.26449,15.39243 5.25405,6.33076 15.94253,4.19495 17.02806,-3.40257 z m -14.21541,-2.70336 c 0,-3.05138 1.9417,-4.50446 5.18459,-3.87993 2.91453,0.56129 3.68457,2.00593 3.76774,3.52329 0.0951,1.73382 -0.9202,3.56258 -4.35191,4.27714 -2.68408,0.55886 -4.60042,-1.07422 -4.60042,-3.9205 z m 11.85048,-39.82051 c 0,-3.16272 -3.21862,-8.32989 -5.87482,-8.36955 -3.18279,-0.0474 -6.7929,4.16106 -4.65477,9.73294 2.53955,6.61797 10.52959,5.51362 10.52959,-1.36339 z M 136.06863,94.853742 c -7.61304,-2.032719 -18.11624,-11.229277 -18.11624,-16.198837 0,-2.061155 0.0741,-7.739632 4.76247,-2.358097 0.63471,0.728542 1.58936,1.710077 2.66764,2.764036 2.1442,2.09579 5.33126,5.211221 10.00592,7.226453 5.03269,2.169552 10.83987,2.581889 14.38452,2.581889 6.83713,0 15.77044,-2.033894 22.45808,-6.57224 2.9804,-2.022561 6.15227,-4.84324 7.10309,-6.479283 2.72867,-4.695161 7.01539,5.180522 -3.15407,13.258254 -7.49038,5.949716 -28.7065,8.822988 -40.11141,5.777825 z"
       id="path2"
       sodipodi:nodetypes="sssssssssssssssssssssssssssssssssssssssssssssssssssssssssssssssssss" /></g></svg>
