<?xml version="1.0" encoding="UTF-8" standalone="no"?>
<!-- Created with Inkscape (http://www.inkscape.org/) -->

<svg
   version="1.1"
   id="svg3343"
   width="300"
   height="300"
   viewBox="0 0 300 300"
   sodipodi:docname="cape_nature_wave_spell.svg"
   inkscape:version="1.2.2 (732a01da63, 2022-12-09)"
   inkscape:export-filename="cape_nature_wave.png"
   inkscape:export-xdpi="96"
   inkscape:export-ydpi="96"
   xmlns:inkscape="http://www.inkscape.org/namespaces/inkscape"
   xmlns:sodipodi="http://sodipodi.sourceforge.net/DTD/sodipodi-0.dtd"
   xmlns="http://www.w3.org/2000/svg"
   xmlns:svg="http://www.w3.org/2000/svg">
  <defs
     id="defs3347" />
  <sodipodi:namedview
     id="namedview3345"
     pagecolor="#ffffff"
     bordercolor="#000000"
     borderopacity="0.25"
     inkscape:showpageshadow="2"
     inkscape:pageopacity="0.0"
     inkscape:pagecheckerboard="0"
     inkscape:deskcolor="#d1d1d1"
     showgrid="false"
     inkscape:zoom="2.3617366"
     inkscape:cx="39.589511"
     inkscape:cy="93.151792"
     inkscape:window-width="2560"
     inkscape:window-height="1369"
     inkscape:window-x="1912"
     inkscape:window-y="-8"
     inkscape:window-maximized="1"
     inkscape:current-layer="g3349" />
  <g
     inkscape:groupmode="layer"
     inkscape:label="Image"
     id="g3349">
    <rect
       style="fill:#292c2b;fill-opacity:1;stroke:none;stroke-width:43.8978;stop-color:#000000"
       id="rect32909"
       width="300"
       height="300"
       x="0"
       y="0"
       ry="45"
       rx="45"
       inkscape:label="spell_background" />
    <path
       style="display:inline;fill:#c79290;fill-opacity:1"
       d="m 143.98228,225.14894 c -8.38176,-8.63493 -25.47014,-16.85809 -51.389424,-24.72929 -18.322415,-5.56417 -21.391381,-8.98897 -16.486866,-18.39849 2.581851,-4.95339 1.979847,-8.14214 -2.269965,-12.02375 -4.69954,-4.29236 -11.387828,-7.50453 -21.775484,-10.45807 -5.191702,-1.47616 -10.816702,-3.38805 -12.5,-4.24865 C 30.757534,150.7901 25,143.43496 25,136.68988 c 0,-3.36734 3.616187,-9.50047 7.477522,-12.68204 1.670931,-1.37677 1.755555,-1.31756 1.094353,0.7657 -1.670229,5.26243 4.50358,13.64824 15.428125,20.95584 5.72446,3.82918 21.276422,11.60678 26.5,13.25276 7.770581,2.44855 16.5,8.84087 16.5,12.08251 0,0.92975 -0.663092,2.24078 -1.473538,2.91339 -2.022498,1.67852 -2.946862,7.36792 -1.604569,9.87601 2.155488,4.02757 7.718568,7.12842 17.167497,9.56913 18.69336,4.8286 30.42067,10.36338 38.40945,18.12759 2.51786,2.44708 4.92238,4.44923 5.34338,4.44923 0.42099,0 2.30425,-1.58764 4.185,-3.52808 7.8249,-8.07326 22.23469,-15.09274 39.8511,-19.4128 13.27019,-3.25424 19.00983,-7.86835 17.73247,-14.25518 -0.349,-1.74499 -1.35753,-3.9716 -2.24119,-4.94803 -3.79293,-4.19114 2.05634,-10.311 14.1304,-14.78411 25.26545,-9.36016 44.5,-23.20131 44.5,-32.02214 0,-3.0637 1.42112,-2.49248 4.364,1.75409 7.96554,11.49429 -3.22187,24.96239 -25.53335,30.73865 -12.92831,3.34703 -23.09496,9.83154 -24.34623,15.52855 -0.459,2.08979 -0.0295,4.18925 1.42975,6.98888 4.75467,9.12204 1.97056,12.19652 -16.20892,17.89942 -27.60425,8.65946 -42.64499,15.95347 -52.07323,25.25292 -3.22739,3.18331 -5.92739,5.75033 -6,5.7045 -0.0726,-0.0458 -2.61499,-2.64131 -5.64974,-5.76773 z m 1.86451,-17.47424 c -3.617,-4.53315 -14.32386,-9.9508 -31.20745,-15.79093 -16.86803,-5.83475 -19.023407,-7.20445 -19.457561,-12.36489 -0.175022,-2.08034 0.162478,-4.26314 0.75,-4.85066 1.178039,-1.17804 1.403508,-4.6309 0.462518,-7.08308 -1.15753,-3.01648 -14.530733,-11.68606 -30.422467,-19.7223 -13.062709,-6.60563 -16.800243,-8.99038 -20.446601,-13.046 -4.241742,-4.71784 -6.155452,-9.45325 -5.367785,-13.28241 0.188406,-0.91592 4.404664,-3.79435 9.369462,-6.39652 8.73925,-4.58046 33.820387,-20.858248 47.814399,-31.031796 3.762715,-2.73547 11.763195,-9.669911 17.778845,-15.409869 l 10.93755,-10.436288 6.22115,1.334892 c 7.92529,1.700555 26.23198,1.716711 34.94075,0.03084 l 6.7196,-1.300803 8.7804,8.451313 C 198.55644,82.019476 229.64146,103.93443 253,116.32391 l 6.5,3.44763 -0.20207,4.24261 c -0.43016,9.03139 -7.15757,14.91814 -30.12951,26.36447 C 209.80324,160.0278 203,165.29223 203,170.62807 c 0,1.78964 0.45,3.53201 1,3.87193 0.55,0.33992 1,2.10511 1,3.92265 0,4.53109 -3.93376,8.21688 -10.90287,10.2156 -7.90993,2.26856 -24.60664,8.67929 -31.02674,11.91279 -2.98628,1.50405 -7.13096,4.47036 -9.2104,6.5918 -2.07943,2.12144 -4.13611,3.85715 -4.57039,3.85713 -0.43428,-2e-5 -1.98355,-1.49639 -3.44281,-3.32527 z"
       id="path12261" />
    <path
       id="path12263"
       style="display:inline;fill:#f9f0d4;fill-opacity:1"
       d="M 126.05859 58.259766 L 123.12891 61.054688 C 124.69572 61.961417 127.37183 62.935401 131.13867 63.873047 C 144.68693 67.245489 171.53428 65.50981 177.0957 61.361328 L 173.99414 58.376953 C 173.94661 58.365701 173.89944 58.351459 173.85156 58.341797 L 167.21875 59.625 C 158.50999 61.310869 140.20458 61.296256 132.2793 59.595703 L 126.05859 58.259766 z M 116.26172 67.605469 L 115.12109 68.695312 C 113.51554 70.22728 111.77002 71.837898 110 73.4375 C 113.74415 75.895795 122.67132 79.708899 130.49609 81.138672 C 149.21949 84.55988 172.18524 81.654661 186.79688 76.357422 L 191.56641 74.626953 C 188.82051 72.314326 186.28624 70.083629 184.02734 67.962891 L 179.42578 69.929688 C 161.91079 76.584863 138.7862 77.60029 121.25586 69.822266 L 116.26172 67.605469 z " />
  </g>
</svg>
