<?xml version="1.0" encoding="UTF-8" standalone="no"?>
<!-- Created with Inkscape (http://www.inkscape.org/) -->

<svg
   version="1.1"
   id="svg3343"
   width="300"
   height="300"
   viewBox="0 0 300 300"
   sodipodi:docname="cape_nature_wave.svg"
   inkscape:version="1.2.2 (732a01da63, 2022-12-09)"
   xmlns:inkscape="http://www.inkscape.org/namespaces/inkscape"
   xmlns:sodipodi="http://sodipodi.sourceforge.net/DTD/sodipodi-0.dtd"
   xmlns="http://www.w3.org/2000/svg"
   xmlns:svg="http://www.w3.org/2000/svg">
  <defs
     id="defs3347">
    <filter
       inkscape:collect="always"
       style="color-interpolation-filters:sRGB"
       id="filter12992"
       x="-0.043327193"
       y="-0.065880923"
       width="1.0856737"
       height="1.128562">
      <feGaussianBlur
         inkscape:collect="always"
         stdDeviation="1.9494"
         id="feGaussianBlur12994" />
    </filter>
  </defs>
  <sodipodi:namedview
     id="namedview3345"
     pagecolor="#ffffff"
     bordercolor="#000000"
     borderopacity="0.25"
     inkscape:showpageshadow="2"
     inkscape:pageopacity="0.0"
     inkscape:pagecheckerboard="0"
     inkscape:deskcolor="#d1d1d1"
     showgrid="false"
     inkscape:zoom="3.34"
     inkscape:cx="63.922156"
     inkscape:cy="131.43713"
     inkscape:window-width="2560"
     inkscape:window-height="1369"
     inkscape:window-x="1912"
     inkscape:window-y="-8"
     inkscape:window-maximized="1"
     inkscape:current-layer="g3349" />
  <g
     inkscape:groupmode="layer"
     inkscape:label="Image"
     id="g3349">
    <path
       id="path11522"
       style="display:inline;mix-blend-mode:normal;fill:none;fill-opacity:1;stroke:#36498e;stroke-width:12.3;stroke-dasharray:none;stroke-opacity:1;filter:url(#filter12992)"
       d="m 126.05859,58.259766 -2.92968,2.794922 -6.86524,6.550781 -1.14258,1.089843 c -1.33083,1.269847 -2.77858,2.605224 -4.23632,3.933594 -0.28738,0.261605 -0.5682,0.52177 -0.85743,0.783203 -0.009,0.0084 -0.0181,0.01699 -0.0273,0.02539 -4.86185,4.393761 -9.89974,8.662586 -12.658203,10.667969 -13.993998,10.173538 -39.075212,26.452751 -47.814453,31.033201 -4.964793,2.60217 -9.180735,5.48057 -9.369141,6.39649 -0.787666,3.82915 1.12545,8.56341 5.367188,13.28125 3.646354,4.05561 7.384569,6.44125 20.447265,13.04687 15.891718,8.03623 29.264346,16.70618 30.421875,19.72266 0.940989,2.45218 0.715147,5.90399 -0.46289,7.08203 -0.587522,0.58752 -0.925022,2.77122 -0.75,4.85156 0.434153,5.16044 2.589018,6.52854 19.457029,12.36328 16.88357,5.84013 27.59199,11.25787 31.20899,15.79102 1.45925,1.82888 3.00712,3.32615 3.4414,3.32617 0.43428,2e-5 2.49089,-1.73598 4.57032,-3.85742 2.07943,-2.12144 6.22466,-5.08775 9.21093,-6.5918 6.4201,-3.2335 23.11742,-9.64355 31.02735,-11.91211 C 201.06676,186.63995 205,182.95296 205,178.42188 c 0,-1.81754 -0.45,-3.58196 -1,-3.92188 -0.55,-0.33992 -1,-2.08146 -1,-3.87109 0,-5.33584 6.80281,-10.60083 26.16797,-20.25 22.97192,-11.44632 29.7007,-17.33386 30.13086,-26.36524 L 259.5,119.77148 253,116.32422 C 233.40247,105.9296 208.47326,88.866089 191.56641,74.626953 c -0.001,-9.38e-4 -0.003,-0.001 -0.004,-0.002 -1.33094,-1.12097 -2.60781,-2.22151 -3.83203,-3.300781 -1.28435,-1.134659 -2.51503,-2.248266 -3.66602,-3.328125 -0.0116,-0.01086 -0.0255,-0.02235 -0.0371,-0.0332 -0.41026,-0.385172 -0.91666,-0.810256 -1.30859,-1.1875 l -5.62305,-5.414063 -3.10156,-2.984375 -0.0547,-0.05273 -0.0879,0.01758 -6.63281,1.283203 c -1.0886,0.210734 -2.32627,0.395155 -3.67578,0.552734 -1.34524,0.157082 -2.80105,0.286294 -4.32813,0.390625 -0.009,5.84e-4 -0.0169,0.0014 -0.0254,0.002 -1.52897,0.10411 -3.13048,0.183023 -4.76367,0.234376 -3.2744,0.102957 -6.67886,0.100881 -9.9043,-0.0078 -1.61271,-0.05435 -3.18065,-0.135031 -4.66406,-0.242187 -1.48341,-0.107157 -2.88214,-0.240494 -4.1582,-0.400391 -1.27606,-0.159897 -2.42926,-0.346025 -3.41992,-0.558594 z M 33.898438,123.09375 c 3.239966,-1.32043 -0.586411,0.22568 -1.421876,0.91406 C 28.615231,127.18938 25,133.32212 25,136.68945 c 0,6.74508 5.757549,14.10098 14.560547,18.60157 1.683296,0.86059 7.308303,2.77188 12.5,4.24804 10.387645,2.95354 17.075855,6.16663 21.775391,10.45899 4.249807,3.8816 4.851379,7.07005 2.269531,12.02343 -4.90451,9.40951 -1.834116,12.83428 16.488281,18.39844 25.91926,7.87119 43.00692,16.0936 51.38867,24.72852 3.03475,3.12641 5.57779,5.72178 5.65039,5.76758 0.0726,0.0458 2.77262,-2.51982 6,-5.70313 9.42823,-9.29944 24.46805,-16.59445 52.07227,-25.25391 18.17946,-5.70289 20.96365,-8.7764 16.20898,-17.89843 -1.45925,-2.79963 -1.88868,-4.90045 -1.42968,-6.99024 1.25126,-5.697 11.4174,-12.18031 24.3457,-15.52734 22.31146,-5.77626 33.49873,-19.244 25.5332,-30.73828 -2.94288,-4.24657 -7.43305,-6.98957 -7.43305,-1.96757 0,8.82082 -16.16481,22.87499 -41.43023,32.23515 -12.07405,4.4731 -17.92379,10.59206 -14.13086,14.7832 0.88366,0.97643 1.89319,3.20423 2.24219,4.94922 1.27736,6.38682 -4.46225,10.99967 -17.73242,14.2539 -17.6164,4.32006 -32.02667,11.34081 -39.85157,19.41407 C 152.1466,214.41309 150.26279,216 149.8418,216 c -0.421,0 -2.8259,-2.00214 -5.34375,-4.44922 -7.98878,-7.7642 -19.71486,-13.29836 -38.40821,-18.12695 -9.448916,-2.44071 -15.012479,-5.54275 -17.167965,-9.57031 -1.342292,-2.50809 -0.417027,-8.19649 1.605469,-9.875 C 91.337789,173.30591 92,171.9942 92,171.06445 c 0,-3.24163 -8.729427,-9.63348 -16.5,-12.08203 -5.223573,-1.64598 -20.775546,-9.42473 -26.5,-13.2539 -10.924534,-7.3076 -17.097962,-15.69266 -15.427734,-20.95508 0.3306,-1.04163 0.159612,-1.61181 0.326172,-1.67969 z"
       sodipodi:nodetypes="cccccscsssssssssssssssssscccsccssccccccsscssssccssssssssssssssssssssssssssssssss" />
    <path
       style="display:inline;fill:#456ec8;fill-opacity:1"
       d="m 143.98228,225.14894 c -8.38176,-8.63493 -25.47014,-16.85809 -51.389424,-24.72929 -18.322415,-5.56417 -21.391381,-8.98897 -16.486866,-18.39849 2.581851,-4.95339 1.979847,-8.14214 -2.269965,-12.02375 -4.69954,-4.29236 -11.387828,-7.50453 -21.775484,-10.45807 -5.191702,-1.47616 -10.816702,-3.38805 -12.5,-4.24865 C 30.757534,150.7901 25,143.43496 25,136.68988 c 0,-3.36734 3.616187,-9.50047 7.477522,-12.68204 1.670931,-1.37677 1.755555,-1.31756 1.094353,0.7657 -1.670229,5.26243 4.50358,13.64824 15.428125,20.95584 5.72446,3.82918 21.276422,11.60678 26.5,13.25276 7.770581,2.44855 16.5,8.84087 16.5,12.08251 0,0.92975 -0.663092,2.24078 -1.473538,2.91339 -2.022498,1.67852 -2.946862,7.36792 -1.604569,9.87601 2.155488,4.02757 7.718568,7.12842 17.167497,9.56913 18.69336,4.8286 30.42067,10.36338 38.40945,18.12759 2.51786,2.44708 4.92238,4.44923 5.34338,4.44923 0.42099,0 2.30425,-1.58764 4.185,-3.52808 7.8249,-8.07326 22.23469,-15.09274 39.8511,-19.4128 13.27019,-3.25424 19.00983,-7.86835 17.73247,-14.25518 -0.349,-1.74499 -1.35753,-3.9716 -2.24119,-4.94803 -3.79293,-4.19114 2.05634,-10.311 14.1304,-14.78411 25.26545,-9.36016 44.5,-23.20131 44.5,-32.02214 0,-3.0637 1.42112,-2.49248 4.364,1.75409 7.96554,11.49429 -3.22187,24.96239 -25.53335,30.73865 -12.92831,3.34703 -23.09496,9.83154 -24.34623,15.52855 -0.459,2.08979 -0.0295,4.18925 1.42975,6.98888 4.75467,9.12204 1.97056,12.19652 -16.20892,17.89942 -27.60425,8.65946 -42.64499,15.95347 -52.07323,25.25292 -3.22739,3.18331 -5.92739,5.75033 -6,5.7045 -0.0726,-0.0458 -2.61499,-2.64131 -5.64974,-5.76773 z m 1.86451,-17.47424 c -3.617,-4.53315 -14.32386,-9.9508 -31.20745,-15.79093 -16.86803,-5.83475 -19.023407,-7.20445 -19.457561,-12.36489 -0.175022,-2.08034 0.162478,-4.26314 0.75,-4.85066 1.178039,-1.17804 1.403508,-4.6309 0.462518,-7.08308 -1.15753,-3.01648 -14.530733,-11.68606 -30.422467,-19.7223 -13.062709,-6.60563 -16.800243,-8.99038 -20.446601,-13.046 -4.241742,-4.71784 -6.155452,-9.45325 -5.367785,-13.28241 0.188406,-0.91592 4.404664,-3.79435 9.369462,-6.39652 8.73925,-4.58046 33.820387,-20.858248 47.814399,-31.031796 3.762715,-2.73547 11.763195,-9.669911 17.778845,-15.409869 l 10.93755,-10.436288 6.22115,1.334892 c 7.92529,1.700555 26.23198,1.716711 34.94075,0.03084 l 6.7196,-1.300803 8.7804,8.451313 C 198.55644,82.019476 229.64146,103.93443 253,116.32391 l 6.5,3.44763 -0.20207,4.24261 c -0.43016,9.03139 -7.15757,14.91814 -30.12951,26.36447 C 209.80324,160.0278 203,165.29223 203,170.62807 c 0,1.78964 0.45,3.53201 1,3.87193 0.55,0.33992 1,2.10511 1,3.92265 0,4.53109 -3.93376,8.21688 -10.90287,10.2156 -7.90993,2.26856 -24.60664,8.67929 -31.02674,11.91279 -2.98628,1.50405 -7.13096,4.47036 -9.2104,6.5918 -2.07943,2.12144 -4.13611,3.85715 -4.57039,3.85713 -0.43428,-2e-5 -1.98355,-1.49639 -3.44281,-3.32527 z"
       id="path12261" />
    <path
       id="path12263"
       style="display:inline;fill:#60a6fe;fill-opacity:1"
       d="M 126.05859 58.259766 L 123.12891 61.054688 C 124.69572 61.961417 127.37183 62.935401 131.13867 63.873047 C 144.68693 67.245489 171.53428 65.50981 177.0957 61.361328 L 173.99414 58.376953 C 173.94661 58.365701 173.89944 58.351459 173.85156 58.341797 L 167.21875 59.625 C 158.50999 61.310869 140.20458 61.296256 132.2793 59.595703 L 126.05859 58.259766 z M 116.26172 67.605469 L 115.12109 68.695312 C 113.51554 70.22728 111.77002 71.837898 110 73.4375 C 113.74415 75.895795 122.67132 79.708899 130.49609 81.138672 C 149.21949 84.55988 172.18524 81.654661 186.79688 76.357422 L 191.56641 74.626953 C 188.82051 72.314326 186.28624 70.083629 184.02734 67.962891 L 179.42578 69.929688 C 161.91079 76.584863 138.7862 77.60029 121.25586 69.822266 L 116.26172 67.605469 z " />
  </g>
</svg>
