<?xml version="1.0" encoding="UTF-8" standalone="no"?>
<!-- Created with Inkscape (http://www.inkscape.org/) -->

<svg
   version="1.1"
   id="svg2"
   width="300"
   height="300"
   viewBox="0 0 300 300"
   sodipodi:docname="hair_nature_wave_spell.svg"
   xml:space="preserve"
   inkscape:version="1.2.2 (732a01da63, 2022-12-09)"
   xmlns:inkscape="http://www.inkscape.org/namespaces/inkscape"
   xmlns:sodipodi="http://sodipodi.sourceforge.net/DTD/sodipodi-0.dtd"
   xmlns="http://www.w3.org/2000/svg"
   xmlns:svg="http://www.w3.org/2000/svg"><defs
     id="defs6" /><sodipodi:namedview
     id="namedview4"
     pagecolor="#ffffff"
     bordercolor="#000000"
     borderopacity="0.25"
     inkscape:showpageshadow="2"
     inkscape:pageopacity="0.0"
     inkscape:pagecheckerboard="0"
     inkscape:deskcolor="#d1d1d1"
     showgrid="false"
     inkscape:zoom="1.67"
     inkscape:cx="-90.718563"
     inkscape:cy="37.125749"
     inkscape:window-width="2560"
     inkscape:window-height="1369"
     inkscape:window-x="1912"
     inkscape:window-y="-8"
     inkscape:window-maximized="1"
     inkscape:current-layer="g8" /><g
     inkscape:groupmode="layer"
     inkscape:label="Image"
     id="g8"><rect
       style="fill:#292c2b;fill-opacity:1;stroke:none;stroke-width:43.8978;stop-color:#000000"
       id="rect32909"
       width="300"
       height="300"
       x="0"
       y="0"
       ry="45"
       rx="45"
       inkscape:label="spell_background" /><path
       style="fill:#f9f0d4;fill-opacity:1;stroke-width:1.23102"
       d="m 170.50336,263.38735 c -1.17466,-0.79904 -0.85407,-1.39837 1.26438,-2.36361 3.56668,-1.62508 10.77301,-7.63346 10.77301,-8.98214 0,-0.55672 -4.0162,-4.46183 -8.9249,-8.67803 -7.87927,-6.76767 -11.81925,-11.24822 -11.95883,-13.59959 -0.024,-0.40415 2.98292,-5.25652 6.68203,-10.78302 l 6.72563,-10.04819 -3.03258,-4.46878 c -4.82959,-7.1168 -4.18791,-10.47431 4.05292,-21.20592 11.52775,-15.01199 14.0879,-32.70537 7.0581,-48.77886 -0.88834,-2.03119 -2.80525,-7.39588 -4.25978,-11.92156 -2.46795,-7.67889 -2.51424,-8.48055 -0.69299,-12.00244 1.07336,-2.07568 2.24757,-3.77396 2.60933,-3.77396 0.36175,0 3.14824,1.90163 6.19217,4.22585 3.04392,2.32422 7.02691,4.56624 8.85104,4.98231 4.24895,0.9691 6.29151,2.6466 10.06519,8.26624 3.61022,5.37623 6.9912,7.14601 13.65167,7.14601 4.05315,0 5.09261,0.51542 6.0343,2.99226 0.34288,0.90188 0.96782,2.511 2.59733,4.11017 1.34399,1.31895 3.55881,2.58947 5.21912,3.816 5.88097,4.34452 7.19419,6.16512 10.99316,15.24037 6.39925,15.28697 6.53619,16.68425 2.74948,28.05472 -3.73106,11.20336 -3.51392,11.95566 4.65339,16.12231 3.99686,2.03905 5.71331,2.25536 10.23826,1.29028 4.10733,-0.87601 5.43637,-0.78968 5.43637,0.35313 0,2.16563 -6.52443,10.87366 -10.47575,13.98177 -2.79425,2.19795 -3.02203,2.76641 -1.36353,3.40283 2.53899,0.97431 2.69905,9.96462 0.28046,15.75311 -3.22634,7.7217 -21.67647,20.44715 -29.64553,20.44715 -5.68103,0 -6.11962,-1.23422 -1.8307,-5.15154 3.1391,-2.86713 3.72547,-4.24343 3.40904,-8.00173 -0.35198,-4.1806 -0.89387,-4.76267 -6.86275,-7.37135 l -6.48062,-2.83233 1.80283,2.75358 c 1.5885,2.42619 1.57846,3.21657 -0.0845,6.64783 -3.43501,7.08805 -13.33059,14.13214 -24.35038,17.33362 -11.89836,3.45673 -19.2337,4.5011 -21.37648,3.04351 z m 72.31413,-46.50795 c 0.37105,-0.60034 -2.13431,-3.4756 -3.25809,-4.39865 -1.12377,-0.92304 -3.61049,-4.14105 -5.52604,-7.15111 l -3.48281,-5.47285 v 4.63051 c 0,5.6689 1.75883,9.18344 5.3123,10.61516 3.54491,1.42827 6.15051,3.07808 6.95464,1.77694 z m -32.35782,-16.84834 c 0.008,-0.84633 0.4253,-5.83274 0.92586,-11.08092 0.84421,-8.85128 0.68586,-10.52356 -1.12426,-9.70888 -2.28956,1.00889 -3.71499,7.5365 -4.71336,10.28911 l -2.10687,6.49987 3.15971,2.7698 c 3.67449,3.22102 3.83796,3.27317 3.85892,1.23102 z m -135.63322,61.2469 c -0.677062,-0.22963 -3.279524,-0.75955 -5.783251,-1.17759 -9.023212,-1.50659 -21.118679,-14.95575 -18.257864,-20.30123 2.026018,-3.78566 1.501823,-4.99175 -2.16952,-4.99175 -3.535428,0 -11.971185,-7.45403 -14.884782,-13.15254 -2.02944,-3.96925 -1.780075,-4.26935 2.829093,-3.40467 4.593008,0.86167 13.032487,-2.66062 21.077519,-8.79687 3.797478,-2.89648 4.263088,-3.88352 4.263088,-9.03718 0,-5.94976 -3.047099,-18.24965 -5.035844,-20.32761 -1.724119,-1.80146 -1.325395,-13.42556 0.619782,-18.06877 2.503836,-5.97674 6.337873,-9.07375 16.203443,-13.08857 l 8.705316,-3.54264 -0.04083,13.01064 c -0.03842,12.23493 0.207563,13.54707 4.125811,22.00753 2.291665,4.94827 5.207297,9.55379 6.479178,10.23448 5.786305,3.09672 8.778281,13.75296 5.950095,21.19171 -1.379117,3.62734 -6.218953,8.69241 -13.131587,13.74272 -7.384093,5.39476 -11.718645,11.09184 -12.420534,16.32481 -0.514414,3.83525 0.134512,5.72776 3.864609,11.27067 3.408777,5.06543 4.101466,6.9034 2.891108,7.67125 -1.63863,1.03955 -3.139352,1.16324 -5.28478,0.43561 z M 60.084352,145.02699 c -6.358292,-0.90895 -7.990026,-4.14063 -8.013636,-15.87114 l -0.01814,-9.01642 5.847348,-6.09937 c 5.259569,-5.48627 6.665076,-6.25045 13.98229,-7.60236 6.817056,-1.2595 8.70348,-2.17962 11.644389,-5.67972 3.218782,-3.830779 13.879054,-9.939309 17.395607,-9.967971 0.81145,-0.0067 3.02728,-1.474057 4.92407,-3.260984 4.55681,-4.292842 11.81187,-7.391665 19.75976,-8.439903 9.65213,-1.273007 8.3992,-5.545427 -1.62625,-5.545427 -5.7144,0 -15.25186,3.791114 -21.0054,8.349636 -1.34485,1.065524 -2.64521,2.566616 -4.527416,3.520535 -1.780757,0.902491 -4.140307,1.276549 -5.567038,1.651333 -3.692589,0.970004 -7.464706,3.463594 -12.24825,8.096829 -5.02456,4.866662 -7.853814,6.695132 -10.359608,6.695132 -1.89599,0 -3.447255,-0.20932 -3.447255,-0.46517 0,-3.849068 15.55483,-37.096573 21.953545,-41.961316 11.019516,-8.377798 31.016342,-17.97126 46.983592,-21.768428 16.33024,-3.883482 41.83819,-0.821136 55.37121,6.647566 7.66641,4.230995 18.1336,11.778023 21.11,15.220706 2.33003,2.695032 11.61064,20.715656 12.76406,24.784606 0.76077,2.683795 0.51698,2.769797 -7.85154,2.769797 -4.50535,0 -6.83903,0.284275 -8.62126,-0.411641 -1.23976,-0.484095 -2.21269,-1.656495 -3.46414,-2.834409 -5.53903,-5.213513 -10.5356,-7.8236 -14.98639,-7.828534 -3.55092,-0.0039 -3.92984,0.262552 -2.61907,1.841929 0.84286,1.015592 1.95453,1.662246 3.56583,1.570104 4.33022,-0.247623 11.73926,5.664905 14.54426,10.677164 1.09015,1.947963 2.50105,2.316609 7.91921,2.069119 11.5362,-0.526951 16.70389,2.944992 23.05077,15.486817 2.06279,4.07619 2.62279,7.41191 2.62279,15.62286 0,12.80257 -1.29039,14.06936 -7.36211,7.22739 -3.63041,-4.09096 -5.05171,-4.89794 -7.72612,-4.3867 -4.56591,0.87283 -13.27638,-3.66634 -16.42132,-8.55744 -1.86509,-2.90064 -4.09777,-4.41915 -8.05271,-5.47695 -3.20285,-0.85663 -7.91765,-3.61618 -11.36915,-6.65432 -5.42264,-4.77319 -5.83391,-5.527102 -5.1126,-9.372038 0.79366,-4.230555 -2.0823,-16.752245 -4.53184,-19.731228 -0.9909,-1.205073 -2.68048,-2.644621 -3.07248,-2.187736 -0.53039,0.618183 0.52988,3.706902 1.55584,6.162347 2.18031,5.218221 2.31844,18.150077 0.23371,21.879975 -5.95417,10.65287 -19.46519,17.15871 -29.7417,14.32122 -3.71602,-1.02605 -5.07104,-2.27755 -6.95236,-6.42129 -1.28523,-2.83076 -2.34894,-6.11627 -2.36381,-7.30113 -0.21371,-1.69572 1.18976,-2.32037 3.05052,-0.92327 3.57565,2.68473 12.48204,-1.63466 13.4943,-7.057838 0.49239,-2.637968 0.39316,-2.670637 -2.45111,-0.807005 -2.03937,1.336242 -5.03178,1.809965 -9.5905,1.518248 -6.2205,-0.398048 -6.94856,-0.13285 -11.89042,4.331021 -2.89529,2.615264 -7.64386,5.807684 -10.55237,7.094234 -4.10254,1.81476 -5.47379,3.18417 -6.11593,6.10785 -1.60259,7.29659 -12.29921,16.13044 -22.750294,18.78848 -1.692652,0.4305 -5.293392,2.76105 -8.001638,5.179 -8.31507,7.42377 -13.957194,9.3599 -23.35924,8.01584 z"
       id="path945"
       sodipodi:nodetypes="cssssscssssssssssssssssssssssssscscsccssscssssscccssssssssssssscsssssssssssscsssssssssssssssssssssssssssssssssssssssscssssssssss" /></g></svg>
