<?xml version="1.0" encoding="UTF-8" standalone="no"?>
<!-- Created with Inkscape (http://www.inkscape.org/) -->

<svg
   version="1.1"
   id="svg2"
   width="300"
   height="300"
   viewBox="0 0 300 300"
   sodipodi:docname="mask_ocean_spell.svg"
   xml:space="preserve"
   inkscape:version="1.2.2 (732a01da63, 2022-12-09)"
   inkscape:export-filename="mask_ocean.png"
   inkscape:export-xdpi="96"
   inkscape:export-ydpi="96"
   xmlns:inkscape="http://www.inkscape.org/namespaces/inkscape"
   xmlns:sodipodi="http://sodipodi.sourceforge.net/DTD/sodipodi-0.dtd"
   xmlns="http://www.w3.org/2000/svg"
   xmlns:svg="http://www.w3.org/2000/svg"><defs
     id="defs6" /><sodipodi:namedview
     id="namedview4"
     pagecolor="#ffffff"
     bordercolor="#000000"
     borderopacity="0.25"
     inkscape:showpageshadow="2"
     inkscape:pageopacity="0.0"
     inkscape:pagecheckerboard="0"
     inkscape:deskcolor="#d1d1d1"
     showgrid="false"
     inkscape:zoom="1.67"
     inkscape:cx="30.239521"
     inkscape:cy="74.850299"
     inkscape:window-width="2560"
     inkscape:window-height="1369"
     inkscape:window-x="1912"
     inkscape:window-y="-8"
     inkscape:window-maximized="1"
     inkscape:current-layer="g8" /><g
     inkscape:groupmode="layer"
     inkscape:label="Image"
     id="g8"><rect
       style="fill:#292c2b;fill-opacity:1;stroke:none;stroke-width:43.8978;stop-color:#000000"
       id="rect32909"
       width="300"
       height="300"
       x="0"
       y="0"
       ry="45"
       rx="45"
       inkscape:label="spell_background" /><path
       style="display:inline;fill:#ce9e9a;stroke-width:1.37226"
       d="M 135.68366,275.28841 C 114.57442,271.65612 93.04534,261.0523 76.743497,246.25831 40.163551,213.06189 25.72741,151.85703 42.838773,102.51256 54.49715,68.892999 68.115254,52.940239 97.260317,38.761104 119.70333,27.842523 132.33373,24.969247 157.63986,25.025425 c 18.40754,0.04087 21.96231,0.450003 33.62042,3.869559 12.43605,3.64774 31.23177,12.506706 38.47086,18.132432 7.90331,6.141914 23.0853,22.618447 26.5827,28.84936 9.71407,17.306451 14.53308,40.303584 14.53578,69.367384 0.004,40.10422 -8.50908,65.5567 -30.81158,92.12341 -22.8606,27.23152 -69.01196,44.00224 -104.35438,37.92084 z M 98.678083,179.08883 c 6.432077,-2.93065 11.779407,-17.47518 9.057167,-24.63519 -2.41649,-6.35585 -9.706864,-13.38988 -15.492533,-14.9478 -7.227982,-1.94629 -13.475965,0.15453 -18.928402,6.36451 -3.577589,4.07464 -4.185378,5.85994 -4.185378,12.29386 0,13.78171 8.021263,21.62355 22.920828,22.40812 1.662661,0.0876 4.6454,-0.58002 6.628318,-1.4835 z m 116.631787,-1.12346 c 11.14679,-6.88911 11.96305,-25.91783 1.52468,-35.54343 -5.39512,-4.97502 -16.42291,-5.56297 -22.82975,-1.21717 -12.71694,8.62602 -12.63783,31.22837 0.13229,37.79119 5.19527,2.66994 16.03922,2.14211 21.17278,-1.03059 z M 155.71113,85.122628 c 4.45715,-4.281256 8.10391,-8.495315 8.10391,-9.364579 0,-0.869264 -3.95993,-5.403964 -8.79986,-10.077109 l -8.79983,-8.496628 -8.35344,7.948859 c -4.59438,4.371872 -8.35343,9.066555 -8.35343,10.432629 0,2.600123 14.16043,17.340917 16.65818,17.340917 0.79231,0 5.08733,-3.50284 9.54447,-7.784089 z"
       id="path2497"
       inkscape:label="mask" /><path
       id="path2499"
       style="display:inline;fill:#e5d4c0;stroke-width:1.37226"
       inkscape:label="crown"
       d="m 146.93781,42.13301 c -2.67791,0 -29.95287,25.501182 -32.71719,30.589123 -2.00557,3.691388 2.40135,9.803077 17.42665,24.167354 7.18298,6.866983 14.08806,12.484383 15.34415,12.484383 1.25611,0 9.31266,-7.02913 17.90374,-15.620203 C 176.44109,82.207738 180.39408,77.38747 180.05436,75.276363 179.40257,71.225838 150.33322,42.13301 146.93781,42.13301 Z m -0.72365,15.052003 8.80178,8.496233 c 4.83993,4.673141 8.7991,9.20829 8.7991,10.077552 0,0.869264 -3.64778,5.083367 -8.10493,9.364613 -4.45713,4.281256 -8.75187,7.783306 -9.5442,7.783306 -2.49774,0 -16.65743,-14.740772 -16.65743,-17.340893 0,-1.366072 3.7598,-6.059469 8.35418,-10.431337 z" /><path
       id="path2501"
       style="display:inline;fill:#d5bbae;stroke-width:1.37226"
       inkscape:label="swirl"
       d="m 253.77595,72.170011 c -0.71366,0.963229 -1.42798,2.112612 -2.13612,3.48694 -0.49451,0.959713 -0.92352,1.956925 -1.74133,3.377246 -1.7923,3.112762 -1.73376,3.525443 -3.54434,6.873832 -1.40896,2.605678 -1.33267,3.562598 -6.1561,9.547558 -9.54323,11.841353 -26.6434,22.809763 -45.90915,29.447363 -7.04453,2.30827 -10.4373,3.10023 -15.21928,4.54367 -3.81434,1.01423 -5.72629,2.04667 -52.34589,5.97611 -9.45595,0.79703 -19.55402,2.12076 -22.45202,2.90267 l -9.032277,2.4363 c 5.090377,2.67797 10.481957,8.39818 12.495087,13.69313 1.82671,4.80461 -0.0148,12.87279 -3.34489,18.58719 3.78492,-0.66805 11.07325,-3.16334 14.82687,-3.96402 5.28294,-1.12686 21.80064,-2.80906 36.70802,-3.6933 l 28.74782,-1.70462 c -0.92363,-8.35297 2.1807,-17.62504 9.33245,-22.47616 6.40684,-4.34579 17.43483,-3.75821 22.82996,1.21681 3.58858,3.30917 5.81513,7.73671 6.78089,12.39326 3.01382,-0.5838 6.11979,-1.28753 8.381,-1.70997 8.99442,-1.68035 19.01158,-8.45494 28.50392,-17.71346 l 9.54419,-9.30833 c -1.71799,-20.19946 -6.26346,-36.902043 -13.73066,-50.205502 -0.5534,-0.98592 -1.47479,-2.289292 -2.53815,-3.706717 z M 71.359619,148.33842 c -3.134315,0.58766 -8.042777,4.20286 -11.17183,6.11106 -8.146933,4.96826 -17.183248,16.72034 -20.64022,25.4458 4.659398,20.09104 13.441929,38.95137 25.783524,54.21242 0.165054,-1.01845 0.465599,-2.93138 0.511918,-2.97771 0.215056,-0.21505 1.058005,-4.69547 1.870779,-9.95694 1.605701,-10.39439 7.265726,-23.97917 14.636572,-32.63411 l 6.981923,-8.19605 c -13.154624,-1.55995 -20.203348,-9.26008 -20.203348,-22.17865 0,-4.0163 1.182453,-7.74476 2.230682,-9.82582 z"
       sodipodi:nodetypes="cssssccsccscsccsscsccsccsccssccsc" /><path
       style="display:inline;fill:#e5d4c0;stroke-width:1.37226"
       d="m 53.577417,202.59894 c -2.38013,-3.39812 -1.669242,-7.01397 1.805614,-9.18406 2.060154,-1.28659 3.219805,-1.05858 6.087062,1.1968 4.187161,3.29361 4.448563,5.45803 1.032543,8.54948 -3.379053,3.058 -6.528472,2.85961 -8.925219,-0.56222 z m -0.572564,-17.2714 c -0.94343,-0.38937 -1.715328,-2.15866 -1.715328,-3.93178 0,-4.20471 4.914507,-5.94368 8.020265,-2.83793 3.709981,3.70999 -1.129153,8.90583 -6.304937,6.76971 z m 114.548467,-4.78057 c -2.87669,-1.60988 -3.08174,-5.74672 -0.39534,-7.97623 2.6488,-2.19831 7.63515,0.44273 7.63515,4.04399 0,3.45176 -4.10973,5.68392 -7.23981,3.93224 z m 12.18991,-48.97876 c -1.36414,-2.20723 0.893,-7.09946 3.2755,-7.09946 3.22606,0 5.7505,3.23179 4.68776,6.00125 -0.88398,2.30359 -6.7208,3.10854 -7.96326,1.09821 z m 62.30556,-21.49039 c -2.34357,-2.82382 -0.62843,-8.55782 2.8942,-9.67586 1.9951,-0.633213 3.78745,-0.0365 5.73263,1.90877 1.74397,1.74396 2.13279,3.39717 1.24041,6.31884 -1.27546,4.1758 -7.12436,4.75321 -9.86724,1.44825 z M 131.58223,95.454017 C 120.2196,84.591274 114.41359,77.483975 114.41359,74.4374 c 0,-3.181341 29.12849,-30.932127 32.46777,-30.932127 3.27077,0 32.02857,28.771048 32.02857,32.043331 0,3.212476 -26.71385,30.443426 -31.10737,31.709506 -2.41211,0.69511 -5.4854,-1.54143 -16.22033,-11.804093 z m 25.69739,-9.458026 c 5.10397,-5.310397 9.27994,-10.175744 9.27994,-10.811885 0,-1.420021 -18.84175,-19.328472 -20.33578,-19.328472 -1.66493,0 -19.45982,18.018426 -19.45982,19.704276 0,1.895092 17.97208,20.091337 19.84382,20.091337 0.76555,0 5.56787,-4.34488 10.67184,-9.655256 z m 88.90193,0.772638 c -2.61656,-3.152772 -1.13288,-6.898404 2.73256,-6.898404 2.46179,0 3.53056,0.833908 3.83818,2.994743 0.56069,3.938421 -4.19637,6.764579 -6.57074,3.903661 z"
       id="path2503"
       inkscape:label="dots"
       sodipodi:nodetypes="ssssssssssssssssssscssssssssssssssssss" /></g></svg>
