<?xml version="1.0" encoding="UTF-8" standalone="no"?>
<!-- Created with Inkscape (http://www.inkscape.org/) -->

<svg
   version="1.1"
   id="svg2"
   width="300"
   height="300"
   viewBox="0 0 300 300"
   sodipodi:docname="mask_ocean.svg"
   xml:space="preserve"
   inkscape:version="1.2.2 (732a01da63, 2022-12-09)"
   xmlns:inkscape="http://www.inkscape.org/namespaces/inkscape"
   xmlns:sodipodi="http://sodipodi.sourceforge.net/DTD/sodipodi-0.dtd"
   xmlns="http://www.w3.org/2000/svg"
   xmlns:svg="http://www.w3.org/2000/svg"><defs
     id="defs6"><filter
       inkscape:collect="always"
       style="color-interpolation-filters:sRGB"
       id="filter3246"
       x="-0.046093636"
       y="-0.043054004"
       width="1.092146"
       height="1.0863286"><feGaussianBlur
         inkscape:collect="always"
         stdDeviation="1.9494"
         id="feGaussianBlur3248" /></filter></defs><sodipodi:namedview
     id="namedview4"
     pagecolor="#ffffff"
     bordercolor="#000000"
     borderopacity="0.25"
     inkscape:showpageshadow="2"
     inkscape:pageopacity="0.0"
     inkscape:pagecheckerboard="0"
     inkscape:deskcolor="#d1d1d1"
     showgrid="false"
     inkscape:zoom="0.59043416"
     inkscape:cx="-575.0006"
     inkscape:cy="287.92372"
     inkscape:window-width="2560"
     inkscape:window-height="1369"
     inkscape:window-x="1912"
     inkscape:window-y="-8"
     inkscape:window-maximized="1"
     inkscape:current-layer="g8" /><g
     inkscape:groupmode="layer"
     inkscape:label="Image"
     id="g8"><path
       id="path851"
       style="display:inline;fill:none;stroke-width:12.3;stroke:#753f4b;stroke-dasharray:none;filter:url(#filter3246)"
       inkscape:label="stroke"
       d="M 157.64062 25.025391 C 132.33452 24.969213 119.70276 27.843149 97.259766 38.761719 C 68.114732 52.94084 54.496256 68.892191 42.837891 102.51172 C 33.971158 128.08094 33.639809 156.81379 40.40625 183.20508 C 40.856741 184.96213 41.316476 186.71492 41.830078 188.44922 C 42.214299 189.74679 42.631618 191.02721 43.050781 192.31055 C 43.55359 193.84978 44.08023 195.37609 44.632812 196.89258 C 45.097524 198.16825 45.564902 199.43916 46.064453 200.69727 C 46.698366 202.29335 47.380899 203.8606 48.070312 205.42578 C 48.556968 206.53102 49.013322 207.6516 49.527344 208.74023 C 50.669865 211.15914 51.886274 213.53048 53.162109 215.85938 C 59.470646 227.37909 67.366686 237.74774 76.744141 246.25781 C 93.045967 261.05179 114.57437 271.65678 135.68359 275.28906 C 171.02598 281.37046 217.17653 264.59868 240.03711 237.36719 C 262.33959 210.8005 270.85361 185.34832 270.84961 145.24414 C 270.8488 136.4911 270.35712 128.35616 269.48047 120.69336 C 269.36294 119.66355 269.24654 118.63159 269.11328 117.62109 C 268.89633 115.98136 268.65916 114.36594 268.40039 112.77734 C 268.21179 111.61475 267.99994 110.47923 267.78906 109.34375 C 267.52366 107.92092 267.2694 106.48558 266.96875 105.10547 C 266.46841 102.7983 265.92286 100.54427 265.32422 98.355469 C 265.06369 97.406986 264.76344 96.506357 264.48438 95.580078 C 264.03627 94.086701 263.57643 92.607753 263.08008 91.171875 C 262.75833 90.244382 262.41806 89.337187 262.07617 88.433594 C 261.51849 86.955118 260.93021 85.512173 260.31836 84.097656 C 260.00715 83.37979 259.70598 82.650737 259.38086 81.949219 C 258.41422 79.859867 257.40556 77.820851 256.31445 75.876953 C 255.97448 75.271275 255.46767 74.522742 254.90234 73.724609 C 249.85998 66.479012 236.86819 52.574292 229.73047 47.027344 C 222.49139 41.401623 203.6958 32.542268 191.25977 28.894531 C 179.60167 25.474979 176.04815 25.066261 157.64062 25.025391 z M 146.21484 57.185547 L 155.01562 65.681641 C 159.85412 70.353405 163.81212 74.886647 163.81445 75.757812 L 163.81445 75.759766 C 163.81331 76.195171 162.90151 77.46389 161.43359 79.160156 L 161.43359 79.162109 C 160.69935 80.010533 159.82573 80.96429 158.85742 81.974609 L 158.85742 81.976562 C 157.88899 82.986984 156.82488 84.053066 155.71094 85.123047 C 151.2538 89.404292 146.95832 92.90625 146.16602 92.90625 C 146.00991 92.90625 145.80733 92.848834 145.56641 92.740234 C 145.32592 92.631828 145.04681 92.471132 144.73438 92.267578 C 143.48189 91.451285 141.70022 89.924314 139.79688 88.105469 C 138.84525 87.196047 137.86342 86.213489 136.90039 85.210938 C 133.04807 81.200728 129.50781 76.866466 129.50781 75.566406 C 129.50781 74.213316 133.20355 69.593884 137.73828 65.257812 C 137.78099 65.216983 137.82043 65.175543 137.86328 65.134766 L 146.21484 57.185547 z M 205.79883 138.31836 C 210.03102 138.544 214.13643 139.93437 216.83398 142.42188 C 217.41169 142.9546 217.94225 143.5266 218.45117 144.11328 C 218.59968 144.28507 218.74418 144.45874 218.88672 144.63477 C 219.25558 145.08831 219.59978 145.55771 219.92969 146.03711 C 220.05171 146.21555 220.18613 146.38663 220.30273 146.56836 C 220.64922 147.10464 220.9581 147.66252 221.25781 148.22461 C 222.35319 150.29659 223.14069 152.52637 223.61523 154.81445 C 225.45851 163.70263 222.62511 173.44419 215.31055 177.96484 C 210.17699 181.13754 199.33198 181.66603 194.13672 178.99609 C 188.54814 176.12401 185.39049 170.17977 184.67188 163.67969 C 184.56219 162.68777 184.51948 161.68272 184.52344 160.67383 C 184.5247 160.35714 184.55785 160.03985 184.57031 159.72266 C 184.59733 159.03481 184.63124 158.34631 184.71094 157.66016 C 184.75696 157.2643 184.83292 156.87232 184.89648 156.47852 C 184.99478 155.86954 185.10193 155.26289 185.24219 154.66211 C 185.33593 154.26071 185.44807 153.86499 185.56055 153.46875 C 185.7262 152.88524 185.90894 152.30741 186.11523 151.73828 C 186.25873 151.34256 186.41302 150.95165 186.57617 150.56445 C 186.80619 150.01854 187.06098 149.48489 187.33008 148.95898 C 187.52318 148.58175 187.71647 148.20519 187.92969 147.83984 C 188.23567 147.31549 188.5764 146.81491 188.92383 146.31836 C 189.15009 145.99507 189.36553 145.66364 189.60938 145.35352 C 190.02585 144.82384 190.4873 144.3327 190.95508 143.8457 C 191.18576 143.60556 191.39551 143.34793 191.63867 143.11914 C 192.33515 142.46387 193.08197 141.85456 193.88086 141.30273 C 193.92433 141.27272 193.96014 141.23477 194.00391 141.20508 C 197.20732 139.03218 201.56664 138.09272 205.79883 138.31836 z M 87.001953 138.80664 C 88.689329 138.78635 90.435194 139.01929 92.242188 139.50586 C 93.208244 139.76599 94.221922 140.22489 95.242188 140.76172 C 97.638606 142.02269 100.08851 143.97123 102.23438 146.21875 C 102.43024 146.42504 102.63004 146.62668 102.82031 146.83789 C 103.17082 147.22495 103.50328 147.62426 103.83203 148.02539 C 104.10175 148.35616 104.36441 148.68933 104.61719 149.02734 C 104.8793 149.37634 105.13523 149.72721 105.37695 150.08203 C 105.6701 150.51405 105.93589 150.94993 106.19531 151.38672 C 106.36724 151.67538 106.55136 151.96243 106.70703 152.25195 C 107.10209 152.98847 107.4576 153.72516 107.73438 154.45312 L 107.73438 154.45508 C 107.94136 154.99948 108.08716 155.59676 108.20312 156.2168 C 108.23507 156.38667 108.25772 156.56345 108.2832 156.73828 C 108.33698 157.11095 108.36365 157.50201 108.38867 157.89453 C 108.4434 158.72603 108.43912 159.59558 108.375 160.49414 C 108.34915 160.83792 108.31373 161.18286 108.27148 161.5332 C 108.18235 162.29856 108.04836 163.07568 107.88672 163.85938 C 107.76511 164.43503 107.62847 165.01095 107.4707 165.58789 C 107.37865 165.93057 107.26805 166.26828 107.16406 166.60938 C 106.46159 168.87663 105.52136 171.09929 104.38867 173.04297 C 102.75628 175.84394 100.79344 178.12391 98.677734 179.08789 C 96.694818 179.99137 93.711487 180.65987 92.048828 180.57227 C 90.209903 180.47543 88.478786 180.26872 86.851562 179.95898 C 86.629694 179.91674 86.422965 179.86061 86.205078 179.81445 C 85.636995 179.69414 85.072138 179.57061 84.53125 179.42383 C 84.266736 179.35203 84.017741 179.2656 83.759766 179.1875 C 83.285419 179.04392 82.811507 178.89914 82.359375 178.73438 C 82.088647 178.63571 81.833037 178.52224 81.570312 178.41602 C 81.164986 178.25214 80.759228 178.08802 80.373047 177.90625 C 80.090445 177.77322 79.82308 177.62694 79.550781 177.48438 C 79.204954 177.30334 78.860379 177.12211 78.53125 176.92578 C 78.270725 176.77035 78.021497 176.60442 77.771484 176.43945 C 77.452205 176.2288 77.136036 176.0152 76.833984 175.78906 C 76.597411 175.61193 76.370487 175.42681 76.144531 175.24023 C 75.859447 175.00487 75.580603 174.76399 75.3125 174.51367 C 75.100126 174.31535 74.895028 174.11 74.693359 173.90234 C 74.436869 173.63826 74.188311 173.36699 73.949219 173.08789 C 73.76048 172.86754 73.576283 172.64373 73.398438 172.41406 C 73.174123 172.12443 72.960813 171.82585 72.753906 171.52148 C 72.590375 171.2809 72.427998 171.0388 72.275391 170.78906 C 72.086073 170.47925 71.91071 170.15782 71.738281 169.83398 C 71.5932 169.5615 71.447522 169.29017 71.314453 169.00781 C 71.157213 168.6742 71.015393 168.32779 70.875 167.98047 C 70.759867 167.69564 70.640862 167.41314 70.537109 167.11914 C 70.403781 166.74128 70.290225 166.348 70.175781 165.95508 C 70.091381 165.66535 69.999867 165.38186 69.925781 165.08398 C 69.820228 164.65955 69.73686 164.21627 69.652344 163.77539 C 69.596766 163.48546 69.530815 163.20325 69.484375 162.90625 C 69.404765 162.39716 69.353415 161.86763 69.300781 161.33789 C 69.276399 161.09246 69.239269 160.85726 69.220703 160.60742 C 69.161749 159.81425 69.128906 159.00133 69.128906 158.16406 C 69.128906 154.15212 70.308088 150.42807 71.355469 148.3457 C 71.888239 147.57777 72.504944 146.79307 73.314453 145.87109 C 77.403777 141.21361 81.939825 138.8675 87.001953 138.80664 z " /><path
       style="display:inline;fill:#ce9e9a;stroke-width:1.37226"
       d="M 135.68366,275.28841 C 114.57442,271.65612 93.04534,261.0523 76.743497,246.25831 40.163551,213.06189 25.72741,151.85703 42.838773,102.51256 54.49715,68.892999 68.115254,52.940239 97.260317,38.761104 119.70333,27.842523 132.33373,24.969247 157.63986,25.025425 c 18.40754,0.04087 21.96231,0.450003 33.62042,3.869559 12.43605,3.64774 31.23177,12.506706 38.47086,18.132432 7.90331,6.141914 23.0853,22.618447 26.5827,28.84936 9.71407,17.306451 14.53308,40.303584 14.53578,69.367384 0.004,40.10422 -8.50908,65.5567 -30.81158,92.12341 -22.8606,27.23152 -69.01196,44.00224 -104.35438,37.92084 z M 98.678083,179.08883 c 6.432077,-2.93065 11.779407,-17.47518 9.057167,-24.63519 -2.41649,-6.35585 -9.706864,-13.38988 -15.492533,-14.9478 -7.227982,-1.94629 -13.475965,0.15453 -18.928402,6.36451 -3.577589,4.07464 -4.185378,5.85994 -4.185378,12.29386 0,13.78171 8.021263,21.62355 22.920828,22.40812 1.662661,0.0876 4.6454,-0.58002 6.628318,-1.4835 z m 116.631787,-1.12346 c 11.14679,-6.88911 11.96305,-25.91783 1.52468,-35.54343 -5.39512,-4.97502 -16.42291,-5.56297 -22.82975,-1.21717 -12.71694,8.62602 -12.63783,31.22837 0.13229,37.79119 5.19527,2.66994 16.03922,2.14211 21.17278,-1.03059 z M 155.71113,85.122628 c 4.45715,-4.281256 8.10391,-8.495315 8.10391,-9.364579 0,-0.869264 -3.95993,-5.403964 -8.79986,-10.077109 l -8.79983,-8.496628 -8.35344,7.948859 c -4.59438,4.371872 -8.35343,9.066555 -8.35343,10.432629 0,2.600123 14.16043,17.340917 16.65818,17.340917 0.79231,0 5.08733,-3.50284 9.54447,-7.784089 z"
       id="path2497"
       inkscape:label="mask" /><path
       id="path2499"
       style="display:inline;fill:#f6f6e1;stroke-width:1.37226"
       inkscape:label="crown"
       d="m 146.93781,42.13301 c -2.67791,0 -29.95287,25.501182 -32.71719,30.589123 -2.00557,3.691388 2.40135,9.803077 17.42665,24.167354 7.18298,6.866983 14.08806,12.484383 15.34415,12.484383 1.25611,0 9.31266,-7.02913 17.90374,-15.620203 C 176.44109,82.207738 180.39408,77.38747 180.05436,75.276363 179.40257,71.225838 150.33322,42.13301 146.93781,42.13301 Z m -0.72365,15.052003 8.80178,8.496233 c 4.83993,4.673141 8.7991,9.20829 8.7991,10.077552 0,0.869264 -3.64778,5.083367 -8.10493,9.364613 -4.45713,4.281256 -8.75187,7.783306 -9.5442,7.783306 -2.49774,0 -16.65743,-14.740772 -16.65743,-17.340893 0,-1.366072 3.7598,-6.059469 8.35418,-10.431337 z" /><path
       id="path2501"
       style="display:inline;fill:#d5bbae;stroke-width:1.37226"
       inkscape:label="mask"
       d="m 253.77595,72.170011 c -0.71366,0.963229 -1.42798,2.112612 -2.13612,3.48694 -0.49451,0.959713 -0.92352,1.956925 -1.74133,3.377246 -1.7923,3.112762 -1.73376,3.525443 -3.54434,6.873832 -1.40896,2.605678 -1.33267,3.562598 -6.1561,9.547558 -9.54323,11.841353 -26.6434,22.809763 -45.90915,29.447363 -7.04453,2.30827 -10.4373,3.10023 -15.21928,4.54367 -3.81434,1.01423 -5.72629,2.04667 -52.34589,5.97611 -9.45595,0.79703 -19.55402,2.12076 -22.45202,2.90267 l -9.032277,2.4363 c 5.090377,2.67797 10.481957,8.39818 12.495087,13.69313 1.82671,4.80461 -0.0148,12.87279 -3.34489,18.58719 3.78492,-0.66805 11.07325,-3.16334 14.82687,-3.96402 5.28294,-1.12686 21.80064,-2.80906 36.70802,-3.6933 l 28.74782,-1.70462 c -0.92363,-8.35297 2.1807,-17.62504 9.33245,-22.47616 6.40684,-4.34579 17.43483,-3.75821 22.82996,1.21681 3.58858,3.30917 5.81513,7.73671 6.78089,12.39326 3.01382,-0.5838 6.11979,-1.28753 8.381,-1.70997 8.99442,-1.68035 19.01158,-8.45494 28.50392,-17.71346 l 9.54419,-9.30833 c -1.71799,-20.19946 -6.26346,-36.902043 -13.73066,-50.205502 -0.5534,-0.98592 -1.47479,-2.289292 -2.53815,-3.706717 z M 71.359619,148.33842 c -3.134315,0.58766 -8.042777,4.20286 -11.17183,6.11106 -8.146933,4.96826 -17.183248,16.72034 -20.64022,25.4458 4.659398,20.09104 13.441929,38.95137 25.783524,54.21242 0.165054,-1.01845 0.465599,-2.93138 0.511918,-2.97771 0.215056,-0.21505 1.058005,-4.69547 1.870779,-9.95694 1.605701,-10.39439 7.265726,-23.97917 14.636572,-32.63411 l 6.981923,-8.19605 c -13.154624,-1.55995 -20.203348,-9.26008 -20.203348,-22.17865 0,-4.0163 1.182453,-7.74476 2.230682,-9.82582 z"
       sodipodi:nodetypes="cssssccsccscsccsscsccsccsccssccsc" /><path
       style="display:inline;fill:#f6f6e1;stroke-width:1.37226"
       d="m 53.577417,202.59894 c -2.38013,-3.39812 -1.669242,-7.01397 1.805614,-9.18406 2.060154,-1.28659 3.219805,-1.05858 6.087062,1.1968 4.187161,3.29361 4.448563,5.45803 1.032543,8.54948 -3.379053,3.058 -6.528472,2.85961 -8.925219,-0.56222 z m -0.572564,-17.2714 c -0.94343,-0.38937 -1.715328,-2.15866 -1.715328,-3.93178 0,-4.20471 4.914507,-5.94368 8.020265,-2.83793 3.709981,3.70999 -1.129153,8.90583 -6.304937,6.76971 z m 114.548467,-4.78057 c -2.87669,-1.60988 -3.08174,-5.74672 -0.39534,-7.97623 2.6488,-2.19831 7.63515,0.44273 7.63515,4.04399 0,3.45176 -4.10973,5.68392 -7.23981,3.93224 z m 12.18991,-48.97876 c -1.36414,-2.20723 0.893,-7.09946 3.2755,-7.09946 3.22606,0 5.7505,3.23179 4.68776,6.00125 -0.88398,2.30359 -6.7208,3.10854 -7.96326,1.09821 z m 62.30556,-21.49039 c -2.34357,-2.82382 -0.62843,-8.55782 2.8942,-9.67586 1.9951,-0.633213 3.78745,-0.0365 5.73263,1.90877 1.74397,1.74396 2.13279,3.39717 1.24041,6.31884 -1.27546,4.1758 -7.12436,4.75321 -9.86724,1.44825 z M 131.58223,95.454017 C 120.2196,84.591274 114.41359,77.483975 114.41359,74.4374 c 0,-3.181341 29.12849,-30.932127 32.46777,-30.932127 3.27077,0 32.02857,28.771048 32.02857,32.043331 0,3.212476 -26.71385,30.443426 -31.10737,31.709506 -2.41211,0.69511 -5.4854,-1.54143 -16.22033,-11.804093 z m 25.69739,-9.458026 c 5.10397,-5.310397 9.27994,-10.175744 9.27994,-10.811885 0,-1.420021 -18.84175,-19.328472 -20.33578,-19.328472 -1.66493,0 -19.45982,18.018426 -19.45982,19.704276 0,1.895092 17.97208,20.091337 19.84382,20.091337 0.76555,0 5.56787,-4.34488 10.67184,-9.655256 z m 88.90193,0.772638 c -2.61656,-3.152772 -1.13288,-6.898404 2.73256,-6.898404 2.46179,0 3.53056,0.833908 3.83818,2.994743 0.56069,3.938421 -4.19637,6.764579 -6.57074,3.903661 z"
       id="path2503"
       inkscape:label="dots"
       sodipodi:nodetypes="ssssssssssssssssssscssssssssssssssssss" /></g></svg>
