<?xml version="1.0" encoding="UTF-8" standalone="no"?>
<!-- Created with Inkscape (http://www.inkscape.org/) -->

<svg
   version="1.1"
   id="svg21548"
   width="300"
   height="300"
   viewBox="0 0 300 300"
   sodipodi:docname="necklace_ocean_blue_scarf.svg"
   inkscape:version="1.2.2 (732a01da63, 2022-12-09)"
   xmlns:inkscape="http://www.inkscape.org/namespaces/inkscape"
   xmlns:sodipodi="http://sodipodi.sourceforge.net/DTD/sodipodi-0.dtd"
   xmlns="http://www.w3.org/2000/svg"
   xmlns:svg="http://www.w3.org/2000/svg">
  <defs
     id="defs21552">
    <filter
       inkscape:collect="always"
       style="color-interpolation-filters:sRGB"
       id="filter19716"
       x="-0.058549877"
       y="-0.053210807"
       width="1.1171941"
       height="1.1063689">
      <feGaussianBlur
         inkscape:collect="always"
         stdDeviation="1.5347592"
         id="feGaussianBlur19718" />
    </filter>
  </defs>
  <sodipodi:namedview
     id="namedview21550"
     pagecolor="#ffffff"
     bordercolor="#000000"
     borderopacity="0.25"
     inkscape:showpageshadow="2"
     inkscape:pageopacity="0.0"
     inkscape:pagecheckerboard="0"
     inkscape:deskcolor="#d1d1d1"
     showgrid="false"
     inkscape:zoom="1.67"
     inkscape:cx="157.18563"
     inkscape:cy="110.17964"
     inkscape:window-width="1920"
     inkscape:window-height="1009"
     inkscape:window-x="4472"
     inkscape:window-y="347"
     inkscape:window-maximized="1"
     inkscape:current-layer="g21554" />
  <g
     inkscape:groupmode="layer"
     inkscape:label="Image"
     id="g21554">
    <path
       id="path15191"
       style="display:inline;mix-blend-mode:normal;fill:none;stroke:#753f4b;stroke-width:12.3;stroke-dasharray:none;filter:url(#filter19716)"
       d="m 137.13332,43.971955 c -5.29879,-0.01563 -6.91866,0.950894 -5.92773,3.533203 0.83447,2.17458 12.45524,2.042945 13.29687,-0.15039 0.88369,-2.302856 -1.43288,-3.365302 -7.36914,-3.382813 z m -21.14453,0.0918 c -0.29987,-0.0049 -0.61291,0.0082 -0.93554,0.03711 -4.51695,0.404918 -10.89978,3.961645 -9.71485,5.878907 0.91484,1.480239 6.92405,0.438955 10.98633,-1.904297 3.37842,-1.948784 3.57821,-3.463162 0.52148,-3.941407 -0.27083,-0.04237 -0.55755,-0.06538 -0.85742,-0.07031 z m 40.70508,7.195312 c -0.11144,-9.36e-4 -0.21777,0.0044 -0.31836,0.01758 -0.21458,0.02813 -0.40437,0.08977 -0.5625,0.1875 -2.06226,1.274541 -0.82827,3.359409 3.76172,6.361329 4.92412,3.220438 6.74681,3.75435 7.67773,2.248047 1.32858,-2.149679 -7.10395,-8.785425 -10.55859,-8.814454 z m -62.341804,1.785157 c -0.69983,0.02955 -1.60141,0.423083 -2.58789,1.193359 -6.33417,4.945988 -7.119541,5.805522 -6.58398,7.201172 0.86568,2.255903 2.35224,1.871566 6.69336,-1.732422 2.1531,-1.787494 3.92368,-4.037503 3.93359,-5 0.0104,-1.009697 -0.4367,-1.56764 -1.16797,-1.652344 -0.09141,-0.01059 -0.18713,-0.01399 -0.28711,-0.0098 z m 79.802744,16.023437 c -0.0447,0.0011 -0.0891,0.0043 -0.13281,0.0098 -0.46664,0.05863 -0.87961,0.365138 -1.22852,0.929687 -1.0259,1.659952 1.33739,7.581758 4.27344,10.707031 1.83172,1.949768 2.34906,2.080625 3.53515,0.894532 1.1861,-1.186093 1.00532,-2.14857 -1.23437,-6.56836 -2.00083,-3.948439 -3.82793,-6.007699 -5.21289,-5.972656 z m -96.478522,0.910156 c -0.06047,0.002 -0.122405,0.0061 -0.1875,0.01367 -0.297574,0.0347 -0.644868,0.126078 -1.039062,0.277344 -2.990957,1.147739 -7.558737,11.419776 -5.841797,13.136719 1.546411,1.546407 3.218184,-0.03353 6.025391,-5.697266 2.571071,-5.187313 2.917561,-7.793435 1.042968,-7.730469 z M 181.32473,89.45633 c -1.71419,0 -2.04368,0.769005 -2.30664,5.380859 -0.16873,2.959431 -0.0703,5.996941 0.21875,6.750001 0.84256,2.19568 3.49736,1.57871 4.13477,-0.96094 0.32164,-1.281611 0.44322,-4.319123 0.26953,-6.749998 -0.26064,-3.647844 -0.66572,-4.419922 -2.31641,-4.419922 z M 69.246601,92.122346 c -0.06795,0.0038 -0.136967,0.01212 -0.207031,0.02539 -1.126594,0.213344 -1.824557,1.469079 -2.035156,3.66211 -0.582945,6.070324 1.856221,8.357194 3.96875,3.720703 1.447444,-3.176799 0.379942,-7.525514 -1.726563,-7.408203 z M 180.8052,106.95633 c -1.66984,0 -1.98047,0.68122 -1.98047,4.33398 0,2.38333 0.31549,4.64753 0.70117,5.03321 1.37908,1.37907 3.8039,0.0713 4.13086,-2.22852 0.56597,-3.98104 -0.69501,-7.13867 -2.85156,-7.13867 z m -111.468755,0.88672 c -0.770626,0.0301 -1.480176,0.58681 -1.925781,1.74805 -0.906328,2.36184 0.404002,8.56398 2.255859,10.68164 1.511937,1.72895 1.649786,1.7315 2.873047,0.0586 0.70677,-0.96656 1.282364,-2.45903 1.279297,-3.31641 -0.0031,-0.85737 -0.474093,-3.2461 -1.046875,-5.30859 -0.695079,-2.50285 -2.151171,-3.91348 -3.435547,-3.86328 z m 109.052735,16.11328 c -1.63439,0 -5.90768,9.66207 -5.14843,11.64062 0.9623,2.5078 4.25832,-0.22117 6.10351,-5.05273 1.72131,-4.50714 1.41977,-6.58789 -0.95508,-6.58789 z m -103.191407,6 c -2.62181,0 -2.568303,2.81117 0.140625,7.43359 2.6678,4.55228 6.486328,6.3146 6.486328,2.99414 0,-2.49315 -5.042691,-10.42773 -6.626953,-10.42773 z m 92.900397,15.8457 c -1.06215,-0.032 -2.8524,0.83302 -5.08594,2.9043 -1.63098,1.5125 -3.69925,3.34008 -4.59766,4.06055 -0.8984,0.72047 -1.37227,1.73297 -1.05273,2.25 1.25143,2.02483 4.88023,0.75843 8.66211,-3.02344 3.59326,-3.59327 3.84446,-6.13799 2.07422,-6.19141 z m -78.667974,4.1543 c -2.77551,0 -1.81273,4.17711 1.64453,7.13672 3.87247,3.31506 7.75,3.78888 7.75,0.94726 0,-2.1431 -6.90415,-8.08398 -9.39453,-8.08398 z m -14.423829,3.29688 c -2.692848,0.11588 -6.272755,1.73924 -12.201172,5.21484 -8.989738,5.2703 -11.970635,5.55197 -19.263672,1.81836 -6.424372,-3.28894 -12.935704,-3.55457 -17.78125,-0.72461 -4.046336,2.36319 -9.935547,9.7567 -9.935547,12.47265 0,2.53611 1.239474,2.42526 4.673828,-0.41796 3.803596,-3.14894 9.364419,-5.0218 10.763672,-3.625 0.610146,0.60908 1.27554,7.57999 1.5625,16.36132 0.507949,15.54395 0.85517,16.95611 5,20.32227 2.35644,1.91374 7.039099,1.4754 12.771484,-1.19336 10.963009,-5.1039 21.219973,-17.5332 27.580078,-33.42383 4.298642,-10.74008 4.44856,-12.97367 1.035157,-15.46094 -1.292097,-0.94149 -2.589371,-1.41329 -4.205078,-1.34374 z m 72.878913,7.10156 c -2.65943,0.0542 -9.31127,1.64806 -10.44336,2.66992 -0.48553,0.43826 -0.58961,1.55943 -0.23242,2.49023 0.52602,1.37079 1.4299,1.56732 4.75781,1.03516 2.25974,-0.36134 4.95131,-1.10832 5.98242,-1.66016 1.99804,-1.06931 2.49479,-3.43263 0.92578,-4.40234 -0.13531,-0.0836 -0.39336,-0.12584 -0.74609,-0.13281 -0.0772,-0.002 -0.15836,-0.002 -0.24414,0 z m 18.22265,0.77929 c -1.71876,-0.0988 -3.77985,0.69249 -6.9414,2.32813 -17.53519,9.0718 -44.21097,9.86548 -63.029304,1.875 -7.29746,-3.0986 -10.58341,-2.69258 -12.794922,1.58398 -4.547526,8.79394 1.676902,18.39079 21.945316,33.83789 22.9308,17.47621 27.47131,18.89179 40.52344,12.63672 13.71046,-6.57057 27.30179,-18.09573 30.57422,-25.92773 3.16202,-7.56783 1.13555,-16.34405 -5.38672,-23.32617 -1.79396,-1.92044 -3.17187,-2.90904 -4.89063,-3.00782 z m -50.83984,0.0898 c -0.33291,0.002 -0.66129,0.0194 -0.98242,0.0547 -0.73403,0.0808 -1.42901,0.25274 -2.04883,0.53515 -1.32638,0.60434 -2.41211,1.74615 -2.41211,2.53711 0,2.73902 9.73482,4.70063 13,2.61914 3.40967,-2.17359 -2.56304,-5.77079 -7.55664,-5.74609 z m -88.318364,25.73242 c -0.923753,0 -3.883859,1.93971 -6.578125,4.31055 -4.949898,4.35566 -5.441555,6.68945 -1.410156,6.68945 3.133306,0 7.63197,5.17482 8.345703,9.59961 1.706748,10.58094 6.60823,14.40039 18.478516,14.40039 6.273097,0 7.039062,0.20868 7.039062,1.91797 0,3.79851 1.14302,5.08203 4.529297,5.08203 2.063372,0 4.420604,-0.92953 6.238281,-2.45898 3.95713,-3.32971 7.963311,-12.64445 9.392578,-21.8379 0.930579,-5.9857 0.918342,-7.90408 -0.0625,-9.08593 -1.688801,-2.03489 -3.642974,-1.1344 -9.980468,4.60351 -15.871181,14.36968 -32.117188,13.5061 -32.117188,-1.70703 0,-6.57528 -1.662058,-11.51367 -3.875,-11.51367 z"
       transform="matrix(1.2701667,0,0,1.2701667,23.216706,-23.325863)" />
    <path
       id="path19711"
       style="display:inline;fill:#f6f6e1;stroke-width:1.27017"
       d="m 197.3989,32.525852 c -6.73036,-0.01985 -8.78785,1.20779 -7.52921,4.487756 1.05991,2.762082 15.82023,2.594885 16.88925,-0.19102 1.12243,-2.925014 -1.82001,-4.274495 -9.36004,-4.296736 z m -26.85708,0.116601 c -0.38089,-0.0063 -0.7785,0.01039 -1.18829,0.04714 -5.73728,0.514313 -13.84454,5.031949 -12.33948,7.467192 1.162,1.880153 8.7947,0.55755 13.95447,-2.418775 4.29116,-2.475283 4.54492,-4.398793 0.66237,-5.006243 -0.344,-0.05381 -0.70819,-0.08304 -1.08907,-0.08931 z m 51.70224,9.139246 c -0.14155,-0.0011 -0.27661,0.0056 -0.40437,0.02233 -0.27255,0.03573 -0.51362,0.11402 -0.71448,0.238157 -2.61941,1.61888 -1.05203,4.267005 4.77802,8.079948 6.25445,4.090498 8.56957,4.768653 9.75199,2.855395 1.68752,-2.730454 -9.02319,-11.158955 -13.41116,-11.195827 z m -79.18449,2.267447 c -0.88889,0.03753 -2.03406,0.537384 -3.28705,1.515765 -8.04547,6.282235 -9.043,7.373979 -8.36276,9.146688 1.09956,2.865376 2.98774,2.377207 8.50169,-2.200464 2.73479,-2.270418 4.98373,-5.128301 4.99632,-6.350833 0.0132,-1.282485 -0.55468,-1.991164 -1.48352,-2.098753 -0.1161,-0.01345 -0.23769,-0.01777 -0.36468,-0.01244 z m 101.3628,20.352437 c -0.0567,0.0014 -0.11313,0.0055 -0.16869,0.01244 -0.59272,0.07446 -1.11726,0.463785 -1.56043,1.180852 -1.30307,2.108425 1.6987,9.630101 5.42798,13.599721 2.32659,2.476525 2.9837,2.642738 4.49023,1.136206 1.50654,-1.506543 1.27692,-2.72904 -1.56786,-8.342911 -2.54138,-5.015185 -4.86211,-7.630784 -6.62123,-7.586273 z m -122.54382,1.156046 c -0.0768,0.0023 -0.15548,0.008 -0.23815,0.01735 -0.37798,0.04406 -0.81909,0.160139 -1.31978,0.352277 -3.79903,1.457821 -9.60087,14.505021 -7.42007,16.685822 1.9642,1.964199 4.08763,-0.04258 7.65325,-7.236477 3.2657,-6.588761 3.7058,-9.898964 1.32475,-9.818985 z m 131.6508,24.740965 c -2.1773,0 -2.5958,0.976751 -2.92982,6.834588 -0.2143,3.758978 -0.0893,7.617108 0.27786,8.573618 1.07019,2.78888 4.44223,2.00523 5.25185,-1.22055 0.40854,-1.62786 0.56296,-5.485998 0.34234,-8.573628 -0.33105,-4.633372 -0.84557,-5.614028 -2.94223,-5.614028 z m -142.35791,3.386278 c -0.0863,0.005 -0.17397,0.0154 -0.26297,0.0322 -1.43095,0.27099 -2.31749,1.86598 -2.58498,4.65149 -0.74045,7.710348 2.3577,10.615048 5.04097,4.725928 1.8385,-4.035078 0.48259,-9.558668 -2.19302,-9.409668 z m 141.69803,18.841638 c -2.12097,0 -2.51553,0.86526 -2.51553,5.50488 0,3.02723 0.40072,5.90314 0.8906,6.39301 1.75167,1.75165 4.83159,0.0905 5.24688,-2.83058 0.71888,-5.0566 -0.88277,-9.06731 -3.62195,-9.06731 z m -141.58391,1.12628 c -0.97883,0.0382 -1.88008,0.74535 -2.44607,2.22032 -1.15118,2.99994 0.51315,10.87768 2.86532,13.56746 1.92041,2.19606 2.0955,2.19929 3.64925,0.0744 0.89771,-1.2277 1.62882,-3.12337 1.62491,-4.21239 -0.005,-1.089 -0.60216,-4.12308 -1.3297,-6.74279 -0.88287,-3.17906 -2.73234,-4.97078 -4.36371,-4.90702 z m 138.51516,20.46656 c -2.07595,0 -7.50374,12.27242 -6.53937,14.78552 1.2223,3.18533 5.40878,-0.28091 7.75248,-6.41781 2.18635,-5.72483 1.80334,-8.36771 -1.21311,-8.36771 z m -131.0703,7.621 c -3.33014,0 -3.26218,3.57064 0.17862,9.4419 3.38856,5.78215 8.23872,8.02059 8.23872,3.80305 0,-3.16673 -6.40506,-13.24495 -8.41734,-13.24495 z m 117.999,20.12668 c -1.34911,-0.0406 -3.62303,1.05807 -6.45999,3.68894 -2.07162,1.92113 -4.69866,4.24247 -5.8398,5.15758 -1.14112,0.91512 -1.74301,2.20116 -1.33713,2.85787 1.58952,2.57189 6.19869,0.96334 11.00231,-3.84027 4.56405,-4.56405 4.88311,-7.79627 2.63461,-7.86412 z m -99.92145,5.27665 c -3.52536,0 -2.30246,5.30563 2.08884,9.06483 4.91868,4.21067 9.84379,4.81251 9.84379,1.20318 0,-2.72211 -8.76942,-10.26801 -11.93263,-10.26801 z m -18.32067,4.18759 c -3.42037,0.1472 -7.96744,2.20912 -15.49752,6.62371 -11.418487,6.69418 -15.204702,7.05195 -24.468084,2.30963 -8.160031,-4.17751 -16.430487,-4.5149 -22.585142,-0.92038 -5.139537,3.00165 -12.619807,12.39262 -12.619807,15.84235 0,3.22127 1.574333,3.0805 5.93654,-0.53089 4.831204,-3.99967 11.894368,-6.37852 13.671657,-4.60434 0.77499,0.77363 1.620153,9.62783 1.984633,20.78159 0.645182,19.74343 1.086205,21.53709 6.350835,25.81268 2.993074,2.43077 8.94082,1.874 16.221922,-1.51577 13.924866,-6.48281 26.952886,-22.27007 35.031296,-42.45384 5.46,-13.6417 5.65043,-16.47871 1.31483,-19.63797 -1.64118,-1.19586 -3.28894,-1.79511 -5.34116,-1.70677 z m 92.56838,9.02017 c -3.37792,0.0688 -11.82686,2.09331 -13.26481,3.39124 -0.6167,0.55667 -0.7489,1.98073 -0.29521,3.16301 0.66813,1.74113 1.81621,1.99075 6.04322,1.31482 2.87024,-0.45896 6.28898,-1.40775 7.59866,-2.10868 2.53785,-1.35819 3.16881,-4.36001 1.1759,-5.5917 -0.17187,-0.10617 -0.49963,-0.15984 -0.94767,-0.16869 -0.0981,-0.002 -0.20113,-0.002 -0.31009,0 z m 23.1458,0.98982 c -2.18311,-0.12549 -4.80103,0.87958 -8.81673,2.95712 -22.27263,11.52271 -56.15528,12.53082 -80.05773,2.38155 -9.269,-3.93573 -13.4427,-3.42003 -16.25168,2.01193 -5.77612,11.16979 2.12992,23.35935 27.87421,42.97976 29.12597,22.19772 34.89313,23.99572 51.47153,16.05074 17.41459,-8.34573 34.67782,-22.98458 38.83435,-32.93254 4.01631,-9.61241 1.44235,-20.75965 -6.84203,-29.62812 -2.27863,-2.43929 -4.0288,-3.69497 -6.21192,-3.82044 z m -64.57507,0.11404 c -0.42285,0.002 -0.83994,0.0247 -1.24784,0.0695 -0.93234,0.10262 -1.81507,0.32102 -2.60236,0.67972 -1.68472,0.76762 -3.06377,2.2179 -3.06377,3.22256 0,3.47901 12.36484,5.97058 16.51217,3.32674 4.33084,-2.76082 -3.25548,-7.32986 -9.5982,-7.29849 z" />
    <path
       id="path19713"
       style="display:inline;fill:#ce9e9a;stroke-width:1.27017"
       d="m 65.433034,178.39408 c -2.834556,-0.0866 -2.798323,2.64925 1.401644,7.10252 2.433487,2.58025 4.429239,5.64939 4.433177,6.82218 0.0161,4.8579 2.913644,12.00491 6.544343,16.14005 4.153162,4.7302 9.38085,6.12697 8.189095,2.18806 -0.369892,-1.22253 -1.244404,-5.85581 -1.942463,-10.29529 -1.402249,-8.91797 -5.353958,-15.29249 -11.99216,-19.34027 -2.875561,-1.75345 -5.148875,-2.57184 -6.633636,-2.61725 z m 4.539846,30.6651 c -1.824711,0 -1.536681,14.39943 0.334914,16.74536 0.873233,1.09456 2.730855,2.64046 4.128036,3.43343 1.39718,0.79296 4.188824,1.14713 6.204474,0.78889 4.71744,-0.83848 12.462841,-5.61109 11.890446,-7.32826 -0.242618,-0.72787 -3.250841,-2.03846 -6.683261,-2.90997 -4.317639,-1.0963 -7.532418,-2.99362 -10.431746,-6.15734 -2.304901,-2.5151 -4.753674,-4.57211 -5.442863,-4.57211 z m -12.525525,5.08067 c -1.173319,0 -4.933152,2.46376 -8.355319,5.47512 -6.287203,5.53242 -6.911688,8.49672 -1.791133,8.49672 3.979821,0 9.693876,6.57288 10.600432,12.1931 2.167855,13.43957 8.393539,18.2909 23.470796,18.2909 7.967893,0 8.940786,0.26505 8.940786,2.43614 0,4.82476 1.451816,6.45502 5.752959,6.45502 2.620831,0 5.614894,-1.18064 7.923664,-3.12331 5.02622,-4.22928 10.11473,-16.06056 11.93014,-27.73778 1.18199,-7.60285 1.16644,-10.0395 -0.0793,-11.54064 -2.14506,-2.58466 -4.62718,-1.44089 -12.67686,5.84723 -20.159075,18.2519 -40.794185,17.15501 -40.794185,-2.16822 0,-8.35171 -2.111085,-14.62428 -4.921896,-14.62428 z" />
  </g>
</svg>
