<?xml version="1.0" encoding="UTF-8" standalone="no"?>
<!-- Created with Inkscape (http://www.inkscape.org/) -->

<svg
   version="1.1"
   id="svg31207"
   width="300"
   height="300"
   viewBox="0 0 300 300"
   sodipodi:docname="ticket_fortune.svg"
   inkscape:version="1.2.2 (732a01da63, 2022-12-09)"
   xmlns:inkscape="http://www.inkscape.org/namespaces/inkscape"
   xmlns:sodipodi="http://sodipodi.sourceforge.net/DTD/sodipodi-0.dtd"
   xmlns="http://www.w3.org/2000/svg"
   xmlns:svg="http://www.w3.org/2000/svg">
  <defs
     id="defs31211">
    <filter
       inkscape:collect="always"
       style="color-interpolation-filters:sRGB"
       id="filter31756"
       x="-0.0155952"
       y="-0.0155952"
       width="1.0311904"
       height="1.0311904">
      <feGaussianBlur
         inkscape:collect="always"
         stdDeviation="1.9494"
         id="feGaussianBlur31758" />
    </filter>
    <filter
       inkscape:collect="always"
       style="color-interpolation-filters:sRGB"
       id="filter31760"
       x="-0.071574913"
       y="-0.045951872"
       width="1.1429356"
       height="1.0912152">
      <feGaussianBlur
         inkscape:collect="always"
         stdDeviation="1.9494"
         id="feGaussianBlur31762" />
    </filter>
  </defs>
  <sodipodi:namedview
     id="namedview31209"
     pagecolor="#ffffff"
     bordercolor="#000000"
     borderopacity="0.25"
     inkscape:showpageshadow="2"
     inkscape:pageopacity="0.0"
     inkscape:pagecheckerboard="0"
     inkscape:deskcolor="#d1d1d1"
     showgrid="false"
     inkscape:zoom="1.1808683"
     inkscape:cx="-222.29405"
     inkscape:cy="57.584744"
     inkscape:window-width="2560"
     inkscape:window-height="1369"
     inkscape:window-x="1912"
     inkscape:window-y="-8"
     inkscape:window-maximized="1"
     inkscape:current-layer="g31213" />
  <g
     inkscape:groupmode="layer"
     inkscape:label="Image"
     id="g31213">
    <rect
       style="display:none;fill:#f6f6e1;fill-opacity:0.950581;stroke-width:139.98;filter:url(#filter31756)"
       id="rect31751"
       width="300"
       height="300"
       x="0"
       y="0" />
    <path
       style="display:inline;fill:none;fill-opacity:0.950581;filter:url(#filter31760);stroke:#753f4b;stroke-width:12.3;stroke-dasharray:none"
       d="M 89,269.33142 C 80.022871,266.27509 76.085665,261.96833 74.527035,253.5 72.064384,240.11995 69.966345,88.610835 71.937532,66.5 72.574956,59.35 73.609979,51.475 74.237584,49 c 1.601507,-6.315653 5.797929,-13.096055 9.762535,-15.773892 3.202789,-2.163279 4.143651,-2.260569 19.341351,-2 l 12.43622,0.213222 c 3.72614,-0.04817 3.85581,0.93938 5.13044,4.469968 2.2344,6.189032 9.12187,13.4671 15.88926,16.790338 5.00545,2.458012 6.74176,2.781979 14.20261,2.64998 6.88674,-0.121842 9.46908,-0.631034 13.60591,-2.682853 5.29174,-2.624642 11.93138,-9.280455 14.25149,-14.286199 C 182.89987,29.658695 181.22503,30.5 194.54576,30.5 c 9.38361,0 12.70688,0.376231 15.45424,1.749589 5.31492,2.656833 8.54059,5.793041 11.00953,10.704161 2.51237,4.997511 2.50931,-0.412671 0.0702,124.04625 -1.66513,84.96784 -1.99647,93.07956 -3.9417,96.5 -2.93426,5.15955 -7.11256,6.49669 -20.30629,6.49845 -12.55655,0.002 -14.38264,0.17242 -14.70075,-2.1445 -0.10893,-0.79336 -1.54883,-4.91978 -3.28175,-8.51288 -6.69564,-13.88296 -22.78688,-21.22131 -37.04524,-16.89433 -6.18861,1.87806 -8.20238,3.01493 -12.97016,7.32234 -4.04769,3.65684 -7.95734,10.28713 -9.27007,15.7209 -0.39728,1.64449 -1.24916,3.3251 -1.89305,3.73469 C 116.37476,270.04904 91.381153,270.1421 89,269.33142 Z M 174.87777,178.25 c 14.50759,-14.95926 14.114,-14.12825 14.11849,-29.80977 l 0.003,-10.8561 c 0.0393,-1.82376 -0.17991,-2.41559 -1.29789,-3.72756 l -3.33727,-3.91634 c -8.90181,-10.44642 -18.8889,-20.19947 -22.08205,-21.56456 -2.17257,-0.92879 -7.37009,-1.37446 -16,-1.37193 -10.7025,0.003 -13.27021,0.30568 -15.78212,1.85959 -4.04544,2.50257 -22.46105,21.67876 -24.69245,24.08079 -0.60373,0.6499 -0.40449,5.12818 -0.35113,13.38772 0.0612,9.4786 0.45817,16.12199 1.28897,18.63475 0.8308,2.51276 4.94256,5.50588 11.76407,12.4358 l 10.04436,10.20421 c 0.8492,0.88224 1.93137,1.3934 3.73734,1.3934 h 14.89758 15.26422 c 1.7521,0.008 2.22166,-0.22947 3.41165,-1.45651 z M 143.15839,167.61685 C 134.9466,161.55839 125,151.67329 125,149.57075 125,146.31579 143.8885,128 147.24523,128 c 1.75443,0 5.42459,2.5862 12.02214,8.47146 5.22321,4.65931 9.78755,9.22926 10.14296,10.15546 0.84805,2.20998 -3.00123,7.69159 -11.54596,16.44218 -7.54702,7.72883 -9.55332,8.34927 -14.70598,4.54775 z"
       id="path31697"
       sodipodi:nodetypes="ssssssccsssssssssssssssssscccsscssszccccccssssssss" />
    <path
       style="display:inline;fill:#f6f6e1;fill-opacity:0.950581"
       d="M 89,269.33142 C 80.022871,266.27509 76.085665,261.96833 74.527035,253.5 72.064384,240.11995 69.966345,88.610835 71.937532,66.5 72.574956,59.35 73.609979,51.475 74.237584,49 c 1.601507,-6.315653 5.797929,-13.096055 9.762535,-15.773892 3.202789,-2.163279 4.143651,-2.260569 19.341351,-2 l 12.43622,0.213222 c 3.72614,-0.04817 3.85581,0.93938 5.13044,4.469968 2.2344,6.189032 9.12187,13.4671 15.88926,16.790338 5.00545,2.458012 6.74176,2.781979 14.20261,2.64998 6.88674,-0.121842 9.46908,-0.631034 13.60591,-2.682853 5.29174,-2.624642 11.93138,-9.280455 14.25149,-14.286199 C 182.89987,29.658695 181.22503,30.5 194.54576,30.5 c 9.38361,0 12.70688,0.376231 15.45424,1.749589 5.31492,2.656833 8.54059,5.793041 11.00953,10.704161 2.51237,4.997511 2.50931,-0.412671 0.0702,124.04625 -1.66513,84.96784 -1.99647,93.07956 -3.9417,96.5 -2.93426,5.15955 -7.11256,6.49669 -20.30629,6.49845 -12.55655,0.002 -14.38264,0.17242 -14.70075,-2.1445 -0.10893,-0.79336 -1.54883,-4.91978 -3.28175,-8.51288 -6.69564,-13.88296 -22.78688,-21.22131 -37.04524,-16.89433 -6.18861,1.87806 -8.20238,3.01493 -12.97016,7.32234 -4.04769,3.65684 -7.95734,10.28713 -9.27007,15.7209 -0.39728,1.64449 -1.24916,3.3251 -1.89305,3.73469 C 116.37476,270.04904 91.381153,270.1421 89,269.33142 Z M 174.87777,178.25 c 14.50759,-14.95926 14.114,-14.12825 14.11849,-29.80977 l 0.003,-10.8561 c 0.0393,-1.82376 -0.17991,-2.41559 -1.29789,-3.72756 l -3.33727,-3.91634 c -8.90181,-10.44642 -18.8889,-20.19947 -22.08205,-21.56456 -2.17257,-0.92879 -7.37009,-1.37446 -16,-1.37193 -10.7025,0.003 -13.27021,0.30568 -15.78212,1.85959 -4.04544,2.50257 -22.46105,21.67876 -24.69245,24.08079 -0.60373,0.6499 -0.40449,5.12818 -0.35113,13.38772 0.0612,9.4786 0.45817,16.12199 1.28897,18.63475 0.8308,2.51276 4.94256,5.50588 11.76407,12.4358 l 10.04436,10.20421 c 0.8492,0.88224 1.93137,1.3934 3.73734,1.3934 h 14.89758 15.26422 c 1.7521,0.008 2.22166,-0.22947 3.41165,-1.45651 z M 143.15839,167.61685 C 134.9466,161.55839 125,151.67329 125,149.57075 125,146.31579 143.8885,128 147.24523,128 c 1.75443,0 5.42459,2.5862 12.02214,8.47146 5.22321,4.65931 9.78755,9.22926 10.14296,10.15546 0.84805,2.20998 -3.00123,7.69159 -11.54596,16.44218 -7.54702,7.72883 -9.55332,8.34927 -14.70598,4.54775 z"
       id="path31754"
       sodipodi:nodetypes="ssssssccsssssssssssssssssscccsscssszccccccssssssss" />
  </g>
</svg>
