<?xml version="1.0" encoding="UTF-8" standalone="no"?>
<!-- Created with Inkscape (http://www.inkscape.org/) -->

<svg
   version="1.1"
   id="svg1099"
   width="300"
   height="300"
   viewBox="0 0 300 300"
   sodipodi:docname="cup.svg"
   inkscape:version="1.2.2 (732a01da63, 2022-12-09)"
   xmlns:inkscape="http://www.inkscape.org/namespaces/inkscape"
   xmlns:sodipodi="http://sodipodi.sourceforge.net/DTD/sodipodi-0.dtd"
   xmlns="http://www.w3.org/2000/svg"
   xmlns:svg="http://www.w3.org/2000/svg">
  <defs
     id="defs1103" />
  <sodipodi:namedview
     id="namedview1101"
     pagecolor="#ffffff"
     bordercolor="#000000"
     borderopacity="0.25"
     inkscape:showpageshadow="2"
     inkscape:pageopacity="0.0"
     inkscape:pagecheckerboard="0"
     inkscape:deskcolor="#d1d1d1"
     showgrid="false"
     inkscape:zoom="2.3617366"
     inkscape:cx="171.69569"
     inkscape:cy="145.65553"
     inkscape:window-width="1920"
     inkscape:window-height="1009"
     inkscape:window-x="4472"
     inkscape:window-y="352"
     inkscape:window-maximized="1"
     inkscape:current-layer="g1105" />
  <g
     inkscape:groupmode="layer"
     inkscape:label="Image"
     id="g1105">
    <path
       style="fill:#000000;stroke-width:4.48536"
       d="M 87.263681,220.87329 C 61.46736,207.2319 46.563119,179.43776 46.248157,144.38566 c -0.139046,-15.50102 2.448426,-29.10777 6.798109,-35.74629 8.903853,-13.589001 37.042881,-20.910193 80.241744,-20.877225 43.06318,0.0314 65.6914,6.456951 70.88796,20.124845 3.70003,9.7319 5.20424,10.20205 17.63215,5.51103 19.18203,-7.24041 37.87348,6.62283 39.8287,29.54053 2.03057,23.80101 -5.73772,33.99337 -36.56043,47.96909 -10.43633,4.73203 -20.84595,7.26921 -28.19272,12.32486 -3.35383,2.30792 -6.48834,7.9897 -7.95547,9.61086 -18.47626,20.4161 -70.47526,24.5232 -101.664519,8.02993 z M 231.78129,167.9894 c 9.96271,-7.09405 12.93566,-12.4141 11.90582,-21.30548 -3.13711,-27.08569 -35.01276,-10.42314 -35.01276,18.30244 0,14.92093 5.3867,15.621 23.10694,3.00304 z M 176.37326,117.45351 C 194.54482,106.21323 146.84162,93.891216 106.0853,99.297741 76.133292,103.27101 69.187884,108.23707 80.841445,117.34752 c 7.035923,5.5005 17.677362,6.65678 49.339015,5.36096 22.20256,-0.90865 42.98931,-3.27338 46.1928,-5.25497 z"
       id="path15725"
       sodipodi:nodetypes="sccccsscsssscsscsscc" />
  </g>
</svg>
