<?xml version="1.0" encoding="UTF-8" standalone="no"?>
<!-- Created with Inkscape (http://www.inkscape.org/) -->

<svg
   version="1.1"
   id="svg2"
   width="300"
   height="300"
   viewBox="0 0 300 300"
   xmlns="http://www.w3.org/2000/svg"
   xmlns:svg="http://www.w3.org/2000/svg">
  <defs
     id="defs6">
    <filter
       style="color-interpolation-filters:sRGB"
       id="filter999"
       x="-0.036695616"
       y="-0.028728195"
       width="1.0730323"
       height="1.0588183">
      <feGaussianBlur
         stdDeviation="1.212926"
         id="feGaussianBlur1001" />
    </filter>
  </defs>
  <g
     id="g8">
    <path
       style="fill:none;fill-opacity:0.495751;stroke:#753f4b;filter:url(#filter999);stroke-width:10;stroke-dasharray:none"
       d="m 41.398262,287.29757 c 1.865967,-5.95527 12.231267,-40.10261 14.20523,-46.79757 1.29731,-4.4 4.113971,-13.85 6.259248,-21 2.145277,-7.15 5.035737,-16.825 6.423244,-21.5 2.357697,-7.94391 12.1319,-40.40619 18.667839,-62 1.581484,-5.225 4.294024,-14.225 6.027865,-20 1.733842,-5.775 4.670147,-15.45 6.525122,-21.5 5.23344,-17.068869 5.78922,-19.603971 4.56599,-20.827204 -1.64623,-1.646224 -1.28568,-3.817296 1.04614,-6.299405 2.11895,-2.255511 2.11895,-2.255511 0.022,-4.921324 -2.53569,-3.223599 -3.17523,-1.846079 10.49261,-22.600028 11.18598,-16.985361 12.97279,-19.213353 14.60155,-18.206729 1.10871,0.68522 0.36753,42.620636 -0.80741,45.682468 -0.31483,0.82045 -1.69813,1.77426 -3.07398,2.119578 -2.19002,0.549659 -2.46122,1.090184 -2.17764,4.340247 0.26766,3.067698 -0.0703,3.885327 -1.9462,4.708185 -2.04565,0.897326 -4.13577,5.046301 -6.65739,13.215162 -0.66636,2.1587 -0.45077,2.129673 9.12251,-1.228298 15.73762,-5.520206 15.94902,-5.474006 35.99062,7.865542 18.61209,12.388076 18.67383,12.431446 35.16621,24.704296 11.25903,8.37845 11.43598,8.57422 21.64496,23.94751 5.66122,8.525 12.80031,19.1 15.86463,23.5 3.06433,4.4 5.58659,8.79864 5.60504,9.77475 0.041,2.17203 -2.03341,2.9941 -15.76238,6.24636 -18.21268,4.3144 -27.32162,5.72926 -37.70409,5.85642 -11.65293,0.14271 -8.92338,1.26469 -38.5,-15.82534 -25.16131,-14.53876 -30.65139,-18.0719 -32.42912,-20.86971 -0.76272,-1.20036 -2.1632,-5.78248 -3.11219,-10.18248 -0.94899,-4.4 -2.62476,-10.925 -3.72393,-14.5 l -1.99849,-6.5 -5.26707,16.5 c -2.896884,9.075 -7.151903,22.575 -9.455595,30 -2.303693,7.425 -5.462216,17.55 -7.018941,22.5 -1.556726,4.95 -4.930856,15.975 -7.498068,24.5 -2.567212,8.525 -5.503703,17.975 -6.525535,21 -1.021832,3.025 -4.32857,13.6 -7.348308,23.5 -5.177192,16.97306 -7.711378,25.42092 -8.614922,26.04848 -0.757847,0.52635 -3.194782,0.23874 -6.437272,0.24909 -6.101249,0.0195 -6.681997,0.12672 -6.172297,-1.5 z M 164.77749,175.4433 C 168.66019,172.72375 166.65592,165 162.06752,165 c -5.10551,0 -7.86367,6.35779 -4.41253,10.17126 2.02576,2.23844 4.19669,2.32136 7.1225,0.27204 z m 14.18707,-17.54993 c 4.47448,-1.70864 9.40918,-4.17841 10.96598,-5.48837 6.04939,-5.09024 7.7281,-13.68153 3.97732,-20.35515 -5.85543,-10.41834 -20.86833,-12.27203 -27.81956,-3.43497 -2.70708,3.44149 -2.65489,6.87486 0.13421,8.82842 3.06605,2.14755 3.95377,1.99276 8.27749,-1.4433 2.07626,-1.65 4.61313,-3 5.6375,-3 2.77131,0 5.8625,3.60926 5.8625,6.84501 0,3.92005 -2.78073,6.11969 -12.34274,9.76345 -6.4618,2.46238 -8.3489,3.64508 -9.07929,5.69025 -1.13207,3.16993 0.62573,5.70129 3.95904,5.70129 1.26066,0 5.95306,-1.39798 10.42755,-3.10663 z M 121.71744,134.2415 c 8.90955,-21.43733 12.4407,-29.62007 14.74143,-34.16034 1.38668,-2.73648 2.13398,-5.214761 1.66066,-5.507289 -2.40087,-1.483818 -19.75469,4.991509 -25.51013,9.518729 -3.12144,2.45533 -3.16476,3.34906 -0.68242,14.07844 1.05984,4.58093 2.68001,11.81646 3.60038,16.07896 0.92037,4.2625 1.58201,7.69325 2.32302,7.7415 0.91303,-0.0315 2.09747,-3.49217 3.86706,-7.75 z M 171,204.12626 c -3.98054,-1.32363 -13.83703,-6.49289 -27.15608,-14.24205 -22.18004,-12.90457 -25.80998,-14.75141 -28.82526,-14.66568 -5.64928,0.16062 -7.449,-3.55188 -4.49298,-9.26819 1.79115,-3.46369 4.98154,-3.88361 8.58946,-1.13054 5.87844,4.48561 33.74937,20.74775 47.25261,27.57096 7.93137,4.00774 8.36691,4.10567 17.63225,3.96463 5.225,-0.0795 12.425,-0.66094 16,-1.292 13.00648,-2.29593 43.93323,-10.66329 45.60989,-12.33994 1.42199,-1.422 -33.01167,-50.13303 -39.52315,-55.9108 -5.963,-5.29109 -28.68438,-21.52596 -53.32883,-38.104483 -8.49866,-5.717123 -9.09056,-7.010091 -5.73137,-12.519825 1.71074,-2.805965 2.5114,-3.264068 5.24332,-3 2.51858,0.243447 3.56149,1.028846 4.76506,3.588495 0.85439,1.817051 3.9741,4.968073 7.00294,7.073215 50.10669,34.825868 48.60546,33.481998 65.56172,58.689358 7.75477,11.52833 17.54227,25.77202 21.75,31.65266 4.20773,5.88064 7.66913,10.43475 7.65042,11.61725 -0.0341,2.15627 -30.73489,12.10924 -48.75465,15.78793 -13.3042,2.71603 -34.56313,4.08597 -39.24535,2.52901 z"
       id="path239" />
    <rect
       style="fill:#753f4b;fill-opacity:1;stroke:none;stroke-width:10;stroke-dasharray:none"
       id="rect1055"
       width="29.850916"
       height="33.238255"
       x="159.6283"
       y="120.67391" />
    <path
       style="fill:#f6f6e1;fill-opacity:1"
       d="m 41.398262,287.29757 c 1.865967,-5.95527 12.231267,-40.10261 14.20523,-46.79757 1.29731,-4.4 4.113971,-13.85 6.259248,-21 2.145277,-7.15 5.035737,-16.825 6.423244,-21.5 2.357697,-7.94391 12.1319,-40.40619 18.667839,-62 1.581484,-5.225 4.294024,-14.225 6.027865,-20 1.733842,-5.775 4.670147,-15.45 6.525122,-21.5 5.23344,-17.068869 5.78922,-19.603971 4.56599,-20.827204 -1.64623,-1.646224 -1.28568,-3.817296 1.04614,-6.299405 2.11895,-2.255511 2.11895,-2.255511 0.022,-4.921324 -2.53569,-3.223599 -3.17523,-1.846079 10.49261,-22.600028 11.18598,-16.985361 12.97279,-19.213353 14.60155,-18.206729 1.10871,0.68522 0.36753,42.620636 -0.80741,45.682468 -0.31483,0.82045 -1.69813,1.77426 -3.07398,2.119578 -2.19002,0.549659 -2.46122,1.090184 -2.17764,4.340247 0.26766,3.067698 -0.0703,3.885327 -1.9462,4.708185 -2.04565,0.897326 -4.13577,5.046301 -6.65739,13.215162 -0.66636,2.1587 -0.45077,2.129673 9.12251,-1.228298 15.73762,-5.520206 15.94902,-5.474006 35.99062,7.865542 18.61209,12.388076 18.67383,12.431446 35.16621,24.704296 11.25903,8.37845 11.43598,8.57422 21.64496,23.94751 5.66122,8.525 12.80031,19.1 15.86463,23.5 3.06433,4.4 5.58659,8.79864 5.60504,9.77475 0.041,2.17203 -2.03341,2.9941 -15.76238,6.24636 -18.21268,4.3144 -27.32162,5.72926 -37.70409,5.85642 -11.65293,0.14271 -8.92338,1.26469 -38.5,-15.82534 -25.16131,-14.53876 -30.65139,-18.0719 -32.42912,-20.86971 -0.76272,-1.20036 -2.1632,-5.78248 -3.11219,-10.18248 -0.94899,-4.4 -2.62476,-10.925 -3.72393,-14.5 l -1.99849,-6.5 -5.26707,16.5 c -2.896884,9.075 -7.151903,22.575 -9.455595,30 -2.303693,7.425 -5.462216,17.55 -7.018941,22.5 -1.556726,4.95 -4.930856,15.975 -7.498068,24.5 -2.567212,8.525 -5.503703,17.975 -6.525535,21 -1.021832,3.025 -4.32857,13.6 -7.348308,23.5 -5.177192,16.97306 -7.711378,25.42092 -8.614922,26.04848 -0.757847,0.52635 -3.194782,0.23874 -6.437272,0.24909 -6.101249,0.0195 -6.681997,0.12672 -6.172297,-1.5 z M 121.71744,134.2415 c 8.90955,-21.43733 12.4407,-29.62007 14.74143,-34.16034 1.38668,-2.73648 2.13398,-5.214761 1.66066,-5.507289 -2.40087,-1.483818 -19.75469,4.991509 -25.51013,9.518729 -3.12144,2.45533 -3.16476,3.34906 -0.68242,14.07844 1.05984,4.58093 2.68001,11.81646 3.60038,16.07896 0.92037,4.2625 1.58201,7.69325 2.32302,7.7415 0.91303,-0.0315 2.09747,-3.49217 3.86706,-7.75 z M 171,204.12626 c -3.98054,-1.32363 -13.83703,-6.49289 -27.15608,-14.24205 -22.18004,-12.90457 -25.80998,-14.75141 -28.82526,-14.66568 -5.64928,0.16062 -7.449,-3.55188 -4.49298,-9.26819 1.79115,-3.46369 4.98154,-3.88361 8.58946,-1.13054 5.87844,4.48561 33.74937,20.74775 47.25261,27.57096 7.93137,4.00774 8.36691,4.10567 17.63225,3.96463 5.225,-0.0795 12.425,-0.66094 16,-1.292 13.00648,-2.29593 43.93323,-10.66329 45.60989,-12.33994 1.42199,-1.422 -33.01167,-50.13303 -39.52315,-55.9108 -5.963,-5.29109 -28.68438,-21.52596 -53.32883,-38.104483 -8.49866,-5.717123 -9.09056,-7.010091 -5.73137,-12.519825 1.71074,-2.805965 2.5114,-3.264068 5.24332,-3 2.51858,0.243447 3.56149,1.028846 4.76506,3.588495 0.85439,1.817051 3.9741,4.968073 7.00294,7.073215 50.10669,34.825868 48.60546,33.481998 65.56172,58.689358 7.75477,11.52833 17.54227,25.77202 21.75,31.65266 4.20773,5.88064 7.66913,10.43475 7.65042,11.61725 -0.0341,2.15627 -30.73489,12.10924 -48.75465,15.78793 -13.3042,2.71603 -34.56313,4.08597 -39.24535,2.52901 z"
       id="path997" />
  </g>
</svg>
