<?xml version="1.0" encoding="UTF-8" standalone="no"?>
<!-- Created with Inkscape (http://www.inkscape.org/) -->

<svg
   version="1.1"
   id="svg1099"
   width="300"
   height="300"
   viewBox="0 0 300 300"
   sodipodi:docname="shelf.svg"
   inkscape:version="1.2.2 (732a01da63, 2022-12-09)"
   xmlns:inkscape="http://www.inkscape.org/namespaces/inkscape"
   xmlns:sodipodi="http://sodipodi.sourceforge.net/DTD/sodipodi-0.dtd"
   xmlns="http://www.w3.org/2000/svg"
   xmlns:svg="http://www.w3.org/2000/svg">
  <defs
     id="defs1103" />
  <sodipodi:namedview
     id="namedview1101"
     pagecolor="#ffffff"
     bordercolor="#000000"
     borderopacity="0.25"
     inkscape:showpageshadow="2"
     inkscape:pageopacity="0.0"
     inkscape:pagecheckerboard="0"
     inkscape:deskcolor="#d1d1d1"
     showgrid="false"
     inkscape:zoom="2.3617366"
     inkscape:cx="171.69569"
     inkscape:cy="145.65553"
     inkscape:window-width="1920"
     inkscape:window-height="1009"
     inkscape:window-x="4472"
     inkscape:window-y="352"
     inkscape:window-maximized="1"
     inkscape:current-layer="g1105" />
  <g
     inkscape:groupmode="layer"
     inkscape:label="Image"
     id="g1105">
    <path
       id="path15713"
       style="fill:#000000;fill-opacity:1;stroke-width:3.8657"
       d="m 155.34588,43.853778 c -2.65299,0.0014 -5.61513,0.03479 -8.93944,0.09046 -23.64429,0.396428 -30.48646,1.96741 -37.56224,8.614792 -5.1887,4.874495 -16.914068,9.32469 -29.28721,11.113891 -28.350008,4.099421 -34.276475,11.513295 -23.347713,31.357285 2.218448,4.02822 6.159724,2.17287 7.271035,4.46589 4.957028,10.227684 4.416255,27.716424 7.461886,80.321504 2.249297,38.85029 5.141073,72.33697 6.42522,74.41474 1.766935,2.85896 6.830694,3.71718 11.967399,3.60879 11.867043,-0.2505 12.469863,-2.6661 12.589083,-6.44312 0.17821,-5.65007 7.23756,-3.64887 44.3641,-4.0676 21.71619,-0.24509 39.03964,1.2088 45.89472,3.11204 3.24487,0.90094 2.88177,3.00318 3.00485,3.84602 0.63939,4.3783 7.31472,3.71896 14.33097,3.71896 12.41187,0 12.76272,-0.44424 12.88063,-16.42923 0.0665,-9.03607 1.74273,-44.07676 3.72224,-77.87273 3.13706,-53.55867 4.61066,-62.52365 11.4763,-69.831764 4.33229,-4.61132 7.87486,-10.32301 7.87486,-12.69175 0,-9.5811 -12.54679,-16.45942 -30.02714,-16.45942 -14.22497,0 -20.14575,-2.170475 -29.0003,-10.630678 -8.95474,-8.555995 -12.52842,-10.247355 -31.09925,-10.238077 z m -10.38154,9.551026 c 1.71645,0 3.43275,1.499853 6.43276,4.499908 5.31407,5.314063 5.56557,7.469771 1.45722,12.420074 -2.73537,3.29593 -6.28451,5.99485 -7.88998,5.99485 -1.60546,0 -5.1546,-2.69892 -7.88997,-5.99485 -4.10839,-4.950303 -3.85685,-7.106011 1.45722,-12.420074 3.00001,-3.000055 4.71631,-4.499908 6.43275,-4.499908 z m -53.543282,38.259002 56.442562,0.98691 c 45.81849,0.80113 60.79062,2.26031 60.49973,5.8967 -0.21261,2.657674 -0.64751,34.404784 -0.96643,70.549044 l -0.58136,65.71692 H 149.41895 92.022368 L 89.500578,193.6195 C 88.114415,170.96437 86.978826,138.73822 86.978826,122.00589 V 94.880256 c -0.003,-2.53644 1.218624,-3.28028 4.442232,-3.21645 z m 57.408992,34.909944 c -46.15408,0 -50.25412,0.58075 -50.25412,7.08962 0,3.89794 1.157197,8.24686 2.57463,9.66425 3.2465,3.24669 37.78283,3.26938 71.84012,0.053 21.95297,-2.0734 26.54383,-0.0155 26.09348,-9.63413 -0.40571,-8.6642 -3.88275,-7.1727 -50.25411,-7.1727 z m -48.77043,54.23687 c -2.081753,2.51093 -1.664257,4.69721 -1.697696,7.13002 -0.03093,2.38022 -0.632428,6.13772 2.322396,7.51295 3.94398,1.83555 48.41752,0.70278 48.41752,0.70278 50.14031,0.29882 50.26254,0.61434 49.28769,-8.69783 -1.11634,-10.66392 -2.73239,-8.72836 -50.52591,-9.77751 0,0 -44.8806,-0.39651 -47.804,3.12959 z"
       sodipodi:nodetypes="sssssssssssssssssssssssssssscsscccccsccsscsssssssscs" />
  </g>
</svg>
