<?xml version="1.0" encoding="UTF-8" standalone="no"?>
<!-- Created with Inkscape (http://www.inkscape.org/) -->

<svg
   version="1.1"
   id="svg1099"
   width="300"
   height="300"
   viewBox="0 0 300 300"
   sodipodi:docname="cube.svg"
   inkscape:version="1.2.2 (732a01da63, 2022-12-09)"
   inkscape:export-filename="cube.png"
   inkscape:export-xdpi="96"
   inkscape:export-ydpi="96"
   xmlns:inkscape="http://www.inkscape.org/namespaces/inkscape"
   xmlns:sodipodi="http://sodipodi.sourceforge.net/DTD/sodipodi-0.dtd"
   xmlns="http://www.w3.org/2000/svg"
   xmlns:svg="http://www.w3.org/2000/svg">
  <defs
     id="defs1103">
    <filter
       inkscape:collect="always"
       style="color-interpolation-filters:sRGB"
       id="filter7577"
       x="-0.054230817"
       y="-0.053429506"
       width="1.1079027"
       height="1.1068702">
      <feGaussianBlur
         inkscape:collect="always"
         stdDeviation="1.7207758"
         id="feGaussianBlur7579" />
    </filter>
  </defs>
  <sodipodi:namedview
     id="namedview1101"
     pagecolor="#ffffff"
     bordercolor="#000000"
     borderopacity="0.25"
     inkscape:showpageshadow="2"
     inkscape:pageopacity="0.0"
     inkscape:pagecheckerboard="0"
     inkscape:deskcolor="#d1d1d1"
     showgrid="false"
     inkscape:zoom="2.3617366"
     inkscape:cx="131.04763"
     inkscape:cy="95.692295"
     inkscape:window-width="2560"
     inkscape:window-height="1369"
     inkscape:window-x="1912"
     inkscape:window-y="-8"
     inkscape:window-maximized="1"
     inkscape:current-layer="g1105" />
  <g
     inkscape:groupmode="layer"
     inkscape:label="Image"
     id="g1105">
    <path
       id="path6115"
       style="fill:none;fill-opacity:1;stroke:#753f4b;stroke-width:10.85746523;stroke-dasharray:none;filter:url(#filter7577)"
       d="m 164.42188,60.035156 c -2.56468,-0.0052 -6.20149,0.137728 -11.49024,0.345703 -16.62434,0.653741 -21.0403,1.368947 -22.43945,3.632813 -1.20227,1.945313 -0.88363,12.809791 0.42187,14.382812 0.67942,0.818654 2.66362,1.684469 4.41016,1.925782 7.17828,0.991797 35.58087,0.176917 36.8125,-1.056641 0.67825,-0.679311 1.39999,-3.829319 1.60351,-7 0.29418,-4.583343 -0.0667,-6.461141 -1.75781,-9.158203 -1.46232,-2.33223 -1.91828,-3.060771 -7.56054,-3.072266 z m -73.943364,3.404297 c -10.83508,0.052 -26.882908,1.107517 -28.0625,2.287109 -1.118883,1.118883 -1.412491,5.233132 -1.400391,19.595704 0.0084,9.998194 0.345922,18.672314 0.75,19.277344 0.404078,0.60503 1.409377,1.35782 2.234375,1.67187 3.070241,1.16873 13.847258,0.73717 15.177734,-0.60742 C 83.598757,101.19615 101.2447,78.445707 102.18555,76 c 1.34179,-3.487958 0.0883,-10.783952 -2.04883,-11.927734 -0.885423,-0.473864 -4.733168,-0.656448 -9.658204,-0.632813 z m 119.011714,0.458985 c -6.31959,-0.02279 -9.0687,0.122217 -10.37304,0.980468 -0.9567,0.6295 -1.17781,2.316453 -1.49024,3.798828 -0.4842,2.297403 -0.60684,5.222411 -0.27343,6.5 0.59352,2.274327 21.69889,29.597296 23.98632,31.052736 1.68932,1.07487 12.10015,0.93383 15.09571,-0.20508 2.56508,-0.97525 2.56445,-0.9767 2.56445,-19.390624 0,-12.596886 0.0897,-19.220998 -1.88086,-21.023438 -2.17617,-1.990512 -8.37536,-1.557047 -20.04102,-1.654297 -2.97839,-0.02483 -5.48135,-0.051 -7.58789,-0.05859 z M 185.11133,71 c -6.8509,0 -6.85031,4.55e-4 -7.36914,4.603516 -0.28536,2.531683 -1.2009,5.282918 -2.03321,6.115234 -2.29449,2.294499 -8.87282,3.195444 -23.20898,3.177734 -22.00646,-0.02719 -25.75967,-1.41668 -27.14062,-10.052734 -0.62637,-3.917119 -0.62679,-3.917841 -9.22852,-3.630859 -8.60172,0.286982 -8.60189,0.286372 -9.18945,3.916015 -0.39364,2.431681 -2.87295,6.521024 -7.513676,12.386719 -3.809836,4.815482 -8.3331,10.605935 -10.050781,12.869145 -5.819892,7.66824 -8.840099,9.85724 -14.330078,10.38476 C 70.000128,111.25446 70,111.25419 70,117.12695 70,122.71179 70.122284,123 72.480469,123 c 1.363868,0 4.247406,0.70769 6.408203,1.57227 5.996962,2.3995 6.611328,4.84096 6.611328,26.25976 0,18.33201 1.49e-4,18.33203 -3.265625,21.25 -1.796175,1.60488 -4.271178,2.92364 -5.5,2.93164 C 70.581701,175.05128 70,175.73953 70,182.98633 c 0,6.75331 -9.45e-4,6.75382 4.591797,7.27148 5.433833,0.61248 8.736455,3.48119 19.876953,17.27344 C 104.48803,219.9354 107,223.83274 107,226.97266 c 0,1.48157 0.29935,2.99456 0.66602,3.36132 0.36666,0.36667 4.14504,0.66602 8.39453,0.66602 8.58733,0 8.93945,-0.27494 8.93945,-6.9707 0,-6.03537 2.29623,-7.95359 11,-9.19141 8.52657,-1.21262 30.90451,-0.47649 35.61133,1.17188 3.74338,1.31096 5.38867,4.54058 5.38867,10.58007 0,4.49501 1e-5,4.49519 7.75,4.20313 3.95311,-0.14897 5.8811,-0.0741 6.90234,-0.65235 0.98089,-0.55536 1.12527,-1.72596 1.39258,-3.72851 0.43581,-3.26487 2.4696,-6.48498 10.09961,-16 C 218.18156,191.66014 220.11806,190 226.94922,190 c 3.06278,0 4.01181,-1.80354 4.03711,-7.66797 0.0212,-4.93086 -0.89498,-6.33203 -4.14258,-6.33203 -3.69361,0 -8.24714,-2.30991 -10.2832,-5.2168 -1.26205,-1.80185 -1.55969,-5.39096 -1.55469,-18.75586 0.007,-20.64679 0.70624,-23.54059 6.3125,-26.08593 2.29953,-1.04403 5.19414,-1.90783 6.43164,-1.91993 2.05794,-0.0201 2.69922,-0.46361 2.69922,-5.49414 0,-3.02499 -7.9e-4,-5.81875 -0.0879,-6.42773 -0.0615,-0.43044 -2.26013,-0.89224 -5.19141,-1.25 C 218.66767,110.05602 217.80695,109.30342 204.74609,93 194.66243,80.412921 193.6258,78.77554 192.55078,73.75 191.97853,71.074853 191.77575,71 185.11133,71 Z m -34.07227,21.048828 c 5.19607,0.09574 10.47395,0.775464 14.98047,2.023438 35.02916,9.700484 52.53052,50.125904 35.68359,82.427734 -1.89087,3.62552 -6.30991,9.18303 -11.16601,14.04297 -9.28385,9.2912 -16.77478,13.42902 -28.74414,15.87891 -9.6664,1.97851 -15.3751,1.90222 -24.44727,-0.32813 -11.14639,-2.74029 -17.90294,-6.6569 -26.89843,-15.59375 -8.8967,-8.83869 -13.276546,-16.42895 -15.898442,-27.55273 -7.115585,-30.18895 11.873312,-61.56995 42.003902,-69.417973 4.177,-1.087968 9.29027,-1.576214 14.48633,-1.480469 z m -16.95117,31.498052 c -4.18657,-0.0117 -8.44706,1.81229 -12.18359,5.54882 -4.28898,4.28898 -6.4836,11.66574 -5.53321,18.59961 1.4619,10.66569 13.1844,24.97038 26.77344,32.67188 3.49576,1.9812 7.08463,3.60919 7.97656,3.61719 3.03175,0.0288 16.35722,-9.59444 22.15039,-15.9961 13.21266,-14.60045 15.36007,-29.59111 5.63282,-39.31836 -3.85544,-3.85542 -3.97939,-3.89827 -10.32618,-3.49414 -5.86076,0.37319 -6.94902,0.82181 -12.39648,5.10156 -5.97166,4.69161 -5.97256,4.69136 -7.56836,2.25586 -3.88024,-5.922 -9.14266,-8.97126 -14.52539,-8.98632 z m -63.148437,4.95703 c -3.648669,-0.0204 -7.248975,0.40708 -8.138672,1.29492 -0.931656,0.92971 -1.395459,5.93434 -1.634765,17.63672 -0.364927,17.84527 0.539801,21.93365 5.072265,22.9082 4.265275,0.9171 12.917101,0.0209 13.837891,-1.43359 0.490955,-0.77555 0.899803,-9.56697 0.908203,-19.53711 0.01314,-15.55617 -0.214956,-18.32029 -1.615234,-19.48243 -1.083066,-0.89885 -4.781018,-1.36632 -8.429688,-1.38671 z m 158.232427,1.00195 c -3.8496,-0.003 -7.34573,0.33735 -7.76758,0.75781 -1.34769,1.34323 -2.25701,10.85825 -2.31641,24.23633 -0.0585,13.18432 0.23107,14.75092 2.91211,15.77148 0.825,0.31405 4.27954,0.607 7.67773,0.6504 9.35333,0.1195 9.32227,0.18756 9.32227,-20.30274 0,-21.22441 0.0566,-21.10428 -9.82812,-21.11328 z M 74.107422,194.03125 c -0.947267,-0.0201 -2.115151,0.0552 -3.671875,0.1543 C 60.789956,194.79974 61,194.32788 61,215.43164 c 0,13.00207 0.356334,18.6558 1.25,19.83594 0.821596,1.08497 3.134977,1.77418 6.75,2.00781 11.137006,0.71979 30.536345,0.67195 31.7168,-0.0781 0.669,-0.42511 1.50542,-3.23846 1.85937,-6.25 0.64354,-5.47557 0.6446,-5.47477 -8.050779,-16.46094 -4.782461,-6.04241 -10.758656,-13.17113 -13.279297,-15.8418 -3.43724,-3.64182 -4.296872,-4.55294 -7.138672,-4.61328 z m 151.076168,0.0469 c -2.40052,0.0396 -3.17877,0.87282 -5.67382,3.54102 -1.99605,2.13456 -7.93308,9.21916 -13.19336,15.74414 -5.90989,7.33075 -8.30092,10.40868 -8.92969,12.16211 -0.34556,0.9637 -0.0502,2.7263 0.0137,4.84961 0.11108,3.69255 0.91113,6.91016 1.27539,6.91016 0.40825,0.66056 7.09415,0.80892 19.19141,0.42773 16.12727,-0.50818 18.73469,-0.8151 19.84961,-2.33984 1.84078,-2.5175 1.8321,-37.67257 -0.01,-39.20117 -0.71137,-0.59038 -4.28099,-1.37989 -7.93164,-1.75391 -2.07423,-0.21251 -3.50064,-0.35783 -4.5918,-0.33985 z m -81.70703,24.5293 c -14.8097,0.007 -14.75985,1.10296 -14.31836,9.8457 0.20917,4.14202 0.95172,7.97457 1.72657,8.90821 1.14424,1.37875 3.52266,1.6278 14.98828,1.5664 17.21251,-0.0922 23.69868,-0.97956 25.60547,-3.5 0.87234,-1.15309 1.47123,-4.22919 1.49023,-7.65429 0.0476,-8.57873 -0.81733,-8.93365 -22.19336,-9.1211 -2.76436,-0.0242 -5.18315,-0.046 -7.29883,-0.0449 z"
       transform="matrix(1.1328611,0,0,1.1328611,-19.924387,-19.347738)"
       sodipodi:nodetypes="ssssssssssscsssssssssssssssssssssssssssssssscsssscsssssssssscsscssscsssssssssssssssssscssssssssssscsscssssscscssssssssscsssscsscsccsssssssss" />
    <path
       id="path5353"
       style="fill:#f6f6e1;fill-opacity:1;stroke-width:1.13286"
       d="m 166.28555,48.665076 c -2.90542,-0.0059 -7.02542,0.156025 -13.01684,0.391633 -18.83309,0.740598 -23.83574,1.550825 -25.42078,4.115473 -1.36201,2.203771 -1.00103,14.511712 0.47792,16.293728 0.76969,0.927422 3.01751,1.90827 4.9961,2.181644 8.132,1.123569 40.30818,0.200423 41.70345,-1.197028 0.76836,-0.769566 1.58599,-4.338083 1.81655,-7.930027 0.33327,-5.192297 -0.0756,-7.319573 -1.99135,-10.374973 -1.65661,-2.642095 -2.17314,-3.467428 -8.56505,-3.48045 z m -83.767554,3.856595 c -12.274652,0.05891 -30.454599,1.254661 -31.790915,2.590977 -1.267541,1.26754 -1.600157,5.928396 -1.586449,22.199212 0.0095,11.326576 0.391882,21.153138 0.849646,21.838553 0.457764,0.685415 1.596627,1.538217 2.531236,1.893997 3.478161,1.32401 15.687019,0.83511 17.194265,-0.68812 5.00841,-5.061536 24.998805,-30.834615 26.064665,-33.605263 1.52006,-3.951376 0.10008,-12.216718 -2.32104,-13.512466 -1.00307,-0.536823 -5.36202,-0.743665 -10.941408,-0.71689 z m 134.823744,0.519967 c -7.15923,-0.02581 -10.27358,0.138453 -11.75122,1.110734 -1.08381,0.713136 -1.33429,2.624217 -1.68823,4.303544 -0.54853,2.602641 -0.68747,5.916264 -0.30976,7.363598 0.67238,2.576499 24.58182,33.529626 27.17317,35.178436 1.91376,1.21768 13.70779,1.0579 17.10134,-0.23233 2.90589,-1.104819 2.90517,-1.106439 2.90517,-21.96688 0,-14.270536 0.1016,-21.774719 -2.13076,-23.816636 -2.46529,-2.254976 -9.4881,-1.763918 -22.70369,-1.874089 -3.37411,-0.02813 -6.20961,-0.05777 -8.59602,-0.06638 z m -85.42038,67.573402 c -4.74281,-0.0133 -9.56934,2.05306 -13.80232,6.28604 -4.85882,4.85882 -7.34502,13.21565 -6.26836,21.07077 1.65613,12.08276 14.93609,28.28797 30.33059,37.01271 3.96021,2.24442 8.0259,4.08871 9.03634,4.09777 3.43455,0.0327 18.53044,-10.86916 25.09331,-18.12136 14.96812,-16.5403 17.40084,-33.52261 6.38121,-44.54224 -4.36768,-4.36767 -7.6526,-4.88537 -11.92268,-4.70688 -5.89981,0.2466 -7.64773,1.67949 -13.81894,6.52786 -6.76508,5.31495 -6.76608,5.31466 -8.5739,2.55558 -4.39579,-6.70882 -10.35737,-10.16318 -16.45525,-10.18025 z m -71.538409,5.61562 c -4.13344,-0.0231 -8.212081,0.46117 -9.219985,1.46697 -1.055438,1.05323 -1.58086,6.72277 -1.851962,19.97995 -0.413411,20.21624 0.611514,24.84778 5.746172,25.95181 4.831969,1.03895 14.633281,0.0238 15.676409,-1.62406 0.556185,-0.87859 1.019352,-10.83803 1.028868,-22.13283 0.01489,-17.62299 -0.243513,-20.75434 -1.829836,-22.07089 -1.226965,-1.01828 -5.416225,-1.54785 -9.549666,-1.57095 z m 179.255359,1.13507 c -4.36106,-0.004 -8.32169,0.38217 -8.79959,0.8585 -1.52674,1.52169 -2.55688,12.30088 -2.62417,27.45639 -0.0663,14.93602 0.26177,16.71074 3.29902,17.8669 0.93461,0.35578 4.84811,0.68765 8.6978,0.73681 10.59602,0.13539 10.56084,0.21251 10.56084,-23.00018 0,-24.04433 0.0641,-23.90822 -11.1339,-23.91842 z M 63.97182,200.46404 c -1.073123,-0.0228 -2.39617,0.0625 -4.159724,0.1748 -10.927127,0.69579 -10.689165,0.16122 -10.689165,24.06887 0,14.72955 0.403676,21.13443 1.416077,22.47137 0.930755,1.22912 3.551489,2.00989 7.646812,2.27457 12.616694,0.81542 34.593444,0.76123 35.930734,-0.0885 0.75788,-0.48159 1.70543,-3.66872 2.1064,-7.08039 0.72905,-6.20306 0.73026,-6.20214 -9.12041,-18.64796 -5.417869,-6.84521 -12.18806,-14.92106 -15.0436,-17.94655 -3.893919,-4.12568 -4.867756,-5.15785 -8.087124,-5.22621 z m 171.14831,0.0531 c -2.71946,0.0448 -3.60109,0.98878 -6.42765,4.01148 -2.26124,2.41816 -8.98706,10.44402 -14.94624,17.83593 -6.69509,8.30473 -9.40379,11.79158 -10.1161,13.77798 -0.39147,1.09174 -0.0569,3.08852 0.0155,5.49393 0.12584,4.18315 1.03218,7.82825 1.44484,7.82825 0.46249,0.74833 8.03667,0.9164 21.7412,0.48456 18.26998,-0.5757 21.2238,-0.92339 22.48685,-2.65071 2.08535,-2.85198 2.07552,-42.67778 -0.0111,-44.40948 -0.80588,-0.66882 -4.84976,-1.56323 -8.98544,-1.98694 -2.34982,-0.24074 -3.96574,-0.40538 -5.20188,-0.385 z m -92.56271,27.78829 c -16.77736,0.008 -16.72086,1.24949 -16.22072,11.15381 0.23696,4.69233 1.07817,9.03408 1.95597,10.09176 1.29627,1.56194 3.99067,1.84407 16.97964,1.77452 19.4994,-0.10446 26.84731,-1.10971 29.00744,-3.96502 0.98825,-1.3063 1.6667,-4.79107 1.68822,-8.67124 0.054,-9.71853 -0.9259,-10.12059 -25.14199,-10.33294 -3.13164,-0.0275 -5.87179,-0.0521 -8.26856,-0.0509 z"
       sodipodi:nodetypes="ssssssssssscssssssssssssssssssssscssssssssssscsssssscssssssssssssssssccssssssssssscsss" />
    <path
       style="fill:#ce9e9a;fill-opacity:1;stroke-width:1.13286"
       d="m 101.48334,239.87376 c -0.41538,-0.41549 -0.75524,-2.12861 -0.75524,-3.80704 0,-3.55709 -2.845602,-7.97181 -14.196072,-22.024 -12.620648,-15.62471 -16.361064,-18.8755 -22.516849,-19.56936 -5.202944,-0.58643 -5.202944,-0.58643 -5.202944,-8.23701 0,-8.20963 0.658808,-8.98961 7.62894,-9.03222 1.392086,-0.009 4.195917,-1.50301 6.230736,-3.32112 3.699672,-3.30565 3.699672,-3.30565 3.699672,-24.0733 0,-24.26455 -0.696461,-27.0307 -7.490193,-29.74901 -2.447885,-0.97945 -5.714851,-1.78081 -7.259926,-1.78081 -2.671499,0 -2.809229,-0.32619 -2.809229,-6.65303 0,-6.65304 0,-6.65304 5.717269,-7.2024 6.21939,-0.5976 9.640976,-3.07707 16.234112,-11.764135 1.945897,-2.5639 7.069282,-9.125046 11.385302,-14.580324 5.2573,-6.645024 8.067002,-11.275815 8.512942,-14.030574 0.66562,-4.111886 0.66562,-4.111886 10.41019,-4.436998 9.74458,-0.325111 9.74458,-0.325111 10.45417,4.112445 1.56443,9.783461 5.81677,11.358626 30.74706,11.389424 16.24089,0.02006 23.69338,-1.000207 26.29273,-3.599558 0.94289,-0.942899 1.97885,-4.060948 2.30212,-6.928996 0.58777,-5.214634 0.58777,-5.214634 8.34888,-5.214634 7.54988,0 7.77926,0.08479 8.42754,3.115368 1.21785,5.693244 2.39304,7.548149 13.81644,21.807577 14.79615,18.469535 15.7716,19.322015 23.13776,20.221035 3.32073,0.4053 5.81198,0.92932 5.88168,1.41695 0.0987,0.68989 0.0983,3.85487 0.0983,7.28177 0,5.69889 -0.72634,6.20106 -3.0577,6.22382 -1.40192,0.0137 -4.68034,0.99258 -7.28539,2.17532 -6.35111,2.88352 -7.14439,6.16108 -7.15227,29.55105 -0.006,15.14059 0.33201,19.20638 1.76173,21.24763 2.30659,3.2931 7.46447,5.9099 11.64882,5.9099 3.67908,0 4.71752,1.58705 4.69344,7.17304 -0.0287,6.64358 -1.10465,8.68701 -4.57435,8.68701 -7.73877,0 -9.93251,1.88113 -26.96739,23.12453 -8.64375,10.77921 -10.9461,14.42714 -11.43981,18.12578 -0.30283,2.26861 -0.4679,3.59537 -1.57911,4.22453 -1.15692,0.65504 -3.34035,0.56814 -7.81868,0.7369 -8.77967,0.33087 -8.77967,0.33088 -8.77967,-4.76134 0,-6.84192 -1.86294,-10.49994 -6.10368,-11.98509 -5.33217,-1.86737 -30.6842,-2.70216 -40.34363,-1.32843 -9.86017,1.40227 -12.46147,3.57602 -12.46147,10.41325 0,7.58538 -0.39988,7.89718 -10.12814,7.89718 -4.81408,0 -9.09274,-0.33986 -9.50812,-0.75524 z m 61.31667,-27.08781 c 13.55963,-2.77539 22.04604,-7.46359 32.56337,-17.98925 5.50129,-5.50563 10.5072,-11.80142 12.64931,-15.90863 19.08524,-36.59352 -0.73981,-82.390869 -40.42301,-93.380178 -10.21055,-2.827565 -23.91902,-3.080163 -33.38293,-0.615128 -34.13381,8.890725 -55.644707,44.441846 -47.583732,78.641766 2.97025,12.60172 7.93189,21.20058 18.010622,31.2136 10.19065,10.12422 17.84412,14.56126 30.47145,17.66563 10.27752,2.52668 16.74422,2.61358 27.69492,0.37219 z"
       id="path5341"
       inkscape:label="path5341"
       sodipodi:nodetypes="csssscsssssssssssssssssscssscsssssssssssssccsscssssss" />
  </g>
</svg>
