<?xml version="1.0" encoding="UTF-8" standalone="no"?>
<!-- Created with Inkscape (http://www.inkscape.org/) -->

<svg
   version="1.1"
   id="svg1099"
   width="300"
   height="300"
   viewBox="0 0 300 300"
   sodipodi:docname="cube.svg"
   inkscape:version="1.2.2 (732a01da63, 2022-12-09)"
   xmlns:inkscape="http://www.inkscape.org/namespaces/inkscape"
   xmlns:sodipodi="http://sodipodi.sourceforge.net/DTD/sodipodi-0.dtd"
   xmlns="http://www.w3.org/2000/svg"
   xmlns:svg="http://www.w3.org/2000/svg">
  <defs
     id="defs1103">
    <filter
       inkscape:collect="always"
       style="color-interpolation-filters:sRGB"
       id="filter7577"
       x="-0.061472763"
       y="-0.06052822"
       width="1.1223785"
       height="1.1210693">
      <feGaussianBlur
         inkscape:collect="always"
         stdDeviation="1.9494"
         id="feGaussianBlur7579" />
    </filter>
  </defs>
  <sodipodi:namedview
     id="namedview1101"
     pagecolor="#ffffff"
     bordercolor="#000000"
     borderopacity="0.25"
     inkscape:showpageshadow="2"
     inkscape:pageopacity="0.0"
     inkscape:pagecheckerboard="0"
     inkscape:deskcolor="#d1d1d1"
     showgrid="false"
     inkscape:zoom="2.3617366"
     inkscape:cx="134.01155"
     inkscape:cy="150.73654"
     inkscape:window-width="2560"
     inkscape:window-height="1369"
     inkscape:window-x="1912"
     inkscape:window-y="-8"
     inkscape:window-maximized="1"
     inkscape:current-layer="g1105" />
  <g
     inkscape:groupmode="layer"
     inkscape:label="Image"
     id="g1105">
    <path
       id="path6115"
       style="fill:none;fill-opacity:1;filter:url(#filter7577);stroke:#753f4b;stroke-width:12.3;stroke-dasharray:none"
       d="M 164.42188 60.035156 C 161.8572 60.029931 158.22039 60.172884 152.93164 60.380859 C 136.3073 61.0346 131.89134 61.749806 130.49219 64.013672 C 129.28992 65.958985 129.60856 76.823463 130.91406 78.396484 C 131.59348 79.215138 133.57768 80.080953 135.32422 80.322266 C 142.5025 81.314063 170.90509 80.499183 172.13672 79.265625 C 172.81497 78.586314 173.53671 75.436306 173.74023 72.265625 C 174.03441 67.682282 173.67349 65.804484 171.98242 63.107422 C 170.5201 60.775192 170.06414 60.046651 164.42188 60.035156 z M 90.478516 63.439453 C 79.643436 63.49145 63.595608 64.54697 62.416016 65.726562 C 61.297133 66.845445 61.003525 70.959694 61.015625 85.322266 C 61.024047 95.32046 61.361547 103.99458 61.765625 104.59961 C 62.169703 105.20464 63.175002 105.95743 64 106.27148 C 67.070241 107.44021 77.847258 107.00865 79.177734 105.66406 C 83.598757 101.19615 101.2447 78.445707 102.18555 76 C 103.52734 72.512042 102.2739 65.216048 100.13672 64.072266 C 99.251297 63.598402 95.403552 63.415818 90.478516 63.439453 z M 209.49023 63.898438 C 203.17064 63.875652 200.42153 64.020655 199.11719 64.878906 C 198.16049 65.508406 197.93938 67.195359 197.62695 68.677734 C 197.14275 70.975137 197.02011 73.900145 197.35352 75.177734 C 197.94704 77.452061 219.05241 104.77503 221.33984 106.23047 C 223.02916 107.30534 233.43999 107.1643 236.43555 106.02539 C 239.00063 105.05014 239 105.04869 239 86.634766 C 239 74.03788 239.08969 67.413768 237.11914 65.611328 C 234.94297 63.620816 228.74378 64.054281 217.07812 63.957031 C 214.09973 63.932202 211.59677 63.906032 209.49023 63.898438 z M 185.11133 71 C 178.26043 71 178.26102 71.000455 177.74219 75.603516 C 177.45683 78.135199 176.54129 80.886434 175.70898 81.71875 C 173.41449 84.013249 166.83616 84.914194 152.5 84.896484 C 130.49354 84.869298 126.74033 83.479804 125.35938 74.84375 C 124.73301 70.926631 124.73259 70.925909 116.13086 71.212891 C 107.52914 71.499873 107.52897 71.499263 106.94141 75.128906 C 106.54777 77.560587 104.06846 81.64993 99.427734 87.515625 C 95.617898 92.331107 91.094634 98.12156 89.376953 100.38477 C 83.557061 108.05301 80.536854 110.24201 75.046875 110.76953 C 70.000128 111.25446 70 111.25419 70 117.12695 C 70 122.71179 70.122284 123 72.480469 123 C 73.844337 123 76.727875 123.70769 78.888672 124.57227 C 84.885634 126.97177 85.5 129.41323 85.5 150.83203 C 85.5 169.16404 85.500149 169.16406 82.234375 172.08203 C 80.4382 173.68691 77.963197 175.00567 76.734375 175.01367 C 70.581701 175.05128 70 175.73953 70 182.98633 C 70 189.73964 69.999055 189.74015 74.591797 190.25781 C 80.02563 190.87029 83.328252 193.739 94.46875 207.53125 C 104.48803 219.9354 107 223.83274 107 226.97266 C 107 228.45423 107.29935 229.96722 107.66602 230.33398 C 108.03268 230.70065 111.81106 231 116.06055 231 C 124.64788 231 125 230.72506 125 224.0293 C 125 217.99393 127.29623 216.07571 136 214.83789 C 144.52657 213.62527 166.90451 214.3614 171.61133 216.00977 C 175.35471 217.32073 177 220.55035 177 226.58984 C 177 231.08485 177.00001 231.08503 184.75 230.79297 C 188.70311 230.644 190.6311 230.71884 191.65234 230.14062 C 192.63323 229.58526 192.77761 228.41466 193.04492 226.41211 C 193.48073 223.14724 195.51452 219.92713 203.14453 210.41211 C 218.18156 191.66014 220.11806 190 226.94922 190 C 230.012 190 230.96103 188.19646 230.98633 182.33203 C 231.00758 177.40117 230.09135 176 226.84375 176 C 223.15014 176 218.59661 173.69009 216.56055 170.7832 C 215.2985 168.98135 215.00086 165.39224 215.00586 152.02734 C 215.01282 131.38055 215.7121 128.48675 221.31836 125.94141 C 223.61789 124.89738 226.5125 124.03358 227.75 124.02148 C 229.80794 124.00139 230.44922 123.55787 230.44922 118.52734 C 230.44922 115.50235 230.44843 112.70859 230.36133 112.09961 C 230.2998 111.66917 228.1012 111.20737 225.16992 110.84961 C 218.66767 110.05602 217.80695 109.30342 204.74609 93 C 194.66243 80.412921 193.6258 78.77554 192.55078 73.75 C 191.97853 71.074853 191.77575 71 185.11133 71 z M 151.03906 92.048828 C 156.23513 92.144573 161.51301 92.824292 166.01953 94.072266 C 201.04869 103.77275 218.55005 144.19817 201.70312 176.5 C 199.81225 180.12552 195.39321 185.68303 190.53711 190.54297 C 181.25326 199.83417 173.76233 203.97199 161.79297 206.42188 C 152.12657 208.40039 146.41787 208.3241 137.3457 206.09375 C 126.19931 203.35346 119.44276 199.43685 110.44727 190.5 C 101.55057 181.66131 97.170724 174.07105 94.548828 162.94727 C 87.433243 132.75832 106.42214 101.37732 136.55273 93.529297 C 140.72973 92.441329 145.843 91.953083 151.03906 92.048828 z M 134.08789 123.54688 C 129.90132 123.53515 125.64083 125.35917 121.9043 129.0957 C 117.61532 133.38468 115.4207 140.76144 116.37109 147.69531 C 117.83299 158.361 129.55549 172.66569 143.14453 180.36719 C 146.64029 182.34839 150.22916 183.97638 151.12109 183.98438 C 154.15284 184.01319 167.47831 174.38994 173.27148 167.98828 C 186.48414 153.38783 188.63155 138.39717 178.9043 128.66992 C 175.04886 124.8145 174.92491 124.77165 168.57812 125.17578 C 162.71736 125.54897 161.6291 125.99759 156.18164 130.27734 C 150.20998 134.96895 150.20908 134.9687 148.61328 132.5332 C 144.73304 126.6112 139.47062 123.56194 134.08789 123.54688 z M 70.939453 128.50391 C 67.290784 128.48351 63.690478 128.91099 62.800781 129.79883 C 61.869125 130.72854 61.405322 135.73317 61.166016 147.43555 C 60.801089 165.28082 61.705817 169.3692 66.238281 170.34375 C 70.503556 171.26085 79.155382 170.3647 80.076172 168.91016 C 80.567127 168.13461 80.975975 159.34319 80.984375 149.37305 C 80.997516 133.81688 80.769419 131.05276 79.369141 129.89062 C 78.286075 128.99177 74.588123 128.5243 70.939453 128.50391 z M 229.17188 129.50586 C 225.32228 129.50244 221.82615 129.84321 221.4043 130.26367 C 220.05661 131.6069 219.14729 141.12192 219.08789 154.5 C 219.02938 167.68432 219.31896 169.25092 222 170.27148 C 222.825 170.58553 226.27954 170.87848 229.67773 170.92188 C 239.03106 171.04138 239 171.10944 239 150.61914 C 239 129.39473 239.05657 129.51486 229.17188 129.50586 z M 74.107422 194.03125 C 73.160155 194.01114 71.992271 194.08642 70.435547 194.18555 C 60.789956 194.79974 61 194.32788 61 215.43164 C 61 228.43371 61.356334 234.08744 62.25 235.26758 C 63.071596 236.35255 65.384977 237.04176 69 237.27539 C 80.137006 237.99518 99.536345 237.94734 100.7168 237.19727 C 101.3858 236.77216 102.22222 233.95881 102.57617 230.94727 C 103.21971 225.4717 103.22077 225.4725 94.525391 214.48633 C 89.74293 208.44392 83.766735 201.3152 81.246094 198.64453 C 77.808854 195.00271 76.949222 194.09159 74.107422 194.03125 z M 225.18359 194.07812 C 222.78307 194.11771 222.00482 194.95094 219.50977 197.61914 C 217.51372 199.7537 211.57669 206.8383 206.31641 213.36328 C 200.40652 220.69403 198.01549 223.77196 197.38672 225.52539 C 197.04116 226.48909 197.33649 228.25169 197.40039 230.375 C 197.51147 234.06755 198.31152 237.28516 198.67578 237.28516 C 199.08403 237.94572 205.76993 238.09408 217.86719 237.71289 C 233.99446 237.20471 236.60188 236.89779 237.7168 235.37305 C 239.55758 232.85555 239.5489 197.70048 237.70703 196.17188 C 236.99566 195.5815 233.42604 194.79199 229.77539 194.41797 C 227.70116 194.20546 226.27475 194.06014 225.18359 194.07812 z M 143.47656 218.60742 C 128.66686 218.61472 128.71671 219.71038 129.1582 228.45312 C 129.36737 232.59514 130.10992 236.42769 130.88477 237.36133 C 132.02901 238.74008 134.40743 238.98913 145.87305 238.92773 C 163.08556 238.83552 169.57173 237.94817 171.47852 235.42773 C 172.35086 234.27464 172.94975 231.19854 172.96875 227.77344 C 173.01639 219.19471 172.15142 218.83979 150.77539 218.65234 C 148.01103 218.6281 145.59224 218.60638 143.47656 218.60742 z " />
    <path
       id="path5353"
       style="fill:#f6f6e1;fill-opacity:1"
       d="M 164.42188 60.035156 C 161.8572 60.029931 158.22039 60.172883 152.93164 60.380859 C 136.30728 61.0346 131.89134 61.749804 130.49219 64.013672 C 129.28992 65.958987 129.60856 76.823461 130.91406 78.396484 C 131.59348 79.215138 133.57768 80.080953 135.32422 80.322266 C 142.50251 81.314064 170.90509 80.499184 172.13672 79.265625 C 172.81497 78.586313 173.53671 75.436309 173.74023 72.265625 C 174.03441 67.682277 173.67349 65.804487 171.98242 63.107422 C 170.5201 60.77519 170.06415 60.046651 164.42188 60.035156 z M 90.478516 63.439453 C 79.643426 63.49145 63.59561 64.546968 62.416016 65.726562 C 61.297132 66.845446 61.003525 70.95968 61.015625 85.322266 C 61.024047 95.32047 61.361547 103.99458 61.765625 104.59961 C 62.169703 105.20464 63.175001 105.95743 64 106.27148 C 67.070244 107.44021 77.847256 107.00865 79.177734 105.66406 C 83.598761 101.19614 101.2447 78.445709 102.18555 76 C 103.52734 72.512039 102.2739 65.21605 100.13672 64.072266 C 99.251297 63.598402 95.403557 63.415818 90.478516 63.439453 z M 209.49023 63.898438 C 203.17063 63.875652 200.42153 64.020654 199.11719 64.878906 C 198.16049 65.508406 197.93938 67.195357 197.62695 68.677734 C 197.14275 70.975139 197.02011 73.900143 197.35352 75.177734 C 197.94704 77.452063 219.0524 104.77503 221.33984 106.23047 C 223.02916 107.30534 233.43999 107.1643 236.43555 106.02539 C 239.00064 105.05014 239 105.04871 239 86.634766 C 239 74.037868 239.08969 67.41377 237.11914 65.611328 C 234.94297 63.620814 228.74379 64.054281 217.07812 63.957031 C 214.09972 63.932202 211.59677 63.906033 209.49023 63.898438 z M 134.08789 123.54688 C 129.90132 123.53515 125.64084 125.35916 121.9043 129.0957 C 117.61532 133.38468 115.4207 140.76143 116.37109 147.69531 C 117.83299 158.36101 129.55548 172.66568 143.14453 180.36719 C 146.64029 182.34839 150.22916 183.97638 151.12109 183.98438 C 154.15284 184.0132 167.4783 174.38995 173.27148 167.98828 C 186.48415 153.38781 188.63156 138.39718 178.9043 128.66992 C 175.04886 124.81449 174.92491 124.77165 168.57812 125.17578 C 162.71735 125.54897 161.6291 125.99758 156.18164 130.27734 C 150.20997 134.96895 150.20908 134.9687 148.61328 132.5332 C 144.73303 126.61119 139.47062 123.56195 134.08789 123.54688 z M 70.939453 128.50391 C 67.29078 128.48351 63.690479 128.91099 62.800781 129.79883 C 61.869124 130.72854 61.405323 135.73316 61.166016 147.43555 C 60.801089 165.28084 61.705812 169.3692 66.238281 170.34375 C 70.50356 171.26085 79.155381 170.36471 80.076172 168.91016 C 80.567128 168.13461 80.975975 159.3432 80.984375 149.37305 C 80.997516 133.81687 80.769421 131.05276 79.369141 129.89062 C 78.286074 128.99176 74.588127 128.5243 70.939453 128.50391 z M 229.17188 129.50586 C 225.32228 129.50244 221.82615 129.84321 221.4043 130.26367 C 220.05661 131.6069 219.14729 141.12191 219.08789 154.5 C 219.02938 167.68433 219.31896 169.25091 222 170.27148 C 222.825 170.58553 226.27953 170.87848 229.67773 170.92188 C 239.03106 171.04139 239 171.10946 239 150.61914 C 239 129.39471 239.05658 129.51486 229.17188 129.50586 z M 74.107422 194.03125 C 73.160154 194.01114 71.992273 194.08642 70.435547 194.18555 C 60.789946 194.79974 61 194.32786 61 215.43164 C 61 228.43372 61.356333 234.08744 62.25 235.26758 C 63.071597 236.35255 65.384973 237.04176 69 237.27539 C 80.137017 237.99518 99.536347 237.94735 100.7168 237.19727 C 101.3858 236.77216 102.22222 233.95882 102.57617 230.94727 C 103.21971 225.4717 103.22078 225.47251 94.525391 214.48633 C 89.742926 208.44392 83.766738 201.3152 81.246094 198.64453 C 77.808851 195.00271 76.949225 194.09159 74.107422 194.03125 z M 225.18359 194.07812 C 222.78306 194.11771 222.00483 194.95094 219.50977 197.61914 C 217.51372 199.7537 211.5767 206.83829 206.31641 213.36328 C 200.40652 220.69404 198.01549 223.77196 197.38672 225.52539 C 197.04116 226.48909 197.33649 228.25169 197.40039 230.375 C 197.51147 234.06755 198.31152 237.28516 198.67578 237.28516 C 199.08403 237.94572 205.76992 238.09408 217.86719 237.71289 C 233.99448 237.20471 236.60188 236.89779 237.7168 235.37305 C 239.55758 232.85555 239.5489 197.70049 237.70703 196.17188 C 236.99566 195.5815 233.42604 194.79199 229.77539 194.41797 C 227.70116 194.20546 226.27475 194.06013 225.18359 194.07812 z M 143.47656 218.60742 C 128.66684 218.61472 128.71671 219.71037 129.1582 228.45312 C 129.36737 232.59514 130.10992 236.42769 130.88477 237.36133 C 132.02902 238.74008 134.40742 238.98913 145.87305 238.92773 C 163.08558 238.83552 169.57173 237.94817 171.47852 235.42773 C 172.35087 234.27463 172.94975 231.19855 172.96875 227.77344 C 173.01639 219.1947 172.15144 218.83979 150.77539 218.65234 C 148.01103 218.6281 145.59224 218.60638 143.47656 218.60742 z " />
    <path
       style="fill:#ce9e9a;fill-opacity:1"
       d="M 107.66667,230.33343 C 107.3,229.96667 107,228.45446 107,226.97288 107,223.83296 104.48813,219.936 94.468837,207.53184 83.328328,193.73958 80.026585,190.87004 74.592746,190.25756 70,189.7399 70,189.7399 70,182.98658 c 0,-7.24681 0.581543,-7.93532 6.734223,-7.97293 1.228823,-0.008 3.703823,-1.32674 5.5,-2.93162 C 85.5,169.16406 85.5,169.16406 85.5,150.83203 85.5,129.41321 84.88522,126.97147 78.888252,124.57196 76.727453,123.70738 73.843634,123 72.479764,123 70.121577,123 70,122.71207 70,117.12723 c 0,-5.87277 0,-5.87277 5.046752,-6.3577 5.489984,-0.52752 8.510289,-2.7162 14.330187,-10.38445 1.717683,-2.263208 6.240202,-8.054867 10.050042,-12.870354 4.640729,-5.865701 7.120909,-9.953396 7.514549,-12.385079 0.58756,-3.629647 0.58756,-3.629647 9.18929,-3.91663 8.60174,-0.286982 8.60174,-0.286982 9.22811,3.630141 1.38096,8.636063 5.13459,10.026494 27.14107,10.05368 14.33617,0.01771 20.91464,-0.882903 23.20914,-3.177404 0.83231,-0.832317 1.74677,-3.584683 2.03213,-6.116369 C 178.2601,71 178.2601,71 185.111,71 c 6.66443,0 6.86691,0.07485 7.43916,2.75 1.07502,5.025545 2.11239,6.662908 12.19606,19.25 13.06087,16.30344 13.92192,17.05594 20.42418,17.84953 2.93128,0.35776 5.13035,0.82033 5.19188,1.25077 0.0871,0.60898 0.0868,3.40277 0.0868,6.42777 0,5.03053 -0.64116,5.4738 -2.6991,5.49389 -1.2375,0.0121 -4.13143,0.87617 -6.43096,1.9202 -5.60626,2.54535 -6.3065,5.43852 -6.31346,26.08533 -0.005,13.36491 0.29307,16.95387 1.55512,18.75572 2.03607,2.90689 6.58904,5.21679 10.28265,5.21679 3.2476,0 4.16425,1.40092 4.143,6.33179 -0.0253,5.86443 -0.9751,7.66821 -4.03788,7.66821 -6.83117,0 -8.76763,1.66051 -23.80467,20.4125 -7.63002,9.51503 -9.66235,12.73513 -10.09816,16 -0.26731,2.00255 -0.41302,3.17371 -1.39391,3.72908 -1.02124,0.57822 -2.9486,0.50151 -6.90171,0.65048 -7.75,0.29206 -7.75,0.29207 -7.75,-4.20294 0,-6.0395 -1.64445,-9.26851 -5.38784,-10.57948 -4.70682,-1.64837 -27.08558,-2.38526 -35.61216,-1.17264 -8.70378,1.23782 -11,3.15663 -11,9.192 0,6.69577 -0.35298,6.971 -8.94032,6.971 -4.24949,0 -8.02635,-0.3 -8.39301,-0.66667 z m 54.12549,-23.91097 c 11.96937,-2.44989 19.4605,-6.58827 28.74436,-15.87948 4.85611,-4.85994 9.27493,-10.41736 11.16581,-14.04288 16.84694,-32.30186 -0.65304,-72.72813 -35.68223,-82.428621 -9.01306,-2.49595 -21.11381,-2.718924 -29.4678,-0.542986 -30.13062,7.848027 -49.118735,39.229737 -42.003143,69.418717 2.621898,11.1238 7.001643,18.71419 15.898343,27.55289 8.9955,8.93686 15.75138,12.85353 26.89778,15.59382 9.07218,2.23035 14.78047,2.30706 24.44688,0.32854 z"
       id="path5341"
       inkscape:label="path5341" />
  </g>
</svg>
