<?xml version="1.0" encoding="UTF-8" standalone="no"?>
<!-- Created with Inkscape (http://www.inkscape.org/) -->

<svg
   version="1.1"
   id="svg31641"
   width="300"
   height="300"
   viewBox="0 0 300 300"
   sodipodi:docname="dye_orange.svg"
   inkscape:version="1.2.2 (732a01da63, 2022-12-09)"
   inkscape:export-filename="dye_orange_spell.png"
   inkscape:export-xdpi="96"
   inkscape:export-ydpi="96"
   xmlns:inkscape="http://www.inkscape.org/namespaces/inkscape"
   xmlns:sodipodi="http://sodipodi.sourceforge.net/DTD/sodipodi-0.dtd"
   xmlns="http://www.w3.org/2000/svg"
   xmlns:svg="http://www.w3.org/2000/svg">
  <defs
     id="defs31645" />
  <sodipodi:namedview
     id="namedview31643"
     pagecolor="#ffffff"
     bordercolor="#000000"
     borderopacity="0.25"
     inkscape:showpageshadow="2"
     inkscape:pageopacity="0.0"
     inkscape:pagecheckerboard="0"
     inkscape:deskcolor="#d1d1d1"
     showgrid="false"
     inkscape:zoom="4.7234733"
     inkscape:cx="-38.213405"
     inkscape:cy="216.36621"
     inkscape:window-width="2560"
     inkscape:window-height="1351"
     inkscape:window-x="2391"
     inkscape:window-y="-9"
     inkscape:window-maximized="1"
     inkscape:current-layer="g31647" />
  <g
     inkscape:groupmode="layer"
     inkscape:label="Image"
     id="g31647">
    <rect
       style="opacity:1;fill:#292c2b;fill-opacity:1;stroke:none;stroke-width:43.8978;stop-color:#000000"
       id="rect32909"
       width="300"
       height="300"
       x="0"
       y="0"
       ry="45"
       rx="45"
       inkscape:label="spell_background" />
    <path
       id="path21089"
       style="fill:#ce4900;fill-opacity:1;stroke-width:1"
       d="m 243.38379,43.187985 c -2.65889,0.02295 -5.95147,1.2057 -10.36377,3.413085 -11.40096,5.703668 -19.29639,14.670165 -19.29639,20.616217 0,3.186548 3.96929,9.523133 12.29737,18.032228 3.6335,3.712492 6.03649,5.64492 8.04346,5.679195 2.13246,0.03638 13.65406,-12.65406 16.4165,-18.300293 3.60037,-7.358909 4.48456,-16.831522 2.02441,-21.692872 -2.70183,-5.338905 -5.23552,-7.781062 -9.12158,-7.74756 z m -187.848636,1.96875 c -1.170401,0.01785 -2.198746,0.289912 -3.486328,0.823245 -4.142946,1.71606 -5.667056,5.689058 -6.435059,9.943357 -0.963263,5.335943 -1.27789,6.600315 1.729981,12.58008 6.791621,13.502025 11.607396,21.535028 14.652832,23.392088 3.57279,2.178645 5.355271,2.75094 9.030762,1.353517 C 74.313204,91.99974 86.669055,80.516017 88.598145,76.800292 89.602268,74.8662 89.50767,72.96858 89.48877,71.383297 89.45464,68.519572 88.257135,66.088395 84.22266,62.145997 76.60995,54.70704 65.632244,47.363062 59.876951,45.85986 58.018685,45.374512 56.705555,45.138885 55.535154,45.156735 Z m 96.041016,72.903815 c -5.2012,0.0239 -10.18164,0.46419 -14.01123,1.36524 -26.21775,6.1686 -44.749267,29.63031 -46.265625,58.57469 -1.746907,33.3449 18.398715,56.33982 51.700205,59.01271 24.12177,1.9361 38.52079,-2.36534 51.6123,-15.42042 12.19032,-12.15639 17.7041,-26.04502 17.7041,-44.59277 0,-12.36517 -1.87417,-20.42485 -7.04297,-30.28418 -6.27977,-11.97842 -16.14566,-20.32433 -30.15381,-25.50878 -5.59272,-2.06989 -14.8743,-3.18636 -23.54297,-3.14649 z"
       inkscape:label="accent" />
    <path
       style="fill:#f97300;fill-opacity:1;stroke-width:1"
       d="m 82.115692,255.36848 c -1.28112,-0.89733 -4.081252,-4.3421 -6.222502,-7.65503 -2.949029,-4.56272 -3.893192,-7.04135 -3.893192,-10.22047 v -3.25491 c 0.02878,-0.71523 -0.296724,-1.02837 -1.23448,-1.02201 l -7.678734,-0.49748 c -15.77022,-1.02171 -19.183134,-4.81324 -16.579628,-18.41892 1.915972,-10.01269 1.919295,-9.96411 -0.872983,-12.75639 -1.694574,-1.69458 -4.035332,-2.56768 -8.25,-3.07725 -7.214846,-0.8723 -10.882032,-2.88806 -12.868017,-7.07321 -2.868315,-6.04453 -2.195162,-8.22127 7.168378,-23.18004 C 62.646346,118.74958 95.474085,88.952745 130,78.97452 c 10.6522,-3.078563 30.72405,-3.81945 41.93467,-1.547888 33.58907,6.806018 67.69888,34.654238 97.95555,79.973718 6.37988,9.55599 6.60791,10.1125 6.55602,16 -0.0897,10.1788 -5.45081,17.94723 -13.60108,19.70844 -10.38575,2.24428 -11.50915,3.71715 -9.26496,12.14713 3.57269,13.42026 1.46261,17.57961 -12.57683,24.79118 -10.2111,5.24508 -11.37937,6.32238 -15.32567,14.13231 -1.40667,2.78388 -4.09919,5.64096 -7.60478,8.06958 -4.88422,3.38371 -5.63444,3.62297 -7.5,2.39192 -2.33788,-1.54272 -3.07063,-5.83629 -2.10031,-12.30685 0.42439,-2.82999 2.27619,-6.46011 5.62485,-11.0265 12.8156,-17.47594 18.69762,-39.2989 16.11141,-59.77517 -2.53031,-20.0337 -10.70907,-37.95941 -23.02882,-50.47312 -13.22621,-13.43446 -27.53987,-20.00492 -45.3585,-20.82113 -26.09323,-1.195248 -49.67167,6.94016 -65.617557,22.64039 -28.541435,28.10174 -31.262626,73.01697 -6.5355,107.87316 5.500942,7.75432 7.331505,12.04241 7.331505,17.17404 0,3.64939 -0.370268,4.20695 -4.337858,6.53212 -5.054527,2.96215 -7.336222,3.15916 -10.546448,0.91063 z"
       id="path21091"
       inkscape:label="hair" />
  </g>
</svg>
