<?xml version="1.0" encoding="UTF-8" standalone="no"?>
<!-- Created with Inkscape (http://www.inkscape.org/) -->

<svg
   version="1.1"
   id="svg2"
   width="300"
   height="300"
   viewBox="0 0 300 300"
   sodipodi:docname="gratitude_cape.svg"
   inkscape:version="1.2.2 (732a01da63, 2022-12-09)"
   xmlns:inkscape="http://www.inkscape.org/namespaces/inkscape"
   xmlns:sodipodi="http://sodipodi.sourceforge.net/DTD/sodipodi-0.dtd"
   xmlns="http://www.w3.org/2000/svg"
   xmlns:svg="http://www.w3.org/2000/svg">
  <defs
     id="defs6">
    <filter
       inkscape:collect="always"
       style="color-interpolation-filters:sRGB"
       id="filter10763"
       x="-0.040632619"
       y="-0.049060888"
       width="1.0812318"
       height="1.0981386">
      <feGaussianBlur
         inkscape:collect="always"
         stdDeviation="1.9494"
         id="feGaussianBlur10765" />
    </filter>
  </defs>
  <sodipodi:namedview
     id="namedview4"
     pagecolor="#ffffff"
     bordercolor="#000000"
     borderopacity="0.25"
     inkscape:showpageshadow="2"
     inkscape:pageopacity="0.0"
     inkscape:pagecheckerboard="0"
     inkscape:deskcolor="#d1d1d1"
     showgrid="false"
     inkscape:zoom="2.8284271"
     inkscape:cx="138.41615"
     inkscape:cy="174.30182"
     inkscape:window-width="2560"
     inkscape:window-height="1369"
     inkscape:window-x="1912"
     inkscape:window-y="-8"
     inkscape:window-maximized="1"
     inkscape:current-layer="g8" />
  <g
     inkscape:groupmode="layer"
     inkscape:label="Image"
     id="g8">
    <path
       id="path10755"
       style="display:inline;fill:none;fill-opacity:1;stroke:#753f4b;filter:url(#filter10763);stroke-width:12.3;stroke-dasharray:none"
       inkscape:label="STROKE"
       d="M 157.80859 36.199219 C 156.03657 36.158939 152.61549 37.392395 143.94336 40.591797 C 130.25757 45.640874 117.16434 52.054819 114.4707 55.03125 C 114.29652 55.223725 114.11511 55.493162 113.92773 55.830078 C 113.73984 56.166431 113.54682 56.572219 113.34961 57.033203 C 112.95656 57.951954 112.54885 59.108642 112.14258 60.408203 C 109.66195 68.343042 107.22958 81.944085 108.45312 83.923828 C 108.81875 84.515435 109.48431 85 109.93164 85 C 111.75439 85 126.82943 79.690722 135.57422 75.96875 C 146.88329 71.155372 180.22582 54.089227 181.19336 52.619141 C 182.31274 50.918333 180.30698 49.302483 170.5 44 C 167.31293 42.276799 164.3938 40.544951 162.39453 39.244141 C 162.38693 39.239193 162.38258 39.235406 162.375 39.230469 C 161.83493 38.878812 161.36446 38.560592 160.96875 38.279297 C 160.53633 37.963512 160.13303 37.661088 159.99609 37.496094 C 159.34034 36.705958 158.87183 36.223388 157.80859 36.199219 z M 184.38086 58 C 183.59572 58 179.47645 60.012173 175.22656 62.472656 C 170.97671 64.933142 160.52498 70.445655 152 74.722656 C 142.86736 79.304521 139.10942 81.394409 137.62695 82.369141 C 137.62428 82.3709 137.62571 82.371293 137.62305 82.373047 C 137.05256 82.748358 136.73944 82.996281 136.70703 83.099609 C 136.18864 84.752374 136.9707 87.78125 136.9707 87.78125 C 138.19843 91.407261 139.46891 94 141.92773 94 C 142.96301 94 145.82547 92.270011 148.08203 90.384766 C 149.32161 89.349131 150.87558 87.881362 151.48438 87.267578 C 151.51276 87.238948 151.60267 87.252391 151.65234 87.238281 C 152.13216 87.102056 153.51958 87.575426 155.25195 88.072266 C 156.98345 88.568853 159.35603 89.018439 159.56445 89.066406 C 159.57045 89.067706 159.64614 89.083304 159.64844 89.083984 C 159.76639 89.119224 160.07427 90.258348 160.2793 90.796875 C 160.63556 91.732613 161.04602 92.653553 162.10352 94.527344 C 163.76959 97.479529 165.66311 100.0412 166.63477 100.41406 C 168.81479 101.25062 172.76391 98.484195 175.5 94.205078 C 176.44324 92.729892 177.50586 91.148437 177.50586 91.148438 C 177.5477 91.146374 177.64153 91.150074 177.6875 91.148438 L 177.69141 91.148438 C 178.44264 91.121882 179.66648 91.143873 180.6543 91.144531 C 181.73057 91.145231 183.00322 91.157867 183.88477 91.154297 L 183.88672 91.15625 C 183.88761 91.15865 184.43045 92.625646 185.00781 94.019531 C 185.69587 95.680662 187.58617 98.155675 189.20703 99.519531 C 190.82789 100.88339 192.48095 102 192.88086 102 C 193.87604 102 197.8327 97.742951 199.4668 94.982422 C 199.80177 94.41653 200.10354 93.486413 200.32422 92.693359 C 200.54215 91.911593 200.67607 91.286641 200.67969 91.269531 C 200.67972 91.269395 200.68163 91.257868 200.68164 91.257812 C 200.68165 91.257774 200.68359 91.25 200.68359 91.25 C 200.68359 91.25 202.00527 91.2563 202.44141 90.945312 C 203.87207 89.925069 201.62777 87.291469 197.39062 79.246094 C 188.14943 61.699102 185.88402 58 184.38086 58 z M 125.84961 93.400391 C 125.33076 93.466571 124.8661 93.744248 124.41992 94.212891 C 123.03999 95.662293 119.91143 113.02974 117.52344 132.5 C 114.33611 158.4875 108.83263 196.51804 108.1582 197.2168 C 107.77804 197.61067 104.8056 197.2381 101.55273 196.38867 C 94.596502 194.57213 90.986454 195.54513 91.021484 199.22852 C 91.059574 203.23278 95.645197 233.61763 96.394531 234.83008 C 96.851633 235.56969 100.15544 236 105.38477 236 L 113.65039 236 L 124.26758 226.5 C 130.10695 221.27504 135.31314 217 135.83594 217 C 136.09733 217 137.20924 218.1539 138.78906 220.01172 C 140.36888 221.86953 142.41663 224.43126 144.55273 227.25 C 148.82494 232.88746 153.26096 238.30906 154.41016 239.29688 C 156.10648 240.75498 157.62881 240.98786 162.5 240.53906 C 175.34276 239.35581 174.88501 239.75335 181.3125 224.25781 C 184.45113 216.69121 187.01477 209.76821 187.00977 208.87305 C 186.99607 206.422 185.00953 205.22841 178.55664 203.79688 L 172.70312 202.49805 L 172.89844 193.5 C 173.00578 188.55027 173.51292 171.67492 174.02539 156 C 175.10671 122.9256 174.92383 106.94336 174.92383 106.94336 C 174.89353 105.62799 173.77987 105.02113 172.2168 105.28711 C 171.85613 105.34848 171.45442 105.53413 171.04102 105.75977 C 170.96839 105.79988 170.89598 105.84119 170.82227 105.88477 C 170.42338 106.11802 170.01509 106.3894 169.59961 106.67969 C 169.2276 106.9396 168.85604 107.19512 168.49023 107.44336 C 162.96796 111.19089 161.47801 110.78714 157.41992 104.44336 C 155.46472 101.38688 153.22941 98.64164 152.45312 98.34375 C 151.67685 98.045861 148.7758 99.196032 146.00586 100.90039 C 143.23592 102.60475 140.10392 104 139.04492 104 C 137.9668 104 135.2889 101.83114 132.96094 99.070312 C 131.4686 97.300489 130.28388 96.062764 129.24609 95.138672 C 128.91156 94.840786 128.58472 94.571295 128.28711 94.355469 C 127.9473 94.10399 127.62736 93.900085 127.32617 93.746094 C 127.06129 93.618186 126.79865 93.497451 126.56055 93.447266 C 126.31296 93.39508 126.07397 93.371774 125.84961 93.400391 z M 218.46094 103.09961 C 217.39127 103.13971 216.68478 103.6564 216.30859 104.63672 C 215.3579 107.11417 217.00923 109.04772 224.51562 114.25 C 231.77853 119.28352 233.99732 119.91501 235.99023 117.51367 C 237.9099 115.20061 236.72041 113.64258 228.83008 108.13672 C 223.87483 104.67895 220.50303 103.02297 218.46094 103.09961 z M 97.720703 103.29688 C 96.879209 103.27508 95.94908 103.49108 95.027344 103.98438 C 91.40329 105.92389 83.523142 111.36282 82.765625 112.44727 C 81.686295 113.9924 81.82643 114.68191 83.572266 116.42773 C 84.436549 117.29202 85.481146 118 85.894531 118 C 86.307917 118 89.874946 115.93367 93.822266 113.4082 C 99.373182 109.85679 101 108.28707 101 106.47656 C 101 104.54557 99.57199 103.34485 97.720703 103.29688 z M 181.99023 107.27148 C 181.6417 107.23878 181.39188 107.27448 181.27344 107.39258 C 180.50974 108.15629 179.62522 128.67025 178.58398 169.75 C 178.24592 183.08748 177.64752 193.9462 178.79102 194 C 180.46876 194.07897 184.88888 190.4986 192.1582 184.21094 C 196.0629 180.83354 200.5507 176.90488 206.41406 171.82617 C 210.57711 168.22028 209.62123 166.93476 198.49414 161.16406 C 186.82595 155.11278 186.54163 153.85291 194.96094 145.53125 C 198.28221 142.24847 201 139.2286 201 138.82031 C 201 137.41313 196.80126 134.17222 190.9082 131.03125 C 189.74308 130.41025 188.8051 129.82176 187.96875 129.25195 C 187.72873 129.0877 187.46148 128.91858 187.25 128.75977 C 187.15906 128.69184 187.07986 128.62547 186.99414 128.55859 C 186.61958 128.26456 186.28758 127.98072 186.01562 127.70898 C 185.97122 127.66497 185.92644 127.6215 185.88477 127.57812 C 185.59184 127.27072 185.35629 126.9762 185.20117 126.70312 C 185.19981 126.70072 185.19667 126.69771 185.19531 126.69531 C 184.93376 126.23175 184.88729 125.82636 185.04883 125.48438 C 185.0492 125.48358 185.05041 125.48321 185.05078 125.48242 C 185.10603 125.36599 185.18493 125.25763 185.28125 125.1543 C 185.4104 125.0322 185.54436 124.91113 185.75 124.81445 C 186.1625 124.62053 188.4929 122.34612 190.92969 119.75977 C 195.13278 115.29857 195.27444 114.9614 193.67969 113.19922 C 193.44994 112.94535 193.13331 112.6682 192.76562 112.38086 C 192.65216 112.29218 192.50918 112.19831 192.38477 112.10742 C 192.12543 111.91803 191.86426 111.73066 191.56445 111.53516 C 191.19572 111.29429 190.7482 111.06327 190.33398 110.82031 C 189.69845 110.44813 189.0941 110.0903 188.4043 109.73828 C 187.84313 109.45061 187.33676 109.22959 186.77734 108.97266 C 186.23348 108.72347 185.72321 108.48444 185.21289 108.2793 C 184.3327 107.92339 183.52146 107.62134 182.86719 107.45508 C 182.54591 107.37343 182.22801 107.29382 181.99023 107.27148 z M 75.847656 117.18945 C 74.449143 117.19445 72.194411 118.53187 67.685547 121.55664 C 60.370073 126.46422 59.082872 128.19191 61.009766 130.51367 C 62.895237 132.78553 64.396877 132.37307 71.990234 127.50586 C 79.239812 122.85899 79.706786 122.18844 77.964844 118.93359 C 77.360943 117.80519 76.804534 117.18578 75.847656 117.18945 z M 242.13477 118.54297 C 240.90482 118.56647 240.12027 119.24135 239.62305 120.53711 C 238.68371 122.98499 239.77858 124.31035 246.77539 129.1875 C 253.98118 134.21029 256.06294 134.83578 257.96094 132.54883 C 259.98982 130.10418 258.26476 127.70688 250.88672 122.71289 C 246.68278 119.86736 243.93237 118.50856 242.13477 118.54297 z M 53.681641 132.00391 C 50.636146 132.00991 38.605608 140.09598 38.154297 142.43945 C 37.950014 143.5002 38.592104 144.95974 39.582031 145.68359 C 40.571958 146.40745 41.517388 147 41.681641 147 C 42.496062 147 55.882044 138.00111 56.460938 137.06445 C 57.669762 135.10854 55.96151 131.99891 53.681641 132.00391 z M 265.27148 133.29688 C 264.87188 133.31277 264.52471 133.43442 264.18945 133.64453 C 260.8328 135.74824 261.64266 138.55003 266.69727 142.32227 C 272.48016 146.63803 276.34138 146.86028 276.80078 142.90625 C 277.05206 140.74355 276.17211 139.67241 271.49219 136.44922 C 268.15378 134.14997 266.47029 133.24907 265.27148 133.29688 z M 282.38867 145.18359 C 282.32957 145.18559 282.27579 145.19263 282.22461 145.20312 C 279.69094 145.70273 278.34023 148.71495 279.68555 150.86914 C 280.64851 152.41109 280.42607 153.38241 278.42969 156.32031 C 275.98478 159.91833 275.4345 162.10249 276.66602 163.33398 C 277.03268 163.70065 278.36607 164 279.62891 164 C 281.31345 164 283.00086 162.41645 285.96289 158.05469 C 288.18338 154.78487 289.85028 152.37499 289.80078 151.0918 C 289.71598 148.89224 284.22097 145.12329 282.38867 145.18359 z M 30.867188 146.25391 C 29.707141 146.24391 28.385062 146.6909 27.113281 147.79102 C 22.393062 151.87409 21.663837 153.14961 25.125 158.375 C 27.374525 161.77117 28.835082 163 30.625 163 C 33.682275 163 34.721956 160.22203 32.482422 156.87891 C 30.945135 154.58407 30.821722 154.12709 33.001953 151.97656 C 35.733275 149.28248 33.831749 146.27834 30.867188 146.25391 z M 272.41211 165 C 270.84439 165 258.04084 181.05578 258.01758 183.05078 C 258.00758 183.90328 258.53922 185.14078 259.19922 185.80078 C 259.85922 186.46078 260.8968 187 261.50391 187 C 263.86014 187 276 171.97327 276 169.05664 C 276 167.12628 274.11935 165 272.41211 165 z M 35.916016 167.17773 C 35.815487 167.17748 35.716423 167.18377 35.619141 167.19727 C 34.311354 167.38388 33.378631 168.35258 33.183594 169.72461 C 32.830819 172.20627 37.786511 180.03599 41.240234 182.45508 C 43.892158 184.31256 45.206402 184.39516 46.800781 182.80078 C 48.782996 180.81856 48.232896 179.45436 42.869141 173.03516 C 39.337174 168.80819 37.423938 167.1816 35.916016 167.17773 z M 52.146484 185 C 50.788766 185 48 187.87228 48 189.27148 C 48 189.8927 50.683121 193.0117 53.962891 196.20117 C 57.242658 199.39065 60.528449 202 61.263672 202 C 63.099745 202 65 199.94201 65 197.95312 C 65 196.21791 53.868597 185 52.146484 185 z M 254.36719 188.41016 C 252.80527 188.44666 250.3691 190.21367 244.98828 195.07227 C 237.1281 202.16961 235.82274 204.4243 238.19922 206.80078 C 240.27812 208.87968 241.603 208.18047 249.39844 200.90039 C 257.38759 193.43941 259.03627 189.78087 254.98828 188.49609 C 254.79476 188.43469 254.59032 188.40496 254.36719 188.41016 z M 69.595703 203.07617 C 68.63521 203.11007 67.989098 203.5868 67.638672 204.5 C 66.687733 206.97811 67.940055 208.78954 73.859375 213.49805 C 79.670157 218.12021 84.278049 219.32298 85.361328 216.5 C 86.290894 214.07759 85.284321 212.76743 78.634766 207.75 C 74.405695 204.55894 71.429371 203.01154 69.595703 203.07617 z M 230.46875 207.15039 C 229.2366 207.18989 227.77071 207.73073 226.25195 208.80078 C 224.7385 209.86709 221.63362 211.68222 219.35352 212.83594 C 215.00157 215.038 212 217.5548 212 219 C 212 219.47143 212.70798 220.56347 213.57227 221.42773 C 215.55634 223.41182 215.14109 223.46857 221.23438 220.38086 C 231.15764 215.35236 234.13016 212.91716 233.80078 210.08398 C 233.57053 208.10345 232.26959 207.09262 230.46875 207.15039 z M 204.98438 221.21875 C 203.84693 221.21975 202.47267 221.61724 200.78906 222.40234 C 198.97979 223.24605 195.74398 224.51382 193.59766 225.21875 C 188.83722 226.78225 187.0511 229.15245 188.92969 231.41602 C 190.652 233.49125 192.38206 233.41572 199.70312 230.94336 C 206.85747 228.5273 209.96022 225.74596 208.35156 223.19141 C 207.519 221.86929 206.4468 221.21692 204.98438 221.21875 z M 135.49609 228.18359 C 132.59164 228.48432 119 239.66175 119 241.87305 C 119 243.13874 122.21811 247.53141 125.39648 251.08398 C 126.03254 251.79493 126.66665 252.4701 127.27344 253.08203 C 128.48635 254.30532 129.58775 255.26775 130.37109 255.71484 C 131.54147 256.38286 132.78955 256.94534 133.14453 256.96484 C 134.83052 257.05744 147.53086 246.18777 147.75195 244.46289 C 148.05936 242.06453 138.16525 228.65571 135.74414 228.18945 C 135.67354 228.17585 135.58979 228.17399 135.49609 228.18359 z " />
    <path
       id="path6255"
       style="display:inline;fill:#ce9e9a;fill-opacity:1"
       d="m 157.80859,36.199219 c -1.77205,-0.04028 -5.19307,1.193167 -13.86523,4.392578 -13.68582,5.049092 -26.77902,11.463013 -29.47266,14.439453 -2.8217,3.117954 -7.64232,26.263693 -6.01758,28.892578 C 108.81875,84.515435 109.48431,85 109.93164,85 c 1.82275,0 16.89778,-5.309274 25.64258,-9.03125 11.30908,-4.813383 44.6516,-21.879521 45.61914,-23.349609 C 182.31274,50.918332 180.30699,49.302488 170.5,44 c -5.09369,-2.754081 -9.82092,-5.680949 -10.50391,-6.503906 -0.65575,-0.790139 -1.12426,-1.272706 -2.1875,-1.296875 z M 184.38086,58 c -0.78514,0 -4.90441,2.01217 -9.1543,4.472656 -4.24986,2.460488 -14.70157,7.972994 -23.22656,12.25 -12.66131,6.352205 -15.17647,8.005527 -15.29297,8.376953 -0.51839,1.652768 0.26367,4.681641 0.26367,4.681641 1.22773,3.626023 2.49818,6.21875 4.95703,6.21875 1.03528,0 3.89774,-1.729983 6.1543,-3.615234 1.23958,-1.035638 2.79355,-2.503404 3.40235,-3.117188 0.30274,-0.305224 1.85586,0.256414 3.76757,0.804688 1.77934,0.510307 4.31159,0.986358 4.39649,1.011718 0.11795,0.03524 0.42583,1.174361 0.63086,1.712891 0.35626,0.935741 0.76672,1.856672 1.82422,3.730469 1.6661,2.952194 3.55959,5.513856 4.53125,5.886716 2.18005,0.83656 6.12914,-1.929853 8.86523,-6.208982 0.94324,-1.475192 2.00586,-3.05664 2.00586,-3.05664 0.72525,-0.03577 2.09876,-0.0046 3.14844,-0.0039 1.07627,7e-4 2.34892,0.01337 3.23047,0.0098 0,0 0.5452,1.470196 1.12304,2.865234 0.68806,1.661134 2.57836,4.136138 4.19922,5.5 1.62086,1.363858 3.27392,2.480468 3.67383,2.480468 0.99518,0 4.95184,-4.257039 6.58594,-7.017577 0.66648,-1.125916 1.21679,-3.732422 1.21679,-3.732422 0,0 1.32168,0.0063 1.75782,-0.304688 1.43067,-1.020245 -0.81364,-3.653835 -5.05079,-11.699218 C 188.14942,61.699126 185.88402,58 184.38086,58 Z m -58.53125,35.400391 c -0.51885,0.06618 -0.98351,0.343857 -1.42969,0.8125 -1.37993,1.449408 -4.50849,18.816789 -6.89648,38.287109 -3.18733,25.98759 -8.69081,64.01804 -9.36524,64.7168 -0.38016,0.39387 -3.3526,0.0213 -6.60547,-0.82813 -6.956261,-1.81654 -10.566276,-0.84354 -10.531246,2.83985 0.03809,4.00429 4.62371,34.38911 5.373047,35.60156 C 96.851633,235.56969 100.15544,236 105.38477,236 h 8.26562 l 10.61719,-9.5 c 5.8394,-5.22499 11.04556,-9.5 11.56836,-9.5 0.52279,0 4.44458,4.61251 8.71679,10.25 4.27221,5.63749 8.70823,11.05906 9.85743,12.04688 1.69635,1.45813 3.21865,1.69098 8.08984,1.24218 12.84279,-1.18325 12.38498,-0.78568 18.8125,-16.28125 3.13863,-7.56663 5.70227,-14.4896 5.69727,-15.38476 -0.0137,-2.45105 -2.00021,-3.64461 -8.45313,-5.07617 l -5.85352,-1.29883 0.19532,-8.99805 c 0.10734,-4.94973 0.61448,-21.82502 1.12695,-37.5 1.08132,-33.07449 0.89844,-49.05664 0.89844,-49.05664 -0.0303,-1.31537 -1.14396,-1.92223 -2.70703,-1.65625 -1.07368,0.18271 -2.44729,1.28811 -3.72657,2.15625 -5.52228,3.74753 -7.01222,3.34379 -11.07031,-3 -1.9552,-3.05648 -4.19051,-5.80172 -4.9668,-6.09961 -0.77628,-0.297889 -3.67732,0.85228 -6.44726,2.55664 -2.76994,1.70436 -5.90194,3.09961 -6.96094,3.09961 -1.07812,0 -3.75602,-2.16886 -6.08398,-4.929688 -3.50964,-4.162222 -5.55479,-5.868448 -7.11133,-5.669921 z m 56.14062,13.871089 c -0.34853,-0.0327 -0.59835,0.003 -0.71679,0.1211 -0.7637,0.76371 -1.64822,21.27763 -2.68946,62.35742 -0.33806,13.33749 -0.93646,24.1962 0.20704,24.25 2.57894,0.12139 10.8439,-7.64014 27.62304,-22.17383 4.16305,-3.60592 3.2072,-4.89141 -7.91992,-10.66211 -11.66822,-6.05131 -11.95254,-7.31112 -3.5332,-15.63281 3.3213,-3.28278 6.03906,-6.30265 6.03906,-6.71094 0,-1.40718 -4.19874,-4.64809 -10.0918,-7.78906 -5.28927,-2.81916 -7.2807,-5.219 -5.1582,-6.2168 0.4125,-0.19392 2.7429,-2.4683 5.17969,-5.05468 4.20312,-4.4612 4.34475,-4.79837 2.75,-6.56055 -1.91093,-2.11155 -9.2497,-5.69861 -11.68946,-5.92774 z M 135.49609,228.18359 C 132.59161,228.48432 119,239.66175 119,241.87305 c 0,2.02513 8.2377,12.05338 11.37109,13.84179 1.17038,0.66802 2.41846,1.2305 2.77344,1.25 1.68599,0.0926 14.38633,-10.77707 14.60742,-12.50195 0.30741,-2.39836 -9.5867,-15.80718 -12.00781,-16.27344 -0.0706,-0.0136 -0.15435,-0.0156 -0.24805,-0.006 z"
       inkscape:label="BACKGROUND" />
    <path
       id="path6251"
       style="display:inline;fill:#f6f6e1;fill-opacity:1;stroke:none"
       d="m 218.46094,103.09961 c -1.06967,0.0401 -1.77616,0.55679 -2.15235,1.53711 -0.95069,2.47745 0.70063,4.41099 8.20703,9.61328 7.26291,5.03353 9.48169,5.66501 11.47461,3.26367 1.91967,-2.31306 0.73019,-3.87108 -7.16015,-9.37695 -4.95525,-3.45777 -8.32705,-5.11375 -10.36914,-5.03711 z m -120.740237,0.19727 c -0.841495,-0.0218 -1.771622,0.1942 -2.693359,0.6875 -3.624057,1.93952 -11.504201,7.37844 -12.261719,8.46289 -1.079331,1.54514 -0.939196,2.23463 0.806641,3.98046 0.864284,0.86429 1.908879,1.57227 2.322265,1.57227 0.413386,0 3.980411,-2.06633 7.927735,-4.5918 C 99.373188,109.85678 101,108.28707 101,106.47656 c 0,-1.93099 -1.428008,-3.1317 -3.279297,-3.17968 z m -21.873047,13.89257 c -1.398515,0.005 -3.65324,1.34242 -8.162109,4.36719 -7.315481,4.90758 -8.602677,6.63527 -6.675781,8.95703 1.885473,2.27186 3.387103,1.85941 10.980468,-3.00781 7.249585,-4.64687 7.716554,-5.31742 5.97461,-8.57227 -0.603901,-1.1284 -1.160309,-1.74781 -2.117188,-1.74414 z m 166.287114,1.35352 c -1.22995,0.0235 -2.0145,0.69838 -2.51172,1.99414 -0.93934,2.44788 0.15552,3.77324 7.15234,8.65039 7.2058,5.0228 9.28755,5.64828 11.18555,3.36133 2.02888,-2.44465 0.30383,-4.84195 -7.07422,-9.83594 -4.20394,-2.84553 -6.95434,-4.20433 -8.75195,-4.16992 z M 53.681641,132.00391 c -3.045498,0.006 -15.076032,8.09206 -15.527344,10.43554 -0.204283,1.06075 0.437806,2.52029 1.427734,3.24414 0.989928,0.72386 1.935357,1.31641 2.09961,1.31641 0.814422,0 14.200403,-8.99889 14.779297,-9.93555 1.208826,-1.95592 -0.499425,-5.06554 -2.779297,-5.06054 z m 211.589839,1.29297 c -0.3996,0.0159 -0.74677,0.13754 -1.08203,0.34765 -3.35666,2.10371 -2.54679,4.9055 2.50782,8.67774 5.7829,4.31577 9.64411,4.53801 10.10351,0.58398 0.25128,-2.1627 -0.62866,-3.23384 -5.30859,-6.45703 -3.33841,-2.29925 -5.0219,-3.20015 -6.22071,-3.15234 z m 17.11719,11.88671 c -0.0591,0.002 -0.11288,0.009 -0.16406,0.0195 -2.53367,0.49961 -3.88438,3.51183 -2.53906,5.66602 0.96296,1.54195 0.74052,2.51326 -1.25586,5.45117 -2.44491,3.59802 -2.99519,5.78217 -1.76367,7.01367 0.36666,0.36667 1.70005,0.66602 2.96289,0.66602 1.68455,0 3.37195,-1.58354 6.33398,-5.94531 2.22049,-3.26982 3.88739,-5.6797 3.83789,-6.96289 -0.0848,-2.19956 -5.57981,-5.96851 -7.41211,-5.90821 z m -251.521482,1.07032 c -1.160048,-0.01 -2.482125,0.43699 -3.753907,1.53711 -4.720224,4.08308 -5.449447,5.35858 -1.988281,10.58398 2.249527,3.39617 3.71008,4.625 5.5,4.625 3.057278,0 4.096958,-2.77796 1.857422,-6.12109 -1.537288,-2.29484 -1.660702,-2.75182 0.519531,-4.90235 2.731325,-2.69409 0.829799,-5.69822 -2.134765,-5.72265 z M 272.41211,165 c -1.56772,0 -14.37127,16.05578 -14.39453,18.05078 -0.01,0.8525 0.52164,2.09 1.18164,2.75 0.66,0.66 1.69758,1.19922 2.30469,1.19922 C 263.86015,187 276,171.97327 276,169.05664 276,167.12628 274.11935,165 272.41211,165 Z m -236.496094,2.17773 c -0.100529,-2.5e-4 -0.199593,0.006 -0.296875,0.0195 -1.307788,0.18661 -2.24051,1.15531 -2.435547,2.52734 -0.352775,2.48166 4.602913,10.31138 8.05664,12.73047 2.651926,1.85748 3.966166,1.94008 5.560547,0.3457 1.982217,-1.98222 1.432121,-3.34641 -3.93164,-9.76562 -3.53197,-4.22697 -5.445201,-5.85356 -6.953125,-5.85743 z M 52.146484,185 C 50.788764,185 48,187.87227 48,189.27148 c 0,0.62122 2.683118,3.74021 5.962891,6.92969 C 57.242662,199.39065 60.528448,202 61.263672,202 63.099747,202 65,199.94201 65,197.95312 65,196.2179 53.868598,185 52.146484,185 Z m 202.220706,3.41016 c -1.56192,0.0365 -3.99809,1.80351 -9.37891,6.66211 -7.86019,7.09735 -9.16554,9.35203 -6.78906,11.72851 2.0789,2.0789 3.40377,1.3797 11.19922,-5.90039 7.98916,-7.46099 9.63783,-11.11952 5.58984,-12.4043 -0.19352,-0.0614 -0.39796,-0.0911 -0.62109,-0.0859 z M 69.595703,203.07617 c -0.960494,0.0339 -1.606605,0.51063 -1.957031,1.42383 -0.95094,2.47811 0.301377,4.28954 6.220703,8.99805 5.810788,4.62217 10.418673,5.82493 11.501953,3.00195 0.929567,-2.42241 -0.077,-3.73256 -6.726562,-8.75 -4.229075,-3.19106 -7.205393,-4.73846 -9.039063,-4.67383 z m 160.873047,4.07422 c -1.23215,0.0395 -2.69804,0.58034 -4.2168,1.65039 -1.51345,1.06631 -4.61832,2.88144 -6.89843,4.03516 C 215.00157,215.038 212,217.5548 212,219 c 0,0.47143 0.70798,1.56346 1.57227,2.42773 1.98408,1.98409 1.56882,2.04084 7.66211,-1.04687 9.92327,-5.0285 12.89578,-7.4637 12.5664,-10.29688 -0.23025,-1.98054 -1.53119,-2.99136 -3.33203,-2.93359 z m -25.48437,14.06836 c -1.13745,0.001 -2.51171,0.39849 -4.19532,1.18359 -1.80927,0.84371 -5.04507,2.11148 -7.1914,2.81641 -4.76044,1.5635 -6.54656,3.9337 -4.66797,6.19727 1.72231,2.07524 3.45236,1.9997 10.77343,-0.47266 7.15435,-2.41606 10.2571,-5.19739 8.64844,-7.75195 -0.83256,-1.32212 -1.90475,-1.97449 -3.36718,-1.97266 z"
       inkscape:label="dashes"
       sodipodi:insensitive="true" />
    <path
       id="path8554"
       style="display:inline;fill:#f6f6e1;fill-opacity:1"
       inkscape:label="WHITE"
       d="M 157.80859 36.199219 C 156.03656 36.158939 152.6155 37.392392 143.94336 40.591797 C 130.25756 45.640879 117.16434 52.054816 114.4707 55.03125 C 113.77395 55.801152 112.95595 57.806445 112.14258 60.408203 C 112.48147 60.707278 112.90844 60.893876 113.4707 60.814453 C 114.56029 60.660541 130.32614 54.979095 131.36328 54.162109 C 131.98857 53.66955 134.975 52.342488 138 51.212891 C 141.025 50.08329 144.85 48.475168 146.5 47.640625 C 148.15 46.806081 151.525 45.222072 154 44.121094 C 158.743 42.011212 161.54362 40.550612 162.39453 39.244141 C 161.1985 38.465952 160.25174 37.804133 159.99609 37.496094 C 159.34034 36.705957 158.87183 36.223388 157.80859 36.199219 z M 137.62695 82.369141 C 137.05416 82.745755 136.7395 82.996094 136.70703 83.099609 C 136.18864 84.752375 136.9707 87.78125 136.9707 87.78125 C 138.19843 91.407265 139.4689 94 141.92773 94 C 142.96301 94 145.82547 92.270013 148.08203 90.384766 C 149.32161 89.34913 150.87558 87.881362 151.48438 87.267578 C 151.51277 87.238948 151.60267 87.252391 151.65234 87.238281 L 151.70508 87.185547 C 151.70508 87.185547 145.59165 85.745418 137.62695 82.369141 z M 159.56445 89.066406 C 159.57045 89.067706 159.64614 89.083304 159.64844 89.083984 C 159.76639 89.119224 160.07427 90.258347 160.2793 90.796875 C 160.63556 91.732614 161.04602 92.653551 162.10352 94.527344 C 163.7696 97.479532 165.66311 100.0412 166.63477 100.41406 C 168.8148 101.25062 172.76391 98.484199 175.5 94.205078 C 176.44324 92.72989 177.50586 91.148437 177.50586 91.148438 C 177.54856 91.146338 177.64436 91.150137 177.69141 91.148438 C 177.64221 91.146338 168.80401 90.768734 159.56445 89.066406 z M 183.88672 91.15625 C 183.88761 91.15865 184.43045 92.625644 185.00781 94.019531 C 185.69587 95.680663 187.58617 98.155673 189.20703 99.519531 C 190.82789 100.88339 192.48095 102 192.88086 102 C 193.87604 102 197.8327 97.742954 199.4668 94.982422 C 200.13147 93.859556 200.67867 91.271856 200.68164 91.257812 C 200.65374 91.258516 192.34584 91.466522 183.88672 91.15625 z M 125.84961 93.400391 C 125.33076 93.466571 124.8661 93.744248 124.41992 94.212891 C 123.03999 95.662295 119.91143 113.02972 117.52344 132.5 C 114.33611 158.48753 108.83263 196.51804 108.1582 197.2168 C 107.77804 197.61067 104.8056 197.2381 101.55273 196.38867 C 94.596491 194.57213 90.986454 195.54513 91.021484 199.22852 C 91.059574 203.23279 95.645196 233.61763 96.394531 234.83008 C 96.851633 235.56969 100.15544 236 105.38477 236 L 113.65039 236 L 124.26758 226.5 C 130.10696 221.27503 135.31314 217 135.83594 217 C 136.35873 217 140.28054 221.61253 144.55273 227.25 C 148.82494 232.88747 153.26096 238.30906 154.41016 239.29688 C 156.10649 240.75499 157.62881 240.98786 162.5 240.53906 C 175.34277 239.35581 174.885 239.75336 181.3125 224.25781 C 184.45113 216.6912 187.01477 209.76821 187.00977 208.87305 C 186.99607 206.422 185.00954 205.22842 178.55664 203.79688 L 172.70312 202.49805 L 172.89844 193.5 C 173.00578 188.55027 173.51292 171.67494 174.02539 156 C 175.10671 122.92557 174.92383 106.94336 174.92383 106.94336 C 174.89353 105.62799 173.77987 105.02113 172.2168 105.28711 C 171.45013 105.41757 170.52859 106.03062 169.59961 106.67969 C 168.76953 112.54219 168.3878 122.81906 167.73047 138.76367 C 167.36775 147.56182 167.0125 158.48324 166.77344 163.1582 C 165.51275 187.81103 164.83024 203.88802 165.4082 205.70898 C 165.90015 207.25897 167.4876 208.03292 171.99609 208.91992 C 175.26331 209.56271 178.15903 210.44957 178.43164 210.89062 C 178.94831 211.72661 173.31409 228.08185 171.36328 231.4082 C 170.53512 232.82031 168.84778 233.40933 164.87109 233.67578 C 159.84809 234.01232 159.34365 233.832 157.08398 230.9082 C 153.85032 226.66935 146.9668 217.5 146.9668 217.5 C 143.57746 213.1 140.28616 209.1697 139.65234 208.76562 C 137.38754 207.32176 132.31538 207.99433 130.52148 209.97656 C 128.05151 212.64186 123.61759 216.86982 119.61328 220.44922 L 112.92773 226.84961 C 111.9299 227.80489 110.98559 228.40125 110.46094 228.40625 C 109.62081 228.41425 106.97926 228.375 105.88281 228.375 C 104.28391 228.375 102.2295 228.33789 101.73242 228.33789 C 100.7216 228.33789 100.28145 227.94228 100.24805 226.88477 L 99.310547 215.75 C 98.744185 209.01254 98.026828 203.69186 98.625 203.09961 C 98.997125 202.73117 101.98717 203.19901 105.67773 203.81055 C 113.7966 205.15589 114.56886 204.67959 115.58008 197.69922 C 115.99437 194.83939 116.45287 191.825 116.59961 191 C 116.99356 188.78508 122.52094 148.83312 126.00781 123 C 127.72765 110.25842 129.03457 100.19714 129.24609 95.138672 C 127.84325 93.889514 126.74429 93.28628 125.84961 93.400391 z M 182.86719 107.45508 L 185.04883 125.48438 C 185.17122 125.22525 185.37419 124.99112 185.75 124.81445 C 186.1625 124.62053 188.4929 122.34613 190.92969 119.75977 C 195.13279 115.29857 195.27444 114.9614 193.67969 113.19922 C 191.955 111.29346 185.84247 108.21117 182.86719 107.45508 z M 185.19531 126.69531 L 192.1582 184.21094 C 196.0629 180.83354 200.55071 176.90488 206.41406 171.82617 C 210.57711 168.22027 209.62124 166.93476 198.49414 161.16406 C 186.82594 155.11277 186.54162 153.85292 194.96094 145.53125 C 198.28222 142.24847 201 139.2286 201 138.82031 C 201 137.41313 196.80126 134.17222 190.9082 131.03125 C 187.79145 129.37003 185.85488 127.86426 185.19531 126.69531 z M 135.49609 228.18359 C 132.59163 228.48432 119 239.66175 119 241.87305 C 119 243.89816 127.23772 253.92645 130.37109 255.71484 C 131.54147 256.38286 132.78955 256.94534 133.14453 256.96484 C 134.83052 257.05744 147.53086 246.18777 147.75195 244.46289 C 148.05936 242.06453 138.16525 228.65571 135.74414 228.18945 C 135.67354 228.17585 135.58979 228.17399 135.49609 228.18359 z M 134.5293 236.79883 C 134.70998 236.82549 134.88131 236.91468 135.06445 237.06641 C 135.2476 237.21814 135.44285 237.43166 135.66797 237.70703 C 136.11821 238.25777 136.69164 239.0551 137.54688 240.0918 C 138.13325 240.80259 138.56955 241.32916 138.86914 241.74609 C 139.01893 241.95456 139.13393 242.13521 139.2168 242.29883 C 139.29966 242.46245 139.35003 242.60825 139.36914 242.74609 C 139.38825 242.88394 139.3774 243.01338 139.33594 243.14453 C 139.29448 243.27569 139.22386 243.4092 139.125 243.55273 C 138.92729 243.83981 138.61721 244.17002 138.20898 244.62109 C 137.87945 244.96777 137.49003 245.35048 137.07617 245.72656 C 136.66231 246.10265 136.22496 246.47296 135.79492 246.79297 C 135.36489 247.11298 134.94251 247.3821 134.56445 247.56055 C 134.37542 247.64977 134.19841 247.7161 134.03516 247.75391 C 133.8719 247.79171 133.72272 247.80164 133.59375 247.77734 C 133.4305 247.74659 133.24842 247.67016 133.05078 247.55664 C 132.85315 247.44313 132.64025 247.29194 132.41797 247.11328 C 131.97341 246.75596 131.48862 246.28566 131.00391 245.77344 C 130.03449 244.74898 129.06304 243.55649 128.40039 242.75781 C 128.35139 242.69491 128.29257 242.61475 128.24609 242.51758 C 128.19961 242.42041 128.16502 242.30707 128.16406 242.17773 C 128.1631 242.0484 128.1957 241.90353 128.2832 241.74414 C 128.37071 241.58475 128.51351 241.40999 128.73242 241.22266 L 130.68164 239.54102 C 131.81325 238.56562 132.59492 237.85346 133.18359 237.39844 C 133.47793 237.17092 133.72362 237.00788 133.94141 236.9082 C 134.15919 236.80853 134.34861 236.77217 134.5293 236.79883 z " />
  </g>
</svg>
