<?xml version="1.0" encoding="UTF-8" standalone="no"?>
<!-- Created with Inkscape (http://www.inkscape.org/) -->

<svg
   version="1.1"
   id="svg2"
   width="300"
   height="300"
   viewBox="0 0 300 300"
   sodipodi:docname="gratitude_earrings.svg"
   inkscape:version="1.2.2 (732a01da63, 2022-12-09)"
   xmlns:inkscape="http://www.inkscape.org/namespaces/inkscape"
   xmlns:sodipodi="http://sodipodi.sourceforge.net/DTD/sodipodi-0.dtd"
   xmlns:xlink="http://www.w3.org/1999/xlink"
   xmlns="http://www.w3.org/2000/svg"
   xmlns:svg="http://www.w3.org/2000/svg">
  <defs
     id="defs6">
    <linearGradient
       inkscape:collect="always"
       id="linearGradient4866">
      <stop
         style="stop-color:#d7afab;stop-opacity:1;"
         offset="0"
         id="stop4862" />
      <stop
         style="stop-color:#985661;stop-opacity:1;"
         offset="1"
         id="stop4864" />
    </linearGradient>
    <radialGradient
       inkscape:collect="always"
       xlink:href="#linearGradient4866"
       id="radialGradient4868"
       cx="106.95942"
       cy="176.6734"
       fx="106.95942"
       fy="176.6734"
       r="81.001288"
       gradientTransform="matrix(3.3581154,0.05178147,-0.02380868,1.5440315,-206.84127,-87.859053)"
       gradientUnits="userSpaceOnUse" />
    <filter
       inkscape:collect="always"
       style="color-interpolation-filters:sRGB"
       id="filter10699"
       x="-0.23012049"
       y="-0.16822044"
       width="1.458701"
       height="1.3364657">
      <feGaussianBlur
         inkscape:collect="always"
         stdDeviation="1.9494"
         id="feGaussianBlur10701" />
    </filter>
    <filter
       inkscape:collect="always"
       style="color-interpolation-filters:sRGB"
       id="filter11430"
       x="-0.34072032"
       y="-0.17346872"
       width="1.6814554"
       height="1.3414904">
      <feGaussianBlur
         inkscape:collect="always"
         stdDeviation="1.9494"
         id="feGaussianBlur11432" />
    </filter>
    <filter
       inkscape:collect="always"
       style="color-interpolation-filters:sRGB"
       id="filter11435"
       x="-0.066895007"
       y="-0.096763675"
       width="1.1337387"
       height="1.193527">
      <feGaussianBlur
         inkscape:collect="always"
         stdDeviation="1.9494"
         id="feGaussianBlur11437" />
    </filter>
  </defs>
  <sodipodi:namedview
     id="namedview4"
     pagecolor="#ffffff"
     bordercolor="#000000"
     borderopacity="0.25"
     inkscape:showpageshadow="2"
     inkscape:pageopacity="0.0"
     inkscape:pagecheckerboard="0"
     inkscape:deskcolor="#d1d1d1"
     showgrid="false"
     inkscape:zoom="3.3416667"
     inkscape:cx="148.57855"
     inkscape:cy="131.37157"
     inkscape:window-width="2560"
     inkscape:window-height="1369"
     inkscape:window-x="1912"
     inkscape:window-y="-8"
     inkscape:window-maximized="1"
     inkscape:current-layer="g8" />
  <g
     inkscape:groupmode="layer"
     inkscape:label="Image"
     id="g8">
    <path
       id="path4095"
       style="display:inline;fill:none;fill-opacity:1;stroke:#753f4b;stroke-width:12.3;stroke-dasharray:none;filter:url(#filter11430)"
       d="m 68.337891,110.46484 c -0.28684,0.0164 -0.603678,0.0833 -0.916016,0.20313 -0.8329,0.31962 -2.618336,2.75885 -3.966797,5.41992 -1.348461,2.66106 -3.872928,6.45589 -5.609375,8.43359 -1.736447,1.97771 -4.804493,4.43745 -6.818359,5.46485 -2.013866,1.0274 -4.260531,2.59066 -4.994141,3.47461 -1.112651,1.34066 -1.109315,2.02822 0.02539,4.14844 0.748155,1.39793 2.740313,4.13973 4.427734,6.09179 2.237127,2.58798 3.87362,3.54702 6.041016,3.54102 0.871695,-0.002 1.898314,-0.4018 2.861702,0.0428 1.320977,0.60955 2.564657,2.62633 4.264657,4.18761 2.325209,2.13548 4.79082,3.52745 5.389266,3.52745 0.598446,0 1.988748,-0.48207 3.08789,-1.07031 1.617562,-0.8657 1.867615,-1.6757 1.316407,-4.25 -0.374549,-1.74926 -0.841603,-3.3564 -1.039063,-3.57227 -0.19746,-0.21588 -1.053736,0.18439 -1.902344,0.88867 -1.274314,1.05759 -1.889063,0.96719 -3.52539,-0.51367 -1.089681,-0.9862 -2.356483,-2.67992 -2.345181,-3.32734 0.01063,-0.60873 1.108761,-2.3212 2.01901,-3.32701 0.517232,-0.57153 1.379882,-1.4938 2.119804,-1.82963 0.562217,-0.25517 1.201648,0.028 1.460274,0.002 1.636463,-0.16737 1.825596,-0.47196 1.240234,-3.25 -0.376643,-1.7875 -0.805935,-3.88515 -1.340798,-4.43515 -0.641314,-0.65946 -2.370011,0.4224 -4.461936,2.81796 -1.74469,1.99794 -4.34638,4.36953 -5.78125,5.27149 -2.316865,1.45638 -2.831705,1.5282 -3.941587,0.19087 -0.312754,-0.37685 -0.912356,-1.02094 -0.86344,-1.46505 0.114868,-1.0429 1.231448,-1.81626 5.412107,-5.35981 2.329439,-1.97445 4.186377,-4.25578 5.724309,-6.38778 0.341346,-0.4732 1.498339,-2.08832 1.860691,-2.59899 0.66,-0.93016 1.48596,-0.77188 1.822706,-1.17643 1.443034,-1.73362 1.065604,-2.84289 0.563339,-5.87859 -0.384772,-2.32557 -0.886065,-4.54707 -1.115234,-4.93555 -0.143231,-0.2428 -0.537559,-0.35551 -1.015625,-0.32813 z m 0.95,46.82044 -3.26836,3.42566 C 63.809136,163.02714 62,165.3417 62,165.85352 c 0,0.51182 1.462502,2.75524 3.25,4.98632 1.787498,2.23109 3.774732,4.08099 4.416016,4.10938 0.641283,0.0284 2.553785,-1.70211 4.25,-3.84375 1.696214,-2.14165 3.076559,-4.50415 3.068359,-5.25 C 76.976193,165.10961 75.410324,162.7 73.503906,160.5 l -2.720976,-3.13947 c -0.585593,-0.60262 -0.995768,-0.66514 -1.495039,-0.0753 z"
       inkscape:label="LEFT STROKE"
       sodipodi:nodetypes="ccsssssscsssssssssssssssssssssssscccsssssccccc" />
    <path
       id="path9232"
       style="display:inline;fill:#f6f6e1;fill-opacity:1"
       d="m 68.337891,110.46484 c -0.28684,0.0164 -0.603678,0.0833 -0.916016,0.20313 -0.8329,0.31962 -2.618336,2.75885 -3.966797,5.41992 -1.348461,2.66106 -3.872928,6.45589 -5.609375,8.43359 -1.736447,1.97771 -4.804493,4.43745 -6.818359,5.46485 -2.013866,1.0274 -4.260531,2.59066 -4.994141,3.47461 -1.112651,1.34066 -1.109315,2.02822 0.02539,4.14844 0.748155,1.39793 2.740313,4.13973 4.427734,6.09179 2.237127,2.58798 3.87362,3.54702 6.041016,3.54102 0.871695,-0.002 1.898314,-0.4018 2.861702,0.0428 1.320977,0.60955 2.564657,2.62633 4.264657,4.18761 2.325209,2.13548 4.79082,3.52745 5.389266,3.52745 0.598446,0 1.988748,-0.48207 3.08789,-1.07031 1.617562,-0.8657 1.867615,-1.6757 1.316407,-4.25 -0.374549,-1.74926 -0.841603,-3.3564 -1.039063,-3.57227 -0.19746,-0.21588 -1.053736,0.18439 -1.902344,0.88867 -1.274314,1.05759 -1.889063,0.96719 -3.52539,-0.51367 -1.089681,-0.9862 -2.356483,-2.67992 -2.345181,-3.32734 0.01063,-0.60873 1.108761,-2.3212 2.01901,-3.32701 0.517232,-0.57153 1.379882,-1.4938 2.119804,-1.82963 0.562217,-0.25517 1.201648,0.028 1.460274,0.002 1.636463,-0.16737 1.825596,-0.47196 1.240234,-3.25 -0.376643,-1.7875 -0.805935,-3.88515 -1.340798,-4.43515 -0.641314,-0.65946 -2.370011,0.4224 -4.461936,2.81796 -1.74469,1.99794 -4.34638,4.36953 -5.78125,5.27149 -2.316865,1.45638 -2.831705,1.5282 -3.941587,0.19087 -0.312754,-0.37685 -0.912356,-1.02094 -0.86344,-1.46505 0.114868,-1.0429 1.231448,-1.81626 5.412107,-5.35981 2.329439,-1.97445 4.186377,-4.25578 5.724309,-6.38778 0.341346,-0.4732 1.498339,-2.08832 1.860691,-2.59899 0.66,-0.93016 1.48596,-0.77188 1.822706,-1.17643 1.443034,-1.73362 1.065604,-2.84289 0.563339,-5.87859 -0.384772,-2.32557 -0.886065,-4.54707 -1.115234,-4.93555 -0.143231,-0.2428 -0.537559,-0.35551 -1.015625,-0.32813 z m 0.95,46.82044 -3.26836,3.42566 C 63.809136,163.02714 62,165.3417 62,165.85352 c 0,0.51182 1.462502,2.75524 3.25,4.98632 1.787498,2.23109 3.774732,4.08099 4.416016,4.10938 0.641283,0.0284 2.553785,-1.70211 4.25,-3.84375 1.696214,-2.14165 3.076559,-4.50415 3.068359,-5.25 C 76.976193,165.10961 75.410324,162.7 73.503906,160.5 l -2.720976,-3.13947 c -0.585593,-0.60262 -0.995768,-0.66514 -1.495039,-0.0753 z"
       inkscape:label="left"
       sodipodi:nodetypes="ccsssssscsssssssssssssssssssssssscccsssssccccc" />
    <path
       id="path4093"
       style="display:inline;fill:none;fill-opacity:1;stroke:#753f4b;stroke-width:12.3;stroke-dasharray:none;filter:url(#filter11435)"
       d="m 230,85 c -1.0613,0 -2.39549,0.869752 -2.96484,1.933594 -0.56935,1.063841 -0.6611,10.986461 -0.6611,14.552636 0,3.56616 -0.84862,11.6852 -0.51477,12.55518 0.99649,0.58937 5.79781,2.38288 6.71858,1.56361 0.70309,-0.77836 1.39203,-16.344195 1.42213,-18.671426 0.0433,-3.350863 -0.46581,-8.936159 -1.03516,-10 C 232.39549,85.869752 231.0613,85 230,85 Z M 75.074219,85.193359 C 74.636201,85.173891 74.18607,85.431742 73.550781,85.958984 72.50447,86.827347 72,88.981474 72,92.587891 c 0,2.938743 0.638134,10.195549 1.417969,16.126949 0.779834,5.93141 1.669651,17.08517 1.978515,24.78516 0.308866,7.69999 1.259827,16.66277 2.113282,19.91797 0.853453,3.25519 2.998127,8.65519 4.765625,12 1.792314,3.39176 6.357871,9.24588 10.322265,13.23437 5.531056,5.56469 9.022314,8.06405 15.734374,11.26758 4.74428,2.26435 11.22243,4.74657 14.39649,5.51563 3.31333,0.80279 11.30775,1.42845 18.77148,1.46875 9.04559,0.0488 15.75741,-0.49908 22.06445,-1.80078 4.98534,-1.02892 12.4358,-3.43004 16.55664,-5.33399 4.12086,-1.90395 9.94174,-5.03698 12.93555,-6.96289 2.9938,-1.92591 7.8827,-5.70693 10.86524,-8.40234 2.98254,-2.69541 7.16541,-7.10337 9.29296,-9.79492 0,0 3.16256,-2.65699 3.07368,-4.73388 -0.0445,-1.03903 -1.34321,-2.43214 -1.34321,-2.43214 -1.17476,-1.25048 -3.21634,-2.54497 -4.53906,-2.87695 -2.02283,-0.50769 -3.47435,0.52919 -9.13086,6.52539 -3.69875,3.92087 -9.4702,9.08765 -12.82617,11.48242 -3.35596,2.39477 -9.2175,5.75407 -13.02539,7.46484 -3.80791,1.71077 -10.74883,4.02847 -15.42383,5.15039 -7.17073,1.72084 -10.6112,1.95751 -22,1.51367 -9.06859,-0.35341 -15.14126,-1.09908 -18.5,-2.27148 -2.75,-0.95992 -7.25,-3.18607 -10,-4.94531 -2.75,-1.75923 -7.60595,-5.94836 -10.791016,-9.31055 -3.185063,-3.36219 -6.866367,-8.48986 -8.18164,-11.39453 C 89.212071,155.87658 87.655536,149.9 87.070312,145.5 86.485088,141.1 85.560048,133.22499 85.013672,128 84.467294,122.77501 82.6513,111.52649 80.978516,103.00391 79.305732,94.481331 77.299699,86.870011 76.519531,86.089844 75.938215,85.508528 75.512236,85.212828 75.074219,85.193359 Z"
       inkscape:label="HEAD STROKE"
       sodipodi:nodetypes="sssccsssssssssssssssssscscsssssssssssssss" />
    <path
       id="path9230"
       style="display:inline;fill:url(#radialGradient4868);fill-opacity:1"
       d="m 230,85 c -1.0613,0 -2.39549,0.869752 -2.96484,1.933594 -0.56935,1.063841 -0.6611,10.986461 -0.6611,14.552636 0,3.56616 -0.84862,11.6852 -0.51477,12.55518 0.99649,0.58937 5.79781,2.38288 6.71858,1.56361 0.70309,-0.77836 1.39203,-16.344195 1.42213,-18.671426 0.0433,-3.350863 -0.46581,-8.936159 -1.03516,-10 C 232.39549,85.869752 231.0613,85 230,85 Z M 75.074219,85.193359 C 74.636201,85.173891 74.18607,85.431742 73.550781,85.958984 72.50447,86.827347 72,88.981474 72,92.587891 c 0,2.938743 0.638134,10.195549 1.417969,16.126949 0.779834,5.93141 1.669651,17.08517 1.978515,24.78516 0.308866,7.69999 1.259827,16.66277 2.113282,19.91797 0.853453,3.25519 2.998127,8.65519 4.765625,12 1.792314,3.39176 6.357871,9.24588 10.322265,13.23437 5.531056,5.56469 9.022314,8.06405 15.734374,11.26758 4.74428,2.26435 11.22243,4.74657 14.39649,5.51563 3.31333,0.80279 11.30775,1.42845 18.77148,1.46875 9.04559,0.0488 15.75741,-0.49908 22.06445,-1.80078 4.98534,-1.02892 12.4358,-3.43004 16.55664,-5.33399 4.12086,-1.90395 9.94174,-5.03698 12.93555,-6.96289 2.9938,-1.92591 7.8827,-5.70693 10.86524,-8.40234 2.98254,-2.69541 7.16541,-7.10337 9.29296,-9.79492 0,0 3.16256,-2.65699 3.07368,-4.73388 -0.0445,-1.03903 -1.34321,-2.43214 -1.34321,-2.43214 -1.17476,-1.25048 -3.21634,-2.54497 -4.53906,-2.87695 -2.02283,-0.50769 -3.47435,0.52919 -9.13086,6.52539 -3.69875,3.92087 -9.4702,9.08765 -12.82617,11.48242 -3.35596,2.39477 -9.2175,5.75407 -13.02539,7.46484 -3.80791,1.71077 -10.74883,4.02847 -15.42383,5.15039 -7.17073,1.72084 -10.6112,1.95751 -22,1.51367 -9.06859,-0.35341 -15.14126,-1.09908 -18.5,-2.27148 -2.75,-0.95992 -7.25,-3.18607 -10,-4.94531 -2.75,-1.75923 -7.60595,-5.94836 -10.791016,-9.31055 -3.185063,-3.36219 -6.866367,-8.48986 -8.18164,-11.39453 C 89.212071,155.87658 87.655536,149.9 87.070312,145.5 86.485088,141.1 85.560048,133.22499 85.013672,128 84.467294,122.77501 82.6513,111.52649 80.978516,103.00391 79.305732,94.481331 77.299699,86.870011 76.519531,86.089844 75.938215,85.508528 75.512236,85.212828 75.074219,85.193359 Z"
       inkscape:label="head"
       sodipodi:nodetypes="sssccsssssssssssssssssscscsssssssssssssss" />
    <path
       id="path4097"
       style="display:inline;fill:none;fill-opacity:1;stroke:#753f4b;stroke-width:12.3;stroke-dasharray:none;filter:url(#filter10699)"
       inkscape:label="RIGHT STROKE"
       d="m 229.03516,111.62891 c -0.43302,-0.002 -0.84346,0.048 -1.20508,0.14257 -1.2797,0.33465 -2.7329,1.58472 -4.41406,5.35743 -1.21311,2.72232 -3.82433,6.40673 -5.55079,8.37304 -1.72644,1.96632 -5.06258,4.70122 -7.41211,6.07813 -2.3495,1.37691 -4.17299,2.0244 -4.88476,4.10156 -0.30539,0.89123 0.13038,2.774 1.03906,4.20898 0.90867,1.43501 3.0269,3.62227 4.4336,5.13477 1.73195,1.86223 2.55145,2.97461 5.44336,2.97461 1.0055,0 2.28867,-0.2168 3.23437,0.24805 1.22748,0.60335 2.14212,2.07332 3.78125,3.75195 2.14824,2.2 3.68926,3.9747 5.72461,4 2.05786,0.0256 3.77344,-1.80001 6.16016,-4 1.08413,-0.99933 2.27153,-2.72757 3.21093,-3.46289 0.77207,-0.60434 1.55138,-0.52333 4.39063,-0.28516 1.65523,0.13885 2.90351,-1.50058 4.98828,-3.875 1.74961,-1.99268 3.69626,-4.75421 4.32617,-6.13672 0.97587,-2.14178 0.69511,-2.9691 -0.44336,-3.93164 -0.358,-0.30268 -1.06595,-0.73049 -1.91406,-1.20898 -1.44962,-0.81784 -3.34501,-2.24263 -4.94336,-3.40625 -2.56007,-1.86377 -5.92878,-5.06814 -7.71484,-8.17383 -1.72673,-3.00249 -3.33155,-7.1136 -4.43555,-8.31445 -1.01194,-1.1007 -2.51541,-1.57016 -3.81445,-1.57617 z m -0.0684,11.39843 c 0.48479,-0.0452 1.11653,0.72238 1.58984,1.1836 0.86776,0.84558 1.50551,2.01536 2.24414,2.85937 0.79196,0.90495 1.76634,2.14573 2.53516,2.90821 0.52595,0.52162 1.64258,1.88086 1.64258,1.88086 1.82663,1.67235 3.64497,3.56538 4.76953,4.34765 0.60921,0.42377 2.05309,1.34929 2.15039,1.75195 0.0831,0.34368 -0.55291,1.32815 -0.92383,1.72461 -0.60972,0.6517 -1.34034,1.31641 -1.86328,1.31641 -0.52294,0 -3.61588,-2.25072 -6.66406,-5.22266 l -4.60352,-4.48828 c -0.50797,-0.5253 -1.1353,-0.4315 -1.56445,-0.006 l -2.35352,2.63672 c -1.54413,1.84962 -4.04464,4.27415 -5.58984,5.29297 -1.5452,1.01882 -2.22993,1.8153 -3.20117,1.6875 -0.69361,-0.0913 -1.01493,-0.27072 -1.53907,-0.98047 -0.1073,-0.27961 -1.06938,-1.36537 -0.92382,-1.7539 0.25158,-0.67152 1.60928,-1.69697 2.1289,-2.18946 1.46532,-1.38879 3.41225,-2.3631 5.67578,-5.16406 0,0 2.59545,-2.93938 3.82032,-4.45508 0.69799,-0.86373 1.94921,-2.68359 1.94921,-2.68359 0,0 0.33847,-0.61089 0.72071,-0.64649 z m 0.40234,16.09375 c 0.14939,0.004 0.29165,0.10515 0.49414,0.28907 l 2.02539,2.02343 1.83594,1.83594 c 0.48847,0.44169 0.35915,1.04468 0.0508,1.3418 l -1.75,1.86133 C 230.71954,147.86266 229.35825,149 229,149 c -0.35825,0 -1.68304,-1.09794 -2.94336,-2.43945 l -1.47266,-1.56836 c -0.52648,-0.52262 -0.44892,-1.15226 0.13282,-1.75196 l 1.85351,-1.71875 2.26758,-2.10156 c 0.22586,-0.20922 0.38186,-0.30245 0.53125,-0.29883 z m 0.32227,19.04102 c -0.20817,0.005 -0.43458,0.12134 -0.68555,0.4082 l -2.62891,2.54883 c -1.84967,1.79276 -3.61866,4.06663 -3.93164,5.05274 -0.36081,1.13681 -0.11713,2.77538 2.79102,5.92187 1.92433,2.08203 3.37167,3.92615 4.32812,3.90625 0.90053,-0.0187 2.62506,-1.59102 4.33203,-3.53516 1.70697,-1.94412 3.10071,-4.30663 3.09571,-5.25 -0.005,-0.94336 -1.63937,-3.43383 -3.63086,-5.53515 l -2.94922,-3.11328 c -0.21581,-0.23346 -0.45306,-0.4108 -0.7207,-0.4043 z" />
    <path
       id="path9234"
       style="display:inline;fill:#f6f6e1;fill-opacity:1"
       inkscape:label="right"
       d="m 229.03516,111.62891 c -0.43302,-0.002 -0.84346,0.048 -1.20508,0.14257 -1.2797,0.33465 -2.7329,1.58472 -4.41406,5.35743 -1.21311,2.72232 -3.82433,6.40673 -5.55079,8.37304 -1.72644,1.96632 -5.06258,4.70122 -7.41211,6.07813 -2.3495,1.37691 -4.17299,2.0244 -4.88476,4.10156 -0.30539,0.89123 0.13038,2.774 1.03906,4.20898 0.90867,1.43501 3.0269,3.62227 4.4336,5.13477 1.73195,1.86223 2.55145,2.97461 5.44336,2.97461 1.0055,0 2.28867,-0.2168 3.23437,0.24805 1.22748,0.60335 2.14212,2.07332 3.78125,3.75195 2.14824,2.2 3.68926,3.9747 5.72461,4 2.05786,0.0256 3.77344,-1.80001 6.16016,-4 1.08413,-0.99933 2.27153,-2.72757 3.21093,-3.46289 0.77207,-0.60434 1.55138,-0.52333 4.39063,-0.28516 1.65523,0.13885 2.90351,-1.50058 4.98828,-3.875 1.74961,-1.99268 3.69626,-4.75421 4.32617,-6.13672 0.97587,-2.14178 0.69511,-2.9691 -0.44336,-3.93164 -0.358,-0.30268 -1.06595,-0.73049 -1.91406,-1.20898 -1.44962,-0.81784 -3.34501,-2.24263 -4.94336,-3.40625 -2.56007,-1.86377 -5.92878,-5.06814 -7.71484,-8.17383 -1.72673,-3.00249 -3.33155,-7.1136 -4.43555,-8.31445 -1.01194,-1.1007 -2.51541,-1.57016 -3.81445,-1.57617 z m -0.0684,11.39843 c 0.48479,-0.0452 1.11653,0.72238 1.58984,1.1836 0.86776,0.84558 1.50551,2.01536 2.24414,2.85937 0.79196,0.90495 1.76634,2.14573 2.53516,2.90821 0.52595,0.52162 1.64258,1.88086 1.64258,1.88086 1.82663,1.67235 3.64497,3.56538 4.76953,4.34765 0.60921,0.42377 2.05309,1.34929 2.15039,1.75195 0.0831,0.34368 -0.55291,1.32815 -0.92383,1.72461 -0.60972,0.6517 -1.34034,1.31641 -1.86328,1.31641 -0.52294,0 -3.61588,-2.25072 -6.66406,-5.22266 l -4.60352,-4.48828 c -0.50797,-0.5253 -1.1353,-0.4315 -1.56445,-0.006 l -2.35352,2.63672 c -1.54413,1.84962 -4.04464,4.27415 -5.58984,5.29297 -1.5452,1.01882 -2.22993,1.8153 -3.20117,1.6875 -0.69361,-0.0913 -1.01493,-0.27072 -1.53907,-0.98047 -0.1073,-0.27961 -1.06938,-1.36537 -0.92382,-1.7539 0.25158,-0.67152 1.60928,-1.69697 2.1289,-2.18946 1.46532,-1.38879 3.41225,-2.3631 5.67578,-5.16406 0,0 2.59545,-2.93938 3.82032,-4.45508 0.69799,-0.86373 1.94921,-2.68359 1.94921,-2.68359 0,0 0.33847,-0.61089 0.72071,-0.64649 z m 0.40234,16.09375 c 0.14939,0.004 0.29165,0.10515 0.49414,0.28907 l 2.02539,2.02343 1.83594,1.83594 c 0.48847,0.44169 0.35915,1.04468 0.0508,1.3418 l -1.75,1.86133 C 230.71954,147.86266 229.35825,149 229,149 c -0.35825,0 -1.68304,-1.09794 -2.94336,-2.43945 l -1.47266,-1.56836 c -0.52648,-0.52262 -0.44892,-1.15226 0.13282,-1.75196 l 1.85351,-1.71875 2.26758,-2.10156 c 0.22586,-0.20922 0.38186,-0.30245 0.53125,-0.29883 z m 0.32227,19.04102 c -0.20817,0.005 -0.43458,0.12134 -0.68555,0.4082 l -2.62891,2.54883 c -1.84967,1.79276 -3.61866,4.06663 -3.93164,5.05274 -0.36081,1.13681 -0.11713,2.77538 2.79102,5.92187 1.92433,2.08203 3.37167,3.92615 4.32812,3.90625 0.90053,-0.0187 2.62506,-1.59102 4.33203,-3.53516 1.70697,-1.94412 3.10071,-4.30663 3.09571,-5.25 -0.005,-0.94336 -1.63937,-3.43383 -3.63086,-5.53515 l -2.94922,-3.11328 c -0.21581,-0.23346 -0.45306,-0.4108 -0.7207,-0.4043 z" />
  </g>
</svg>
