<?xml version="1.0" encoding="UTF-8" standalone="no"?>
<!-- Created with Inkscape (http://www.inkscape.org/) -->

<svg
   version="1.1"
   id="svg7901"
   width="300"
   height="300"
   viewBox="0 0 300 300"
   sodipodi:docname="fortune_event_spell.svg"
   inkscape:version="1.2.2 (732a01da63, 2022-12-09)"
   xml:space="preserve"
   xmlns:inkscape="http://www.inkscape.org/namespaces/inkscape"
   xmlns:sodipodi="http://sodipodi.sourceforge.net/DTD/sodipodi-0.dtd"
   xmlns="http://www.w3.org/2000/svg"
   xmlns:svg="http://www.w3.org/2000/svg"><defs
     id="defs7905"><filter
       inkscape:collect="always"
       style="color-interpolation-filters:sRGB"
       id="filter8399"
       x="-0.045038048"
       y="-0.054184258"
       width="1.0898813"
       height="1.1081143"><feGaussianBlur
         inkscape:collect="always"
         stdDeviation="1.9494"
         id="feGaussianBlur8401" /></filter></defs><sodipodi:namedview
     id="namedview7903"
     pagecolor="#ffffff"
     bordercolor="#000000"
     borderopacity="0.25"
     inkscape:showpageshadow="2"
     inkscape:pageopacity="0.0"
     inkscape:pagecheckerboard="0"
     inkscape:deskcolor="#d1d1d1"
     showgrid="false"
     inkscape:zoom="2.3617366"
     inkscape:cx="41.283181"
     inkscape:cy="-1.9053776"
     inkscape:window-width="2560"
     inkscape:window-height="1351"
     inkscape:window-x="2391"
     inkscape:window-y="-9"
     inkscape:window-maximized="1"
     inkscape:current-layer="g7907" /><g
     inkscape:groupmode="layer"
     inkscape:label="Image"
     id="g7907"><rect
       style="display:inline;fill:#292c2b;fill-opacity:1;stroke:none;stroke-width:137.245;stop-color:#000000"
       id="rect3034"
       width="300"
       height="300"
       x="0"
       y="0"
       ry="45.696117"
       rx="45.696117" /><path
       style="display:none;fill:none;fill-opacity:0.537791;stroke:#753f4b;stroke-width:12.3;stroke-dasharray:none;filter:url(#filter8399)"
       d="m 72,247.95126 c -11.794598,-3.0487 -24.998675,-8.06878 -25.875065,-9.83749 -1.132259,-2.2851 -4.446799,-15.1395 -3.997831,-15.50432 0.205093,-0.16666 2.946893,-2.60542 6.09289,-5.41947 l 5.719994,-5.11646 4.530006,1.67894 c 5.070575,1.87929 5.234226,2.24681 2.820194,6.33344 -1.069885,1.81117 -1.350585,3.21406 -0.75,3.74836 C 63.713129,226.65704 85.295336,233 91.72702,233 c 3.509114,0 4.988192,-0.65136 8.32544,-3.66636 2.23202,-2.01649 5.20107,-5.61649 6.5979,-8 2.79927,-4.77659 2.78812,-4.77307 10.46315,-3.29936 5.24533,1.00717 5.45201,0.9592 7.88649,-1.83068 1.375,-1.57572 3.7262,-4.96579 5.2249,-7.53348 l 2.72489,-4.66852 4.46672,2.1701 c 3.60999,1.75387 4.75218,1.93319 5.955,0.93493 1.86753,-1.5499 5.6309,-12.49057 4.7686,-13.86302 -0.91811,-1.4613 -8.31301,-4.39124 -9.7202,-3.85125 -0.6522,0.25027 -2.62152,2.96438 -4.37626,6.03134 -1.75474,3.06697 -3.71991,5.57096 -4.36704,5.56443 -0.64714,-0.007 -3.58506,-0.65292 -6.52873,-1.43642 -8.17238,-2.17522 -11.27446,-0.25439 -14.13107,8.75008 -0.66335,2.09098 -1.50311,3.66598 -1.86613,3.5 -0.36303,-0.16599 -2.81657,-1.1585 -5.45233,-2.20559 l -4.792293,-1.90379 -4.453029,2.22395 c -2.599595,1.2983 -4.459401,2.92313 -4.468341,3.90379 -0.03847,4.22072 -1.516422,4.39058 -7.580241,0.87123 C 77.157001,212.80661 72.925,210.97392 71,210.61872 65.008889,209.51327 49.24234,203.391 43.635406,199.99284 c -2.943899,-1.78419 -6.119159,-4.54176 -7.056133,-6.12793 -2.526198,-4.27651 -8.764046,-26.99258 -8.118486,-29.5647 0.341085,-1.35899 4.539348,-5.04403 10.798625,-9.47854 14.104164,-9.99237 18.116266,-13.92948 23.990155,-23.54176 2.790879,-4.5671 5.563949,-8.66876 6.162379,-9.11478 C 70.449129,121.39209 86.43159,115 87.327277,115 c 0.235661,0 2.09544,-0.6965 4.132842,-1.54778 l 3.704367,-1.54779 -2.650859,-3.47545 c -4.009301,-5.25647 -5.804572,-11.577105 -5.321246,-18.734601 0.497465,-7.366898 2.84855,-12.664523 7.726589,-17.41008 5.29004,-5.146367 8.62502,-6.956051 17.00565,-7.453414 6.24623,-0.370693 8.5543,0.319542 12.84614,2.165843 13.96072,6.005744 19.74804,21.999344 13.26434,36.656822 -1.13265,2.56054 -1.9226,4.79228 -1.75546,4.95942 0.16714,0.16714 2.29146,0.4351 4.72072,0.59546 l 4.41682,0.29157 8.04141,-14.697835 c 4.42278,-8.083809 8.34719,-14.989592 8.72093,-15.346184 0.7514,-0.716938 12.65404,1.750727 20.07048,4.161029 7.17405,2.331527 6.88943,3.761553 -6.04712,30.38299 -6.52214,13.42156 -8.97118,17.42879 -13.12648,21.47816 -3.02489,2.94778 -5.50745,6.41458 -6.08682,8.5 -1.21769,4.38307 -1.28259,44.01073 -0.0752,45.91756 1.02241,1.61468 4.08055,0.78273 4.09614,-1.11434 0.006,-0.70476 0.88152,-10.46605 1.94608,-21.69175 1.25652,-13.24999 2.393,-20.84053 3.23947,-21.63652 2.70741,-2.54593 24.96775,-15.45174 26.59915,-15.42131 0.93762,0.0175 2.48728,0.62595 3.44368,1.35213 1.54859,1.17583 1.76736,3.82637 1.99898,24.2182 l 0.26009,22.89787 -3.35391,10 c -3.74463,11.16495 -10.19562,24.33169 -13.29583,27.13734 -1.98607,1.79737 -2.1553,1.77501 -6.9879,-0.92313 -5.94688,-3.32027 -12.35133,-4.36733 -17.109,-2.79716 -1.92422,0.63505 -7.49296,4.31247 -12.37497,8.17204 -6.57897,5.20115 -13.79399,9.45099 -27.87637,16.41995 C 87.610923,251.30027 86.265445,251.63862 72,247.95126 Z M 146.48302,172.5 c 2.34377,-5.5 4.06406,-10.51481 3.82287,-11.14403 C 149.51875,159.30252 133.08393,149 130.59536,149 c -2.0786,0 -3.23118,1.5775 -8.08331,11.06336 -5.43878,10.63273 -5.5969,11.15819 -4.06249,13.5 0.8781,1.34015 2.14867,2.45409 2.82349,2.47542 0.67482,0.0213 4.37695,1.56854 8.22695,3.43824 3.85,1.86969 8.28736,3.31474 9.86081,3.21121 2.62709,-0.17285 3.20895,-1.0052 7.12221,-10.18823 z M 131.25,172.02693 c -2.73441,-1.24119 -4.24217,-2.57065 -4.22804,-3.72804 C 127.0535,165.71595 130.71589,158 131.91035,158 133.57946,158 142,163.40987 142,164.48221 c 0,2.56024 -3.65995,9.50835 -5,9.49208 -0.825,-0.01 -3.4125,-0.88633 -5.75,-1.94736 z m -6.3737,-47.96128 c 5.13909,-2.62475 9.1237,-6.62201 9.1237,-9.15266 0,-2.60214 -1.85928,-3.35032 -3.84961,-1.54909 -5.69972,5.15818 -19.12805,6.5817 -27.34837,2.89918 l -4.697976,-2.1046 -2.052022,3.47792 c -4.543429,7.70054 -1.56774,9.41988 15.447978,8.92576 6.98032,-0.2027 9.98208,-0.76294 13.3763,-2.49651 z M 127.5,98.940748 c 0,-5.17513 -10.33652,-4.743705 -11.34123,0.473359 -0.30592,1.588493 0.11069,1.760003 2.99292,1.232153 1.84157,-0.33726 4.02331,-0.17796 4.84831,0.35401 2.20087,1.41915 3.5,0.65469 3.5,-2.059522 z m -24.54488,-6.711634 c -2.17045,-3.866936 -5.860716,-5.53574 -8.445766,-3.819331 -2.750411,1.826204 -2.524543,4.017546 0.457456,4.43818 1.356745,0.191379 3.571339,1.216785 4.92132,2.27868 3.35484,2.638919 5.19744,0.898131 3.06699,-2.897529 z M 214.0076,184.50916 c -0.69762,-0.84058 -1.02364,-2.91239 -0.74746,-4.75 1.0614,-7.06217 -1.98587,-44.60645 -4.29733,-52.94585 -1.28487,-4.6356 -5.29667,-7.21482 -13.80076,-8.87261 -3.48587,-0.67953 -6.5667,-1.83162 -6.84627,-2.56018 -0.87248,-2.27365 7.24051,-24.841369 9.06066,-25.203844 C 198.2694,89.998848 199,90.320689 199,90.89188 c 0,2.587542 6.19362,7.919445 10.442,8.989198 6.308,1.588372 16.98202,1.386422 21.26302,-0.402293 6.57935,-2.749028 12.22991,-8.206776 13.53023,-13.068554 0.64876,-2.425627 1.21963,-3.928483 1.41819,-4.224986 0.88613,-1.323179 6.63315,2.279709 11.92581,5.06602 11.11568,5.851839 9.25164,4.520823 11.98342,24.248735 1.95206,14.09709 2.22051,28.84713 0.597,32.80284 -3.05824,7.45146 -10.97777,14.30642 -35.15967,30.43339 -18.42844,12.28998 -18.77106,12.44948 -20.9924,9.77293 z m 38.65893,-47.33033 3.21873,-7.49396 c 0.14695,-0.49614 0.7732,-1.07433 -1.41718,-2.75298 l -4.51529,-3.99848 c -6.60657,-5.85041 -7.67909,-7.10557 -9.36875,-4.27021 -0.51286,0.86062 -2.6692,4.56464 -4.76802,8.01936 -2.09881,3.45471 -3.81602,7.0908 -3.81602,8.08019 0,2.42663 13.27702,14.06786 15.20401,13.32841 1.00868,-0.168 4.13669,-7.814 5.46252,-10.91233 z M 210.26646,92.343208 c -2.59023,-0.917081 -5.77141,-3.24602 -8.19546,-5.999893 -13.10449,-14.887484 -1.97034,-37.589084 17.73668,-36.163607 7.67827,0.555396 12.98419,3.415821 16.81776,9.066464 12.27307,18.090407 -5.54689,40.465626 -26.35898,33.097036 z M 230.51393,79.050975 C 230.71047,78.813876 230.5887,78.1 230,77 c -0.74261,-1.387587 -2.09382,-2 -4.41274,-2 -3.28014,0 -6.25293,2.113915 -5.25149,3.734272 0.11007,0.178099 0.7739,0.440204 1.92681,0.134775 0.8837,-0.234109 2.13599,-1.027827 3.15386,-1.005716 1.68158,0.03653 2.21956,0.899413 3.1711,1.239269 0.73707,0.277157 1.20959,0.07154 1.92639,-0.05163 z M 209.98469,74.25 c -0.0332,-3.788866 -5.06833,-7.255402 -7.54861,-5.196949 C 200.21488,70.896482 200.71664,73 203.37756,73 c 1.30765,0 2.93775,0.675 3.62244,1.5 1.66676,2.008327 3.00347,1.896363 2.98469,-0.25 z"
       id="path8393"
       sodipodi:nodetypes="sssscssssssssscssssscsssscsssssssssssscsssssssscssssssscssssscsssssssssssssssssssssssssscssssssssssssssssssssssssssssscccssssccsssssssssssccssscss" /><path
       style="fill:#f9f0d4;fill-opacity:1"
       d="m 72,247.95126 c -11.794598,-3.0487 -24.998675,-8.06878 -25.875065,-9.83749 -1.132259,-2.2851 -4.446799,-15.1395 -3.997831,-15.50432 0.205093,-0.16666 2.946893,-2.60542 6.09289,-5.41947 l 5.719994,-5.11646 4.530006,1.67894 c 5.070575,1.87929 5.234226,2.24681 2.820194,6.33344 -1.069885,1.81117 -1.350585,3.21406 -0.75,3.74836 C 63.713129,226.65704 85.295336,233 91.72702,233 c 3.509114,0 4.988192,-0.65136 8.32544,-3.66636 2.23202,-2.01649 5.20107,-5.61649 6.5979,-8 2.79927,-4.77659 2.78812,-4.77307 10.46315,-3.29936 5.24533,1.00717 5.45201,0.9592 7.88649,-1.83068 1.375,-1.57572 3.7262,-4.96579 5.2249,-7.53348 l 2.72489,-4.66852 4.46672,2.1701 c 3.60999,1.75387 4.75218,1.93319 5.955,0.93493 1.86753,-1.5499 5.6309,-12.49057 4.7686,-13.86302 -0.91811,-1.4613 -8.31301,-4.39124 -9.7202,-3.85125 -0.6522,0.25027 -2.62152,2.96438 -4.37626,6.03134 -1.75474,3.06697 -3.71991,5.57096 -4.36704,5.56443 -0.64714,-0.007 -3.58506,-0.65292 -6.52873,-1.43642 -8.17238,-2.17522 -11.27446,-0.25439 -14.13107,8.75008 -0.66335,2.09098 -1.50311,3.66598 -1.86613,3.5 -0.36303,-0.16599 -2.81657,-1.1585 -5.45233,-2.20559 l -4.792293,-1.90379 -4.453029,2.22395 c -2.599595,1.2983 -4.459401,2.92313 -4.468341,3.90379 -0.03847,4.22072 -1.516422,4.39058 -7.580241,0.87123 C 77.157001,212.80661 72.925,210.97392 71,210.61872 65.008889,209.51327 49.24234,203.391 43.635406,199.99284 c -2.943899,-1.78419 -6.119159,-4.54176 -7.056133,-6.12793 -2.526198,-4.27651 -8.764046,-26.99258 -8.118486,-29.5647 0.341085,-1.35899 4.539348,-5.04403 10.798625,-9.47854 14.104164,-9.99237 18.116266,-13.92948 23.990155,-23.54176 2.790879,-4.5671 5.563949,-8.66876 6.162379,-9.11478 C 70.449129,121.39209 86.43159,115 87.327277,115 c 0.235661,0 2.09544,-0.6965 4.132842,-1.54778 l 3.704367,-1.54779 -2.650859,-3.47545 c -4.009301,-5.25647 -5.804572,-11.577105 -5.321246,-18.734601 0.497465,-7.366898 2.84855,-12.664523 7.726589,-17.41008 5.29004,-5.146367 8.62502,-6.956051 17.00565,-7.453414 6.24623,-0.370693 8.5543,0.319542 12.84614,2.165843 13.96072,6.005744 19.74804,21.999344 13.26434,36.656822 -1.13265,2.56054 -1.9226,4.79228 -1.75546,4.95942 0.16714,0.16714 2.29146,0.4351 4.72072,0.59546 l 4.41682,0.29157 8.04141,-14.697835 c 4.42278,-8.083809 8.34719,-14.989592 8.72093,-15.346184 0.7514,-0.716938 12.65404,1.750727 20.07048,4.161029 7.17405,2.331527 6.88943,3.761553 -6.04712,30.38299 -6.52214,13.42156 -8.97118,17.42879 -13.12648,21.47816 -3.02489,2.94778 -5.50745,6.41458 -6.08682,8.5 -1.21769,4.38307 -1.28259,44.01073 -0.0752,45.91756 1.02241,1.61468 4.08055,0.78273 4.09614,-1.11434 0.006,-0.70476 0.88152,-10.46605 1.94608,-21.69175 1.25652,-13.24999 2.393,-20.84053 3.23947,-21.63652 2.70741,-2.54593 24.96775,-15.45174 26.59915,-15.42131 0.93762,0.0175 2.48728,0.62595 3.44368,1.35213 1.54859,1.17583 1.76736,3.82637 1.99898,24.2182 l 0.26009,22.89787 -3.35391,10 c -3.74463,11.16495 -10.19562,24.33169 -13.29583,27.13734 -1.98607,1.79737 -2.1553,1.77501 -6.9879,-0.92313 -5.94688,-3.32027 -12.35133,-4.36733 -17.109,-2.79716 -1.92422,0.63505 -7.49296,4.31247 -12.37497,8.17204 -6.57897,5.20115 -13.79399,9.45099 -27.87637,16.41995 C 87.610923,251.30027 86.265445,251.63862 72,247.95126 Z M 146.48302,172.5 c 2.34377,-5.5 4.06406,-10.51481 3.82287,-11.14403 C 149.51875,159.30252 133.08393,149 130.59536,149 c -2.0786,0 -3.23118,1.5775 -8.08331,11.06336 -5.43878,10.63273 -5.5969,11.15819 -4.06249,13.5 0.8781,1.34015 2.14867,2.45409 2.82349,2.47542 0.67482,0.0213 4.37695,1.56854 8.22695,3.43824 3.85,1.86969 8.28736,3.31474 9.86081,3.21121 2.62709,-0.17285 3.20895,-1.0052 7.12221,-10.18823 z M 131.25,172.02693 c -2.73441,-1.24119 -4.24217,-2.57065 -4.22804,-3.72804 C 127.0535,165.71595 130.71589,158 131.91035,158 133.57946,158 142,163.40987 142,164.48221 c 0,2.56024 -3.65995,9.50835 -5,9.49208 -0.825,-0.01 -3.4125,-0.88633 -5.75,-1.94736 z m -6.3737,-47.96128 c 5.13909,-2.62475 9.1237,-6.62201 9.1237,-9.15266 0,-2.60214 -1.85928,-3.35032 -3.84961,-1.54909 -5.69972,5.15818 -19.12805,6.5817 -27.34837,2.89918 l -4.697976,-2.1046 -2.052022,3.47792 c -4.543429,7.70054 -1.56774,9.41988 15.447978,8.92576 6.98032,-0.2027 9.98208,-0.76294 13.3763,-2.49651 z M 127.5,98.940748 c 0,-5.17513 -10.33652,-4.743705 -11.34123,0.473359 -0.30592,1.588493 0.11069,1.760003 2.99292,1.232153 1.84157,-0.33726 4.02331,-0.17796 4.84831,0.35401 2.20087,1.41915 3.5,0.65469 3.5,-2.059522 z m -24.54488,-6.711634 c -2.17045,-3.866936 -5.860716,-5.53574 -8.445766,-3.819331 -2.750411,1.826204 -2.524543,4.017546 0.457456,4.43818 1.356745,0.191379 3.571339,1.216785 4.92132,2.27868 3.35484,2.638919 5.19744,0.898131 3.06699,-2.897529 z M 214.0076,184.50916 c -0.69762,-0.84058 -1.02364,-2.91239 -0.74746,-4.75 1.0614,-7.06217 -1.98587,-44.60645 -4.29733,-52.94585 -1.28487,-4.6356 -5.29667,-7.21482 -13.80076,-8.87261 -3.48587,-0.67953 -6.5667,-1.83162 -6.84627,-2.56018 -0.87248,-2.27365 7.24051,-24.841369 9.06066,-25.203844 C 198.2694,89.998848 199,90.320689 199,90.89188 c 0,2.587542 6.19362,7.919445 10.442,8.989198 6.308,1.588372 16.98202,1.386422 21.26302,-0.402293 6.57935,-2.749028 12.22991,-8.206776 13.53023,-13.068554 0.64876,-2.425627 1.21963,-3.928483 1.41819,-4.224986 0.88613,-1.323179 6.63315,2.279709 11.92581,5.06602 11.11568,5.851839 9.25164,4.520823 11.98342,24.248735 1.95206,14.09709 2.22051,28.84713 0.597,32.80284 -3.05824,7.45146 -10.97777,14.30642 -35.15967,30.43339 -18.42844,12.28998 -18.77106,12.44948 -20.9924,9.77293 z m 38.65893,-47.33033 3.21873,-7.49396 c 0.14695,-0.49614 0.7732,-1.07433 -1.41718,-2.75298 l -4.51529,-3.99848 c -6.60657,-5.85041 -7.67909,-7.10557 -9.36875,-4.27021 -0.51286,0.86062 -2.6692,4.56464 -4.76802,8.01936 -2.09881,3.45471 -3.81602,7.0908 -3.81602,8.08019 0,2.42663 13.27702,14.06786 15.20401,13.32841 1.00868,-0.168 4.13669,-7.814 5.46252,-10.91233 z M 210.26646,92.343208 c -2.59023,-0.917081 -5.77141,-3.24602 -8.19546,-5.999893 -13.10449,-14.887484 -1.97034,-37.589084 17.73668,-36.163607 7.67827,0.555396 12.98419,3.415821 16.81776,9.066464 12.27307,18.090407 -5.54689,40.465626 -26.35898,33.097036 z M 230.51393,79.050975 C 230.71047,78.813876 230.5887,78.1 230,77 c -0.74261,-1.387587 -2.09382,-2 -4.41274,-2 -3.28014,0 -6.25293,2.113915 -5.25149,3.734272 0.11007,0.178099 0.7739,0.440204 1.92681,0.134775 0.8837,-0.234109 2.13599,-1.027827 3.15386,-1.005716 1.68158,0.03653 2.21956,0.899413 3.1711,1.239269 0.73707,0.277157 1.20959,0.07154 1.92639,-0.05163 z M 209.98469,74.25 c -0.0332,-3.788866 -5.06833,-7.255402 -7.54861,-5.196949 C 200.21488,70.896482 200.71664,73 203.37756,73 c 1.30765,0 2.93775,0.675 3.62244,1.5 1.66676,2.008327 3.00347,1.896363 2.98469,-0.25 z"
       id="path8395"
       sodipodi:nodetypes="sssscssssssssscssssscsssscsssssssssssscsssssssscssssssscssssscsssssssssssssssssssssssssscssssssssssssssssssssssssssssscccssssccsssssssssssccssscss" /></g></svg>
