<?xml version="1.0" encoding="UTF-8" standalone="no"?>
<!-- Created with Inkscape (http://www.inkscape.org/) -->

<svg
   version="1.1"
   id="svg27145"
   width="300"
   height="300"
   viewBox="0 0 300 300"
   sodipodi:docname="gratitude_mask.svg"
   inkscape:version="1.2.2 (732a01da63, 2022-12-09)"
   xmlns:inkscape="http://www.inkscape.org/namespaces/inkscape"
   xmlns:sodipodi="http://sodipodi.sourceforge.net/DTD/sodipodi-0.dtd"
   xmlns="http://www.w3.org/2000/svg"
   xmlns:svg="http://www.w3.org/2000/svg">
  <defs
     id="defs27149">
    <filter
       inkscape:collect="always"
       style="color-interpolation-filters:sRGB"
       id="filter33487"
       x="-0.049762686"
       y="-0.044038079"
       width="1.0992941"
       height="1.0880687">
      <feGaussianBlur
         inkscape:collect="always"
         stdDeviation="1.9494"
         id="feGaussianBlur33489" />
    </filter>
  </defs>
  <sodipodi:namedview
     id="namedview27147"
     pagecolor="#ffffff"
     bordercolor="#000000"
     borderopacity="0.25"
     inkscape:showpageshadow="2"
     inkscape:pageopacity="0.0"
     inkscape:pagecheckerboard="0"
     inkscape:deskcolor="#d1d1d1"
     showgrid="false"
     inkscape:zoom="2.3617366"
     inkscape:cx="80.660984"
     inkscape:cy="129.56567"
     inkscape:window-width="2560"
     inkscape:window-height="1369"
     inkscape:window-x="1912"
     inkscape:window-y="-8"
     inkscape:window-maximized="1"
     inkscape:current-layer="g27151" />
  <g
     inkscape:groupmode="layer"
     inkscape:label="Image"
     id="g27151">
    <path
       id="path33482"
       style="display:inline;fill:none;fill-opacity:1;stroke:#753f4b;stroke-width:12.3;stroke-dasharray:none;filter:url(#filter33487)"
       inkscape:label="STROKE"
       d="M 109.82422 29 C 106.72191 29 105.74354 29.470344 104.87305 31.380859 C 103.67949 34.000428 103.85661 35.0245 108.84375 54.320312 C 112.26328 67.550862 112.26495 67.530162 106.29688 77.199219 C 102.28463 83.699567 101.82339 88.016166 104.01562 98.576172 C 105.04154 103.51797 105.37897 103.99802 107.82031 103.98242 C 110.6364 103.96441 124.8134 100.52058 125.69336 99.640625 C 125.97506 99.358926 125.63781 95.958954 124.94531 92.083984 C 123.68897 85.053946 123.69279 85.02306 126.99023 77.869141 C 128.8078 73.92589 130.2623 69.502702 130.2207 68.041016 C 130.13304 64.957857 122.90875 44.825043 119.26172 37.5 C 115.64939 30.244658 114.26775 29 109.82422 29 z M 195.35156 30 C 192.85899 30 191.52678 30.756752 189.63281 33.25 C 186.77216 37.01581 180.29746 50.505568 176.0293 61.589844 L 173.06836 69.277344 L 175.72461 74.888672 C 178.33088 80.394112 178.83838 85.698469 177.78711 96.435547 C 177.50488 99.318011 177.66377 99.421181 186.5 102.06445 C 191.45 103.5452 195.84928 104.81191 196.27539 104.87891 C 197.38477 105.05338 198.76871 100.98922 200.14648 93.511719 L 201.3418 87.021484 L 196.97266 77.826172 C 194.56927 72.768815 192.65882 67.873179 192.72852 66.947266 C 192.79827 66.021353 194.6881 59.451472 196.92773 52.347656 C 202.62727 34.269595 202.32682 30 195.35156 30 z M 176.82617 104.29883 C 176.09175 104.28727 175.46288 104.35346 174.97656 104.50781 C 172.14712 105.40585 165.51108 123.55595 166.375 128.0332 C 166.6438 129.42628 168.52251 133.47631 170.55078 137.0332 C 177.61536 149.42216 184 162.92312 184 165.47461 C 184 167.75771 181.28826 173.52585 173 188.87109 C 170.87479 192.80579 170.34086 195.67383 169.43359 208 C 168.84659 215.97497 168.26621 229.53956 168.14453 238.14453 L 167.92383 253.79102 L 171.68945 256.89453 C 173.76094 258.60203 176.11848 260 176.92773 260 C 177.73701 260 183.63714 254.82497 190.04102 248.5 C 203.36507 235.34003 202.79109 235.54087 217.1875 238.99219 C 228.61824 241.73251 230.82558 241.59334 235.38867 237.83203 C 238.80907 235.01265 247.53767 223.85971 255.21484 212.5 C 258.46436 207.69177 261.22681 200.25872 260.03711 199.52344 C 258.35421 198.48335 256.17682 200.21215 250.87695 206.80273 C 247.91935 210.48066 241.72333 217.43099 237.10742 222.24609 C 227.99557 231.75122 226.81171 232.24473 219.375 229.64648 C 212.90349 227.38549 202.49516 225.65954 199.64453 226.375 C 198.16517 226.7463 193.75751 229.98191 189.85156 233.56641 C 185.94563 237.15087 182.58132 239.91334 182.37305 239.70508 C 182.16479 239.49682 182.28958 237.16222 182.65234 234.51562 C 183.27828 229.94889 184.00952 229.00976 196.98047 216.10156 C 204.89505 208.22527 212.67181 199.41183 215.45703 195.16406 C 220.18972 187.94622 220.25694 187.7325 219.64062 181.83594 C 218.22838 168.32408 214.0239 157.25261 201.74609 134.71875 C 195.18331 122.67385 194.82046 121.6773 195.46094 117.40625 C 195.9202 114.34367 195.73398 112.38612 194.88672 111.36523 C 192.26876 108.2108 181.96709 104.37971 176.82617 104.29883 z M 126.51953 105.08203 L 123.08594 105.49414 C 120.01273 105.86321 115.025 107.15504 112 108.34766 C 112 108.34766 107.05817 109.63061 106.28906 111.17578 C 105.51994 112.72095 106.3457 116.50781 106.3457 116.50781 C 107.77254 122.74801 105.36387 124.14414 99.640625 135.5 C 89.576009 155.46985 83.045695 175.73023 83.015625 187.07812 C 82.992615 195.76225 87.051133 200.85248 107.38867 217.63867 C 118.22007 226.57868 117.82368 226.05186 118.7832 232.75 C 119.70362 239.17515 119.26269 240.23373 116.87305 237.33594 C 116.11821 236.42059 112.8883 233.49556 109.69727 230.83594 C 104.39594 226.41745 103.44743 226 98.691406 226 C 95.828602 226 89.438307 227.12011 84.492188 228.48828 C 79.546066 229.85644 75.153302 230.98128 74.728516 230.98828 C 74.44298 230.99287 73.784948 231.25413 72.816406 230.4082 C 69.790436 227.76533 62.863393 220.26366 54.814453 210.83008 C 49.263085 204.3237 44.135502 199 43.419922 199 C 39.249087 199 41.924888 205.49178 51.800781 219.32227 C 67.368756 241.12407 69.238175 242.15909 85.5 238 C 94.825205 235.61501 97.854857 235.50855 100.65625 237.4707 C 101.81178 238.28006 107.48581 243.72323 113.26562 249.56641 C 124.72994 261.15636 124.37724 260.8109 129.99023 255.52344 C 130.42146 255.11722 130.9307 254.65657 131.33203 254.25195 C 132.10839 253.46919 132.50191 252.66732 132.50391 250.48633 C 132.50569 248.21351 132.30098 244.68405 132.16016 238.18164 C 131.98529 230.10721 131.26196 215.59011 130.55273 205.92188 L 129.26367 188.3418 L 123.05469 176.68359 L 117.1875 165.66211 C 116.93579 165.21436 116.92954 164.69827 117.18945 164.11133 L 118.81641 159.76172 C 120.54795 155.13599 125.88441 144.04271 133.08203 130.10547 C 135.13068 126.13851 135.24444 125.20046 134.25195 120.46875 C 133.64723 117.5857 132.10648 112.90003 130.91211 110.01953 L 129.36914 106.29492 C 128.9282 105.26991 127.63433 105.00023 126.51953 105.08203 z M 94.255859 120.25977 C 92.742745 120.28636 90.970295 120.38874 88.933594 120.56641 C 77.436481 121.56932 77.571213 121.33795 78.388672 138.63867 L 79.060547 152.85156 L 75.279297 155.64258 C 65.75165 162.67504 62 166.26834 62 168.35742 C 62 170.66648 67.56613 179.66827 71.835938 184.26562 C 73.24879 185.78687 74.702144 186.8948 75.253906 186.8457 C 76.626261 186.72345 77.724343 181.24332 79.447266 174.94727 C 83.115354 161.54301 88.163967 148.70183 95.632812 133.76758 C 98.585154 127.86424 101 122.60608 101 122.08398 C 101 120.78242 98.795204 120.17998 94.255859 120.25977 z M 208.69336 120.63672 C 205.58734 120.63419 202.99703 120.82648 202.32031 121.26562 C 201.48701 121.80638 203.46359 126.80865 209.04492 138.28516 C 217.09719 154.84244 223.19609 170.906 224.50391 179 C 224.90382 181.475 225.42981 183.8375 225.67383 184.25 C 227.22392 186.87038 233.38969 181.13085 238.63086 172.1875 L 240.58594 168.84961 C 241.12615 167.9278 241.01876 167.61372 240.47266 167.05078 L 238.34766 164.80469 C 236.78172 163.15034 232.77493 159.84148 229.44531 157.45117 L 223.39258 153.10352 L 223.81641 138.15234 C 224.23119 123.55145 224.18989 123.17166 222.03711 122.01953 C 220.47745 121.18483 213.87005 120.64093 208.69336 120.63672 z M 149.72656 130 C 141.1005 130 140.70793 130.10116 138 133 C 134.93431 136.28184 126.8339 152.26347 123.87109 160.875 L 122.39844 165.1543 C 122.10736 165.97099 122.16128 166.57021 122.49609 167.16016 L 124.66992 170.9043 C 126.13709 173.4319 129.05763 178.875 131.16016 183 L 134.98242 190.5 L 136.01367 218 C 137.1648 248.71076 137.49681 251.68689 139.85156 252.37305 C 142.45651 253.13211 161.75291 252.58371 162.60742 251.72656 C 163.03098 251.30168 163.78014 237.97946 164.11523 222.11719 L 164.75781 191.68945 L 172.02734 179.1543 L 178.66406 166.08984 C 179.04066 165.352 179.15144 164.68162 178.64062 163.92578 L 173.52344 153.87305 C 167.14875 141.34794 163.71335 135.55483 160.70117 132.25 C 158.86728 130.23794 157.70725 130 149.72656 130 z M 203.68359 162.16406 C 204.57674 162.03494 203.89553 165.53893 200.94727 174.125 C 200.46581 175.52714 200.45871 176.95964 200.19727 178.28125 C 199.5669 181.46792 199.43065 184.63964 199.16992 186 C 198.6192 188.87341 197.64288 189.961 193.71094 192.08203 C 191.0774 193.50265 191.0712 192.75458 188.70117 195.11133 C 182.17866 203.05706 183.39845 200.31453 185.60938 192.61328 C 185.87933 191.37578 185.54332 191.575 186.08984 188 C 187.44049 179.16498 188.29359 177.47171 192.83398 174.60547 C 194.98475 173.24775 198.14816 169.85577 199.86328 167.06836 C 201.72499 164.0427 203.0725 162.25241 203.68359 162.16406 z M 99.648438 163.38477 C 100.01082 163.41227 100.6779 164.14443 101.65234 165.57227 C 103.81504 168.74122 107.26014 172.30474 112.23438 176.51953 C 115.36513 179.17232 115.87681 180.26697 116.44531 185.51953 C 116.80128 188.80846 117.49977 193.28455 117.99609 195.4668 C 118.49238 197.64902 118.75269 199.58129 118.57422 199.75977 C 118.39574 199.93824 117.13232 198.75665 115.76758 197.13477 C 114.40283 195.51287 111.43609 193.24297 109.17578 192.08984 C 104.17241 189.53733 103.39229 188.17578 102.52539 180.5 C 102.15269 177.2 101.18072 172.0892 100.36523 169.14258 C 99.287342 165.24782 99.044473 163.33892 99.648438 163.38477 z M 222.03906 197 C 221.56238 197 218.25276 200.4875 214.68359 204.75 C 211.11444 209.0125 206.80093 213.8221 205.09766 215.4375 C 203.39437 217.0529 202 218.71418 202 219.12891 C 202 219.54364 203.9125 220.33292 206.25 220.88477 C 212.90301 222.45545 221.99797 221.72281 223.63477 219.48438 C 226.12879 216.07357 224.77507 197 222.03906 197 z M 78.521484 197.38672 C 77.02965 197.52658 76.433403 200.9262 76.162109 208.3125 C 75.784429 218.59534 76.678596 220.42381 82.5 221.26562 C 88.321374 222.10746 92.737181 221.98803 95.851562 220.90234 C 97.583633 220.29854 99 219.54557 99 219.22852 C 99 218.91146 95.950925 215.46781 92.224609 211.57617 C 88.498294 207.68455 84.031384 202.7 82.296875 200.5 C 80.635013 198.39214 79.416585 197.3028 78.521484 197.38672 z M 153.50977 257 C 151.47991 256.99636 149.1576 257.06022 146.4707 257.17773 C 137.02307 257.59094 136.99167 257.60224 133 261.5 C 130.79951 263.64872 129 265.93002 129 266.57031 C 129 267.95623 136.29388 272.94481 139.93359 274.04883 C 141.34525 274.47703 146.77502 274.85492 152 274.88672 C 159.95307 274.93509 162.21656 274.57764 165.89648 272.69531 C 168.31412 271.45867 170.92585 269.49191 171.70117 268.32422 C 172.99714 266.37239 172.80441 265.87821 169.30469 262.19922 C 165.61246 258.31789 162.3058 257.01575 153.50977 257 z " />
    <path
       id="path32750"
       style="display:inline;fill:#ce9e9a;fill-opacity:1"
       d="M 109.82422 29 C 106.72191 29 105.74354 29.470342 104.87305 31.380859 C 103.67949 34.00043 103.85661 35.02448 108.84375 54.320312 C 112.26328 67.550875 112.26496 67.530153 106.29688 77.199219 C 102.28463 83.699574 101.82338 88.016156 104.01562 98.576172 C 105.04154 103.51798 105.37897 103.99802 107.82031 103.98242 C 110.6364 103.96441 124.8134 100.52058 125.69336 99.640625 C 125.97506 99.358926 125.63781 95.958957 124.94531 92.083984 C 123.68897 85.053939 123.69278 85.023068 126.99023 77.869141 C 128.8078 73.925886 130.2623 69.502704 130.2207 68.041016 C 130.13304 64.957854 122.90875 44.82505 119.26172 37.5 C 115.64939 30.244651 114.26776 29 109.82422 29 z M 195.35156 30 C 192.85899 30 191.52678 30.75675 189.63281 33.25 C 186.77215 37.015814 180.29747 50.505557 176.0293 61.589844 L 173.06836 69.277344 L 175.72461 74.888672 C 178.33088 80.394118 178.83838 85.698458 177.78711 96.435547 C 177.50488 99.318014 177.66376 99.421175 186.5 102.06445 C 191.45 103.5452 195.84928 104.81191 196.27539 104.87891 C 197.38477 105.05338 198.7687 100.98923 200.14648 93.511719 L 201.3418 87.021484 L 196.97266 77.826172 C 194.56927 72.76881 192.65882 67.87318 192.72852 66.947266 C 192.79827 66.021352 194.68809 59.451479 196.92773 52.347656 C 202.62727 34.269577 202.32682 30 195.35156 30 z M 94.255859 120.25977 C 92.742743 120.28636 90.970297 120.38874 88.933594 120.56641 C 77.43647 121.56932 77.571212 121.33793 78.388672 138.63867 L 79.060547 152.85156 L 75.279297 155.64258 C 65.751641 162.67505 62 166.26834 62 168.35742 C 62 170.66648 67.566126 179.66826 71.835938 184.26562 C 73.248792 185.78687 74.702143 186.8948 75.253906 186.8457 C 76.626262 186.72345 77.724342 181.24333 79.447266 174.94727 C 83.115358 161.543 88.163959 148.70185 95.632812 133.76758 C 98.585156 127.86424 101 122.60608 101 122.08398 C 101 120.78241 98.795208 120.17998 94.255859 120.25977 z M 208.69336 120.63672 C 205.58734 120.63419 202.99703 120.82647 202.32031 121.26562 C 201.48701 121.80638 203.46358 126.80864 209.04492 138.28516 C 217.0972 154.84246 223.19609 170.90599 224.50391 179 C 224.90382 181.475 225.42981 183.8375 225.67383 184.25 C 227.22392 186.87038 233.38969 181.13086 238.63086 172.1875 L 240.58594 168.84961 C 241.12615 167.9278 241.01876 167.61372 240.47266 167.05078 L 238.34766 164.80469 C 236.78172 163.15034 232.77493 159.84148 229.44531 157.45117 L 223.39258 153.10352 L 223.81641 138.15234 C 224.23119 123.55143 224.18989 123.17166 222.03711 122.01953 C 220.47745 121.18483 213.87006 120.64093 208.69336 120.63672 z M 149.72656 130 C 141.10049 130 140.70793 130.10116 138 133 C 134.93431 136.28184 126.8339 152.26346 123.87109 160.875 L 122.39844 165.1543 C 122.10736 165.97099 122.16128 166.57021 122.49609 167.16016 L 124.66992 170.9043 C 126.13709 173.43191 129.05763 178.875 131.16016 183 L 134.98242 190.5 L 136.01367 218 C 137.1648 248.71079 137.49681 251.68689 139.85156 252.37305 C 142.45651 253.13211 161.75291 252.58371 162.60742 251.72656 C 163.03098 251.30168 163.78014 237.97948 164.11523 222.11719 L 164.75781 191.68945 L 172.02734 179.1543 L 178.66406 166.08984 C 179.04066 165.352 179.15144 164.68162 178.64062 163.92578 L 173.52344 153.87305 C 167.14875 141.34793 163.71335 135.55483 160.70117 132.25 C 158.86728 130.23794 157.70726 130 149.72656 130 z M 222.03906 197 C 221.56238 197 218.25276 200.4875 214.68359 204.75 C 211.11443 209.0125 206.80094 213.8221 205.09766 215.4375 C 203.39437 217.0529 202 218.71418 202 219.12891 C 202 219.54364 203.9125 220.33292 206.25 220.88477 C 212.90302 222.45546 221.99797 221.72282 223.63477 219.48438 C 226.1288 216.07357 224.77507 197 222.03906 197 z M 78.521484 197.38672 C 77.029648 197.52658 76.433403 200.92619 76.162109 208.3125 C 75.784428 218.59535 76.67859 220.4238 82.5 221.26562 C 88.32138 222.10746 92.737177 221.98803 95.851562 220.90234 C 97.583634 220.29854 99 219.54557 99 219.22852 C 99 218.91146 95.950928 215.46781 92.224609 211.57617 C 88.49829 207.68454 84.031386 202.7 82.296875 200.5 C 80.635011 198.39214 79.416586 197.3028 78.521484 197.38672 z M 153.50977 257 C 151.47991 256.99636 149.1576 257.06022 146.4707 257.17773 C 137.02306 257.59094 136.99167 257.60224 133 261.5 C 130.79951 263.64872 129 265.93002 129 266.57031 C 129 267.95623 136.29387 272.94481 139.93359 274.04883 C 141.34525 274.47703 146.77501 274.85492 152 274.88672 C 159.95308 274.93509 162.21655 274.57764 165.89648 272.69531 C 168.31412 271.45867 170.92585 269.49191 171.70117 268.32422 C 172.99714 266.37239 172.80442 265.87821 169.30469 262.19922 C 165.61246 258.31789 162.30581 257.01575 153.50977 257 z "
       inkscape:label="ACCENT" />
    <path
       id="path32736"
       style="display:inline;fill:#f6f6e1;fill-opacity:1"
       inkscape:label="WHITE"
       d="M 176.82617 104.29883 C 176.09175 104.28727 175.46288 104.35346 174.97656 104.50781 C 172.14711 105.40585 165.51108 123.55594 166.375 128.0332 C 166.6438 129.42628 168.52251 133.4763 170.55078 137.0332 C 177.61537 149.42217 184 162.92312 184 165.47461 C 184 167.75771 181.28827 173.52583 173 188.87109 C 170.87479 192.80579 170.34086 195.67382 169.43359 208 C 168.84659 215.97498 168.26621 229.53955 168.14453 238.14453 L 167.92383 253.79102 L 171.68945 256.89453 C 173.76094 258.60203 176.11847 260 176.92773 260 C 177.73701 260 183.63714 254.82498 190.04102 248.5 C 203.36509 235.34002 202.79108 235.54087 217.1875 238.99219 C 228.61825 241.73252 230.82557 241.59334 235.38867 237.83203 C 238.80907 235.01265 247.53766 223.85972 255.21484 212.5 C 258.46436 207.69177 261.22681 200.25872 260.03711 199.52344 C 258.35421 198.48335 256.17682 200.21214 250.87695 206.80273 C 247.91934 210.48066 241.72333 217.43098 237.10742 222.24609 C 227.99556 231.75123 226.81172 232.24473 219.375 229.64648 C 212.90348 227.38548 202.49516 225.65954 199.64453 226.375 C 198.16517 226.7463 193.75751 229.98191 189.85156 233.56641 C 185.94562 237.15088 182.58132 239.91334 182.37305 239.70508 C 182.16479 239.49682 182.28958 237.16222 182.65234 234.51562 C 183.27828 229.94888 184.00951 229.00977 196.98047 216.10156 C 204.89506 208.22526 212.67181 199.41183 215.45703 195.16406 C 220.18972 187.94621 220.25694 187.73251 219.64062 181.83594 C 218.22837 168.32407 214.02391 157.25263 201.74609 134.71875 C 195.1833 122.67384 194.82046 121.6773 195.46094 117.40625 C 195.9202 114.34367 195.73398 112.38612 194.88672 111.36523 C 192.26876 108.21079 181.96709 104.37971 176.82617 104.29883 z M 126.51953 105.08203 L 123.08594 105.49414 C 120.01273 105.86321 115.025 107.15504 112 108.34766 C 112 108.34766 107.05817 109.63061 106.28906 111.17578 C 105.51994 112.72095 106.3457 116.50781 106.3457 116.50781 C 107.77254 122.74801 105.36388 124.14413 99.640625 135.5 C 89.575999 155.46987 83.045695 175.73021 83.015625 187.07812 C 82.992615 195.76225 87.051111 200.85246 107.38867 217.63867 C 118.22008 226.57869 117.82368 226.05185 118.7832 232.75 C 119.70362 239.17516 119.2627 240.23374 116.87305 237.33594 C 116.11821 236.42059 112.88831 233.49557 109.69727 230.83594 C 104.39594 226.41745 103.44743 226 98.691406 226 C 95.828599 226 89.438312 227.12011 84.492188 228.48828 C 79.546062 229.85644 75.153303 230.98128 74.728516 230.98828 C 74.44298 230.99287 73.784949 231.25413 72.816406 230.4082 C 69.790433 227.76532 62.863401 220.26367 54.814453 210.83008 C 49.263079 204.3237 44.135503 199 43.419922 199 C 39.249083 199 41.924878 205.49177 51.800781 219.32227 C 67.368771 241.1241 69.238159 242.15909 85.5 238 C 94.825214 235.61501 97.854854 235.50854 100.65625 237.4707 C 101.81178 238.28006 107.4858 243.72323 113.26562 249.56641 C 124.72995 261.15638 124.37723 260.81091 129.99023 255.52344 C 130.42146 255.11722 130.9307 254.65657 131.33203 254.25195 C 132.10839 253.46919 132.50191 252.66732 132.50391 250.48633 C 132.50569 248.21351 132.30098 244.68406 132.16016 238.18164 C 131.98529 230.1072 131.26196 215.59012 130.55273 205.92188 L 129.26367 188.3418 L 123.05469 176.68359 L 117.1875 165.66211 C 116.93579 165.21436 116.92954 164.69827 117.18945 164.11133 L 118.81641 159.76172 C 120.54796 155.13599 125.8844 144.04273 133.08203 130.10547 C 135.13068 126.13851 135.24444 125.20046 134.25195 120.46875 C 133.64723 117.5857 132.10648 112.90003 130.91211 110.01953 L 129.36914 106.29492 C 128.9282 105.26991 127.63433 105.00023 126.51953 105.08203 z M 149.64453 144.14062 C 149.31236 144.11991 149.0014 144.16949 148.70508 144.2832 C 147.52052 144.73775 137.09099 158.84441 133.20312 165.25195 C 131.68707 167.75056 131.7802 168.0287 135.97852 173.66797 C 138.36645 176.87549 142.30666 181.8625 144.73633 184.75 C 149.29825 190.17156 149.75965 190.47334 151.57812 189.23438 C 153.04466 188.23519 166.75 171.33648 168.02344 168.95703 C 168.87031 167.37464 167.80406 165.31676 161.77148 156.88477 C 155.31997 147.86722 151.96971 144.28565 149.64453 144.14062 z M 203.68359 162.16406 C 204.57674 162.03494 203.89554 165.53892 200.94727 174.125 C 200.46581 175.52714 200.45871 176.95964 200.19727 178.28125 C 199.5669 181.46792 199.43065 184.63964 199.16992 186 C 198.6192 188.87341 197.64289 189.961 193.71094 192.08203 C 191.0774 193.50265 191.0712 192.75458 188.70117 195.11133 C 182.17865 203.05707 183.39845 200.31454 185.60938 192.61328 C 185.87934 191.37578 185.54332 191.575 186.08984 188 C 187.44049 179.16497 188.29358 177.47171 192.83398 174.60547 C 194.98475 173.24775 198.14816 169.85577 199.86328 167.06836 C 201.72499 164.0427 203.0725 162.25241 203.68359 162.16406 z M 99.648438 163.38477 C 100.01082 163.41227 100.6779 164.14443 101.65234 165.57227 C 103.81504 168.74123 107.26014 172.30473 112.23438 176.51953 C 115.36514 179.17232 115.87681 180.26696 116.44531 185.51953 C 116.80128 188.80846 117.49977 193.28455 117.99609 195.4668 C 118.49238 197.64903 118.75269 199.58129 118.57422 199.75977 C 118.39574 199.93824 117.13232 198.75666 115.76758 197.13477 C 114.40283 195.51287 111.43609 193.24297 109.17578 192.08984 C 104.1724 189.53732 103.39229 188.17579 102.52539 180.5 C 102.15269 177.2 101.18072 172.0892 100.36523 169.14258 C 99.287337 165.24782 99.044473 163.33892 99.648438 163.38477 z " />
  </g>
</svg>
