<?xml version="1.0" encoding="UTF-8" standalone="no"?>
<!-- Created with Inkscape (http://www.inkscape.org/) -->

<svg
   version="1.1"
   id="svg4645"
   width="300"
   height="300"
   viewBox="0 0 300 300"
   sodipodi:docname="gratitude_prop.svg"
   inkscape:version="1.2.2 (732a01da63, 2022-12-09)"
   xmlns:inkscape="http://www.inkscape.org/namespaces/inkscape"
   xmlns:sodipodi="http://sodipodi.sourceforge.net/DTD/sodipodi-0.dtd"
   xmlns="http://www.w3.org/2000/svg"
   xmlns:svg="http://www.w3.org/2000/svg">
  <defs
     id="defs4649">
    <filter
       inkscape:collect="always"
       style="color-interpolation-filters:sRGB"
       id="filter6074"
       x="-0.042977527"
       y="-0.056764098"
       width="1.0859546"
       height="1.1135306">
      <feGaussianBlur
         inkscape:collect="always"
         stdDeviation="1.9494"
         id="feGaussianBlur6076" />
    </filter>
  </defs>
  <sodipodi:namedview
     id="namedview4647"
     pagecolor="#ffffff"
     bordercolor="#000000"
     borderopacity="0.25"
     inkscape:showpageshadow="2"
     inkscape:pageopacity="0.0"
     inkscape:pagecheckerboard="0"
     inkscape:deskcolor="#d1d1d1"
     showgrid="false"
     inkscape:zoom="2.3617366"
     inkscape:cx="104.79577"
     inkscape:cy="98.232798"
     inkscape:window-width="2560"
     inkscape:window-height="1369"
     inkscape:window-x="1912"
     inkscape:window-y="-8"
     inkscape:window-maximized="1"
     inkscape:current-layer="g4651" />
  <g
     inkscape:groupmode="layer"
     inkscape:label="Image"
     id="g4651">
    <path
       style="fill:#f6f6e1;stroke:#753f4b;stroke-width:12.3;stroke-dasharray:none;filter:url(#filter6074)"
       d="m 138,253.17306 c -3.29196,-0.99042 -3.55454,-3.76132 -1.49962,-15.82466 0.90044,-5.28597 1.26871,-9.94898 0.81839,-10.36223 -1.31971,-1.21108 -48.302307,-10.33656 -49.096203,-9.53602 C 87.825155,217.8509 87.5,221.85105 87.5,226.33939 v 6.66959 c -0.01734,1.02693 -0.733679,1.51422 -1.833243,1.52702 L 75.5,234.73562 c -16.934997,0.33251 -16.632843,0.67115 -13.063233,-14.6407 1.529964,-6.56278 2.536461,-12.32922 2.23666,-12.81431 -0.299801,-0.48509 -6.311468,-3.29817 -13.35926,-6.2513 C 44.266375,198.07619 37.421797,194.724 36.103994,193.58 32.485254,190.43853 22,167.72296 22,163.02468 c 0,-3.50541 0.53178,-4.28563 5.75,-8.43623 7.670748,-6.10136 9.415882,-6.00543 12.034502,0.66155 6.57584,16.74202 12.390753,28.42058 15.449527,31.02856 5.224002,4.4541 15.785796,9.32896 29.502835,13.61724 20.860166,6.52138 52.693616,14.00705 54.002036,12.69864 0.38648,-0.38648 1.86042,-7.54084 3.27543,-15.89857 l 2.51865,-14.87638 c 0.0431,-0.31761 0.21174,-0.33487 0.47934,-0.36067 l 2.90837,-0.28166 c 1.8335,-0.17757 3.69802,0.0474 4.1434,0.5 0.44538,0.45256 1.75098,7.54816 2.90133,15.76799 1.15036,8.21984 2.28999,15.14359 2.53252,15.38612 1.10567,1.10568 31.5702,-5.98431 51.50206,-11.98604 12.77508,-3.84673 27.80246,-10.62675 32.74458,-14.77363 2.03711,-1.70932 5.362,-8.45274 14.08745,-28.5716 3.66918,-8.46028 4.9857,-8.77074 12.72163,-3 5.17759,3.8623 5.36363,4.16697 5.40426,8.85049 0.0339,3.9114 -1.08886,7.20271 -5.79934,17 -3.21278,6.68223 -6.70028,12.8789 -7.75,13.77039 -1.04972,0.89148 -4.38358,2.55169 -7.40858,3.68934 -11.19244,4.20932 -19.44732,8.08104 -20.60494,9.66418 -1.23821,1.69335 -0.90964,3.67593 2.97574,17.95554 1.49227,5.48444 1.48975,6.06667 -0.0336,7.75 C 233.91375,234.75278 232.0132,235 221.34501,235 h -11.25067 c -1.05628,0.008 -1.10096,-0.45089 -1.09434,-1.1546 v -7.37678 c 0,-6.23001 -0.36334,-8.67081 -1.34691,-9.04825 -1.6421,-0.63013 -46.69818,8.42823 -48.27721,9.70596 -0.82951,0.67123 -0.78977,2.54293 0.15163,7.14165 2.02108,9.87292 2.58476,16.11829 1.59115,17.62937 -1.04476,1.58886 -18.81803,2.56961 -23.11866,1.27571 z M 124.5,202.52079 C 89.094097,196.84997 62.3678,183.31418 53.57681,166.60106 51.024249,161.74822 51,161.48551 51,138.68411 v -23.01802 l 3.598789,-6.58304 c 5.673633,-10.378436 5.763887,-10.439698 11.269719,-7.64968 8.80268,4.46065 17.32803,7.50011 26.463642,9.4348 19.03633,4.03142 26.44029,4.63259 56.66785,4.60115 25.15449,-0.0262 31.63593,-0.35302 44,-2.21891 17.14761,-2.58777 22.73019,-4.13759 33.69041,-9.35301 4.50472,-2.14357 8.60743,-3.8974 9.11711,-3.8974 1.0809,0 4.96872,5.68092 8.13414,11.88565 2.13278,4.18058 2.20246,5.21403 1.88646,27.97764 -0.3699,26.64614 -0.33028,26.48292 -8.56458,35.28605 -10.08615,10.78291 -27.28268,18.84741 -52.8493,24.78426 -13.72032,3.18601 -21.22812,3.99559 -22.52807,2.42925 -0.59787,-0.72039 -1.94528,-6.38424 -2.99424,-12.58633 -1.04897,-6.20208 -2.11465,-11.83902 -2.36819,-12.52652 -0.50676,-1.37417 -13.18689,-1.78067 -15.11911,-0.48469 -0.60245,0.40408 -1.36808,2.30969 -1.70141,4.23469 -3.5721,20.62934 -4.34836,23.27961 -6.70322,22.88575 -0.275,-0.046 -4.1,-0.66023 -8.5,-1.36496 z m -6.28287,-93.49124 C 104.72699,107.8151 96.769202,106.31444 85.533943,102.86622 74.596592,99.509434 62,93.615901 62,91.855462 62,90.260173 65.996643,84 67.015114,84 c 0.468597,0 3.019395,1.332658 5.66844,2.961462 C 79.613177,91.222241 93.727822,95.609026 107,97.6269 c 17.25118,2.62283 70.43615,2.6298 84.5,0.01107 11.94219,-2.223671 24.84717,-6.720087 30.72905,-10.706765 2.34902,-1.592146 4.61506,-2.903 5.03565,-2.913009 0.99918,-0.02378 4.72673,6.103681 4.73156,7.777885 0.005,1.779495 -14.66427,8.650349 -24.99626,11.707739 -4.675,1.38341 -13,3.19527 -18.5,4.02637 -11.81404,1.78521 -56.51484,2.73882 -70.28287,1.49936 z M 118.3885,92.005632 C 98.429197,89.910699 83.51245,86.493823 77.944096,82.74131 69.152728,76.816808 75.215917,71.770579 96.165145,67.576423 112.3127,64.34359 127.62237,63.006834 148.5,63.006834 c 42.98108,0 77.34685,8.002779 71.899,16.743166 -2.74277,4.400439 -12.45356,7.650012 -32.399,10.841859 -11.15118,1.784511 -57.17404,2.719211 -69.6115,1.413773 z"
       id="path5135"
       sodipodi:nodetypes="sssssccssssssssssssccssssssssssssssssccssssssssscssssssssssssssssssssssssssscssssssssss"
       inkscape:label="STROKE" />
    <path
       style="fill:#f6f6e1"
       d="m 138,253.17306 c -3.29196,-0.99042 -3.55454,-3.76132 -1.49962,-15.82466 0.90044,-5.28597 1.26871,-9.94898 0.81839,-10.36223 -1.31971,-1.21108 -48.302307,-10.33656 -49.096203,-9.53602 C 87.825155,217.8509 87.5,221.85105 87.5,226.33939 v 6.66959 c -0.01734,1.02693 -0.733679,1.51422 -1.833243,1.52702 L 75.5,234.73562 c -16.934997,0.33251 -16.632843,0.67115 -13.063233,-14.6407 1.529964,-6.56278 2.536461,-12.32922 2.23666,-12.81431 -0.299801,-0.48509 -6.311468,-3.29817 -13.35926,-6.2513 C 44.266375,198.07619 37.421797,194.724 36.103994,193.58 32.485254,190.43853 22,167.72296 22,163.02468 c 0,-3.50541 0.53178,-4.28563 5.75,-8.43623 7.670748,-6.10136 9.415882,-6.00543 12.034502,0.66155 6.57584,16.74202 12.390753,28.42058 15.449527,31.02856 5.224002,4.4541 15.785796,9.32896 29.502835,13.61724 20.860166,6.52138 52.693616,14.00705 54.002036,12.69864 0.38648,-0.38648 1.86042,-7.54084 3.27543,-15.89857 l 2.51865,-14.87638 c 0.0431,-0.31761 0.21174,-0.33487 0.47934,-0.36067 l 2.90837,-0.28166 c 1.8335,-0.17757 3.69802,0.0474 4.1434,0.5 0.44538,0.45256 1.75098,7.54816 2.90133,15.76799 1.15036,8.21984 2.28999,15.14359 2.53252,15.38612 1.10567,1.10568 31.5702,-5.98431 51.50206,-11.98604 12.77508,-3.84673 27.80246,-10.62675 32.74458,-14.77363 2.03711,-1.70932 5.362,-8.45274 14.08745,-28.5716 3.66918,-8.46028 4.9857,-8.77074 12.72163,-3 5.17759,3.8623 5.36363,4.16697 5.40426,8.85049 0.0339,3.9114 -1.08886,7.20271 -5.79934,17 -3.21278,6.68223 -6.70028,12.8789 -7.75,13.77039 -1.04972,0.89148 -4.38358,2.55169 -7.40858,3.68934 -11.19244,4.20932 -19.44732,8.08104 -20.60494,9.66418 -1.23821,1.69335 -0.90964,3.67593 2.97574,17.95554 1.49227,5.48444 1.48975,6.06667 -0.0336,7.75 C 233.91375,234.75278 232.0132,235 221.34501,235 h -11.25067 c -1.05628,0.008 -1.10096,-0.45089 -1.09434,-1.1546 v -7.37678 c 0,-6.23001 -0.36334,-8.67081 -1.34691,-9.04825 -1.6421,-0.63013 -46.69818,8.42823 -48.27721,9.70596 -0.82951,0.67123 -0.78977,2.54293 0.15163,7.14165 2.02108,9.87292 2.58476,16.11829 1.59115,17.62937 -1.04476,1.58886 -18.81803,2.56961 -23.11866,1.27571 z M 124.5,202.52079 C 89.094097,196.84997 62.3678,183.31418 53.57681,166.60106 51.024249,161.74822 51,161.48551 51,138.68411 v -23.01802 l 3.598789,-6.58304 c 5.673633,-10.378436 5.763887,-10.439698 11.269719,-7.64968 8.80268,4.46065 17.32803,7.50011 26.463642,9.4348 19.03633,4.03142 26.44029,4.63259 56.66785,4.60115 25.15449,-0.0262 31.63593,-0.35302 44,-2.21891 17.14761,-2.58777 22.73019,-4.13759 33.69041,-9.35301 4.50472,-2.14357 8.60743,-3.8974 9.11711,-3.8974 1.0809,0 4.96872,5.68092 8.13414,11.88565 2.13278,4.18058 2.20246,5.21403 1.88646,27.97764 -0.3699,26.64614 -0.33028,26.48292 -8.56458,35.28605 -10.08615,10.78291 -27.28268,18.84741 -52.8493,24.78426 -13.72032,3.18601 -21.22812,3.99559 -22.52807,2.42925 -0.59787,-0.72039 -1.94528,-6.38424 -2.99424,-12.58633 -1.04897,-6.20208 -2.11465,-11.83902 -2.36819,-12.52652 -0.50676,-1.37417 -13.18689,-1.78067 -15.11911,-0.48469 -0.60245,0.40408 -1.36808,2.30969 -1.70141,4.23469 -3.5721,20.62934 -4.34836,23.27961 -6.70322,22.88575 -0.275,-0.046 -4.1,-0.66023 -8.5,-1.36496 z m -6.28287,-93.49124 C 104.72699,107.8151 96.769202,106.31444 85.533943,102.86622 74.596592,99.509434 62,93.615901 62,91.855462 62,90.260173 65.996643,84 67.015114,84 c 0.468597,0 3.019395,1.332658 5.66844,2.961462 C 79.613177,91.222241 93.727822,95.609026 107,97.6269 c 17.25118,2.62283 70.43615,2.6298 84.5,0.01107 11.94219,-2.223671 24.84717,-6.720087 30.72905,-10.706765 2.34902,-1.592146 4.61506,-2.903 5.03565,-2.913009 0.99918,-0.02378 4.72673,6.103681 4.73156,7.777885 0.005,1.779495 -14.66427,8.650349 -24.99626,11.707739 -4.675,1.38341 -13,3.19527 -18.5,4.02637 -11.81404,1.78521 -56.51484,2.73882 -70.28287,1.49936 z M 118.3885,92.005632 C 98.429197,89.910699 83.51245,86.493823 77.944096,82.74131 69.152728,76.816808 75.215917,71.770579 96.165145,67.576423 112.3127,64.34359 127.62237,63.006834 148.5,63.006834 c 42.98108,0 77.34685,8.002779 71.899,16.743166 -2.74277,4.400439 -12.45356,7.650012 -32.399,10.841859 -11.15118,1.784511 -57.17404,2.719211 -69.6115,1.413773 z"
       id="path5287"
       sodipodi:nodetypes="sssssccssssssssssssccssssssssssssssssccssssssssscssssssssssssssssssssssssssscssssssssss"
       inkscape:label="PROP" />
  </g>
</svg>
