<?xml version="1.0" encoding="UTF-8" standalone="no"?>
<!-- Created with Inkscape (http://www.inkscape.org/) -->

<svg
   version="1.1"
   id="svg31532"
   width="300"
   height="300"
   viewBox="0 0 300 300"
   sodipodi:docname="face_accessory_spell.svg"
   inkscape:version="1.2.2 (732a01da63, 2022-12-09)"
   inkscape:export-filename="face_accessory.png"
   inkscape:export-xdpi="96"
   inkscape:export-ydpi="96"
   xml:space="preserve"
   xmlns:inkscape="http://www.inkscape.org/namespaces/inkscape"
   xmlns:sodipodi="http://sodipodi.sourceforge.net/DTD/sodipodi-0.dtd"
   xmlns="http://www.w3.org/2000/svg"
   xmlns:svg="http://www.w3.org/2000/svg"><defs
     id="defs31536" /><sodipodi:namedview
     id="namedview31534"
     pagecolor="#ffffff"
     bordercolor="#000000"
     borderopacity="0.25"
     inkscape:showpageshadow="2"
     inkscape:pageopacity="0.0"
     inkscape:pagecheckerboard="0"
     inkscape:deskcolor="#d1d1d1"
     showgrid="false"
     inkscape:zoom="2.4206622"
     inkscape:cx="15.904739"
     inkscape:cy="106.78896"
     inkscape:window-width="2560"
     inkscape:window-height="1351"
     inkscape:window-x="2391"
     inkscape:window-y="-9"
     inkscape:window-maximized="1"
     inkscape:current-layer="g31538" /><g
     inkscape:groupmode="layer"
     inkscape:label="Image"
     id="g31538"><rect
       style="fill:#292c2b;fill-opacity:1;stroke:none;stroke-width:43.8978;stop-color:#000000"
       id="rect32909"
       width="300"
       height="300"
       x="0"
       y="0"
       ry="45"
       rx="45"
       inkscape:label="spell_background" /><path
       id="path36607"
       style="fill:#f9f0d4;fill-opacity:1;stroke-width:1.046"
       d="m 67.166437,108.11049 c -0.810546,0.0709 -4.078818,2.97089 -5.166661,4.31271 -1.970885,2.43104 -2.318372,2.27773 0,5.21773 0.851086,1.09588 1.944785,2.61645 3.162511,3.43832 1.437468,0.85319 3.081895,1.1192 3.840777,0.83557 1.425611,-0.53282 0.508734,-4.15081 0.08784,-5.51601 -0.979504,-3.17713 -1.249958,-7.87925 -1.795767,-8.2638 -0.03082,-0.0217 -0.07467,-0.0293 -0.128707,-0.0245 z m -0.639448,17.85145 c -3.425474,0.0711 -6.846473,1.3037 -9.618284,3.56497 -7.836594,6.3932 -6.81564,16.05868 -0.253329,22.08651 2.92759,2.68915 6.4575,3.58248 9.857312,3.2381 l 4.265713,-0.43311 -0.283972,-5.86944 c -0.146651,-3.03522 0.05703,-9.47024 -0.318703,-13.93712 -0.37573,-4.46686 -0.656695,-8.42569 -1.285025,-8.51303 -0.783179,-0.10883 -1.573218,-0.1533 -2.363712,-0.13688 z m -17.800364,5.37096 c -0.80393,-0.003 -3.391324,2.52756 -5.79181,6.57018 -3.686851,6.20897 -4.531618,14.08326 -2.915312,20.62986 1.010556,4.09311 3.841279,10.63374 7.94101,13.71853 5.110169,3.84507 8.962184,5.56851 10.948255,6.36588 2.549538,0.61834 6.517347,0.84123 9.483449,0.80901 1.694495,-0.0146 5.00013,-0.23879 5.955246,-0.40246 1.678559,-0.30952 4.546773,-0.95375 4.825487,-1.59965 0.477027,-1.10546 0.722564,-3.39707 -0.614934,-6.50889 0,0 -1.205192,-6.44954 -2.896925,-5.83674 -4.764239,1.72572 -10.176015,1.64662 -10.176015,1.64662 -3.22302,-0.0781 -4.959391,-0.62468 -6.71523,-1.24825 -1.499939,-0.53268 -3.087035,-1.48735 -4.829571,-2.8193 -5.281126,-4.0367 -8.745496,-10.86889 -8.776583,-16.29878 -0.0139,-2.42913 0.520385,-7.12691 1.552654,-9.95945 0.610486,-1.67518 1.653712,-2.97484 1.973506,-3.78767 0.159404,-0.40516 0.729913,-0.89865 0.173651,-1.24416 -0.03715,-0.0231 -0.08328,-0.0345 -0.136878,-0.0347 z" /><path
       id="path9230"
       style="display:inline;fill:#c79290;fill-opacity:1;stroke-width:1.046"
       d="m 228.70382,91.472751 c -1.11012,0 -2.50568,0.909759 -3.10122,2.022536 -0.59554,1.112777 -0.69151,11.491813 -0.69151,15.222043 0,3.7302 -0.88766,12.2227 -0.53845,13.1327 1.04233,0.61648 6.0645,2.49249 7.02763,1.63554 0.73543,-0.81417 1.45606,-17.09603 1.48754,-19.53031 0.0453,-3.50499 -0.48724,-9.347196 -1.08277,-10.459973 -0.59554,-1.112777 -1.99111,-2.022536 -3.10122,-2.022536 z M 66.651669,91.675004 c -0.458169,-0.02037 -0.929004,0.249348 -1.593516,0.800843 -1.094439,0.908306 -1.622114,3.16152 -1.622114,6.933824 0,3.073919 0.667483,10.664539 1.483195,16.868779 0.815701,6.20424 1.746451,17.87106 2.069518,25.92524 0.323078,8.05418 1.317781,17.42924 2.210488,20.83417 0.892718,3.40493 3.13604,9.05332 4.984843,12.55199 1.874754,3.54777 6.650324,9.67117 10.797081,13.84313 5.785471,5.82066 9.437324,8.43498 16.458116,11.78587 4.96251,2.36851 11.73865,4.96491 15.05871,5.76934 3.46574,0.83972 11.82789,1.49416 19.63494,1.53631 9.46168,0.0511 16.48223,-0.52203 23.07939,-1.88361 5.21466,-1.07625 13.00783,-3.58782 17.31822,-5.57935 4.31042,-1.99152 10.39905,-5.26867 13.53057,-7.28317 3.13151,-2.0145 8.24529,-5.96944 11.36503,-8.78884 3.11973,-2.81939 7.49501,-7.43011 9.72042,-10.24547 0,0 3.30804,-2.77921 3.21507,-4.95163 -0.0465,-1.08683 -1.405,-2.54402 -1.405,-2.54402 -1.2288,-1.308 -3.36429,-2.66203 -4.74785,-3.00928 -2.11588,-0.53105 -3.63417,0.55353 -9.55087,6.82555 -3.86888,4.10122 -9.90581,9.50567 -13.41615,12.01059 -3.51033,2.50493 -9.6415,6.01875 -13.62454,7.80822 -3.98307,1.78946 -11.24327,4.21377 -16.13331,5.3873 -7.50057,1.79999 -11.0993,2.04755 -23.01197,1.58329 -9.48573,-0.36966 -15.83774,-1.14963 -19.35098,-2.37596 -2.87649,-1.00408 -7.58349,-3.33263 -10.45998,-5.17279 -2.876495,-1.84015 -7.955805,-6.22198 -11.287384,-9.73882 -3.331568,-3.51685 -7.182203,-8.88038 -8.557984,-11.91867 -1.375771,-3.03828 -3.00391,-9.28977 -3.616049,-13.89216 -0.612139,-4.6024 -1.57973,-12.83965 -2.151243,-18.30498 -0.571513,-5.46533 -2.471036,-17.23127 -4.220772,-26.14588 -1.749725,-8.91462 -3.84803,-16.87604 -4.664087,-17.692094 -0.60806,-0.608056 -1.053624,-0.917358 -1.511792,-0.937722 z"
       inkscape:label="head"
       sodipodi:nodetypes="sssccsssssssssssssssssscscsssssssssssssss" /><path
       id="path36609"
       style="fill:#f9f0d4;fill-opacity:1;stroke-width:1.046"
       d="m 232.76927,108.73974 c -1.09664,0.0254 -3.68347,2.63338 -3.68347,2.63338 -3.28149,3.28148 -2.69154,4.01514 0.26967,7.11361 3.50305,3.66539 4.17546,3.47528 7.4221,0.22268 3.04997,-3.05557 3.39932,-3.95304 -0.29623,-7.4936 0,0 -2.71918,-2.49909 -3.71207,-2.47607 z m -0.0347,16.94027 c -13.45279,0.2564 -19.05086,18.37217 -8.26176,26.85887 3.20049,2.5175 11.39309,3.10194 15.54901,0.99901 6.54354,-3.31105 9.8599,-13.34374 6.05944,-19.85762 -2.07956,-3.56434 -7.33498,-8.11485 -13.34669,-8.00026 z m -17.05672,5.46902 c -1.22871,0.0203 -5.4207,4.50607 -7.84295,9.4385 -3.70136,7.53712 -3.12756,17.99038 0.32483,24.99161 2.63398,5.34158 10.5305,11.03382 17.87799,13.03003 13.91122,3.77951 28.51226,-3.7848 33.26359,-18.01896 2.11201,-6.32729 2.05979,-9.50338 0.48418,-15.67159 -1.56561,-6.12896 -6.64114,-12.9222 -8.01048,-12.13521 -0.89807,0.51613 0.21827,1.9531 1.12363,3.70389 2.0219,3.90991 2.13702,12.64012 0.22678,17.21199 -1.81971,4.35515 -7.4961,9.57392 -11.85125,11.39362 -7.0807,2.95851 -17.68378,0.97801 -23.12433,-4.5027 -7.89117,-7.94939 -7.25066,-18.48655 -3.138,-26.50136 0.78464,-1.52912 1.56755,-2.37537 0.87234,-2.88262 -0.0542,-0.0395 -0.12442,-0.0586 -0.20633,-0.0572 z" /></g></svg>
