<?xml version="1.0" encoding="UTF-8" standalone="no"?>
<!-- Created with Inkscape (http://www.inkscape.org/) -->

<svg
   version="1.1"
   id="svg31532"
   width="300"
   height="300"
   viewBox="0 0 300 300"
   sodipodi:docname="face_accessory.svg"
   inkscape:version="1.2.2 (732a01da63, 2022-12-09)"
   xmlns:inkscape="http://www.inkscape.org/namespaces/inkscape"
   xmlns:sodipodi="http://sodipodi.sourceforge.net/DTD/sodipodi-0.dtd"
   xmlns:xlink="http://www.w3.org/1999/xlink"
   xmlns="http://www.w3.org/2000/svg"
   xmlns:svg="http://www.w3.org/2000/svg">
  <defs
     id="defs31536">
    <filter
       inkscape:collect="always"
       style="color-interpolation-filters:sRGB"
       id="filter11435"
       x="-0.050265103"
       y="-0.094925159"
       width="1.0997753"
       height="1.18985">
      <feGaussianBlur
         inkscape:collect="always"
         stdDeviation="1.8636734"
         id="feGaussianBlur11437" />
    </filter>
    <radialGradient
       inkscape:collect="always"
       xlink:href="#linearGradient4866"
       id="radialGradient4868"
       cx="106.95942"
       cy="176.6734"
       fx="106.95942"
       fy="176.6734"
       r="81.001289"
       gradientTransform="matrix(3.5125843,0.05416335,-0.02490385,1.6150549,-228.23158,-89.337588)"
       gradientUnits="userSpaceOnUse" />
    <linearGradient
       inkscape:collect="always"
       id="linearGradient4866">
      <stop
         style="stop-color:#d7afab;stop-opacity:1;"
         offset="0"
         id="stop4862" />
      <stop
         style="stop-color:#985661;stop-opacity:1;"
         offset="1"
         id="stop4864" />
    </linearGradient>
  </defs>
  <sodipodi:namedview
     id="namedview31534"
     pagecolor="#ffffff"
     bordercolor="#000000"
     borderopacity="0.25"
     inkscape:showpageshadow="2"
     inkscape:pageopacity="0.0"
     inkscape:pagecheckerboard="0"
     inkscape:deskcolor="#d1d1d1"
     showgrid="false"
     inkscape:zoom="2.4206622"
     inkscape:cx="-20.44895"
     inkscape:cy="107.20207"
     inkscape:window-width="2560"
     inkscape:window-height="1351"
     inkscape:window-x="2391"
     inkscape:window-y="-9"
     inkscape:window-maximized="1"
     inkscape:current-layer="g31538" />
  <g
     inkscape:groupmode="layer"
     inkscape:label="Image"
     id="g31538">
    <path
       id="path4093"
       style="display:inline;fill:none;fill-opacity:1;stroke:#753f4b;stroke-width:12.3;stroke-dasharray:none;filter:url(#filter11435)"
       inkscape:label="stroke"
       d="m 225.24271,94.046382 c -1.0613,0 -2.39549,0.869752 -2.96484,1.933593 -0.56935,1.06384 -0.66016,10.986555 -0.66016,14.552735 0,3.56616 -0.84947,11.68471 -0.51562,12.55469 0.99649,0.58937 5.79798,2.38372 6.71875,1.56445 0.1629,-0.18034 0.32319,-1.20746 0.47656,-2.62695 1.52129,0.93312 2.50115,0.22743 4.66406,-1.93945 2.91585,-2.9212 3.24984,-3.77922 -0.2832,-7.16406 0,0 -2.5996,-2.38919 -3.54883,-2.36719 -0.0192,4.4e-4 -0.0462,0.0155 -0.0664,0.0176 0.0993,-2.14135 0.17118,-3.93377 0.17969,-4.5918 0.0433,-3.35086 -0.4658,-8.936165 -1.03515,-10.000005 -0.56935,-1.063841 -1.90355,-1.933593 -2.96485,-1.933593 z M 70.316931,94.239741 c -0.43802,-0.01947 -0.888149,0.238384 -1.523438,0.765625 -1.046309,0.868362 -1.550781,3.022493 -1.550781,6.628904 0,2.01341 0.310575,6.07782 0.75,10.33008 -0.852894,0.7601 -1.681883,1.56717 -2.123047,2.11133 -1.88421,2.32413 -2.216416,2.17759 0,4.98828 0.813657,1.04768 1.859266,2.50139 3.023437,3.28711 0.09824,0.0583 0.200904,0.092 0.300782,0.14453 0.145217,1.4318 0.281898,2.98781 0.419922,4.58594 -3.07673,0.18822 -6.119654,1.31298 -8.611328,3.3457 -7.491959,6.11205 -6.515904,15.35251 -0.242188,21.11524 2.79884,2.57089 6.173532,3.42494 9.423828,3.0957 l 1.347656,-0.13672 c 0.374444,3.45111 0.808376,6.39021 1.220704,7.96289 0.23832,0.90899 0.590781,1.99838 0.99414,3.15039 -2.540979,0.35418 -4.544922,0.375 -4.544922,0.375 -3.081279,-0.0746 -4.7413,-0.59721 -6.419922,-1.19335 -1.433974,-0.50926 -2.951284,-1.42195 -4.617187,-2.69532 -5.048874,-3.85917 -8.360905,-10.39092 -8.390625,-15.58203 -0.01329,-2.32231 0.497503,-6.81352 1.484375,-9.52148 0.583637,-1.60151 1.580988,-2.84401 1.886719,-3.6211 0.152392,-0.38734 0.697815,-0.85913 0.166015,-1.18945 -0.03552,-0.0221 -0.07962,-0.033 -0.130859,-0.0332 -0.768575,-0.003 -3.242192,2.41641 -5.53711,6.28125 -3.524711,5.93591 -4.332333,13.46396 -2.787109,19.72265 0.966114,3.91311 3.672363,10.16611 7.591797,13.11524 4.885435,3.67596 8.568069,5.32363 10.466797,6.08594 2.437414,0.59115 6.230747,0.80423 9.066406,0.77343 1.619976,-0.014 4.780247,-0.22829 5.693359,-0.38476 0.467547,-0.0862 1.065438,-0.24234 1.636719,-0.375 2.22617,3.2701 5.545896,7.32464 8.529297,10.32617 5.531045,5.56468 9.022329,8.06405 15.734372,11.26758 4.74428,2.26435 11.22243,4.74656 14.39649,5.51562 3.31332,0.80279 11.30776,1.42845 18.77148,1.46875 9.04558,0.0488 15.75742,-0.49908 22.06446,-1.80078 4.98533,-1.02892 12.4358,-3.43004 16.55664,-5.33398 4.12085,-1.90395 9.94174,-5.03699 12.93554,-6.96289 2.9938,-1.92591 7.8827,-5.70694 10.86524,-8.40235 2.98253,-2.6954 7.16542,-7.10337 9.29297,-9.79492 0,0 1.43492,-1.22157 2.34375,-2.65234 3.37934,2.81866 7.71739,5.21332 11.89257,6.34765 13.29944,3.6133 27.25841,-3.61838 31.80079,-17.22656 2.01912,-6.04903 1.96919,-9.08548 0.46289,-14.98242 -1.49676,-5.85944 -6.34909,-12.35394 -7.65821,-11.60156 -0.85858,0.49344 0.20867,1.86721 1.07422,3.54101 1.93298,3.73797 2.04304,12.08426 0.2168,16.45508 -1.73968,4.16363 -7.16645,9.1529 -11.33008,10.89258 -6.7693,2.8284 -16.90614,0.935 -22.10742,-4.30469 -7.54412,-7.59979 -6.9318,-17.67359 -3,-25.33594 0.75014,-1.46188 1.49862,-2.27092 0.83398,-2.75586 -0.0518,-0.0378 -0.11895,-0.056 -0.19726,-0.0547 -1.17467,0.0194 -5.18232,4.30793 -7.49805,9.02343 -3.30933,6.73883 -3.00972,15.88188 -0.26172,22.51758 -1.75108,-0.13192 -3.4467,1.24995 -8.51172,6.61914 -3.69874,3.92087 -9.4702,9.08766 -12.82617,11.48242 -3.35596,2.39477 -9.2175,5.75408 -13.02539,7.46485 -3.80791,1.71077 -10.74883,4.02847 -15.42383,5.15039 -7.17072,1.72084 -10.61121,1.95751 -22,1.51367 -9.06858,-0.35341 -15.14126,-1.09908 -18.5,-2.27148 -2.75,-0.95992 -7.25,-3.18608 -10,-4.94532 -2.75,-1.75922 -7.605947,-5.94836 -10.791014,-9.31054 -3.185057,-3.36219 -6.866362,-8.48987 -8.18164,-11.39453 -1.315269,-2.90467 -2.871812,-8.88126 -3.457032,-13.28125 -0.585219,-4.4 -1.510261,-12.27502 -2.05664,-17.5 -0.54638,-5.22499 -2.362368,-16.47353 -4.035156,-24.9961 C 74.548449,103.52771 72.542412,95.916392 71.762243,95.136225 71.180924,94.55491 70.75495,94.25921 70.316931,94.239741 Z M 229.09623,126.74951 c -12.86117,0.24513 -18.21306,17.56426 -7.89844,25.67773 3.05974,2.40679 10.89209,2.96553 14.86523,0.95508 6.25578,-3.16543 9.4263,-12.75696 5.79297,-18.98437 -1.98809,-3.40759 -7.01244,-7.75799 -12.75976,-7.64844 z"
       transform="matrix(1.0459987,0,0,1.0459987,-6.8998052,-6.8998066)" />
    <path
       id="path36607"
       style="fill:#f6f6e1;fill-opacity:1;stroke-width:1.046"
       d="m 67.166437,108.11049 c -0.810546,0.0709 -4.078818,2.97089 -5.166661,4.31271 -1.970885,2.43104 -2.318372,2.27773 0,5.21773 0.851086,1.09588 1.944785,2.61645 3.162511,3.43832 1.437468,0.85319 3.081895,1.1192 3.840777,0.83557 1.425611,-0.53282 0.508734,-4.15081 0.08784,-5.51601 -0.979504,-3.17713 -1.249958,-7.87925 -1.795767,-8.2638 -0.03082,-0.0217 -0.07467,-0.0293 -0.128707,-0.0245 z m -0.639448,17.85145 c -3.425474,0.0711 -6.846473,1.3037 -9.618284,3.56497 -7.836594,6.3932 -6.81564,16.05868 -0.253329,22.08651 2.92759,2.68915 6.4575,3.58248 9.857312,3.2381 l 4.265713,-0.43311 -0.283972,-5.86944 c -0.146651,-3.03522 0.05703,-9.47024 -0.318703,-13.93712 -0.37573,-4.46686 -0.656695,-8.42569 -1.285025,-8.51303 -0.783179,-0.10883 -1.573218,-0.1533 -2.363712,-0.13688 z m -17.800364,5.37096 c -0.80393,-0.003 -3.391324,2.52756 -5.79181,6.57018 -3.686851,6.20897 -4.531618,14.08326 -2.915312,20.62986 1.010556,4.09311 3.841279,10.63374 7.94101,13.71853 5.110169,3.84507 8.962184,5.56851 10.948255,6.36588 2.549538,0.61834 6.517347,0.84123 9.483449,0.80901 1.694495,-0.0146 5.00013,-0.23879 5.955246,-0.40246 1.678559,-0.30952 4.546773,-0.95375 4.825487,-1.59965 0.477027,-1.10546 0.722564,-3.39707 -0.614934,-6.50889 0,0 -1.205192,-6.44954 -2.896925,-5.83674 -4.764239,1.72572 -10.176015,1.64662 -10.176015,1.64662 -3.22302,-0.0781 -4.959391,-0.62468 -6.71523,-1.24825 -1.499939,-0.53268 -3.087035,-1.48735 -4.829571,-2.8193 -5.281126,-4.0367 -8.745496,-10.86889 -8.776583,-16.29878 -0.0139,-2.42913 0.520385,-7.12691 1.552654,-9.95945 0.610486,-1.67518 1.653712,-2.97484 1.973506,-3.78767 0.159404,-0.40516 0.729913,-0.89865 0.173651,-1.24416 -0.03715,-0.0231 -0.08328,-0.0345 -0.136878,-0.0347 z" />
    <path
       id="path9230"
       style="display:inline;fill:url(#radialGradient4868);fill-opacity:1;stroke-width:1.046"
       d="m 228.70382,91.472751 c -1.11012,0 -2.50568,0.909759 -3.10122,2.022536 -0.59554,1.112777 -0.69151,11.491813 -0.69151,15.222043 0,3.7302 -0.88766,12.2227 -0.53845,13.1327 1.04233,0.61648 6.0645,2.49249 7.02763,1.63554 0.73543,-0.81417 1.45606,-17.09603 1.48754,-19.53031 0.0453,-3.50499 -0.48724,-9.347196 -1.08277,-10.459973 -0.59554,-1.112777 -1.99111,-2.022536 -3.10122,-2.022536 z M 66.651669,91.675004 c -0.458169,-0.02037 -0.929004,0.249348 -1.593516,0.800843 -1.094439,0.908306 -1.622114,3.16152 -1.622114,6.933824 0,3.073919 0.667483,10.664539 1.483195,16.868779 0.815701,6.20424 1.746451,17.87106 2.069518,25.92524 0.323078,8.05418 1.317781,17.42924 2.210488,20.83417 0.892718,3.40493 3.13604,9.05332 4.984843,12.55199 1.874754,3.54777 6.650324,9.67117 10.797081,13.84313 5.785471,5.82066 9.437324,8.43498 16.458116,11.78587 4.96251,2.36851 11.73865,4.96491 15.05871,5.76934 3.46574,0.83972 11.82789,1.49416 19.63494,1.53631 9.46168,0.0511 16.48223,-0.52203 23.07939,-1.88361 5.21466,-1.07625 13.00783,-3.58782 17.31822,-5.57935 4.31042,-1.99152 10.39905,-5.26867 13.53057,-7.28317 3.13151,-2.0145 8.24529,-5.96944 11.36503,-8.78884 3.11973,-2.81939 7.49501,-7.43011 9.72042,-10.24547 0,0 3.30804,-2.77921 3.21507,-4.95163 -0.0465,-1.08683 -1.405,-2.54402 -1.405,-2.54402 -1.2288,-1.308 -3.36429,-2.66203 -4.74785,-3.00928 -2.11588,-0.53105 -3.63417,0.55353 -9.55087,6.82555 -3.86888,4.10122 -9.90581,9.50567 -13.41615,12.01059 -3.51033,2.50493 -9.6415,6.01875 -13.62454,7.80822 -3.98307,1.78946 -11.24327,4.21377 -16.13331,5.3873 -7.50057,1.79999 -11.0993,2.04755 -23.01197,1.58329 -9.48573,-0.36966 -15.83774,-1.14963 -19.35098,-2.37596 -2.87649,-1.00408 -7.58349,-3.33263 -10.45998,-5.17279 -2.876495,-1.84015 -7.955805,-6.22198 -11.287384,-9.73882 -3.331568,-3.51685 -7.182203,-8.88038 -8.557984,-11.91867 -1.375771,-3.03828 -3.00391,-9.28977 -3.616049,-13.89216 -0.612139,-4.6024 -1.57973,-12.83965 -2.151243,-18.30498 -0.571513,-5.46533 -2.471036,-17.23127 -4.220772,-26.14588 -1.749725,-8.91462 -3.84803,-16.87604 -4.664087,-17.692094 -0.60806,-0.608056 -1.053624,-0.917358 -1.511792,-0.937722 z"
       inkscape:label="head"
       sodipodi:nodetypes="sssccsssssssssssssssssscscsssssssssssssss" />
    <path
       id="path36609"
       style="fill:#f6f6e1;fill-opacity:1;stroke-width:1.046"
       d="m 232.76927,108.73974 c -1.09664,0.0254 -3.68347,2.63338 -3.68347,2.63338 -3.28149,3.28148 -2.69154,4.01514 0.26967,7.11361 3.50305,3.66539 4.17546,3.47528 7.4221,0.22268 3.04997,-3.05557 3.39932,-3.95304 -0.29623,-7.4936 0,0 -2.71918,-2.49909 -3.71207,-2.47607 z m -0.0347,16.94027 c -13.45279,0.2564 -19.05086,18.37217 -8.26176,26.85887 3.20049,2.5175 11.39309,3.10194 15.54901,0.99901 6.54354,-3.31105 9.8599,-13.34374 6.05944,-19.85762 -2.07956,-3.56434 -7.33498,-8.11485 -13.34669,-8.00026 z m -17.05672,5.46902 c -1.22871,0.0203 -5.4207,4.50607 -7.84295,9.4385 -3.70136,7.53712 -3.12756,17.99038 0.32483,24.99161 2.63398,5.34158 10.5305,11.03382 17.87799,13.03003 13.91122,3.77951 28.51226,-3.7848 33.26359,-18.01896 2.11201,-6.32729 2.05979,-9.50338 0.48418,-15.67159 -1.56561,-6.12896 -6.64114,-12.9222 -8.01048,-12.13521 -0.89807,0.51613 0.21827,1.9531 1.12363,3.70389 2.0219,3.90991 2.13702,12.64012 0.22678,17.21199 -1.81971,4.35515 -7.4961,9.57392 -11.85125,11.39362 -7.0807,2.95851 -17.68378,0.97801 -23.12433,-4.5027 -7.89117,-7.94939 -7.25066,-18.48655 -3.138,-26.50136 0.78464,-1.52912 1.56755,-2.37537 0.87234,-2.88262 -0.0542,-0.0395 -0.12442,-0.0586 -0.20633,-0.0572 z" />
  </g>
</svg>
