<?xml version="1.0" encoding="UTF-8" standalone="no"?>
<!-- Created with Inkscape (http://www.inkscape.org/) -->

<svg
   version="1.1"
   id="svg15770"
   width="300"
   height="300"
   viewBox="0 0 300 300"
   sodipodi:docname="hair.svg"
   inkscape:version="1.2.2 (732a01da63, 2022-12-09)"
   xmlns:inkscape="http://www.inkscape.org/namespaces/inkscape"
   xmlns:sodipodi="http://sodipodi.sourceforge.net/DTD/sodipodi-0.dtd"
   xmlns="http://www.w3.org/2000/svg"
   xmlns:svg="http://www.w3.org/2000/svg">
  <defs
     id="defs15774">
    <filter
       inkscape:collect="always"
       style="color-interpolation-filters:sRGB"
       id="filter16270"
       x="-0.056445148"
       y="-0.044900652"
       width="1.1131999"
       height="1.0901633">
      <feGaussianBlur
         inkscape:collect="always"
         stdDeviation="1.9494"
         id="feGaussianBlur16272" />
    </filter>
  </defs>
  <sodipodi:namedview
     id="namedview15772"
     pagecolor="#ffffff"
     bordercolor="#000000"
     borderopacity="0.25"
     inkscape:showpageshadow="2"
     inkscape:pageopacity="0.0"
     inkscape:pagecheckerboard="0"
     inkscape:deskcolor="#d1d1d1"
     showgrid="false"
     inkscape:zoom="1.7116667"
     inkscape:cx="47.614411"
     inkscape:cy="135.83252"
     inkscape:window-width="2560"
     inkscape:window-height="1351"
     inkscape:window-x="2391"
     inkscape:window-y="-9"
     inkscape:window-maximized="1"
     inkscape:current-layer="g15776" />
  <g
     inkscape:groupmode="layer"
     inkscape:label="Image"
     id="g15776">
    <path
       style="fill:none;fill-opacity:1;stroke-width:12.3;stroke:#753f4b;stroke-dasharray:none;filter:url(#filter16270)"
       d="m 227.73436,268.71894 c -3.76352,-2.06904 -10.10005,-8.63335 -14.41801,-14.93631 l -4.22638,-6.16928 3.01472,-2.46569 c 1.6581,-1.35613 3.47459,-2.48271 4.03665,-2.5035 0.56206,-0.0208 6.00226,2.06068 12.08933,4.62549 6.08707,2.56482 14.26056,5.24843 18.16331,5.96357 2.53347,0.46423 5.25888,0.72953 6.49159,1.27314 0.82279,0.36285 0.60432,1.01523 0.60432,1.32438 0,1.46172 -8.02407,8.33576 -13.79028,11.81384 -4.12989,2.49107 -8.65003,2.89694 -11.96525,1.07436 z m -25.55782,-29.22376 c -1.2651,-1.71114 -2.30019,-3.35723 -2.30019,-3.65799 0,-0.65065 7.94516,-4.79454 9.19267,-4.79454 0.47656,0 1.75168,1.49854 2.8336,3.3301 l 1.96714,3.33008 -2.85034,2.45177 c -3.79086,3.26075 -6.07024,3.09078 -8.84288,-0.65942 z M 191.37445,228.8999 c -7.54332,-1.24904 -14.73065,-8.47102 -17.33044,-17.41394 -2.09391,-7.2028 -1.38414,-12.05895 3.29494,-22.54372 4.22901,-9.47621 7.78763,-20.4849 7.8064,-24.1492 0.0211,-4.12055 -3.95653,-17.45641 -6.99519,-23.45292 0,0 -1.68521,-4.68113 -2.88047,-4.49364 -0.83633,0.13118 -3.09639,5.63807 -3.09639,5.63807 -1.77766,3.60852 -3.62966,6.56093 -4.11556,6.56093 -2.08422,0 -32.91072,-8.59281 -33.71622,-9.39831 -0.48813,-0.48812 -0.0408,-4.60471 0.99411,-9.14797 3.6954,-16.22328 2.04442,-30.587286 -3.72618,-32.418809 -2.76015,-0.87604 -7.40527,1.664953 -10.3452,5.659059 -1.31822,1.79091 -3.02933,3.2562 -3.80247,3.2562 -0.77314,0 -2.65793,-1.89224 -4.18842,-4.20499 -5.50294,-8.315489 -9.52335,-4.118109 -11.30031,11.79774 -0.58743,5.26152 -0.91509,13.03424 -0.72813,17.27268 0.33862,7.6765 0.32816,7.71035 -2.707853,8.76597 -4.91695,1.70961 -5.745321,1.30262 -6.936788,-3.40809 -0.621517,-2.45728 -1.528249,-5.41391 -2.01496,-6.57028 -0.873771,-2.07598 -1.394883,0.056 -2.441043,9.98683 -0.255373,2.42417 -1.006212,2.77365 -9.675468,4.50345 -5.169235,1.03141 -9.939149,1.66789 -10.599808,1.41437 -2.840095,-1.08984 -5.232155,-12.52795 -5.194864,-24.84024 0.04499,-14.85549 1.849182,-20.09948 11.284687,-32.799755 8.30963,-11.184829 13.77479,-16.444467 23.174633,-22.303134 14.796704,-9.22237 29.666564,-13.239843 48.884034,-13.207264 15.58382,0.02642 24.87207,1.375312 33.68387,4.89177 18.83055,7.514569 33.47722,26.116867 40.41432,51.329053 6.38073,23.19003 6.32617,25.89826 -0.84095,41.74578 l -4.73218,10.46351 v 27.82392 c 0,29.92508 -0.1511,30.8828 -5.68841,36.05594 -3.02417,2.82527 -10.23841,4.22044 -16.47969,3.18699 z m 28.11597,-135.486509 -3.80593,-8.326015 2.72969,-5.962416 c 6.54833,-14.303437 0.48432,-26.780989 -11.45321,-23.566549 -2.44458,0.658257 -6.17521,2.079678 -8.29029,3.158714 -3.78163,1.929241 -3.89016,1.926848 -6.52263,-0.143848 -1.47234,-1.158153 -5.30294,-3.26705 -8.51243,-4.686438 -3.20948,-1.419388 -6.29606,-2.742205 -6.29606,-3.549495 0,-2.451289 8.7208,-9.608113 16.09961,-13.104251 6.20663,-2.940747 7.99031,-3.298208 16.42402,-3.291489 7.72173,0.0062 10.25832,0.432546 13.79677,2.319206 8.42325,4.49118 13.53611,12.976004 15.36006,25.490145 1.77121,12.152249 0.14481,21.128598 -5.58736,30.837576 -7.17023,12.144729 -8.72573,12.236759 -13.94224,0.82486 z M 74.166194,73.148656 c -1.123844,-4.857093 -0.71694,-16.254657 0.740402,-20.738949 2.878412,-8.856971 13.185871,-18.49101 22.473281,-21.005026 11.419283,-3.09109 21.985893,-0.435271 30.759393,7.731087 4.16055,3.872626 6.29834,6.390607 5.40375,7.747493 -0.64415,0.977017 -3.08227,1.204178 -6.42611,1.597182 -3.11583,0.366205 -8.35118,1.589959 -11.63412,2.719453 -3.28294,1.129494 -5.61239,2.020684 -5.92723,1.511267 -1.14853,-1.858356 -10.124041,-2.709378 -13.911648,-1.126814 -2.133429,0.891404 -4.682271,3.230865 -6.151908,6.128456 -0.920789,1.815462 -1.201257,4.253228 -1.201257,5.601744 0,1.174918 -10.875945,12.182028 -12.628464,12.987844 -0.380971,0.175174 -1.054212,-1.244008 -1.496089,-3.153737 z"
       id="path16260"
       sodipodi:nodetypes="sscsssssssssssscssssssssssscssssssssssssssssssscsssscssssssscsssssssssssssssss" />
    <path
       style="fill:#f6f6e1;fill-opacity:1;stroke-width:1.05125"
       d="m 227.73436,268.71894 c -3.76352,-2.06904 -10.10005,-8.63335 -14.41801,-14.93631 l -4.22638,-6.16928 3.01472,-2.46569 c 1.6581,-1.35613 3.47459,-2.48271 4.03665,-2.5035 0.56206,-0.0208 6.00226,2.06068 12.08933,4.62549 6.08707,2.56482 14.26056,5.24843 18.16331,5.96357 2.53347,0.46423 5.25888,0.72953 6.49159,1.27314 0.82279,0.36285 0.60432,1.01523 0.60432,1.32438 0,1.46172 -8.02407,8.33576 -13.79028,11.81384 -4.12989,2.49107 -8.65003,2.89694 -11.96525,1.07436 z m -25.55782,-29.22376 c -1.2651,-1.71114 -2.30019,-3.35723 -2.30019,-3.65799 0,-0.65065 7.94516,-4.79454 9.19267,-4.79454 0.47656,0 1.75168,1.49854 2.8336,3.3301 l 1.96714,3.33008 -2.85034,2.45177 c -3.79086,3.26075 -6.07024,3.09078 -8.84288,-0.65942 z M 191.37445,228.8999 c -7.54332,-1.24904 -14.73065,-8.47102 -17.33044,-17.41394 -2.09391,-7.2028 -1.38414,-12.05895 3.29494,-22.54372 4.22901,-9.47621 7.78763,-20.4849 7.8064,-24.1492 0.0211,-4.12055 -3.95653,-17.45641 -6.99519,-23.45292 0,0 -1.68521,-4.68113 -2.88047,-4.49364 -0.83633,0.13118 -3.09639,5.63807 -3.09639,5.63807 -1.77766,3.60852 -3.62966,6.56093 -4.11556,6.56093 -2.08422,0 -32.91072,-8.59281 -33.71622,-9.39831 -0.48813,-0.48812 -0.0408,-4.60471 0.99411,-9.14797 3.6954,-16.22328 2.04442,-30.587286 -3.72618,-32.418809 -2.76015,-0.87604 -7.40527,1.664953 -10.3452,5.659059 -1.31822,1.79091 -3.02933,3.2562 -3.80247,3.2562 -0.77314,0 -2.65793,-1.89224 -4.18842,-4.20499 -5.50294,-8.315489 -9.52335,-4.118109 -11.30031,11.79774 -0.58743,5.26152 -0.91509,13.03424 -0.72813,17.27268 0.33862,7.6765 0.32816,7.71035 -2.707853,8.76597 -4.91695,1.70961 -5.745321,1.30262 -6.936788,-3.40809 -0.621517,-2.45728 -1.528249,-5.41391 -2.01496,-6.57028 -0.873771,-2.07598 -1.394883,0.056 -2.441043,9.98683 -0.255373,2.42417 -1.006212,2.77365 -9.675468,4.50345 -5.169235,1.03141 -9.939149,1.66789 -10.599808,1.41437 -2.840095,-1.08984 -5.232155,-12.52795 -5.194864,-24.84024 0.04499,-14.85549 1.849182,-20.09948 11.284687,-32.799755 8.30963,-11.184829 13.77479,-16.444467 23.174633,-22.303134 14.796704,-9.22237 29.666564,-13.239843 48.884034,-13.207264 15.58382,0.02642 24.87207,1.375312 33.68387,4.89177 18.83055,7.514569 33.47722,26.116867 40.41432,51.329053 6.38073,23.19003 6.32617,25.89826 -0.84095,41.74578 l -4.73218,10.46351 v 27.82392 c 0,29.92508 -0.1511,30.8828 -5.68841,36.05594 -3.02417,2.82527 -10.23841,4.22044 -16.47969,3.18699 z m 28.11597,-135.486509 -3.80593,-8.326015 2.72969,-5.962416 c 6.54833,-14.303437 0.48432,-26.780989 -11.45321,-23.566549 -2.44458,0.658257 -6.17521,2.079678 -8.29029,3.158714 -3.78163,1.929241 -3.89016,1.926848 -6.52263,-0.143848 -1.47234,-1.158153 -5.30294,-3.26705 -8.51243,-4.686438 -3.20948,-1.419388 -6.29606,-2.742205 -6.29606,-3.549495 0,-2.451289 8.7208,-9.608113 16.09961,-13.104251 6.20663,-2.940747 7.99031,-3.298208 16.42402,-3.291489 7.72173,0.0062 10.25832,0.432546 13.79677,2.319206 8.42325,4.49118 13.53611,12.976004 15.36006,25.490145 1.77121,12.152249 0.14481,21.128598 -5.58736,30.837576 -7.17023,12.144729 -8.72573,12.236759 -13.94224,0.82486 z M 74.166194,73.148656 c -1.123844,-4.857093 -0.71694,-16.254657 0.740402,-20.738949 2.878412,-8.856971 13.185871,-18.49101 22.473281,-21.005026 11.419283,-3.09109 21.985893,-0.435271 30.759393,7.731087 4.16055,3.872626 6.29834,6.390607 5.40375,7.747493 -0.64415,0.977017 -3.08227,1.204178 -6.42611,1.597182 -3.11583,0.366205 -8.35118,1.589959 -11.63412,2.719453 -3.28294,1.129494 -5.61239,2.020684 -5.92723,1.511267 -1.14853,-1.858356 -10.124041,-2.709378 -13.911648,-1.126814 -2.133429,0.891404 -4.682271,3.230865 -6.151908,6.128456 -0.920789,1.815462 -1.201257,4.253228 -1.201257,5.601744 0,1.174918 -10.875945,12.182028 -12.628464,12.987844 -0.380971,0.175174 -1.054212,-1.244008 -1.496089,-3.153737 z"
       id="path16264"
       sodipodi:nodetypes="sscsssssssssssscssssssssssscssssssssssssssssssscsssscssssssscsssssssssssssssss" />
  </g>
</svg>
