<?xml version="1.0" encoding="UTF-8" standalone="no"?>
<!-- Created with Inkscape (http://www.inkscape.org/) -->

<svg
   version="1.1"
   id="svg21014"
   width="300"
   height="300"
   viewBox="0 0 300 300"
   sodipodi:docname="hat.svg"
   inkscape:version="1.2.2 (732a01da63, 2022-12-09)"
   xmlns:inkscape="http://www.inkscape.org/namespaces/inkscape"
   xmlns:sodipodi="http://sodipodi.sourceforge.net/DTD/sodipodi-0.dtd"
   xmlns="http://www.w3.org/2000/svg"
   xmlns:svg="http://www.w3.org/2000/svg">
  <defs
     id="defs21018">
    <filter
       inkscape:collect="always"
       style="color-interpolation-filters:sRGB"
       id="filter22258"
       x="-0.065799044"
       y="-0.070380549"
       width="1.1324542"
       height="1.1381775">
      <feGaussianBlur
         inkscape:collect="always"
         stdDeviation="1.9494"
         id="feGaussianBlur22260" />
    </filter>
  </defs>
  <sodipodi:namedview
     id="namedview21016"
     pagecolor="#ffffff"
     bordercolor="#000000"
     borderopacity="0.25"
     inkscape:showpageshadow="2"
     inkscape:pageopacity="0.0"
     inkscape:pagecheckerboard="0"
     inkscape:deskcolor="#d1d1d1"
     showgrid="false"
     inkscape:zoom="1.7116667"
     inkscape:cx="-104.86855"
     inkscape:cy="159.20156"
     inkscape:window-width="2560"
     inkscape:window-height="1351"
     inkscape:window-x="2391"
     inkscape:window-y="-9"
     inkscape:window-maximized="1"
     inkscape:current-layer="g21020" />
  <g
     inkscape:groupmode="layer"
     inkscape:label="Image"
     id="g21020">
    <path
       id="path22248"
       style="mix-blend-mode:normal;fill:none;fill-opacity:1;stroke:#753f4b;stroke-width:12.3;stroke-dasharray:none;filter:url(#filter22258)"
       d="M 116.66406,76.320312 C 113.68593,76.163984 107.63514,77.374823 87,81.6875 c -11.824976,2.471382 -22.512502,5.138107 -23.75,5.925781 -4.133178,2.630793 -3.04117,6.967662 6.347656,25.195309 15.279674,29.66426 21.258967,38.54722 28.394532,42.1875 2.458782,1.25439 7.396032,2.24069 14.142582,2.82618 14.73332,1.27855 20.14848,1.30003 21.86523,0.0859 0.83216,-0.58852 1.12769,-1.35972 0.13477,-1.8164 -4.29477,-1.97525 -11.88761,-7.17961 -13.05079,-9.25196 -1.2525,-2.2315 -1.20957,-3.44452 0.34961,-9.9414 0.97667,-4.06954 3.41478,-10.70448 5.41993,-14.7461 4.70624,-9.48607 6.61902,-10.55521 17.25781,-9.64257 6.75123,0.57915 7.88867,0.45249 7.88867,-0.875 0,-4.42023 -26.23792,-32.101313 -32.95508,-34.767582 -0.73604,-0.29216 -1.38814,-0.494766 -2.38086,-0.546876 z m 70.21485,10.6875 c -2.39506,-0.01206 -24.22674,17.625888 -25.29688,20.437498 -0.74881,1.96739 0.0711,4.4619 4.44922,13.52735 2.95211,6.11278 6.02168,11.6565 6.82031,12.32031 0.79863,0.6638 4.19662,1.47606 7.55078,1.80469 3.35418,0.32863 9.79942,0.6661 14.32422,0.75 7.51977,0.13938 8.35354,-0.0411 9.68555,-2.09766 2.79848,-4.32082 10.68764,-26.22034 10.17773,-28.25195 -0.70237,-2.79847 -24.193,-18.472528 -27.71093,-18.490238 z m -46.02539,32.787108 c -3.53446,10e-4 -6.0113,0.2261 -6.9961,1.23828 -1.00795,1.03598 -6.69035,15.63284 -7.56445,19.55664 -0.46785,2.10019 0.94894,3.23507 12.70703,10.17774 6.15408,3.63373 9.08264,2.98187 15.80469,-3.51758 0,0 4.10973,-2.83583 5.01758,-5.43945 0.66418,-1.90486 0.13867,-6.31055 0.13867,-6.31055 -0.43553,-3.3 -0.83056,-6.98653 -0.87696,-8.19336 -0.0464,-1.20683 -1.09648,-3.33552 -2.33398,-4.72852 -2.08954,-2.35207 -2.94774,-2.5463 -12.02539,-2.73046 -1.39699,-0.0283 -2.69295,-0.0532 -3.87109,-0.0527 z m 55.52539,23.46289 c -2.54609,-0.0127 -7.96112,1.74524 -23.83399,7.5586 -11.0636,4.05197 -11.10549,4.14508 -9.66015,20.9707 2.15829,25.12557 1.78258,24.27703 11.61523,26.22656 3.3,0.65429 10.05,1.99986 15,2.98828 13.2455,2.64486 14.23359,2.56011 18.09961,-1.53906 4.34956,-4.61186 17.21145,-23.86362 17.97461,-26.9043 0.32596,-1.29872 -0.007,-3.46749 -0.74024,-4.82031 -1.8395,-3.39269 -24.73966,-23.67584 -27.51757,-24.37305 -0.26878,-0.0675 -0.57378,-0.1056 -0.9375,-0.10742 z M 152.57031,160 c -1.30938,0 -21.40505,16.80104 -31.2832,26.1543 -6.03027,5.70985 -5.77807,4.7316 -7.36523,28.60742 -0.92651,13.9374 -0.90008,17.56049 0.14062,18.81445 0.85884,1.03484 2.14797,1.34584 3.86328,0.9336 5.69024,-1.36753 32.71704,-12.7863 34.74414,-14.67969 1.19305,-1.11436 3.1614,-4.33516 4.375,-7.15625 2.43949,-5.67076 2.41849,-7.77121 -0.36328,-36.27149 C 155.26071,161.84434 154.79899,160 152.57031,160 Z"
       transform="matrix(1.2317378,0,0,1.2317378,-26.632037,-41.279036)" />
    <path
       id="path21518"
       style="fill:#f6f6e1;fill-opacity:1;stroke-width:1.23174"
       d="m 203.55377,65.891773 c -2.95008,-0.01485 -29.84099,21.710459 -31.15912,25.173638 -0.92234,2.423309 0.0876,5.495877 5.48027,16.662149 3.63623,7.52936 7.41713,14.35775 8.40084,15.17539 0.9837,0.81763 5.16912,1.81812 9.30058,2.22291 4.13147,0.40478 12.0703,0.82046 17.64368,0.9238 9.2624,0.17168 10.28937,-0.0506 11.93006,-2.58377 3.44699,-5.32211 13.16437,-32.29657 12.53629,-34.798993 -0.86513,-3.446981 -29.79942,-22.75331 -34.1326,-22.775124 z m -56.69121,40.385117 c -4.35353,0.002 -7.40434,0.2785 -8.61736,1.52524 -1.24153,1.27606 -8.24076,19.25555 -9.31742,24.08865 -0.57627,2.58689 1.16884,3.98475 15.65173,12.53631 7.58023,4.47581 11.18743,3.67289 19.46724,-4.33274 0,0 5.0621,-3.49298 6.18034,-6.69997 0.81811,-2.34629 0.1708,-7.77295 0.1708,-7.77295 -0.53646,-4.06473 -1.02303,-8.60557 -1.08018,-10.09207 -0.0572,-1.48649 -1.35058,-4.10848 -2.87485,-5.82429 -2.57377,-2.89715 -3.63083,-3.13638 -14.81213,-3.36321 -1.72073,-0.0349 -3.317,-0.0655 -4.76817,-0.065 z m 68.39272,28.90013 c -3.13611,-0.0156 -9.806,2.14968 -29.35722,9.31022 -13.62747,4.99097 -13.67906,5.10562 -11.89878,25.8304 2.65846,30.94815 2.19566,29.90293 14.30692,32.30424 4.06474,0.80592 12.37897,2.46331 18.47607,3.68078 16.31499,3.25777 17.53205,3.15338 22.29397,-1.89572 5.35752,-5.68061 21.2,-29.39372 22.14001,-33.13904 0.4015,-1.5997 -0.008,-4.27104 -0.91178,-5.93736 -2.2658,-4.1789 -30.47276,-29.16242 -33.89443,-30.0212 -0.33107,-0.0831 -0.70675,-0.13008 -1.15476,-0.13232 z" />
    <path
       id="path21514"
       style="fill:#ce9e9a;fill-opacity:1;stroke-width:1.23174"
       d="m 117.06749,52.727575 c -3.66829,-0.192556 -11.12123,1.298876 -36.53834,6.610968 -14.565284,3.044097 -27.729498,6.3288 -29.253772,7.299009 -5.090997,3.240449 -3.745937,8.582305 7.818647,31.034016 18.820571,36.538622 26.185465,47.480052 34.974618,51.963942 3.028575,1.54507 9.109977,2.75994 17.419947,3.48111 18.14761,1.57485 24.81765,1.60129 26.93223,0.10584 1.02501,-0.7249 1.38903,-1.67482 0.166,-2.23733 -5.29003,-2.43299 -14.64241,-8.84339 -16.07515,-11.39599 -1.54276,-2.74863 -1.48988,-4.24273 0.43063,-12.24519 1.203,-5.01261 4.20611,-13.18512 6.67593,-18.16333 5.79687,-11.684372 8.15289,-13.001252 21.2571,-11.877122 8.31576,0.71336 9.71677,0.55736 9.71677,-1.07777 0,-5.444565 -32.31823,-39.540397 -40.59201,-42.824545 -0.90661,-0.359865 -1.70983,-0.609422 -2.9326,-0.673608 z m 44.22708,103.071435 c -1.61281,0 -26.36539,20.69446 -38.53269,32.21524 -7.42773,7.03305 -7.11706,5.82807 -9.07204,35.23684 -1.14121,17.16725 -1.10866,21.62992 0.17321,23.17447 1.05787,1.27465 2.64574,1.65772 4.75855,1.14995 7.00888,-1.68444 40.29881,-15.74937 42.79567,-18.08153 1.46952,-1.3726 3.89401,-5.33978 5.38885,-8.81462 3.00481,-6.98489 2.97895,-9.57207 -0.44746,-44.67697 -1.75022,-17.93166 -2.31894,-20.20338 -5.06409,-20.20338 z" />
  </g>
</svg>
