<?xml version="1.0" encoding="UTF-8" standalone="no"?>
<!-- Created with Inkscape (http://www.inkscape.org/) -->

<svg
   version="1.1"
   id="svg21014"
   width="300"
   height="300"
   viewBox="0 0 300 300"
   sodipodi:docname="hat_spell.svg"
   inkscape:version="1.2.2 (732a01da63, 2022-12-09)"
   inkscape:export-filename="hat.png"
   inkscape:export-xdpi="96"
   inkscape:export-ydpi="96"
   xml:space="preserve"
   xmlns:inkscape="http://www.inkscape.org/namespaces/inkscape"
   xmlns:sodipodi="http://sodipodi.sourceforge.net/DTD/sodipodi-0.dtd"
   xmlns="http://www.w3.org/2000/svg"
   xmlns:svg="http://www.w3.org/2000/svg"><defs
     id="defs21018" /><sodipodi:namedview
     id="namedview21016"
     pagecolor="#ffffff"
     bordercolor="#000000"
     borderopacity="0.25"
     inkscape:showpageshadow="2"
     inkscape:pageopacity="0.0"
     inkscape:pagecheckerboard="0"
     inkscape:deskcolor="#d1d1d1"
     showgrid="false"
     inkscape:zoom="1.7116667"
     inkscape:cx="-104.86855"
     inkscape:cy="159.20156"
     inkscape:window-width="2560"
     inkscape:window-height="1351"
     inkscape:window-x="2391"
     inkscape:window-y="-9"
     inkscape:window-maximized="1"
     inkscape:current-layer="g21020" /><g
     inkscape:groupmode="layer"
     inkscape:label="Image"
     id="g21020"><rect
       style="fill:#292c2b;fill-opacity:1;stroke:none;stroke-width:43.8978;stop-color:#000000"
       id="rect32909"
       width="300"
       height="300"
       x="0"
       y="0"
       ry="45"
       rx="45"
       inkscape:label="spell_background" /><path
       id="path21518"
       style="fill:#f9f0d4;fill-opacity:1;stroke-width:1.23174"
       d="m 203.55377,65.891773 c -2.95008,-0.01485 -29.84099,21.710459 -31.15912,25.173638 -0.92234,2.423309 0.0876,5.495877 5.48027,16.662149 3.63623,7.52936 7.41713,14.35775 8.40084,15.17539 0.9837,0.81763 5.16912,1.81812 9.30058,2.22291 4.13147,0.40478 12.0703,0.82046 17.64368,0.9238 9.2624,0.17168 10.28937,-0.0506 11.93006,-2.58377 3.44699,-5.32211 13.16437,-32.29657 12.53629,-34.798993 -0.86513,-3.446981 -29.79942,-22.75331 -34.1326,-22.775124 z m -56.69121,40.385117 c -4.35353,0.002 -7.40434,0.2785 -8.61736,1.52524 -1.24153,1.27606 -8.24076,19.25555 -9.31742,24.08865 -0.57627,2.58689 1.16884,3.98475 15.65173,12.53631 7.58023,4.47581 11.18743,3.67289 19.46724,-4.33274 0,0 5.0621,-3.49298 6.18034,-6.69997 0.81811,-2.34629 0.1708,-7.77295 0.1708,-7.77295 -0.53646,-4.06473 -1.02303,-8.60557 -1.08018,-10.09207 -0.0572,-1.48649 -1.35058,-4.10848 -2.87485,-5.82429 -2.57377,-2.89715 -3.63083,-3.13638 -14.81213,-3.36321 -1.72073,-0.0349 -3.317,-0.0655 -4.76817,-0.065 z m 68.39272,28.90013 c -3.13611,-0.0156 -9.806,2.14968 -29.35722,9.31022 -13.62747,4.99097 -13.67906,5.10562 -11.89878,25.8304 2.65846,30.94815 2.19566,29.90293 14.30692,32.30424 4.06474,0.80592 12.37897,2.46331 18.47607,3.68078 16.31499,3.25777 17.53205,3.15338 22.29397,-1.89572 5.35752,-5.68061 21.2,-29.39372 22.14001,-33.13904 0.4015,-1.5997 -0.008,-4.27104 -0.91178,-5.93736 -2.2658,-4.1789 -30.47276,-29.16242 -33.89443,-30.0212 -0.33107,-0.0831 -0.70675,-0.13008 -1.15476,-0.13232 z" /><path
       id="path21514"
       style="fill:#c79290;fill-opacity:1;stroke-width:1.23174"
       d="m 117.06749,52.727575 c -3.66829,-0.192556 -11.12123,1.298876 -36.53834,6.610968 -14.565284,3.044097 -27.729498,6.3288 -29.253772,7.299009 -5.090997,3.240449 -3.745937,8.582305 7.818647,31.034016 18.820571,36.538622 26.185465,47.480052 34.974618,51.963942 3.028575,1.54507 9.109977,2.75994 17.419947,3.48111 18.14761,1.57485 24.81765,1.60129 26.93223,0.10584 1.02501,-0.7249 1.38903,-1.67482 0.166,-2.23733 -5.29003,-2.43299 -14.64241,-8.84339 -16.07515,-11.39599 -1.54276,-2.74863 -1.48988,-4.24273 0.43063,-12.24519 1.203,-5.01261 4.20611,-13.18512 6.67593,-18.16333 5.79687,-11.684372 8.15289,-13.001252 21.2571,-11.877122 8.31576,0.71336 9.71677,0.55736 9.71677,-1.07777 0,-5.444565 -32.31823,-39.540397 -40.59201,-42.824545 -0.90661,-0.359865 -1.70983,-0.609422 -2.9326,-0.673608 z m 44.22708,103.071435 c -1.61281,0 -26.36539,20.69446 -38.53269,32.21524 -7.42773,7.03305 -7.11706,5.82807 -9.07204,35.23684 -1.14121,17.16725 -1.10866,21.62992 0.17321,23.17447 1.05787,1.27465 2.64574,1.65772 4.75855,1.14995 7.00888,-1.68444 40.29881,-15.74937 42.79567,-18.08153 1.46952,-1.3726 3.89401,-5.33978 5.38885,-8.81462 3.00481,-6.98489 2.97895,-9.57207 -0.44746,-44.67697 -1.75022,-17.93166 -2.31894,-20.20338 -5.06409,-20.20338 z" /></g></svg>
