<?xml version="1.0" encoding="UTF-8" standalone="no"?>
<!-- Created with Inkscape (http://www.inkscape.org/) -->

<svg
   version="1.1"
   id="svg1099"
   width="300"
   height="300"
   viewBox="0 0 300 300"
   sodipodi:docname="outfit_spell.svg"
   inkscape:version="1.2.2 (732a01da63, 2022-12-09)"
   inkscape:export-filename="outfit.png"
   inkscape:export-xdpi="96"
   inkscape:export-ydpi="96"
   xml:space="preserve"
   xmlns:inkscape="http://www.inkscape.org/namespaces/inkscape"
   xmlns:sodipodi="http://sodipodi.sourceforge.net/DTD/sodipodi-0.dtd"
   xmlns="http://www.w3.org/2000/svg"
   xmlns:svg="http://www.w3.org/2000/svg"><defs
     id="defs1103" /><sodipodi:namedview
     id="namedview1101"
     pagecolor="#ffffff"
     bordercolor="#000000"
     borderopacity="0.25"
     inkscape:showpageshadow="2"
     inkscape:pageopacity="0.0"
     inkscape:pagecheckerboard="0"
     inkscape:deskcolor="#d1d1d1"
     showgrid="false"
     inkscape:zoom="2.4206622"
     inkscape:cx="73.327042"
     inkscape:cy="117.94293"
     inkscape:window-width="2560"
     inkscape:window-height="1351"
     inkscape:window-x="2391"
     inkscape:window-y="-9"
     inkscape:window-maximized="1"
     inkscape:current-layer="g1105" /><g
     inkscape:groupmode="layer"
     inkscape:label="Image"
     id="g1105"><rect
       style="fill:#292c2b;fill-opacity:1;stroke:none;stroke-width:43.8978;stop-color:#000000"
       id="rect32909"
       width="300"
       height="300"
       x="0"
       y="0"
       ry="45"
       rx="45"
       inkscape:label="spell_background" /><path
       id="path2636"
       style="display:inline;fill:#c79290;fill-opacity:1;stroke-width:1.02153"
       d="m 149.62102,49.50562 c -2.55858,2.96e-4 -5.06423,0.380931 -6.9412,1.165178 0,0 -2.79165,1.090002 -3.07654,2.13483 -0.81907,3.003814 -0.24142,16.110978 -0.24142,16.110978 0.36054,9.121936 0.95562,18.999188 1.3228,21.94884 l 0.66838,5.363011 h 8.40764 8.40963 l 0.62648,-6.895299 c 0.34504,-3.792411 0.92508,-13.627535 1.28888,-21.855067 0.64625,-14.615473 0.6106,-14.986593 -1.54625,-16.140907 -2.25055,-1.204453 -5.62881,-1.831946 -8.9184,-1.831564 z m -16.0192,50.6653 c -6.62591,-10e-4 -10.08964,0.13775 -11.91515,0.68832 -1.73714,0.52392 -1.59214,2.51362 -1.59214,3.73895 0,1.31157 0.23351,2.22418 1.1951,2.88501 1.50217,1.03231 4.89229,0.74351 11.82336,1.12128 12.25052,0.6677 35.40356,0.0694 40.91291,-1.05743 1.32438,-0.27087 2.35098,-0.23856 2.83314,-0.7023 0.58196,-0.55973 0.46244,-1.71537 0.47286,-3.3459 l 0.014,-2.06699 c 0.0132,-0.68096 -0.89702,-0.99659 -1.66796,-0.99559 l -26.40604,-0.17159 c -6.58164,-0.0426 -11.69451,-0.0932 -15.67004,-0.0938 z m 30.55,11.4722 c -2.16482,-0.0629 -1.88833,1.33497 0.41898,10.95946 3.96498,16.53909 12.19812,30.82586 24.39891,42.33547 4.01374,3.78636 7.8092,6.88332 8.43358,6.88332 0.74158,0 0.95575,-1.59703 0.6165,-4.60684 -0.25519,-2.26401 0.16637,-3.81934 -1.24698,-5.71017 -1.16557,-1.55933 -3.83243,-3.29585 -6.93919,-6.29276 -6.55561,-6.32382 -8.41406,-8.94962 -12.82694,-18.1221 -2.83839,-5.89979 -6.03902,-13.94431 -7.11277,-17.87671 -1.74247,-6.3815 -2.24329,-7.1854 -4.6627,-7.4739 -0.41011,-0.0489 -0.77013,-0.0867 -1.07939,-0.0957 z m -28.82019,0.008 c -0.31531,0.004 -0.68016,0.0387 -1.09735,0.0877 -0.98088,0.11541 -2.03991,0.0382 -2.68949,0.78211 -0.9879,1.13142 -1.51989,3.77114 -3.25611,8.7967 -5.84524,16.91924 -10.2721,24.64836 -19.22743,33.5687 -3.75373,3.73905 -5.71522,5.55583 -6.8953,6.50624 -1.51994,1.22411 -1.51657,4.15099 -1.72582,6.00745 -0.29905,2.65311 -0.0812,4.42129 0.54468,4.42129 1.54554,0 9.89132,-7.13024 13.78861,-11.77947 10.30384,-12.29184 16.7445,-24.38697 20.22102,-37.98002 2.28745,-8.9439 2.54428,-10.43962 0.33719,-10.41078 z m 13.58309,0.66239 c -1.24977,0.0286 -2.44286,0.11875 -3.27805,0.26337 l -3.03665,0.52672 -0.27533,68.71358 c 0,0 -0.92101,62.51736 0.30526,68.68764 0.1623,0.81666 1.73779,0.95569 1.73779,0.95569 2.31408,0.2751 8.81796,0.76376 11.11508,-0.11773 1.45144,-0.55696 0.9078,-7.10618 0.9078,-69.30812 v -69.24629 l -3.85865,-0.36911 c -1.06102,-0.10123 -2.36747,-0.13437 -3.61725,-0.10575 z m 58.26688,135.87093 c -1.19229,0.0419 -3.75148,0.52229 -6.60001,1.26892 -27.72928,7.26821 -68.01295,8.08959 -98.27798,2.00514 -5.307462,-1.067 -9.8293,-1.76061 -10.049648,-1.54026 -0.220347,0.22035 -0.840321,2.35542 -1.376665,4.74251 -1.262197,5.61763 -0.05329,6.84724 8.443544,8.5872 7.199279,1.47426 24.599909,3.47632 34.085449,3.9225 22.32903,1.05032 35.14969,0.37559 56.18392,-2.95684 12.1763,-1.92908 19.54291,-4.12623 20.28088,-6.04934 0.47128,-1.22814 -0.90955,-8.06388 -1.99318,-9.8701 -0.0537,-0.0897 -0.29888,-0.12371 -0.69631,-0.10973 z" /><path
       id="path2630"
       style="display:inline;fill:#f9f0d4;fill-opacity:1;stroke-width:1.02153"
       d="m 166.85128,32.37511 c -0.6315,-0.01895 -1.14483,0.123311 -1.50835,0.442927 -0.41389,0.363912 -1.23344,7.540414 -1.82158,15.947375 -0.58814,8.406964 -1.51083,20.341546 -2.04904,26.521765 -0.53822,6.180219 -0.9805,13.355253 -0.98561,15.94538 l 0.13965,5.231331 c 0,0 5.45543,0.09623 8.18219,0.01992 2.90634,-0.08131 6.94787,0.0853 8.70891,-0.506769 0.88814,-0.298612 1.39048,-1.46211 1.86149,-2.188701 0.76902,-1.186297 2.14709,-6.523811 3.06258,-11.861274 0.91549,-5.337462 2.23619,-11.426417 2.7254,-11.992952 1.80016,-2.084722 1.12331,-0.0669 -0.67636,10.253166 -1.35958,7.796328 -1.35574,9.637609 0.0399,16.994835 1.34081,7.068287 5.92153,23.361527 8.10636,28.834177 0.3724,0.93278 2.13729,2.41561 3.9225,3.29601 7.01602,3.46004 22.57412,1.38487 28.09794,-3.74892 4.67332,-4.34334 4.65183,-6.14808 -0.18953,-15.84762 C 214.00385,88.751752 188.65796,49.833464 179.3071,40.371711 174.55612,35.564385 169.58776,32.45721 166.85127,32.375079 Z m -33.17565,0.273338 c -0.77803,-0.09484 -1.68392,0.211488 -1.68392,0.211488 -7.80005,2.237025 -12.71707,6.764429 -22.20222,20.442488 -19.767771,28.50612 -38.185514,60.216446 -38.185514,65.746756 0,3.59789 3.895174,7.78468 9.27354,9.96587 5.529065,2.24232 17.018169,2.51091 21.805184,0.51076 4.12498,-1.72353 6.29354,-6.82574 10.87366,-25.58204 1.75198,-7.174609 2.74373,-11.408128 2.88502,-14.975728 0.10934,-2.760998 -0.39553,-5.335113 -0.78411,-7.230488 -0.27929,-1.362328 -1.17344,-4.892553 -1.51234,-7.982666 -0.81165,-7.400709 1.29981,-2.933896 3.54143,8.553284 1.48651,7.617661 2.18296,11.71712 4.28562,13.317748 1.23738,0.941909 2.58703,0.605622 4.99989,0.845946 2.97736,0.296549 6.95996,0.302311 8.85056,0.01399 l 3.43768,-0.524727 -0.68634,-15.955354 c -0.37757,-8.775736 -1.10109,-19.632885 -1.6081,-24.127595 -0.50702,-4.494709 -1.20542,-11.692591 -1.55225,-15.995259 0,0 -0.19407,-6.333997 -1.03947,-6.979097 -0.19233,-0.146753 -0.43897,-0.223768 -0.69832,-0.255381 z m 21.50392,21.725381 c -0.33271,0.0517 -0.74491,0.791682 -1.17315,2.49795 -0.38768,1.544626 -1.71291,2.701731 -3.2222,3.080539 -3.09704,0.777305 -4.47334,-0.04683 -5.83786,-3.499524 -0.54703,-1.384146 -0.86658,-1.772843 -1.36869,-1.675941 -0.4299,0.08297 -0.47859,0.759504 -0.54468,1.679931 -0.24622,3.428853 0.87005,6.606374 4.56893,7.974685 4.45673,1.648652 8.75679,-1.955902 8.75679,-7.340222 0,-1.648747 -0.77892,-2.677272 -1.1133,-2.717418 -0.0214,-0.0026 -0.0436,-0.0035 -0.0659,0 z m -30.96101,56.201881 c -1.41938,0.0711 -2.88697,0.70095 -3.49952,1.84553 -0.88198,1.648 -10.29707,34.00313 -10.29707,35.3863 0,3.0228 6.59345,-5.60693 11.08915,-14.51285 3.51546,-6.96409 6.82651,-18.83501 5.91566,-21.20863 -0.41936,-1.09286 -1.78884,-1.58149 -3.20822,-1.51035 z m 48.90555,0.0699 c -1.14806,0.014 -2.17652,0.24121 -2.53985,0.60454 -2.19376,2.19376 6.02222,23.40789 12.6773,32.73272 1.70351,2.38688 3.28414,4.15184 3.51349,3.9225 0.39264,-0.39264 -5.19227,-22.22669 -8.25402,-32.26785 -1.17083,-3.83977 -1.86803,-4.65203 -4.22975,-4.93205 -0.38876,-0.0461 -0.78449,-0.0646 -1.16717,-0.0599 z m -13.90433,4.99187 c -0.80738,0 -0.92538,18.83388 -0.42098,67.55439 0.38465,37.15441 0.87809,67.84131 1.09535,68.19283 0.21726,0.35158 4.91911,0.33885 10.44869,-0.0279 8.59179,-0.56991 14.77749,-1.61658 33.3632,-5.64434 1.5831,-0.34308 3.57874,-1.69352 4.43526,-3.00073 1.42563,-2.17579 1.28238,-3.65354 -1.6939,-17.47966 -1.78814,-8.30668 -5.21485,-23.25212 -7.61356,-33.21156 l -4.35944,-18.10814 -6.14911,-6.40848 c -7.87099,-8.2055 -11.42931,-12.44498 -15.24108,-18.15607 -3.32041,-4.97491 -9.88288,-20.77842 -11.02929,-26.55968 -1.17281,-5.91423 -1.66302,-7.15068 -2.83514,-7.15068 z m -19.96763,0.81004 c -0.4596,-0.007 -1.44544,2.62484 -2.15678,5.5745 -1.92375,7.97706 -8.04797,21.97078 -12.40595,28.34734 -2.1119,3.09012 -7.54213,10.03749 -12.06878,15.43861 l -7.08483,8.45352 c -0.77269,0.92197 -1.26046,2.12585 -1.50436,2.82316 l -3.74892,15.28299 c -2.259229,9.20669 -5.005716,20.87664 -6.103212,25.93319 -1.097495,5.05655 -2.682704,12.08376 -3.52147,15.61618 -1.479706,6.23169 -1.458505,6.49875 0.692323,8.96628 1.8355,2.10578 4.676053,3.05747 16.517989,5.53859 10.4407,2.18753 16.64534,2.93989 22.98433,2.78326 l 6.5681,-0.16361 c 1.0474,8.1e-4 2.24218,-0.54889 2.12285,-2.1468 l 0.25538,-65.0704 c 0.1323,-33.8119 0.54079,-62.47335 -0.0699,-67.01369 -0.0565,-0.42015 -0.40779,-0.3621 -0.47684,-0.36312 z m -66.610667,11.6877 c -2.181065,-0.0331 -0.780928,3.08359 2.950853,5.59843 3.992798,2.69075 8.465742,3.028 10.332974,0.77812 1.651417,-1.98983 1.316883,-2.27268 -4.720566,-3.98635 -2.752287,-0.7812 -6.085257,-1.758 -7.406063,-2.17074 -0.461408,-0.14419 -0.845617,-0.21474 -1.157198,-0.21946 z m 154.114727,0.0299 c -0.33501,0.0102 -0.72157,0.0784 -1.1572,0.21548 -1.26413,0.39791 -4.55002,1.3636 -7.30231,2.1448 -6.03745,1.71367 -6.37197,1.99652 -4.72056,3.98635 1.8169,2.18923 5.70709,1.93561 10.35092,-0.67436 1.46719,-0.82461 3.01664,-1.51268 3.72698,-2.44608 1.24313,-1.63353 0.91122,-3.27901 -0.89783,-3.22619 z" /><path
       d="M 196.93555,236 C 196.28093,236 191,244.56337 191,245.625 c 0,0.68254 3.59691,0.3885 9.33398,-0.76367 C 203.45071,244.2354 206,243.33976 206,242.86914 206,241.93327 198.17069,236 196.93555,236 Z m -93.16602,0.4707 c -1.83527,-0.0215 -8.683388,4.69666 -8.732421,6.17188 -0.02087,0.628 2.100394,1.58638 4.712891,2.13086 5.60544,1.16825 9.25,1.4397 9.25,0.6875 0,-1.1038 -4.00576,-8.34649 -4.93359,-8.91992 -0.0743,-0.0459 -0.17453,-0.0689 -0.29688,-0.0703 z M 177.49609,240 c -1.38079,0 -7.5523,8.60979 -6.74804,9.41406 0.75562,0.75562 0.52635,0.76995 7.91992,-0.51758 C 182.15052,248.29001 185,247.52517 185,247.19531 185,246.10743 178.63065,240 177.49609,240 Z m -53.81445,0.041 c -1.38793,0.0489 -9.21034,6.7623 -8.5957,7.37695 0.36289,0.36288 10.1002,2.1167 13.66406,2.46094 0.6875,0.0664 1.25,-0.48486 1.25,-1.22461 0,-0.73976 -1.00459,-2.10329 -1.82812,-3.31446 -0.86688,-1.27488 -2.05816,-2.51822 -2.7129,-3.47265 -0.6098,-0.88892 -1.1269,-1.84907 -1.77734,-1.82617 z"
       style="display:inline;fill:#c79290;fill-opacity:1;stroke-width:1.02153"
       id="path10997" /></g></svg>
