<?xml version="1.0" encoding="UTF-8" standalone="no"?>
<!-- Created with Inkscape (http://www.inkscape.org/) -->

<svg
   version="1.1"
   id="svg1099"
   width="300"
   height="300"
   viewBox="0 0 300 300"
   sodipodi:docname="outfit.svg"
   inkscape:version="1.2.2 (732a01da63, 2022-12-09)"
   inkscape:export-filename="outfit.png"
   inkscape:export-xdpi="96"
   inkscape:export-ydpi="96"
   xml:space="preserve"
   xmlns:inkscape="http://www.inkscape.org/namespaces/inkscape"
   xmlns:sodipodi="http://sodipodi.sourceforge.net/DTD/sodipodi-0.dtd"
   xmlns="http://www.w3.org/2000/svg"
   xmlns:svg="http://www.w3.org/2000/svg"><defs
     id="defs1103"><filter
       inkscape:collect="always"
       style="color-interpolation-filters:sRGB"
       id="filter3545"
       x="-0.069518344"
       y="-0.046027402"
       width="1.1388182"
       height="1.0920212"><feGaussianBlur
         inkscape:collect="always"
         stdDeviation="1.9494"
         id="feGaussianBlur3547" /></filter></defs><sodipodi:namedview
     id="namedview1101"
     pagecolor="#ffffff"
     bordercolor="#000000"
     borderopacity="0.25"
     inkscape:showpageshadow="2"
     inkscape:pageopacity="0.0"
     inkscape:pagecheckerboard="0"
     inkscape:deskcolor="#d1d1d1"
     showgrid="false"
     inkscape:zoom="2.4206622"
     inkscape:cx="73.327042"
     inkscape:cy="117.94293"
     inkscape:window-width="2560"
     inkscape:window-height="1351"
     inkscape:window-x="2391"
     inkscape:window-y="-9"
     inkscape:window-maximized="1"
     inkscape:current-layer="g1105" /><g
     inkscape:groupmode="layer"
     inkscape:label="Image"
     id="g1105"><path
       id="path3375"
       style="display:inline;fill:none;fill-opacity:1;stroke-width:12.3;stroke:#753f4b;stroke-opacity:1;stroke-dasharray:none;filter:url(#filter3545)"
       d="M 166.85156 32.375 C 166.22006 32.35605 165.70727 32.498744 165.34375 32.818359 C 164.92986 33.182271 164.10962 40.358672 163.52148 48.765625 C 162.93334 57.172581 162.01087 69.106897 161.47266 75.287109 C 160.93444 81.467322 160.49144 88.642297 160.48633 91.232422 L 160.62695 96.464844 C 160.62695 96.464844 166.08184 96.560685 168.80859 96.484375 C 171.71493 96.403065 175.75654 96.568631 177.51758 95.976562 C 178.40572 95.677951 178.9079 94.515653 179.37891 93.789062 C 180.14793 92.602767 181.52592 87.265192 182.44141 81.927734 C 183.3569 76.590278 184.67681 70.500128 185.16602 69.933594 C 186.96617 67.848874 186.2899 69.867444 184.49023 80.1875 C 183.13066 87.98382 183.13561 89.824422 184.53125 97.181641 C 185.87206 104.24992 190.45189 120.54298 192.63672 126.01562 C 193.00912 126.9484 194.77339 128.4321 196.55859 129.3125 C 203.57461 132.77254 219.13439 130.69628 224.6582 125.5625 C 229.33152 121.21916 229.30815 119.41437 224.4668 109.71484 C 214.00293 88.750857 188.65749 49.832837 179.30664 40.371094 C 174.55567 35.563773 169.58805 32.457131 166.85156 32.375 z M 133.67578 32.648438 C 132.89775 32.553598 131.99219 32.859375 131.99219 32.859375 C 124.19215 35.096398 119.2742 39.624689 109.78906 53.302734 C 90.021311 81.808826 71.603516 113.51852 71.603516 119.04883 C 71.603516 122.64671 75.498593 126.83444 80.876953 129.01562 C 86.406013 131.25794 97.896584 131.52554 102.68359 129.52539 C 106.80857 127.80186 108.97653 122.69964 113.55664 103.94336 C 115.30862 96.768758 116.30012 92.536346 116.44141 88.96875 C 116.55075 86.207755 116.04678 83.633654 115.6582 81.738281 C 115.37891 80.375955 114.48343 76.845969 114.14453 73.755859 C 113.33288 66.355158 115.44393 70.821425 117.68555 82.308594 C 119.17206 89.926247 119.87 94.024374 121.97266 95.625 C 123.21004 96.566908 124.5598 96.232332 126.97266 96.472656 C 129.95001 96.769205 133.93167 96.774649 135.82227 96.486328 L 139.25977 95.960938 L 138.57422 80.005859 C 138.19665 71.230132 137.47185 60.373612 136.96484 55.878906 C 136.45782 51.384202 135.76089 44.185476 135.41406 39.882812 C 135.41406 39.882812 135.21845 33.549396 134.37305 32.904297 C 134.18072 32.757544 133.93513 32.68005 133.67578 32.648438 z M 149.62109 49.505859 C 147.06252 49.506155 144.55666 49.885676 142.67969 50.669922 C 142.67969 50.669922 139.88841 51.759861 139.60352 52.804688 C 138.78445 55.808498 139.36133 68.916016 139.36133 68.916016 C 139.72187 78.037943 140.31837 87.915585 140.68555 90.865234 L 141.35352 96.228516 L 149.75977 96.228516 L 158.16992 96.228516 L 158.79688 89.333984 C 159.14191 85.541577 159.72214 75.706039 160.08594 67.478516 C 160.73219 52.863057 160.69591 52.492203 158.53906 51.337891 C 156.28851 50.133439 152.91068 49.505477 149.62109 49.505859 z M 133.60156 100.16992 L 133.60156 100.17188 C 126.97566 100.17088 123.51301 100.30881 121.6875 100.85938 C 119.95036 101.38329 120.09375 103.37233 120.09375 104.59766 C 120.09375 105.90922 120.32747 106.82159 121.28906 107.48242 C 122.79123 108.51473 126.18222 108.22575 133.11328 108.60352 C 145.36379 109.27121 168.51605 108.6737 174.02539 107.54688 C 175.34977 107.27601 176.37722 107.30944 176.85938 106.8457 C 177.44133 106.28597 177.32161 105.12858 177.33203 103.49805 L 177.3457 101.43164 C 177.3589 100.75068 176.44867 100.43455 175.67773 100.43555 L 149.27148 100.26562 C 142.68985 100.22303 137.57709 100.17052 133.60156 100.16992 z M 124.21875 110.57617 C 122.79937 110.64727 121.3313 111.2773 120.71875 112.42188 C 119.83677 114.06987 110.42187 146.42347 110.42188 147.80664 C 110.42188 150.82944 117.01602 142.20083 121.51172 133.29492 C 125.02718 126.33084 128.33858 114.45956 127.42773 112.08594 C 127.00837 110.99308 125.63813 110.50503 124.21875 110.57617 z M 173.125 110.64648 C 171.97694 110.66048 170.94731 110.88667 170.58398 111.25 C 168.39023 113.44376 176.60665 134.6576 183.26172 143.98242 C 184.96523 146.3693 186.54604 148.13559 186.77539 147.90625 C 187.16803 147.51361 181.58323 125.67787 178.52148 115.63672 C 177.35066 111.79695 176.65273 110.9851 174.29102 110.70508 C 173.90226 110.65898 173.50768 110.64178 173.125 110.64648 z M 164.15234 111.64258 C 161.98753 111.57968 162.263 112.97904 164.57031 122.60352 C 168.53529 139.14259 176.76797 153.4279 188.96875 164.9375 C 192.98249 168.72386 196.77796 171.82227 197.40234 171.82227 C 198.14392 171.82227 198.35878 170.22465 198.01953 167.21484 C 197.76434 164.95084 198.18679 163.39473 196.77344 161.50391 C 195.60787 159.94458 192.94074 158.20784 189.83398 155.21094 C 183.27838 148.88712 181.41873 146.26231 177.00586 137.08984 C 174.16747 131.19006 170.96828 123.14529 169.89453 119.21289 C 168.15206 112.8314 167.64988 112.02678 165.23047 111.73828 C 164.82036 111.68938 164.4616 111.65158 164.15234 111.64258 z M 135.33203 111.65039 C 135.01672 111.65439 134.65156 111.68928 134.23438 111.73828 C 133.2535 111.85369 132.1945 111.77758 131.54492 112.52148 C 130.55702 113.6529 130.02528 116.2928 128.28906 121.31836 C 122.44383 138.23758 118.01587 145.96639 109.06055 154.88672 C 105.30682 158.62577 103.34609 160.44217 102.16602 161.39258 C 100.64608 162.61669 100.6487 165.54393 100.43945 167.40039 C 100.1404 170.0535 100.3585 171.82227 100.98438 171.82227 C 102.52991 171.82227 110.87615 164.69024 114.77344 160.04102 C 125.07727 147.74919 131.51762 135.65554 134.99414 122.0625 C 137.28159 113.11861 137.53912 111.62155 135.33203 111.65039 z M 148.91406 112.31445 C 147.66429 112.34305 146.47191 112.43155 145.63672 112.57617 L 142.59961 113.10352 L 142.32422 181.81641 C 142.32422 181.81641 141.40459 244.33363 142.63086 250.50391 C 142.79316 251.32057 144.36719 251.46094 144.36719 251.46094 C 146.68127 251.73604 153.1853 252.22524 155.48242 251.34375 C 156.93386 250.78679 156.39063 244.23703 156.39062 182.03516 L 156.39062 112.78906 L 152.53125 112.41992 C 151.47023 112.31869 150.16384 112.28583 148.91406 112.31445 z M 159.2207 115.63672 C 158.41332 115.63672 158.29443 134.47094 158.79883 183.19141 C 159.18348 220.34578 159.67727 251.03325 159.89453 251.38477 C 160.11179 251.73635 164.81418 251.72417 170.34375 251.35742 C 178.93553 250.78751 185.11939 249.74065 203.70508 245.71289 C 205.28818 245.36981 207.28411 244.01815 208.14062 242.71094 C 209.56625 240.53515 209.42354 239.05853 206.44727 225.23242 C 204.65913 216.92575 201.23269 201.98091 198.83398 192.02148 L 194.47461 173.91211 L 188.32617 167.50391 C 180.45519 159.29841 176.89575 155.05874 173.08398 149.34766 C 169.76358 144.37275 163.2011 128.57032 162.05469 122.78906 C 160.88188 116.87484 160.39282 115.63672 159.2207 115.63672 z M 139.25195 116.44727 C 138.79235 116.44027 137.80704 119.07183 137.0957 122.02148 C 135.17196 129.99854 129.04743 143.99259 124.68945 150.36914 C 122.57756 153.45926 117.14774 160.40748 112.62109 165.80859 L 105.53516 174.26172 C 104.76247 175.18369 104.27515 176.38668 104.03125 177.08398 L 100.2832 192.36719 C 98.023976 201.57387 95.277182 213.24424 94.179688 218.30078 C 93.082194 223.35733 91.496968 230.38555 90.658203 233.91797 C 89.178499 240.14965 89.198784 240.41528 91.349609 242.88281 C 93.185108 244.98859 96.025263 245.94076 107.86719 248.42188 C 118.30788 250.6094 124.51258 251.36171 130.85156 251.20508 L 137.41992 251.04102 C 138.46732 251.04183 139.6623 250.49244 139.54297 248.89453 L 139.79883 183.82422 C 139.93113 150.01235 140.33921 121.35088 139.72852 116.81055 C 139.67202 116.3904 139.321 116.44829 139.25195 116.44727 z M 72.640625 128.13477 C 70.459562 128.10167 71.86002 131.21954 75.591797 133.73438 C 79.584591 136.42512 84.058551 136.7616 85.925781 134.51172 C 87.577197 132.52189 87.242521 132.23906 81.205078 130.52539 C 78.452794 129.74419 75.119633 128.76821 73.798828 128.35547 C 73.337421 128.21128 72.952206 128.13949 72.640625 128.13477 z M 226.75586 128.16602 C 226.42085 128.17622 226.03524 128.24378 225.59961 128.38086 C 224.33548 128.77877 221.04916 129.74419 218.29688 130.52539 C 212.25943 132.23906 211.92476 132.52189 213.57617 134.51172 C 215.39307 136.70095 219.28391 136.44786 223.92773 133.83789 C 225.39492 133.01328 226.94396 132.32402 227.6543 131.39062 C 228.89743 129.7571 228.56491 128.1132 226.75586 128.16602 z M 207.18164 248.18359 C 205.98935 248.22549 203.43056 248.7065 200.58203 249.45312 C 172.85278 256.72133 132.56773 257.54343 102.30273 251.45898 C 96.995278 250.39199 92.474254 249.69762 92.253906 249.91797 C 92.033559 250.13832 91.413297 252.27307 90.876953 254.66016 C 89.614757 260.27778 90.823487 261.50809 99.320312 263.24805 C 106.51958 264.72231 123.92072 266.72374 133.40625 267.16992 C 155.73526 268.22024 168.55563 267.54532 189.58984 264.21289 C 201.76613 262.28381 209.13312 260.08717 209.87109 258.16406 C 210.34237 256.93592 208.96058 250.10114 207.87695 248.29492 C 207.82325 248.20522 207.57907 248.16961 207.18164 248.18359 z " /><path
       id="path2636"
       style="display:inline;fill:#ce9e9a;fill-opacity:1;stroke-width:1.02153"
       d="m 149.62102,49.50562 c -2.55858,2.96e-4 -5.06423,0.380931 -6.9412,1.165178 0,0 -2.79165,1.090002 -3.07654,2.13483 -0.81907,3.003814 -0.24142,16.110978 -0.24142,16.110978 0.36054,9.121936 0.95562,18.999188 1.3228,21.94884 l 0.66838,5.363011 h 8.40764 8.40963 l 0.62648,-6.895299 c 0.34504,-3.792411 0.92508,-13.627535 1.28888,-21.855067 0.64625,-14.615473 0.6106,-14.986593 -1.54625,-16.140907 -2.25055,-1.204453 -5.62881,-1.831946 -8.9184,-1.831564 z m -16.0192,50.6653 c -6.62591,-10e-4 -10.08964,0.13775 -11.91515,0.68832 -1.73714,0.52392 -1.59214,2.51362 -1.59214,3.73895 0,1.31157 0.23351,2.22418 1.1951,2.88501 1.50217,1.03231 4.89229,0.74351 11.82336,1.12128 12.25052,0.6677 35.40356,0.0694 40.91291,-1.05743 1.32438,-0.27087 2.35098,-0.23856 2.83314,-0.7023 0.58196,-0.55973 0.46244,-1.71537 0.47286,-3.3459 l 0.014,-2.06699 c 0.0132,-0.68096 -0.89702,-0.99659 -1.66796,-0.99559 l -26.40604,-0.17159 c -6.58164,-0.0426 -11.69451,-0.0932 -15.67004,-0.0938 z m 30.55,11.4722 c -2.16482,-0.0629 -1.88833,1.33497 0.41898,10.95946 3.96498,16.53909 12.19812,30.82586 24.39891,42.33547 4.01374,3.78636 7.8092,6.88332 8.43358,6.88332 0.74158,0 0.95575,-1.59703 0.6165,-4.60684 -0.25519,-2.26401 0.16637,-3.81934 -1.24698,-5.71017 -1.16557,-1.55933 -3.83243,-3.29585 -6.93919,-6.29276 -6.55561,-6.32382 -8.41406,-8.94962 -12.82694,-18.1221 -2.83839,-5.89979 -6.03902,-13.94431 -7.11277,-17.87671 -1.74247,-6.3815 -2.24329,-7.1854 -4.6627,-7.4739 -0.41011,-0.0489 -0.77013,-0.0867 -1.07939,-0.0957 z m -28.82019,0.008 c -0.31531,0.004 -0.68016,0.0387 -1.09735,0.0877 -0.98088,0.11541 -2.03991,0.0382 -2.68949,0.78211 -0.9879,1.13142 -1.51989,3.77114 -3.25611,8.7967 -5.84524,16.91924 -10.2721,24.64836 -19.22743,33.5687 -3.75373,3.73905 -5.71522,5.55583 -6.8953,6.50624 -1.51994,1.22411 -1.51657,4.15099 -1.72582,6.00745 -0.29905,2.65311 -0.0812,4.42129 0.54468,4.42129 1.54554,0 9.89132,-7.13024 13.78861,-11.77947 10.30384,-12.29184 16.7445,-24.38697 20.22102,-37.98002 2.28745,-8.9439 2.54428,-10.43962 0.33719,-10.41078 z m 13.58309,0.66239 c -1.24977,0.0286 -2.44286,0.11875 -3.27805,0.26337 l -3.03665,0.52672 -0.27533,68.71358 c 0,0 -0.92101,62.51736 0.30526,68.68764 0.1623,0.81666 1.73779,0.95569 1.73779,0.95569 2.31408,0.2751 8.81796,0.76376 11.11508,-0.11773 1.45144,-0.55696 0.9078,-7.10618 0.9078,-69.30812 v -69.24629 l -3.85865,-0.36911 c -1.06102,-0.10123 -2.36747,-0.13437 -3.61725,-0.10575 z m 58.26688,135.87093 c -1.19229,0.0419 -3.75148,0.52229 -6.60001,1.26892 -27.72928,7.26821 -68.01295,8.08959 -98.27798,2.00514 -5.307462,-1.067 -9.8293,-1.76061 -10.049648,-1.54026 -0.220347,0.22035 -0.840321,2.35542 -1.376665,4.74251 -1.262197,5.61763 -0.05329,6.84724 8.443544,8.5872 7.199279,1.47426 24.599909,3.47632 34.085449,3.9225 22.32903,1.05032 35.14969,0.37559 56.18392,-2.95684 12.1763,-1.92908 19.54291,-4.12623 20.28088,-6.04934 0.47128,-1.22814 -0.90955,-8.06388 -1.99318,-9.8701 -0.0537,-0.0897 -0.29888,-0.12371 -0.69631,-0.10973 z" /><path
       id="path2630"
       style="display:inline;fill:#f6f6e1;fill-opacity:1;stroke-width:1.02153"
       d="m 166.85128,32.37511 c -0.6315,-0.01895 -1.14483,0.123311 -1.50835,0.442927 -0.41389,0.363912 -1.23344,7.540414 -1.82158,15.947375 -0.58814,8.406964 -1.51083,20.341546 -2.04904,26.521765 -0.53822,6.180219 -0.9805,13.355253 -0.98561,15.94538 l 0.13965,5.231331 c 0,0 5.45543,0.09623 8.18219,0.01992 2.90634,-0.08131 6.94787,0.0853 8.70891,-0.506769 0.88814,-0.298612 1.39048,-1.46211 1.86149,-2.188701 0.76902,-1.186297 2.14709,-6.523811 3.06258,-11.861274 0.91549,-5.337462 2.23619,-11.426417 2.7254,-11.992952 1.80016,-2.084722 1.12331,-0.0669 -0.67636,10.253166 -1.35958,7.796328 -1.35574,9.637609 0.0399,16.994835 1.34081,7.068287 5.92153,23.361527 8.10636,28.834177 0.3724,0.93278 2.13729,2.41561 3.9225,3.29601 7.01602,3.46004 22.57412,1.38487 28.09794,-3.74892 4.67332,-4.34334 4.65183,-6.14808 -0.18953,-15.84762 C 214.00385,88.751752 188.65796,49.833464 179.3071,40.371711 174.55612,35.564385 169.58776,32.45721 166.85127,32.375079 Z m -33.17565,0.273338 c -0.77803,-0.09484 -1.68392,0.211488 -1.68392,0.211488 -7.80005,2.237025 -12.71707,6.764429 -22.20222,20.442488 -19.767771,28.50612 -38.185514,60.216446 -38.185514,65.746756 0,3.59789 3.895174,7.78468 9.27354,9.96587 5.529065,2.24232 17.018169,2.51091 21.805184,0.51076 4.12498,-1.72353 6.29354,-6.82574 10.87366,-25.58204 1.75198,-7.174609 2.74373,-11.408128 2.88502,-14.975728 0.10934,-2.760998 -0.39553,-5.335113 -0.78411,-7.230488 -0.27929,-1.362328 -1.17344,-4.892553 -1.51234,-7.982666 -0.81165,-7.400709 1.29981,-2.933896 3.54143,8.553284 1.48651,7.617661 2.18296,11.71712 4.28562,13.317748 1.23738,0.941909 2.58703,0.605622 4.99989,0.845946 2.97736,0.296549 6.95996,0.302311 8.85056,0.01399 l 3.43768,-0.524727 -0.68634,-15.955354 c -0.37757,-8.775736 -1.10109,-19.632885 -1.6081,-24.127595 -0.50702,-4.494709 -1.20542,-11.692591 -1.55225,-15.995259 0,0 -0.19407,-6.333997 -1.03947,-6.979097 -0.19233,-0.146753 -0.43897,-0.223768 -0.69832,-0.255381 z m 21.50392,21.725381 c -0.33271,0.0517 -0.74491,0.791682 -1.17315,2.49795 -0.38768,1.544626 -1.71291,2.701731 -3.2222,3.080539 -3.09704,0.777305 -4.47334,-0.04683 -5.83786,-3.499524 -0.54703,-1.384146 -0.86658,-1.772843 -1.36869,-1.675941 -0.4299,0.08297 -0.47859,0.759504 -0.54468,1.679931 -0.24622,3.428853 0.87005,6.606374 4.56893,7.974685 4.45673,1.648652 8.75679,-1.955902 8.75679,-7.340222 0,-1.648747 -0.77892,-2.677272 -1.1133,-2.717418 -0.0214,-0.0026 -0.0436,-0.0035 -0.0659,0 z m -30.96101,56.201881 c -1.41938,0.0711 -2.88697,0.70095 -3.49952,1.84553 -0.88198,1.648 -10.29707,34.00313 -10.29707,35.3863 0,3.0228 6.59345,-5.60693 11.08915,-14.51285 3.51546,-6.96409 6.82651,-18.83501 5.91566,-21.20863 -0.41936,-1.09286 -1.78884,-1.58149 -3.20822,-1.51035 z m 48.90555,0.0699 c -1.14806,0.014 -2.17652,0.24121 -2.53985,0.60454 -2.19376,2.19376 6.02222,23.40789 12.6773,32.73272 1.70351,2.38688 3.28414,4.15184 3.51349,3.9225 0.39264,-0.39264 -5.19227,-22.22669 -8.25402,-32.26785 -1.17083,-3.83977 -1.86803,-4.65203 -4.22975,-4.93205 -0.38876,-0.0461 -0.78449,-0.0646 -1.16717,-0.0599 z m -13.90433,4.99187 c -0.80738,0 -0.92538,18.83388 -0.42098,67.55439 0.38465,37.15441 0.87809,67.84131 1.09535,68.19283 0.21726,0.35158 4.91911,0.33885 10.44869,-0.0279 8.59179,-0.56991 14.77749,-1.61658 33.3632,-5.64434 1.5831,-0.34308 3.57874,-1.69352 4.43526,-3.00073 1.42563,-2.17579 1.28238,-3.65354 -1.6939,-17.47966 -1.78814,-8.30668 -5.21485,-23.25212 -7.61356,-33.21156 l -4.35944,-18.10814 -6.14911,-6.40848 c -7.87099,-8.2055 -11.42931,-12.44498 -15.24108,-18.15607 -3.32041,-4.97491 -9.88288,-20.77842 -11.02929,-26.55968 -1.17281,-5.91423 -1.66302,-7.15068 -2.83514,-7.15068 z m -19.96763,0.81004 c -0.4596,-0.007 -1.44544,2.62484 -2.15678,5.5745 -1.92375,7.97706 -8.04797,21.97078 -12.40595,28.34734 -2.1119,3.09012 -7.54213,10.03749 -12.06878,15.43861 l -7.08483,8.45352 c -0.77269,0.92197 -1.26046,2.12585 -1.50436,2.82316 l -3.74892,15.28299 c -2.259229,9.20669 -5.005716,20.87664 -6.103212,25.93319 -1.097495,5.05655 -2.682704,12.08376 -3.52147,15.61618 -1.479706,6.23169 -1.458505,6.49875 0.692323,8.96628 1.8355,2.10578 4.676053,3.05747 16.517989,5.53859 10.4407,2.18753 16.64534,2.93989 22.98433,2.78326 l 6.5681,-0.16361 c 1.0474,8.1e-4 2.24218,-0.54889 2.12285,-2.1468 l 0.25538,-65.0704 c 0.1323,-33.8119 0.54079,-62.47335 -0.0699,-67.01369 -0.0565,-0.42015 -0.40779,-0.3621 -0.47684,-0.36312 z m -66.610667,11.6877 c -2.181065,-0.0331 -0.780928,3.08359 2.950853,5.59843 3.992798,2.69075 8.465742,3.028 10.332974,0.77812 1.651417,-1.98983 1.316883,-2.27268 -4.720566,-3.98635 -2.752287,-0.7812 -6.085257,-1.758 -7.406063,-2.17074 -0.461408,-0.14419 -0.845617,-0.21474 -1.157198,-0.21946 z m 154.114727,0.0299 c -0.33501,0.0102 -0.72157,0.0784 -1.1572,0.21548 -1.26413,0.39791 -4.55002,1.3636 -7.30231,2.1448 -6.03745,1.71367 -6.37197,1.99652 -4.72056,3.98635 1.8169,2.18923 5.70709,1.93561 10.35092,-0.67436 1.46719,-0.82461 3.01664,-1.51268 3.72698,-2.44608 1.24313,-1.63353 0.91122,-3.27901 -0.89783,-3.22619 z" /><path
       d="M 196.93555,236 C 196.28093,236 191,244.56337 191,245.625 c 0,0.68254 3.59691,0.3885 9.33398,-0.76367 C 203.45071,244.2354 206,243.33976 206,242.86914 206,241.93327 198.17069,236 196.93555,236 Z m -93.16602,0.4707 c -1.83527,-0.0215 -8.683388,4.69666 -8.732421,6.17188 -0.02087,0.628 2.100394,1.58638 4.712891,2.13086 5.60544,1.16825 9.25,1.4397 9.25,0.6875 0,-1.1038 -4.00576,-8.34649 -4.93359,-8.91992 -0.0743,-0.0459 -0.17453,-0.0689 -0.29688,-0.0703 z M 177.49609,240 c -1.38079,0 -7.5523,8.60979 -6.74804,9.41406 0.75562,0.75562 0.52635,0.76995 7.91992,-0.51758 C 182.15052,248.29001 185,247.52517 185,247.19531 185,246.10743 178.63065,240 177.49609,240 Z m -53.81445,0.041 c -1.38793,0.0489 -9.21034,6.7623 -8.5957,7.37695 0.36289,0.36288 10.1002,2.1167 13.66406,2.46094 0.6875,0.0664 1.25,-0.48486 1.25,-1.22461 0,-0.73976 -1.00459,-2.10329 -1.82812,-3.31446 -0.86688,-1.27488 -2.05816,-2.51822 -2.7129,-3.47265 -0.6098,-0.88892 -1.1269,-1.84907 -1.77734,-1.82617 z"
       style="display:inline;fill:#ce9e9a;fill-opacity:1;stroke-width:1.02153"
       id="path10997" /></g></svg>
