<?xml version="1.0" encoding="UTF-8" standalone="no"?>
<!-- Created with Inkscape (http://www.inkscape.org/) -->

<svg
   version="1.1"
   id="svg27016"
   width="300"
   height="300"
   viewBox="0 0 300 300"
   sodipodi:docname="prop.svg"
   inkscape:version="1.2.2 (732a01da63, 2022-12-09)"
   xmlns:inkscape="http://www.inkscape.org/namespaces/inkscape"
   xmlns:sodipodi="http://sodipodi.sourceforge.net/DTD/sodipodi-0.dtd"
   xmlns="http://www.w3.org/2000/svg"
   xmlns:svg="http://www.w3.org/2000/svg">
  <defs
     id="defs27020">
    <filter
       inkscape:collect="always"
       style="color-interpolation-filters:sRGB"
       id="filter27514"
       x="-0.10721386"
       y="-0.047306364"
       width="1.213875"
       height="1.0948942">
      <feGaussianBlur
         inkscape:collect="always"
         stdDeviation="1.9494"
         id="feGaussianBlur27516" />
    </filter>
  </defs>
  <sodipodi:namedview
     id="namedview27018"
     pagecolor="#ffffff"
     bordercolor="#000000"
     borderopacity="0.25"
     inkscape:showpageshadow="2"
     inkscape:pageopacity="0.0"
     inkscape:pagecheckerboard="0"
     inkscape:deskcolor="#d1d1d1"
     showgrid="false"
     inkscape:zoom="1.2103311"
     inkscape:cx="-159.04739"
     inkscape:cy="181.35533"
     inkscape:window-width="2560"
     inkscape:window-height="1351"
     inkscape:window-x="2391"
     inkscape:window-y="-9"
     inkscape:window-maximized="1"
     inkscape:current-layer="g27022" />
  <g
     inkscape:groupmode="layer"
     inkscape:label="Image"
     id="g27022">
    <path
       style="mix-blend-mode:normal;fill:#f6f6e1;fill-opacity:1;stroke:#753f4b;stroke-width:12.3;stroke-dasharray:none;filter:url(#filter27514)"
       d="m 141.28662,263.02061 c -4.44827,-0.69656 -9.06077,-1.57529 -10.25,-1.95274 -3.35551,-1.065 -3.12435,-2.97954 3.93027,-32.55149 2.16491,-9.075 4.15854,-17.4935 4.4303,-18.70778 0.14797,-0.66115 0.70186,-1.76237 1.52732,-2.57874 2.10031,-2.07717 6.95604,-5.59518 9.35489,-5.29976 1.03356,0.12728 3.54424,1.96765 5.13483,3.62786 0,0 2.04069,1.85488 2.41729,3.20114 0.57717,2.06328 0.87809,25.24392 0.87809,25.24392 0.32457,13.98256 0.11614,26.57104 -0.23496,27.96993 -0.56448,2.24905 -1.12805,2.53016 -4.86931,2.42878 -2.32702,-0.0631 -7.87045,-0.68456 -12.31872,-1.38112 z m 3.79598,-68.79208 c -2.31452,-2.35832 -4.20821,-4.70379 -4.20821,-5.21215 0,-1.35427 8.21505,-9.5 9.58085,-9.5 0.64044,0 3.04636,2.04166 5.3465,4.53701 0,0 3.27889,2.58492 3.35586,4.6403 0.0633,1.69117 -2.32598,3.87669 -2.32598,3.87669 -2.6678,3.36838 -5.78179,5.946 -7.18328,5.946 -0.19664,0 -2.25123,-1.92953 -4.56574,-4.28785 z m 0.32741,-19.44276 c -1.08041,-0.27424 -6.25541,-3.28579 -11.5,-6.69235 -5.24459,-3.40655 -14.37512,-9.25508 -20.29006,-12.99674 -10.55515,-6.67694 -10.78055,-6.89822 -12.16418,-11.94165 -1.00089,-3.6483 -1.567433,-13.98449 -1.953431,-35.63865 -0.654364,-36.709638 -0.971655,-35.466654 11.550671,-45.249613 4.40032,-3.437713 11.67276,-9.191481 16.16098,-12.786152 17.33848,-13.886602 17.46716,-13.964235 23.14535,-13.964235 h 5.19735 l 20.69337,16.532588 c 11.38135,9.092923 21.61171,17.980423 22.73413,19.75 1.97299,3.110557 2.02674,4.330118 1.61855,36.721072 -0.36748,29.15987 -0.64474,33.93398 -2.13853,36.82265 -1.20219,2.32477 -4.86286,5.31922 -12.22042,9.99634 -5.77725,3.67254 -14.53219,9.27918 -19.45542,12.4592 -12.00014,7.75114 -14.78452,8.66122 -21.37836,6.98754 z m 18.90064,-55.8546 c 8.75691,-8.77318 11.56374,-12.21008 11.56374,-14.15958 0,-3.92502 -21.57287,-25.25521 -25.54255,-25.25521 -2.31341,0 -5.02636,2.16465 -14.15958,11.297872 -9.21035,9.210348 -11.29787,11.834498 -11.29787,14.202128 0,2.36763 2.08752,4.99178 11.29787,14.20213 8.68767,8.68767 11.90743,11.29787 13.93626,11.29787 2.03392,0 5.28767,-2.65421 14.20213,-11.58521 z"
       id="path27506"
       sodipodi:nodetypes="sssssssssssssssssssssssssssscsssssssssssssss"
       transform="matrix(1.0466216,0,0,1.0466216,-6.9932419,-6.9932398)" />
    <path
       style="fill:#f6f6e1;fill-opacity:1;stroke-width:1.04662"
       d="m 140.71954,268.28981 c -4.65566,-0.72902 -9.48319,-1.64873 -10.72786,-2.04378 -3.51196,-1.11465 -3.27002,-3.11845 4.11349,-34.06909 2.26585,-9.49809 4.35243,-18.30907 4.63685,-19.57997 0.15487,-0.69197 0.73459,-1.84453 1.59853,-2.69896 2.19823,-2.17401 7.28034,-5.85604 9.79103,-5.54685 1.08175,0.13322 3.70948,2.05939 5.37422,3.797 0,0 2.13584,1.94136 2.52999,3.35039 0.60408,2.15947 0.91903,26.42083 0.91903,26.42083 0.3397,14.63445 0.12155,27.80983 -0.24591,29.27393 -0.5908,2.3539 -1.18064,2.64812 -5.09633,2.54202 -2.4355,-0.0661 -8.23738,-0.71648 -12.89304,-1.44552 z m 3.97296,-71.99927 c -2.42243,-2.46827 -4.4044,-4.92309 -4.4044,-5.45515 0,-1.41741 8.59805,-9.94291 10.02752,-9.94291 0.67029,0 3.18839,2.13685 5.59576,4.74853 0,0 3.43176,2.70544 3.51232,4.85664 0.0663,1.77002 -2.43442,4.05743 -2.43442,4.05743 -2.79218,3.52542 -6.05135,6.22321 -7.51818,6.22321 -0.20581,0 -2.35618,-2.01949 -4.7786,-4.48775 z m 0.34267,-20.34922 c -1.13078,-0.28703 -6.54705,-3.43898 -12.03615,-7.00435 -5.48909,-3.56537 -15.04531,-9.68657 -21.23601,-13.60268 -11.04725,-6.98822 -11.28316,-7.21982 -12.731299,-12.49838 -1.047547,-3.81839 -1.6405,-14.63647 -2.044494,-37.30018 -0.684871,-38.421102 -1.016955,-37.120168 12.089173,-47.359225 4.60547,-3.597985 12.21696,-9.620003 16.91443,-13.382264 18.14683,-14.534018 18.42757,-14.834355 24.37049,-14.834355 0,0 3.72518,-0.173357 5.39688,0.528918 4.69276,1.971412 21.55484,16.993532 21.55484,16.993532 11.91197,9.51685 22.61929,18.818699 23.79404,20.670777 2.06497,3.255576 2.12123,4.531995 1.694,38.433067 -0.3846,30.51934 -0.67479,35.51604 -2.23823,38.53937 -1.25824,2.43316 -5.08957,5.56722 -12.79015,10.46239 -6.04659,3.84377 -15.20971,9.71179 -20.36246,13.04008 -12.55961,8.1125 -15.4738,9.06502 -22.37506,7.3133 z m 19.78182,-58.45863 c 9.16518,-9.1822 12.10286,-12.77934 12.10286,-14.81972 0,-4.10801 -22.57863,-26.432646 -26.73339,-26.432646 -2.42126,0 -5.26069,2.265569 -14.81972,11.824597 -9.63975,9.639749 -11.82459,12.386239 -11.82459,14.864249 0,2.47801 2.18484,5.2245 11.82459,14.86425 9.09271,9.09271 12.46258,11.8246 14.586,11.8246 2.12874,0 5.53418,-2.77795 14.86425,-12.12533 z"
       id="path27508"
       sodipodi:nodetypes="ssssssssssssssssssssssssssssssssssssssssssss" />
  </g>
</svg>
