<?xml version="1.0" encoding="UTF-8" standalone="no"?>
<!-- Created with Inkscape (http://www.inkscape.org/) -->

<svg
   version="1.1"
   id="svg27016"
   width="300"
   height="300"
   viewBox="0 0 300 300"
   sodipodi:docname="prop_spell.svg"
   inkscape:version="1.2.2 (732a01da63, 2022-12-09)"
   inkscape:export-filename="prop_spell.png"
   inkscape:export-xdpi="96"
   inkscape:export-ydpi="96"
   xml:space="preserve"
   xmlns:inkscape="http://www.inkscape.org/namespaces/inkscape"
   xmlns:sodipodi="http://sodipodi.sourceforge.net/DTD/sodipodi-0.dtd"
   xmlns="http://www.w3.org/2000/svg"
   xmlns:svg="http://www.w3.org/2000/svg"><defs
     id="defs27020" /><sodipodi:namedview
     id="namedview27018"
     pagecolor="#ffffff"
     bordercolor="#000000"
     borderopacity="0.25"
     inkscape:showpageshadow="2"
     inkscape:pageopacity="0.0"
     inkscape:pagecheckerboard="0"
     inkscape:deskcolor="#d1d1d1"
     showgrid="false"
     inkscape:zoom="1.2103311"
     inkscape:cx="-159.04739"
     inkscape:cy="181.35533"
     inkscape:window-width="2560"
     inkscape:window-height="1351"
     inkscape:window-x="2391"
     inkscape:window-y="-9"
     inkscape:window-maximized="1"
     inkscape:current-layer="g27022" /><g
     inkscape:groupmode="layer"
     inkscape:label="Image"
     id="g27022"><rect
       style="fill:#292c2b;fill-opacity:1;stroke:none;stroke-width:43.8978;stop-color:#000000"
       id="rect32909"
       width="300"
       height="300"
       x="0"
       y="0"
       ry="45"
       rx="45"
       inkscape:label="spell_background" /><path
       style="fill:#f9f0d4;fill-opacity:1;stroke-width:1.04662"
       d="m 140.71954,268.28981 c -4.65566,-0.72902 -9.48319,-1.64873 -10.72786,-2.04378 -3.51196,-1.11465 -3.27002,-3.11845 4.11349,-34.06909 2.26585,-9.49809 4.35243,-18.30907 4.63685,-19.57997 0.15487,-0.69197 0.73459,-1.84453 1.59853,-2.69896 2.19823,-2.17401 7.28034,-5.85604 9.79103,-5.54685 1.08175,0.13322 3.70948,2.05939 5.37422,3.797 0,0 2.13584,1.94136 2.52999,3.35039 0.60408,2.15947 0.91903,26.42083 0.91903,26.42083 0.3397,14.63445 0.12155,27.80983 -0.24591,29.27393 -0.5908,2.3539 -1.18064,2.64812 -5.09633,2.54202 -2.4355,-0.0661 -8.23738,-0.71648 -12.89304,-1.44552 z m 3.97296,-71.99927 c -2.42243,-2.46827 -4.4044,-4.92309 -4.4044,-5.45515 0,-1.41741 8.59805,-9.94291 10.02752,-9.94291 0.67029,0 3.18839,2.13685 5.59576,4.74853 0,0 3.43176,2.70544 3.51232,4.85664 0.0663,1.77002 -2.43442,4.05743 -2.43442,4.05743 -2.79218,3.52542 -6.05135,6.22321 -7.51818,6.22321 -0.20581,0 -2.35618,-2.01949 -4.7786,-4.48775 z m 0.34267,-20.34922 c -1.13078,-0.28703 -6.54705,-3.43898 -12.03615,-7.00435 -5.48909,-3.56537 -15.04531,-9.68657 -21.23601,-13.60268 -11.04725,-6.98822 -11.28316,-7.21982 -12.731299,-12.49838 -1.047547,-3.81839 -1.6405,-14.63647 -2.044494,-37.30018 -0.684871,-38.421102 -1.016955,-37.120168 12.089173,-47.359225 4.60547,-3.597985 12.21696,-9.620003 16.91443,-13.382264 18.14683,-14.534018 18.42757,-14.834355 24.37049,-14.834355 0,0 3.72518,-0.173357 5.39688,0.528918 4.69276,1.971412 21.55484,16.993532 21.55484,16.993532 11.91197,9.51685 22.61929,18.818699 23.79404,20.670777 2.06497,3.255576 2.12123,4.531995 1.694,38.433067 -0.3846,30.51934 -0.67479,35.51604 -2.23823,38.53937 -1.25824,2.43316 -5.08957,5.56722 -12.79015,10.46239 -6.04659,3.84377 -15.20971,9.71179 -20.36246,13.04008 -12.55961,8.1125 -15.4738,9.06502 -22.37506,7.3133 z m 19.78182,-58.45863 c 9.16518,-9.1822 12.10286,-12.77934 12.10286,-14.81972 0,-4.10801 -22.57863,-26.432646 -26.73339,-26.432646 -2.42126,0 -5.26069,2.265569 -14.81972,11.824597 -9.63975,9.639749 -11.82459,12.386239 -11.82459,14.864249 0,2.47801 2.18484,5.2245 11.82459,14.86425 9.09271,9.09271 12.46258,11.8246 14.586,11.8246 2.12874,0 5.53418,-2.77795 14.86425,-12.12533 z"
       id="path27508"
       sodipodi:nodetypes="ssssssssssssssssssssssssssssssssssssssssssss" /></g></svg>
