<?xml version="1.0" encoding="UTF-8" standalone="no"?>
<svg
   viewBox="0 0 300 300"
   version="1.1"
   id="svg27"
   sodipodi:docname="bean-head-1.svg"
   inkscape:version="1.2.2 (732a01da63, 2022-12-09)"
   xmlns:inkscape="http://www.inkscape.org/namespaces/inkscape"
   xmlns:sodipodi="http://sodipodi.sourceforge.net/DTD/sodipodi-0.dtd"
   xmlns:xlink="http://www.w3.org/1999/xlink"
   xmlns="http://www.w3.org/2000/svg"
   xmlns:svg="http://www.w3.org/2000/svg">
  <sodipodi:namedview
     id="namedview29"
     pagecolor="#ffffff"
     bordercolor="#000000"
     borderopacity="0.25"
     inkscape:showpageshadow="2"
     inkscape:pageopacity="0.0"
     inkscape:pagecheckerboard="0"
     inkscape:deskcolor="#d1d1d1"
     showgrid="false"
     inkscape:zoom="0.30258278"
     inkscape:cx="-209.85993"
     inkscape:cy="-365.18932"
     inkscape:window-width="2560"
     inkscape:window-height="1351"
     inkscape:window-x="2391"
     inkscape:window-y="-9"
     inkscape:window-maximized="1"
     inkscape:current-layer="svg27" />
  <defs
     id="defs15">
    <style
       id="style2">.cls-1{fill:url(#Bean);}.cls-2{fill:url(#Bean_left_shoulder);}.cls-3{fill:url(#Bean_left_shoulder-2);}</style>
    <linearGradient
       id="Bean"
       x1="148.05"
       y1="180.4"
       x2="148.05"
       y2="63.47"
       gradientUnits="userSpaceOnUse">
      <stop
         offset="0"
         stop-color="#ce9e9a"
         id="stop4" />
      <stop
         offset="1"
         stop-color="#753f4b"
         id="stop6" />
    </linearGradient>
    <linearGradient
       id="Bean_left_shoulder"
       x1="47.15"
       y1="223.96"
       x2="99.71"
       y2="223.96"
       gradientUnits="userSpaceOnUse">
      <stop
         offset="0"
         stop-color="#753f4b"
         id="stop9" />
      <stop
         offset="1"
         stop-color="#ce9e9a"
         id="stop11" />
    </linearGradient>
    <linearGradient
       id="Bean_left_shoulder-2"
       x1="684.27"
       y1="221.71"
       x2="736.82"
       y2="221.71"
       gradientTransform="matrix(-1, 0, 0, 1, 937.11, 0)"
       xlink:href="#Bean_left_shoulder" />
  </defs>
  <g
     id="beans"
     inkscape:label="beans">
    <path
       class="cls-1"
       d="M68.11,67.65C66.39,70.81,67,81,69,87.35c1,3,2.47,15,2.91,30.26C72.56,139,76.54,151.07,90,163.88c10.1,9.6,26.71,16.56,47.26,16.52,16.26,0,26.11-2,39.35-8.18,23.79-11.13,46.12-38.61,50.35-65.32,1.21-7.67,2.32-29.69,1.94-37.61-.28-5.6-2.61-5.82-4.75-5.82-4.86,0-3.31,11.13-4.11,25-1.72,29.92-14.42,50.82-37.34,67.54q-13.44,9.8-32.74,13.79c-8.23,1.69-10.84,1.77-21.34.63-14.91-1.63-23.07-5.67-31.65-14-9.15-8.89-13.92-16.91-15.37-34.35C81,114.24,80.78,105,79.76,100s-3.4-15.13-3.67-20.83S75.64,69,75,68.19C73.21,66.09,69.43,65.25,68.11,67.65Z"
       id="path17" />
    <path
       class="cls-2"
       d="M93.1,211.64c-15.24,5.56-27.92,9-33.83,11.91-5.66,2.8-11.8,6.3-12.11,9.17s5.74,5.41,9.82,2.56c3.61-2.53,9.73-4.33,15.51-7.61,2.75-1.56,14.75-5.79,25.76-9a2,2,0,0,0,1.23-2.91C98.32,213.47,96.16,210.52,93.1,211.64Z"
       id="path19" />
    <path
       class="cls-3"
       d="M206.9,209.39c15.24,5.56,27.92,9,33.83,11.91,5.66,2.8,11.8,6.3,12.11,9.17S247.1,235.88,243,233c-3.61-2.53-9.73-4.33-15.51-7.61-2.75-1.56-14.75-5.8-25.76-9a2.05,2.05,0,0,1-1.23-2.92C201.68,211.22,203.84,208.27,206.9,209.39Z"
       id="path21" />
  </g>
</svg>
