<?xml version="1.0" encoding="UTF-8" standalone="no"?>
<!-- Created with Inkscape (http://www.inkscape.org/) -->

<svg
   version="1.1"
   id="svg1"
   width="300"
   height="300"
   viewBox="0 0 300 300"
   sodipodi:docname="call.svg"
   inkscape:version="1.4.2 (f4327f4, 2025-05-13)"
   xmlns:inkscape="http://www.inkscape.org/namespaces/inkscape"
   xmlns:sodipodi="http://sodipodi.sourceforge.net/DTD/sodipodi-0.dtd"
   xmlns="http://www.w3.org/2000/svg"
   xmlns:svg="http://www.w3.org/2000/svg">
  <defs
     id="defs1">
    <filter
       inkscape:collect="always"
       style="color-interpolation-filters:sRGB"
       id="filter22"
       x="-0.043616453"
       y="-0.061530212"
       width="1.0870669"
       height="1.1230653">
      <feGaussianBlur
         inkscape:collect="always"
         stdDeviation="1.9494"
         id="feGaussianBlur22" />
    </filter>
  </defs>
  <sodipodi:namedview
     id="namedview1"
     pagecolor="#ffffff"
     bordercolor="#000000"
     borderopacity="0.25"
     inkscape:showpageshadow="2"
     inkscape:pageopacity="0.0"
     inkscape:pagecheckerboard="0"
     inkscape:deskcolor="#d1d1d1"
     inkscape:zoom="3.9766667"
     inkscape:cx="227.95474"
     inkscape:cy="103.98156"
     inkscape:window-width="2560"
     inkscape:window-height="1411"
     inkscape:window-x="3191"
     inkscape:window-y="-9"
     inkscape:window-maximized="1"
     inkscape:current-layer="g1" />
  <g
     inkscape:groupmode="layer"
     inkscape:label="Image"
     id="g1">
    <path
       id="path18"
       style="fill:#f6f6e1;stroke:#753f4b;stroke-width:12.3;stroke-dasharray:none;filter:url(#filter22)"
       d="M 71.669922 62.052734 C 69.501831 61.91103 67.256977 62.333059 65.125 63.435547 C 63.59887 64.224739 59.592343 67.819535 56.220703 71.423828 C 24.598552 105.22801 16.801387 157.31407 37.048828 199.5 C 43.973177 213.92701 56.249216 230.19513 63.945312 235.14258 C 66.390491 236.71447 69.772537 238 71.460938 238 C 78.236042 238 85 231.42037 85 224.83008 C 85 220.26184 83.209414 217.0445 77.103516 210.64844 C 66.002308 199.01971 57.753073 183.46455 54.507812 168.03711 C 52.125698 156.71293 52.513115 139.17517 55.396484 127.80859 C 59.112003 113.16158 68.150853 96.874329 77.488281 88 C 82.223491 83.499638 84.000794 80.029749 83.996094 75.298828 C 83.98888 67.96538 78.174194 62.477847 71.669922 62.052734 z M 262.26172 68.490234 C 261.32036 68.558756 260.90766 70.592255 260.50781 74.695312 C 260.14308 78.437977 258.95364 84.875 257.86523 89 C 251.95566 111.39695 235.4447 126.24574 204.05273 137.39453 L 194.60547 140.75 L 201.55273 142.31641 C 208.2166 143.81856 218.15565 145.55859 224.5 146.33398 C 226.15 146.53564 231.55 146.76761 236.5 146.84961 C 244.55104 146.98294 246.15375 146.68882 251.70117 144.06445 C 268.02186 136.34344 275.93527 121.37102 274.72461 100.5 C 274.10592 89.834211 271.21168 80.016194 266.74023 73.410156 C 264.49693 70.095947 263.14602 68.425866 262.26172 68.490234 z M 131.89844 74.998047 C 130.49081 75.022324 129.97903 75.771899 130.38672 77.25 C 130.72805 78.4875 131.76353 83.275748 132.6875 87.890625 C 134.3035 95.961988 134.28611 96.989521 132.2168 114.89062 C 131.03365 125.12574 129.80946 136.26257 129.49609 139.63867 C 127.78551 158.06772 138.047 179.60572 154.28906 191.67773 C 165.76191 200.205 184.4194 207.38646 201.63477 209.90039 C 213.24056 211.59516 237.86034 210.76596 245.20898 208.43359 C 248.3365 207.44095 247.15183 206.25021 242.31836 205.52539 C 224.88706 202.91141 203.41873 191.41664 191.20898 178.16016 C 180.02064 166.01265 177.25197 159.51302 172.05664 133.20508 C 167.67871 111.03632 166.30147 106.38705 161.25 96.705078 C 157.02855 88.613977 151.3369 83.308832 141.7207 78.498047 C 136.99877 76.135761 133.70824 74.966833 131.89844 74.998047 z M 104.61719 98.46875 C 103.1944 98.399848 101.72132 98.585714 100.25 99.064453 C 94.335055 100.98907 83.84023 112.4817 79.025391 122.30664 C 73.151334 134.29297 71.706426 141.14139 72.246094 154.42383 C 72.769947 167.31702 75.010095 175.34988 80.716797 184.78125 C 85.408078 192.53446 96.400944 203.75619 100.46289 204.9375 C 104.69185 206.16739 104.51578 206.17821 108.91992 204.41602 C 113.0702 202.75541 115.25504 200.24697 116.32031 195.91602 C 117.43484 191.38483 115.3462 187.11401 109.05078 181.04883 C 95.900346 168.37935 92.517506 150.64281 100.15234 134.40039 C 101.35235 131.84747 105.40773 126.442 109.16602 122.38867 C 115.47451 115.58496 116 114.67865 116 110.58594 C 116 103.8474 110.7826 98.767324 104.61719 98.46875 z M 181.4043 144.26172 C 180.67639 144.98963 184.04753 155.56433 186.64258 160.69336 C 189.67368 166.68422 199.34324 177.78655 205.26758 182.07812 C 209.02531 184.80021 209.07002 184.80678 215.27148 183.40234 C 234.61109 179.02251 249.76753 172.33669 261.47656 163.01953 C 267.18297 158.4788 271.70278 153.36881 270.80664 152.47266 C 270.61234 152.27837 264.38872 152.57446 256.97656 153.12891 C 234.26629 154.8277 211.46316 152.5465 190.55078 146.48633 C 185.70157 145.08108 181.5861 144.07992 181.4043 144.26172 z " />
    <path
       style="fill:#f6f6e1"
       d="m 100.4638,204.93662 c -4.061947,-1.18131 -15.054836,-12.40188 -19.746117,-20.15509 -5.706702,-9.43137 -7.948615,-17.46432 -8.472468,-30.35751 -0.539668,-13.28244 0.906046,-20.13072 6.780103,-32.11705 4.814839,-9.82494 15.309737,-21.31728 21.224682,-23.241895 7.84704,-2.553277 15.75,3.227945 15.75,11.521535 0,4.09271 -0.52478,4.99914 -6.83327,11.80285 -3.75829,4.05333 -7.8151,9.45845 -9.01511,12.01137 -7.634838,16.24242 -4.251255,33.97863 8.89918,46.64811 6.29542,6.06518 8.38312,10.3351 7.26859,14.86629 -1.06527,4.33095 -3.2488,6.83937 -7.39908,8.49998 -4.40414,1.76219 -4.22755,1.7513 -8.45651,0.52141 z"
       id="path17" />
    <path
       style="fill:#f6f6e1"
       d="m 224.5,146.33368 c -6.34435,-0.77539 -16.28344,-2.51556 -22.94731,-4.01771 0,0 -5.66046,-1.15845 -5.94711,-1.65494 -0.44796,-0.77589 8.44711,-3.26629 8.44711,-3.26629 31.39197,-11.14879 47.90348,-25.99779 53.81305,-48.39474 1.08841,-4.125 2.27733,-10.56218 2.64206,-14.304844 0.77546,-7.957444 1.60106,-8.127732 6.23239,-1.285494 4.47145,6.606038 7.36505,16.424549 7.98374,27.090338 1.21066,20.87102 -6.70196,35.84371 -23.02265,43.56472 -5.54742,2.62437 -7.15024,2.91799 -15.20128,2.78466 -4.95,-0.082 -10.35,-0.31404 -12,-0.5157 z"
       id="path15"
       sodipodi:nodetypes="sssssssssss" />
    <path
       style="fill:#f6f6e1"
       d="m 205.26728,182.07866 c -5.92434,-4.29157 -15.59368,-15.39369 -18.62478,-21.38455 -2.59505,-5.12903 -5.96619,-15.70375 -5.23828,-16.43166 0.1818,-0.1818 4.29809,0.81919 9.1473,2.22444 20.91238,6.06017 43.71485,8.33995 66.42512,6.64116 7.41216,-0.55445 13.63561,-0.84913 13.82991,-0.65484 0.89614,0.89615 -3.62379,6.00488 -9.3302,10.54561 -11.70903,9.31716 -26.86586,16.00353 -46.20547,20.38336 -6.20146,1.40444 -6.24587,1.39856 -10.0036,-1.32352 z"
       id="path14" />
    <path
       style="fill:#f6f6e1"
       d="m 201.6347,209.89962 c -17.21537,-2.51393 -35.87337,-9.69481 -47.34622,-18.22208 -16.24206,-12.07201 -26.50335,-33.61013 -24.79277,-52.03918 0.31337,-3.3761 1.53779,-14.51255 2.72094,-24.74767 2.06931,-17.901104 2.08724,-18.928641 0.47124,-27.000004 -0.92397,-4.614877 -1.95922,-9.403186 -2.30055,-10.640686 -0.93187,-3.378517 2.93965,-2.952542 11.33419,1.247078 9.6162,4.810785 15.30735,10.117079 19.5288,18.20818 5.05147,9.681972 6.42795,14.331472 10.80588,36.500232 5.19533,26.30794 7.96396,32.8064 19.1523,44.95391 12.20975,13.25648 33.67934,24.75177 51.11064,27.36575 4.83347,0.72482 6.01673,1.91608 2.88921,2.90872 -7.34864,2.33237 -31.96787,3.16052 -43.57366,1.46575 z"
       id="path13" />
    <path
       style="fill:#f6f6e1"
       d="M 63.945781,235.14202 C 56.249684,230.19457 43.973794,213.92701 37.049445,199.5 16.802004,157.31407 24.598711,105.22723 56.220862,71.423052 c 3.37164,-3.604293 7.378906,-7.198964 8.905036,-7.988156 8.527906,-4.409952 18.860745,2.086833 18.870364,11.864764 0.0047,4.730921 -1.773058,8.199978 -6.508268,12.70034 -9.337428,8.874329 -18.37578,25.16139 -22.091299,39.8084 -2.883369,11.36658 -3.270815,28.90542 -0.888701,40.2296 3.245261,15.42744 11.493371,30.98265 22.594579,42.61138 C 83.208471,217.04544 85,220.26246 85,224.8307 85,231.42099 78.236486,238 71.461382,238 c -1.688401,0 -5.070422,-1.28609 -7.515601,-2.85798 z"
       id="path11" />
  </g>
</svg>
