<?xml version="1.0" encoding="UTF-8" standalone="no"?>
<!-- Created with Inkscape (http://www.inkscape.org/) -->

<svg
   version="1.1"
   id="svg2"
   width="300"
   height="300"
   viewBox="0 0 300 300"
   sodipodi:docname="postmanoutfit.svg"
   inkscape:version="1.2.2 (732a01da63, 2022-12-09)"
   inkscape:export-filename="postmanoutfit.png"
   inkscape:export-xdpi="96"
   inkscape:export-ydpi="96"
   xmlns:inkscape="http://www.inkscape.org/namespaces/inkscape"
   xmlns:sodipodi="http://sodipodi.sourceforge.net/DTD/sodipodi-0.dtd"
   xmlns="http://www.w3.org/2000/svg"
   xmlns:svg="http://www.w3.org/2000/svg">
  <defs
     id="defs6">
    <filter
       inkscape:collect="always"
       style="color-interpolation-filters:sRGB"
       id="filter11866"
       x="-0.090373102"
       y="-0.052930721"
       width="1.1817021"
       height="1.1058934">
      <feGaussianBlur
         inkscape:collect="always"
         stdDeviation="1.9494"
         id="feGaussianBlur11868" />
    </filter>
  </defs>
  <sodipodi:namedview
     id="namedview4"
     pagecolor="#ffffff"
     bordercolor="#000000"
     borderopacity="0.25"
     inkscape:showpageshadow="2"
     inkscape:pageopacity="0.0"
     inkscape:pagecheckerboard="0"
     inkscape:deskcolor="#d1d1d1"
     showgrid="false"
     inkscape:zoom="3.34"
     inkscape:cx="159.43114"
     inkscape:cy="148.8024"
     inkscape:window-width="2560"
     inkscape:window-height="1369"
     inkscape:window-x="1912"
     inkscape:window-y="-8"
     inkscape:window-maximized="1"
     inkscape:current-layer="g8" />
  <g
     inkscape:groupmode="layer"
     inkscape:label="Image"
     id="g8">
    <path
       id="path10402"
       style="mix-blend-mode:normal;fill:none;fill-opacity:1;stroke:#753f4b;stroke-width:12.3;stroke-dasharray:none;filter:url(#filter11866)"
       inkscape:label="stroke"
       d="m 148,24.5 c -9.49998,0 -12.19565,0.34783 -15.5,2 -3.31563,1.657809 -4.05576,2.574736 -4.32227,5.359375 -0.40302,4.211007 2.09164,7.039541 10.32227,11.707031 3.3,1.871384 7.42607,3.409488 9.16797,3.417969 4.38429,0.02134 11.02175,-3.063048 16.13476,-7.498047 3.7904,-3.287757 4.26692,-4.164728 4,-7.359375 C 167.54302,29.018464 166.92846,28.214225 163.5,26.5 c -3.30435,-1.65217 -6.00002,-2 -15.5,-2 z m -20.10547,16.916016 c -0.47406,0.04295 -0.92566,0.188861 -1.41992,0.414062 -6.13741,2.796395 -14.73023,11.754095 -18.56641,19.353516 -3.92367,7.772754 -18.904247,45.787066 -18.906247,47.976566 -0.0035,3.7391 18.687167,9.57846 21.537107,6.72851 1.96729,-1.96729 5.2,-21.928652 5.97266,-36.88867 0.71653,-13.873206 1.31043,-16.967545 2.48242,-12.90625 1.90813,6.612212 -2.12412,43.46582 -8.55273,78.16602 -2.68937,14.51656 -2.70294,14.79351 -0.83789,16.85742 3.99977,4.42623 16.09147,8.98263 28.89648,10.88867 18.40532,2.73966 44.09973,-1.32588 51.4082,-8.13477 2.6095,-2.4311 2.60518,-2.50941 -1.41797,-24.37109 -10.07859,-54.766827 -12.14075,-68.60281 -10.76953,-72.289062 0.64171,-1.725091 1.41339,1.220051 3.12891,11.949218 3.06415,19.163742 5.96707,31.391794 8.06641,33.984374 1.42241,1.7566 2.35489,2.01687 5.16015,1.44141 5.31289,-1.08986 14.38785,-5.89389 14.74024,-7.80274 0.17435,-0.94446 -3.37482,-10.394471 -7.88672,-20.999997 -12.74239,-29.95183 -15.26662,-34.347469 -22.91602,-39.888672 -7.68091,-5.564021 -8.56132,-5.576249 -18.96289,-0.259765 -9.10708,4.65484 -9.31737,4.709228 -13.89844,3.505859 -2.55853,-0.672081 -7.28077,-2.831171 -10.49414,-4.798828 -3.70267,-2.267269 -5.34148,-3.054616 -6.76367,-2.925781 z m 8.01367,18.189453 c 1.04396,0.05148 1.60836,0.623622 2.10938,1.941406 0.30394,0.799426 0.31834,1.805159 1.01562,2.226563 0.93781,0.566774 2.78817,0.738648 5.40625,0.761718 7.35114,0.06479 11.77447,0.543389 14.26953,-0.785156 0.80214,-0.42727 0.6193,-1.20826 0.8086,-1.804688 C 159.94462,60.599816 161.04099,60 163.06836,60 c 3.06208,0 3.18164,0.284031 3.18164,7.5 0,1.374999 -0.0563,2.950001 -0.125,3.5 -0.0959,0.766915 -1.26697,0.694707 -2.44531,0.654297 -1.26031,-0.04323 -2.67086,-0.128614 -3,-0.986328 -0.1069,-0.278572 -0.27118,-1.106021 -0.625,-1.294922 C 158.87796,68.74477 155.66195,69 149,69 c -6.63245,0 -9.56359,-0.316776 -10.75,0.304688 -0.36359,0.190457 -0.50286,0.912638 -0.61133,1.195312 -0.37354,0.973431 -1.6383,1.313972 -2.8457,1.294922 -0.81865,-0.01292 -1.72073,-0.273268 -2.55859,-0.804688 -0.94788,-0.601183 -0.91826,-1.968332 -0.67383,-5.738281 0.28314,-4.367022 1.02437,-5.130895 3.1289,-5.533203 0.46979,-0.0898 0.87077,-0.130442 1.21875,-0.113281 z M 135.47461,77 c 1.59577,0 2.51877,0.561695 2.52539,1.525391 0.0265,3.850037 1.88146,3.351392 11.81445,3.460937 12.0635,0.133041 10.96039,-0.698207 11.72071,-3.09375 0.3832,-1.207366 1.38205,-1.400444 2.55468,-1.402344 0.90004,-0.0015 1.92604,-0.07591 2.71094,0.708985 0.66,0.659999 1.19922,3.360002 1.19922,6 C 168,88.826433 167.89629,89 165.10742,89 163.45834,89 161.96678,88.355029 161.63867,87.5 161.1757,86.293512 158.92863,86 150.1543,86 141.67742,86 137.9552,85.98595 138,87.5 c 0.0728,2.459519 -6.53615,1.048596 -6.62695,0.04883 -0.0855,-0.945098 -0.082,-2.112265 -0.082,-3.302734 0,-2.302224 0.0321,-4.697452 0.8125,-5.964844 C 132.81208,77.130473 134.20443,77 135.47461,77 Z m 0.83008,18.123047 c 1.29453,0.07224 1.66323,0.61767 1.86914,2.070312 0.0994,0.701086 0.0429,1.772706 0.42187,2.173829 0.6424,0.679982 2.06013,0.750282 4.4043,0.833982 2.66025,0.0949 7.46305,0.3481 11.08984,0.2793 3.40923,-0.0646 5.21888,-0.26126 6.1211,-0.882814 0.45274,-0.311925 0.40254,-1.228887 0.5332,-1.728515 0.31631,-1.209585 1.7926,-1.554377 3.30274,-1.591797 1.44103,-0.03571 2.91496,0.182192 3.3457,1.304687 0.40123,1.045579 0.2743,2.553859 0.2793,4.011719 0.008,2.24191 -0.10112,4.43705 -0.8711,5.20703 -0.80004,0.80002 -1.72149,0.86357 -2.66211,0.82617 -1.00091,-0.0398 -2.00954,-0.22309 -2.38086,-0.71484 -0.41484,-0.54938 -0.12182,-1.67327 -1.66601,-2.11719 -1.8677,-0.53693 -6.09773,-0.81475 -11.00977,-0.87304 -9.6767,-0.11481 -11.75103,-0.0334 -12.1543,0.83984 -0.24283,0.52582 -0.28095,1.71768 -0.37695,2.13672 -0.26044,1.13704 -3.83321,0.9305 -4.52734,0.33594 -0.79349,-0.67969 -1.03961,-2.68088 -0.83203,-6.32813 0.29965,-5.264739 0.39205,-5.413285 3.48242,-5.712891 0.66578,-0.06455 1.19935,-0.09439 1.63086,-0.07031 z M 106.4043,165.78516 c -0.389,-0.007 -0.66925,0.0794 -0.84571,0.25586 -2.11616,2.11616 1.81555,6.37054 9.40625,10.17773 7.75139,3.88778 14.13744,5.6217 25.03516,6.79687 9.94882,1.07282 12.31721,1.06711 22.78906,-0.0586 C 178.89379,181.22582 195,174.75857 195,170.02344 c 0,-2.91538 -1.52168,-3.2368 -5.17383,-1.09375 -1.82972,1.07367 -7.37617,3.17434 -12.32617,4.66797 -7.97872,2.40751 -10.64539,2.71813 -23.5,2.74023 -17.33316,0.0298 -30.71512,-2.5638 -40.95508,-7.9375 -3.32005,-1.74232 -5.47363,-2.59561 -6.64062,-2.61523 z M 111.98242,179 c -2.95502,0 -4.32808,24.91257 -1.81836,33 1.27418,4.10593 1.83309,4.6514 6.36719,6.22852 2.8997,1.0086 7.25935,1.63335 10.46875,1.5 1.83333,-0.0762 4.65766,-0.0108 5.5,-0.22852 l 3.20117,-6.5 c 3.40867,-6.92186 5.8605,-17.30437 5.28711,-23.04492 -0.20277,-2.03013 0.16356,-3.22919 -1.94922,-3.73242 L 132,184.7832 c -4.675,-0.95597 -10.90342,-2.64737 -13.83984,-3.75976 C 115.22371,179.91105 112.44449,179 111.98242,179 Z m 75.41797,3.05664 c -1.29119,0.0115 -3.67884,0.58325 -6.66406,1.28516 -3.9803,0.93588 -9.71133,1.94587 -12.73633,2.24414 -10.95856,1.08053 -10.3558,0.54086 -9.72852,8.71875 0.90371,11.78153 6.66734,24.51739 12.08399,26.70312 4.56186,1.84081 14.29556,0.14078 17.13086,-2.99219 2.76244,-3.05244 3.84628,-13.96088 2.52148,-25.36523 -0.64845,-5.58219 -1.16746,-9.97047 -1.69922,-10.40234 -0.16826,-0.13666 -0.4778,-0.19524 -0.9082,-0.19141 z m -75.2207,38.96289 c -0.79653,-0.0119 -1.19289,0.8619 -1,2.20313 0.2321,1.61382 1.41498,2.54937 4.32031,3.42187 6.13886,1.84358 13.15374,1.69937 13.91602,-0.28711 0.34675,-0.90372 0.46393,-1.74442 0.0918,-2.15625 -0.45611,-0.50476 -15.036,-3.14744 -17.32812,-3.18164 z m 71.30469,2.73047 c -1.05383,-0.002 -2.36398,0.0333 -3.98438,0.0977 -8.63035,0.34265 -10.56717,1.16093 -8.53516,3.60937 2.70306,3.25699 16.53516,1.18848 16.53516,-2.47265 0,-0.88451 -0.85416,-1.2269 -4.01562,-1.23438 z"
       sodipodi:nodetypes="sssssssssssscssssssssssssssssssssssscssscsssssssssssssssssssssscssssssccsssscsssssscsssssssssssssssssssccsccssssssssssssssssssssss" />
    <path
       id="path11857"
       style="fill:#f6f6e1;fill-opacity:1"
       d="m 148,24.5 c -9.49999,0 -12.19565,0.347828 -15.5,2 -3.31563,1.657811 -4.05576,2.574733 -4.32227,5.359375 -0.40302,4.211011 2.09163,7.039536 10.32227,11.707031 3.3,1.871386 7.42607,3.409488 9.16797,3.417969 4.3843,0.02134 11.02174,-3.063044 16.13476,-7.498047 3.7904,-3.28776 4.26692,-4.164725 4,-7.359375 C 167.54302,29.018461 166.92846,28.214227 163.5,26.5 c -3.30435,-1.652172 -6.00001,-2 -15.5,-2 z m -41.5957,141.28516 c -0.389,-0.007 -0.66925,0.0794 -0.84571,0.25586 -2.11617,2.11617 1.81554,6.37054 9.40625,10.17773 7.75139,3.88778 14.13743,5.62169 25.03516,6.79687 9.94883,1.07282 12.3172,1.06711 22.78906,-0.0586 C 178.8938,181.22582 195,174.75858 195,170.02344 c 0,-2.91538 -1.52168,-3.2368 -5.17383,-1.09375 -1.82972,1.07367 -7.37617,3.17434 -12.32617,4.66797 -7.97873,2.40752 -10.64538,2.71813 -23.5,2.74023 -17.33318,0.0298 -30.71511,-2.5638 -40.95508,-7.9375 -3.32006,-1.74232 -5.47363,-2.59561 -6.64062,-2.61523 z M 111.98242,179 c -2.95502,0 -4.32809,24.91256 -1.81836,33 1.27418,4.10593 1.83309,4.6514 6.36719,6.22852 2.8997,1.00861 7.25988,1.64553 10.46875,1.5 l 4.41123,-0.20007 c 0.7687,-0.0621 1.24275,-0.3392 1.51998,-0.90403 L 135.70117,213 c 3.40867,-6.92187 5.8605,-17.30436 5.28711,-23.04492 -0.20277,-2.03013 0.16356,-3.22919 -1.94922,-3.73242 L 132,184.7832 c -4.675,-0.95597 -10.90341,-2.64737 -13.83984,-3.75976 C 115.22371,179.91105 112.44449,179 111.98242,179 Z m 75.41797,3.05664 c -1.29119,0.0115 -3.67884,0.58325 -6.66406,1.28516 -3.9803,0.93588 -9.71133,1.94587 -12.73633,2.24414 -10.95857,1.08053 -10.35581,0.54085 -9.72852,8.71875 0.90371,11.78154 6.66734,24.51739 12.08399,26.70312 4.56187,1.84081 14.29556,0.14078 17.13086,-2.99219 2.76244,-3.05245 3.84628,-13.96087 2.52148,-25.36523 -0.64845,-5.5822 -1.16746,-9.97047 -1.69922,-10.40234 -0.16826,-0.13666 -0.4778,-0.19524 -0.9082,-0.19141 z m -75.2207,38.96289 c -0.79653,-0.0119 -1.19289,0.8619 -1,2.20313 0.2321,1.61383 1.41498,2.54937 4.32031,3.42187 6.13887,1.84358 13.15374,1.69937 13.91602,-0.28711 0.34675,-0.90372 0.46393,-1.74442 0.0918,-2.15625 -0.45611,-0.50476 -15.036,-3.14744 -17.32812,-3.18164 z m 71.30469,2.73047 c -1.05383,-0.002 -2.36398,0.0333 -3.98438,0.0977 -8.63036,0.34265 -10.56718,1.16093 -8.53516,3.60937 2.70306,3.25699 16.53516,1.18849 16.53516,-2.47265 0,-0.88451 -0.85415,-1.2269 -4.01562,-1.23438 z"
       inkscape:label="main"
       sodipodi:nodetypes="sssssssssssssssssssssssscccsccssssssssssssssssssssssss" />
    <path
       style="fill:#ce9e9a;fill-opacity:1"
       d="m 138.5,172.00623 c -12.80502,-1.90604 -24.89649,-6.46227 -28.89627,-10.88851 -1.86505,-2.06391 -1.85125,-2.34151 0.83812,-16.85809 6.42862,-34.70023 10.46121,-71.553784 8.55308,-78.166003 C 117.82294,62.032328 117.22735,65.12678 116.51082,79 c -0.77266,14.960033 -4.00374,34.92149 -5.97103,36.88878 -2.84995,2.84995 -21.541728,-2.98888 -21.538241,-6.72799 0.002,-2.1895 14.982381,-40.205005 18.906061,-47.977767 3.83618,-7.599428 12.43025,-16.557316 18.56767,-19.353714 1.97706,-0.900807 3.24532,-0.511514 8.18222,2.511514 3.21337,1.967659 7.93584,4.127448 10.49438,4.79953 4.58107,1.20337 4.79263,1.150023 13.89972,-3.504822 10.40158,-5.316489 11.28139,-5.304445 18.96231,0.259582 7.64941,5.541208 10.17424,9.935819 22.91664,39.887679 4.51191,10.605536 8.06081,20.055538 7.88646,20.999998 -0.35239,1.90885 -9.42833,6.71287 -14.74122,7.80273 -2.80526,0.57546 -3.73804,0.31485 -5.16046,-1.44175 -2.09934,-2.59258 -5.00141,-14.820456 -8.06556,-33.984217 -1.71552,-10.729178 -2.48643,-13.673919 -3.12814,-11.948827 -1.37122,3.686256 0.68985,17.522392 10.76845,72.289274 4.02315,21.8617 4.02769,21.93972 1.41819,24.37083 -7.30848,6.80889 -33.00293,10.87506 -51.40827,8.1354 z m -1.57212,-67.24454 c 0.40327,-0.87323 2.47769,-0.95444 12.1544,-0.83963 4.91204,0.0583 9.14158,0.33627 11.00928,0.8732 1.54419,0.44392 1.25219,1.56777 1.66703,2.11715 0.37132,0.49175 1.37984,0.67378 2.38075,0.71361 0.94062,0.0374 1.86062,-0.026 2.66066,-0.82602 0.76998,-0.76998 0.88087,-2.96436 0.87242,-5.20627 -0.005,-1.45786 0.12182,-2.966363 -0.27941,-4.011943 -0.43074,-1.122496 -1.90515,-1.339374 -3.34619,-1.303666 -1.51014,0.03742 -2.98622,0.382125 -3.30253,1.591711 -0.13066,0.499629 -0.0802,1.41643 -0.53294,1.728356 -0.90222,0.621552 -2.71275,0.817732 -6.12198,0.882362 -3.6268,0.0688 -8.42912,-0.18368 -11.08937,-0.27861 -2.34417,-0.0837 -3.76166,-0.1556 -4.40406,-0.835588 -0.37895,-0.401123 -0.32366,-1.472874 -0.42304,-2.17396 -0.27454,-1.936858 -0.83687,-2.258186 -3.5,-2 -3.09037,0.299606 -3.1809,0.448214 -3.48055,5.712958 -0.20758,3.64725 0.0381,5.64856 0.83159,6.32825 0.69413,0.59457 4.26617,0.80223 4.52661,-0.33481 0.096,-0.41904 0.1345,-1.61128 0.37733,-2.1371 z M 138,87.5 c -0.0448,-1.514052 3.67694,-1.5 12.15383,-1.5 8.77434,0 11.02157,0.293511 11.48454,1.5 0.32811,0.85503 1.81954,1.5 3.46862,1.5 C 167.89586,89 168,88.827219 168,84.2 c 0,-2.64 -0.54,-5.34 -1.2,-6 -0.7849,-0.784898 -1.80948,-0.710943 -2.70952,-0.70945 -1.17263,0.0019 -2.17301,0.194112 -2.55621,1.401479 -0.76032,2.395545 0.34434,3.227357 -11.71917,3.094316 C 139.8821,81.8768 138.02646,82.374792 138,78.524751 137.99338,77.561054 137.07102,77 135.47525,77 c -1.27018,0 -2.66274,0.130166 -3.37131,1.280944 -0.78038,1.267393 -0.81284,3.662844 -0.81284,5.96507 0,1.19047 -0.003,2.357921 0.0825,3.30302 0.0908,0.999769 6.69917,2.410491 6.62637,-0.04903 z m -0.36163,-17 c 0.10847,-0.282674 0.24828,-1.004847 0.61187,-1.195305 C 139.43665,68.683231 142.36754,69 149,69 c 6.66196,0 9.87815,-0.256076 11.05488,0.372202 0.35382,0.188901 0.51796,1.017639 0.62486,1.296211 0.32914,0.857715 1.74061,0.943405 3.00092,0.98663 1.17834,0.04041 2.34847,0.111873 2.44434,-0.655043 0.0687,-0.55 0.125,-2.125 0.125,-3.5 0,-7.215976 -0.12053,-7.5 -3.18261,-7.5 -2.02737,0 -3.1233,0.600777 -3.55034,1.946275 -0.1893,0.596428 -0.006,1.375684 -0.80814,1.802954 -2.49507,1.328546 -6.91859,0.851226 -14.26973,0.786439 -2.61809,-0.02307 -4.46809,-0.194528 -5.4059,-0.761303 -0.69728,-0.421404 -0.71182,-1.428864 -1.01576,-2.228291 -0.66803,-1.757047 -1.44984,-2.186086 -3.32898,-1.826867 -2.10454,0.402308 -2.84433,1.164947 -3.12747,5.531973 -0.24443,3.769953 -0.2745,5.137741 0.67338,5.738925 0.83787,0.53142 1.73969,0.791013 2.55834,0.803929 1.2074,0.01905 2.47204,-0.320602 2.84558,-1.294034 z"
       id="path11859"
       inkscape:label="accent" />
  </g>
</svg>
