<?xml version="1.0" encoding="UTF-8" standalone="no"?>
<!-- Created with Inkscape (http://www.inkscape.org/) -->

<svg
   version="1.1"
   id="svg185"
   width="300"
   height="300"
   viewBox="0 0 300 300"
   sodipodi:docname="postmanshoes.svg"
   inkscape:export-filename="postmanshoes.png"
   inkscape:export-xdpi="96"
   inkscape:export-ydpi="96"
   inkscape:version="1.2.2 (732a01da63, 2022-12-09)"
   xmlns:inkscape="http://www.inkscape.org/namespaces/inkscape"
   xmlns:sodipodi="http://sodipodi.sourceforge.net/DTD/sodipodi-0.dtd"
   xmlns="http://www.w3.org/2000/svg"
   xmlns:svg="http://www.w3.org/2000/svg">
  <defs
     id="defs189">
    <filter
       inkscape:collect="always"
       style="color-interpolation-filters:sRGB"
       id="filter3077"
       x="-0.096410434"
       y="-0.047527959"
       width="1.192873"
       height="1.095066">
      <feGaussianBlur
         inkscape:collect="always"
         stdDeviation="1.9494"
         id="feGaussianBlur3079" />
    </filter>
  </defs>
  <sodipodi:namedview
     id="namedview187"
     pagecolor="#ffffff"
     bordercolor="#000000"
     borderopacity="0.25"
     inkscape:showpageshadow="2"
     inkscape:pageopacity="0.0"
     inkscape:pagecheckerboard="0"
     inkscape:deskcolor="#d1d1d1"
     showgrid="false"
     inkscape:zoom="2.3617366"
     inkscape:cx="51.868611"
     inkscape:cy="181.64599"
     inkscape:window-width="2560"
     inkscape:window-height="1369"
     inkscape:window-x="1912"
     inkscape:window-y="-8"
     inkscape:window-maximized="1"
     inkscape:current-layer="g191" />
  <g
     inkscape:groupmode="layer"
     inkscape:label="Image"
     id="g191">
    <path
       style="fill:none;fill-opacity:1;stroke:#753f4b;stroke-width:12.3;stroke-dasharray:none;filter:url(#filter3077)"
       d="m 132.11007,253.60449 c -5.87324,-3.25529 -6.80861,-12.11027 -2.13922,-20.2516 4.0417,-7.04692 7.56451,-9.68998 11.96378,-8.97607 1.88939,0.3066 8.07911,2.83697 13.75492,5.62304 8.94559,4.3911 10.61863,4.90893 12.56505,3.8891 6.11344,-3.20316 19.25881,-14.75026 27.67944,-24.31404 10.33715,-11.7405 12.40457,-13.36871 14.62988,-11.52187 2.29019,1.90068 1.68119,7.16942 -1.38718,12.00117 -8.11033,12.77132 -35.77208,35.5434 -51.14464,42.10396 -5.44365,2.32319 -7.94846,2.78631 -15.0321,2.77933 -5.17077,-0.005 -9.43607,-0.52721 -10.88993,-1.33302 z m 14.1642,-68.41604 c -3.66194,-0.35368 -7.52427,-4.8109 -7.52427,-8.6832 0,-1.2842 1.88267,-6.72411 4.18372,-12.08868 3.26228,-7.60556 5.97063,-13.90155 5.85985,-14.63113 -0.12132,-0.79905 -5.10749,-4.88319 -11.11175,-10.93859 -11.14917,-11.24414 -14.5016,-15.77857 -17.74028,-23.99515 -1.23242,-2.98214 -2.51221,-4.39097 -0.74735,-7.05786 l 1.05951,-2.04306 c 2.53998,-4.48505 5.26261,-9.119846 7.36442,-12.744754 2.53996,-4.371414 4.37903,-8.571071 4.08681,-9.332571 -0.29221,-0.761499 -2.93286,-2.747173 -5.86811,-4.412607 -2.93525,-1.665435 -8.94675,-5.718571 -13.35889,-9.00697 C 104.37141,64.212035 100.40445,58.739867 99.755039,53 l -0.138713,-1.226022 c -0.127214,-0.720216 0.17262,-1.316318 1.021044,-1.344981 l 10.68203,-0.710148 c 10.13217,-0.673593 13.27248,-1.327119 22,-4.606341 10.16283,-3.818511 21.0824,-9.839499 27.65844,-15.250707 4.2907,-3.530672 5.7933,-3.593937 7.04691,-0.296701 1.83591,4.828795 1.02725,7.720669 -4.46837,15.979622 -2.99399,4.499441 -7.90351,12.405059 -10.91005,17.56804 -3.00655,5.162981 -6.4244,10.907262 -7.59522,12.765069 -1.17083,1.857807 -1.99881,3.442308 -1.83995,3.521115 0.15886,0.07881 2.08884,1.090643 4.28884,2.248526 2.2,1.157882 6.475,2.895423 9.5,3.861202 3.025,0.965779 5.95,2.08652 6.5,2.490536 0.55,0.404016 4.15,1.754371 8,3.00079 8.16692,2.644002 9.5,3.524667 9.5,6.275953 0,2.149279 -1.21973,4.905477 -12.04777,27.224047 -7.5675,15.59798 -10.33679,21.88128 -10.18614,23.20387 0.12331,1.0825 11.9422,9.52773 18.51198,12.96341 l 5.36027,2.80317 4.78859,-3.42018 c 2.42895,-1.73484 4.64054,-3.60142 5.08107,-4.06321 2.69026,-2.82009 5.492,1.83601 5.492,7.61239 0,4.82559 -15.59575,14.90381 -28.60747,18.48661 -7.96038,2.1919 -18.24934,3.57264 -23.11826,3.10239 z m 8.20508,-12.55708 c 6.88359,-0.80903 17.58098,-4.36836 17.29353,-5.58936 -0.37586,-1.59653 -15.0403,-12.07028 -16.16099,-11.7242 -1.08563,0.33526 -6.81254,12.35692 -8.10933,15.68219 -0.48756,1.25022 -0.12308,1.71716 0.84701,1.74851 0.75075,0.0243 3.61749,0.11581 6.12978,-0.11714 z M 159.26992,127.75 c 3.6045,-7.8375 7.92077,-17.4 9.59172,-21.25 l 3.0381,-7 -3.69987,-1.720654 C 162.07396,94.93044 140.92902,87 139.45889,87 c -1.46608,0 -7.33709,9.510031 -12.20634,19.7722 l -2.392,5.04125 c -0.3861,0.94704 -0.61208,1.18677 -0.0401,2.08864 l 2.31804,3.65517 c 3.57599,5.63876 22.72164,24.96669 24.7073,24.96669 0.91711,0 3.33362,-5.87959 7.42417,-14.77395 z M 142.1936,66.135266 c 2.70064,-5.150604 6.4122,-11.567892 6.14377,-11.836321 -0.26843,-0.26843 -5.05086,2.422937 -8.52349,3.556496 -3.47263,1.133559 -10.75089,2.836776 -16.1739,3.784927 l -9.84962,0.911747 c -0.56967,0.07777 -0.86462,0.123063 -0.26102,0.575857 l 2.93629,2.304168 c 4.26965,3.350481 17.90417,10.50907 19.42603,10.278607 0.76542,-0.115911 3.60129,-4.424877 6.30194,-9.575481 z"
       id="path1338"
       sodipodi:nodetypes="ssssssssscssssssccccssssccsssssssssssssssscssssscsssscsscsssccsssssssccssss" />
    <path
       style="fill:#f6f6e1;fill-opacity:1"
       d="m 132.11007,253.60449 c -5.87324,-3.25529 -6.80861,-12.11027 -2.13922,-20.2516 4.0417,-7.04692 7.56451,-9.68998 11.96378,-8.97607 1.88939,0.3066 8.07911,2.83697 13.75492,5.62304 8.94559,4.3911 10.61863,4.90893 12.56505,3.8891 6.11344,-3.20316 19.25881,-14.75026 27.67944,-24.31404 10.33715,-11.7405 12.40457,-13.36871 14.62988,-11.52187 2.29019,1.90068 1.68119,7.16942 -1.38718,12.00117 -8.11033,12.77132 -35.77208,35.5434 -51.14464,42.10396 -5.44365,2.32319 -7.94846,2.78631 -15.0321,2.77933 -5.17077,-0.005 -9.43607,-0.52721 -10.88993,-1.33302 z m 14.1642,-68.41604 c -3.66194,-0.35368 -7.52427,-4.8109 -7.52427,-8.6832 0,-1.2842 1.88267,-6.72411 4.18372,-12.08868 3.26228,-7.60556 5.97063,-13.90155 5.85985,-14.63113 -0.12132,-0.79905 -5.10749,-4.88319 -11.11175,-10.93859 -11.14917,-11.24414 -14.5016,-15.77857 -17.74028,-23.99515 -1.23242,-2.98214 -2.51221,-4.39097 -0.74735,-7.05786 l 1.05951,-2.04306 c 2.53998,-4.48505 5.26261,-9.119846 7.36442,-12.744754 2.53996,-4.371414 4.37903,-8.571071 4.08681,-9.332571 -0.29221,-0.761499 -2.93286,-2.747173 -5.86811,-4.412607 -2.93525,-1.665435 -8.94675,-5.718571 -13.35889,-9.00697 C 104.37141,64.212035 100.40445,58.739867 99.755039,53 l -0.138713,-1.226022 c -0.127214,-0.720216 0.17262,-1.316318 1.021044,-1.344981 l 10.68203,-0.710148 c 10.13217,-0.673593 13.27248,-1.327119 22,-4.606341 10.16283,-3.818511 21.0824,-9.839499 27.65844,-15.250707 4.2907,-3.530672 5.7933,-3.593937 7.04691,-0.296701 1.83591,4.828795 1.02725,7.720669 -4.46837,15.979622 -2.99399,4.499441 -7.90351,12.405059 -10.91005,17.56804 -3.00655,5.162981 -6.4244,10.907262 -7.59522,12.765069 -1.17083,1.857807 -1.99881,3.442308 -1.83995,3.521115 0.15886,0.07881 2.08884,1.090643 4.28884,2.248526 2.2,1.157882 6.475,2.895423 9.5,3.861202 3.025,0.965779 5.95,2.08652 6.5,2.490536 0.55,0.404016 4.15,1.754371 8,3.00079 8.16692,2.644002 9.5,3.524667 9.5,6.275953 0,2.149279 -1.21973,4.905477 -12.04777,27.224047 -7.5675,15.59798 -10.33679,21.88128 -10.18614,23.20387 0.12331,1.0825 11.9422,9.52773 18.51198,12.96341 l 5.36027,2.80317 4.78859,-3.42018 c 2.42895,-1.73484 4.64054,-3.60142 5.08107,-4.06321 2.69026,-2.82009 5.492,1.83601 5.492,7.61239 0,4.82559 -15.59575,14.90381 -28.60747,18.48661 -7.96038,2.1919 -18.24934,3.57264 -23.11826,3.10239 z m 8.20508,-12.55708 c 6.88359,-0.80903 17.58098,-4.36836 17.29353,-5.58936 -0.37586,-1.59653 -15.0403,-12.07028 -16.16099,-11.7242 -1.08563,0.33526 -6.81254,12.35692 -8.10933,15.68219 -0.48756,1.25022 -0.12308,1.71716 0.84701,1.74851 0.75075,0.0243 3.61749,0.11581 6.12978,-0.11714 z M 159.26992,127.75 c 3.6045,-7.8375 7.92077,-17.4 9.59172,-21.25 l 3.0381,-7 -3.69987,-1.720654 C 162.07396,94.93044 140.92902,87 139.45889,87 c -1.46608,0 -7.33709,9.510031 -12.20634,19.7722 l -2.392,5.04125 c -0.3861,0.94704 -0.61208,1.18677 -0.0401,2.08864 l 2.31804,3.65517 c 3.57599,5.63876 22.72164,24.96669 24.7073,24.96669 0.91711,0 3.33362,-5.87959 7.42417,-14.77395 z M 142.1936,66.135266 c 2.70064,-5.150604 6.4122,-11.567892 6.14377,-11.836321 -0.26843,-0.26843 -5.05086,2.422937 -8.52349,3.556496 -3.47263,1.133559 -10.75089,2.836776 -16.1739,3.784927 l -9.84962,0.911747 c -0.56967,0.07777 -0.86462,0.123063 -0.26102,0.575857 l 2.93629,2.304168 c 4.26965,3.350481 17.90417,10.50907 19.42603,10.278607 0.76542,-0.115911 3.60129,-4.424877 6.30194,-9.575481 z"
       id="path1436"
       sodipodi:nodetypes="ssssssssscssssssccccssssccsssssssssssssssscssssscsssscsscsssccsssssssccssss" />
  </g>
</svg>
