<?xml version="1.0" encoding="UTF-8" standalone="no"?>
<!-- Created with Inkscape (http://www.inkscape.org/) -->

<svg
   version="1.1"
   id="svg2"
   width="300"
   height="300"
   viewBox="0 0 300 300"
   sodipodi:docname="moth.svg"
   inkscape:export-filename="moth2.png"
   inkscape:export-xdpi="96"
   inkscape:export-ydpi="96"
   inkscape:version="1.2.2 (732a01da63, 2022-12-09)"
   xmlns:inkscape="http://www.inkscape.org/namespaces/inkscape"
   xmlns:sodipodi="http://sodipodi.sourceforge.net/DTD/sodipodi-0.dtd"
   xmlns="http://www.w3.org/2000/svg"
   xmlns:svg="http://www.w3.org/2000/svg">
  <sodipodi:namedview
     id="namedview188"
     pagecolor="#ffffff"
     bordercolor="#000000"
     borderopacity="0.25"
     inkscape:showpageshadow="2"
     inkscape:pageopacity="0.0"
     inkscape:pagecheckerboard="0"
     inkscape:deskcolor="#d1d1d1"
     showgrid="false"
     showguides="false"
     inkscape:zoom="2.7482884"
     inkscape:cx="117.70963"
     inkscape:cy="130.2629"
     inkscape:window-width="2560"
     inkscape:window-height="1369"
     inkscape:window-x="1912"
     inkscape:window-y="-8"
     inkscape:window-maximized="1"
     inkscape:current-layer="g8" />
  <defs
     id="defs6">
    <filter
       inkscape:collect="always"
       style="color-interpolation-filters:sRGB"
       id="filter1341"
       x="-0.030707149"
       y="-0.047046224"
       width="1.0614475"
       height="1.0943189">
      <feGaussianBlur
         inkscape:collect="always"
         stdDeviation="0.99349017"
         id="feGaussianBlur1343" />
    </filter>
  </defs>
  <g
     id="g8"
     transform="translate(-0.91533485,-6.1043647)">
    <path
       style="fill:none;fill-opacity:1;stroke:#955a4a;stroke-width:10;stroke-dasharray:none;stroke-opacity:1;filter:url(#filter1341)"
       d="m 110.61149,233.11743 c -8.24182,-2.14926 -12.11976,-4.82835 -12.407489,-8.57175 -0.194109,-2.52541 0.01644,-2.70269 2.486219,-2.09335 1.48406,0.36615 6.52329,0.87934 11.19829,1.14043 8.1471,0.45499 8.74835,0.33837 14.48169,-2.80903 4.22238,-2.31793 6.64705,-4.46019 8.24393,-7.28373 5.25738,-9.29587 8.67628,-21.88942 9.88842,-36.42402 0.86366,-10.35603 -0.97511,-10.94186 -2.59254,-0.82598 -0.63757,3.9875 -1.77996,9.5 -2.53866,12.25 -0.7587,2.75 -1.64505,6.52448 -1.96967,8.38773 -0.68542,3.93411 -1.55283,5.72028 -6.22858,12.82588 -5.17989,7.87172 -8.54441,9.53156 -19.08452,9.41511 -9.00593,-0.0995 -16.280815,-1.78213 -27.91914,-6.45752 -21.840551,-8.77384 -43.298331,-28.65426 -51.113976,-47.35658 -3.549034,-8.4926 -3.136562,-10.24237 5.050678,-21.42562 1.255302,-1.71466 7.232366,-7.22504 13.282366,-12.24528 16.292617,-13.51948 32.947896,-23.18319 48.301622,-28.02552 10.42129,-3.28671 12.5235,-3.29715 14.63626,-0.0727 0.91735,1.40005 2.8816,3.06706 4.36501,3.70448 1.48341,0.63742 4.1078,2.64192 5.83198,4.45446 2.0775,2.18397 4.07173,3.29553 5.91245,3.29553 1.52767,0 5.05669,1.4625 7.84227,3.25 4.56574,2.92983 5.80579,3.25 12.58755,3.25 6.16045,0 8.42837,-0.47199 12.52286,-2.60619 5.6653,-2.95298 14.6808,-7.16965 18.69631,-8.74452 1.48298,-0.58162 4.53616,-2.71968 6.78485,-4.75124 4.02342,-3.63491 4.15567,-3.67427 8.30369,-2.47137 11.22935,3.25644 30.63016,12.26493 40.56314,18.83491 3.10861,2.05612 9.1808,6.77591 13.49376,10.48841 4.31297,3.7125 8.24482,6.75 8.73746,6.75 0.49264,0 2.13885,1.85229 3.65825,4.11621 8.57393,12.7752 9.0139,15.44654 4.14428,25.16231 -9.13343,18.22284 -28.35384,36.49356 -46.08013,43.80329 -12.07262,4.97835 -20.64118,7.10241 -29.30838,7.26526 -7.3527,0.13815 -8.54317,-0.11436 -12.31886,-2.61299 -2.36337,-1.564 -6.12498,-5.69219 -8.65642,-9.5 -4.65737,-7.00567 -5.54686,-10.23014 -8.68517,-31.48408 -0.6294,-4.2625 -1.52425,-7.75 -1.98857,-7.75 -2.12927,0 -0.17157,20.90328 2.85649,30.5 6.08726,19.2921 14.94371,26.12507 32.73225,25.25372 7.71937,-0.37812 8.40544,-0.25838 8.27716,1.44455 -0.41101,5.45633 -9.85533,8.85555 -24.56921,8.843 -12.12582,-0.0103 -19.67452,-1.68543 -24.63065,-5.46565 C 153.54152,227.15903 151.74305,226 151.40218,226 c -0.34088,0 -2.2834,1.13687 -4.31672,2.52637 -9.03194,6.17213 -23.45109,7.9871 -36.47397,4.59106 z m 31.77702,-116.99816 c -2.2,-1.01024 -4.84414,-2.78588 -5.87587,-3.94586 -1.46955,-1.65223 -2.28628,-1.88941 -3.77066,-1.09499 -2.41177,1.29074 -3.35489,0.67163 -6.45294,-4.236 -2.04186,-3.23451 -2.78643,-3.76704 -3.93461,-2.81414 -1.13059,0.93831 -2.02615,0.56534 -4.44104,-1.84956 -4.06945,-4.06944 -4.00613,-8.09644 0.22512,-14.316972 3.97862,-5.849125 7.14754,-7.330117 13.95846,-6.523465 4.0246,0.476655 5.80878,0.203267 8.21626,-1.258971 1.6914,-1.027314 4.892,-2.163795 7.11243,-2.525514 4.688,-0.763699 13.19857,0.897054 15.56318,3.037001 1.31769,1.19249 2.51598,1.279555 6.21169,0.451328 7.65392,-1.715279 11.20248,0.132033 15.28655,7.957873 3.7474,7.18072 4.18263,10.43967 1.84073,13.78321 -2.0281,2.8955 -6.86817,5.37319 -8.94187,4.57743 -1.05978,-0.40668 -2.85214,0.557 -5.12793,2.75708 -3.19415,3.08789 -3.58638,3.22646 -4.50628,1.59207 -0.92739,-1.64769 -1.28933,-1.54284 -4.5465,1.31699 -1.9464,1.70896 -4.64321,3.52705 -5.99291,4.04021 -3.87684,1.47397 -10.46773,1.0526 -14.82381,-0.94772 z"
       id="path858" />
    <path
       style="fill:#d0947a;fill-opacity:1"
       d="m 110.61149,233.11743 c -8.24182,-2.14926 -12.11976,-4.82835 -12.407489,-8.57175 -0.194109,-2.52541 0.01644,-2.70269 2.486219,-2.09335 1.48406,0.36615 6.52329,0.87934 11.19829,1.14043 8.1471,0.45499 8.74835,0.33837 14.48169,-2.80903 4.22238,-2.31793 6.64705,-4.46019 8.24393,-7.28373 5.25738,-9.29587 8.67628,-21.88942 9.88842,-36.42402 0.86366,-10.35603 -0.97511,-10.94186 -2.59254,-0.82598 -0.63757,3.9875 -1.77996,9.5 -2.53866,12.25 -0.7587,2.75 -1.64505,6.52448 -1.96967,8.38773 -0.68542,3.93411 -1.55283,5.72028 -6.22858,12.82588 -5.17989,7.87172 -8.54441,9.53156 -19.08452,9.41511 -9.00593,-0.0995 -16.280815,-1.78213 -27.91914,-6.45752 -21.840551,-8.77384 -43.298331,-28.65426 -51.113976,-47.35658 -3.549034,-8.4926 -3.136562,-10.24237 5.050678,-21.42562 1.255302,-1.71466 7.232366,-7.22504 13.282366,-12.24528 16.292617,-13.51948 32.947896,-23.18319 48.301622,-28.02552 10.42129,-3.28671 12.5235,-3.29715 14.63626,-0.0727 0.91735,1.40005 2.8816,3.06706 4.36501,3.70448 1.48341,0.63742 4.1078,2.64192 5.83198,4.45446 2.0775,2.18397 4.07173,3.29553 5.91245,3.29553 1.52767,0 5.05669,1.4625 7.84227,3.25 4.56574,2.92983 5.80579,3.25 12.58755,3.25 6.16045,0 8.42837,-0.47199 12.52286,-2.60619 5.6653,-2.95298 14.6808,-7.16965 18.69631,-8.74452 1.48298,-0.58162 4.53616,-2.71968 6.78485,-4.75124 4.02342,-3.63491 4.15567,-3.67427 8.30369,-2.47137 11.22935,3.25644 30.63016,12.26493 40.56314,18.83491 3.10861,2.05612 9.1808,6.77591 13.49376,10.48841 4.31297,3.7125 8.24482,6.75 8.73746,6.75 0.49264,0 2.13885,1.85229 3.65825,4.11621 8.57393,12.7752 9.0139,15.44654 4.14428,25.16231 -9.13343,18.22284 -28.35384,36.49356 -46.08013,43.80329 -12.07262,4.97835 -20.64118,7.10241 -29.30838,7.26526 -7.3527,0.13815 -8.54317,-0.11436 -12.31886,-2.61299 -2.36337,-1.564 -6.12498,-5.69219 -8.65642,-9.5 -4.65737,-7.00567 -5.54686,-10.23014 -8.68517,-31.48408 -0.6294,-4.2625 -1.52425,-7.75 -1.98857,-7.75 -2.12927,0 -0.17157,20.90328 2.85649,30.5 6.08726,19.2921 14.94371,26.12507 32.73225,25.25372 7.71937,-0.37812 8.40544,-0.25838 8.27716,1.44455 -0.41101,5.45633 -9.85533,8.85555 -24.56921,8.843 -12.12582,-0.0103 -19.67452,-1.68543 -24.63065,-5.46565 C 153.54152,227.15903 151.74305,226 151.40218,226 c -0.34088,0 -2.2834,1.13687 -4.31672,2.52637 -9.03194,6.17213 -23.45109,7.9871 -36.47397,4.59106 z m 31.77702,-116.99816 c -2.2,-1.01024 -4.84414,-2.78588 -5.87587,-3.94586 -1.46955,-1.65223 -2.28628,-1.88941 -3.77066,-1.09499 -2.41177,1.29074 -3.35489,0.67163 -6.45294,-4.236 -2.04186,-3.23451 -2.78643,-3.76704 -3.93461,-2.81414 -1.13059,0.93831 -2.02615,0.56534 -4.44104,-1.84956 -4.06945,-4.06944 -4.00613,-8.09644 0.22512,-14.316972 3.97862,-5.849125 7.14754,-7.330117 13.95846,-6.523465 4.0246,0.476655 5.80878,0.203267 8.21626,-1.258971 1.6914,-1.027314 4.892,-2.163795 7.11243,-2.525514 4.688,-0.763699 13.19857,0.897054 15.56318,3.037001 1.31769,1.19249 2.51598,1.279555 6.21169,0.451328 7.65392,-1.715279 11.20248,0.132033 15.28655,7.957873 3.7474,7.18072 4.18263,10.43967 1.84073,13.78321 -2.0281,2.8955 -6.86817,5.37319 -8.94187,4.57743 -1.05978,-0.40668 -2.85214,0.557 -5.12793,2.75708 -3.19415,3.08789 -3.58638,3.22646 -4.50628,1.59207 -0.92739,-1.64769 -1.28933,-1.54284 -4.5465,1.31699 -1.9464,1.70896 -4.64321,3.52705 -5.99291,4.04021 -3.87684,1.47397 -10.46773,1.0526 -14.82381,-0.94772 z"
       id="path295" />
    <path
       style="fill:#ecbd91;fill-opacity:1"
       d="m 126.72892,221.35509 c 6.74305,-3.3728 9.4657,-7.42049 13.81592,-20.53971 6.4415,-19.426 6.93982,-43.9924 0.58958,-29.06538 -4.60251,10.81878 -13.84351,20.09386 -22.67741,22.76105 -9.52699,2.87645 -21.435354,1.12013 -33.32207,-4.91454 -14.133949,-7.17555 -22.60972,-15.32974 -27.681545,-26.63127 -2.475379,-5.51588 -2.864505,-7.63929 -2.916544,-15.91518 -0.06704,-10.66209 1.919204,-18.36073 5.634317,-21.83845 7.234607,-6.77234 34.742232,-20.42953 44.928442,-22.30641 6.64884,-1.2251 6.64884,-1.2251 9.26279,1.8814 1.43767,1.70858 3.60669,3.41489 4.82003,3.79181 1.21334,0.37692 3.69024,2.20097 5.50422,4.05345 1.86056,1.90006 4.30488,3.36814 5.60785,3.36814 1.27034,0 5.41117,1.61903 9.20186,3.59784 6.0183,3.14167 7.58949,3.54646 12.39215,3.19266 3.29538,-0.24277 7.63734,-1.4845 10.83216,-3.09784 2.93269,-1.48096 5.90739,-2.69266 6.61045,-2.69266 0.70307,0 2.86774,-1.07862 4.81039,-2.39694 1.94265,-1.31832 4.81795,-2.68248 6.38955,-3.03147 1.5716,-0.34898 4.88245,-2.43817 7.35745,-4.64263 4.01752,-3.57838 4.90838,-3.94799 8.30889,-3.44731 4.64342,0.68369 22.50681,8.18936 32.58374,13.69071 6.74784,3.68389 17.10737,10.55134 17.10737,11.34068 0,0.17898 0.69435,3.03574 1.543,6.34835 1.2758,4.97993 1.36241,7.78275 0.50015,16.18524 -1.15692,11.2739 -3.38416,16.89145 -9.68631,24.43085 -9.74041,11.65265 -33.496,21.90813 -46.3258,19.99923 -10.42804,-1.55156 -20.62675,-9.80123 -27.03104,-21.86524 -1.925,-3.6262 -3.95,-6.44055 -4.5,-6.25411 -1.77213,0.60072 -0.82599,18.52242 1.43295,27.14264 3.88674,14.832 9.25133,23.30323 17.03402,26.89844 4.53303,2.09403 4.53303,2.09403 1.11726,2.42352 -5.45108,0.52581 -18.70364,-1.60264 -23.90165,-3.83876 -4.77413,-2.05378 -4.77413,-2.05378 -10.72836,0.63714 -4.70387,2.12584 -7.84417,2.76599 -14.95422,3.04845 -9,0.35753 -9,0.35753 -3.65959,-2.3137 z M 97.008413,211.46782 C 82.689861,207.49324 67.557336,199.12968 57.013658,189.36321 45.420032,178.62419 38.961482,164.86387 38.914325,150.80152 c -0.02256,-6.72828 0.272189,-8.02003 2.338854,-10.25 1.300569,-1.40334 2.650569,-2.55152 3,-2.55152 0.349431,0 0.64633,2.8125 0.659775,6.25 0.03334,8.52481 1.391943,13.83942 5.943515,23.25 4.086236,8.44848 12.316965,17.69685 21.122091,23.73361 6.246421,4.28252 20.108751,10.60228 27.301194,12.44647 11.388416,2.92005 29.621276,0.18586 35.853866,-5.37664 1.97764,-1.76502 2.00499,-1.75018 1.28367,0.69656 -1.44169,4.89023 -3.78045,7.22329 -10.36168,10.33642 -5.62128,2.65905 -8.00044,3.19071 -15.1671,3.3893 -5.18905,0.14378 -10.59567,-0.3462 -13.880097,-1.2579 z m 88.880097,0.67366 c -5.76377,-1.24303 -14.72622,-5.79202 -16.34756,-8.29737 -0.83435,-1.28926 -1.83593,-3.69411 -2.22574,-5.34411 -0.70875,-3 -0.70875,-3 1.68228,-0.91476 3.6246,3.16107 8.62543,5.07898 16.72573,6.41463 8.27353,1.36421 15.78921,0.72995 23.49787,-1.98303 23.0738,-8.12057 36.48035,-19.10195 45.00364,-36.86274 3.48507,-7.26216 4.08038,-9.53246 4.58447,-17.48349 0.57931,-9.13758 0.57931,-9.13758 2.92958,-6.1541 2.17277,2.75817 2.32147,3.71155 1.96905,12.62387 -0.35208,8.90376 -0.68448,10.2301 -4.35026,17.35848 -7.30408,14.20329 -14.73205,21.71768 -30.2373,30.58911 -14.99168,8.57758 -31.87268,12.50324 -43.23176,10.05351 z"
       id="path298" />
    <path
       style="fill:#ffeeae;fill-opacity:1"
       d="m 126.88851,221.58786 c 1.375,-0.73264 4.525,-1.63093 7,-1.99621 2.475,-0.36528 7.40517,-2.22339 10.95593,-4.12915 6.45593,-3.46502 6.45593,-3.46502 14.75656,0.10018 4.56535,1.96085 9.98519,3.83478 12.04408,4.16427 2.05888,0.3295 5.09343,1.22191 6.74343,1.98315 2.77213,1.27894 2.37508,1.34982 -5.22724,0.93311 -5.68861,-0.31182 -10.43907,-1.29615 -15.39534,-3.19005 -7.1681,-2.73908 -7.1681,-2.73908 -13.54169,0.40388 -5.28165,2.60449 -7.52679,3.1361 -13.10466,3.10292 -6.20147,-0.0369 -6.53437,-0.14484 -4.23107,-1.3721 z m -29.765253,-11.0444 c -3.445889,-0.78324 -9.970889,-3.18043 -14.5,-5.32709 -28.19899,-13.36544 -42.734749,-32.1298 -42.734749,-55.16672 0,-6.2687 0.352641,-8.05881 1.85545,-9.41883 1.789009,-1.61903 1.874618,-1.39952 2.390713,6.13015 1.19032,17.36641 8.969455,31.0786 24.253837,42.75195 13.069208,9.98153 30.170576,16.70618 42.500002,16.71196 7.52721,0.004 17.77288,-2.61874 22.75,-5.82261 3.32324,-2.13924 2.83938,0.24475 -0.72557,3.57491 -7.5396,7.04304 -22.01107,9.6981 -35.789683,6.56628 z m 90.265253,0.44309 c -3.3,-0.40689 -6.9,-1.09608 -8,-1.53153 -4.66361,-1.84616 -10.35178,-6.59108 -11.35653,-9.4733 -1.06985,-3.06897 -1.06985,-3.06897 1.47634,-1.06614 4.36232,3.43141 13.47135,6.26671 21.88019,6.81049 7.16625,0.46343 8.99008,0.18004 17.5,-2.71912 19.06125,-6.49378 32.77625,-16.03958 41.22032,-28.68981 6.08187,-9.11136 8.96914,-17.10216 9.68971,-26.81714 0.55161,-7.43705 0.6903,-7.8293 1.97093,-5.57421 0.75766,1.33418 1.59737,5.16409 1.86602,8.5109 0.90212,11.23848 -6.30263,27.12843 -17.25849,38.06331 -9.97917,9.96006 -29.67272,20.35103 -42.52125,22.43562 -7.03723,1.14175 -7.60612,1.14351 -16.46724,0.0509 z M 83.471928,180.78675 c -1.912929,-1.07053 -14.58342,-26.36804 -14.58342,-29.11681 0,-1.8503 2.626278,-2.67461 20.203806,-6.3414 14.741306,-3.07514 14.675196,-3.09536 18.551336,5.67146 1.33746,3.025 3.23199,7.3 4.21007,9.5 0.97807,2.2 2.73414,6.59935 3.90237,9.77634 2.12406,5.77634 2.12406,5.77634 -0.12176,6.61059 -7.49827,2.78538 -29.406889,5.44188 -32.162402,3.89982 z M 101.88851,175.5 c 4.675,-0.8235 8.6125,-1.49788 8.75,-1.49863 1.97632,-0.0108 -5.28744,-20.03413 -8.75,-24.12028 -2.500002,-2.95024 -2.500002,-2.95024 -13.135123,-1.01233 -5.849316,1.06585 -11.57624,2.44158 -12.726497,3.05718 -2.091377,1.11927 -2.091377,1.11927 -0.12158,6.11669 2.701399,6.8535 6.894865,15.09813 8.752186,17.20737 1.905955,2.16447 6.023398,2.22421 17.231014,0.25 z M 83.898199,164.90174 c -2.317247,-4.45404 -3.829892,-8.45599 -3.361434,-8.89321 1.16,-1.08267 10.669448,-3.00853 14.855408,-3.00853 3.258031,0 3.560835,0.32792 7.005297,7.58644 1.98004,4.17254 3.43476,8.08239 3.23271,8.68856 -0.41756,1.25268 -9.657275,3.61887 -14.380238,3.68263 -2.925211,0.0395 -3.424973,-0.50814 -7.351743,-8.05589 z m 122.490311,15.63071 c -9.07466,-1.30749 -18.16227,-3.20569 -19.59941,-4.09389 -1.79737,-1.11083 11.71367,-31.96957 14.45859,-33.02289 1.75878,-0.67491 26.72556,4.2009 31.37032,6.12637 3.2295,1.33878 3.2295,1.33878 -1.61238,12.29187 -6.21678,14.06334 -9.89689,19.61399 -13.14786,19.83068 -1.35809,0.0905 -6.51926,-0.41894 -11.46926,-1.13214 z M 219.12123,175.25 c 1.877,-2.12922 7.4954,-13.22797 9.33345,-18.43753 1.19863,-3.39731 1.15858,-3.88941 -0.38375,-4.71484 -2.08998,-1.11853 -15.16656,-3.823 -20.65745,-4.27234 -3.83639,-0.31395 -4.08375,-0.1442 -7.09253,4.86696 -4.15653,6.92275 -8.02225,19.11794 -6.5324,20.60779 1.32048,1.32048 12.7685,3.46998 19.19497,3.60408 3.21199,0.067 5.05934,-0.43084 6.13771,-1.65412 z m -15.40575,-3.61879 c -2.57017,-0.62217 -4.94398,-1.40502 -5.27513,-1.73967 -0.60983,-0.61628 2.08908,-7.69383 5.20199,-13.64154 1.94095,-3.7085 3.53595,-3.95465 13.91426,-2.14735 4.50918,0.78525 6.33191,1.53942 6.33191,2.6199 0,0.83449 -1.88953,4.83829 -4.19896,8.89735 -4.02513,7.07457 -4.34598,7.37518 -7.75,7.26131 -1.95307,-0.0653 -5.6539,-0.62784 -8.22407,-1.25 z"
       id="path856" />
  </g>
</svg>
