<?xml version="1.0" encoding="UTF-8" standalone="no"?>
<!-- Created with Inkscape (http://www.inkscape.org/) -->

<svg
   version="1.1"
   id="svg2"
   width="300"
   height="300"
   viewBox="0 0 300 300"
   sodipodi:docname="cape_journey_t.svg"
   xml:space="preserve"
   inkscape:version="1.2.2 (732a01da63, 2022-12-09)"
   xmlns:inkscape="http://www.inkscape.org/namespaces/inkscape"
   xmlns:sodipodi="http://sodipodi.sourceforge.net/DTD/sodipodi-0.dtd"
   xmlns="http://www.w3.org/2000/svg"
   xmlns:svg="http://www.w3.org/2000/svg"><defs
     id="defs6"><filter
       inkscape:collect="always"
       style="color-interpolation-filters:sRGB"
       id="filter3159"
       x="-0.040010317"
       y="-0.046046791"
       width="1.0797904"
       height="1.0918502"><feGaussianBlur
         inkscape:collect="always"
         stdDeviation="1.9494"
         id="feGaussianBlur3161" /></filter></defs><sodipodi:namedview
     id="namedview4"
     pagecolor="#ffffff"
     bordercolor="#000000"
     borderopacity="0.25"
     inkscape:showpageshadow="2"
     inkscape:pageopacity="0.0"
     inkscape:pagecheckerboard="0"
     inkscape:deskcolor="#d1d1d1"
     showgrid="false"
     inkscape:zoom="1.7116667"
     inkscape:cx="167.67283"
     inkscape:cy="59.298929"
     inkscape:window-width="1564"
     inkscape:window-height="1243"
     inkscape:window-x="4244"
     inkscape:window-y="114"
     inkscape:window-maximized="0"
     inkscape:current-layer="g8" /><g
     inkscape:groupmode="layer"
     inkscape:label="Image"
     id="g8"><path
       id="path857"
       style="fill:#fae8c0;fill-opacity:0;stroke:#753f4b;stroke-width:12.3;stroke-dasharray:none;filter:url(#filter3159)"
       d="M 177.15039 42.615234 C 176.17314 42.516127 175.03772 42.650014 173.5 42.994141 C 166.12756 44.64402 147.57472 45.704989 140 44.910156 C 128.12422 43.664003 119.73705 43.883933 117.60742 45.496094 C 116.00155 46.711763 115.81225 47.745271 116.35156 52.333984 C 116.90041 57.003757 116.66113 58.221126 114.59375 61.267578 C 109.35615 68.985622 109.97559 72.166431 117.18359 74.560547 C 119.9833 75.490461 124.57468 76.618897 127.38672 77.068359 C 135.63566 78.386832 167.47956 77.40352 176 75.566406 C 186.81274 73.235046 186.89188 73.194052 188.50391 69.335938 C 190.21159 65.248855 189.63413 63.650961 184.30273 57.689453 C 181.19152 54.210521 180.9532 53.499266 181.54883 49.527344 C 182.12482 45.686334 181.92455 44.997547 179.84961 43.638672 C 178.94611 43.046969 178.12764 42.714342 177.15039 42.615234 z M 184.26172 79.126953 C 178.97745 78.754182 175.42082 82.175011 169.09961 89.820312 C 165.82242 93.730193 162.40333 97.905211 158.69922 103.21875 C 155.19007 107.77319 151.72665 112.61487 151.00195 113.97852 C 150.27725 115.34216 149.19244 116.96143 148.5918 117.57617 C 147.99117 118.1909 145.475 121.94265 143 125.91211 C 140.525 129.88158 137.43623 134.76995 136.13672 136.77539 C 132.08673 143.02546 119.07718 168.71276 116.38672 175.77148 C 114.97621 179.4721 112.26505 186.55 110.36133 191.5 C 106.1795 202.37344 102 215.6891 102 218.14062 C 102 219.12435 102.7875 220.34853 103.75 220.86133 C 105.51248 221.80035 125.92191 226.52947 131.5 227.29102 C 133.15 227.51629 141.48455 227.7672 150.02148 227.84961 C 164.25771 227.98703 166.53521 227.74919 177.52148 224.98047 C 200.67586 219.14518 227.14502 206.70703 232.86328 198.97266 C 236.42659 194.15303 240.7297 179.34714 241.85938 168.02148 C 242.66758 159.91862 243.31084 157.24035 244.70117 156.20898 C 248.15061 153.65016 252.11321 155.53705 259.09375 163.06055 L 265.6875 170.16602 L 270.72656 163.33398 C 276.5999 155.36953 284.38804 143.29352 285.32812 140.69336 C 286.18907 138.31207 283.14387 135.55373 270.52734 127.28711 C 254.99511 117.11004 236.17724 105.98527 201.84375 86.679688 C 193.52696 82.003189 188.3717 79.416886 184.26172 79.126953 z M 111.63867 81.216797 C 109.41908 81.537011 104.12513 84.414504 95 89.958984 C 91.425004 92.131172 87.149998 94.669329 85.5 95.597656 C 82.864009 97.080725 77.911488 100.19434 65 108.48633 C 63.075002 109.7226 56.099993 114.01358 49.5 118.02344 C 17.390225 137.53191 15.555304 138.87275 15.201172 143.07422 C 14.960535 145.92917 15.822094 147.98161 19.605469 153.5625 C 24.949345 161.44532 33.822867 172.19195 38.310547 176.21484 L 41.339844 178.92969 L 43.669922 175.76953 C 44.951645 174.03225 46 172.12067 46 171.52148 C 46 170.92228 47.5373 167.97324 49.416016 164.9668 C 51.294732 161.96035 54.101908 157.475 55.654297 155 C 62.312747 144.38433 80.629425 121.22336 92 109.04102 C 98.386913 102.19813 107.20626 91.704092 109.83398 87.820312 C 113.00405 83.134953 113.85826 80.896583 111.63867 81.216797 z M 123.95312 82.482422 C 122.92662 82.158607 119.06002 85.723989 112.45312 93.085938 C 97.983571 109.20912 86.569543 122.67489 81.734375 129.32812 C 79.404938 132.53345 75.755814 137.39275 73.625 140.12695 C 71.494185 142.86117 67.66918 148.14735 65.125 151.87305 C 62.580819 155.59874 58.648095 161.31251 56.384766 164.57227 C 48.018119 176.6223 40.49798 194.61381 38.050781 208.43359 C 36.549288 216.91281 36.751908 234.62825 38.412109 240 C 40.738019 247.52573 43.886799 254.07818 47.623047 259.16797 C 50.392514 262.94074 52.761012 264.75096 58.339844 267.36523 C 65.743946 270.83484 82.015876 275.37211 92.5 276.88867 C 101.15994 278.14132 104.24954 278.1388 110.20117 276.875 C 117.29131 275.36944 125.87017 270.9387 134.90234 264.11914 C 138.99621 261.02814 143.95421 257.28851 145.92188 255.80859 C 156.95106 247.51337 172.90429 240.95972 181.85547 241.04492 L 186.5 241.08789 L 182.64648 243.12109 L 178.79297 245.1543 L 186.14648 250.56445 C 200.60963 261.2034 209.19652 263.97699 227.70508 263.99219 C 237.92828 264.00058 248.12156 261.11441 252.54688 256.95703 C 256.41326 253.32475 262.62514 240.1546 265.02734 230.5 C 266.97771 222.66134 267.19015 219.88704 266.66992 209 C 265.7845 190.47031 263.55564 177.63731 259.93945 170.25586 C 255.45345 161.09892 247.73153 155.91131 246.5332 161.25 C 246.25542 162.4875 244.9184 170.32503 243.5625 178.66602 C 242.20661 187.00701 240.43705 195.41036 239.63086 197.33984 C 238.72726 199.50246 235.57904 202.89032 231.42188 206.17383 C 227.71287 209.10336 223.11463 212.97972 221.20312 214.78711 C 217.89716 217.91301 217.75494 218.32757 218.2793 223.28711 C 218.8247 228.44556 225.56041 247.15496 228.47266 251.59961 C 230.4317 254.5895 235.11137 255.82116 242.25781 255.22852 C 248.7159 254.69297 249.83734 255.99837 245.04883 258.47461 C 240.5157 260.81878 232.78694 260.37737 225.16992 257.33984 C 219.00858 254.88282 206.65621 247.74127 199.5 242.49805 C 195.18028 239.33308 183.90145 235.09161 173.5 232.72266 C 163.39383 230.42095 147.72696 229.36733 144.57617 230.77734 C 143.43477 231.28813 139.44689 232.44024 135.71484 233.33594 C 127.97106 235.19447 105.92889 245.69575 101.21484 249.77344 C 96.534656 253.82184 96.177701 256.99539 99.921875 261.25977 C 104.71995 266.72447 103.201 269.30536 97.722656 264.99609 C 87.85607 257.23503 88.112295 237.17314 98.460938 207.16211 C 104.05274 190.9459 112.88432 169.74534 116.02539 165 C 116.57149 164.175 118.59411 160.35 120.51953 156.5 C 122.44494 152.65 125.62097 146.8 127.57812 143.5 C 131.66282 136.61274 149.65161 109.6408 152.21484 106.56055 C 167.39344 88.320389 167.80572 87.676977 165.83203 85.298828 C 164.73703 83.979434 162.90965 83.822509 154.51367 84.332031 C 145.6344 84.870884 128.17635 83.814646 123.95312 82.482422 z " /><path
       style="fill:#ffe6bd;fill-opacity:1"
       d="m 92.5,276.8882 c -10.484134,-1.51656 -26.756881,-6.05244 -34.160991,-9.52205 -5.578837,-2.61428 -7.94641,-4.42564 -10.71588,-8.19842 C 43.886877,254.07794 40.738335,247.52574 38.412423,240 c -1.660203,-5.37176 -1.863189,-23.08712 -0.361694,-31.56634 2.447201,-13.8198 9.967467,-31.81044 18.334122,-43.86049 2.263332,-3.25976 6.196753,-8.97514 8.740937,-12.70084 2.544183,-3.7257 6.369183,-9.01108 8.5,-11.7453 2.130816,-2.73421 5.780117,-7.59383 8.109556,-10.79916 4.835173,-6.65324 16.248608,-20.11922 30.718176,-36.242414 6.6069,-7.361956 10.47349,-10.927016 11.5,-10.603201 4.22323,1.332225 21.68065,2.389293 30.55993,1.85044 8.39599,-0.509523 10.22439,-0.353505 11.31939,0.96589 1.97369,2.378151 1.56103,3.022479 -13.61758,21.262655 -2.56324,3.08026 -20.55197,30.05149 -24.63667,36.93876 -1.95716,3.3 -5.13381,9.15 -7.05922,13 -1.92542,3.85 -3.94755,7.675 -4.49365,8.5 -3.14107,4.74534 -11.97364,25.94619 -17.565451,42.16242 -10.348653,30.01106 -10.604684,50.07262 -0.738088,57.83369 5.478349,4.30927 6.998379,1.72753 2.200303,-3.73718 -3.744178,-4.26438 -3.386986,-7.43664 1.293206,-11.48505 4.71405,-4.07769 26.75498,-14.58032 34.49877,-16.43885 3.73205,-0.8957 7.71941,-2.04646 8.86081,-2.55725 3.15079,-1.41002 18.81855,-0.35619 28.92473,1.94552 10.40146,2.36896 21.68028,6.60885 26,9.77382 7.15622,5.24323 19.50921,12.38576 25.67056,14.84279 7.61703,3.03753 15.34597,3.47858 19.8791,1.13441 4.78852,-2.47624 3.66578,-3.78131 -2.79231,-3.24576 -7.14645,0.59264 -11.82502,-0.63911 -13.78407,-3.629 -2.91225,-4.44465 -9.64897,-23.15493 -10.19437,-28.31339 -0.52436,-4.95954 -0.38174,-5.3741 2.92423,-8.5 1.91151,-1.80739 6.51011,-5.68305 10.21912,-8.61258 4.15717,-3.28351 7.30584,-6.67193 8.20944,-8.83455 0.80619,-1.92949 2.57517,-10.3326 3.93106,-18.6736 1.3559,-8.34099 2.69253,-16.17794 2.97031,-17.41544 1.19833,-5.3387 8.91994,-0.15199 13.40595,9.00496 3.61619,7.38146 5.84585,20.21533 6.73127,38.74504 0.52023,10.88705 0.30835,13.66133 -1.64202,21.5 -2.40221,9.65461 -8.61538,22.82403 -12.48177,26.45631 -4.42532,4.15738 -14.61878,7.04453 -24.84199,7.03614 -18.50858,-0.0152 -27.09517,-2.78978 -41.55833,-13.42874 l -7.35383,-5.4094 3.85383,-2.03296 3.85382,-2.03296 -4.64466,-0.0442 c -8.95119,-0.0852 -24.90372,6.46981 -35.93292,14.76504 -1.96767,1.47992 -6.92712,5.21976 -11.02099,8.31076 -9.03218,6.81957 -17.6105,11.24918 -24.70065,12.75474 -5.95164,1.2638 -9.04083,1.26615 -17.70078,0.0135 z m 39,-49.59744 c -5.5781,-0.76155 -25.98752,-5.48974 -27.75,-6.42876 -0.9625,-0.5128 -1.75,-1.73723 -1.75,-2.72096 0,-2.45153 4.17904,-15.76759 8.36087,-26.64104 1.90372,-4.95 4.61536,-12.02777 6.02587,-15.72839 2.69046,-7.05873 15.70053,-32.74671 19.75052,-38.99679 1.29951,-2.00544 4.38774,-6.894 6.86274,-10.86347 2.475,-3.96946 4.99143,-7.72018 5.59206,-8.33491 0.60064,-0.61474 1.68501,-2.23343 2.40971,-3.59708 0.7247,-1.36365 4.18876,-6.20573 7.69791,-10.76017 3.70411,-5.313544 7.12333,-9.488386 10.40052,-13.39827 11.23772,-13.59166 13.73364,-13.831165 32.74346,-3.142014 34.33352,19.305604 53.15092,30.431224 68.68317,40.608304 12.61654,8.26663 15.66165,11.02482 14.8007,13.40611 -0.94009,2.60016 -8.72778,14.67544 -14.60112,22.6399 l -5.03911,6.83322 -6.59365,-7.1065 c -6.98055,-7.5235 -10.94215,-9.40923 -14.39159,-6.8504 -1.39033,1.03137 -2.03488,3.70923 -2.84309,11.8121 -1.12968,11.32567 -5.4331,26.13075 -8.99641,30.95038 -5.71827,7.73438 -32.18645,20.17397 -55.34085,26.00926 -10.98629,2.76872 -13.26376,3.00631 -27.5,2.86889 C 141.48477,227.76776 133.15,227.51603 131.5,227.29076 Z M 38.311166,176.21441 c -4.487684,-4.0229 -13.362184,-14.76964 -18.706066,-22.65247 -3.783379,-5.5809 -4.644891,-7.63231 -4.404254,-10.48726 0.354132,-4.20147 2.189347,-5.54182 34.299154,-25.05031 6.6,-4.00986 13.575,-8.30216 15.5,-9.53843 12.911501,-8.292 17.864006,-11.40576 20.5,-12.88883 1.65,-0.928328 5.925,-3.465115 9.5,-5.637305 18.25028,-11.088972 21.17358,-11.510708 14.83344,-2.13998 C 107.20571,91.703608 98.386919,102.19724 92,109.04013 80.629414,121.22249 62.312686,144.38432 55.654229,155 c -1.55239,2.475 -4.35966,6.95983 -6.238378,9.96628 C 47.537133,167.97273 46,170.9228 46,171.522 c 0,0.59919 -1.048683,2.51085 -2.330407,4.24813 l -2.330406,3.15869 z M 127.3872,77.069079 c -2.81204,-0.449463 -7.40348,-1.578045 -10.20319,-2.50796 -7.20801,-2.394118 -7.82804,-5.576108 -2.59043,-13.29416 2.06738,-3.046455 2.30682,-4.26309 1.75797,-8.932867 -0.53931,-4.588718 -0.34933,-5.622608 1.25654,-6.838278 2.12963,-1.612162 10.51612,-1.831329 22.39191,-0.585175 7.57473,0.794834 26.12755,-0.266472 33.5,-1.916353 3.07544,-0.688254 4.54323,-0.539399 6.35024,0.644008 2.07494,1.358876 2.27381,2.048786 1.69782,5.8898 -0.59563,3.971926 -0.35578,4.682332 2.75544,8.161268 5.3314,5.961514 5.90795,7.56031 4.20026,11.647397 -1.61203,3.858118 -1.69101,3.897468 -12.50376,6.228831 -8.52045,1.837116 -40.36385,2.821963 -48.6128,1.503489 z"
       id="path2414"
       sodipodi:nodetypes="sssssssssssssssscsssssssssssssssssssssssscccsssssssssssssssccsssscsssssssssssssssssssscssssssssssssss" /><path
       style="fill:#ffffeb;fill-opacity:1"
       d="M 91.5,275.29745 C 87.621386,274.46318 80.473046,262.87492 77.474641,252.56076 75.473254,245.67623 75.221912,229.91907 76.955265,220 79.52507,205.29435 87.022414,184.04788 94.246132,171 108.67811,144.93215 124.97948,119.90667 143.91433,94.750521 c 6.24581,-8.297958 6.78101,-8.749506 10.37085,-8.75 3.6079,-4.97e-4 3.73,0.10486 2.60684,2.249479 -0.64809,1.2375 -5.78005,8.55 -11.40435,16.25 C 130.52613,124.98324 116.9279,145.60145 106.2459,164 95.550671,182.42135 90.067952,195.96405 85.809903,214.47835 83.157606,226.01073 82.866591,228.81524 83.26538,239 c 0.391819,10.00676 0.867387,12.53878 3.662518,19.5 1.766727,4.4 4.526543,10.1375 6.132923,12.75 2.8537,4.64105 2.726953,4.96972 -1.560821,4.04745 z M 60.113731,267.19562 C 54.71144,265.10723 51.388156,259.70239 47.388589,246.5 44.971809,238.52232 44.657637,235.85293 44.622778,223 44.589835,210.85375 44.94718,207.25343 46.824155,200.82064 51.014642,186.45897 58.380367,172.58008 73.793978,150.00267 96.863696,116.21081 122.47143,85 127.12713,85 128.15721,85 129,85.273115 129,85.606923 c 0,0.333808 -5.78104,8.096308 -12.84675,17.249997 C 79.635753,150.16566 59.430678,181.82445 53.516992,201 c -2.500427,8.10781 -3.088104,26.50732 -1.19374,37.37462 1.733376,9.94377 7.582391,23.3442 12.167029,27.87538 3.194495,3.15724 2.007813,3.41364 -4.37655,0.94562 z M 140.75,213.31067 c -2.06385,-0.53934 -2.44854,-6.21213 -0.55,-8.11067 0.8374,-0.8374 6.23946,-1.2 17.87756,-1.2 18.23944,0 19.35865,0.33943 18.7447,5.68478 -0.25271,2.20022 -0.96969,2.94307 -3.32226,3.44216 -3.42495,0.72658 -30.10006,0.87624 -32.75,0.18373 z m -24.5,-3.80154 c -3.65591,-1.58901 -4.29042,-4.5787 -1.7435,-8.21495 1.27118,-1.81486 1.98925,-2.01239 4.59692,-1.26452 4.21126,1.20777 5.89658,2.78585 5.89658,5.52136 0,2.47574 -2.3949,5.47382 -4.32143,5.40984 -0.64821,-0.0215 -2.64107,-0.67481 -4.42857,-1.45173 z m 78.63358,-5.62555 c -3.05366,-3.05366 -2.36065,-5.59955 2.15072,-7.90108 4.56681,-2.32981 5.33519,-2.10245 7.58269,2.24373 1.54326,2.98434 1.51592,3.16491 -0.7364,4.86384 -3.53678,2.6678 -6.83209,2.95843 -8.99701,0.79351 z M 138,195.33588 c -3.56957,-0.55935 -24.43132,-5.49623 -24.84966,-5.8806 -0.32933,-0.30259 1.78152,-7.45528 2.20014,-7.45528 0.10746,0 4.68507,1.17373 10.17245,2.60828 13.22051,3.4562 32.51153,4.35812 43.70468,2.04333 16.08343,-3.32613 34.04229,-11.47349 47.84565,-21.70606 8.35074,-6.19048 29.10907,-27.4771 35.89958,-36.81321 l 5.19693,-7.14513 2.91511,1.722 c 1.60332,0.9471 2.91512,2.19229 2.91512,2.76707 0,0.57479 -2.09715,4.19027 -4.66033,8.0344 -7.93198,11.89598 -30.45789,32.7897 -46.33967,42.98198 -11.53511,7.40277 -30.3903,15.0843 -44.31538,18.05392 -6.20659,1.32359 -24.30418,1.78912 -30.68462,0.7893 z m 81.5567,-6.55839 C 218.70052,187.55512 218,185.98724 218,185.29332 c 0,-1.66258 21.39436,-19.41977 21.85653,-18.14078 0.19609,0.54265 0.0397,3.52242 -0.34753,6.62172 -0.61199,4.89819 -1.24707,6.14391 -4.85653,9.52607 -8.34816,7.82245 -12.41862,9.29933 -15.09577,5.47716 z M 128,176.86942 c -1.925,-0.52262 -4.70328,-1.42245 -6.17395,-1.99964 -2.6012,-1.02087 -2.63767,-1.149 -1.34029,-4.7096 2.66078,-7.3024 17.85469,-34.7687 25.81165,-46.66018 5.10199,-7.62478 22.85664,-31.514625 28.05536,-37.75 3.79896,-4.55649 4.17339,-4.75 9.19088,-4.75 5.35709,0 9.68799,1.962647 27.95635,12.669073 3.3,1.934011 8.475,4.855197 11.5,6.491527 3.025,1.63633 6.19433,3.5071 7.04296,4.15727 1.52165,1.1658 5.23388,13.1603 7.26411,23.47089 l 1.04139,5.28876 -4.92423,5.00303 c -2.70833,2.75167 -5.82837,5.23082 -6.93343,5.50922 -1.16357,0.29313 -5.74728,-1.24555 -10.89068,-3.65582 -4.88481,-2.2891 -10.61817,-4.39494 -12.7408,-4.67964 L 199,134.73666 l -0.0701,3.88167 c -0.0385,2.13492 -0.15103,9.03135 -0.25,15.3254 l -0.17993,11.44374 -5,2.56109 C 185.94358,171.81909 178.1825,175 176.29523,175 c -0.92713,0 -6.48059,-4.725 -12.34102,-10.5 -5.86043,-5.775 -11.32783,-10.5 -12.14978,-10.5 -2.20277,0 -4.20553,2.62391 -8.39603,11 -6.79579,13.58361 -7.39477,14.04502 -15.4084,11.86942 z m 58.78015,-23.79349 0.28015,-13.39938 -5.15865,-4.76744 C 176.29065,129.72362 165.6029,123.50935 163.99967,124.5002 163.42515,124.85528 163,130.11892 163,136.87694 v 11.75892 l 7.25,6.97753 c 8.74398,8.41536 12.75174,11.43324 14.75,11.10689 1.22995,-0.20087 1.55044,-2.65734 1.78015,-13.64435 z M 175.0405,151.41762 C 171.27221,148.0132 171,147.40458 171,142.38364 c 0,-6.49903 1.25706,-6.89314 6.4288,-2.01556 3.18299,3.00195 3.5712,3.91952 3.5712,8.44098 0,2.7901 -0.43178,5.33976 -0.9595,5.66591 -0.52773,0.32615 -2.77773,-1.04965 -5,-3.05735 z M 228.52299,129.25 c -1.23109,-6.59889 -6.72356,-19.53138 -9.31507,-21.93311 -1.3797,-1.27867 -6.06414,-3.44806 -10.40986,-4.82087 -8.37645,-2.646119 -11.34353,-3.040487 -12.21892,-1.62407 -0.44643,0.72234 3.26223,12.8624 5.91502,19.36245 0.93429,2.28926 10.06181,7.44834 18.36007,10.37754 3.65518,1.29023 7.03335,2.35537 7.50706,2.36697 0.47371,0.0116 0.54647,-1.66641 0.1617,-3.72891 z M 213.5,121.13944 c -1.65,-1.0192 -3.71339,-2.70501 -4.58531,-3.74626 -1.87571,-2.23999 -4.3838,-8.2574 -3.71887,-8.92233 0.25576,-0.25576 2.57885,0.25524 5.16243,1.13555 4.92708,1.67882 6.7766,3.99476 8.10077,10.1436 0.82844,3.84693 -0.41604,4.19561 -4.95902,1.38944 z m -178.212145,32.2109 c -1.942272,-0.78798 -5.364696,-6.98652 -4.746697,-8.597 0.310704,-0.80968 1.65071,-2.05325 2.977791,-2.76348 2.854118,-1.52748 4.688457,-0.42325 7.125437,4.28935 1.418243,2.74258 1.372106,3.07433 -0.740251,5.32283 -2.328178,2.47824 -2.581034,2.574 -4.61628,1.7483 z m 13.721626,-9.18294 c -5.8891,-6.57763 -11.995923,-14.88737 -12.0052,-16.33584 -0.008,-1.24136 7.358545,-5.24308 7.71011,-4.18839 0.189688,0.56907 3.770986,5.69694 7.95844,11.39529 7.242474,9.85565 7.54565,10.48102 6.220361,12.8309 -0.766256,1.35866 -1.907851,2.64042 -2.536879,2.84836 -0.629028,0.20794 -3.935102,-2.73971 -7.346832,-6.55032 z m 212.213029,5.2759 C 260.00013,148.58711 259,147.19408 259,146.34767 c 0,-1.54293 3.60757,-7.29811 5.31252,-8.4751 2.82589,-1.95082 8.38971,3.33954 7.25897,6.90218 -0.88588,2.79117 -4.40971,6.22525 -6.38794,6.22525 -0.9562,0 -2.73867,-0.70052 -3.96104,-1.5567 z M 63.520225,132.84167 c -3.12118,-3.70932 -3.011298,-4.51972 2.257772,-16.6515 2.608867,-6.00679 4.65465,-9.15679 7.315719,-11.26439 C 75.125467,103.3166 77.096791,102 77.474437,102 c 0.377645,0 3.012888,-1.5004 5.856095,-3.334231 15.522449,-10.011753 26.526458,-16.142108 27.402558,-15.266013 0.77353,0.773536 -6.30246,9.925306 -14.103203,18.240444 -4.538637,4.83792 -8.681905,8.10212 -13.185698,10.38813 -7.253333,3.6816 -7.878626,4.44787 -8.953047,10.97167 -0.682056,4.14139 -5.841698,13 -7.571768,13 -0.407873,0 -1.93749,-1.42125 -3.399149,-3.15833 z M 131,72.867837 c -6.39591,-1.044693 -18.00702,-4.724267 -17.98469,-5.699367 0.008,-0.367659 0.42004,-1.307918 0.9147,-2.089467 0.7607,-1.201871 2.10763,-1.047667 8.73469,1 7.10022,2.193869 9.52399,2.415779 25.8353,2.365373 14.62807,-0.0452 19.90272,-0.466695 28.15708,-2.25 12.32461,-2.662655 11.55127,-2.659235 11.16247,-0.04937 -0.23373,1.568908 -1.52815,2.509867 -4.81955,3.503484 -12.7162,3.838802 -38.45255,5.432151 -52,3.219343 z m -5.5,-19.494372 c -6.83562,-1.721858 -8.5,-2.616238 -8.5,-4.567594 0,-1.725641 0.42266,-1.932569 2.75,-1.346368 1.5125,0.380961 10.4,0.931693 19.75,1.223847 15.25406,0.476635 25.39449,-0.137261 37.68796,-2.28161 3.39648,-0.592447 3.64423,-0.476023 3.13454,1.473034 -1.05232,4.024062 -8.53911,5.365142 -31.8225,5.700243 -11.55,0.166231 -21.9,0.07553 -23,-0.201552 z"
       id="path2416" /></g></svg>
