<?xml version="1.0" encoding="UTF-8" standalone="no"?>
<!-- Created with Inkscape (http://www.inkscape.org/) -->

<svg
   version="1.1"
   id="svg2"
   width="300"
   height="300"
   viewBox="0 0 300 300"
   sodipodi:docname="sparrow.svg"
   inkscape:version="1.2.2 (732a01da63, 2022-12-09)"
   inkscape:export-filename="..\..\Users\Silver\Documents\GitHub\SkyGame-Planner\src\assets\game\items\1959.png"
   inkscape:export-xdpi="81.919998"
   inkscape:export-ydpi="81.919998"
   xmlns:inkscape="http://www.inkscape.org/namespaces/inkscape"
   xmlns:sodipodi="http://sodipodi.sourceforge.net/DTD/sodipodi-0.dtd"
   xmlns="http://www.w3.org/2000/svg"
   xmlns:svg="http://www.w3.org/2000/svg">
  <defs
     id="defs6">
    <filter
       inkscape:collect="always"
       style="color-interpolation-filters:sRGB"
       id="filter4487"
       x="-0.028514574"
       y="-0.042852558"
       width="1.0568642"
       height="1.08594">
      <feGaussianBlur
         inkscape:collect="always"
         stdDeviation="1.1236841"
         id="feGaussianBlur4489" />
    </filter>
  </defs>
  <sodipodi:namedview
     id="namedview4"
     pagecolor="#ffffff"
     bordercolor="#000000"
     borderopacity="0.25"
     inkscape:showpageshadow="2"
     inkscape:pageopacity="0.0"
     inkscape:pagecheckerboard="0"
     inkscape:deskcolor="#d1d1d1"
     showgrid="false"
     inkscape:zoom="2.3617366"
     inkscape:cx="144.17357"
     inkscape:cy="48.692982"
     inkscape:window-width="1920"
     inkscape:window-height="1009"
     inkscape:window-x="-8"
     inkscape:window-y="359"
     inkscape:window-maximized="1"
     inkscape:current-layer="g8" />
  <g
     inkscape:groupmode="layer"
     inkscape:label="Image"
     id="g8"
     transform="translate(0.07558444,-0.10675545)">
    <path
       style="fill:none;fill-opacity:1;stroke:#613c2d;stroke-width:10;stroke-dasharray:none;stroke-opacity:1;filter:url(#filter4487)"
       d="m 159.58323,238.51661 c -7.94381,-2.83049 -8.66314,-4.3874 -10.19647,-22.06924 -0.7517,-8.66837 -1.55091,-15.94485 -1.77602,-16.16996 -0.22511,-0.22511 -0.69364,4.45788 -1.04117,10.40665 -0.95275,16.30842 -1.45749,19.02929 -4.11617,22.18896 -3.84335,4.56756 -17.59541,6.93728 -21.91764,3.77679 -2.51487,-1.83892 -1.88611,-7.07622 3.79972,-31.64981 4.74411,-20.50356 7.91128,-37.08658 7.21592,-37.78193 -0.22703,-0.22703 -0.9425,1.54353 -1.58994,3.93457 -2.85992,10.56197 -5.63699,17.359 -8.22378,20.12817 -2.67463,2.8632 -3.06108,2.96479 -9.52071,2.5026 -11.68643,-0.83616 -17.205853,-5.65662 -17.213232,-15.03341 -0.004,-5.04691 -0.744793,-5.61767 -4.288921,-3.30435 -2.002229,1.30689 -2.886707,1.16366 -9.214817,-1.49227 -7.18649,-3.0162 -10.5,-5.83715 -10.5,-8.93916 0,-1.16855 -1.034841,-1.97119 -3.064904,-2.3772 C 64.129281,161.87586 59,156.8957 59,153.9617 c 0,-2.06257 -0.31195,-2.15317 -5.277403,-1.53278 -4.755035,0.5941 -5.992312,0.30172 -12.5,-2.95395 C 37.250169,147.48765 34,145.28158 34,144.5726 c 0,-0.70898 2.3625,-2.98184 5.25,-5.0508 3.583219,-2.56745 4.456295,-3.55632 2.75,-3.11473 -1.375,0.35585 -5.425,0.89695 -9,1.20245 -6.078787,0.51946 -6.856411,0.33913 -12,-2.78276 -5.79871,-3.51951 -7.678984,-7.07286 -4.302469,-8.13082 3.083271,-0.96609 15.650824,-5.71084 18.802469,-7.09869 1.65,-0.72659 6.825,-2.56523 11.5,-4.08588 C 64.045368,109.967 83.15529,100.6011 97.916262,90.55698 108.96664,83.037735 112,82.017353 112,85.819392 c 0,1.035189 0.50855,3.340994 1.13012,5.124012 1.06678,3.06018 1.36098,3.218519 5.25,2.825518 3.64969,-0.368818 4.63345,0.03275 8.61988,3.518626 6.67966,5.840932 13.912,9.692202 18.22149,9.703072 5.18951,0.0131 13.78306,-4.03185 19.22732,-9.0502 l 4.59243,-4.233153 3.44346,1.854426 c 3.43055,1.847473 3.45286,1.845596 5.95036,-0.500684 1.37879,-1.29531 3.02432,-3.976437 3.65672,-5.958059 0.6324,-1.981623 1.46618,-3.951169 1.85284,-4.376771 0.38666,-0.425601 6.0698,1.9023 12.6292,5.173114 13.22116,6.592672 21.05908,9.707692 35.33301,14.042387 5.27624,1.60228 16.79317,5.45078 25.59317,8.55222 8.8,3.10144 18.20442,6.261 20.89872,7.02126 2.69429,0.76025 5.38065,1.86421 5.96968,2.45324 1.82935,1.82935 -1.76257,6.29696 -7.53568,9.37285 -5.00115,2.66458 -5.82126,2.79963 -13.18999,2.17192 -8.77076,-0.74715 -9.37227,0.18717 -1.92539,2.9907 2.63047,0.99029 5.67029,2.40704 6.75517,3.14833 1.72497,1.17867 1.75635,1.3478 0.25,1.3478 -0.94738,0 -1.61001,0.52536 -1.47251,1.16747 0.1375,0.6421 -2.675,2.9156 -6.25,5.05221 -6.18811,3.69834 -6.79341,3.85513 -12.61489,3.26741 l -6.11488,-0.61734 -1.12498,4.46771 c -1.31361,5.21679 -5.52019,9.26705 -10.61798,10.2234 -2.74859,0.51564 -3.47362,1.15672 -3.72056,3.28979 -0.35531,3.06918 -5.97908,6.28018 -14.4019,8.22303 -4.43683,1.02343 -5.43824,0.95052 -7.75,-0.5642 L 202,173.76998 l -0.006,2.86501 c -0.0153,7.88083 -3.94795,13.77747 -11.2123,16.81196 -3.86679,1.61525 -11.4662,2.06224 -13.39259,0.78774 -1.73112,-1.14532 -4.31356,-6.7114 -7.95656,-17.14921 -1.84003,-5.27201 -3.36183,-8.91048 -3.38178,-8.08548 -0.0199,0.825 1.55849,9.15 3.50764,18.5 5.56893,26.71403 8.54645,44.74416 7.88584,47.75194 -0.33398,1.52058 -1.44107,3.21095 -2.46021,3.75638 -2.63474,1.41007 -10.79506,1.14954 -15.40123,-0.49171 z M 142.5,103.7077 c -4.1367,-1.36907 -8.12232,-4.16837 -14.01134,-9.840881 -4.97072,-4.78798 -5.03533,-4.814649 -7.9724,-3.290876 -2.71723,1.409715 -3.06628,1.39234 -4.23867,-0.21099 C 115.57492,89.403986 115,86.260162 115,83.378676 v -5.239065 l -3.2434,0.930195 C 107.74842,80.219336 108,80.238219 108,78.787852 c 0,-0.666682 1.89369,-3.141682 4.20821,-5.5 C 116.03699,69.386609 116.2107,69 114.13488,69 c -3.7126,0 -2.1802,-3.224831 2.70337,-5.68907 5.98563,-3.02033 13.68754,-3.78476 23.20916,-2.303555 6.28191,0.977229 9.9766,0.988119 17.22495,0.05077 7.81683,-1.010868 10.34617,-0.953626 16.54362,0.374399 4.02379,0.862242 8.18629,2.033488 9.25,2.602769 2.63165,1.40842 2.43775,3.800158 -0.36513,4.503635 -2.19092,0.549888 -2.07325,0.802939 2.5,5.376195 6.35508,6.35508 6.25274,7.410386 -0.63522,6.549793 -5.06467,-0.632789 -5.3995,-0.545648 -4.92184,1.280925 0.68679,2.626272 -1.29292,9.718059 -3.14101,11.251832 -1.22056,1.012979 -1.94961,0.698744 -4.12159,-1.776483 l -2.63873,-3.007149 -5.36307,5.36307 C 156.44443,101.51209 147.86658,105.4838 142.5,103.7077 Z"
       id="path3758" />
    <path
       style="fill:#905a4e;fill-opacity:1"
       d="m 159.58323,238.51661 c -7.94381,-2.83049 -8.66314,-4.3874 -10.19647,-22.06924 -0.7517,-8.66837 -1.55091,-15.94485 -1.77602,-16.16996 -0.22511,-0.22511 -0.69364,4.45788 -1.04117,10.40665 -0.95275,16.30842 -1.45749,19.02929 -4.11617,22.18896 -3.84335,4.56756 -17.59541,6.93728 -21.91764,3.77679 -2.51487,-1.83892 -1.88611,-7.07622 3.79972,-31.64981 4.74411,-20.50356 7.91128,-37.08658 7.21592,-37.78193 -0.22703,-0.22703 -0.9425,1.54353 -1.58994,3.93457 -2.85992,10.56197 -5.63699,17.359 -8.22378,20.12817 -2.67463,2.8632 -3.06108,2.96479 -9.52071,2.5026 -11.68643,-0.83616 -17.205853,-5.65662 -17.213232,-15.03341 -0.004,-5.04691 -0.744793,-5.61767 -4.288921,-3.30435 -2.002229,1.30689 -2.886707,1.16366 -9.214817,-1.49227 -7.18649,-3.0162 -10.5,-5.83715 -10.5,-8.93916 0,-1.16855 -1.034841,-1.97119 -3.064904,-2.3772 C 64.129281,161.87586 59,156.8957 59,153.9617 c 0,-2.06257 -0.31195,-2.15317 -5.277403,-1.53278 -4.755035,0.5941 -5.992312,0.30172 -12.5,-2.95395 C 37.250169,147.48765 34,145.28158 34,144.5726 c 0,-0.70898 2.3625,-2.98184 5.25,-5.0508 3.583219,-2.56745 4.456295,-3.55632 2.75,-3.11473 -1.375,0.35585 -5.425,0.89695 -9,1.20245 -6.078787,0.51946 -6.856411,0.33913 -12,-2.78276 -5.79871,-3.51951 -7.678984,-7.07286 -4.302469,-8.13082 3.083271,-0.96609 15.650824,-5.71084 18.802469,-7.09869 1.65,-0.72659 6.825,-2.56523 11.5,-4.08588 C 64.045368,109.967 83.15529,100.6011 97.916262,90.55698 108.96664,83.037735 112,82.017353 112,85.819392 c 0,1.035189 0.50855,3.340994 1.13012,5.124012 1.06678,3.06018 1.36098,3.218519 5.25,2.825518 3.64969,-0.368818 4.63345,0.03275 8.61988,3.518626 6.67966,5.840932 13.912,9.692202 18.22149,9.703072 5.18951,0.0131 13.78306,-4.03185 19.22732,-9.0502 l 4.59243,-4.233153 3.44346,1.854426 c 3.43055,1.847473 3.45286,1.845596 5.95036,-0.500684 1.37879,-1.29531 3.02432,-3.976437 3.65672,-5.958059 0.6324,-1.981623 1.46618,-3.951169 1.85284,-4.376771 0.38666,-0.425601 6.0698,1.9023 12.6292,5.173114 13.22116,6.592672 21.05908,9.707692 35.33301,14.042387 5.27624,1.60228 16.79317,5.45078 25.59317,8.55222 8.8,3.10144 18.20442,6.261 20.89872,7.02126 2.69429,0.76025 5.38065,1.86421 5.96968,2.45324 1.82935,1.82935 -1.76257,6.29696 -7.53568,9.37285 -5.00115,2.66458 -5.82126,2.79963 -13.18999,2.17192 -8.77076,-0.74715 -9.37227,0.18717 -1.92539,2.9907 2.63047,0.99029 5.67029,2.40704 6.75517,3.14833 1.72497,1.17867 1.75635,1.3478 0.25,1.3478 -0.94738,0 -1.61001,0.52536 -1.47251,1.16747 0.1375,0.6421 -2.675,2.9156 -6.25,5.05221 -6.18811,3.69834 -6.79341,3.85513 -12.61489,3.26741 l -6.11488,-0.61734 -1.12498,4.46771 c -1.31361,5.21679 -5.52019,9.26705 -10.61798,10.2234 -2.74859,0.51564 -3.47362,1.15672 -3.72056,3.28979 -0.35531,3.06918 -5.97908,6.28018 -14.4019,8.22303 -4.43683,1.02343 -5.43824,0.95052 -7.75,-0.5642 L 202,173.76998 l -0.006,2.86501 c -0.0153,7.88083 -3.94795,13.77747 -11.2123,16.81196 -3.86679,1.61525 -11.4662,2.06224 -13.39259,0.78774 -1.73112,-1.14532 -4.31356,-6.7114 -7.95656,-17.14921 -1.84003,-5.27201 -3.36183,-8.91048 -3.38178,-8.08548 -0.0199,0.825 1.55849,9.15 3.50764,18.5 5.56893,26.71403 8.54645,44.74416 7.88584,47.75194 -0.33398,1.52058 -1.44107,3.21095 -2.46021,3.75638 -2.63474,1.41007 -10.79506,1.14954 -15.40123,-0.49171 z M 142.5,103.7077 c -4.1367,-1.36907 -8.12232,-4.16837 -14.01134,-9.840881 -4.97072,-4.78798 -5.03533,-4.814649 -7.9724,-3.290876 -2.71723,1.409715 -3.06628,1.39234 -4.23867,-0.21099 C 115.57492,89.403986 115,86.260162 115,83.378676 v -5.239065 l -3.2434,0.930195 C 107.74842,80.219336 108,80.238219 108,78.787852 c 0,-0.666682 1.89369,-3.141682 4.20821,-5.5 C 116.03699,69.386609 116.2107,69 114.13488,69 c -3.7126,0 -2.1802,-3.224831 2.70337,-5.68907 5.98563,-3.02033 13.68754,-3.78476 23.20916,-2.303555 6.28191,0.977229 9.9766,0.988119 17.22495,0.05077 7.81683,-1.010868 10.34617,-0.953626 16.54362,0.374399 4.02379,0.862242 8.18629,2.033488 9.25,2.602769 2.63165,1.40842 2.43775,3.800158 -0.36513,4.503635 -2.19092,0.549888 -2.07325,0.802939 2.5,5.376195 6.35508,6.35508 6.25274,7.410386 -0.63522,6.549793 -5.06467,-0.632789 -5.3995,-0.545648 -4.92184,1.280925 0.68679,2.626272 -1.29292,9.718059 -3.14101,11.251832 -1.22056,1.012979 -1.94961,0.698744 -4.12159,-1.776483 l -2.63873,-3.007149 -5.36307,5.36307 C 156.44443,101.51209 147.86658,105.4838 142.5,103.7077 Z"
       id="path241" />
    <path
       style="fill:#b58763;fill-opacity:1"
       d="m 161.16884,238.56694 c -4.53473,-1.46985 -7.68187,-3.78851 -9.33514,-6.87768 -0.53958,-1.00821 -1.37038,-8.38822 -1.84622,-16.40003 -0.81866,-13.78388 -1.79104,-18.03413 -3.49509,-15.27692 -0.40334,0.65261 -0.95673,7.10432 -1.22976,14.33713 -0.61696,16.34354 -1.62094,18.95453 -8.10262,21.07188 -7.29435,2.38282 -12.62252,2.9367 -15.16429,1.57639 -2.1327,-1.14139 -2.234,-1.64959 -1.66569,-8.3565 0.33281,-3.92767 1.76526,-11.64121 3.18321,-17.14121 3.79185,-14.70789 9.55178,-43.58578 8.90294,-44.63562 -0.30874,-0.49956 -0.70112,-3.48704 -0.87194,-6.63886 -0.64784,-11.95272 -3.52196,-14.85739 -23.56453,-23.81497 -17.105709,-7.64502 -36.564129,-17.65384 -42.430363,-21.82488 l -4.950652,-3.52005 3.950652,-1.57752 C 76.08274,104.88272 91.691119,96.167882 102.00647,88.574153 105.42392,86.058369 108.788,84 109.4822,84 c 0.6942,0 1.53788,1.724082 1.87483,3.831293 0.83314,5.210188 3.62093,7.596246 8.03776,6.879493 3.00125,-0.487036 3.96743,-0.05654 7.57478,3.375046 5.95445,5.664328 13.78644,9.893568 18.34236,9.904788 5.05391,0.0124 13.43589,-4.05928 19.40588,-9.426819 l 4.83339,-4.345633 2.33519,1.890916 C 173.17074,97.149088 174.81395,98 175.53798,98 177.50178,98 183,90.875744 183,88.331173 c 0,-1.217226 0.43742,-2.48348 0.97205,-2.813897 0.53462,-0.330417 7.39712,2.533256 15.25,6.363717 8.89855,4.340522 19.64213,8.594827 28.51551,11.291737 7.83066,2.38 14.24316,4.6604 14.25,5.06755 0.0429,2.55203 -23.57511,15.48567 -53.08391,29.06973 -15.47387,7.12322 -21.91161,14.62836 -23.35813,27.23098 -0.56288,4.90407 -0.10063,8.66809 2.45617,20 4.92561,21.83067 8.99061,43.5627 8.99463,48.08657 0.002,2.45354 -0.6049,4.63262 -1.49687,5.37289 -2.25036,1.86764 -9.43961,2.15183 -14.33061,0.56649 z m 21.57413,-53.65098 c -2.56851,-1.49578 -5.53941,-7.90074 -6.2903,-13.56123 -1.45075,-10.93631 6.07237,-19.51369 27.04733,-30.83764 12.82817,-6.92566 26.91842,-15.95214 39.41061,-25.24717 l 6.41062,-4.76992 8.83938,2.86078 c 4.86167,1.57342 8.83939,3.40748 8.83939,4.07568 0,1.40584 -3.52854,4.81364 -6.64484,6.41748 -1.17967,0.60713 -4.66717,1.40032 -7.75,1.76265 -6.04843,0.71087 -6.43807,1.1826 -4.02223,4.86963 3.06523,4.67814 -0.83719,8.94623 -10.08293,11.02771 -4.49172,1.01122 -5.02952,1.42352 -5.29042,4.05586 -0.7409,7.47536 -4.09269,10.84103 -10.54456,10.58822 -5.23817,-0.20526 -5.92121,0.4459 -4.12049,3.92811 1.79189,3.46512 1.41446,4.36661 -2.72422,6.5068 -2.82863,1.46274 -10.5007,1.64346 -14.77548,0.34805 -1.09157,-0.33079 -1.62681,0.87355 -2.14209,4.81987 -0.80809,6.18876 -2.81131,9.6029 -7.20707,12.28316 -3.53263,2.15398 -6.29009,2.42255 -8.9527,0.87196 z m -77.27458,-1.77219 C 102.69535,181.4527 100.70456,178.13043 98.041701,170.75 97.109098,168.16518 96.688572,168 91.040527,168 c -5.229253,0 -6.432739,-0.37916 -9.27475,-2.92204 C 79.326236,162.89519 78.5,161.31976 78.5,158.85089 c 0,-2.5344 -0.466333,-3.37774 -2,-3.61689 -4.82602,-0.75254 -6.170466,-1.27834 -8.269899,-3.23426 C 66.883001,150.74473 66,148.73725 66,146.92966 c 0,-1.64584 -0.5625,-3.15371 -1.25,-3.35083 -6.376141,-1.82818 -10.749453,-4.00175 -11.254714,-5.59368 -0.329085,-1.03686 0.133031,-3.2995 1.026925,-5.0281 0.893894,-1.7286 1.414621,-3.35355 1.157172,-3.611 -0.257449,-0.25745 -3.155427,-0.84794 -6.439951,-1.31221 -3.284524,-0.46426 -7.30234,-1.53213 -8.92848,-2.37304 -2.97439,-1.53812 -5.933398,-4.41234 -5.203453,-5.05435 C 35.836503,119.96526 52.635786,114 53.712479,114 c 0.587127,0 3.704507,1.93216 6.927512,4.29369 10.30625,7.55151 25.564994,17.22543 35.860009,22.73498 19.62319,10.50167 25.3426,16.14395 26.22462,25.871 0.47381,5.22528 0.20783,6.53988 -2.1305,10.52994 -2.64363,4.51101 -6.81068,7.57389 -10.29446,7.56665 -0.98981,-0.002 -3.16388,-0.83567 -4.83127,-1.85249 z m 33.69518,-81.74955 c -2.93168,-1.460917 -7.59887,-4.924759 -10.37154,-7.697426 -4.80556,-4.805558 -5.18248,-4.987893 -8.06316,-3.900555 -1.66208,0.627363 -3.40601,0.9033 -3.87541,0.613193 C 116.38406,90.119326 116,87.15101 116,83.813175 v -6.068791 l -4.04539,0.646884 c -3.81219,0.609593 -3.98389,0.531955 -2.97842,-1.346784 0.58684,-1.096517 2.60347,-3.219663 4.48141,-4.718102 C 117.09768,69.42189 117.19926,68 113.76667,68 h -2.1153 l 2.24518,-2.389879 c 3.60007,-3.832103 9.69216,-4.993467 21.89469,-4.173886 13.84218,0.929706 13.1332,0.92808 24.20876,0.05554 10.17766,-0.801802 20.91978,1.014767 23.96863,4.053265 1.29062,1.286245 1.0877,1.607424 -1.67422,2.649934 l -3.14285,1.186292 4.44369,3.911494 c 2.44404,2.151322 4.93638,4.832076 5.53854,5.957231 1.18062,2.205997 1.62903,2.202949 -7.75238,0.05269 -1.92694,-0.441665 -2.16091,0.02479 -2.58648,5.156634 -0.29494,3.556549 -1.11374,6.270353 -2.21505,7.341455 -1.64912,1.603898 -1.8891,1.517931 -4.2774,-1.532256 l -2.53025,-3.231488 -4.27632,4.731488 c -4.63919,5.132983 -13.20911,10.688456 -17.99896,11.667866 -2.15763,0.44118 -4.50365,-0.13373 -8.33338,-2.04216 z"
       id="path239" />
    <path
       style="fill:#c79e70;fill-opacity:1"
       d="m 136.46258,99.533768 c -2.77058,-1.826417 -6.71693,-5.17978 -8.76967,-7.451918 -3.12017,-3.453656 -4.04624,-3.963119 -5.64684,-3.106506 C 120.99305,89.538905 119.2019,90 118.06574,90 116.18849,90 116,89.402767 116,83.454687 v -6.545313 l -3.75,0.621568 -3.75,0.621569 4.25,-4.112376 C 117.44726,69.494979 118.00416,68 115,68 c -3.255,0 -2.29715,-1.800617 2.25,-4.229676 3.80472,-2.032456 5.4025,-2.239698 15.25,-1.978012 6.05,0.160771 13.475,0.35293 16.5,0.42702 3.025,0.07409 8.53077,-0.234394 12.23504,-0.68552 5.66296,-0.689665 8.01086,-0.456956 14.75,1.461929 8.14445,2.319028 10.12031,4.259035 5.51496,5.414903 C 179.09457,69.014369 177.9443,71 180,71 c 1.27644,0 9,7.685495 9,8.955641 0,0.526728 -1.85172,0.302316 -4.12573,-0.5 -6.31564,-2.228288 -7.23145,-1.991517 -6.49719,1.679769 C 179.1709,85.104506 177.36642,92 175.53393,92 174.77,92 173.05154,90.602874 171.71514,88.895275 l -2.42981,-3.104726 -2.37888,3.354726 c -2.94803,4.157342 -6.85656,7.538563 -12.81682,11.087675 -6.33156,3.7702 -11.13633,3.57961 -17.62705,-0.699182 z"
       id="path3029" />
  </g>
</svg>
