<?xml version="1.0" encoding="UTF-8" standalone="no"?>
<!-- Created with Inkscape (http://www.inkscape.org/) -->

<svg
   version="1.1"
   id="svg18232"
   width="300"
   height="300"
   viewBox="0 0 300 300"
   sodipodi:docname="dyes2.svg"
   inkscape:version="1.2.2 (732a01da63, 2022-12-09)"
   xml:space="preserve"
   xmlns:inkscape="http://www.inkscape.org/namespaces/inkscape"
   xmlns:sodipodi="http://sodipodi.sourceforge.net/DTD/sodipodi-0.dtd"
   xmlns="http://www.w3.org/2000/svg"
   xmlns:svg="http://www.w3.org/2000/svg"><defs
     id="defs18236" /><sodipodi:namedview
     id="namedview18234"
     pagecolor="#ffffff"
     bordercolor="#000000"
     borderopacity="0.25"
     inkscape:showpageshadow="2"
     inkscape:pageopacity="0.0"
     inkscape:pagecheckerboard="0"
     inkscape:deskcolor="#d1d1d1"
     showgrid="false"
     inkscape:zoom="3.34"
     inkscape:cx="45.05988"
     inkscape:cy="155.23952"
     inkscape:window-width="2560"
     inkscape:window-height="1351"
     inkscape:window-x="2391"
     inkscape:window-y="-9"
     inkscape:window-maximized="1"
     inkscape:current-layer="g18238" /><g
     inkscape:groupmode="layer"
     inkscape:label="Image"
     id="g18238"
     style="display:inline"><path
       id="path86017"
       style="display:none;fill:#a778aa;fill-opacity:1;stroke-width:1.68831"
       d="m 145.67238,62.141756 c -5.00465,0.04137 -10.01426,2.6025 -15.08641,7.649316 -24.98677,24.868702 -49.92226,49.803498 -74.824841,74.773618 -8.086915,8.10388 -8.172198,11.09018 -0.186569,19.14336 24.463441,24.59865 48.91298,49.23091 73.73102,73.47497 4.05195,3.96754 9.99537,6.01091 16.32656,9.65765 l -0.022,-0.0183 c 5.926,-3.47798 12.02017,-5.65527 16.22411,-9.77472 24.42981,-23.85573 48.43922,-48.11453 72.53115,-72.308 8.52601,-8.57654 8.57667,-12.88299 0,-21.51021 -24.46339,-24.61552 -48.99619,-49.165047 -73.62861,-73.628622 -5.05525,-5.021489 -10.05624,-7.49604 -15.0608,-7.459071 z m -0.55239,31.987324 c 2.4607,0.0021 4.89064,1.68182 8.24192,4.98246 14.70519,14.46875 29.32122,29.03814 43.80697,43.72648 2.76874,2.81943 4.832,6.33194 7.41516,9.793 v 0.0183 c -1.89094,2.87009 -2.92043,5.14972 -4.55811,6.80425 -15.87012,16.02208 -31.89441,31.9268 -47.79805,47.91511 -4.99742,5.03095 -9.53585,5.40087 -14.78646,0.0659 -15.4143,-15.70133 -30.96554,-31.28721 -46.700587,-46.66768 -5.520542,-5.41947 -5.556813,-10.17801 -0.204842,-15.49614 15.397359,-15.32987 30.608429,-30.86197 46.140869,-46.056742 3.48635,-3.410397 5.98241,-5.086622 8.44313,-5.084898 z m -0.8743,38.45134 c -9.55619,0.0317 -18.79537,9.04814 -19.31897,19.10678 -0.52338,10.36622 8.66097,20.42716 19.21288,21.03465 10.23118,0.59088 20.29655,-8.91446 20.70175,-19.5677 0.40518,-10.48439 -8.61173,-19.90659 -19.67014,-20.54813 -0.30865,-0.018 -0.61726,-0.0266 -0.92552,-0.0256 z"
       inkscape:label="purple_sticker" /><path
       id="path42271"
       style="display:none;fill:#232323;stroke-width:1.68642"
       d="m 146.63899,37.835759 c -2.24294,3.08617 -5.19562,5.904226 -6.54477,9.344494 -1.56837,4.013719 -2.34438,8.581266 -2.37813,12.898504 -0.0842,11.737478 -4.1e-4,23.510201 0.85969,35.213932 0.38764,5.345951 4.62319,10.084531 10.01971,8.583651 4.21604,-1.18053 9.20627,-5.462197 10.60599,-9.492709 2.1755,-6.256625 1.58711,-13.458442 2.31226,-21.890559 l 0.0162,0.01619 c -1.6697,-8.061226 -2.9855,-17.607715 -5.88614,-26.646909 -1.06246,-3.305402 -5.88533,-5.396163 -9.0052,-8.026994 z m 77.24273,21.692934 c -0.16955,0.003 -0.33868,0.01619 -0.51053,0.02833 -10.82685,0.961256 -31.89158,18.497836 -30.86287,33.119084 -0.0457,7.881613 3.0888,12.008183 8.48152,11.182443 10.18598,-1.58525 30.15427,-22.125335 31.43596,-32.345059 0.80053,-6.371501 -3.28942,-12.080287 -8.54408,-11.986088 z M 69.70913,63.504296 c -5.736463,0.136363 -10.046054,5.480894 -8.385988,12.17388 1.399721,5.683212 4.29826,11.250659 7.536209,16.208761 5.362821,8.246593 12.295595,14.770683 23.122437,14.855003 v 0.0202 c 7.791252,0.0842 10.725642,-2.22689 8.853712,-8.820815 C 96.703744,83.488769 88.455575,71.547273 74.761837,64.700444 73.031648,63.83711 71.315338,63.466543 69.70913,63.5047 Z m 162.02498,81.452214 v 0.0202 c -11.23156,1.39976 -21.34944,2.35956 -31.36676,3.99539 -5.51464,0.91067 -9.86518,4.03014 -9.29181,10.55658 0.5565,6.23975 1.92239,12.95042 9.56186,13.40576 19.81546,1.19736 39.61502,0.54201 57.8621,-8.53093 2.71511,-1.34914 5.31155,-5.90459 5.22722,-8.90643 -0.0676,-2.27665 -4.19863,-5.68204 -7.0487,-6.37349 -8.48269,-2.02371 -17.23698,-2.95243 -24.94391,-4.16663 z m -174.781821,6.46901 c -2.881827,0.008 -5.761915,0.0668 -8.633019,0.2436 -5.986813,0.37105 -11.989689,2.49709 -12.259501,9.64752 -0.252899,6.89745 4.434906,11.7533 10.978216,12.411 15.262073,1.53467 30.625426,2.37773 45.954991,2.81619 7.066104,0.20232 11.096004,-3.86202 10.708124,-11.5184 -0.43847,-8.97174 -4.045324,-13.3729 -11.75225,-13.50781 -6.858239,-0.11815 -13.718097,-0.0162 -20.576337,-0.0162 v 0.0498 c -4.806282,0 -9.617219,-0.13676 -14.420224,-0.12503 z m 14.420224,0.0757 v -0.0162 l -0.01618,0.0162 z m 76.425887,49.99979 c -5.86109,0.0745 -8.87584,3.31475 -9.16993,8.77136 -0.7589,13.67687 -1.40143,27.38647 -1.33397,41.08017 0.0324,5.39656 2.95122,10.69221 9.2753,10.81025 6.81316,0.11815 9.21052,-5.32883 9.86821,-11.11325 0.70828,-6.27349 0.74191,-12.61485 1.12979,-20.22062 l 0.0162,-0.0162 c 0,-5.81816 0.14931,-12.94949 -0.053,-20.0493 -0.16873,-5.73383 -2.84954,-9.12396 -9.15678,-9.25887 -0.19504,-0.004 -0.38724,-0.004 -0.57637,-0.003 z m -51.880543,10.09546 c -0.815546,0.003 -1.710928,0.17682 -2.687723,0.53032 -14.958553,5.43027 -25.617147,15.78624 -30.760736,30.86282 -2.462178,7.21788 3.742127,13.94753 10.470964,12.61522 13.541959,-2.68137 28.366938,-19.83391 28.754828,-33.24092 l -0.0162,0.0162 c 0.19544,-6.85714 -1.831345,-10.79961 -5.760859,-10.78391 z m 105.546303,3.85372 c -0.79782,0.0498 -2.45449,0.0522 -4.06454,0.25371 -9.51141,1.23111 -11.97359,6.22122 -6.32408,13.84382 7.65635,10.33776 17.25212,18.66912 29.93398,21.90703 3.50776,0.8938 8.53158,-1.01172 11.73578,-3.23779 1.78761,-1.24798 2.32715,-6.139 1.55138,-8.83728 -3.06784,-10.7375 -20.99404,-23.76581 -32.81605,-23.92941 z"
       inkscape:label="black_sticker" /><path
       id="path42204"
       style="display:none;fill:#5a80b0;stroke-width:1.68642"
       d="m 201.56297,51.564296 c -7.79125,-0.101159 -8.38097,4.771282 -8.73515,10.876127 -0.87693,15.262072 -0.31926,30.997368 -3.97888,45.635487 -5.12671,20.45628 -5.12841,38.77033 8.36293,55.95496 4.92435,6.25662 6.42726,13.52407 4.55532,21.68634 -2.76573,11.99045 -4.70747,24.16684 -7.06849,36.24159 -1.06245,5.41344 -1.68418,10.75926 5.24702,12.51312 8.55015,2.15862 13.99782,-0.94397 15.71797,-8.44858 1.77078,-7.74067 3.28538,-15.53116 5.19102,-23.22125 5.17733,-20.97903 5.71801,-41.11549 -9.03815,-59.14334 -4.46901,-5.46398 -5.83596,-11.95541 -4.31816,-19.3082 2.91751,-14.0985 5.12881,-28.349948 7.64161,-42.532771 v -0.01619 l -1.87088,-0.3229 V 64.212654 c 0,-0.539665 -0.0202,-1.097336 -0.0364,-1.637001 -0.28648,-8.027358 -3.52443,-10.909954 -11.66982,-11.011154 z m -49.24222,15.464351 c -0.99497,0.640865 -4.99181,1.903171 -6.74567,4.601455 -14.67187,22.648606 -20.72796,47.019188 -12.00915,73.428538 7.0998,21.51873 9.9351,43.12062 4.26872,65.39826 -2.02367,7.92616 -4.57244,15.80242 -5.66861,23.86353 -0.43846,3.2042 1.48551,8.14527 4.01514,9.98349 4.06426,2.95123 8.55043,0.87653 10.81025,-3.77801 3.57517,-7.33592 8.0276,-14.53733 9.96699,-22.32862 7.03239,-28.24754 6.05386,-56.39213 -3.35635,-84.11687 -3.08617,-9.12356 -3.50946,-18.24737 0.35244,-27.25285 3.55834,-8.280342 7.59205,-16.358158 10.82996,-24.739696 3.97827,-10.299639 0.79426,-14.920558 -12.46368,-15.059227 z m -57.272458,8.616591 c -3.288529,1.90564 -7.991912,3.003016 -9.62774,5.85308 -5.565221,9.680018 -10.996264,19.645342 -14.723257,30.134882 -5.986812,16.86419 -1.518442,32.98685 6.913675,48.04656 4.452144,7.95991 5.818807,15.73251 1.940034,24.24891 -2.040587,4.45214 -3.930446,9.02341 -5.29642,13.72854 -2.360979,8.07793 -4.97352,16.18885 -6.103389,24.48606 -0.910677,6.76254 4.620393,9.90164 10.134993,7.91167 4.216038,-1.51775 8.163074,-5.86938 10.507178,-9.95052 3.069296,-5.34598 3.792343,-12.02525 6.692986,-17.52298 10.675058,-20.27079 10.728558,-40.15346 -0.823437,-60.0195 -6.846869,-11.75435 -5.954077,-23.44024 0.184515,-35.17771 3.170495,-6.05427 6.35875,-12.125247 8.95584,-18.415618 3.47401,-8.398371 1.11024,-11.654609 -8.738429,-13.290436 z"
       inkscape:label="blue_sticker" /><path
       style="display:none;fill:#883c33;stroke-width:1.68642"
       d="m 143.5442,221.74054 c -37.72527,0.91067 -59.345167,-27.94402 -59.986032,-58.45137 -0.573371,-27.573 10.725642,-49.26039 34.925832,-62.86981 25.49867,-14.334599 51.21661,-14.90797 76.2094,2.09117 3.37282,2.29353 7.31904,5.56518 10.8268,5.34595 4.90753,-0.28689 11.29906,-2.12492 14.06479,-5.64951 3.35599,-4.300404 1.66954,-10.15227 -3.60896,-14.300855 C 202.33288,77.129853 187.17196,68.984462 170.0885,66.741516 115.9712,59.624794 62.494769,96.085253 59.712159,154.94138 c -1.585208,33.49232 10.101691,61.23398 39.327354,79.24495 18.938527,11.67007 40.086297,13.57571 62.144657,10.57386 41.62092,-5.6495 70.03714,-40.52471 60.5257,-80.77958 -5.49773,-23.28951 -20.43941,-37.33739 -41.73896,-44.89257 -22.31134,-7.9262 -43.1218,-3.60892 -60.22214,13.10349 -11.65315,11.38334 -15.73428,25.76852 -10.94487,41.6715 4.73887,15.68371 16.62813,23.30635 32.14322,25.83598 14.06475,2.29352 29.64729,-5.59893 35.36425,-17.62309 3.50776,-7.36967 1.43347,-14.60442 -5.76754,-18.33141 -5.90248,-3.0693 -10.89429,-2.37785 -14.45263,4.26666 -4.03055,7.53827 -10.8943,9.46078 -17.80862,5.71696 -6.15546,-3.33911 -9.41025,-11.34964 -5.17733,-17.62314 3.76074,-5.58205 9.32592,-11.19781 15.38018,-13.72748 16.00414,-6.7288 36.84831,1.63587 45.61773,16.79678 9.03919,15.61629 5.3122,38.58533 -8.31409,49.71573 -11.60257,9.49453 -25.27943,12.91797 -42.22799,12.86739 z"
       id="path42023"
       inkscape:label="red_sticker" /><path
       id="path89764"
       style="display:none;fill:#c1c1c1;stroke-width:1.71288"
       d="m 140.67639,37.451496 c -1.57583,1.986913 -3.69969,3.75251 -4.6075,6.013505 -1.33603,3.322982 -2.57039,7.005747 -2.51892,10.517129 0.18842,17.762457 -7.96469,29.462507 -22.72961,39.482812 -10.80821,7.331048 -19.047137,13.201718 -31.636709,4.774439 -2.329525,-1.558715 -8.821809,0.58655 -11.596666,3.053109 -2.021178,1.7985 -1.714066,6.98489 -1.268735,10.51343 0.32546,2.55217 2.348747,5.02071 4.010238,7.23029 5.97793,7.89633 6.679963,16.70006 5.635109,26.17224 -0.787905,7.19403 -4.198885,10.48376 -11.307313,10.48376 -5.566807,0 -11.423641,-0.73626 -16.630785,0.71968 -4.676132,1.30178 -10.054497,4.29919 -12.349744,8.18741 -1.216137,2.05544 2.535361,9.74639 5.68704,11.09956 6.269105,2.70634 13.670555,3.66489 20.607638,3.75055 7.588024,0.10295 13.44633,1.26463 17.231756,8.73273 3.751181,7.41674 2.479634,13.22543 -3.498276,18.55244 -1.233255,1.09625 -2.669193,2.48524 -2.960389,3.95831 -0.428198,2.1925 -0.824316,5.44515 0.374693,6.64414 1.541582,1.54158 5.004207,2.57025 7.059651,1.9365 4.470574,-1.38743 8.408237,-4.47027 12.861678,-5.8577 3.18596,-0.97638 7.212814,-1.23631 10.313094,-0.17436 8.37595,2.89476 16.23792,7.38285 24.69947,9.84938 6.4404,1.88416 8.35888,5.26002 8.32469,11.34068 -0.0344,6.11496 0.12118,12.30058 1.04614,18.32985 0.77079,5.01874 2.78969,10.17517 9.36711,9.76406 6.5603,-0.41106 8.73626,-5.1237 9.18161,-10.94745 0.34257,-4.43633 -0.0509,-9.06123 1.07954,-13.29202 1.02772,-3.81972 2.79054,-8.42885 5.75382,-10.53567 10.61979,-7.55376 21.87544,-14.19644 32.87205,-21.16782 v 0.0152 c 4.24793,3.61416 7.41529,7.59087 11.52618,9.38937 3.34011,1.45586 8.7522,1.65841 11.49279,-0.17437 2.2438,-1.50733 2.72334,-6.93438 2.41503,-10.48003 -0.22268,-2.67208 -2.53494,-5.53524 -4.6075,-7.64208 -7.05701,-7.15977 -7.89529,-9.83037 -0.47855,-16.71611 4.05951,-3.76829 10.49833,-5.29252 16.13368,-7.02254 8.70137,-2.67208 17.81512,-4.09803 26.32807,-7.21546 2.86048,-1.04485 6.4066,-5.85323 6.04689,-8.43967 -0.37684,-2.72346 -4.72748,-6.02855 -7.96482,-6.97061 -6.90286,-2.02119 -14.19951,-3.68749 -21.34217,-3.68749 -10.27722,0 -16.03307,-4.76 -19.33892,-13.80396 -1.14759,-3.13453 -2.22749,-6.33565 -3.76909,-9.28179 -2.62066,-4.98443 -1.25215,-8.75394 2.25923,-12.81345 3.01465,-3.47714 6.50837,-7.60332 7.10788,-11.834088 0.58237,-4.059508 -1.60765,-9.062044 -4.03991,-12.676203 -0.77079,-1.147611 -6.3407,0.53126 -9.52664,1.524716 -2.3295,0.719394 -4.33296,2.481059 -6.52543,3.680068 -10.89387,5.926532 -12.56979,5.310484 -21.80218,-2.945536 -6.0978,-5.46405 -13.37563,-9.607644 -19.79891,-14.746234 -2.6207,-2.10684 -5.26226,-5.002688 -6.35849,-8.068701 -2.6892,-7.57091 -4.14502,-15.570505 -6.79997,-23.141376 -0.85643,-2.432245 -3.90239,-4.076242 -5.95785,-6.080288 z m 6.87416,64.304714 c 8.00632,0.12023 15.83667,3.02854 22.85945,9.62309 5.68672,5.34416 24.35639,23.79283 24.42496,42.70287 0.0855,22.47284 -19.52696,45.61255 -26.80662,48.2675 -21.68491,7.89633 -39.8271,0.78792 -57.53815,-10.15729 -9.83187,-6.08067 -18.015541,-15.51851 -16.148517,-34.05175 l 0.0152,-0.0152 c -1.370315,-27.76558 19.048897,-46.60927 38.729727,-53.76906 4.79174,-1.74072 9.6605,-2.67271 14.46431,-2.60053 z m -4.84865,27.18872 c -5.75472,0.0634 -11.88788,2.68613 -17.58047,10.35391 -10.17444,21.06828 9.13005,36.52029 17.5916,36.89712 10.43137,0.47958 21.46382,-8.20771 23.46785,-13.91154 v 0.019 c 3.63127,-10.31144 0.37458,-22.71094 -6.56254,-27.31856 -4.10232,-2.72348 -9.68944,-5.73247 -15.77012,-6.01721 v -0.004 c -0.38005,-0.0171 -0.76266,-0.0228 -1.14632,-0.019 z"
       inkscape:label="white_sticker" /><path
       id="path41970"
       style="display:none;fill:#85bfc0;stroke-width:1.68642"
       d="m 185.56503,45.826498 c -3.34304,-0.04289 -6.71051,1.396849 -9.13368,4.631075 -3.94623,5.278494 -1.9406,10.253754 2.57904,14.604698 3.35598,3.237908 6.47731,6.728149 9.49599,10.28653 6.84686,8.010485 5.63251,12.884382 -4.7727,14.46963 -13.77807,2.091166 -27.77698,2.717383 -41.67308,3.982198 v -0.01619 c -0.0324,-0.320473 -0.0684,-0.624922 -0.10197,-0.945314 -9.89929,0 -19.96736,-1.164182 -29.64742,0.303073 -11.24843,1.703281 -22.226524,5.498132 -33.188272,8.837242 -5.919319,1.80444 -7.217598,7.38759 -5.210759,12.04209 1.163616,2.69829 5.902486,4.95717 9.275301,5.37877 5.076135,0.62399 10.741585,0.52376 15.497288,-1.16269 19.208342,-6.79629 39.040422,-4.99391 58.754682,-5.53358 12.0242,-0.33746 24.18635,-0.97825 35.99128,-3.08629 15.56567,-2.78261 25.24573,-17.57308 21.50191,-32.582213 -3.18733,-12.783062 -12.31223,-22.023482 -22.85235,-29.140204 -1.95253,-1.315395 -4.22777,-2.039372 -6.5151,-2.068506 z m -1.85114,97.641222 c -5.62466,0.0283 -11.22986,0.26464 -16.79504,0.82344 -29.27624,2.93439 -57.62611,14.87265 -87.931102,8.49799 -5.396527,-1.12991 -8.584017,1.99078 -8.988736,7.97759 -0.607118,8.98861 1.248752,12.00652 10.507179,13.10268 7.352787,0.87693 14.807462,0.81159 25.549979,1.31754 h 0.0162 c 6.29033,-0.70831 15.86883,-1.41659 25.31278,-2.95126 28.80407,-4.70508 57.08596,-14.99453 86.96932,-6.93342 3.45718,0.92751 9.05676,2.04136 9.10734,-4.67061 0.0502,-6.02052 3.74241,-14.85646 -6.54477,-15.49729 -12.35937,-0.77682 -24.82908,-1.72828 -37.20341,-1.66666 z M 75.34152,198.11833 c -5.307142,0.0607 -7.647525,2.51515 -8.106019,8.57046 -0.775771,10.06791 6.238577,10.60773 12.697561,11.09678 17.252079,1.31539 80.999138,1.1626 95.552968,1.44929 l 0.0162,-0.0162 c 4.85686,0.0842 9.88218,0.74296 14.4861,2.21013 5.10984,1.61896 6.99731,5.41211 2.8656,10.03291 -3.62583,4.06425 -8.07494,7.47296 -11.22856,11.85765 -1.95626,2.73199 -2.88442,6.7288 -2.78326,10.11853 0.0324,1.11303 4.65507,2.79786 7.28586,3.01709 11.0292,0.92755 16.9819,-7.11526 24.048,-13.69228 7.97678,-7.42024 7.40256,-24.33493 0.0324,-32.32858 -7.55514,-8.17914 -16.20666,-12.76874 -27.53942,-12.26278 -18.38194,0.82635 -36.76227,1.90669 -55.16113,1.92356 -17.01598,0 -34.051008,-1.1976 -51.066981,-1.9565 -0.380359,-0.0162 -0.746313,-0.0243 -1.100128,-0.0202 z"
       inkscape:label="cyan_sticker" /><path
       id="path1123"
       class="d"
       d="m 149.36108,37.333695 c -13.02966,0.01022 -26.05949,0.06507 -39.08919,0.11447 -4.57004,0.01703 -7.83275,2.577213 -9.32907,6.867865 -1.82079,5.228081 -1.966297,10.709938 1.63028,15.117752 2.95656,3.614563 7.50879,2.910095 11.48394,1.485897 1.60449,-0.576916 2.71277,-2.43232 4.22708,-3.441871 1.43323,-0.964479 3.10245,-1.578835 4.66186,-2.345036 0.63098,1.460278 1.6217,2.885022 1.83803,4.408394 0.46871,3.299089 -1.0194,5.868159 -4.2464,6.832638 -7.7069,2.298566 -15.4042,4.696408 -23.237324,6.454137 -11.429668,2.568968 -17.135049,8.59868 -17.748009,20.307778 -0.504792,9.689991 -1.018307,19.416991 -0.838016,29.106981 0.621954,33.23442 1.242648,66.46877 2.531628,99.68516 0.441698,11.53784 2.623342,23.03087 4.498266,34.46957 0.28856,1.72165 3.118799,4.01078 5.029768,4.29924 6.237667,0.92843 12.592937,1.34315 18.911717,1.42426 23.26499,0.29742 46.52092,0.39666 69.78591,0.52289 9.57284,0.0542 19.13627,0.007 28.7091,-0.0545 4.47994,-0.0273 7.74353,-2.09917 8.84322,-6.50698 0.92844,-3.69572 1.63989,-7.50951 1.82921,-11.3044 l 0.0102,0.017 c 1.34308,-26.58213 2.84022,-79.78207 2.37147,-79.79107 0,-8.67141 0.22451,-17.3601 -0.046,-26.02252 -0.51379,-16.17102 -1.20742,-32.33396 -2.04571,-48.486946 -0.43267,-8.355942 -4.55196,-14.205568 -12.99804,-16.242727 -6.56214,-1.586433 -13.16999,-3.037921 -19.80428,-4.272835 -7.50863,-1.397148 -10.32899,-4.038103 -10.63547,-11.123052 -0.0542,-1.19887 1.18923,-2.451874 1.82921,-3.677761 1.15379,0.838289 2.45208,1.550253 3.4436,2.559804 1.45125,1.478299 2.37931,4.002978 4.07395,4.624932 7.77902,2.866454 12.38552,0.269823 14.55787,-7.635462 C 202.06168,45.794514 197.0959,37.563978 188.4516,37.482861 175.42194,37.356808 162.392,37.32308 149.36234,37.3333 Z m 0.68662,77.815785 c 2.6726,-0.0204 5.34244,1.30066 8.04213,3.98233 13.15136,13.06121 26.2499,26.16871 39.31101,39.31104 4.57911,4.60613 4.55206,6.9049 0,11.48397 -12.86279,12.917 -25.68154,25.87014 -38.72472,38.60685 -2.2445,2.19939 -5.49797,3.36133 -8.66188,5.21823 l 0.0102,0.0102 c -3.38024,-1.94701 -6.55307,-3.03836 -8.71642,-5.15664 -13.25049,-12.94401 -26.30271,-26.09495 -39.36385,-39.22828 -4.263564,-4.29965 -4.219138,-5.89498 0.0985,-10.22167 13.2956,-13.33165 26.60956,-26.64442 39.9501,-39.92196 2.70872,-2.69516 5.3836,-4.06127 8.05624,-4.0827 z m -0.29572,17.07897 c -1.31378,-9.2e-4 -2.64562,0.89392 -4.50699,2.71474 -8.29284,8.11256 -16.4145,16.40476 -24.63522,24.58944 -2.85743,2.83937 -2.83842,5.38105 0.10902,8.27452 8.40101,8.2117 16.70302,16.53214 24.93278,24.91513 2.80332,2.8484 5.22791,2.65094 7.89605,-0.0351 8.49102,-8.53623 17.04582,-17.02814 25.51893,-25.5824 0.87436,-0.88336 1.42348,-2.0996 2.43306,-3.63197 v -0.0102 c -1.37916,-1.84787 -2.4794,-3.72348 -3.95766,-5.2288 -7.73399,-7.84215 -15.53935,-15.62155 -23.3905,-23.34648 -1.78928,-1.76222 -3.08582,-2.65908 -4.3996,-2.6602 z m 0.0273,20.5437 c 5.90413,0.34252 10.71794,5.37226 10.50161,10.96991 -0.21634,5.68781 -5.59027,10.76251 -11.05274,10.44704 -5.6337,-0.32434 -10.53632,-5.69591 -10.25689,-11.23047 0.28856,-5.54359 5.53486,-10.49296 10.80802,-10.18648 z"
       style="display:none;fill:#a778aa;stroke-width:0.901394"
       inkscape:label="purple" /><path
       id="path41213"
       style="display:none;fill:#83945f;stroke-width:1.68642"
       d="m 84.840828,52.463522 c -1.605884,0.01619 -3.390092,0.586967 -5.279951,1.775347 -5.801286,3.642667 -11.805093,7.000226 -17.420853,10.895873 -5.531474,3.828152 -5.989483,11.195871 -0.592916,15.26013 3.288529,2.479051 7.775998,3.355738 13.425505,5.63239 h 0.01619 C 81.279129,82.82306 89.659736,80.851667 93.8589,75.556299 96.455985,72.26777 93.489871,63.667526 91.53349,57.96744 90.316098,54.414886 87.90628,52.430504 84.840504,52.463522 Z m 73.948942,10.737741 c -4.12063,0.05746 -7.98601,1.782225 -9.59812,4.766143 -6.74567,12.513208 -13.81242,25.076835 -13.32338,40.204044 l 0.0162,0.0162 c 1.33227,9.49454 1.92425,19.19082 4.28523,28.41554 1.18049,4.57022 4.82263,9.44476 8.73515,12.19363 7.11668,5.00868 15.14392,8.83513 23.05324,12.579 8.88746,4.19917 15.55026,2.37838 21.72256,-5.36229 7.18417,-9.02237 14.35042,-18.06108 21.26474,-27.2858 6.32408,-8.44895 6.18796,-23.8452 -1.21541,-29.545323 C 198.53531,87.461742 182.81701,76.382852 166.9647,65.55605 c -2.41844,-1.651123 -5.35583,-2.394199 -8.17522,-2.35507 z M 102.09044,152.081 c -0.86706,0.008 -1.7132,0.0522 -2.513164,0.12179 -4.182332,0.35406 -8.076805,3.28825 -12.275969,4.36758 -7.892453,2.02367 -10.777719,7.62316 -12.025662,14.87475 -3.575214,20.79355 -7.351492,41.57075 -10.876086,62.38116 -2.293525,13.5588 2.325168,19.10621 15.968286,19.29174 11.535119,0.15174 23.069755,0.0364 38.669135,0.0364 l 0.0202,-0.0202 c 11.01233,-0.72515 26.10518,-1.27998 41.06373,-2.88207 8.14539,-0.86009 17.28607,-9.96779 17.13429,-16.67976 -0.28689,-12.59757 -3.34004,-25.36368 -12.32865,-34.01503 -16.57751,-15.93664 -34.5706,-30.4212 -52.46355,-44.90754 -2.46638,-2.00053 -6.61501,-2.61016 -10.37215,-2.56917 z m 126.21154,27.19025 c -14.11533,13.08662 -25.39646,25.24509 -27.1672,43.59337 -1.63582,16.94852 -1.90855,16.9314 15.57964,17.85891 12.20969,0.64087 16.64524,-2.95045 16.71269,-15.21072 0.0676,-11.51825 -0.77362,-23.03734 -1.63372,-34.53872 -0.2529,-3.37285 -1.92304,-6.6267 -3.49141,-11.70284 z"
       inkscape:label="green_sticker" /><path
       style="display:none;fill:#000000;fill-opacity:0;stroke:#000000;stroke-width:1.68642;stroke-opacity:0"
       d="m 116.56711,133.40573 c -0.60712,-0.42164 -1.21424,-0.84323 -1.82135,-1.24799 -8.88746,8.48274 -20.135893,15.56568 -26.240738,25.71795 -20.540607,34.18376 -8.971742,74.70852 23.070278,91.92685 37.96134,20.40574 86.17615,9.444 97.2391,-44.79137 5.71696,-27.96085 2.108,-56.19155 -16.56068,-79.91953 -11.48454,-14.60441 -13.64316,-30.541096 -10.01736,-48.063028 1.93938,-9.410206 3.44031,-18.904779 5.32911,-29.461769 -8.98865,8.819962 -17.01601,16.678708 -24.99279,24.57116 -0.7589,0.758897 -1.78761,1.770734 -1.80448,2.681411 -0.28689,14.418888 -2.3441,29.141376 -0.0842,43.172376 2.27669,14.13225 8.88745,27.57301 13.5757,41.31737 6.23975,18.31453 3.84503,35.41487 -6.03739,52.09358 -12.22656,20.62493 -40.35607,19.91661 -52.80186,-0.96126 -8.97178,-15.05975 -10.18598,-31.14822 -6.71196,-47.75947 2.07429,-9.86559 5.19416,-19.5119 7.84187,-29.25945 z"
       id="path42231"
       inkscape:label="yellow_sticker" /><path
       class="g"
       d="m 79.37444,95.556421 c 0.107997,-13.070236 5.96723,-20.83124 18.938327,-22.886422 7.310313,-1.162791 14.395263,-3.776831 21.534313,-5.895107 3.78586,-1.126747 5.38135,-4.002195 4.79544,-7.815105 -0.20713,-1.35211 -1.11775,-3.389269 -2.09126,-3.641648 -1.14476,-0.297418 -3.48837,0.658033 -3.94809,1.676612 -1.59546,3.560497 -4.60613,4.308641 -7.83313,4.822462 -5.94921,0.946456 -9.38351,-1.316032 -10.56436,-7.166101 -1.802768,-8.905773 1.33409,-17.487078 13.1784,-17.32481 24.10332,0.333531 48.21562,0.09914 72.32797,0.09028 5.48046,0 10.35702,1.41517 12.80882,6.769475 2.50588,5.471466 1.4332,10.951926 -1.37013,16.044823 -1.88392,3.407291 -5.30923,3.208978 -8.5903,2.947571 -3.30811,-0.261305 -6.67933,-0.649005 -7.59877,-4.624149 -0.54983,-2.39774 -1.66758,-4.128418 -4.07428,-3.091817 -0.92843,0.396625 -1.49632,2.902498 -1.33409,4.344753 0.73915,6.607207 3.02869,8.689439 10.11367,10.149682 6.89567,1.424233 13.78234,2.848432 20.6239,4.516016 8.07651,1.974029 12.02464,7.670858 12.5294,15.612153 0.8293,12.889951 1.75773,25.806941 1.79378,38.714911 0.0811,32.59447 -0.0991,65.19794 -0.64901,97.79238 -0.16217,9.49168 -1.82982,18.97437 -3.01966,28.43001 -0.57688,4.55203 -3.54247,7.13002 -8.49116,7.38244 -5.72384,0.28856 -11.46575,0.31547 -17.18959,0.22519 -32.7657,-0.52282 -65.53144,-1.18085 -98.306167,-1.62251 -4.849512,-0.063 -7.508625,-2.02817 -8.103529,-6.70638 C 83.565919,244.25958 81.844268,234.23605 81.258359,224.15846 80.023444,202.75933 79.212206,117.00059 79.392462,95.556421 Z M 195.97892,159.1048 c -6.00327,0.74814 -11.41164,1.26193 -16.76595,2.1363 -2.94757,0.48673 -5.27315,2.15432 -4.96667,5.64273 0.29742,3.33516 1.02757,6.92271 5.11088,7.1661 10.59142,0.63997 21.1738,0.28856 30.92689,-4.56106 1.45125,-0.72113 2.83941,-3.15491 2.79433,-4.75936 -0.0361,-1.2169 -2.2445,-3.03772 -3.76783,-3.4073 -4.53404,-1.08167 -9.21226,-1.57743 -13.33165,-2.22644 z m -85.71367,3.47938 v 0.0361 c -4.11036,0 -8.22972,-0.18942 -12.322058,0.063 -3.19995,0.19828 -6.408928,1.33405 -6.55314,5.15596 -0.135252,3.68672 2.370655,6.28274 5.868057,6.63429 8.157631,0.82026 16.369361,1.27096 24.563031,1.50531 3.77683,0.10834 5.93119,-2.06417 5.72385,-6.15651 -0.23439,-4.79545 -2.16335,-7.14808 -6.28271,-7.22017 -3.6687,-0.063 -7.33736,-0.0102 -11.00602,-0.0102 z m 48.1886,-42.21235 c -0.89238,-4.30867 -1.59549,-9.41056 -3.14588,-14.24205 -0.56789,-1.76673 -3.14585,-2.88444 -4.81343,-4.29062 -1.19887,1.64953 -2.77631,3.15488 -3.49744,4.99372 -0.83829,2.14533 -1.25293,4.58811 -1.27096,6.89567 -0.045,6.27371 0,12.56544 0.45972,18.82113 0.20748,2.85743 2.46983,5.39035 5.35427,4.5881 2.2535,-0.63098 4.92164,-2.92052 5.66978,-5.07484 1.16279,-3.34419 0.84732,-7.19315 1.23492,-11.70013 z m -2.10928,84.61398 c 0,-3.10984 0.0811,-6.92272 -0.0273,-10.7176 -0.0903,-3.06474 -1.52334,-4.87653 -4.89459,-4.94865 -3.33513,-0.0722 -5.04779,1.67657 -5.21005,4.68724 -0.40562,7.31031 -0.74815,14.63868 -0.7121,21.95799 0.017,2.88447 1.57743,5.71485 4.95768,5.77794 3.64164,0.063 4.92163,-2.8484 5.27315,-5.94018 0.3786,-3.35319 0.39662,-6.74246 0.60393,-10.80775 z m 18.66789,-73.84231 c -0.0273,4.21853 1.64957,6.42695 4.53404,5.98526 5.44442,-0.84729 16.11695,-11.8263 16.802,-17.28874 0.4417,-3.51545 -1.90194,-6.65231 -4.84049,-6.3909 -5.78697,0.51379 -17.04538,9.88831 -16.49555,17.70341 z m 4.79545,65.63058 c -0.42368,0.0273 -1.31607,0.0273 -2.1814,0.13525 -5.08387,0.65803 -6.39991,3.32617 -3.38021,7.40046 4.09234,5.52557 9.22125,9.97845 15.99975,11.70913 1.87489,0.47774 4.56105,-0.54084 6.27371,-1.73068 0.95548,-0.66702 1.24394,-3.2811 0.82929,-4.72332 -1.64053,-5.7419 -11.23138,-12.70966 -17.55017,-12.79081 z m -58.5276,-58.0949 c 4.16446,0.045 5.73287,-1.18984 4.73231,-4.7143 -2.20842,-7.72496 -6.61623,-14.10683 -13.93557,-17.7665 -4.22753,-2.10929 -8.31987,1.28898 -7.18409,5.86809 0.74814,3.03768 2.29853,6.0123 4.02921,8.66239 2.86645,4.40784 6.5712,7.89622 12.35814,7.94129 z m 5.183,61.79964 c 0.12606,-4.42583 -1.47826,-6.58019 -4.51598,-5.48049 -7.99536,2.9025 -13.69219,8.43706 -16.44145,16.49555 -1.31603,3.85798 2.00112,7.45452 5.59766,6.74242 7.23822,-1.43323 15.1615,-10.60041 15.3688,-17.76651 z"
       id="path1111"
       style="display:none;fill:#232323;stroke-width:0.901394"
       inkscape:label="black" /><path
       class="i"
       d="m 150.09733,262.68044 c -18.61382,-0.70307 -37.21862,-1.35208 -55.823415,-2.14529 -7.075955,-0.29742 -8.346914,-1.26197 -9.329449,-8.38299 -1.442221,-10.43814 -3.055704,-20.93038 -3.407257,-31.43165 -1.117753,-33.10826 -1.892947,-66.22552 -2.352633,-99.3518 -0.153308,-11.09617 0.486736,-22.27346 1.802768,-33.288515 1.063652,-8.887751 7.44553,-13.250492 16.062879,-15.107361 7.968307,-1.721684 15.801437,-4.11939 23.625567,-6.435979 3.6236,-1.072646 4.93963,-4.047267 4.42584,-7.59877 -0.19828,-1.352075 -1.10872,-3.371212 -2.09122,-3.650642 -1.13578,-0.315474 -3.51546,0.61296 -3.95713,1.613518 -1.64956,3.758809 -4.85854,4.479903 -8.22072,4.939623 -5.77795,0.79325 -8.99595,-1.460244 -10.12267,-7.157073 -1.703659,-8.590299 0.79322,-17.559167 13.49388,-17.360888 23.76076,0.369575 47.53957,0.279361 71.30036,0.03611 14.30515,-0.144109 17.5051,11.745177 12.22291,22.408679 -1.63153,3.290096 -4.74134,3.704743 -7.93226,3.434308 -3.47039,-0.28856 -7.34639,-0.153309 -8.51821,-4.606127 -0.59491,-2.271516 -1.64953,-4.263602 -4.06529,-3.127827 -1.00052,0.468714 -1.54136,3.190922 -1.33405,4.759366 0.79321,6.246661 3.11883,8.220725 10.08662,9.671974 7.02185,1.460243 14.05273,2.884442 20.99347,4.660193 7.42751,1.892947 11.42067,7.1661 11.92547,14.58458 0.91944,13.593051 1.87489,27.213121 1.91996,40.824191 0.1172,32.08968 -0.0542,64.17933 -0.60393,96.26901 -0.16217,9.47366 -1.83885,18.93833 -3.08276,28.36692 -0.63098,4.78638 -3.59657,7.26524 -8.89678,7.39142 -9.82521,0.22554 -19.65942,0.10834 -29.48463,0.12606 -9.53675,0.0102 -19.07351,0 -28.6103,0 l -0.017,0.54986 z m 37.01128,-136.99403 -1.00055,-0.17136 c 0,-3.07376 0,-6.14752 0,-9.23028 0,-0.28856 -0.0102,-0.58591 -0.017,-0.87436 -0.1533,-4.29066 -1.88392,-5.83202 -6.23766,-5.88612 -4.16443,-0.0542 -4.47994,2.55095 -4.66922,5.81399 -0.46872,8.15763 -0.17137,16.56768 -2.12727,24.39177 -2.74027,10.93391 -2.74027,20.72308 4.4709,29.90828 2.63207,3.3442 3.43431,7.2292 2.43375,11.59194 -1.47826,6.40893 -2.5149,12.91699 -3.77683,19.37099 -0.56788,2.89347 -0.90141,5.7509 2.80333,6.68836 4.57008,1.1538 7.48157,-0.50479 8.40101,-4.51598 0.94646,-4.13741 1.75773,-8.30187 2.77631,-12.41224 2.76728,-11.21333 3.05571,-21.97601 -4.83149,-31.6119 -2.38871,-2.92052 -3.11883,-6.39091 -2.30756,-10.32098 1.55938,-7.53567 2.74023,-15.15247 4.08331,-22.73318 z m -33.57697,-7.89622 c -0.53184,0.34253 -2.66814,1.01858 -3.60557,2.4608 -7.84215,12.10576 -11.07815,25.13089 -6.41796,39.24676 3.79489,11.50179 5.30924,23.04868 2.28055,34.9561 -1.08168,4.23655 -2.44278,8.44608 -3.02869,12.75476 -0.23439,1.71262 0.79322,4.35371 2.14533,5.33625 2.17234,1.57743 4.57005,0.46871 5.77794,-2.01914 1.91094,-3.92108 4.29062,-7.77003 5.32722,-11.93446 3.75885,-15.09837 3.23603,-30.14267 -1.79377,-44.96161 -1.64956,-4.87652 -1.87489,-9.75309 0.18942,-14.56652 1.90194,-4.42587 4.0563,-8.74354 5.78697,-13.22348 2.12727,-5.50754 0.42365,-7.97733 -6.67033,-8.04946 z m -30.61138,4.60613 c -1.75773,1.01858 -4.27263,1.60449 -5.14696,3.12783 -2.97463,5.17401 -5.87712,10.50126 -7.86918,16.10795 -3.19998,9.01394 -0.81127,17.63129 3.69572,25.68075 2.37968,4.25457 3.1098,8.41001 1.0366,12.96207 -1.0907,2.37968 -2.10025,4.82246 -2.83037,7.33733 -1.26197,4.3177 -2.65912,8.65339 -3.26308,13.08826 -0.48674,3.61459 2.46983,5.29121 5.4174,4.22755 2.25349,-0.81127 4.36274,-3.13685 5.61567,-5.31822 1.64057,-2.85743 2.02817,-6.42695 3.57856,-9.3655 5.70582,-10.83476 5.73287,-21.46222 -0.4417,-32.08065 -3.65964,-6.28274 -3.18189,-12.5294 0.0991,-18.80311 1.69463,-3.23603 3.39826,-6.48105 4.78642,-9.84323 1.85686,-4.48897 0.59493,-6.22864 -4.66923,-7.10301 z"
       id="path1117"
       style="display:none;fill:#5a80b0;stroke-width:0.901394"
       inkscape:label="blue" /><path
       class="e"
       d="m 218.49165,245.10686 c -0.18942,3.65064 -0.94646,7.30132 -1.78478,10.87084 -0.94646,4.03824 -3.79486,6.26469 -7.90522,6.48102 -4.40781,0.23439 -8.82465,0.23439 -13.2415,0.20748 -28.70041,-0.16217 -57.40985,-0.28856 -86.11029,-0.59494 -6.31875,-0.063 -12.664587,-0.54084 -18.911247,-1.40618 -1.856903,-0.25244 -4.461915,-2.20838 -4.939658,-3.89402 -1.514343,-5.33625 -2.713213,-10.87984 -3.091782,-16.4144 -1.35211,-19.65039 -2.89347,-39.31884 -3.272073,-58.99632 -0.540837,-28.36688 -0.153309,-56.75182 -0.05417,-85.136756 0.01022,-2.902498 0.549865,-5.850069 1.171819,-8.698467 1.802802,-8.274825 7.301284,-12.565443 15.359774,-14.440368 8.112557,-1.892913 16.125937,-4.209501 24.130327,-6.517062 3.83094,-1.108724 5.28219,-4.083345 4.74135,-7.869205 -0.18022,-1.243909 -1.18984,-3.35319 -1.84784,-3.362184 -1.49632,-0.02725 -3.16391,0.775194 -4.46192,1.667584 -1.61348,1.099696 -2.70418,3.208944 -4.41684,3.857948 -3.9391,1.496322 -8.49112,2.181405 -11.50179,-1.379126 -3.704744,-4.380764 -3.416286,-9.888308 -1.72168,-15.107395 1.39718,-4.317669 4.69627,-6.913687 9.25732,-6.931709 26.05936,-0.108338 52.10968,-0.216335 78.169,0.01703 8.63538,0.08108 13.75529,8.337886 11.31251,17.153548 -2.20839,7.959351 -6.63426,10.483246 -14.52145,7.770032 -1.63154,-0.558859 -2.65012,-2.794296 -4.08331,-4.119356 -1.20787,-1.117753 -2.60505,-2.037159 -3.92108,-3.04671 -0.50479,1.478265 -1.55942,3.001638 -1.43323,4.425836 0.59494,6.52609 3.41629,8.959874 10.55534,10.31195 6.7785,1.279987 13.52995,2.722242 20.21831,4.389792 7.81507,1.938019 12.02461,7.346391 12.4753,15.188512 0.95549,16.585696 1.66759,33.180386 2.23547,49.784066 0.29742,8.66243 0.0542,17.34284 0.0542,26.02328 0.45969,0.0102 -1.0997,53.19132 -2.46983,79.76446 z m -69.6508,-44.9706 c -20.16421,0.48674 -31.7201,-14.93613 -32.06263,-31.24236 -0.30661,-14.73782 5.73288,-26.32976 18.6679,-33.60402 13.62909,-7.66184 27.37535,-7.96832 40.73404,1.11775 1.80277,1.22588 3.91205,2.97459 5.78694,2.85742 2.62307,-0.1533 6.03936,-1.13577 7.51766,-3.01969 1.79377,-2.29857 0.89238,-5.42639 -1.929,-7.64381 -7.29229,-5.75992 -15.39581,-10.11367 -24.52695,-11.31254 -28.92578,-3.80388 -57.50903,15.68428 -58.99632,47.14298 -0.84732,17.90172 5.39934,32.72965 21.02052,42.35655 10.12267,6.23767 21.42618,7.25625 33.21643,5.65176 22.24641,-3.01966 37.43492,-21.66054 32.35106,-43.17682 -2.93855,-12.44829 -10.92491,-19.95691 -22.30951,-23.99515 -11.92547,-4.23655 -23.04869,-1.92899 -32.18885,7.00383 -6.22864,6.08443 -8.41001,13.77334 -5.85004,22.2735 2.53292,8.38295 8.88775,12.45727 17.1806,13.80935 7.51762,1.22592 15.84651,-2.99261 18.90225,-9.41956 1.87489,-3.9391 0.7662,-7.80608 -3.08279,-9.79816 -3.15488,-1.64054 -5.82298,-1.27096 -7.72493,2.28051 -2.15435,4.02924 -5.82301,5.05685 -9.51873,3.05573 -3.29009,-1.78474 -5.0298,-6.06637 -2.76731,-9.41956 2.01014,-2.98365 4.98473,-5.98528 8.22072,-7.33736 8.55426,-3.59657 19.6955,0.87433 24.38274,8.9779 4.83149,8.34691 2.83941,20.6239 -4.44385,26.57311 -6.20163,5.07487 -13.51194,6.90469 -22.57095,6.87764 z"
       id="path1119"
       style="display:none;fill:#883c33;stroke-width:0.901394"
       inkscape:label="red" /><path
       id="path1125-5"
       style="display:none;fill:#c1c1c1;stroke-width:0.901803"
       class="k"
       d="m 113.83504,37.271222 c -12.517,-0.216433 -15.069374,9.343453 -13.16658,17.631002 1.26253,5.482949 4.33754,7.647996 9.9287,6.917538 3.3547,-0.432865 6.55543,-1.119107 8.30493,-4.834526 0.49598,-1.055107 2.88605,-1.632725 4.38304,-1.596653 0.62223,0.01804 1.55186,2.191106 1.70517,3.462644 0.44188,3.535058 -0.73152,6.512301 -4.41987,7.603478 -7.53906,2.236468 -15.0773,4.580854 -22.742618,6.303292 -11.849662,2.651294 -17.459423,8.783564 -18.018539,20.903754 -0.396792,8.648289 -0.973544,17.306349 -0.802202,25.945609 0.685369,34.44879 1.379142,68.91444 2.623627,103.35422 0.387774,10.63223 2.516334,21.21095 3.914125,31.80711 0.532062,4.00399 2.930458,5.55504 6.979544,5.6813 20.380703,0.64929 40.753283,1.49735 61.133983,2.2729 0.009,-0.21386 0.0271,-0.42752 0.0271,-0.64137 H 168.222 c 13.21137,-0.009 26.42204,0.0719 39.63342,-0.0814 5.51,-0.0631 8.63989,-2.633 9.26213,-7.50272 1.18136,-9.29756 2.80502,-18.61168 3.00342,-27.94531 0.64028,-29.61514 0.9918,-59.23937 0.88358,-88.85451 -0.0631,-15.97089 -1.12635,-31.94287 -2.04619,-47.895719 -0.45993,-7.962894 -4.61863,-13.535561 -12.63565,-15.501485 -6.67332,-1.632261 -13.40907,-3.076032 -20.16355,-4.365607 -7.14227,-1.370738 -9.71219,-3.634042 -10.3705,-10.370493 -0.13527,-1.379757 0.96382,-2.885909 1.49589,-4.32879 1.28056,1.028054 3.16512,1.804386 3.72423,3.13905 1.25351,2.984961 3.26558,4.310746 6.32268,4.563251 3.51701,0.297593 7.39523,1.162734 9.67679,-2.354288 3.26452,-5.032049 4.24712,-10.713267 1.76717,-16.340504 -2.36272,-5.356697 -7.18705,-6.863283 -12.71509,-6.863283 -24.07808,0.02705 -48.15623,0.306318 -72.22529,-0.10851 z m 34.16914,65.642978 c 1.08217,1.0551 2.68622,1.92051 3.13712,3.20105 1.39779,3.98596 2.16502,8.19821 3.58084,12.18418 0.57716,1.61421 1.96662,3.13818 3.34638,4.2474 3.38176,2.7054 7.21435,4.88757 10.42475,7.76431 4.86071,4.34668 5.74339,4.67038 11.47885,1.55015 1.15431,-0.63126 2.20907,-1.55894 3.43552,-1.93769 1.67735,-0.52304 4.60892,-1.4064 5.01473,-0.8022 1.28055,1.9028 2.43419,4.53612 2.12758,6.67339 -0.31563,2.22744 -2.1545,4.399 -3.74167,6.22966 -1.84869,2.13727 -2.56949,4.12278 -1.18975,6.74702 0.81163,1.5511 1.37999,3.23655 1.98419,4.88684 1.74048,4.76151 4.76981,7.26826 10.18061,7.26826 3.76051,0 7.60238,0.8755 11.23663,1.93963 1.70441,0.49598 3.99476,2.23611 4.19316,3.66997 0.18938,1.36172 -1.67762,3.89496 -3.18362,4.44506 -4.48195,1.64128 -9.27912,2.39104 -13.86026,3.79785 -2.96693,0.91083 -6.35755,1.71315 -8.49482,3.69711 -3.9048,3.62524 -3.46351,5.03145 0.25191,8.80097 1.09117,1.10922 2.30874,2.61583 2.42598,4.02264 0.16232,1.86673 -0.0898,4.72494 -1.27113,5.51853 -1.44288,0.96493 -4.29287,0.85759 -6.05139,0.0911 -2.16432,-0.94688 -3.83236,-3.04023 -6.06883,-4.94303 v -0.008 c -5.78956,3.67033 -11.7143,7.16862 -17.30547,11.14556 -1.56012,1.10921 -2.48947,3.53465 -3.03055,5.54567 -0.59512,2.22745 -0.38737,4.66326 -0.56773,6.99892 -0.23447,3.06612 -1.38063,5.54625 -4.83453,5.76267 -3.46291,0.21644 -4.5256,-2.49839 -4.93141,-5.14068 -0.487,-3.17433 -0.56836,-6.43024 -0.5503,-9.64967 0.018,-3.20139 -0.99228,-4.97803 -4.38305,-5.97001 -4.45489,-1.29859 -8.59399,-3.66121 -13.00381,-5.18526 -1.63225,-0.5591 -3.75204,-0.42295 -5.4294,0.0911 -2.34467,0.73046 -4.41851,2.3524 -6.77221,3.08286 -1.08216,0.33366 -2.90485,-0.2076 -3.71647,-1.01922 -0.63126,-0.63126 -0.42309,-2.34321 -0.19765,-3.49753 0.15331,-0.77555 0.91055,-1.50585 1.55984,-2.08301 3.14729,-2.8046 3.81574,-5.86307 1.8408,-9.76787 -1.99298,-3.93185 -5.07726,-4.54396 -9.07225,-4.59813 -3.65227,-0.0451 -7.548505,-0.54965 -10.849097,-1.9745 -1.659313,-0.71242 -3.634004,-4.7619 -2.993725,-5.84406 1.208414,-2.04709 4.039021,-3.62598 6.500936,-4.31135 2.741486,-0.76653 5.825556,-0.37785 8.756396,-0.37785 3.74248,0 5.53775,-1.73291 5.95257,-5.52046 0.5501,-4.98697 0.1807,-9.62159 -2.96659,-13.7789 -0.87475,-1.16331 -1.93879,-2.46192 -2.11014,-3.8056 -0.23446,-1.85772 -0.39756,-4.58909 0.66656,-5.53597 1.46092,-1.29861 4.87919,-2.42698 6.10565,-1.60634 6.62823,4.43685 10.96599,1.34458 16.65635,-2.51512 7.77352,-5.27554 12.06635,-11.43581 11.96714,-20.78749 -0.0271,-1.84869 0.62198,-3.78647 1.32538,-5.53597 0.47795,-1.19038 1.59633,-2.1201 2.42598,-3.16618 z m 3.6196,33.85524 c -2.52913,-0.038 -5.09232,0.45349 -7.6151,1.36995 -10.36169,3.76952 -21.11172,13.68946 -20.39027,28.30764 l -0.008,0.008 c -0.98296,9.75749 3.32622,14.72607 8.50256,17.92747 9.32462,5.76249 18.87505,9.50531 30.29185,5.34801 3.83264,-1.39779 14.15914,-13.58112 14.1141,-25.41275 -0.0361,-9.95587 -9.86644,-19.66741 -12.86042,-22.48103 -3.69739,-3.47193 -7.81975,-5.00372 -12.03497,-5.06705 z m -1.94931,14.32532 c 3.2014,0.14991 6.14317,1.73425 8.30299,3.16812 3.65229,2.42584 5.3667,8.95459 3.45489,14.38343 v -0.01 c -1.0551,3.00298 -6.86272,7.57694 -12.35469,7.32445 -4.45489,-0.1984 -14.61883,-8.33315 -9.26213,-19.4253 3.19688,-4.3061 6.65754,-5.59095 9.85894,-5.44102 z"
       inkscape:label="white" /><path
       class="h"
       d="m 79.559909,159.48756 c 0,-21.15574 -0.08108,-42.32051 0.02725,-63.476257 0.07223,-13.629095 6.021332,-21.480245 19.334953,-23.508375 7.175098,-1.090703 14.115838,-3.722765 21.128698,-5.786975 4.07432,-1.198869 5.39934,-4.326697 4.8585,-8.220724 -0.17136,-1.225886 -1.18081,-3.190922 -1.97403,-3.281067 -1.31603,-0.14411 -2.92954,0.73915 -4.11939,1.604489 -1.57743,1.153763 -2.62306,3.281067 -4.31767,3.957122 -3.91204,1.568411 -8.50918,2.271516 -11.56492,-1.108724 -3.848954,-4.24558 -3.65967,-9.780141 -2.00108,-15.026278 1.4242,-4.515982 4.82247,-7.166066 9.54579,-7.184089 26.0413,-0.108337 52.07357,-0.252447 78.1149,0.06303 8.86973,0.108338 13.68316,8.572243 10.90689,17.676363 -2.31659,7.580713 -7.57172,10.257849 -14.84599,7.075921 -1.56844,-0.685049 -2.26252,-3.163872 -3.63262,-4.552026 -1.05466,-1.07268 -2.54195,-1.721685 -3.83093,-2.559974 -0.50479,1.19887 -1.4873,2.424756 -1.43323,3.596576 0.34253,7.130021 2.93854,9.662945 10.57336,11.177289 6.76048,1.343081 13.51193,2.785336 20.20026,4.42587 8.06751,1.965036 12.1418,7.616792 12.60152,15.576109 0.9194,15.99075 1.98306,31.9995 2.04615,47.99928 0.10834,29.52971 -0.24325,59.06841 -0.88336,88.59812 -0.20714,9.50071 -1.8659,18.9834 -3.01067,28.44803 -0.52278,4.34475 -3.32614,6.75145 -7.56269,7.39146 -1.88392,0.28856 -3.81291,0.30662 -5.72384,0.29742 -31.33251,-0.19828 -62.66502,-0.36957 -93.99749,-0.68508 -6.16555,-0.063 -12.3221,-0.79322 -18.496638,-1.09067 -3.254051,-0.15331 -5.408371,-1.54139 -5.850069,-4.81347 C 84.121197,244.74137 82.07501,233.42887 81.371939,222.03524 80.082958,201.21303 79.61421,180.33672 78.802971,159.48742 Z M 148.04794,131.7426 c -0.017,-0.17137 -0.0361,-0.33353 -0.0542,-0.5048 -5.29121,0 -10.67254,-0.62195 -15.84655,0.16217 -6.0123,0.91041 -11.88039,2.93858 -17.73946,4.72332 -3.1639,0.96452 -3.85798,3.94813 -2.7853,6.43598 0.62195,1.44222 3.15488,2.65009 4.95768,2.87545 2.71318,0.33353 5.74187,0.27936 8.28382,-0.62199 10.26688,-3.63262 20.86728,-2.66811 31.4046,-2.95656 6.42695,-0.18023 12.92602,-0.52282 19.23578,-1.64957 8.31986,-1.48729 13.49387,-9.3925 11.49279,-17.41495 -1.70366,-6.83257 -6.58019,-11.77219 -12.21392,-15.57611 -2.56897,-1.73068 -6.18357,-1.54136 -8.36494,1.37013 -2.10928,2.82138 -1.0366,5.4805 1.37913,7.80608 1.79377,1.73068 3.46136,3.59657 5.07487,5.49852 3.65964,4.28162 3.01063,6.88667 -2.55098,7.73398 -7.36438,1.11772 -14.84595,1.45122 -22.27346,2.12727 z m 17.87465,67.04578 c 2.59601,0.045 5.28218,0.39662 7.74298,1.18081 2.73123,0.86534 3.74078,2.89351 1.5324,5.3633 -1.93802,2.17238 -4.31771,3.9932 -6.00331,6.33684 -1.04563,1.46024 -1.5414,3.59654 -1.48729,5.40837 0.017,0.5949 2.48785,1.49629 3.89402,1.61348 5.89511,0.49577 9.07704,-3.80388 12.8539,-7.31934 4.26361,-3.96611 3.95713,-13.0071 0.017,-17.27973 -4.03828,-4.37177 -8.66242,-6.82358 -14.7198,-6.55314 -9.82521,0.44169 -19.65043,1.01858 -29.48463,1.02757 -9.0951,0 -18.19918,-0.63998 -27.29424,-1.0456 -3.25405,-0.14411 -4.66023,1.11772 -4.92163,4.57009 -0.41465,5.38132 3.33516,5.66974 6.78749,5.93115 9.22128,0.7031 43.29402,0.62199 51.07308,0.77523 z m -37.11043,-23.53543 c 3.36219,-0.3786 8.48214,-0.75717 13.52993,-1.57744 15.39585,-2.5149 30.51224,-8.01341 46.48497,-3.70474 1.84784,0.49577 4.84049,1.0907 4.86754,-2.49688 0.0272,-3.21797 2.00108,-7.94126 -3.49744,-8.28382 -9.60888,-0.60393 -19.34395,-1.40617 -28.86268,-0.45069 -15.6482,1.56845 -30.80066,7.95032 -46.99873,4.54303 -2.88447,-0.60393 -4.5881,1.06365 -4.80444,4.2636 -0.32467,4.80444 0.66703,6.41793 5.61568,7.00384 3.93011,0.46875 7.91428,0.43267 13.65615,0.7031 z"
       id="path1115"
       style="display:none;fill:#85bfc0;stroke-width:0.901394"
       inkscape:label="cyan" /><path
       class="f"
       d="m 79.234044,159.22775 c 0,-21.14671 -0.14411,-42.29346 0.117195,-63.431146 0.05417,-4.137413 1.216858,-8.419037 2.659113,-12.340115 2.298532,-6.24666 7.751976,-8.707495 13.872447,-10.230833 8.220721,-2.046187 16.387381,-4.308674 24.508971,-6.715408 3.1729,-0.937428 4.70526,-3.542475 4.2095,-6.850592 -0.23439,-1.541395 -1.20787,-2.965593 -1.84788,-4.443893 -1.55941,0.7662 -3.22696,1.388155 -4.6512,2.352667 -1.50531,1.009552 -2.59601,2.857426 -4.20047,3.45233 -3.95716,1.478299 -8.5272,2.145326 -11.47478,-1.379126 -3.767833,-4.506988 -3.515453,-10.167738 -1.55941,-15.485964 1.63154,-4.452921 5.27315,-6.562169 9.97845,-6.580191 20.72307,-0.117195 41.45518,-0.198278 62.17825,-0.252447 4.55202,-0.01022 9.11308,0.06303 13.66514,0.216334 9.84323,0.333531 15.41384,8.229719 12.49332,17.649313 -2.38868,7.715931 -7.24722,10.284899 -14.74682,7.310312 -1.58646,-0.630982 -2.40673,-3.028688 -3.78586,-4.407814 -1.08167,-1.081674 -2.47882,-1.847874 -3.73175,-2.758286 -0.54987,1.316031 -1.62252,2.659113 -1.55043,3.948128 0.36058,6.814547 2.99265,9.284376 10.4562,10.807714 6.89566,1.397182 13.79133,2.830375 20.6149,4.55206 7.63482,1.928991 11.70914,7.301284 12.15983,14.918076 0.97351,16.414401 2.10025,32.837821 2.18137,49.270281 0.14411,28.91674 -0.20714,57.85151 -0.86534,86.75927 -0.22519,9.78916 -1.85687,19.55125 -3.09178,29.29535 -0.62196,4.90357 -3.51546,7.4365 -8.74354,7.58074 -8.95988,0.25245 -17.92874,0.26131 -26.89765,0.12606 -29.08801,-0.45073 -58.17605,-0.94649 -87.264057,-1.58647 -7.41848,-0.16217 -8.6444,-1.38815 -9.681002,-9.06804 -1.279952,-9.44661 -2.659113,-18.92027 -3.172899,-28.42098 -1.144769,-21.40816 -2.100254,-64.26948 -1.829818,-64.2785 z m 56.517466,57.68932 c 5.88611,-0.3876 13.95359,-0.68508 21.94899,-1.5414 4.35371,-0.45972 9.23927,-5.32725 9.15815,-8.9148 -0.15331,-6.73343 -1.78474,-13.55697 -6.58918,-18.18115 -8.86074,-8.51818 -18.47861,-16.26116 -28.04242,-24.00414 -1.62251,-1.31603 -4.60612,-1.50532 -6.88667,-1.30704 -2.23543,0.18942 -4.31767,1.75773 -6.56213,2.33464 -4.21853,1.08168 -5.75993,4.07429 -6.42695,7.95029 -1.91097,11.1142 -3.93011,22.2194 -5.81399,33.34262 -1.22592,7.24722 1.24391,10.21281 8.5362,10.31195 6.16554,0.0811 12.33108,0.017 20.669,0.017 z m 8.99591,-77.47493 c 0.7121,5.07484 1.02761,10.25789 2.28954,15.18851 0.63098,2.44278 2.578,5.04783 4.66926,6.5171 3.80388,2.67714 8.0945,4.72329 12.32206,6.7244 4.75033,2.24447 8.31087,1.27096 11.60995,-2.86645 3.83997,-4.82246 7.6709,-9.65392 11.36661,-14.58458 3.38024,-4.51598 3.30812,-12.7457 -0.649,-15.79245 -8.12159,-6.26468 -16.52257,-12.18684 -24.99571,-17.97381 -3.18192,-2.17234 -8.04946,-1.39715 -9.50067,1.28902 -3.60561,6.68835 -7.38244,13.40373 -7.12103,21.48923 z m 49.39647,37.99382 c -7.54467,6.9948 -13.57503,13.49388 -14.52148,23.30107 -0.87434,9.05901 -1.01858,9.04998 8.32889,9.54575 6.52612,0.34256 8.89678,-1.57744 8.93282,-8.13058 0.0361,-6.15652 -0.41465,-12.31307 -0.87433,-18.46055 -0.13525,-1.80281 -1.02761,-3.54251 -1.8659,-6.25569 z m -81.94583,-49.83817 c 3.36218,-1.71262 7.84212,-2.76728 10.08662,-5.59765 1.38812,-1.75773 -0.19828,-6.35483 -1.24394,-9.40154 -0.99153,-2.89347 -3.46136,-3.83996 -6.3999,-1.99209 -3.10082,1.94702 -6.30976,3.74079 -9.31143,5.82302 -2.95657,2.04615 -3.19995,5.98525 -0.31548,8.15763 1.75773,1.32503 4.15544,1.79377 7.17513,3.01063 z"
       id="path1121"
       style="display:none;fill:#83945f;stroke-width:0.901394"
       inkscape:label="green" /><path
       class="j"
       d="m 218.61184,245.12485 c -0.18022,3.50643 -0.97351,6.99484 -1.67658,10.44717 -0.82929,4.06532 -3.49743,6.34583 -7.58977,6.87767 -1.60446,0.20714 -3.236,0.23439 -4.84948,0.2252 -31.64802,-0.17137 -63.30499,-0.28856 -94.95298,-0.59494 -6.31878,-0.063 -12.664614,-0.53181 -18.911274,-1.40618 -1.847875,-0.25245 -4.470943,-2.22644 -4.930629,-3.90302 -1.532366,-5.64276 -2.812353,-11.47477 -3.163906,-17.29779 -1.379126,-22.44473 -2.89347,-44.90751 -3.362218,-67.38831 -0.531809,-25.57258 -0.05417,-51.17218 0.171364,-76.753797 0.02725,-3.461357 0.757172,-7.057933 1.856903,-10.348028 2.316554,-6.922715 7.706903,-10.257849 14.638647,-11.889388 8.103533,-1.91097 16.125943,-4.209502 24.130333,-6.52609 3.83996,-1.108725 5.26416,-4.101368 4.72332,-7.887228 -0.18022,-1.243908 -1.20787,-3.344162 -1.8659,-3.344162 -1.49629,-0.01703 -3.15488,0.793216 -4.46188,1.685606 -1.61352,1.099697 -2.71321,3.19995 -4.41684,3.848955 -3.9391,1.496321 -8.49116,2.18137 -11.4928,-1.397149 -3.686719,-4.389825 -3.407255,-9.897336 -1.70363,-15.107395 1.40618,-4.317702 4.70527,-6.904692 9.26632,-6.922715 26.05936,-0.108337 52.11868,-0.216335 78.16901,0.02726 8.63537,0.08108 13.74629,8.355942 11.29448,17.162576 -2.21741,7.950289 -6.67033,10.510262 -14.52148,7.733954 -1.71266,-0.603932 -2.67714,-3.109805 -4.19148,-4.534004 -1.10873,-1.04563 -2.54192,-1.748701 -3.83094,-2.605046 -0.52281,1.189842 -1.51434,2.388711 -1.4783,3.569525 0.19828,6.895665 3.20898,9.780141 10.63649,11.168295 6.63426,1.243908 13.23247,2.695157 19.80367,4.263602 8.22972,1.965036 12.50235,7.553697 12.95304,15.765394 0.90138,16.441445 1.62251,32.891915 2.17234,49.351395 0.28856,8.66238 -1.05462,79.21459 -2.41573,105.78774 z m -84.1903,-92.20372 c -0.32433,-0.22519 -0.649,-0.45069 -0.97351,-0.66702 -4.75037,4.53403 -10.76267,8.31989 -14.02572,13.74629 -10.97901,18.27126 -4.79541,39.9318 12.33109,49.13506 20.2904,10.90685 46.0613,5.04779 51.97443,-23.94108 3.05574,-14.94513 1.12675,-30.03447 -8.85167,-42.71711 -6.13853,-7.80607 -7.29229,-16.32428 -5.35431,-25.68978 1.0366,-5.02977 1.83885,-10.10464 2.8484,-15.74737 -4.80441,4.7143 -9.09506,8.9148 -13.35866,13.13333 -0.40562,0.40562 -0.95548,0.94646 -0.96448,1.43323 -0.15331,7.70694 -1.25297,15.57611 -0.045,23.07571 1.21686,7.55369 4.75034,14.73782 7.25621,22.08417 3.33517,9.78917 2.05518,18.9293 -3.227,27.8441 -6.53512,11.02409 -21.57039,10.64548 -28.22267,-0.51378 -4.79541,-8.04947 -5.44441,-16.64876 -3.58754,-25.52752 1.10869,-5.27315 2.77627,-10.42914 4.19147,-15.6392 z"
       id="path1113"
       style="display:none;fill:#b79e5e;stroke-width:0.901394"
       inkscape:label="yellow" /></g></svg>
