<?xml version="1.0" encoding="UTF-8" standalone="no"?>
<!-- Created with Inkscape (http://www.inkscape.org/) -->

<svg
   width="300"
   height="300"
   viewBox="0 0 300 300"
   version="1.1"
   id="svg5272"
   inkscape:version="1.2.2 (732a01da63, 2022-12-09)"
   sodipodi:docname="dyes.svg"
   xmlns:inkscape="http://www.inkscape.org/namespaces/inkscape"
   xmlns:sodipodi="http://sodipodi.sourceforge.net/DTD/sodipodi-0.dtd"
   xmlns="http://www.w3.org/2000/svg"
   xmlns:svg="http://www.w3.org/2000/svg">
  <sodipodi:namedview
     id="namedview5274"
     pagecolor="#ffffff"
     bordercolor="#000000"
     borderopacity="0.25"
     inkscape:showpageshadow="2"
     inkscape:pageopacity="0.0"
     inkscape:pagecheckerboard="0"
     inkscape:deskcolor="#d1d1d1"
     inkscape:document-units="mm"
     showgrid="false"
     inkscape:zoom="1.829812"
     inkscape:cx="-142.91085"
     inkscape:cy="105.20206"
     inkscape:window-width="2560"
     inkscape:window-height="1351"
     inkscape:window-x="2391"
     inkscape:window-y="-9"
     inkscape:window-maximized="1"
     inkscape:current-layer="svg5272" />
  <defs
     id="defs5269" />
  <path
     id="path1123"
     class="d"
     d="m 149.81246,116.92948 c -3.82455,0.003 -7.64915,0.0191 -11.47371,0.0336 -1.34143,0.005 -2.29912,0.75648 -2.73833,2.0159 -0.53445,1.53458 -0.57716,3.14365 0.47853,4.43746 0.86783,1.06097 2.20403,0.85419 3.37084,0.43615 0.47096,-0.16934 0.79627,-0.71395 1.24076,-1.01028 0.42069,-0.2831 0.91065,-0.46343 1.36838,-0.68833 0.18521,0.42863 0.47601,0.84683 0.53951,1.29398 0.13758,0.96837 -0.29922,1.72246 -1.24643,2.00556 -2.26218,0.67469 -4.52154,1.37852 -6.82077,1.89446 -3.35491,0.75406 -5.02959,2.52394 -5.20951,5.96087 -0.14817,2.84427 -0.2989,5.6994 -0.24598,8.54367 0.18256,9.75518 0.36475,19.51034 0.7431,29.26023 0.12965,3.38666 0.77002,6.76017 1.32036,10.11773 0.0847,0.50535 0.91545,1.17727 1.47637,1.26194 1.83092,0.27252 3.69636,0.39425 5.55109,0.41806 6.82889,0.0873 13.65512,0.11643 20.48401,0.15348 2.80988,0.0159 5.617,0.002 8.42688,-0.016 1.31498,-0.008 2.27293,-0.61616 2.59572,-1.90997 0.27252,-1.08479 0.48135,-2.20424 0.53692,-3.31814 l 0.003,0.005 c 0.39423,-7.80256 0.83368,-23.41815 0.69609,-23.42079 0,-2.54529 0.0659,-5.09565 -0.0135,-7.6383 -0.15081,-4.74662 -0.35441,-9.49087 -0.60047,-14.2322 -0.127,-2.45269 -1.33612,-4.16971 -3.81527,-4.76767 -1.92616,-0.46566 -3.86574,-0.89171 -5.81308,-1.25419 -2.20398,-0.4101 -3.03183,-1.18529 -3.12179,-3.26491 -0.0159,-0.3519 0.34907,-0.71969 0.53692,-1.07952 0.33867,0.24606 0.71975,0.45504 1.01079,0.75137 0.42598,0.43392 0.69839,1.17498 1.19581,1.35754 2.28335,0.84138 3.63548,0.0792 4.27312,-2.24121 0.71967,-2.62201 -0.73792,-5.03789 -3.27525,-5.0617 -3.82455,-0.037 -7.64918,-0.0469 -11.47373,-0.0439 z m 0.20154,22.84099 c 0.78448,-0.006 1.56815,0.38178 2.36058,1.16892 3.86027,3.83381 7.70504,7.68121 11.53882,11.53883 1.34409,1.35202 1.33615,2.02677 0,3.37085 -3.77557,3.79148 -7.53821,7.59357 -11.36673,11.33213 -0.65882,0.64558 -1.6138,0.98664 -2.54249,1.53169 l 0.003,0.003 c -0.99219,-0.5715 -1.9235,-0.89184 -2.5585,-1.51361 -3.88937,-3.79941 -7.72054,-7.65956 -11.55433,-11.51454 -1.25147,-1.26206 -1.23843,-1.73033 0.0289,-3.00033 3.90261,-3.91319 7.81061,-7.82084 11.72641,-11.71815 0.79508,-0.7911 1.58023,-1.19209 2.36472,-1.19838 z m -0.0868,5.01313 c -0.38563,-2.7e-4 -0.77656,0.26239 -1.32292,0.79685 -2.43417,2.38125 -4.81809,4.81523 -7.23109,7.21765 -0.83873,0.83343 -0.83315,1.57948 0.032,2.42879 2.46592,2.41035 4.90278,4.85262 7.31843,7.31325 0.82285,0.83608 1.53453,0.77812 2.3177,-0.0103 2.49234,-2.50561 5.0034,-4.99821 7.49048,-7.50911 0.25665,-0.25929 0.41783,-0.61629 0.71417,-1.06608 v -0.003 c -0.40482,-0.5424 -0.72777,-1.09294 -1.16168,-1.53479 -2.27013,-2.30188 -4.56121,-4.58534 -6.86573,-6.85281 -0.5252,-0.51726 -0.90577,-0.78051 -1.2914,-0.78084 z m 0.008,6.03012 c 1.73302,0.10054 3.146,1.5769 3.0825,3.21996 -0.0635,1.66952 -1.64089,3.15908 -3.24427,3.06648 -1.65364,-0.0952 -3.09269,-1.6719 -3.01067,-3.29644 0.0847,-1.62719 1.62463,-3.07996 3.17244,-2.99 z"
     style="display:none;fill:#a778aa;stroke-width:0.264583"
     inkscape:label="purple"
     transform="matrix(3.406848,0,0,3.406848,-361.0272,-361.02727)" />
  <path
     class="g"
     d="m 129.26953,134.01939 c 0.0317,-3.83646 1.75154,-6.11452 5.5589,-6.71777 2.14577,-0.34131 4.22539,-1.1086 6.32089,-1.73037 1.11125,-0.33073 1.57957,-1.17475 1.40759,-2.29394 -0.0608,-0.39688 -0.32809,-0.99484 -0.61384,-1.06892 -0.33602,-0.0873 -1.02393,0.19315 -1.15887,0.49213 -0.46831,1.0451 -1.35202,1.2647 -2.29923,1.41552 -1.74625,0.27781 -2.75431,-0.38629 -3.10092,-2.10344 -0.52916,-2.61408 0.39159,-5.13292 3.86821,-5.08529 7.07496,0.0979 14.15256,0.0291 21.23017,0.0265 1.60866,0 3.04006,0.41539 3.75973,1.98702 0.73554,1.60602 0.42068,3.21468 -0.40217,4.70958 -0.55298,1.00013 -1.5584,0.94192 -2.52148,0.86519 -0.97102,-0.0767 -1.96056,-0.1905 -2.23044,-1.35731 -0.16139,-0.7038 -0.48948,-1.2118 -1.19591,-0.90753 -0.27252,0.11642 -0.43921,0.85196 -0.39159,1.2753 0.21696,1.93939 0.889,2.55058 2.96863,2.9792 2.02406,0.41805 4.04548,0.83609 6.05366,1.32557 2.37067,0.57943 3.52955,2.2516 3.67771,4.58258 0.24342,3.78354 0.51594,7.57502 0.52652,11.36385 0.0238,9.56734 -0.0291,19.13732 -0.1905,28.70465 -0.0476,2.78606 -0.5371,5.56948 -0.88635,8.34496 -0.16933,1.33614 -1.03981,2.09285 -2.49238,2.16694 -1.6801,0.0847 -3.3655,0.0926 -5.0456,0.0661 -9.6176,-0.15346 -19.23521,-0.34661 -28.85546,-0.47625 -1.42346,-0.0185 -2.20398,-0.59532 -2.3786,-1.9685 -0.37836,-2.94746 -0.88371,-5.88963 -1.05569,-8.84767 -0.36248,-6.28121 -0.6006,-31.45367 -0.54769,-37.7481 z m 34.2265,18.65313 c -1.76212,0.2196 -3.34962,0.37041 -4.92125,0.62706 -0.86519,0.14287 -1.54781,0.63235 -1.45785,1.65629 0.0873,0.97896 0.30162,2.032 1.50018,2.10344 3.10886,0.18785 6.21507,0.0847 9.07786,-1.33879 0.42598,-0.21167 0.83344,-0.92605 0.82021,-1.397 -0.0106,-0.35719 -0.65882,-0.89165 -1.10596,-1.00013 -1.33086,-0.3175 -2.70404,-0.46302 -3.91319,-0.65352 z m -25.15923,1.02129 v 0.0106 c -1.2065,0 -2.41564,-0.0556 -3.61685,0.0185 -0.93927,0.0582 -1.88119,0.39158 -1.92352,1.51341 -0.0397,1.08215 0.69585,1.84415 1.72243,1.94734 2.39448,0.24077 4.80484,0.37306 7.2099,0.44185 1.1086,0.0318 1.74096,-0.60589 1.6801,-1.8071 -0.0688,-1.40759 -0.635,-2.09815 -1.84414,-2.11931 -1.07686,-0.0185 -2.15371,-0.003 -3.23056,-0.003 z m 14.14463,-12.39044 c -0.26194,-1.26471 -0.46832,-2.76225 -0.9234,-4.18042 -0.16669,-0.51858 -0.92339,-0.84666 -1.41287,-1.25941 -0.3519,0.48418 -0.81492,0.92604 -1.02659,1.46579 -0.24606,0.62971 -0.36777,1.34673 -0.37306,2.02406 -0.0132,1.8415 0,3.68829 0.13494,5.5245 0.0609,0.83873 0.72496,1.58221 1.57162,1.34673 0.66146,-0.18521 1.44463,-0.85725 1.66423,-1.4896 0.34131,-0.98161 0.24871,-2.11138 0.36248,-3.4343 z m -0.61913,24.83644 c 0,-0.91282 0.0238,-2.032 -0.008,-3.1459 -0.0265,-0.89958 -0.44714,-1.43139 -1.43669,-1.45256 -0.97895,-0.0212 -1.48166,0.49212 -1.52929,1.37583 -0.11906,2.14577 -0.2196,4.29684 -0.20902,6.44525 0.005,0.84667 0.46302,1.67746 1.45521,1.69598 1.06892,0.0185 1.44463,-0.83608 1.54781,-1.7436 0.11113,-0.98425 0.11642,-1.97909 0.17727,-3.17236 z m 5.47952,-21.67467 c -0.008,1.23825 0.48419,1.88648 1.33086,1.75683 1.59808,-0.2487 4.73075,-3.47133 4.93183,-5.0747 0.12965,-1.03188 -0.55827,-1.95263 -1.42081,-1.8759 -1.69863,0.15081 -5.00327,2.90248 -4.84188,5.19642 z m 1.40759,19.26431 c -0.12436,0.008 -0.3863,0.008 -0.6403,0.0397 -1.49225,0.19315 -1.87854,0.97632 -0.99218,2.17223 1.20121,1.6219 2.70668,2.92894 4.69635,3.43694 0.55033,0.14023 1.33879,-0.15875 1.8415,-0.508 0.28046,-0.19579 0.36513,-0.96309 0.24342,-1.38642 -0.48154,-1.6854 -3.29671,-3.73062 -5.15144,-3.75444 z m -17.1794,-17.05239 c 1.22238,0.0132 1.68275,-0.34925 1.38906,-1.38377 -0.64823,-2.26748 -1.94204,-4.14073 -4.09046,-5.21494 -1.24089,-0.61913 -2.4421,0.37835 -2.10872,1.72244 0.2196,0.89164 0.67468,1.76477 1.18268,2.54264 0.84138,1.29382 1.92882,2.31775 3.62744,2.33098 z m 1.52135,18.13983 c 0.037,-1.2991 -0.43391,-1.93146 -1.32556,-1.60867 -2.34685,0.85196 -4.01902,2.4765 -4.826,4.84188 -0.38629,1.13242 0.58738,2.1881 1.64306,1.97908 2.12461,-0.42069 4.4503,-3.1115 4.51115,-5.21494 z"
     id="path1111"
     style="display:inline;fill:#232323;stroke-width:1.10939131;stroke:#858585;stroke-opacity:1;stroke-dasharray:none"
     inkscape:label="black"
     transform="matrix(3.406848,0,0,3.406848,-361.0272,-361.02727)" />
  <path
     class="i"
     d="m 150.09733,262.68044 c -18.61382,-0.70307 -37.21862,-1.35208 -55.823415,-2.14529 -7.075955,-0.29742 -8.346914,-1.26197 -9.329449,-8.38299 -1.442221,-10.43814 -3.055704,-20.93038 -3.407257,-31.43165 -1.117753,-33.10826 -1.892947,-66.22552 -2.352633,-99.3518 -0.153308,-11.09617 0.486736,-22.27346 1.802768,-33.288515 1.063652,-8.887751 7.44553,-13.250492 16.062879,-15.107361 7.968307,-1.721684 15.801437,-4.11939 23.625567,-6.435979 3.6236,-1.072646 4.93963,-4.047267 4.42584,-7.59877 -0.19828,-1.352075 -1.10872,-3.371212 -2.09122,-3.650642 -1.13578,-0.315474 -3.51546,0.61296 -3.95713,1.613518 -1.64956,3.758809 -4.85854,4.479903 -8.22072,4.939623 -5.77795,0.79325 -8.99595,-1.460244 -10.12267,-7.157073 -1.703659,-8.590299 0.79322,-17.559167 13.49388,-17.360888 23.76076,0.369575 47.53957,0.279361 71.30036,0.03611 14.30515,-0.144109 17.5051,11.745177 12.22291,22.408679 -1.63153,3.290096 -4.74134,3.704743 -7.93226,3.434308 -3.47039,-0.28856 -7.34639,-0.153309 -8.51821,-4.606127 -0.59491,-2.271516 -1.64953,-4.263602 -4.06529,-3.127827 -1.00052,0.468714 -1.54136,3.190922 -1.33405,4.759366 0.79321,6.246661 3.11883,8.220725 10.08662,9.671974 7.02185,1.460243 14.05273,2.884442 20.99347,4.660193 7.42751,1.892947 11.42067,7.1661 11.92547,14.58458 0.91944,13.593051 1.87489,27.213121 1.91996,40.824191 0.1172,32.08968 -0.0542,64.17933 -0.60393,96.26901 -0.16217,9.47366 -1.83885,18.93833 -3.08276,28.36692 -0.63098,4.78638 -3.59657,7.26524 -8.89678,7.39142 -9.82521,0.22554 -19.65942,0.10834 -29.48463,0.12606 -9.53675,0.0102 -19.07351,0 -28.6103,0 l -0.017,0.54986 z m 37.01128,-136.99403 -1.00055,-0.17136 c 0,-3.07376 0,-6.14752 0,-9.23028 0,-0.28856 -0.0102,-0.58591 -0.017,-0.87436 -0.1533,-4.29066 -1.88392,-5.83202 -6.23766,-5.88612 -4.16443,-0.0542 -4.47994,2.55095 -4.66922,5.81399 -0.46872,8.15763 -0.17137,16.56768 -2.12727,24.39177 -2.74027,10.93391 -2.74027,20.72308 4.4709,29.90828 2.63207,3.3442 3.43431,7.2292 2.43375,11.59194 -1.47826,6.40893 -2.5149,12.91699 -3.77683,19.37099 -0.56788,2.89347 -0.90141,5.7509 2.80333,6.68836 4.57008,1.1538 7.48157,-0.50479 8.40101,-4.51598 0.94646,-4.13741 1.75773,-8.30187 2.77631,-12.41224 2.76728,-11.21333 3.05571,-21.97601 -4.83149,-31.6119 -2.38871,-2.92052 -3.11883,-6.39091 -2.30756,-10.32098 1.55938,-7.53567 2.74023,-15.15247 4.08331,-22.73318 z m -33.57697,-7.89622 c -0.53184,0.34253 -2.66814,1.01858 -3.60557,2.4608 -7.84215,12.10576 -11.07815,25.13089 -6.41796,39.24676 3.79489,11.50179 5.30924,23.04868 2.28055,34.9561 -1.08168,4.23655 -2.44278,8.44608 -3.02869,12.75476 -0.23439,1.71262 0.79322,4.35371 2.14533,5.33625 2.17234,1.57743 4.57005,0.46871 5.77794,-2.01914 1.91094,-3.92108 4.29062,-7.77003 5.32722,-11.93446 3.75885,-15.09837 3.23603,-30.14267 -1.79377,-44.96161 -1.64956,-4.87652 -1.87489,-9.75309 0.18942,-14.56652 1.90194,-4.42587 4.0563,-8.74354 5.78697,-13.22348 2.12727,-5.50754 0.42365,-7.97733 -6.67033,-8.04946 z m -30.61138,4.60613 c -1.75773,1.01858 -4.27263,1.60449 -5.14696,3.12783 -2.97463,5.17401 -5.87712,10.50126 -7.86918,16.10795 -3.19998,9.01394 -0.81127,17.63129 3.69572,25.68075 2.37968,4.25457 3.1098,8.41001 1.0366,12.96207 -1.0907,2.37968 -2.10025,4.82246 -2.83037,7.33733 -1.26197,4.3177 -2.65912,8.65339 -3.26308,13.08826 -0.48674,3.61459 2.46983,5.29121 5.4174,4.22755 2.25349,-0.81127 4.36274,-3.13685 5.61567,-5.31822 1.64057,-2.85743 2.02817,-6.42695 3.57856,-9.3655 5.70582,-10.83476 5.73287,-21.46222 -0.4417,-32.08065 -3.65964,-6.28274 -3.18189,-12.5294 0.0991,-18.80311 1.69463,-3.23603 3.39826,-6.48105 4.78642,-9.84323 1.85686,-4.48897 0.59493,-6.22864 -4.66923,-7.10301 z"
     id="path1117"
     style="display:none;fill:#5a80b0;stroke-width:0.901394"
     inkscape:label="blue" />
  <path
     class="e"
     d="m 218.49165,245.10686 c -0.18942,3.65064 -0.94646,7.30132 -1.78478,10.87084 -0.94646,4.03824 -3.79486,6.26469 -7.90522,6.48102 -4.40781,0.23439 -8.82465,0.23439 -13.2415,0.20748 -28.70041,-0.16217 -57.40985,-0.28856 -86.11029,-0.59494 -6.31875,-0.063 -12.664587,-0.54084 -18.911247,-1.40618 -1.856903,-0.25244 -4.461915,-2.20838 -4.939658,-3.89402 -1.514343,-5.33625 -2.713213,-10.87984 -3.091782,-16.4144 -1.35211,-19.65039 -2.89347,-39.31884 -3.272073,-58.99632 -0.540837,-28.36688 -0.153309,-56.75182 -0.05417,-85.136756 0.01022,-2.902498 0.549865,-5.850069 1.171819,-8.698467 1.802802,-8.274825 7.301284,-12.565443 15.359774,-14.440368 8.112557,-1.892913 16.125937,-4.209501 24.130327,-6.517062 3.83094,-1.108724 5.28219,-4.083345 4.74135,-7.869205 -0.18022,-1.243909 -1.18984,-3.35319 -1.84784,-3.362184 -1.49632,-0.02725 -3.16391,0.775194 -4.46192,1.667584 -1.61348,1.099696 -2.70418,3.208944 -4.41684,3.857948 -3.9391,1.496322 -8.49112,2.181405 -11.50179,-1.379126 -3.704744,-4.380764 -3.416286,-9.888308 -1.72168,-15.107395 1.39718,-4.317669 4.69627,-6.913687 9.25732,-6.931709 26.05936,-0.108338 52.10968,-0.216335 78.169,0.01703 8.63538,0.08108 13.75529,8.337886 11.31251,17.153548 -2.20839,7.959351 -6.63426,10.483246 -14.52145,7.770032 -1.63154,-0.558859 -2.65012,-2.794296 -4.08331,-4.119356 -1.20787,-1.117753 -2.60505,-2.037159 -3.92108,-3.04671 -0.50479,1.478265 -1.55942,3.001638 -1.43323,4.425836 0.59494,6.52609 3.41629,8.959874 10.55534,10.31195 6.7785,1.279987 13.52995,2.722242 20.21831,4.389792 7.81507,1.938019 12.02461,7.346391 12.4753,15.188512 0.95549,16.585696 1.66759,33.180386 2.23547,49.784066 0.29742,8.66243 0.0542,17.34284 0.0542,26.02328 0.45969,0.0102 -1.0997,53.19132 -2.46983,79.76446 z m -69.6508,-44.9706 c -20.16421,0.48674 -31.7201,-14.93613 -32.06263,-31.24236 -0.30661,-14.73782 5.73288,-26.32976 18.6679,-33.60402 13.62909,-7.66184 27.37535,-7.96832 40.73404,1.11775 1.80277,1.22588 3.91205,2.97459 5.78694,2.85742 2.62307,-0.1533 6.03936,-1.13577 7.51766,-3.01969 1.79377,-2.29857 0.89238,-5.42639 -1.929,-7.64381 -7.29229,-5.75992 -15.39581,-10.11367 -24.52695,-11.31254 -28.92578,-3.80388 -57.50903,15.68428 -58.99632,47.14298 -0.84732,17.90172 5.39934,32.72965 21.02052,42.35655 10.12267,6.23767 21.42618,7.25625 33.21643,5.65176 22.24641,-3.01966 37.43492,-21.66054 32.35106,-43.17682 -2.93855,-12.44829 -10.92491,-19.95691 -22.30951,-23.99515 -11.92547,-4.23655 -23.04869,-1.92899 -32.18885,7.00383 -6.22864,6.08443 -8.41001,13.77334 -5.85004,22.2735 2.53292,8.38295 8.88775,12.45727 17.1806,13.80935 7.51762,1.22592 15.84651,-2.99261 18.90225,-9.41956 1.87489,-3.9391 0.7662,-7.80608 -3.08279,-9.79816 -3.15488,-1.64054 -5.82298,-1.27096 -7.72493,2.28051 -2.15435,4.02924 -5.82301,5.05685 -9.51873,3.05573 -3.29009,-1.78474 -5.0298,-6.06637 -2.76731,-9.41956 2.01014,-2.98365 4.98473,-5.98528 8.22072,-7.33736 8.55426,-3.59657 19.6955,0.87433 24.38274,8.9779 4.83149,8.34691 2.83941,20.6239 -4.44385,26.57311 -6.20163,5.07487 -13.51194,6.90469 -22.57095,6.87764 z"
     id="path1119"
     style="display:none;fill:#883c33;stroke-width:0.901394"
     inkscape:label="red" />
  <path
     class="k"
     d="m 153.65643,262.67162 c -20.37152,-0.7752 -40.73404,-1.62252 -61.105563,-2.27152 -4.047267,-0.12605 -6.444973,-1.67658 -6.976816,-5.67877 -1.397148,-10.59138 -3.524452,-21.16477 -3.912049,-31.7922 -1.243908,-34.42429 -1.937986,-68.87563 -2.623069,-103.30892 -0.171364,-8.63537 0.405654,-17.28876 0.802245,-25.933127 0.558893,-12.114751 6.165543,-18.24425 18.009893,-20.894335 7.661869,-1.721684 15.197509,-4.065289 22.733179,-6.300761 3.68672,-1.090702 4.85851,-4.065289 4.41684,-7.59877 -0.1533,-1.270959 -1.08167,-3.443335 -1.70362,-3.461357 -1.49633,-0.03611 -3.88504,0.540837 -4.3808,1.595461 -1.7487,3.713771 -4.94865,4.39882 -8.30184,4.831489 -5.58866,0.730122 -8.66242,-1.433227 -9.92436,-6.913687 -1.901937,-8.283819 0.64901,-17.838631 13.16035,-17.622296 24.05824,0.414648 48.12551,0.135252 72.19275,0.108338 5.52556,0 10.34802,1.50535 12.70969,6.85962 2.47882,5.624706 1.49632,11.303513 -1.76676,16.333281 -2.28051,3.515459 -6.15652,2.650119 -9.67198,2.352633 -3.0557,-0.252447 -5.06581,-1.577438 -6.31874,-4.561054 -0.5589,-1.334053 -2.44282,-2.109247 -3.72277,-3.136855 -0.53184,1.442255 -1.63154,2.947571 -1.49632,4.326697 0.658,6.733431 3.227,8.995918 10.36605,10.36605 6.75145,1.288981 13.48485,2.731236 20.15518,4.362742 8.01342,1.96507 12.16882,7.535675 12.62854,15.494992 0.91944,15.945679 1.9831,31.909389 2.04619,47.873099 0.10834,29.60183 -0.24325,59.21265 -0.8834,88.81448 -0.19827,9.32942 -1.82079,18.64084 -3.00163,27.93421 -0.62196,4.86754 -3.74978,7.43654 -9.25733,7.49963 -13.20542,0.15331 -26.41087,0.0722 -39.61633,0.0811 -4.84048,0 -9.68999,0 -14.53048,0 0,0.21633 -0.017,0.43267 -0.0273,0.649 z m 23.29208,-70.72344 c 2.23544,1.90194 3.90302,3.99316 6.06637,4.93962 1.75773,0.7662 4.60612,0.87437 6.04838,-0.0903 1.18081,-0.79322 1.43319,-3.65064 1.27096,-5.51654 -0.1172,-1.40618 -1.33405,-2.91149 -2.42476,-4.02022 -3.71373,-3.76783 -4.15543,-5.17401 -0.25244,-8.7976 2.13629,-1.98306 5.52556,-2.78531 8.49112,-3.69572 4.57911,-1.40617 9.37452,-2.15435 13.85446,-3.79489 1.50532,-0.54983 3.37121,-3.08275 3.18193,-4.44385 -0.19828,-1.43323 -2.48785,-3.17294 -4.19148,-3.6687 -3.63262,-1.06365 -7.47258,-1.93799 -11.23139,-1.93799 -5.40837,0 -8.43706,-2.50587 -10.17677,-7.26524 -0.60393,-1.64956 -1.17182,-3.33517 -1.98306,-4.88559 -1.37912,-2.62303 -0.65803,-4.60612 1.18985,-6.74242 1.58646,-1.82982 3.42531,-4.0022 3.74078,-6.22864 0.30662,-2.1363 -0.84731,-4.7684 -2.1273,-6.67034 -0.40562,-0.60393 -3.33513,0.27937 -5.01175,0.80225 -1.22588,0.3786 -2.28054,1.30704 -3.4343,1.93802 -5.73288,3.1188 -6.61624,2.79429 -11.47478,-1.55042 -3.20894,-2.87545 -7.03988,-5.05682 -10.42012,-7.76101 -1.37912,-1.10872 -2.76728,-2.63206 -3.34416,-4.24558 -1.4152,-3.98417 -2.1814,-8.19367 -3.57855,-12.17785 -0.45069,-1.27998 -2.05518,-2.14532 -3.13686,-3.19995 -0.82929,1.04563 -1.94701,1.97407 -2.42475,3.16391 -0.70307,1.7487 -1.35208,3.68669 -1.32506,5.53456 0.0991,9.34747 -4.19148,15.50399 -11.96151,20.77717 -5.6878,3.85795 -10.02353,6.94974 -16.64876,2.51487 -1.22592,-0.82026 -4.6422,0.30662 -6.10245,1.60449 -1.06365,0.94646 -0.90142,3.67769 -0.66702,5.53456 0.17136,1.34308 1.23491,2.64109 2.10924,3.80392 3.14589,4.1554 3.51546,8.78858 2.9656,13.77331 -0.41465,3.78586 -2.20842,5.51653 -5.94921,5.51653 -2.92955,0 -6.0123,-0.38759 -8.752535,0.37857 -2.460834,0.68509 -5.291209,2.26252 -6.499073,4.30868 -0.639977,1.08167 1.334053,5.12894 2.992643,5.84104 3.29909,1.4242 7.193115,1.92899 10.843755,1.97406 3.9932,0.0542 7.07596,0.66703 9.06805,4.5971 1.97406,3.90306 1.30703,6.95879 -1.83885,9.76212 -0.64901,0.57692 -1.40618,1.30704 -1.55942,2.08223 -0.22519,1.1538 -0.43267,2.86642 0.19828,3.4974 0.81127,0.81128 2.6321,1.35211 3.71377,1.01858 2.35263,-0.73012 4.42584,-2.35263 6.76948,-3.08275 1.67658,-0.51382 3.79485,-0.64901 5.42639,-0.0903 4.40781,1.52333 8.54523,3.885 12.99811,5.183 3.38924,0.99153 4.39882,2.76728 4.3808,5.96724 -0.017,3.218 0.063,6.47202 0.54983,9.64495 0.40562,2.64106 1.46927,5.35427 4.93063,5.13794 3.45236,-0.21634 4.59713,-2.69516 4.83149,-5.75993 0.18022,-2.33461 -0.0273,-4.76836 0.56789,-6.9948 0.54084,-2.01011 1.46927,-4.43486 3.02869,-5.54359 5.58862,-3.97514 11.51082,-7.47258 17.29776,-11.14124 z"
     id="path1125"
     style="display:none;fill:#c1c1c1;stroke-width:0.901394"
     inkscape:label="white" />
  <path
     class="h"
     d="m 79.559909,159.48756 c 0,-21.15574 -0.08108,-42.32051 0.02725,-63.476257 0.07223,-13.629095 6.021332,-21.480245 19.334953,-23.508375 7.175098,-1.090703 14.115838,-3.722765 21.128698,-5.786975 4.07432,-1.198869 5.39934,-4.326697 4.8585,-8.220724 -0.17136,-1.225886 -1.18081,-3.190922 -1.97403,-3.281067 -1.31603,-0.14411 -2.92954,0.73915 -4.11939,1.604489 -1.57743,1.153763 -2.62306,3.281067 -4.31767,3.957122 -3.91204,1.568411 -8.50918,2.271516 -11.56492,-1.108724 -3.848954,-4.24558 -3.65967,-9.780141 -2.00108,-15.026278 1.4242,-4.515982 4.82247,-7.166066 9.54579,-7.184089 26.0413,-0.108337 52.07357,-0.252447 78.1149,0.06303 8.86973,0.108338 13.68316,8.572243 10.90689,17.676363 -2.31659,7.580713 -7.57172,10.257849 -14.84599,7.075921 -1.56844,-0.685049 -2.26252,-3.163872 -3.63262,-4.552026 -1.05466,-1.07268 -2.54195,-1.721685 -3.83093,-2.559974 -0.50479,1.19887 -1.4873,2.424756 -1.43323,3.596576 0.34253,7.130021 2.93854,9.662945 10.57336,11.177289 6.76048,1.343081 13.51193,2.785336 20.20026,4.42587 8.06751,1.965036 12.1418,7.616792 12.60152,15.576109 0.9194,15.99075 1.98306,31.9995 2.04615,47.99928 0.10834,29.52971 -0.24325,59.06841 -0.88336,88.59812 -0.20714,9.50071 -1.8659,18.9834 -3.01067,28.44803 -0.52278,4.34475 -3.32614,6.75145 -7.56269,7.39146 -1.88392,0.28856 -3.81291,0.30662 -5.72384,0.29742 -31.33251,-0.19828 -62.66502,-0.36957 -93.99749,-0.68508 -6.16555,-0.063 -12.3221,-0.79322 -18.496638,-1.09067 -3.254051,-0.15331 -5.408371,-1.54139 -5.850069,-4.81347 C 84.121197,244.74137 82.07501,233.42887 81.371939,222.03524 80.082958,201.21303 79.61421,180.33672 78.802971,159.48742 Z M 148.04794,131.7426 c -0.017,-0.17137 -0.0361,-0.33353 -0.0542,-0.5048 -5.29121,0 -10.67254,-0.62195 -15.84655,0.16217 -6.0123,0.91041 -11.88039,2.93858 -17.73946,4.72332 -3.1639,0.96452 -3.85798,3.94813 -2.7853,6.43598 0.62195,1.44222 3.15488,2.65009 4.95768,2.87545 2.71318,0.33353 5.74187,0.27936 8.28382,-0.62199 10.26688,-3.63262 20.86728,-2.66811 31.4046,-2.95656 6.42695,-0.18023 12.92602,-0.52282 19.23578,-1.64957 8.31986,-1.48729 13.49387,-9.3925 11.49279,-17.41495 -1.70366,-6.83257 -6.58019,-11.77219 -12.21392,-15.57611 -2.56897,-1.73068 -6.18357,-1.54136 -8.36494,1.37013 -2.10928,2.82138 -1.0366,5.4805 1.37913,7.80608 1.79377,1.73068 3.46136,3.59657 5.07487,5.49852 3.65964,4.28162 3.01063,6.88667 -2.55098,7.73398 -7.36438,1.11772 -14.84595,1.45122 -22.27346,2.12727 z m 17.87465,67.04578 c 2.59601,0.045 5.28218,0.39662 7.74298,1.18081 2.73123,0.86534 3.74078,2.89351 1.5324,5.3633 -1.93802,2.17238 -4.31771,3.9932 -6.00331,6.33684 -1.04563,1.46024 -1.5414,3.59654 -1.48729,5.40837 0.017,0.5949 2.48785,1.49629 3.89402,1.61348 5.89511,0.49577 9.07704,-3.80388 12.8539,-7.31934 4.26361,-3.96611 3.95713,-13.0071 0.017,-17.27973 -4.03828,-4.37177 -8.66242,-6.82358 -14.7198,-6.55314 -9.82521,0.44169 -19.65043,1.01858 -29.48463,1.02757 -9.0951,0 -18.19918,-0.63998 -27.29424,-1.0456 -3.25405,-0.14411 -4.66023,1.11772 -4.92163,4.57009 -0.41465,5.38132 3.33516,5.66974 6.78749,5.93115 9.22128,0.7031 43.29402,0.62199 51.07308,0.77523 z m -37.11043,-23.53543 c 3.36219,-0.3786 8.48214,-0.75717 13.52993,-1.57744 15.39585,-2.5149 30.51224,-8.01341 46.48497,-3.70474 1.84784,0.49577 4.84049,1.0907 4.86754,-2.49688 0.0272,-3.21797 2.00108,-7.94126 -3.49744,-8.28382 -9.60888,-0.60393 -19.34395,-1.40617 -28.86268,-0.45069 -15.6482,1.56845 -30.80066,7.95032 -46.99873,4.54303 -2.88447,-0.60393 -4.5881,1.06365 -4.80444,4.2636 -0.32467,4.80444 0.66703,6.41793 5.61568,7.00384 3.93011,0.46875 7.91428,0.43267 13.65615,0.7031 z"
     id="path1115"
     style="display:none;fill:#85bfc0;stroke-width:0.901394"
     inkscape:label="cyan" />
  <path
     class="f"
     d="m 79.234044,159.22775 c 0,-21.14671 -0.14411,-42.29346 0.117195,-63.431146 0.05417,-4.137413 1.216858,-8.419037 2.659113,-12.340115 2.298532,-6.24666 7.751976,-8.707495 13.872447,-10.230833 8.220721,-2.046187 16.387381,-4.308674 24.508971,-6.715408 3.1729,-0.937428 4.70526,-3.542475 4.2095,-6.850592 -0.23439,-1.541395 -1.20787,-2.965593 -1.84788,-4.443893 -1.55941,0.7662 -3.22696,1.388155 -4.6512,2.352667 -1.50531,1.009552 -2.59601,2.857426 -4.20047,3.45233 -3.95716,1.478299 -8.5272,2.145326 -11.47478,-1.379126 -3.767833,-4.506988 -3.515453,-10.167738 -1.55941,-15.485964 1.63154,-4.452921 5.27315,-6.562169 9.97845,-6.580191 20.72307,-0.117195 41.45518,-0.198278 62.17825,-0.252447 4.55202,-0.01022 9.11308,0.06303 13.66514,0.216334 9.84323,0.333531 15.41384,8.229719 12.49332,17.649313 -2.38868,7.715931 -7.24722,10.284899 -14.74682,7.310312 -1.58646,-0.630982 -2.40673,-3.028688 -3.78586,-4.407814 -1.08167,-1.081674 -2.47882,-1.847874 -3.73175,-2.758286 -0.54987,1.316031 -1.62252,2.659113 -1.55043,3.948128 0.36058,6.814547 2.99265,9.284376 10.4562,10.807714 6.89566,1.397182 13.79133,2.830375 20.6149,4.55206 7.63482,1.928991 11.70914,7.301284 12.15983,14.918076 0.97351,16.414401 2.10025,32.837821 2.18137,49.270281 0.14411,28.91674 -0.20714,57.85151 -0.86534,86.75927 -0.22519,9.78916 -1.85687,19.55125 -3.09178,29.29535 -0.62196,4.90357 -3.51546,7.4365 -8.74354,7.58074 -8.95988,0.25245 -17.92874,0.26131 -26.89765,0.12606 -29.08801,-0.45073 -58.17605,-0.94649 -87.264057,-1.58647 -7.41848,-0.16217 -8.6444,-1.38815 -9.681002,-9.06804 -1.279952,-9.44661 -2.659113,-18.92027 -3.172899,-28.42098 -1.144769,-21.40816 -2.100254,-64.26948 -1.829818,-64.2785 z m 56.517466,57.68932 c 5.88611,-0.3876 13.95359,-0.68508 21.94899,-1.5414 4.35371,-0.45972 9.23927,-5.32725 9.15815,-8.9148 -0.15331,-6.73343 -1.78474,-13.55697 -6.58918,-18.18115 -8.86074,-8.51818 -18.47861,-16.26116 -28.04242,-24.00414 -1.62251,-1.31603 -4.60612,-1.50532 -6.88667,-1.30704 -2.23543,0.18942 -4.31767,1.75773 -6.56213,2.33464 -4.21853,1.08168 -5.75993,4.07429 -6.42695,7.95029 -1.91097,11.1142 -3.93011,22.2194 -5.81399,33.34262 -1.22592,7.24722 1.24391,10.21281 8.5362,10.31195 6.16554,0.0811 12.33108,0.017 20.669,0.017 z m 8.99591,-77.47493 c 0.7121,5.07484 1.02761,10.25789 2.28954,15.18851 0.63098,2.44278 2.578,5.04783 4.66926,6.5171 3.80388,2.67714 8.0945,4.72329 12.32206,6.7244 4.75033,2.24447 8.31087,1.27096 11.60995,-2.86645 3.83997,-4.82246 7.6709,-9.65392 11.36661,-14.58458 3.38024,-4.51598 3.30812,-12.7457 -0.649,-15.79245 -8.12159,-6.26468 -16.52257,-12.18684 -24.99571,-17.97381 -3.18192,-2.17234 -8.04946,-1.39715 -9.50067,1.28902 -3.60561,6.68835 -7.38244,13.40373 -7.12103,21.48923 z m 49.39647,37.99382 c -7.54467,6.9948 -13.57503,13.49388 -14.52148,23.30107 -0.87434,9.05901 -1.01858,9.04998 8.32889,9.54575 6.52612,0.34256 8.89678,-1.57744 8.93282,-8.13058 0.0361,-6.15652 -0.41465,-12.31307 -0.87433,-18.46055 -0.13525,-1.80281 -1.02761,-3.54251 -1.8659,-6.25569 z m -81.94583,-49.83817 c 3.36218,-1.71262 7.84212,-2.76728 10.08662,-5.59765 1.38812,-1.75773 -0.19828,-6.35483 -1.24394,-9.40154 -0.99153,-2.89347 -3.46136,-3.83996 -6.3999,-1.99209 -3.10082,1.94702 -6.30976,3.74079 -9.31143,5.82302 -2.95657,2.04615 -3.19995,5.98525 -0.31548,8.15763 1.75773,1.32503 4.15544,1.79377 7.17513,3.01063 z"
     id="path1121"
     style="display:none;fill:#83945f;stroke-width:0.901394"
     inkscape:label="green" />
  <path
     class="j"
     d="m 218.61184,245.12485 c -0.18022,3.50643 -0.97351,6.99484 -1.67658,10.44717 -0.82929,4.06532 -3.49743,6.34583 -7.58977,6.87767 -1.60446,0.20714 -3.236,0.23439 -4.84948,0.2252 -31.64802,-0.17137 -63.30499,-0.28856 -94.95298,-0.59494 -6.31878,-0.063 -12.664614,-0.53181 -18.911274,-1.40618 -1.847875,-0.25245 -4.470943,-2.22644 -4.930629,-3.90302 -1.532366,-5.64276 -2.812353,-11.47477 -3.163906,-17.29779 -1.379126,-22.44473 -2.89347,-44.90751 -3.362218,-67.38831 -0.531809,-25.57258 -0.05417,-51.17218 0.171364,-76.753797 0.02725,-3.461357 0.757172,-7.057933 1.856903,-10.348028 2.316554,-6.922715 7.706903,-10.257849 14.638647,-11.889388 8.103533,-1.91097 16.125943,-4.209502 24.130333,-6.52609 3.83996,-1.108725 5.26416,-4.101368 4.72332,-7.887228 -0.18022,-1.243908 -1.20787,-3.344162 -1.8659,-3.344162 -1.49629,-0.01703 -3.15488,0.793216 -4.46188,1.685606 -1.61352,1.099697 -2.71321,3.19995 -4.41684,3.848955 -3.9391,1.496321 -8.49116,2.18137 -11.4928,-1.397149 -3.686719,-4.389825 -3.407255,-9.897336 -1.70363,-15.107395 1.40618,-4.317702 4.70527,-6.904692 9.26632,-6.922715 26.05936,-0.108337 52.11868,-0.216335 78.16901,0.02726 8.63537,0.08108 13.74629,8.355942 11.29448,17.162576 -2.21741,7.950289 -6.67033,10.510262 -14.52148,7.733954 -1.71266,-0.603932 -2.67714,-3.109805 -4.19148,-4.534004 -1.10873,-1.04563 -2.54192,-1.748701 -3.83094,-2.605046 -0.52281,1.189842 -1.51434,2.388711 -1.4783,3.569525 0.19828,6.895665 3.20898,9.780141 10.63649,11.168295 6.63426,1.243908 13.23247,2.695157 19.80367,4.263602 8.22972,1.965036 12.50235,7.553697 12.95304,15.765394 0.90138,16.441445 1.62251,32.891915 2.17234,49.351395 0.28856,8.66238 -1.05462,79.21459 -2.41573,105.78774 z m -84.1903,-92.20372 c -0.32433,-0.22519 -0.649,-0.45069 -0.97351,-0.66702 -4.75037,4.53403 -10.76267,8.31989 -14.02572,13.74629 -10.97901,18.27126 -4.79541,39.9318 12.33109,49.13506 20.2904,10.90685 46.0613,5.04779 51.97443,-23.94108 3.05574,-14.94513 1.12675,-30.03447 -8.85167,-42.71711 -6.13853,-7.80607 -7.29229,-16.32428 -5.35431,-25.68978 1.0366,-5.02977 1.83885,-10.10464 2.8484,-15.74737 -4.80441,4.7143 -9.09506,8.9148 -13.35866,13.13333 -0.40562,0.40562 -0.95548,0.94646 -0.96448,1.43323 -0.15331,7.70694 -1.25297,15.57611 -0.045,23.07571 1.21686,7.55369 4.75034,14.73782 7.25621,22.08417 3.33517,9.78917 2.05518,18.9293 -3.227,27.8441 -6.53512,11.02409 -21.57039,10.64548 -28.22267,-0.51378 -4.79541,-8.04947 -5.44441,-16.64876 -3.58754,-25.52752 1.10869,-5.27315 2.77627,-10.42914 4.19147,-15.6392 z"
     id="path1113"
     style="display:none;fill:#b79e5e;stroke-width:0.901394"
     inkscape:label="yellow" />
  <path
     class="j"
     d="m 218.6118,245.12502 c -0.18023,3.50643 -0.97351,6.99484 -1.67658,10.44717 -0.8293,4.06532 -3.49744,6.34583 -7.58978,6.87767 -1.60445,0.20714 -3.23599,0.2344 -4.84948,0.2252 -31.64801,-0.17137 -63.30499,-0.28856 -94.95297,-0.59494 -6.31878,-0.063 -12.664619,-0.53181 -18.911279,-1.40618 -1.84787,-0.25245 -4.47094,-2.22644 -4.93063,-3.90302 -1.53236,-5.64276 -2.81235,-11.47477 -3.1639,-17.29779 -1.37913,-22.44473 -2.89347,-44.90751 -3.36222,-67.38831 -0.53181,-25.57258 -0.0542,-51.17218 0.17136,-76.753792 0.0272,-3.461358 0.75718,-7.057933 1.85691,-10.348029 2.31655,-6.922715 7.7069,-10.257849 14.63864,-11.889388 8.103529,-1.910969 16.125939,-4.209501 24.130329,-6.52609 3.83996,-1.108725 5.26416,-4.101368 4.72332,-7.887228 -0.18022,-1.243908 -1.20786,-3.344162 -1.86589,-3.344162 -1.49629,-0.01703 -3.15488,0.793217 -4.46188,1.685606 -1.61352,1.099697 -2.71322,3.199951 -4.41685,3.848955 -3.9391,1.496322 -8.49115,2.181371 -11.49279,-1.397148 -3.686719,-4.389826 -3.407259,-9.897337 -1.70363,-15.107395 1.40618,-4.317703 4.70527,-6.904693 9.26632,-6.922715 26.05935,-0.108338 52.11868,-0.216335 78.169,0.02725 8.63537,0.08108 13.74629,8.355942 11.29449,17.162576 -2.21742,7.950289 -6.67034,10.510263 -14.52149,7.733954 -1.71265,-0.603932 -2.67713,-3.109805 -4.19148,-4.534003 -1.10872,-1.04563 -2.54191,-1.748701 -3.83093,-2.605047 -0.52281,1.189842 -1.51434,2.388712 -1.4783,3.569525 0.19828,6.895665 3.20898,9.780141 10.63649,11.168295 6.63425,1.243909 13.23247,2.695158 19.80366,4.263602 8.22972,1.965036 12.50235,7.553698 12.95304,15.765394 0.90139,16.44145 1.62252,32.89192 2.17235,49.3514 0.28856,8.66238 -1.05463,79.21459 -2.41573,105.78774 z"
     id="path1113-2-1"
     style="display:none;fill:#000000;fill-opacity:1;stroke-width:0.901394"
     inkscape:label="empty"
     sodipodi:nodetypes="cccccccccccccccccccccccccccccccc" />
  <path
     id="path1113-2-1-7"
     style="display:none;fill:#000000;fill-opacity:1;stroke-width:0.901394"
     class="j"
     inkscape:label="none"
     d="m 149.10938,37.324219 c -13.02853,0.01009 -26.05823,0.06497 -39.0879,0.11914 -4.56104,0.01802 -7.8614,2.604177 -9.26757,6.921875 -1.703631,5.210053 -1.981641,10.717601 1.70507,15.107422 3.00164,3.578516 7.5531,2.894758 11.49219,1.398438 1.70363,-0.649004 2.8025,-2.749914 4.41602,-3.84961 1.307,-0.892388 2.9666,-1.702576 4.46289,-1.685546 0.65803,0 1.68501,2.099843 1.86523,3.34375 0.54084,3.785856 -0.8827,6.779947 -4.72265,7.888671 -8.00439,2.316587 -16.02734,4.614424 -24.130863,6.525391 -6.931733,1.631537 -12.322124,4.965964 -14.638672,11.888672 -1.099729,3.290093 -1.830222,6.886302 -1.857422,10.347656 -0.22556,25.581582 -0.701731,51.181352 -0.169922,76.753902 0.46875,22.48078 1.9822,44.94397 3.361328,67.38868 0.35155,5.82301 1.631704,11.65607 3.164063,17.29882 0.459689,1.67658 3.081819,3.6499 4.929687,3.90235 6.246654,0.87437 12.593341,1.34325 18.912111,1.40625 31.64795,0.30638 63.30515,0.42433 94.95312,0.5957 1.61349,0.009 3.24516,-0.0194 4.84961,-0.22656 4.09234,-0.53184 6.76055,-2.81164 7.58985,-6.87695 0.70242,-3.44915 1.49459,-6.93434 1.67578,-10.4375 1.3611,-26.57313 2.70457,-97.1267 2.41601,-105.78907 -0.54983,-16.45946 -1.27048,-32.91013 -2.17187,-49.351559 -0.45069,-8.211688 -4.72341,-13.798638 -12.95313,-15.763672 -6.57118,-1.568443 -13.17044,-3.019764 -19.80468,-4.263672 -7.42751,-1.388153 -10.43649,-4.274264 -10.63477,-11.169922 -0.036,-1.180812 0.95375,-2.378519 1.47656,-3.568359 1.28902,0.856345 2.72332,1.559839 3.83203,2.605468 1.51435,1.424197 2.47876,3.929272 4.19141,4.533204 7.85114,2.776306 12.30407,0.215906 14.52149,-7.734376 2.45179,-8.806625 -2.65957,-17.081029 -11.29493,-17.162109 -13.02514,-0.121792 -26.05155,-0.156578 -39.08007,-0.146484 z m 49.12304,68.382811 v 0.002 c 1.17621,-0.001 2.35376,0.44915 3.25586,1.34961 l 1.70508,1.70118 c 1.80476,1.80092 1.80679,4.70361 0.006,6.50781 l -17.46289,17.49414 a 44.883103,44.883103 0 0 1 9.5,27.5918 44.883103,44.883103 0 0 1 -44.88281,44.88281 44.883103,44.883103 0 0 1 -27.46094,-9.51563 l -17.33203,17.36328 c -1.80096,1.80209 -4.70362,1.80487 -6.507816,0.004 l -1.707031,-1.70312 c -1.804592,-1.80097 -1.806819,-4.70362 -0.0059,-6.50782 l 17.384766,-17.41601 a 44.883103,44.883103 0 0 1 -9.25391,-27.10938 44.883103,44.883103 0 0 1 44.88282,-44.88476 44.883103,44.883103 0 0 1 27.11914,9.13281 l 17.50781,-17.53906 c 0.90047,-0.9021 2.0757,-1.35252 3.25195,-1.35352 z m -47.76953,21.62109 a 33.012519,33.012519 0 0 0 -33.01172,33.01368 33.012519,33.012519 0 0 0 5.8418,18.53515 l 45.73633,-45.81836 a 33.012519,33.012519 0 0 0 -18.56641,-5.73047 z m 26.86719,13.85352 -45.89844,45.98047 a 33.012519,33.012519 0 0 0 19.03125,6.19141 33.012519,33.012519 0 0 0 33.01172,-33.01172 33.012519,33.012519 0 0 0 -6.14453,-19.16016 z" />
  <path
     id="path42302"
     style="display:none;fill:#a778aa;stroke-width:1.68642"
     d="m 145.80236,62.740138 c -4.99917,0.04127 -10.00247,2.597044 -15.0691,7.638299 -24.9588,24.840972 -49.868035,49.747943 -74.742753,74.690073 -8.077817,8.09481 -8.161213,11.07954 -0.184515,19.12377 24.436092,24.57112 48.855558,49.17534 73.645908,73.39228 4.04742,3.9631 9.98349,6.00486 16.30757,9.64752 l -0.0202,-0.0162 c 5.91936,-3.47402 12.00624,-5.64793 16.20548,-9.76281 24.40247,-23.8291 48.38525,-48.06319 72.45025,-72.22959 8.51644,-8.56699 8.56706,-12.8678 0,-21.4854 C 209.95904,119.15023 185.45282,94.627304 160.84795,70.191131 155.7982,65.175124 150.80429,62.701495 145.8052,62.740543 Z"
     inkscape:label="purple_sticker" />
  <path
     id="path42271"
     style="display:none;fill:#232323;stroke-width:1.68642"
     d="m 146.63899,37.835759 c -2.24294,3.08617 -5.19562,5.904226 -6.54477,9.344494 -1.56837,4.013719 -2.34438,8.581266 -2.37813,12.898504 -0.0842,11.737478 -4.1e-4,23.510201 0.85969,35.213932 0.38764,5.345951 4.62319,10.084531 10.01971,8.583651 4.21604,-1.18053 9.20627,-5.462197 10.60599,-9.492709 2.1755,-6.256625 1.58711,-13.458442 2.31226,-21.890559 l 0.0162,0.01619 c -1.6697,-8.061226 -2.9855,-17.607715 -5.88614,-26.646909 -1.06246,-3.305402 -5.88533,-5.396163 -9.0052,-8.026994 z m 77.24273,21.692934 c -0.16955,0.003 -0.33868,0.01619 -0.51053,0.02833 -10.82685,0.961256 -31.89158,18.497836 -30.86287,33.119084 -0.0457,7.881613 3.0888,12.008183 8.48152,11.182443 10.18598,-1.58525 30.15427,-22.125335 31.43596,-32.345059 0.80053,-6.371501 -3.28942,-12.080287 -8.54408,-11.986088 z M 69.70913,63.504296 c -5.736463,0.136363 -10.046054,5.480894 -8.385988,12.17388 1.399721,5.683212 4.29826,11.250659 7.536209,16.208761 5.362821,8.246593 12.295595,14.770683 23.122437,14.855003 v 0.0202 c 7.791252,0.0842 10.725642,-2.22689 8.853712,-8.820815 C 96.703744,83.488769 88.455575,71.547273 74.761837,64.700444 73.031648,63.83711 71.315338,63.466543 69.70913,63.5047 Z m 162.02498,81.452214 v 0.0202 c -11.23156,1.39976 -21.34944,2.35956 -31.36676,3.99539 -5.51464,0.91067 -9.86518,4.03014 -9.29181,10.55658 0.5565,6.23975 1.92239,12.95042 9.56186,13.40576 19.81546,1.19736 39.61502,0.54201 57.8621,-8.53093 2.71511,-1.34914 5.31155,-5.90459 5.22722,-8.90643 -0.0676,-2.27665 -4.19863,-5.68204 -7.0487,-6.37349 -8.48269,-2.02371 -17.23698,-2.95243 -24.94391,-4.16663 z m -174.781821,6.46901 c -2.881827,0.008 -5.761915,0.0668 -8.633019,0.2436 -5.986813,0.37105 -11.989689,2.49709 -12.259501,9.64752 -0.252899,6.89745 4.434906,11.7533 10.978216,12.411 15.262073,1.53467 30.625426,2.37773 45.954991,2.81619 7.066104,0.20232 11.096004,-3.86202 10.708124,-11.5184 -0.43847,-8.97174 -4.045324,-13.3729 -11.75225,-13.50781 -6.858239,-0.11815 -13.718097,-0.0162 -20.576337,-0.0162 v 0.0498 c -4.806282,0 -9.617219,-0.13676 -14.420224,-0.12503 z m 14.420224,0.0757 v -0.0162 l -0.01618,0.0162 z m 76.425887,49.99979 c -5.86109,0.0745 -8.87584,3.31475 -9.16993,8.77136 -0.7589,13.67687 -1.40143,27.38647 -1.33397,41.08017 0.0324,5.39656 2.95122,10.69221 9.2753,10.81025 6.81316,0.11815 9.21052,-5.32883 9.86821,-11.11325 0.70828,-6.27349 0.74191,-12.61485 1.12979,-20.22062 l 0.0162,-0.0162 c 0,-5.81816 0.14931,-12.94949 -0.053,-20.0493 -0.16873,-5.73383 -2.84954,-9.12396 -9.15678,-9.25887 -0.19504,-0.004 -0.38724,-0.004 -0.57637,-0.003 z m -51.880543,10.09546 c -0.815546,0.003 -1.710928,0.17682 -2.687723,0.53032 -14.958553,5.43027 -25.617147,15.78624 -30.760736,30.86282 -2.462178,7.21788 3.742127,13.94753 10.470964,12.61522 13.541959,-2.68137 28.366938,-19.83391 28.754828,-33.24092 l -0.0162,0.0162 c 0.19544,-6.85714 -1.831345,-10.79961 -5.760859,-10.78391 z m 105.546303,3.85372 c -0.79782,0.0498 -2.45449,0.0522 -4.06454,0.25371 -9.51141,1.23111 -11.97359,6.22122 -6.32408,13.84382 7.65635,10.33776 17.25212,18.66912 29.93398,21.90703 3.50776,0.8938 8.53158,-1.01172 11.73578,-3.23779 1.78761,-1.24798 2.32715,-6.139 1.55138,-8.83728 -3.06784,-10.7375 -20.99404,-23.76581 -32.81605,-23.92941 z"
     inkscape:label="black_sticker" />
  <path
     id="path42204"
     style="display:none;fill:#5a80b0;stroke-width:1.68642"
     d="m 201.56297,51.564296 c -7.79125,-0.101159 -8.38097,4.771282 -8.73515,10.876127 -0.87693,15.262072 -0.31926,30.997368 -3.97888,45.635487 -5.12671,20.45628 -5.12841,38.77033 8.36293,55.95496 4.92435,6.25662 6.42726,13.52407 4.55532,21.68634 -2.76573,11.99045 -4.70747,24.16684 -7.06849,36.24159 -1.06245,5.41344 -1.68418,10.75926 5.24702,12.51312 8.55015,2.15862 13.99782,-0.94397 15.71797,-8.44858 1.77078,-7.74067 3.28538,-15.53116 5.19102,-23.22125 5.17733,-20.97903 5.71801,-41.11549 -9.03815,-59.14334 -4.46901,-5.46398 -5.83596,-11.95541 -4.31816,-19.3082 2.91751,-14.0985 5.12881,-28.349948 7.64161,-42.532771 v -0.01619 l -1.87088,-0.3229 V 64.212654 c 0,-0.539665 -0.0202,-1.097336 -0.0364,-1.637001 -0.28648,-8.027358 -3.52443,-10.909954 -11.66982,-11.011154 z m -49.24222,15.464351 c -0.99497,0.640865 -4.99181,1.903171 -6.74567,4.601455 -14.67187,22.648606 -20.72796,47.019188 -12.00915,73.428538 7.0998,21.51873 9.9351,43.12062 4.26872,65.39826 -2.02367,7.92616 -4.57244,15.80242 -5.66861,23.86353 -0.43846,3.2042 1.48551,8.14527 4.01514,9.98349 4.06426,2.95123 8.55043,0.87653 10.81025,-3.77801 3.57517,-7.33592 8.0276,-14.53733 9.96699,-22.32862 7.03239,-28.24754 6.05386,-56.39213 -3.35635,-84.11687 -3.08617,-9.12356 -3.50946,-18.24737 0.35244,-27.25285 3.55834,-8.280342 7.59205,-16.358158 10.82996,-24.739696 3.97827,-10.299639 0.79426,-14.920558 -12.46368,-15.059227 z m -57.272458,8.616591 c -3.288529,1.90564 -7.991912,3.003016 -9.62774,5.85308 -5.565221,9.680018 -10.996264,19.645342 -14.723257,30.134882 -5.986812,16.86419 -1.518442,32.98685 6.913675,48.04656 4.452144,7.95991 5.818807,15.73251 1.940034,24.24891 -2.040587,4.45214 -3.930446,9.02341 -5.29642,13.72854 -2.360979,8.07793 -4.97352,16.18885 -6.103389,24.48606 -0.910677,6.76254 4.620393,9.90164 10.134993,7.91167 4.216038,-1.51775 8.163074,-5.86938 10.507178,-9.95052 3.069296,-5.34598 3.792343,-12.02525 6.692986,-17.52298 10.675058,-20.27079 10.728558,-40.15346 -0.823437,-60.0195 -6.846869,-11.75435 -5.954077,-23.44024 0.184515,-35.17771 3.170495,-6.05427 6.35875,-12.125247 8.95584,-18.415618 3.47401,-8.398371 1.11024,-11.654609 -8.738429,-13.290436 z"
     inkscape:label="blue_sticker" />
  <path
     style="display:none;fill:#883c33;stroke-width:1.68642"
     d="m 143.5442,221.74054 c -37.72527,0.91067 -59.345167,-27.94402 -59.986032,-58.45137 -0.573371,-27.573 10.725642,-49.26039 34.925832,-62.86981 25.49867,-14.334599 51.21661,-14.90797 76.2094,2.09117 3.37282,2.29353 7.31904,5.56518 10.8268,5.34595 4.90753,-0.28689 11.29906,-2.12492 14.06479,-5.64951 3.35599,-4.300404 1.66954,-10.15227 -3.60896,-14.300855 C 202.33288,77.129853 187.17196,68.984462 170.0885,66.741516 115.9712,59.624794 62.494769,96.085253 59.712159,154.94138 c -1.585208,33.49232 10.101691,61.23398 39.327354,79.24495 18.938527,11.67007 40.086297,13.57571 62.144657,10.57386 41.62092,-5.6495 70.03714,-40.52471 60.5257,-80.77958 -5.49773,-23.28951 -20.43941,-37.33739 -41.73896,-44.89257 -22.31134,-7.9262 -43.1218,-3.60892 -60.22214,13.10349 -11.65315,11.38334 -15.73428,25.76852 -10.94487,41.6715 4.73887,15.68371 16.62813,23.30635 32.14322,25.83598 14.06475,2.29352 29.64729,-5.59893 35.36425,-17.62309 3.50776,-7.36967 1.43347,-14.60442 -5.76754,-18.33141 -5.90248,-3.0693 -10.89429,-2.37785 -14.45263,4.26666 -4.03055,7.53827 -10.8943,9.46078 -17.80862,5.71696 -6.15546,-3.33911 -9.41025,-11.34964 -5.17733,-17.62314 3.76074,-5.58205 9.32592,-11.19781 15.38018,-13.72748 16.00414,-6.7288 36.84831,1.63587 45.61773,16.79678 9.03919,15.61629 5.3122,38.58533 -8.31409,49.71573 -11.60257,9.49453 -25.27943,12.91797 -42.22799,12.86739 z"
     id="path42023"
     inkscape:label="red_sticker" />
  <path
     style="display:none;fill:#c1c1c1;stroke-width:1.68642"
     d="m 196.13088,206.42145 c 4.18233,3.55834 7.3022,7.47082 11.34963,9.24159 3.28853,1.43343 8.6176,1.63583 11.31589,-0.16873 2.2092,-1.48405 2.68141,-6.83004 2.37785,-10.32092 -0.21932,-2.63083 -2.49589,-5.44715 -4.53647,-7.52144 -6.94807,-7.04923 -7.77442,-9.68006 -0.47217,-16.45948 3.9968,-3.71012 10.33775,-5.21104 15.8861,-6.91432 8.56702,-2.63083 17.53876,-4.03055 25.9203,-7.09985 2.81632,-1.02871 6.30721,-5.76754 5.95307,-8.31404 -0.37105,-2.68141 -4.65455,-5.93624 -7.84187,-6.86375 -6.79629,-1.98996 -13.98043,-3.62579 -21.01282,-3.62579 -10.11853,0 -15.78491,-4.68829 -19.03969,-13.59258 -1.12991,-3.08617 -2.19237,-6.23975 -3.71016,-9.14039 -2.58021,-4.90753 -1.23107,-8.61765 2.22611,-12.61445 2.9681,-3.42344 6.40841,-7.48774 6.99865,-11.65319 0.57337,-3.99681 -1.58525,-8.921166 -3.97997,-12.479507 -0.7589,-1.129909 -6.23975,0.522792 -9.3765,1.500922 -2.29353,0.708277 -4.26666,2.445305 -6.42528,3.625794 -10.72564,5.835032 -12.37834,5.227915 -21.46816,-2.900643 -6.00364,-5.379695 -13.17094,-9.460827 -19.49502,-14.520089 -2.58021,-2.074293 -5.17734,-4.924356 -6.25663,-7.943072 -2.64766,-7.453987 -4.08113,-15.329566 -6.69509,-22.783553 -0.84322,-2.394725 -3.84506,-4.013679 -5.86873,-5.986812 -1.55155,1.956259 -3.64267,3.693287 -4.53648,5.919359 -1.31543,3.271655 -2.52967,6.897449 -2.47905,10.35463 0.18533,17.488185 -7.84187,29.006471 -22.37883,38.872016 -10.64132,7.217925 -18.753001,13.002335 -31.148218,4.705123 -2.293525,-1.534627 -8.685056,0.573412 -11.417086,3.001842 -1.989966,1.77073 -1.686408,6.88062 -1.247942,10.35463 0.320472,2.51276 2.310398,4.94123 3.946226,7.11668 5.885612,7.77442 6.577056,16.44264 5.548347,25.76857 -0.775771,7.08293 -4.131752,10.32088 -11.130401,10.32088 -5.480894,0 -11.248434,-0.72515 -16.375149,0.70832 -4.603964,1.28164 -9.899291,4.23291 -12.15911,8.06106 -1.197363,2.02371 2.495884,9.59577 5.598927,10.92804 6.172298,2.66454 13.457632,3.60892 20.287628,3.69325 7.47086,0.10116 13.23844,1.24794 16.965434,8.60077 3.693246,7.30221 2.445304,13.01917 -3.440308,18.26395 -1.214236,1.07929 -2.630831,2.44531 -2.917517,3.89561 -0.421632,2.15862 -0.809477,5.36282 0.371053,6.54335 1.517794,1.51776 4.924356,2.52963 6.948069,1.90564 4.401564,-1.36601 8.280337,-4.40156 12.665028,-5.76758 3.136749,-0.96126 7.099809,-1.21419 10.152229,-0.16873 8.24663,2.85006 15.98731,7.2685 24.31822,9.69693 6.34095,1.85506 8.22976,5.17734 8.19601,11.16411 -0.0324,6.02056 0.11816,12.10853 1.02871,18.04472 0.7589,4.94123 2.74891,10.01736 9.22476,9.61261 6.45899,-0.40472 8.60073,-5.04239 9.0392,-10.77623 0.33747,-4.36785 -0.0502,-8.92116 1.06246,-13.08662 1.01183,-3.76074 2.74886,-8.29721 5.66638,-10.3715 10.45583,-7.43711 21.53561,-13.98046 32.36245,-20.84421 z"
     id="path41997"
     inkscape:label="white_sticker" />
  <path
     id="path41970"
     style="display:none;fill:#85bfc0;stroke-width:1.68642"
     d="m 187.11078,43.507885 c -3.34303,-0.04289 -6.71051,1.396849 -9.13368,4.631075 -3.94622,5.278495 -1.9406,10.253754 2.57904,14.604698 3.35598,3.237909 6.47732,6.728149 9.49599,10.28653 6.84687,8.010485 5.63251,12.884383 -4.7727,14.46963 -13.77806,2.091166 -27.77698,2.717383 -41.67307,3.982199 v -0.01619 c -0.0324,-0.320473 -0.0684,-0.624922 -0.10197,-0.945314 -9.8993,0 -19.96736,-1.164182 -29.64742,0.303074 -11.24843,1.70328 -22.226529,5.498132 -33.188277,8.83724 -5.919319,1.804443 -7.217598,7.387593 -5.210758,12.042093 1.163615,2.69828 5.902486,4.95717 9.2753,5.37876 5.076135,0.624 10.741585,0.52377 15.497285,-1.16268 19.20834,-6.79629 39.04043,-4.99391 58.75469,-5.53358 12.0242,-0.33747 24.18635,-0.97825 35.99128,-3.08629 15.56567,-2.78261 25.24573,-17.573082 21.5019,-32.582215 -3.18733,-12.783061 -12.31222,-22.023482 -22.85234,-29.140204 -1.95254,-1.315395 -4.22777,-2.039372 -6.51511,-2.068506 z m -1.85113,97.641225 c -5.62467,0.0283 -11.22986,0.26463 -16.79504,0.82344 -29.27625,2.93439 -57.62611,14.87265 -87.931106,8.49799 -5.396528,-1.12991 -8.584018,1.99078 -8.988737,7.97759 -0.607117,8.98861 1.248752,12.00652 10.507179,13.10268 7.352787,0.87693 14.807462,0.81158 25.549974,1.31754 h 0.0162 c 6.29033,-0.70832 15.86882,-1.41659 25.31278,-2.95126 28.80407,-4.70508 57.08596,-14.99453 86.96932,-6.93342 3.45718,0.92751 9.05675,2.04135 9.10733,-4.67061 0.0502,-6.02052 3.74241,-14.85646 -6.54476,-15.49729 -12.35937,-0.77682 -24.82908,-1.72829 -37.20342,-1.66666 z M 76.887276,195.79972 c -5.307143,0.0607 -7.647525,2.51514 -8.10602,8.57046 -0.775771,10.0679 6.238578,10.60773 12.697561,11.09678 17.252079,1.31539 80.999133,1.1626 95.552973,1.44929 l 0.0162,-0.0162 c 4.85686,0.0842 9.88217,0.74296 14.48609,2.21013 5.10985,1.61895 6.99732,5.41211 2.86561,10.0329 -3.62584,4.06426 -8.07495,7.47297 -11.22857,11.85766 -1.95626,2.73199 -2.88442,6.72879 -2.78326,10.11852 0.0324,1.11304 4.65507,2.79787 7.28586,3.0171 11.0292,0.92755 16.98191,-7.11526 24.04801,-13.69228 7.97678,-7.42024 7.40255,-24.33493 0.0324,-32.32859 -7.55515,-8.17913 -16.20666,-12.76873 -27.53942,-12.26277 -18.38195,0.82635 -36.76228,1.90669 -55.16114,1.92356 -17.01597,0 -34.051003,-1.1976 -51.066976,-1.9565 -0.380359,-0.0162 -0.746313,-0.0243 -1.100128,-0.0202 z"
     inkscape:label="cyan_sticker" />
  <path
     id="path41213"
     style="display:none;fill:#83945f;stroke-width:1.68642"
     d="m 84.840828,52.463522 c -1.605884,0.01619 -3.390092,0.586967 -5.279951,1.775347 -5.801286,3.642667 -11.805093,7.000226 -17.420853,10.895873 -5.531474,3.828152 -5.989483,11.195871 -0.592916,15.26013 3.288529,2.479051 7.775998,3.355738 13.425505,5.63239 h 0.01619 C 81.279129,82.82306 89.659736,80.851667 93.8589,75.556299 96.455985,72.26777 93.489871,63.667526 91.53349,57.96744 90.316098,54.414886 87.90628,52.430504 84.840504,52.463522 Z m 73.948942,10.737741 c -4.12063,0.05746 -7.98601,1.782225 -9.59812,4.766143 -6.74567,12.513208 -13.81242,25.076835 -13.32338,40.204044 l 0.0162,0.0162 c 1.33227,9.49454 1.92425,19.19082 4.28523,28.41554 1.18049,4.57022 4.82263,9.44476 8.73515,12.19363 7.11668,5.00868 15.14392,8.83513 23.05324,12.579 8.88746,4.19917 15.55026,2.37838 21.72256,-5.36229 7.18417,-9.02237 14.35042,-18.06108 21.26474,-27.2858 6.32408,-8.44895 6.18796,-23.8452 -1.21541,-29.545323 C 198.53531,87.461742 182.81701,76.382852 166.9647,65.55605 c -2.41844,-1.651123 -5.35583,-2.394199 -8.17522,-2.35507 z M 102.09044,152.081 c -0.86706,0.008 -1.7132,0.0522 -2.513164,0.12179 -4.182332,0.35406 -8.076805,3.28825 -12.275969,4.36758 -7.892453,2.02367 -10.777719,7.62316 -12.025662,14.87475 -3.575214,20.79355 -7.351492,41.57075 -10.876086,62.38116 -2.293525,13.5588 2.325168,19.10621 15.968286,19.29174 11.535119,0.15174 23.069755,0.0364 38.669135,0.0364 l 0.0202,-0.0202 c 11.01233,-0.72515 26.10518,-1.27998 41.06373,-2.88207 8.14539,-0.86009 17.28607,-9.96779 17.13429,-16.67976 -0.28689,-12.59757 -3.34004,-25.36368 -12.32865,-34.01503 -16.57751,-15.93664 -34.5706,-30.4212 -52.46355,-44.90754 -2.46638,-2.00053 -6.61501,-2.61016 -10.37215,-2.56917 z m 126.21154,27.19025 c -14.11533,13.08662 -25.39646,25.24509 -27.1672,43.59337 -1.63582,16.94852 -1.90855,16.9314 15.57964,17.85891 12.20969,0.64087 16.64524,-2.95045 16.71269,-15.21072 0.0676,-11.51825 -0.77362,-23.03734 -1.63372,-34.53872 -0.2529,-3.37285 -1.92304,-6.6267 -3.49141,-11.70284 z"
     inkscape:label="green_sticker" />
  <path
     style="display:none;fill:#b79e5e;stroke-width:1.68642"
     d="m 116.56711,133.40573 c -0.60712,-0.42164 -1.21424,-0.84323 -1.82135,-1.24799 -8.88746,8.48274 -20.135893,15.56568 -26.240738,25.71795 -20.540607,34.18376 -8.971742,74.70852 23.070278,91.92685 37.96134,20.40574 86.17615,9.444 97.2391,-44.79137 5.71696,-27.96085 2.108,-56.19155 -16.56068,-79.91953 -11.48454,-14.60441 -13.64316,-30.541096 -10.01736,-48.063028 1.93938,-9.410206 3.44031,-18.904779 5.32911,-29.461769 -8.98865,8.819962 -17.01601,16.678708 -24.99279,24.57116 -0.7589,0.758897 -1.78761,1.770734 -1.80448,2.681411 -0.28689,14.418888 -2.3441,29.141376 -0.0842,43.172376 2.27669,14.13225 8.88745,27.57301 13.5757,41.31737 6.23975,18.31453 3.84503,35.41487 -6.03739,52.09358 -12.22656,20.62493 -40.35607,19.91661 -52.80186,-0.96126 -8.97178,-15.05975 -10.18598,-31.14822 -6.71196,-47.75947 2.07429,-9.86559 5.19416,-19.5119 7.84187,-29.25945 z"
     id="path42231"
     inkscape:label="yellow_sticker" />
</svg>
