<?xml version="1.0" encoding="UTF-8" standalone="no"?>
<!-- Created with Inkscape (http://www.inkscape.org/) -->

<svg
   version="1.1"
   id="svg5724"
   width="300"
   height="300"
   viewBox="0 0 300 300"
   sodipodi:docname="hair_journey_t.svg"
   xml:space="preserve"
   inkscape:version="1.2.2 (732a01da63, 2022-12-09)"
   inkscape:export-filename="hair_journey_t.png"
   inkscape:export-xdpi="96"
   inkscape:export-ydpi="96"
   xmlns:inkscape="http://www.inkscape.org/namespaces/inkscape"
   xmlns:sodipodi="http://sodipodi.sourceforge.net/DTD/sodipodi-0.dtd"
   xmlns="http://www.w3.org/2000/svg"
   xmlns:svg="http://www.w3.org/2000/svg"><defs
     id="defs5728"><filter
       inkscape:collect="always"
       style="color-interpolation-filters:sRGB"
       id="filter13271"
       x="-0.068072817"
       y="-0.048143024"
       width="1.1354653"
       height="1.0962837"><feGaussianBlur
         inkscape:collect="always"
         stdDeviation="1.9494"
         id="feGaussianBlur13273" /></filter></defs><sodipodi:namedview
     id="namedview5726"
     pagecolor="#ffffff"
     bordercolor="#000000"
     borderopacity="0.25"
     inkscape:showpageshadow="2"
     inkscape:pageopacity="0.0"
     inkscape:pagecheckerboard="0"
     inkscape:deskcolor="#d1d1d1"
     showgrid="false"
     inkscape:zoom="1.2103311"
     inkscape:cx="-178.05045"
     inkscape:cy="190.44375"
     inkscape:window-width="2560"
     inkscape:window-height="1411"
     inkscape:window-x="3191"
     inkscape:window-y="-9"
     inkscape:window-maximized="1"
     inkscape:current-layer="g5730" /><g
     inkscape:groupmode="layer"
     inkscape:label="Image"
     id="g5730"><path
       id="path11798"
       style="mix-blend-mode:normal;fill:#f6f6e1;fill-opacity:1;stroke:#753f4b;stroke-width:12.3;stroke-dasharray:none;filter:url(#filter13271)"
       inkscape:label="bg"
       d="m 200.09883,37.518253 c -3.38127,-0.100566 -10.09695,3.796075 -27.82813,14.759766 l -6.76562,4.183594 -21.05664,0.292968 -21.05664,0.294922 -5.44336,-3.912109 c -2.99395,-2.150905 -8.375,-6.267093 -11.95898,-9.148438 C 97.991679,37.55916 95.003292,36.606539 92.216015,39.598331 89.716077,42.281699 88.691159,46.3548 86.051952,64.094425 83.168801,83.473741 73.225049,176.09403 70.872265,204.5534 c -0.201394,2.43607 -0.44798,5.25436 -0.527344,6.6504 l -0.63086,11.10742 3.074219,4.46679 c 1.399285,2.03379 3.065003,4.06821 4.947266,6.07422 3.765554,4.01313 8.400699,7.91524 13.529297,11.48828 3.846097,2.67954 7.968324,5.17441 12.207037,7.39063 1.4129,0.73874 2.8387,1.44558 4.27148,2.11914 2.86557,1.34712 5.75895,2.55823 8.63281,3.60352 2.87387,1.04528 5.72844,1.92463 8.51563,2.61328 2.78719,0.68864 5.50774,1.18569 8.11328,1.46289 4.125,0.43885 8.97989,0.85854 10.78906,0.93164 1.74579,0.0706 4.04402,-0.0272 6.6543,-0.25586 2.61035,-0.22864 5.5322,-0.58827 8.52539,-1.04297 2.99255,-0.4546 6.05742,-1.00388 8.95117,-1.61133 2.89423,-0.60763 5.61991,-1.27359 7.9336,-1.96094 2.61731,-0.77754 5.33528,-1.74212 8.09765,-2.85547 1.38119,-0.55667 2.77332,-1.15054 4.16992,-1.77734 2.79319,-1.25358 5.60359,-2.63845 8.375,-4.11719 13.85724,-7.3937 26.74736,-17.14086 31.71875,-24.63086 0.49714,-0.74899 0.91428,-1.47458 1.2461,-2.17382 0.18833,-0.39689 0.34318,-0.81407 0.47851,-1.25782 0.059,-0.18986 0.10385,-0.41498 0.15235,-0.62109 0.0635,-0.27769 0.12024,-0.57856 0.16406,-0.89648 0.0409,-0.28722 0.076,-0.60164 0.0996,-0.93164 0.0194,-0.28607 0.0231,-0.62361 0.0293,-0.94727 0.02,-0.93086 -0.0146,-2.05114 -0.11524,-3.39649 -0.0114,-0.15201 -0.0143,-0.26957 -0.0273,-0.42773 -0.0599,-0.73012 -0.15423,-1.61754 -0.25,-2.49414 -0.0363,-0.332 -0.0756,-0.67675 -0.11719,-1.03125 -0.27123,-2.3141 -0.65286,-5.13867 -1.16602,-8.60547 -0.002,-0.0128 -0.004,-0.036 -0.006,-0.0488 -0.67719,-4.57298 -1.5425,-10.09665 -2.69531,-17.2832 -6.89842,-43.0047 -9.15271,-58.87053 -16.55469,-116.499995 -1.76319,-13.727708 -4.16389,-24.660022 -6.09374,-27.75 -0.87994,-1.408891 -1.72869,-2.28046 -3.26563,-2.326172 z m -54.43359,51.017578 c 9.67794,0.178781 19.66788,1.668816 24.30859,4.0625 13.67349,7.0528 20.03125,20.369979 20.03125,41.957029 0,28.06302 -10.64771,46.69876 -29.95898,52.43359 -6.44303,1.91337 -21.45467,2.0065 -28.04102,0.17383 -6.73041,-1.87276 -12.62038,-5.18874 -17.00781,-9.57617 -8.60978,-8.60978 -12.19288,-17.35504 -14.00391,-34.17578 -3.161981,-29.36826 7.46162,-49.168301 28.81055,-53.693358 4.35912,-0.923946 10.05456,-1.288909 15.86133,-1.181641 z" /><path
       style="fill:#f6f6e1;fill-opacity:1"
       d="M 133.00508,261.53048 C 112.16071,259.31289 83.98421,243.05204 72.787877,226.77873 l -3.073581,-4.4673 0.631515,-11.1085 c 1.006536,-17.7052 12.576272,-126.070338 15.706218,-147.108505 2.63921,-17.739643 3.664157,-21.812789 6.164097,-24.496159 2.78728,-2.991795 5.77482,-2.039442 13.772604,4.390361 3.58399,2.881348 8.96595,6.998648 11.9599,9.149555 l 5.44355,3.910739 21.05645,-0.293992 21.05645,-0.293992 6.76542,-4.183256 c 25.79082,-15.947203 28.27794,-16.941713 31.09372,-12.433256 1.92986,3.089981 4.33053,14.022278 6.09373,27.75 7.40198,57.629525 9.65654,73.495255 16.55497,116.499995 4.83681,30.15259 5.20891,34.24097 3.45319,37.94088 -5.30905,11.18798 -32.6694,29.33436 -53.60794,35.55472 -9.25474,2.74938 -25.08054,5.15376 -32.06368,4.87138 -1.80917,-0.0731 -6.66441,-0.49207 -10.78941,-0.93092 z m 27.04042,-74.5407 c 19.31129,-5.73484 29.95958,-24.37106 29.95958,-52.43411 0,-21.58707 -6.35822,-34.904706 -20.03172,-41.957513 -7.42515,-3.829899 -28.54473,-5.344384 -40.16906,-2.880525 -21.34895,4.525062 -31.973315,24.324678 -28.81133,53.692968 1.81103,16.82076 5.39485,25.56656 14.00464,34.17635 4.38744,4.38744 10.27705,7.70374 17.00747,9.5765 6.58636,1.83267 21.59739,1.7397 28.04042,-0.17367 z"
       id="path12528"
       inkscape:label="bg" /><path
       id="path12530"
       style="fill:#ce9e9a;fill-opacity:0.531746"
       d="m 228.7082,201.37762 c -13.34795,12.93949 -41.09471,33.8512 -80.67382,33.28125 -43.80022,-0.63072 -64.965357,-17.50034 -77.162115,-30.10547 -0.201394,2.43607 -0.44798,5.25436 -0.527344,6.6504 l -0.63086,11.10742 3.074219,4.46679 c 11.196322,16.2733 39.37245,32.53437 60.2168,34.75196 4.125,0.43885 8.97989,0.85854 10.78906,0.93164 6.98314,0.28238 22.80972,-2.12172 32.06446,-4.8711 20.93851,-6.22035 48.29837,-24.36671 53.60742,-35.55468 1.33726,-2.81808 1.40631,-6.04436 -0.75782,-20.65821 z" /></g></svg>
