<?xml version="1.0" encoding="UTF-8" standalone="no"?>
<!-- Created with Inkscape (http://www.inkscape.org/) -->

<svg
   version="1.1"
   id="svg6096"
   width="256"
   height="256"
   viewBox="0 0 256 256"
   sodipodi:docname="hat.svg"
   inkscape:export-filename="hat.png"
   inkscape:export-xdpi="112.5"
   inkscape:export-ydpi="112.5"
   inkscape:version="1.2.2 (732a01da63, 2022-12-09)"
   xmlns:inkscape="http://www.inkscape.org/namespaces/inkscape"
   xmlns:sodipodi="http://sodipodi.sourceforge.net/DTD/sodipodi-0.dtd"
   xmlns:xlink="http://www.w3.org/1999/xlink"
   xmlns="http://www.w3.org/2000/svg"
   xmlns:svg="http://www.w3.org/2000/svg">
  <defs
     id="defs6100">
    <linearGradient
       inkscape:collect="always"
       id="linearGradient15983">
      <stop
         style="stop-color:#b97e8d;stop-opacity:1;"
         offset="0"
         id="stop15979" />
      <stop
         style="stop-color:#753f4b;stop-opacity:1;"
         offset="1"
         id="stop15981" />
    </linearGradient>
    <filter
       inkscape:collect="always"
       style="color-interpolation-filters:sRGB"
       id="filter14500"
       x="-0.02548376"
       y="-0.071648323"
       width="1.0505601"
       height="1.1432417">
      <feGaussianBlur
         inkscape:collect="always"
         stdDeviation="0.795601"
         id="feGaussianBlur14502" />
    </filter>
    <radialGradient
       inkscape:collect="always"
       xlink:href="#linearGradient15983"
       id="radialGradient15985"
       cx="122.40262"
       cy="53.294453"
       fx="122.40262"
       fy="53.294453"
       r="68.970388"
       gradientTransform="matrix(0.05396105,1.3243957,-1.6243398,0.06618199,202.36594,-87.677348)"
       gradientUnits="userSpaceOnUse" />
    <filter
       inkscape:collect="always"
       style="color-interpolation-filters:sRGB"
       id="filter17450"
       x="-0.012986821"
       y="-0.022604828"
       width="1.0259703"
       height="1.0557305">
      <feGaussianBlur
         inkscape:collect="always"
         stdDeviation="0.3295142"
         id="feGaussianBlur17452" />
    </filter>
  </defs>
  <sodipodi:namedview
     id="namedview6098"
     pagecolor="#ffffff"
     bordercolor="#000000"
     borderopacity="0.25"
     inkscape:showpageshadow="2"
     inkscape:pageopacity="0.0"
     inkscape:pagecheckerboard="0"
     inkscape:deskcolor="#d1d1d1"
     showgrid="false"
     inkscape:zoom="1.3838301"
     inkscape:cx="-161.50827"
     inkscape:cy="-38.2995"
     inkscape:window-width="2560"
     inkscape:window-height="1369"
     inkscape:window-x="1912"
     inkscape:window-y="-8"
     inkscape:window-maximized="1"
     inkscape:current-layer="g6102" />
  <g
     inkscape:groupmode="layer"
     inkscape:label="Image"
     id="g6102">
    <path
       style="fill:none;fill-opacity:1;stroke:#753f4b;stroke-opacity:1;filter:url(#filter17450);stroke-width:2;stroke-dasharray:none"
       d="m 186.01165,151.51404 c -0.62402,-0.7519 -1.49546,-6.68765 -1.93655,-13.19056 -0.54866,-8.08883 -1.58994,-14.23587 -3.29656,-19.46085 l -2.49459,-7.63738 4.063,-0.54496 c 2.23465,-0.29973 4.40855,-0.3314 4.83089,-0.0704 0.42235,0.26103 1.68011,3.42798 2.79503,7.03767 2.20175,7.12843 2.8928,26.94533 1.10373,31.65094 -1.13671,2.98977 -3.54727,4.04421 -5.06495,2.21552 z M 55.881514,141.32276 C 55.263142,139.77024 54.534295,135.341 54.261854,131.48001 52.8207,111.05615 66.068667,89.7433 86.153503,80.173887 90.744077,77.986711 97.425,75.443062 101,74.521334 c 8.78068,-2.263887 28.42524,-3.123065 36.87607,-1.612818 9.26071,1.654981 9.625,1.97287 7.46109,6.510642 -1.54224,3.234114 -2.11457,3.644306 -4.30785,3.087456 -1.39112,-0.353192 -8.29465,-0.890744 -15.34117,-1.194561 -10.10492,-0.435682 -14.33059,-0.190732 -20,1.159341 -16.811458,4.003366 -31.243499,14.367951 -37.916865,27.230556 -4.113516,7.92862 -5.603878,13.67317 -6.570423,25.32547 -0.573228,6.91062 -1.018994,8.51011 -2.447938,8.78366 -1.153297,0.22078 -2.129212,-0.62494 -2.8714,-2.48832 z"
       id="path9045"
       sodipodi:nodetypes="ssscsssssssssssssssssss" />
    <path
       style="fill:url(#radialGradient15985);fill-opacity:1"
       d="m 186.01165,151.51404 c -0.62402,-0.7519 -1.49546,-6.68765 -1.93655,-13.19056 -0.54866,-8.08883 -1.58994,-14.23587 -3.29656,-19.46085 l -2.49459,-7.63738 4.063,-0.54496 c 2.23465,-0.29973 4.40855,-0.3314 4.83089,-0.0704 0.42235,0.26103 1.68011,3.42798 2.79503,7.03767 2.20175,7.12843 2.8928,26.94533 1.10373,31.65094 -1.13671,2.98977 -3.54727,4.04421 -5.06495,2.21552 z M 55.881514,141.32276 C 55.263142,139.77024 54.534295,135.341 54.261854,131.48001 52.8207,111.05615 66.068667,89.7433 86.153503,80.173887 90.744077,77.986711 97.425,75.443062 101,74.521334 c 8.78068,-2.263887 28.42524,-3.123065 36.87607,-1.612818 9.26071,1.654981 9.625,1.97287 7.46109,6.510642 -1.54224,3.234114 -2.11457,3.644306 -4.30785,3.087456 -1.39112,-0.353192 -8.29465,-0.890744 -15.34117,-1.194561 -10.10492,-0.435682 -14.33059,-0.190732 -20,1.159341 -16.811458,4.003366 -31.243499,14.367951 -37.916865,27.230556 -4.113516,7.92862 -5.603878,13.67317 -6.570423,25.32547 -0.573228,6.91062 -1.018994,8.51011 -2.447938,8.78366 -1.153297,0.22078 -2.129212,-0.62494 -2.8714,-2.48832 z"
       id="path17443"
       sodipodi:nodetypes="ssscsssssssssssssssssss" />
    <path
       style="display:inline;fill:none;fill-opacity:1;stroke-width:8;stroke-dasharray:none;stroke:#753f4b;stroke-opacity:1;filter:url(#filter14500)"
       d="m 158.7519,101.91426 c -9.29227,-1.36093 -10.11396,-2.117287 -9.43604,-8.685676 1.24872,-12.098949 11.74241,-26.348426 24.19713,-32.857515 C 176.80585,58.650158 186.925,54.426149 196,50.984383 215.98456,43.405081 229.06784,37.411271 238.61199,31.462664 242.55002,29.008199 246.08071,27 246.45798,27 c 0.63592,0 0.13116,7.144614 -1.04013,14.722256 -0.43438,2.810237 -1.03637,3.360558 -4.70796,4.303867 -9.81651,2.52207 -9.78792,2.485807 -4.02929,5.111628 l 5.18059,2.362249 -1.7716,5 c -2.77403,7.829129 -4.98164,11.5 -6.91593,11.5 -0.97623,0 -5.68968,-0.855473 -10.47432,-1.90105 C 217.9147,67.053372 214,66.384324 214,66.612177 c 0,0.227852 3.38878,2.576114 7.53061,5.218359 7.08652,4.520776 7.42561,4.898952 5.75,6.412818 -2.84018,2.566032 -14.52601,7.754993 -17.46661,7.755857 -1.59158,4.68e-4 -6.00882,-2.223301 -10.84106,-5.457705 -4.48529,-3.002172 -7.90375,-4.80358 -7.59659,-4.00313 0.30716,0.80045 2.79914,4.775881 5.53773,8.834289 l 4.97924,7.378925 -2.19666,2.062137 c -2.46862,2.317441 -10.36815,6.130783 -12.76969,6.164313 -0.86517,0.0121 -4.44576,-3.55995 -7.95687,-7.937841 -3.51111,-4.37789 -6.51293,-7.830707 -6.67071,-7.672927 -0.15778,0.157781 0.78169,3.852191 2.08772,8.209801 1.30602,4.35761 2.17664,8.260427 1.93472,8.672927 -0.55581,0.94769 -10.04486,0.76637 -17.56993,-0.33574 z M 47.256867,99.562685 C 45.663746,98.222163 43.551332,95.331438 42.562615,93.138854 40.808713,89.249396 40.816501,88.999676 42.882473,82.881997 44.047113,79.43331 45,76.220293 45,75.741959 45,75.263626 42.39295,76.701003 39.206556,78.936131 36.020162,81.171259 32.924424,83 32.327138,83 30.919943,83 23.496005,75.79531 21.975335,72.953914 20.912408,70.967815 21.346757,70.253937 26.583242,65.380559 29.763042,62.421252 31.910134,60 31.354556,60 c -0.555578,0 -4.125135,1.09404 -7.932349,2.431199 -3.807214,1.337159 -7.218852,2.124659 -7.581418,1.75 C 14.777782,63.082735 11.999742,52.867382 12.002875,50.068499 12.004822,48.329573 12.972832,46.854041 15,45.5 16.646837,44.4 17.995543,43.212581 17.997125,42.861291 17.998706,42.510001 16.425,41.92711 14.5,41.565978 11.022228,40.913544 11.000379,40.87632 11.059611,35.704687 c 0.0683,-5.963318 1.318424,-14.416055 2.273295,-15.370926 0.355887,-0.355887 4.814073,3.36863 9.907081,8.276704 C 31.67479,36.738992 39.748423,42.681297 55,51.986273 63.200199,56.989208 67.906524,61.811131 71.117835,68.5 74.556362,75.662138 74.848107,79.596046 72.007596,80.497589 67.940453,81.78845 60.060672,89.094535 55.88394,95.447345 53.514473,99.051305 51.255785,102 50.864634,102 c -0.391151,0 -2.014646,-1.09679 -3.607767,-2.437315 z"
       id="path13771"
       sodipodi:nodetypes="ssssssssscsssssssssscsssssssssssssssssssssssssssssss" />
    <path
       style="display:inline;fill:#ce9e9a;fill-opacity:1"
       d="m 158.7519,101.91426 c -9.29227,-1.36093 -10.11396,-2.117287 -9.43604,-8.685676 1.24872,-12.098949 11.74241,-26.348426 24.19713,-32.857515 C 176.80585,58.650158 186.925,54.426149 196,50.984383 215.98456,43.405081 229.06784,37.411271 238.61199,31.462664 242.55002,29.008199 246.08071,27 246.45798,27 c 0.63592,0 0.13116,7.144614 -1.04013,14.722256 -0.43438,2.810237 -1.03637,3.360558 -4.70796,4.303867 -9.81651,2.52207 -9.78792,2.485807 -4.02929,5.111628 l 5.18059,2.362249 -1.7716,5 c -2.77403,7.829129 -4.98164,11.5 -6.91593,11.5 -0.97623,0 -5.68968,-0.855473 -10.47432,-1.90105 C 217.9147,67.053372 214,66.384324 214,66.612177 c 0,0.227852 3.38878,2.576114 7.53061,5.218359 7.08652,4.520776 7.42561,4.898952 5.75,6.412818 -2.84018,2.566032 -14.52601,7.754993 -17.46661,7.755857 -1.59158,4.68e-4 -6.00882,-2.223301 -10.84106,-5.457705 -4.48529,-3.002172 -7.90375,-4.80358 -7.59659,-4.00313 0.30716,0.80045 2.79914,4.775881 5.53773,8.834289 l 4.97924,7.378925 -2.19666,2.062137 c -2.46862,2.317441 -10.36815,6.130783 -12.76969,6.164313 -0.86517,0.0121 -4.44576,-3.55995 -7.95687,-7.937841 -3.51111,-4.37789 -6.51293,-7.830707 -6.67071,-7.672927 -0.15778,0.157781 0.78169,3.852191 2.08772,8.209801 1.30602,4.35761 2.17664,8.260427 1.93472,8.672927 -0.55581,0.94769 -10.04486,0.76637 -17.56993,-0.33574 z M 47.256867,99.562685 C 45.663746,98.222163 43.551332,95.331438 42.562615,93.138854 40.808713,89.249396 40.816501,88.999676 42.882473,82.881997 44.047113,79.43331 45,76.220293 45,75.741959 45,75.263626 42.39295,76.701003 39.206556,78.936131 36.020162,81.171259 32.924424,83 32.327138,83 30.919943,83 23.496005,75.79531 21.975335,72.953914 20.912408,70.967815 21.346757,70.253937 26.583242,65.380559 29.763042,62.421252 31.910134,60 31.354556,60 c -0.555578,0 -4.125135,1.09404 -7.932349,2.431199 -3.807214,1.337159 -7.218852,2.124659 -7.581418,1.75 C 14.777782,63.082735 11.999742,52.867382 12.002875,50.068499 12.004822,48.329573 12.972832,46.854041 15,45.5 16.646837,44.4 17.995543,43.212581 17.997125,42.861291 17.998706,42.510001 16.425,41.92711 14.5,41.565978 11.022228,40.913544 11.000379,40.87632 11.059611,35.704687 c 0.0683,-5.963318 1.318424,-14.416055 2.273295,-15.370926 0.355887,-0.355887 4.814073,3.36863 9.907081,8.276704 C 31.67479,36.738992 39.748423,42.681297 55,51.986273 63.200199,56.989208 67.906524,61.811131 71.117835,68.5 74.556362,75.662138 74.848107,79.596046 72.007596,80.497589 67.940453,81.78845 60.060672,89.094535 55.88394,95.447345 53.514473,99.051305 51.255785,102 50.864634,102 c -0.391151,0 -2.014646,-1.09679 -3.607767,-2.437315 z"
       id="path9043"
       sodipodi:nodetypes="ssssssssscsssssssssscsssssssssssssssssssssssssssssss" />
    <path
       style="fill:#f6f6e1;fill-opacity:1"
       d="m 149.67099,97.849862 c -1.86605,-7.135787 4.67107,-21.13418 13.90196,-29.76922 7.20972,-6.744338 10.62535,-8.49249 34.47124,-17.642686 17.99875,-6.906521 33.56482,-14.215129 42.66902,-20.034041 6.54194,-4.181254 7.94728,-2.706511 2.65159,2.782533 -5.35248,5.547913 -10.22295,8.528011 -38.8648,23.780259 -13.75,7.322096 -26.8,14.548188 -29,16.057981 -5.25882,3.608967 -14.03194,12.930946 -19.50504,20.725312 -2.41377,3.4375 -4.69761,6.25 -5.07519,6.25 -0.37758,0 -0.93953,-0.967562 -1.24878,-2.150138 z M 66.665775,77.69266 C 61.595588,69.041041 54.408825,61.706928 41.459358,51.969439 24.70972,39.37437 12.515746,26.330048 13.195454,21.734549 c 0.288295,-1.949156 1.606035,-1.017574 10.317526,7.294015 9.590453,9.150202 13.427608,12.003258 32.694352,24.309376 9.678114,6.181636 13.984912,11.202957 16.302525,19.007207 1.89665,6.386712 1.925373,6.13966 -0.931437,8.011514 -2.370166,1.552992 -2.474471,1.49643 -4.912645,-2.664001 z"
       id="path9047" />
  </g>
</svg>
