<?xml version="1.0" encoding="UTF-8" standalone="no"?>
<!-- Created with Inkscape (http://www.inkscape.org/) -->

<svg
   version="1.1"
   id="svg2"
   width="300"
   height="300"
   viewBox="0 0 300 300"
   sodipodi:docname="mask_journey_t.svg"
   xml:space="preserve"
   inkscape:version="1.2.2 (732a01da63, 2022-12-09)"
   xmlns:inkscape="http://www.inkscape.org/namespaces/inkscape"
   xmlns:sodipodi="http://sodipodi.sourceforge.net/DTD/sodipodi-0.dtd"
   xmlns="http://www.w3.org/2000/svg"
   xmlns:svg="http://www.w3.org/2000/svg"><defs
     id="defs6"><filter
       inkscape:collect="always"
       style="color-interpolation-filters:sRGB"
       id="filter2334"
       x="-0.058396401"
       y="-0.056426789"
       width="1.1162263"
       height="1.1129704"><feGaussianBlur
         inkscape:collect="always"
         stdDeviation="1.9494"
         id="feGaussianBlur2336" /></filter></defs><sodipodi:namedview
     id="namedview4"
     pagecolor="#ffffff"
     bordercolor="#000000"
     borderopacity="0.25"
     inkscape:showpageshadow="2"
     inkscape:pageopacity="0.0"
     inkscape:pagecheckerboard="0"
     inkscape:deskcolor="#d1d1d1"
     showgrid="false"
     inkscape:zoom="0.42791667"
     inkscape:cx="-620.44791"
     inkscape:cy="279.25998"
     inkscape:window-width="2400"
     inkscape:window-height="1321"
     inkscape:window-x="6391"
     inkscape:window-y="-9"
     inkscape:window-maximized="1"
     inkscape:current-layer="g8" /><g
     inkscape:groupmode="layer"
     inkscape:label="Image"
     id="g8"><path
       id="path855"
       style="mix-blend-mode:normal;fill:#ce9e9a;fill-opacity:1;stroke:#753f4b;stroke-width:12.3;stroke-dasharray:none;filter:url(#filter2334)"
       d="m 147.11322,54.040678 c -4.34999,0.02392 -8.08203,0.144364 -10.14453,0.355469 -15.82977,1.620244 -34.30125,8.273532 -44.499995,16.029297 -12.197668,9.275868 -23.253215,24.952555 -28.640625,40.611326 -1.031812,2.99902 -2.659178,6.31896 -3.617187,7.37696 -1.236749,1.36582 -1.795907,3.84946 -1.925782,8.56836 -0.100604,3.65534 -0.491199,10.02148 -0.86914,14.14648 -0.763508,8.33319 0.966404,20.74121 5.160156,37 9.413409,36.49492 34.799571,61.71435 66.892573,66.45508 17.48058,2.58221 36.07442,1.43947 49.96484,-3.07227 29.79933,-9.67909 52.07746,-36.09203 58.97266,-69.91797 0.78078,-3.8303 2.22022,-10.62832 3.19727,-15.10546 1.56722,-7.18161 1.61973,-8.92001 0.45703,-14.76954 -0.79729,-4.01111 -1.04934,-8.76788 -0.64063,-12.03906 0.52464,-4.19908 0.28282,-6.14871 -1.08203,-8.72851 -0.96665,-1.82714 -2.76237,-7.23651 -3.99023,-12.02149 -5.18551,-20.207856 -17.09083,-36.274223 -32.99414,-44.529297 -13.6284,-7.074217 -23.3631,-9.40385 -42.38477,-10.136718 -4.5375,-0.174821 -9.50547,-0.246571 -13.85547,-0.222657 z m -3.78125,24.84375 c 2.36522,-0.0204 4.71711,1.994813 8.8086,6.03125 3.74228,3.691938 6.8094,7.278442 6.8164,7.970703 0.0144,1.484872 -4.00085,6.359453 -9.19336,11.160159 -5.57264,5.15216 -8.07949,4.79746 -15.00195,-2.125 -7.63356,-7.63357 -7.67212,-9.580537 -0.32422,-16.853518 4.14984,-4.107523 6.52931,-6.163193 8.89453,-6.183594 z M 90.855414,146.46646 c 6.153754,0.28015 14.642426,2.87218 18.283196,6.07813 5.79471,5.10263 9.23371,17.72371 5.2461,19.2539 -1.27522,0.48935 -1.32393,0.77236 -0.25,1.45313 0.79131,0.50161 -1.91995,0.84856 -6.66602,0.85156 -10.447652,0.007 -16.750432,-2.74964 -20.775386,-9.08594 -5.518827,-8.68803 -5.910079,-16.10565 -0.947265,-17.99805 1.266545,-0.48295 3.058123,-0.64611 5.109375,-0.55273 z m 110.417966,0.86719 c 2.26082,0.0742 4.102,0.48568 5.27148,1.25195 2.36069,1.54678 2.57984,2.16982 2.01172,5.72266 -0.95307,5.96014 -5.02284,13.20857 -9.29492,16.55664 -4.11068,3.22155 -7.87921,3.95119 -17.90235,3.46875 -5.43456,-0.26159 -6.23671,-0.57384 -7.26562,-2.83203 -2.83139,-6.21423 5.0429,-18.87308 13.55469,-21.78907 4.92387,-1.68683 9.85696,-2.50261 13.625,-2.3789 z" /><path
       style="fill:#ce9e9a;fill-opacity:1"
       d="m 129.46869,244.58421 c -32.093034,-4.74073 -57.478582,-29.96068 -66.892001,-66.45564 -4.193756,-16.25881 -5.924502,-28.6668 -5.160994,-37 0.377942,-4.125 0.76948,-10.49074 0.870084,-14.14609 0.129875,-4.7189 0.688001,-7.20388 1.924751,-8.56971 0.95801,-1.058 2.586047,-4.37738 3.61786,-7.3764 C 69.215805,95.37758 80.271015,79.701917 92.468695,70.42604 102.66745,62.670267 121.1389,56.01647 136.96869,54.396225 c 4.125,-0.422211 14.925,-0.481585 24,-0.131943 19.02169,0.732869 28.75714,3.06075 42.38555,10.134974 15.90333,8.255082 27.80727,24.321477 32.99278,44.529354 1.22786,4.78498 3.02337,10.19489 3.99002,12.02203 1.36485,2.57981 1.6066,4.53025 1.08196,8.72934 -0.40871,3.27118 -0.15497,8.02654 0.64232,12.03766 1.1627,5.84953 1.1087,7.58905 -0.45853,14.77066 -0.97705,4.47715 -2.41527,11.27416 -3.19605,15.10447 -6.89521,33.82597 -29.17353,60.23914 -58.97289,69.91824 -13.89044,4.51174 -32.48456,5.65541 -49.96516,3.0732 z m 69.79299,-73.7192 c 4.27209,-3.34807 8.34126,-10.59698 9.29433,-16.55713 0.56812,-3.55284 0.34959,-4.17454 -2.0111,-5.72132 -3.11861,-2.0434 -11.01788,-1.57251 -18.89609,1.12643 -8.5118,2.91599 -16.38735,15.57453 -13.55596,21.78876 1.02891,2.2582 1.83169,2.57116 7.26626,2.83275 10.02315,0.48244 13.79188,-0.24793 17.90256,-3.46949 z m -85.12684,2.38741 c -1.07393,-0.68077 -1.02522,-0.96395 0.25,-1.4533 3.98762,-1.53019 0.54874,-14.15244 -5.24597,-19.25508 -4.85437,-4.2746 -18.326058,-7.456 -23.392246,-5.52418 -4.962819,1.8924 -4.573023,9.30987 0.94581,17.99791 4.024958,6.3363 10.328594,9.09296 20.776256,9.08572 4.74607,-0.003 7.45747,-0.34946 6.66615,-0.85107 z m 35.62876,-69.20614 c 5.19251,-4.80071 9.20729,-9.67418 9.19286,-11.159053 -0.007,-0.692262 -3.0741,-4.279337 -6.81639,-7.971278 -8.18298,-8.072883 -9.40253,-8.062364 -17.70221,0.15269 -7.34791,7.272988 -7.31062,9.218477 0.32295,16.852051 6.92247,6.92247 9.43014,7.27776 15.00279,2.12559 z"
       id="path1589" /><path
       style="fill:#f6f6e1;fill-opacity:1"
       d="m 133.96869,237.52529 c -24.20702,-6.47718 -54.635692,-33.48185 -67.491225,-59.89672 -6.437012,-13.22643 -10.737685,-36.02069 -7.00877,-37.14761 0.55,-0.16622 2.8,3.60299 5,8.37602 6.217996,13.49031 12.933472,22.70475 26.496691,36.35665 13.639684,13.72886 25.143304,22.4318 38.728614,29.2997 13.02689,6.5856 15.87412,7.23441 22.40135,5.10464 11.89347,-3.88071 28.99606,-13.09551 40.96665,-22.07265 8.85274,-6.63895 28.69199,-26.70409 33.31789,-33.69722 2.10304,-3.17925 5.25226,-9.02925 6.99825,-13 4.7897,-10.89276 5.64285,-12.2466 6.68272,-10.60463 0.48246,0.76181 0.8841,4.2033 0.89252,7.64776 0.0507,20.73486 -18.15288,49.90695 -43.98469,70.48754 -10.24778,8.16456 -26.17219,16.64496 -36.33868,19.35184 -6.65497,1.77191 -19.64573,1.67187 -26.66132,-0.20532 z m -17.5,-96.10472 c -7.95543,-0.73944 -37.16373,-5.26762 -44.112957,-6.83885 -8.538364,-1.93055 -13.387038,-4.63632 -13.387038,-7.47057 0,-3.33985 2.675237,-8.7384 4.927651,-9.94386 2.353533,-1.25957 11.009715,-0.0937 19.389527,2.61153 9.100486,2.93787 42.523417,6.09237 66.305467,6.25798 21.37461,0.14885 52.64066,-2.16898 66.87735,-4.95779 15.27489,-2.99219 18.41137,-3.23853 20.85424,-1.6379 2.76279,1.81025 4.09841,6.97316 2.55161,9.86338 -2.44427,4.56716 -14.40075,7.58494 -42.90585,10.8293 -14.09719,1.6045 -23.23616,1.9594 -47,1.82519 -16.225,-0.0916 -31.3,-0.33392 -33.5,-0.53841 z"
       id="path1591" /></g></svg>
