<?xml version="1.0" encoding="UTF-8" standalone="no"?>
<!-- Created with Inkscape (http://www.inkscape.org/) -->

<svg
   version="1.1"
   id="svg5969"
   width="256"
   height="256"
   viewBox="0 0 256 256"
   sodipodi:docname="mask.svg"
   xml:space="preserve"
   inkscape:export-filename="mask.png"
   inkscape:export-xdpi="112.5"
   inkscape:export-ydpi="112.5"
   inkscape:version="1.2.2 (732a01da63, 2022-12-09)"
   xmlns:inkscape="http://www.inkscape.org/namespaces/inkscape"
   xmlns:sodipodi="http://sodipodi.sourceforge.net/DTD/sodipodi-0.dtd"
   xmlns="http://www.w3.org/2000/svg"
   xmlns:svg="http://www.w3.org/2000/svg"><defs
     id="defs5973"><filter
       inkscape:collect="always"
       style="color-interpolation-filters:sRGB"
       id="filter8957"
       x="-0.037366631"
       y="-0.036560997"
       width="1.0747202"
       height="1.0723275"><feGaussianBlur
         inkscape:collect="always"
         stdDeviation="0.73251066"
         id="feGaussianBlur8959" /></filter></defs><sodipodi:namedview
     id="namedview5971"
     pagecolor="#ffffff"
     bordercolor="#000000"
     borderopacity="0.25"
     inkscape:showpageshadow="2"
     inkscape:pageopacity="0.0"
     inkscape:pagecheckerboard="0"
     inkscape:deskcolor="#d1d1d1"
     showgrid="false"
     inkscape:zoom="2.7676601"
     inkscape:cx="51.12622"
     inkscape:cy="134.77088"
     inkscape:window-width="2560"
     inkscape:window-height="1369"
     inkscape:window-x="1912"
     inkscape:window-y="-8"
     inkscape:window-maximized="1"
     inkscape:current-layer="g5975" /><g
     inkscape:groupmode="layer"
     inkscape:label="Image"
     id="g5975"><g
       id="g9030"
       transform="matrix(1.3976004,0,0,1.3976004,-51.374439,-50.040511)"
       style="display:inline"><path
         style="fill:none;fill-opacity:1;stroke:#753f4b;stroke-width:7.15512;stroke-dasharray:none;stroke-opacity:1;filter:url(#filter8957)"
         d="M 111.82018,200.95374 C 79.127409,196.40555 56,164.26101 56,123.36987 56,110.13777 58.141877,99.66873 62.929489,89.5 72.250563,69.702342 85.76189,58.785786 107.75904,53.279702 c 10.27402,-2.57168 36.10082,-2.25501 46.58291,0.571167 29.48956,7.95096 42.94054,27.708995 44.35257,65.149131 0.75272,19.95851 -2.91629,35.67296 -11.83991,50.71061 -6.05167,10.19798 -18.5235,21.32133 -29.35461,26.18071 -11.08299,4.97239 -30.69988,7.14641 -45.67982,5.06242 z m 53.75986,-55.83942 c 6.6309,-4.04352 8.61578,-15.35128 3.71665,-21.17357 -7.10277,-8.44116 -18.39658,-7.45671 -23.44508,2.04365 -2.35059,4.42338 -2.35059,8.60782 0,13.0312 3.91964,7.37606 13.02025,10.18936 19.72843,6.09872 z M 94,143.07764 c 3.356563,-2.37465 5.002975,-7.59279 4.046311,-12.82439 -1.03865,-5.67993 -3.508261,-9.13049 -7.826017,-10.93457 -4.759891,-1.9888 -10.061837,-0.48414 -13.753527,3.90319 -2.350666,2.7936 -2.62614,3.84275 -2.237984,8.5234 C 75.183118,143.25331 85.440964,149.13285 94,143.07764 Z"
         id="path8229"
         sodipodi:nodetypes="ssssssssssssssssssss" /><path
         style="fill:#f6f6e1;fill-opacity:1"
         d="M 111.82018,200.95374 C 79.127409,196.40555 56,164.26101 56,123.36987 56,110.13777 58.141877,99.66873 62.929489,89.5 72.250563,69.702342 85.76189,58.785786 107.75904,53.279702 c 10.27402,-2.57168 36.10082,-2.25501 46.58291,0.571167 29.48956,7.95096 42.94054,27.708995 44.35257,65.149131 0.75272,19.95851 -2.91629,35.67296 -11.83991,50.71061 -6.05167,10.19798 -18.5235,21.32133 -29.35461,26.18071 -11.08299,4.97239 -30.69988,7.14641 -45.67982,5.06242 z M 97.843914,168.80725 c 4.143366,-1.26924 6.413556,-5.77022 4.981846,-9.87723 -1.07011,-3.06973 -8.304485,-6.77779 -18.305553,-9.38274 -14.7149,-3.83275 -20.82613,0.18268 -15.588544,10.24256 4.614383,8.86288 16.904009,12.69588 28.912251,9.01741 z m 78.529256,-2.18005 c 5.2862,-3.09792 8.87667,-8.44795 9.02188,-13.44316 0.2015,-6.93197 -6.26027,-7.35018 -24.51211,-1.58641 C 152.4745,154.25293 148,157.1698 148,159.99585 c 0,2.76483 4.73124,7.85591 8.33291,8.96669 5.49411,1.69442 15.06767,0.57879 20.04026,-2.33534 z m -10.79313,-21.51288 c 6.6309,-4.04352 8.61578,-15.35128 3.71665,-21.17357 -7.10277,-8.44116 -18.39658,-7.45671 -23.44508,2.04365 -2.35059,4.42338 -2.35059,8.60782 0,13.0312 3.91964,7.37606 13.02025,10.18936 19.72843,6.09872 z M 94,143.07764 c 3.356563,-2.37465 5.002975,-7.59279 4.046311,-12.82439 -1.03865,-5.67993 -3.508261,-9.13049 -7.826017,-10.93457 -4.759891,-1.9888 -10.061837,-0.48414 -13.753527,3.90319 -2.350666,2.7936 -2.62614,3.84275 -2.237984,8.5234 C 75.183118,143.25331 85.440964,149.13285 94,143.07764 Z"
         id="path6223"
         sodipodi:nodetypes="sssssssssssssssssssssssssssssss" /><path
         d="m 97.813922,168.75886 c 4.143368,-1.26924 6.413558,-5.77022 4.981848,-9.87723 -1.07011,-3.06973 -8.304488,-6.77779 -18.305558,-9.38274 -14.7149,-3.83275 -20.82613,0.18268 -15.58854,10.24256 4.61438,8.86288 16.904,12.69588 28.91225,9.01741 z m 78.529258,-2.18005 c 5.2862,-3.09792 8.87667,-8.44795 9.02188,-13.44316 0.2015,-6.93197 -6.26027,-7.35018 -24.51211,-1.58641 -8.40844,2.6553 -12.88294,5.57217 -12.88294,8.39822 0,2.76483 4.73124,7.85591 8.33291,8.96669 5.49411,1.69442 15.06767,0.57879 20.04026,-2.33534 z"
         style="fill:#ce9e9a;fill-opacity:1"
         id="path6331" /></g></g></svg>
