<?xml version="1.0" encoding="UTF-8" standalone="no"?>
<!-- Created with Inkscape (http://www.inkscape.org/) -->

<svg
   version="1.1"
   id="svg2758"
   width="300"
   height="300"
   viewBox="0 0 300 300"
   sodipodi:docname="prairie.svg"
   inkscape:version="1.2.2 (732a01da63, 2022-12-09)"
   xmlns:inkscape="http://www.inkscape.org/namespaces/inkscape"
   xmlns:sodipodi="http://sodipodi.sourceforge.net/DTD/sodipodi-0.dtd"
   xmlns="http://www.w3.org/2000/svg"
   xmlns:svg="http://www.w3.org/2000/svg">
  <defs
     id="defs2762">
    <filter
       inkscape:collect="always"
       style="color-interpolation-filters:sRGB"
       id="filter13793"
       x="-0.069051689"
       y="-0.05440456"
       width="1.1373941"
       height="1.108563">
      <feGaussianBlur
         inkscape:collect="always"
         stdDeviation="1.9494"
         id="feGaussianBlur13795" />
    </filter>
  </defs>
  <sodipodi:namedview
     id="namedview2760"
     pagecolor="#ffffff"
     bordercolor="#000000"
     borderopacity="0.25"
     inkscape:showpageshadow="2"
     inkscape:pageopacity="0.0"
     inkscape:pagecheckerboard="0"
     inkscape:deskcolor="#d1d1d1"
     showgrid="false"
     inkscape:zoom="3.4233333"
     inkscape:cx="105.89094"
     inkscape:cy="150"
     inkscape:window-width="2560"
     inkscape:window-height="1351"
     inkscape:window-x="2391"
     inkscape:window-y="-9"
     inkscape:window-maximized="1"
     inkscape:current-layer="g2764" />
  <g
     inkscape:groupmode="layer"
     inkscape:label="Image"
     id="g2764">
    <path
       style="mix-blend-mode:normal;fill:#f6f6e1;stroke:#753f4b;stroke-width:12.3;stroke-dasharray:none;filter:url(#filter13793)"
       d="m 114.25069,249.06306 c -13.25582,-0.54546 -17.126863,-1.11995 -19.809827,-2.93989 -8.55068,-5.80022 -11.035441,-15.6914 -17.366333,-69.1308 -1.630116,-13.75989 -3.680201,-30.23514 -4.555746,-36.61168 -4.622316,-33.66397 -1.275792,-39.31953 26.669905,-45.07148 17.527821,-3.607702 21.422301,-7.640398 14.044591,-14.543034 -4.86155,-4.54848 -6.30492,-7.750331 -6.30492,-13.98623 0,-16.756684 -0.12552,-16.70803 43.1025,-16.70803 34.12369,0 40.44301,0.710773 41.59515,4.67846 3.18225,10.958805 1.70141,19.81336 -4.19174,25.064182 -4.12822,3.678267 -4.68258,7.971166 -1.4116,10.931361 1.21539,1.099913 7.39361,3.068949 13.72938,4.375632 18.73131,3.863129 22.41978,5.406709 25.73415,10.769469 4.40422,7.12619 4.80047,12.7481 2.2589,32.0489 -1.28162,9.7326 -4.03058,31.6996 -6.1088,48.81556 -5.4257,44.68499 -7.127,51.28617 -14.99928,58.19813 l -4.14908,3.64295 -23.06691,0.80612 c -24.26233,0.8479 -38.05831,0.77601 -65.17034,-0.33962 z m 54.06714,-69.43791 c 7.85105,-7.94897 14.27465,-14.84092 14.27465,-15.31547 0,-2.77154 -4.78124,-8.75173 -14.8444,-18.56684 -12.29099,-11.988 -15.77892,-14.42063 -19.14482,-13.35234 -1.19179,0.37826 -8.31033,6.91447 -15.81896,14.52489 -9.71043,9.84208 -13.65205,14.67807 -13.65205,16.74974 0,2.09303 3.90508,6.78165 13.87808,16.66264 11.34106,11.23643 14.53205,13.75004 17.45547,13.75004 2.95129,0 6.07562,-2.52939 17.85203,-14.45266 z"
       id="path8707" />
    <path
       style="fill:#f6f6e1;stroke-width:1.22039"
       d="m 114.25069,249.06306 c -13.25582,-0.54546 -17.126863,-1.11995 -19.809827,-2.93989 -8.55068,-5.80022 -11.035441,-15.6914 -17.366333,-69.1308 -1.630116,-13.75989 -3.680201,-30.23514 -4.555746,-36.61168 -4.622316,-33.66397 -1.275792,-39.31953 26.669905,-45.07148 17.527821,-3.607702 21.422301,-7.640398 14.044591,-14.543034 -4.86155,-4.54848 -6.30492,-7.750331 -6.30492,-13.98623 0,-16.756684 -0.12552,-16.70803 43.1025,-16.70803 34.12369,0 40.44301,0.710773 41.59515,4.67846 3.18225,10.958805 1.70141,19.81336 -4.19174,25.064182 -4.12822,3.678267 -4.68258,7.971166 -1.4116,10.931361 1.21539,1.099913 7.39361,3.068949 13.72938,4.375632 18.73131,3.863129 22.41978,5.406709 25.73415,10.769469 4.40422,7.12619 4.80047,12.7481 2.2589,32.0489 -1.28162,9.7326 -4.03058,31.6996 -6.1088,48.81556 -5.4257,44.68499 -7.127,51.28617 -14.99928,58.19813 l -4.14908,3.64295 -23.06691,0.80612 c -24.26233,0.8479 -38.05831,0.77601 -65.17034,-0.33962 z m 54.06714,-69.43791 c 7.85105,-7.94897 14.27465,-14.84092 14.27465,-15.31547 0,-2.77154 -4.78124,-8.75173 -14.8444,-18.56684 -12.29099,-11.988 -15.77892,-14.42063 -19.14482,-13.35234 -1.19179,0.37826 -8.31033,6.91447 -15.81896,14.52489 -9.71043,9.84208 -13.65205,14.67807 -13.65205,16.74974 0,2.09303 3.90508,6.78165 13.87808,16.66264 11.34106,11.23643 14.53205,13.75004 17.45547,13.75004 2.95129,0 6.07562,-2.52939 17.85203,-14.45266 z"
       id="path13791" />
  </g>
</svg>
