<?xml version="1.0" encoding="UTF-8" standalone="no"?>
<!-- Created with Inkscape (http://www.inkscape.org/) -->

<svg
   version="1.1"
   id="svg3752"
   width="300"
   height="300"
   viewBox="0 0 300 300"
   sodipodi:docname="valley.svg"
   inkscape:version="1.2.2 (732a01da63, 2022-12-09)"
   xmlns:inkscape="http://www.inkscape.org/namespaces/inkscape"
   xmlns:sodipodi="http://sodipodi.sourceforge.net/DTD/sodipodi-0.dtd"
   xmlns="http://www.w3.org/2000/svg"
   xmlns:svg="http://www.w3.org/2000/svg">
  <defs
     id="defs3756">
    <filter
       inkscape:collect="always"
       style="color-interpolation-filters:sRGB"
       id="filter4676"
       x="-0.046957443"
       y="-0.055544459"
       width="1.0939149"
       height="1.1117938">
      <feGaussianBlur
         inkscape:collect="always"
         stdDeviation="1.9494"
         id="feGaussianBlur4678" />
    </filter>
  </defs>
  <sodipodi:namedview
     id="namedview3754"
     pagecolor="#ffffff"
     bordercolor="#000000"
     borderopacity="0.25"
     inkscape:showpageshadow="2"
     inkscape:pageopacity="0.0"
     inkscape:pagecheckerboard="0"
     inkscape:deskcolor="#d1d1d1"
     showgrid="false"
     inkscape:zoom="3.4233333"
     inkscape:cx="74.634859"
     inkscape:cy="151.16845"
     inkscape:window-width="2560"
     inkscape:window-height="1351"
     inkscape:window-x="2391"
     inkscape:window-y="-9"
     inkscape:window-maximized="1"
     inkscape:current-layer="g3758" />
  <g
     inkscape:groupmode="layer"
     inkscape:label="Image"
     id="g3758">
    <path
       style="fill:#f6f6e1;stroke-width:12.3;stroke:#753f4b;stroke-dasharray:none;filter:url(#filter4676)"
       d="m 136.92841,244.29505 c -14.20059,-7.02917 -19.59376,-23.4158 -12.36808,-37.57932 10.54111,-20.66228 40.76995,-18.54937 49.64785,3.47026 2.59733,6.44208 1.06829,18.71434 -3.07696,24.69592 -7.57639,10.93272 -22.71549,15.09925 -34.20281,9.41314 z M 52.442266,214.62948 c -9.988361,-10.76897 -17.744115,-20.36563 -17.744115,-21.95589 0,-0.51223 14.5521,-15.52009 32.338001,-33.35079 l 32.337996,-32.41946 7.215122,-0.83739 c 6.29179,-0.73026 8.01676,-1.54878 13.4793,-6.39626 3.44532,-3.05737 7.29137,-6.86162 8.54681,-8.45391 l 2.2826,-2.89506 -16.54361,-16.696004 C 99.891161,77.028304 97.810747,74.430296 97.810747,70.965255 c 0,-5.165441 2.732063,-9.628002 8.366833,-13.666437 9.05753,-6.491507 9.54243,-6.328996 22.95628,7.693467 6.60728,6.907072 14.22672,14.981319 16.93209,17.942772 l 4.91885,5.38446 4.40514,-3.867758 c 2.42281,-2.127266 9.8819,-9.329233 16.57573,-16.004368 11.14228,-11.111152 12.56052,-12.136609 16.78545,-12.136609 5.43061,0 9.86499,3.088079 14.12521,9.836699 5.01657,7.946769 4.64968,8.632695 -14.28087,26.699374 l -17.29942,16.509945 6.04041,6.78674 c 5.70972,6.4152 6.35815,6.79042 11.84448,6.85385 3.19223,0.0369 7.58769,0.81234 9.76769,1.72318 8.02543,3.35325 66.35323,65.01227 66.35323,70.14282 0,2.05929 -3.12569,5.77873 -11.03165,13.1272 -15.45019,14.36075 -19.86481,17.46355 -22.69317,15.94984 C 230.3304,223.27326 215.6148,208.79027 198.8757,191.756 l -30.43475,-30.97141 -1.41535,-8.39119 c -1.30901,-7.76065 -1.94806,-8.96684 -8.50426,-16.05173 l -7.08891,-7.66054 -7.31393,6.59788 c -6.49311,5.85744 -7.32265,7.1269 -7.39158,11.31188 -0.17311,10.50837 -2.19826,13.7494 -19.46014,31.14374 -27.488281,27.69923 -48.502649,46.64197 -52.073799,46.94031 -2.588531,0.21626 -4.981283,-1.66885 -12.750715,-10.04546 z"
       id="path4672" />
    <path
       style="fill:#f6f6e1;stroke-width:1.2137"
       d="m 136.92841,244.29505 c -14.20059,-7.02917 -19.59376,-23.4158 -12.36808,-37.57932 10.54111,-20.66228 40.76995,-18.54937 49.64785,3.47026 2.59733,6.44208 1.06829,18.71434 -3.07696,24.69592 -7.57639,10.93272 -22.71549,15.09925 -34.20281,9.41314 z M 52.442266,214.62948 c -9.988361,-10.76897 -17.744115,-20.36563 -17.744115,-21.95589 0,-0.51223 14.5521,-15.52009 32.338001,-33.35079 l 32.337996,-32.41946 7.215122,-0.83739 c 6.29179,-0.73026 8.01676,-1.54878 13.4793,-6.39626 3.44532,-3.05737 7.29137,-6.86162 8.54681,-8.45391 l 2.2826,-2.89506 -16.54361,-16.696004 C 99.891161,77.028304 97.810747,74.430296 97.810747,70.965255 c 0,-5.165441 2.732063,-9.628002 8.366833,-13.666437 9.05753,-6.491507 9.54243,-6.328996 22.95628,7.693467 6.60728,6.907072 14.22672,14.981319 16.93209,17.942772 l 4.91885,5.38446 4.40514,-3.867758 c 2.42281,-2.127266 9.8819,-9.329233 16.57573,-16.004368 11.14228,-11.111152 12.56052,-12.136609 16.78545,-12.136609 5.43061,0 9.86499,3.088079 14.12521,9.836699 5.01657,7.946769 4.64968,8.632695 -14.28087,26.699374 l -17.29942,16.509945 6.04041,6.78674 c 5.70972,6.4152 6.35815,6.79042 11.84448,6.85385 3.19223,0.0369 7.58769,0.81234 9.76769,1.72318 8.02543,3.35325 66.35323,65.01227 66.35323,70.14282 0,2.05929 -3.12569,5.77873 -11.03165,13.1272 -15.45019,14.36075 -19.86481,17.46355 -22.69317,15.94984 C 230.3304,223.27326 215.6148,208.79027 198.8757,191.756 l -30.43475,-30.97141 -1.41535,-8.39119 c -1.30901,-7.76065 -1.94806,-8.96684 -8.50426,-16.05173 l -7.08891,-7.66054 -7.31393,6.59788 c -6.49311,5.85744 -7.32265,7.1269 -7.39158,11.31188 -0.17311,10.50837 -2.19826,13.7494 -19.46014,31.14374 -27.488281,27.69923 -48.502649,46.64197 -52.073799,46.94031 -2.588531,0.21626 -4.981283,-1.66885 -12.750715,-10.04546 z"
       id="path4674" />
  </g>
</svg>
