<?xml version="1.0" encoding="UTF-8" standalone="no"?>
<!-- Created with Inkscape (http://www.inkscape.org/) -->

<svg
   version="1.1"
   id="svg3255"
   width="300"
   height="300"
   viewBox="0 0 300 300"
   sodipodi:docname="vault.svg"
   inkscape:version="1.2.2 (732a01da63, 2022-12-09)"
   xmlns:inkscape="http://www.inkscape.org/namespaces/inkscape"
   xmlns:sodipodi="http://sodipodi.sourceforge.net/DTD/sodipodi-0.dtd"
   xmlns="http://www.w3.org/2000/svg"
   xmlns:svg="http://www.w3.org/2000/svg">
  <defs
     id="defs3259">
    <filter
       inkscape:collect="always"
       style="color-interpolation-filters:sRGB"
       id="filter6880"
       x="-0.071738725"
       y="-0.04986537"
       width="1.1437761"
       height="1.1000094">
      <feGaussianBlur
         inkscape:collect="always"
         stdDeviation="1.9494"
         id="feGaussianBlur6882" />
    </filter>
  </defs>
  <sodipodi:namedview
     id="namedview3257"
     pagecolor="#ffffff"
     bordercolor="#000000"
     borderopacity="0.25"
     inkscape:showpageshadow="2"
     inkscape:pageopacity="0.0"
     inkscape:pagecheckerboard="0"
     inkscape:deskcolor="#d1d1d1"
     showgrid="false"
     inkscape:zoom="3.4233333"
     inkscape:cx="88.948393"
     inkscape:cy="152.92113"
     inkscape:window-width="2560"
     inkscape:window-height="1351"
     inkscape:window-x="2391"
     inkscape:window-y="-9"
     inkscape:window-maximized="1"
     inkscape:current-layer="g3261" />
  <g
     inkscape:groupmode="layer"
     inkscape:label="Image"
     id="g3261">
    <path
       style="fill:#f6f6e1;stroke-width:12.3;stroke:#753f4b;stroke-dasharray:none;filter:url(#filter6880)"
       d="m 106.54146,256.16895 c -2.52216,-3.03902 -0.62493,-7.03566 8.18649,-17.24533 4.54338,-5.26434 10.07201,-12.61646 12.28584,-16.33805 5.5717,-9.36636 12.21324,-15.56704 16.67385,-15.56704 1.97291,0 9.47102,0.66908 16.66247,1.48682 l 13.07539,1.48683 13.45159,12.37028 c 23.07346,21.21869 24.29931,22.5669 24.29931,26.72448 0,6.28956 -2.64189,6.85077 -37.0099,7.86181 -52.61654,1.54787 -65.8196,1.39562 -67.62504,-0.7798 z m 67.6168,-58.76957 c -10.18227,-0.88851 -20.51952,-1.93737 -22.97167,-2.33082 -2.45216,-0.39346 -15.9443,-1.6327 -29.98254,-2.7539 -27.831466,-2.22281 -32.700786,-3.46002 -41.292706,-10.49167 -5.05953,-4.14073 -5.49478,-4.94535 -4.8441,-8.95502 0.39321,-2.42304 1.61585,-5.7805 2.71698,-7.46104 l 2.00205,-3.05553 52.613976,0.005 c 63.8253,0.005 88.4805,0.94856 91.01256,3.48063 2.13133,2.13132 2.36518,11.66364 0.4549,18.54234 -0.73298,2.6394 -3.51231,7.09016 -6.1763,9.89058 l -4.8436,5.09125 -10.08817,-0.17323 c -5.5485,-0.0953 -18.41913,-0.9002 -28.60138,-1.7887 z m 0.008,-43.24521 c -3.86052,-1.64149 -12.69938,-5.33433 -19.6419,-8.2063 -6.94253,-2.87196 -13.73818,-6.23117 -15.10143,-7.46491 -3.24835,-2.93971 -2.59752,-7.44126 3.5145,-24.30879 5.53512,-15.275439 5.69704,-14.78835 -7.08028,-21.300026 C 100.87918,75.048293 80.714804,63.5699 79.432034,60.754508 c -0.95445,-2.094789 -0.40853,-4.403373 2.40153,-10.155457 5.91106,-12.099725 3.95272,-12.390344 37.456176,5.558551 3.86052,2.068204 13.74126,7.301142 21.95719,11.628751 l 14.93806,7.86838 1.83875,-2.914049 c 1.01131,-1.602728 2.24508,-4.349779 2.7417,-6.104559 2.31324,-8.173612 7.51059,-17.854582 10.04972,-18.71937 3.68881,-1.256346 4.66802,-0.977937 17.25666,4.906414 33.4854,15.652194 32.01749,13.536317 24.49974,35.314524 -2.88974,8.371322 -4.95112,16.003207 -4.58084,16.959717 0.37028,0.95653 2.38713,2.71744 4.48187,3.91314 4.55315,2.59897 4.69683,4.89259 0.78317,12.50234 -2.50581,4.87231 -3.51607,5.72815 -6.66412,5.64551 -2.04081,-0.0536 -4.49625,-0.34072 -5.45655,-0.6381 -1.21365,-0.37585 -3.44577,3.90776 -7.32114,14.04981 -3.06634,8.02476 -6.30068,15.05104 -7.18744,15.61395 -2.49582,1.58431 -4.86947,1.19762 -12.46001,-2.02989 z"
       id="path6872" />
    <path
       style="fill:#f6f6e1;stroke-width:1.2762"
       d="m 106.54146,256.16895 c -2.52216,-3.03902 -0.62493,-7.03566 8.18649,-17.24533 4.54338,-5.26434 10.07201,-12.61646 12.28584,-16.33805 5.5717,-9.36636 12.21324,-15.56704 16.67385,-15.56704 1.97291,0 9.47102,0.66908 16.66247,1.48682 l 13.07539,1.48683 13.45159,12.37028 c 23.07346,21.21869 24.29931,22.5669 24.29931,26.72448 0,6.28956 -2.64189,6.85077 -37.0099,7.86181 -52.61654,1.54787 -65.8196,1.39562 -67.62504,-0.7798 z m 67.6168,-58.76957 c -10.18227,-0.88851 -20.51952,-1.93737 -22.97167,-2.33082 -2.45216,-0.39346 -15.9443,-1.6327 -29.98254,-2.7539 -27.831466,-2.22281 -32.700786,-3.46002 -41.292706,-10.49167 -5.05953,-4.14073 -5.49478,-4.94535 -4.8441,-8.95502 0.39321,-2.42304 1.61585,-5.7805 2.71698,-7.46104 l 2.00205,-3.05553 52.613976,0.005 c 63.8253,0.005 88.4805,0.94856 91.01256,3.48063 2.13133,2.13132 2.36518,11.66364 0.4549,18.54234 -0.73298,2.6394 -3.51231,7.09016 -6.1763,9.89058 l -4.8436,5.09125 -10.08817,-0.17323 c -5.5485,-0.0953 -18.41913,-0.9002 -28.60138,-1.7887 z m 0.008,-43.24521 c -3.86052,-1.64149 -12.69938,-5.33433 -19.6419,-8.2063 -6.94253,-2.87196 -13.73818,-6.23117 -15.10143,-7.46491 -3.24835,-2.93971 -2.59752,-7.44126 3.5145,-24.30879 5.53512,-15.275439 5.69704,-14.78835 -7.08028,-21.300026 C 100.87918,75.048293 80.714804,63.5699 79.432034,60.754508 c -0.95445,-2.094789 -0.40853,-4.403373 2.40153,-10.155457 5.91106,-12.099725 3.95272,-12.390344 37.456176,5.558551 3.86052,2.068204 13.74126,7.301142 21.95719,11.628751 l 14.93806,7.86838 1.83875,-2.914049 c 1.01131,-1.602728 2.24508,-4.349779 2.7417,-6.104559 2.31324,-8.173612 7.51059,-17.854582 10.04972,-18.71937 3.68881,-1.256346 4.66802,-0.977937 17.25666,4.906414 33.4854,15.652194 32.01749,13.536317 24.49974,35.314524 -2.88974,8.371322 -4.95112,16.003207 -4.58084,16.959717 0.37028,0.95653 2.38713,2.71744 4.48187,3.91314 4.55315,2.59897 4.69683,4.89259 0.78317,12.50234 -2.50581,4.87231 -3.51607,5.72815 -6.66412,5.64551 -2.04081,-0.0536 -4.49625,-0.34072 -5.45655,-0.6381 -1.21365,-0.37585 -3.44577,3.90776 -7.32114,14.04981 -3.06634,8.02476 -6.30068,15.05104 -7.18744,15.61395 -2.49582,1.58431 -4.86947,1.19762 -12.46001,-2.02989 z"
       id="path6874" />
  </g>
</svg>
