<?xml version="1.0" encoding="UTF-8" standalone="no"?>
<!-- Created with Inkscape (http://www.inkscape.org/) -->

<svg
   version="1.1"
   id="svg1172"
   width="300"
   height="300"
   viewBox="0 0 300 300"
   sodipodi:docname="wasteland.svg"
   inkscape:version="1.2.2 (732a01da63, 2022-12-09)"
   xmlns:inkscape="http://www.inkscape.org/namespaces/inkscape"
   xmlns:sodipodi="http://sodipodi.sourceforge.net/DTD/sodipodi-0.dtd"
   xmlns="http://www.w3.org/2000/svg"
   xmlns:svg="http://www.w3.org/2000/svg">
  <defs
     id="defs1176">
    <filter
       inkscape:collect="always"
       style="color-interpolation-filters:sRGB"
       id="filter15421"
       x="-0.053852464"
       y="-0.05225799"
       width="1.1080351"
       height="1.1145433">
      <feGaussianBlur
         inkscape:collect="always"
         stdDeviation="1.9494"
         id="feGaussianBlur15423" />
    </filter>
  </defs>
  <sodipodi:namedview
     id="namedview1174"
     pagecolor="#ffffff"
     bordercolor="#000000"
     borderopacity="0.25"
     inkscape:showpageshadow="2"
     inkscape:pageopacity="0.0"
     inkscape:pagecheckerboard="0"
     inkscape:deskcolor="#d1d1d1"
     showgrid="false"
     inkscape:zoom="3.4233333"
     inkscape:cx="107.20545"
     inkscape:cy="150"
     inkscape:window-width="2560"
     inkscape:window-height="1351"
     inkscape:window-x="2391"
     inkscape:window-y="-9"
     inkscape:window-maximized="1"
     inkscape:current-layer="g1178" />
  <g
     inkscape:groupmode="layer"
     inkscape:label="Image"
     id="g1178">
    <path
       style="fill:#f6f6e1;stroke-width:12.3;stroke:#753f4b;stroke-dasharray:none;filter:url(#filter15421)"
       d="m 137.55818,250.78657 c -7.20681,-4.37937 -22.986,-18.03596 -31.64346,-27.38681 -4.47428,-4.83265 -8.639965,-8.59476 -9.257071,-8.36028 -0.617105,0.23448 -8.056784,7.07819 -16.532631,15.20824 -18.88997,18.11928 -19.779427,18.61108 -24.88014,13.75678 -6.090333,-5.79611 -6.633366,-7.58676 -3.276111,-10.80301 1.603704,-1.53634 10.45073,-10.11068 19.660057,-19.05408 l 16.744233,-16.26071 0.316242,-48.48561 c 0.188186,-28.85214 0.833046,-50.051539 1.592514,-52.35273 0.728251,-2.206632 2.731132,-4.560258 4.66453,-5.481377 4.534557,-2.160372 49.537987,-3.60766 81.562207,-2.622987 23.08418,0.709785 24.77862,0.609161 26.98721,-1.602721 2.31203,-2.315467 2.29955,-2.488971 -0.66068,-9.182589 -4.50759,-10.192444 -4.25145,-10.924265 5.3878,-15.393946 4.62278,-2.143562 14.28859,-6.667367 21.47958,-10.052898 14.93161,-7.029833 19.25758,-8.254784 20.22735,-5.727621 0.36445,0.949771 -0.72562,7.027306 -2.42239,13.505634 -1.69676,6.478329 -4.35744,16.740291 -5.91261,22.804364 -1.55519,6.064066 -3.57235,11.48586 -4.4826,12.048426 -0.91025,0.562565 -5.33125,0.729745 -9.82444,0.371515 l -8.16945,-0.651348 -5.47639,5.647948 -5.47638,5.64794 0.65996,41.47028 c 0.75163,47.22938 0.38375,50.13253 -7.98089,62.98364 -8.05192,12.37068 -28.19804,31.48808 -42.11816,39.9675 -5.86835,3.5747 -15.29156,3.57756 -21.16828,0.006 z m 13.49998,-53.06475 c -0.0233,-1.1985 2.16225,-13.55948 4.85678,-27.46884 l 4.89912,-25.28976 7.38015,-7.70785 c 14.03544,-14.65866 15.78115,-16.84199 15.03045,-18.79828 -0.60092,-1.56596 -3.47571,-0.55814 -15.74938,5.52129 -8.25785,4.0903 -16.13468,7.43692 -17.50406,7.43692 -1.36939,0 -9.1966,-3.36202 -17.39381,-7.47116 -8.19722,-4.10914 -15.19281,-7.47116 -15.54576,-7.47116 -2.37161,0 0.53182,4.71254 7.7633,12.60061 4.62278,5.04251 9.65056,10.55183 11.17286,12.24295 1.5699,1.74401 3.31807,6.0601 4.03926,9.97259 0.6993,3.7938 2.66007,13.62186 4.35726,21.84013 1.6972,8.21828 3.45522,17.18366 3.90673,19.92309 0.81924,4.97044 1.46581,6.84856 2.35775,6.84856 0.25944,0 0.45265,-0.98059 0.42935,-2.17909 z"
       id="path15313" />
    <path
       style="fill:#f6f6e1;stroke-width:1.24519"
       d="m 137.55818,250.78657 c -7.20681,-4.37937 -22.986,-18.03596 -31.64346,-27.38681 -4.47428,-4.83265 -8.639965,-8.59476 -9.257071,-8.36028 -0.617105,0.23448 -8.056784,7.07819 -16.532631,15.20824 -18.88997,18.11928 -19.779427,18.61108 -24.88014,13.75678 -6.090333,-5.79611 -6.633366,-7.58676 -3.276111,-10.80301 1.603704,-1.53634 10.45073,-10.11068 19.660057,-19.05408 l 16.744233,-16.26071 0.316242,-48.48561 c 0.188186,-28.85214 0.833046,-50.051539 1.592514,-52.35273 0.728251,-2.206632 2.731132,-4.560258 4.66453,-5.481377 4.534557,-2.160372 49.537987,-3.60766 81.562207,-2.622987 23.08418,0.709785 24.77862,0.609161 26.98721,-1.602721 2.31203,-2.315467 2.29955,-2.488971 -0.66068,-9.182589 -4.50759,-10.192444 -4.25145,-10.924265 5.3878,-15.393946 4.62278,-2.143562 14.28859,-6.667367 21.47958,-10.052898 14.93161,-7.029833 19.25758,-8.254784 20.22735,-5.727621 0.36445,0.949771 -0.72562,7.027306 -2.42239,13.505634 -1.69676,6.478329 -4.35744,16.740291 -5.91261,22.804364 -1.55519,6.064066 -3.57235,11.48586 -4.4826,12.048426 -0.91025,0.562565 -5.33125,0.729745 -9.82444,0.371515 l -8.16945,-0.651348 -5.47639,5.647948 -5.47638,5.64794 0.65996,41.47028 c 0.75163,47.22938 0.38375,50.13253 -7.98089,62.98364 -8.05192,12.37068 -28.19804,31.48808 -42.11816,39.9675 -5.86835,3.5747 -15.29156,3.57756 -21.16828,0.006 z m 13.49998,-53.06475 c -0.0233,-1.1985 2.16225,-13.55948 4.85678,-27.46884 l 4.89912,-25.28976 7.38015,-7.70785 c 14.03544,-14.65866 15.78115,-16.84199 15.03045,-18.79828 -0.60092,-1.56596 -3.47571,-0.55814 -15.74938,5.52129 -8.25785,4.0903 -16.13468,7.43692 -17.50406,7.43692 -1.36939,0 -9.1966,-3.36202 -17.39381,-7.47116 -8.19722,-4.10914 -15.19281,-7.47116 -15.54576,-7.47116 -2.37161,0 0.53182,4.71254 7.7633,12.60061 4.62278,5.04251 9.65056,10.55183 11.17286,12.24295 1.5699,1.74401 3.31807,6.0601 4.03926,9.97259 0.6993,3.7938 2.66007,13.62186 4.35726,21.84013 1.6972,8.21828 3.45522,17.18366 3.90673,19.92309 0.81924,4.97044 1.46581,6.84856 2.35775,6.84856 0.25944,0 0.45265,-0.98059 0.42935,-2.17909 z"
       id="path15419" />
  </g>
</svg>
