<?xml version="1.0" encoding="UTF-8" standalone="no"?>
<!-- Created with Inkscape (http://www.inkscape.org/) -->

<svg
   version="1.1"
   id="svg4712"
   width="300"
   height="300"
   viewBox="0 0 300 300"
   sodipodi:docname="cape_quilted.svg"
   inkscape:version="1.2.2 (732a01da63, 2022-12-09)"
   xmlns:inkscape="http://www.inkscape.org/namespaces/inkscape"
   xmlns:sodipodi="http://sodipodi.sourceforge.net/DTD/sodipodi-0.dtd"
   xmlns="http://www.w3.org/2000/svg"
   xmlns:svg="http://www.w3.org/2000/svg">
  <sodipodi:namedview
     id="namedview11"
     pagecolor="#ffffff"
     bordercolor="#000000"
     borderopacity="0.25"
     inkscape:showpageshadow="2"
     inkscape:pageopacity="0.0"
     inkscape:pagecheckerboard="0"
     inkscape:deskcolor="#d1d1d1"
     showgrid="false"
     inkscape:zoom="1.1808683"
     inkscape:cx="-92.728374"
     inkscape:cy="88.070785"
     inkscape:window-width="2560"
     inkscape:window-height="1369"
     inkscape:window-x="1912"
     inkscape:window-y="-8"
     inkscape:window-maximized="1"
     inkscape:current-layer="svg4712" />
  <defs
     id="defs4716">
    <filter
       style="color-interpolation-filters:sRGB"
       id="filter6724"
       x="-0.027383438"
       y="-0.048537425"
       width="1.0550447"
       height="1.097265">
      <feGaussianBlur
         stdDeviation="1.0765564"
         id="feGaussianBlur6726" />
    </filter>
  </defs>
  <g
     id="g4718">
    <path
       id="path5208"
       style="display:inline;fill:none;fill-opacity:1;stroke:#753f4b;stroke-opacity:1;stroke-width:10;stroke-dasharray:none;filter:url(#filter6724)"
       d="M 173.67188 75.527344 C 172.41068 75.503687 170.74311 76.337735 167.13281 77.722656 C 157.2286 81.521941 143.43132 81.892091 130.54492 78.873047 C 124.57112 77.473495 122.02371 76.518557 120.26367 76.822266 C 119.14168 77.015875 118.09498 77.88191 117.29492 79.197266 C 117.22936 79.305055 117.1538 79.393781 117.0918 79.507812 C 115.99673 81.521624 117.4071 82.785471 118.10547 83.626953 C 120.29715 86.267763 128.7019 90.337196 135.57617 91.707031 C 135.69694 91.731097 135.78507 91.738358 135.9043 91.761719 C 144.03538 93.354933 148.65461 93.327798 156.63477 92.044922 C 166.1284 90.518741 180 83.156426 180 79.933594 C 180 79.4035 178.76562 77.986215 177.05078 76.943359 C 175.64479 76.088325 174.71662 75.546944 173.67188 75.527344 z M 188.77734 83.396484 C 187.74072 83.356414 186.74299 83.405023 185.78125 83.544922 C 183.58864 83.86387 180.97056 85.30585 179.22852 86.451172 C 177.45267 87.618719 175.31527 88.763391 173.00195 89.84375 L 169.33008 91.427734 C 164.08669 93.534807 158.32951 95.212488 153.45312 95.90625 C 141.45721 97.612909 132.83324 96.107735 121.60156 90.349609 C 114.81188 86.868756 111.59047 85.774324 108.32617 85.839844 C 101.61772 85.974498 85.585594 93.244252 75.650391 100.0918 C 75.620166 100.1008 75.569724 100.10377 75.541016 100.11328 C 75.541016 100.11328 75.022814 100.50755 74.914062 100.58984 C 73.664423 101.47558 72.48015 102.35065 71.486328 103.19922 C 71.397744 103.26731 71.324331 103.32093 71.244141 103.38281 C 70.983886 103.58364 70.803321 103.79576 70.574219 104.00391 C 70.472096 104.0983 70.348036 104.19748 70.25 104.29102 C 70.213204 104.32612 70.188496 104.3614 70.152344 104.39648 C 69.822104 104.72583 69.527051 105.02765 69.269531 105.34375 C 69.052735 105.59418 68.860116 105.84903 68.675781 106.10156 C 68.576845 106.24274 68.541561 106.28792 68.458984 106.41602 C 68.214385 106.77931 67.999113 107.14973 67.820312 107.52344 C 67.811428 107.5429 67.712891 107.71094 67.712891 107.71094 L 67.736328 107.71289 C 66.566219 110.33444 66.948349 113.28829 68.863281 117.5 C 68.924449 117.63453 69.076789 117.85776 69.160156 118.01367 C 69.158952 118.01425 69.115234 118.0332 69.115234 118.0332 C 69.115234 118.0332 69.442103 118.51206 69.523438 118.63672 C 69.947222 119.3386 70.492532 120.15081 71.181641 121.09375 C 71.279459 121.23271 71.338605 121.33654 71.423828 121.45312 C 71.468953 121.51486 71.516512 121.56592 71.566406 121.63281 C 74.706536 125.8335 79.727851 131.58837 83.701172 135.52148 C 83.701152 135.52387 83.701172 135.62695 83.701172 135.62695 C 83.701172 135.62695 84.979176 137.01222 86.197266 137.94922 C 86.363414 138.07703 86.422615 138.08349 86.574219 138.19531 C 86.697648 138.29934 86.855208 138.45363 86.972656 138.54883 C 89.993209 140.91577 93.259106 142.9375 96.650391 144.73828 C 96.851416 144.85515 96.962063 144.90421 97.230469 145.05078 C 97.640877 145.26456 98.060677 145.45872 98.474609 145.66602 C 98.730192 145.7875 98.941053 145.91845 99.199219 146.02539 C 100.32997 146.49379 101.8457 147.26562 101.8457 147.26562 C 101.84773 147.26528 101.85148 147.26402 101.85352 147.26367 C 104.28658 148.36903 106.7436 149.41869 109.2207 150.37695 C 110.31207 150.8683 111.39986 151.29023 112.50781 151.70898 C 112.51417 151.71496 112.49761 151.73769 112.50586 151.74219 C 112.50586 151.74219 112.93958 151.89256 113.14258 151.9668 C 113.30739 152.02665 113.4892 152.08768 113.65625 152.14648 C 113.82552 152.20496 113.81353 152.20671 114.00586 152.26953 C 114.31512 152.37054 114.70558 152.47256 115.08594 152.5918 C 116.19656 152.95096 117.35286 153.3142 118.64648 153.65625 C 118.66869 153.66194 118.71695 153.67821 118.73828 153.68359 C 119.83828 153.96116 121.87035 154.43815 122.13477 154.50195 C 122.13561 154.50216 122.13004 154.49398 122.13086 154.49414 C 124.7633 155.09862 127.69626 155.72153 131.5 156.44141 C 132.87441 156.70152 134.3756 156.91427 135.92969 157.10156 C 136.51673 157.1805 137.84732 157.3641 138.8125 157.44727 C 139.80186 157.53254 141.11098 157.58111 141.79297 157.60938 C 146.37278 157.87986 151.15708 157.88115 155.56641 157.60547 C 155.56813 157.60801 155.55256 157.64272 155.55469 157.64453 C 155.55469 157.64453 156.35292 157.57441 156.76367 157.54102 C 156.81742 157.53698 156.86827 157.53342 156.92188 157.5293 C 157.9395 157.4463 159.06679 157.35798 159.69141 157.29297 C 160.02881 157.25784 160.28385 157.20996 160.75 157.14648 C 160.75518 157.14578 160.75653 157.14524 160.76172 157.14453 C 160.77005 157.14347 160.77683 157.14168 160.78516 157.14062 C 161.95115 156.98121 163.42578 156.77344 163.42578 156.77344 C 163.44166 156.76997 163.47517 156.7182 163.49219 156.71094 C 163.7491 156.66515 164.04516 156.63263 164.29297 156.58398 C 168.25727 155.80571 173.21436 154.8819 175.30859 154.5293 C 176.78229 154.28118 178.85589 153.6621 181.17969 152.85156 C 181.19286 152.84695 181.42188 152.77539 181.42188 152.77539 C 181.42455 152.77393 181.41946 152.76537 181.42188 152.76367 C 185.12131 151.4618 189.26388 149.71719 192.85156 148.0957 C 192.86419 148.09707 192.88403 148.10828 192.89648 148.10938 C 192.89648 148.10938 193.78896 147.6979 194.45508 147.38867 C 194.79705 147.2294 195.14143 147.07508 195.46289 146.92188 C 195.46997 146.9185 195.47536 146.91548 195.48242 146.91211 C 195.50255 146.90298 195.50138 146.90174 195.52148 146.89258 C 196.60165 146.37696 197.50966 145.91893 198.2832 145.50781 C 198.40454 145.44226 198.97852 145.16016 198.97852 145.16016 C 198.97852 145.15475 198.96531 145.14235 198.96484 145.13672 C 199.15766 145.02838 199.43505 144.88768 199.5918 144.79297 C 201.36942 143.71888 203.82058 142.20639 204.2793 141.89453 C 205.3913 141.13851 206.81144 139.91228 208.32812 138.52539 C 208.74721 138.16405 209.01109 137.98032 209.46875 137.56641 C 210.66818 136.48165 212.32227 134.71094 212.32227 134.71094 C 212.32532 134.696 212.32325 134.67139 212.32617 134.65625 C 216.39279 130.53094 220.69304 125.70953 223.92578 121.75977 L 225.25391 120.18359 C 225.27058 120.1638 226.07593 119.06948 226.70898 118.21094 C 227.67063 116.91095 228.44182 115.79622 228.68555 115.21289 C 230.60917 110.60903 229.80431 106.80989 225.77148 102.67578 C 225.42393 102.30429 225.15188 101.98046 224.73047 101.57812 C 223.77881 100.66954 222.46925 99.720267 221.72656 99.15625 C 220.58694 98.305591 219.33587 97.431828 217.93164 96.523438 C 205.23596 88.310643 196.0337 83.676977 188.77734 83.396484 z M 239.35547 113.38672 C 238.83258 113.3865 238.39275 113.46031 238.06445 113.61719 C 237.04744 114.10318 233.45522 118.18213 230.08203 122.68359 C 215.69212 141.88676 198.29312 153.71837 176.5 159.11914 C 164.99041 161.97146 143.50655 162.65795 130.0957 160.60156 C 117.44398 158.66157 102.38305 153.57496 92.189453 147.79883 C 82.697096 142.42005 70.81208 130.78251 65.660156 121.82227 C 63.54856 118.14978 61.100542 114.86767 60.21875 114.5293 C 57.932052 113.65181 46.542142 119.52412 44.507812 122.62891 C 42.12575 126.26439 43.122731 130.11335 48.572266 138.31445 C 57.975615 152.46573 73.653528 166.62196 89 174.82227 C 100.93425 181.19926 121.69497 187.72074 135 189.27148 C 153.68699 191.44951 177.26522 188.30957 194.48828 181.34961 C 219.53844 171.22667 236.73835 158.26121 248.67773 140.5 C 256.82741 128.37643 257.61465 125.07296 253.51367 120.19922 C 250.78896 116.96109 243.01572 113.38824 239.35547 113.38672 z M 264.76758 128.42969 C 264.38672 128.39894 264.07126 128.42362 263.84375 128.51172 C 263.1042 128.79811 259.35663 133.60118 255.51367 139.18555 C 247.53651 150.7775 236.34221 163.08092 227.7793 169.66992 C 220.15368 175.5377 202.84064 184.39972 191.6543 188.16016 C 167.01379 196.44337 139.79387 197.03665 112.10156 189.89648 C 84.710401 182.83397 63.23289 167.18452 44.638672 140.73828 C 40.865249 135.37141 37.367726 130.72657 36.865234 130.41602 C 33.30999 128.21875 21 136.95703 21 141.67773 C 21 147.4683 30.207262 160.34263 44.472656 174.5 C 56.108705 186.04793 68.79494 195.64947 81.75 202.71484 C 90.767427 207.63272 113.42925 215.34098 123.5 216.91602 C 127.35 217.51815 131.625 218.20201 133 218.43359 C 134.375 218.66518 143.82501 218.70354 154 218.51953 C 174.20262 218.15416 182.58596 216.64305 201.5 209.95508 C 230.83851 199.58102 256.99939 177.48487 271.99609 150.41406 C 277.66358 140.1836 278.29001 137.1058 275.375 133.82227 C 273.34708 131.53797 267.43357 128.64495 264.76758 128.42969 z M 283.70117 141.83594 C 282.17169 142.03148 280.77228 144.48844 278.5957 148.81055 C 265.66484 174.48786 241.01472 198.39868 214.5 210.98242 C 191.00224 222.13431 162.80582 226.91204 137 224.11719 C 105.77187 220.73507 89.937827 215.48462 68 201.23828 C 50.332785 189.76526 31.121527 171.3325 20.917969 156.0625 C 18.432988 152.34363 16.300234 149.19659 15.320312 148.27344 C 15.131771 148.09584 15.087634 147.993 14.888672 148 C 14.535264 148.0121 13.648045 148.71992 12.917969 149.59961 C 11.792293 150.95597 12.001397 151.9818 14.300781 156.34961 C 21.492165 170.01004 42.504735 192.7612 57 202.58203 C 61.674995 205.74944 72.437636 211.69259 80.916016 215.78906 C 99.803819 224.91503 117.03343 229.71723 134.78516 230.80664 C 140.99158 231.18752 147.29159 231.61782 148.78516 231.76172 C 150.27871 231.90562 157.57501 231.57743 165 231.0332 C 191.48543 229.09191 217.5947 220.61593 239.42969 205.26172 C 248.42594 198.93562 267.89106 179.14742 274.08398 170.03125 C 281.86865 158.57196 286.31229 149.31595 286.58594 145.45117 C 286.78204 142.68175 285.67264 141.58391 283.70117 141.83594 z "
       inkscape:label="stroke" />
    <path
       style="display:inline;fill:#e4a8b2;fill-opacity:1"
       d="m 131.5,156.44178 c -11.79922,-2.23307 -16.78074,-3.5891 -22.27964,-6.0648 -7.828,-3.02824 -15.610029,-6.62812 -22.247009,-11.82893 -5.180624,-4.1993 -16.35457,-17.1855 -18.110753,-21.04805 -2.776156,-6.10589 -2.410744,-9.5847 1.387402,-13.20838 8.033859,-7.664841 29.95678,-18.288478 38.07639,-18.451457 3.2643,-0.06552 6.48534,1.028664 13.27503,4.509521 11.23169,5.758131 19.85513,7.262271 31.85106,5.55561 8.34978,-1.187921 19.32745,-5.214216 25.77608,-9.453921 1.74205,-1.145323 4.36088,-2.587536 6.55349,-2.906484 7.69395,-1.119196 17.63952,3.59299 32.14888,12.97905 10.69945,6.921441 13.57925,11.925941 10.75387,18.688011 -1.45082,3.47231 -17.65373,22.09222 -24.40497,26.6822 -0.45872,0.31186 -2.90959,1.82539 -4.68721,2.89948 -3.79085,2.29052 -18.54454,8.7687 -24.28491,9.73518 -2.09424,0.3526 -7.05124,1.27786 -11.01555,2.05614 -8.74242,1.71632 -23.3028,1.65275 -32.79216,-0.14317 z m 6.16904,-63.488082 c -91.77936,-61.969132 -45.88968,-30.984566 0,0 z"
       id="path6354"
       inkscape:label="dark" />
    <path
       id="path6356"
       style="display:inline;fill:#ffffff;fill-opacity:1"
       d="m 133,218.43266 c -1.375,-0.23158 -5.65,-0.91372 -9.5,-1.51585 -10.07076,-1.57504 -32.733054,-9.28372 -41.75049,-14.2016 C 68.794437,195.64983 56.108817,186.04794 44.472757,174.5 30.207348,160.34262 21,147.46759 21,141.67702 c 0,-4.72071 12.309575,-13.45783 15.864823,-11.26056 0.502492,0.31055 4.000972,4.95573 7.774399,10.32261 18.594237,26.44627 40.070189,42.09543 67.461378,49.15795 27.69234,7.14017 54.91254,6.54562 79.55307,-1.7376 11.18635,-3.76044 28.49992,-12.62175 36.12554,-18.48953 8.56292,-6.58901 19.75642,-18.89299 27.73359,-30.48495 3.84296,-5.58437 7.59229,-10.38771 8.33184,-10.6741 1.82008,-0.70482 9.21273,2.70021 11.53036,5.31084 2.91501,3.28354 2.28787,6.36268 -3.37962,16.59315 -14.99672,27.07083 -41.15684,49.16527 -70.49538,59.53934 -18.91406,6.68798 -27.29736,8.19962 -47.5,8.56499 -10.175,0.18401 -19.625,0.14509 -21,-0.0865 z m 2,-29.16067 c -13.30504,-1.55075 -34.06574,-8.07176 -46,-14.44876 -15.346487,-8.20031 -31.023746,-22.35845 -40.427105,-36.50974 -5.44954,-8.20111 -6.446954,-12.04987 -4.064889,-15.68536 2.034332,-3.10479 13.423497,-8.97538 15.710197,-8.09789 0.881793,0.33837 3.330931,3.62 5.442529,7.29249 5.151929,8.96025 17.036799,20.59738 26.529166,25.97616 10.193612,5.77614 25.254772,10.86313 37.906512,12.80312 13.41086,2.05639 34.89399,1.37026 46.40359,-1.48206 21.79314,-5.40078 39.19273,-17.23226 53.58266,-36.43545 3.37319,-4.50147 6.96516,-8.58212 7.98217,-9.06811 2.62637,-1.25504 12.33463,2.8812 15.44859,6.58192 4.10098,4.87375 3.31389,8.17811 -4.83579,20.30169 -11.9394,17.76123 -29.13956,30.72738 -54.18974,40.85033 -17.22308,6.95997 -40.80088,10.09969 -59.48789,7.92166 z"
       inkscape:label="puff" />
    <path
       id="path6358"
       style="display:inline;fill:#ffdbd9;fill-opacity:1"
       d="M 134.78443,230.80749 C 117.03269,229.71808 99.803074,224.91433 80.915252,215.78835 72.436864,211.69187 61.675,205.74869 57,202.58128 42.504721,192.76044 21.49292,170.00987 14.301529,156.34943 c -2.299387,-4.36781 -2.509728,-5.39364 -1.384051,-6.75 0.730077,-0.87969 1.61694,-1.58733 1.970348,-1.59943 0.198962,-0.007 0.243227,0.0966 0.431769,0.2742 0.979922,0.92315 3.113649,4.06948 5.598632,7.78835 10.203568,15.27002 29.41454,33.70367 47.081773,45.1767 21.937849,14.24635 37.77184,19.49649 69,22.87861 25.80585,2.79486 54.00222,-1.98447 77.5,-13.13637 26.51475,-12.58375 51.16418,-36.49291 64.09506,-62.17025 2.17658,-4.32211 3.57708,-6.78022 5.10656,-6.97576 1.97147,-0.25203 3.08004,0.84664 2.88394,3.61606 -0.27365,3.86478 -4.71754,13.11966 -12.50221,24.57896 -6.19293,9.11618 -25.6579,28.90551 -34.65416,35.23162 -21.83501,15.35423 -47.94373,23.83033 -74.42919,25.77163 -7.425,0.54423 -14.72201,0.87178 -16.21557,0.72788 -1.49357,-0.1439 -7.79357,-0.57326 -14,-0.95414 z m 0.52807,-73.78072 c -0.9604,-0.0828 -5.79427,-5.14673 -10.3967,-10.11749 l -7.58421,-8.19116 -7.24314,4.23022 c -3.88183,2.26711 -6.80071,4.07635 -8.24356,4.31792 0,0 -1.51466,-0.7733 -2.645414,-1.2417 -1.619256,-0.67072 -3.331637,-1.7456 -3.331637,-1.7456 -0.917593,-1.48469 22.150651,-16.85922 24.104691,-16.0707 2.71449,1.09541 24.94238,29.64588 22.57434,29.44184 0,0 -2.49488,-0.0964 -3.7345,-0.20324 -1.17183,-0.10097 -3.49987,-0.42009 -3.49987,-0.42009 z m 20.24219,0.6185 c -0.57031,-0.48657 13.52074,-26.95582 15.59619,-28.23852 1.55305,-0.95984 27.82692,13.93755 27.82692,15.75333 0,0 -1.69252,0.93379 -3.49505,1.75146 -1.14835,0.52091 -2.58578,1.19744 -2.58578,1.19744 -1.39703,-0.12288 -3.87277,-1.93989 -8.00245,-4.13172 -4.06699,-2.15855 -7.91956,-3.93648 -8.56128,-3.95095 -0.64171,-0.0145 -3.68934,3.57369 -6.7725,7.97369 -4.35416,6.21386 -5.57715,8.65186 -6.13426,8.7734 0,0 -2.54403,0.39467 -3.73442,0.5186 -0.93294,0.0971 -4.13737,0.35327 -4.13737,0.35327 z m -36.81704,-3.96211 c -1.1,-0.27757 -3.37735,-0.97141 -4.73255,-1.41404 -0.82508,-0.26949 -1.49894,-0.52782 -1.49894,-0.52782 -0.32402,-0.17657 0.83158,-1.50761 1.82889,-2.50492 1.57525,-1.57525 1.88495,-1.47792 4.90396,1.54109 1.77239,1.77239 3.16086,3.78905 2.89644,3.72525 -0.26442,-0.0638 -2.2978,-0.54199 -3.3978,-0.81956 z m 57.24511,-1.65095 c 1.38203,-2.79244 1.44883,-2.58648 3.98828,-1.07127 0.75336,0.44951 1.70729,1.67556 1.45171,1.81499 0,0 -1.45316,0.5136 -3.56111,1.13122 -1.4192,0.41582 -2.60736,0.62153 -2.60736,0.62153 -0.17603,-0.20479 0.28227,-1.5949 0.72848,-2.49647 z M 138.19652,142.5227 C 136.98843,140.98687 136,139.08903 136,138.30528 136,136.817 145.72023,126 147.05761,126 148.83981,126 160,136.32667 160,137.97576 c 0,0.99147 -0.86832,2.86502 -1.9296,4.16346 0,0 -1.39833,2.25058 -2.03545,2.202 -0.63713,-0.0486 -3.99059,-3.8196 -3.99059,-3.8196 0,0 -3.34628,-3.95779 -4.09644,-3.97837 -0.75016,-0.0206 -3.77744,4.38593 -3.77744,4.38593 0,0 -2.90902,4.05007 -3.53928,4.06838 -0.63025,0.0183 -2.43468,-2.47486 -2.43468,-2.47486 z m 65.14296,-22.72452 c 0,0 -0.65781,-19.72649 -0.0266,-20.699378 0.63121,-0.972888 8.40051,-0.495419 8.40051,-0.495419 7.29471,0.09182 9.94471,0.500375 9.94471,0.500375 0.73114,0.557666 2.09754,1.543472 3.07239,2.474192 1.61868,1.54539 2.78556,3.05513 2.78556,3.05513 0.47634,1.20323 -3.54094,1.88809 -7.32953,1.88715 0,0 -6.41426,0.0376 -6.96319,0.71619 -0.54893,0.67858 -0.60065,3.63179 -0.60065,3.63179 -0.33036,1.99748 -0.60563,7.9351 -0.61166,13.1947 -0.006,4.98534 0.7092,8.69836 0.31038,10.64807 0,0 -1.65321,1.7703 -2.85264,2.85506 -3.18361,2.87926 -5.54442,4.51468 -5.54442,4.51468 -0.75061,-1.71549 -0.6761,-22.28254 -0.58485,-22.28254 z M 86.196792,137.9496 c -1.218091,-0.937 -2.495072,-2.32295 -2.495072,-2.32295 0,0 0.05484,-6.25557 -0.24613,-11.66141 -0.876174,-15.73711 -0.262225,-14.64241 -8.686579,-15.48844 l -7.057036,-0.76493 c 0,0 1.043088,-2.40732 3.532982,-4.32869 1.424692,-1.09939 4.295561,-3.27014 4.295561,-3.27014 1.201247,-0.397878 3.733848,-0.34966 7.20661,-0.347575 3.722984,0.0022 7.315372,-0.02975 8.002872,0.505765 1.340697,1.04431 1.843812,30.50971 0.625,36.60377 -0.36953,1.84765 -1.515998,2.74533 -1.515998,2.74533 -0.697127,0.24233 -1.6008,-0.085 -3.66221,-1.67073 z m 41.871298,-7.85397 C 126.93064,128.49823 126,126.77203 126,126.25964 126,124.84707 145.00354,105 146.35607,105 c 0.64881,0 5.80491,4.64104 11.45798,10.31342 9.39476,9.42684 10.19734,10.52641 9.33631,12.7911 -0.5181,1.36272 -1.70223,3.1086 -2.63139,3.87974 -1.51294,1.25562 -2.52707,0.52021 -9.70966,-7.0411 0,0 -6.95525,-8.49506 -8.02027,-8.44316 -1.06502,0.0519 -7.64452,8.26548 -7.64452,8.26548 -4.20449,4.54602 -7.95138,8.25852 -8.32643,8.25 -0.37504,-0.009 -1.61254,-1.32245 -2.75,-2.91985 z m 48.31692,-3.44088 -2.84542,-2.44753 2.27847,-7.07442 c 1.25316,-3.89094 2.71741,-7.3457 3.25389,-7.67727 1.59427,-0.98531 14.11998,3.64549 16.61837,6.14388 2.36018,2.36018 3.10041,6.79386 1.31816,7.89535 -0.54533,0.33703 -3.46487,-0.16687 -6.48787,-1.11978 -3.02299,-0.95292 -5.77897,-1.44995 -6.1244,-1.10452 -0.34543,0.34542 -0.93128,2.11067 -1.30189,3.92276 -0.84636,4.13824 -3.04153,4.61642 -6.70931,1.46153 z m -64.93604,-3.12263 C 110.65204,121.62478 110,119.59374 110,119.0187 c 0,-0.64127 -1.40053,-0.46036 -3.62212,0.46788 -1.99217,0.83238 -4.72068,1.51342 -6.06336,1.51342 -2.151828,0 -2.404088,-0.38529 -2.127878,-3.25 0.276188,-2.86449 1.040469,-3.62299 6.443248,-6.39449 10.03625,-5.14837 10.13138,-5.14943 12.34828,-0.13777 1.0625,2.40197 2.22165,6.17965 2.57587,8.39484 0.57166,3.57495 0.35589,4.21642 -1.91982,5.70752 -3.64634,2.38917 -4.54894,2.12826 -6.18525,-1.78798 z m -40.024728,-2.0796 c -0.811433,-1.11005 -2.308386,-3.41865 -2.308386,-3.41865 0,0 2.293553,-1.09852 4.136194,-1.56099 2.975344,-0.74677 3.216806,-0.009 1.879635,5.74537 l -0.830162,2.87702 c 0,0 -1.964148,-2.39357 -2.877281,-3.64275 z M 222.18783,119 c -0.0523,-2.88285 0.67107,-3.43807 2.31217,-3.15493 1.53721,0.26522 2.76083,0.79881 2.90986,1.41728 0,0 -2.13164,2.8919 -2.15634,2.92122 l -2.98012,3.5373 z m -59.01352,-2.31445 c -2.94127,-3.13084 -2.76259,-5.0803 1.37061,-14.95397 2.02919,-4.847483 2.88473,-9.482857 3.83196,-9.891738 l 4.88677,-2.109423 c 1.26452,-0.545842 2.53902,0.302863 7.74083,2.095732 3.02747,1.043453 8.31497,3.315914 11.75,5.049913 6.35486,3.207916 6.89898,4.081106 5.58997,8.970556 -0.79628,2.97427 -3.29747,2.57044 -14.45001,-2.33304 C 179.49922,101.58111 175.68393,100 175.41603,100 c -0.62931,0 -4.02545,7.93007 -6.05985,14.1499 -1.77206,5.41775 -3.00079,5.92175 -6.18187,2.53565 z m -36.90028,-0.24902 c -0.54779,-1.06509 -1.97806,-5.22064 -3.17838,-9.23456 -1.20031,-4.01391 -2.77649,-7.526003 -3.50261,-7.804641 -0.72612,-0.278638 -5.26953,1.317971 -10.09648,3.548031 C 104.66962,105.17541 100.16712,107 99.490995,107 c -1.336711,0 -2.709473,-6.26708 -1.858508,-8.48466 0.582714,-1.518528 7.190053,-4.853034 14.892143,-7.515573 l 5.8667,-2.186068 5.55546,2.699058 c 5.21337,2.532856 4.86228,5.374784 8.62461,15.782793 1.34244,3.71372 1.30009,3.87405 -1.96468,7.43653 -3.1177,3.402 -3.40207,3.51387 -4.33269,1.70445 z m 9.30189,-24.729233 c -6.87428,-1.369837 -15.27963,-5.440436 -17.47131,-8.081249 -0.69837,-0.841483 -2.10711,-2.105215 -1.01204,-4.119029 0.81869,-1.505553 1.95643,-2.475627 3.17037,-2.685102 1.76004,-0.303709 4.30837,0.652248 10.28218,2.051801 12.88641,3.019047 26.68276,2.648047 36.58698,-1.151242 3.6103,-1.384923 5.2784,-2.219132 6.5396,-2.195475 1.04475,0.0196 1.97282,0.56147 3.37881,1.416505 1.71484,1.042857 2.94949,2.46081 2.94949,2.990904 0,3.222835 -13.87123,10.585224 -23.36487,12.111406 -8.09717,1.301688 -12.70196,1.326828 -21.05921,-0.338519 z"
       inkscape:label="light" />
  </g>
</svg>
