<?xml version="1.0" encoding="UTF-8" standalone="no"?>
<!-- Created with Inkscape (http://www.inkscape.org/) -->

<svg
   version="1.1"
   id="svg447"
   width="300"
   height="300"
   viewBox="0 0 300 300"
   xmlns="http://www.w3.org/2000/svg"
   xmlns:svg="http://www.w3.org/2000/svg">
  <defs
     id="defs451">
    <filter
       style="color-interpolation-filters:sRGB"
       id="filter963"
       x="-0.039715257"
       y="-0.044003106"
       width="1.0786759"
       height="1.0877981">
      <feGaussianBlur
         stdDeviation="0.85679011"
         id="feGaussianBlur965" />
    </filter>
  </defs>
  <g
     id="g453">
    <path
       id="path834"
       style="display:inline;fill:none;fill-opacity:1;stroke:#753f4b;filter:url(#filter963);stroke-width:10;stroke-dasharray:none"
       d="m 105.9082,64.820312 c -1.90583,-0.212478 -7.909525,4.33372 -8.550778,6.888672 -0.342001,1.362642 0.540341,6.692256 2.017578,12.189454 2.63672,9.811971 3.34479,18.418792 1.72461,20.976562 -0.64004,1.01043 -2.26244,-0.71007 -6.125001,-6.5 C 88.186234,88.199313 86.137396,86 83.441406,86 80.873516,86 74,93.105411 74,95.759766 c 0,1.746676 2.407821,4.862104 15.25,19.730464 3.712496,4.29824 6.75,8.22733 6.75,8.73047 0,1.5177 -3.992555,-0.13023 -14.271484,-5.88672 -5.374652,-3.00994 -10.549688,-5.32169 -11.5,-5.13867 -2.07547,0.3997 -6.508188,10.91158 -5.59961,13.2793 0.342209,0.89178 3.265044,3.41716 6.496094,5.61133 3.231051,2.19417 5.875,4.1788 5.875,4.41211 0,0.2333 -1.912502,0.93556 -4.25,1.56054 -2.337498,0.62497 -4.812501,1.59854 -5.5,2.16211 -1.365367,1.11924 -1.618972,5.68249 -0.599609,10.7793 0,0 0.551519,3.05445 1.136718,3.36133 0.5852,0.30687 5.613282,-0.64649 5.613282,-0.64649 6.849587,-0.60056 13.067759,-1.32173 16.505859,-2.8789 3.4381,-1.55717 4.096506,-3.95112 7.953125,-7.89844 4.279295,-4.37994 9.609615,-8.37894 14.140625,-10.97852 3.87369,-2.22245 10.226,-6.37996 16.13477,-11.49804 6.48072,-5.61351 13.2058,-11.50328 13.25,-13.58008 0.0407,-1.91373 -6.54765,-4.1413 -14.56055,-4.89258 0,0 -4.27448,-0.30501 -5.44531,0.11133 -1.17082,0.41634 -4.27149,5.01562 -4.27149,5.01562 -2.52785,4.40826 -3.0888,4.93113 -3.0918,2.88477 -0.009,-6.03942 2.3882,-10.452173 11.85157,-21.810547 5.35679,-6.429472 10.80711,-13.220137 12.11133,-15.089844 0,0 2.08583,-2.943446 2.05273,-3.332031 -0.0331,-0.388584 -1.9668,-1.917969 -1.9668,-1.917969 C 136.62863,66.68695 134.17207,66 131.45703,66 c -4.13011,0 -4.64251,0.354023 -11.58008,8 -3.99233,4.399996 -7.55699,8 -7.92187,8 -0.36487,0 -1.66189,-3.487504 -2.88281,-7.75 -1.22093,-4.262496 -2.40218,-8.324511 -2.625,-9.027344 -0.0775,-0.244313 -0.2668,-0.371989 -0.53907,-0.402344 z M 132.88867,135.875 c -0.86733,-0.002 -1.82965,0.0315 -2.86328,0.10547 -8.7355,0.62502 -17.72109,5.30638 -25.88672,13.43555 -10.557412,10.51027 -16.293877,28.97132 -13.212889,41.20703 3.074093,12.20832 10.092319,21.2302 22.265629,28.62695 5.87993,3.57277 11.05155,4.78345 12.23828,2.86328 0.30173,-0.48821 -1.76284,-4.42571 -4.58985,-8.75 -6.06731,-9.28076 -12.48148,-22.15924 -13.98828,-28.08398 -0.59025,-2.32087 -0.78822,-4.40892 -1.74804,-5.54102 -1.28695,-1.51793 -2.99891,-1.08904 -3.09571,3.28906 -0.0358,1.61953 -0.39624,4.60988 -0.74609,7.35547 -1.24412,9.76366 -4.087863,3.31383 -3.57422,-7.65234 0.294247,-6.28211 0.359505,-8.65571 3.51953,-14.98047 5.79344,-11.59551 5.23466,-10.28175 8.22266,2.875 1.56507,6.89126 5.65042,15.36719 8.31445,17.57812 1.81281,1.5045 2.80861,-0.003 3.69727,-5.59179 0.54789,-3.44584 4.66422,-18.06336 6.29687,-22.36133 0.73724,-1.9408 -1.93377,-1.48568 -7.31836,1.24609 C 114.44189,164.52895 114,164.558 114,161.91406 c 0,-2.47672 10.02999,-13.24049 18.26562,-19.60156 3.17103,-2.44925 6.62043,-3.99951 5.33399,-5.66211 -0.35094,-0.45357 -2.10895,-0.77028 -4.71094,-0.77539 z m 58.24219,3.26172 c -1.67282,0.0264 -4.0212,1.14831 -8.57813,3.80273 -8.42208,4.9059 -8.56139,4.91747 -2.08984,11.21094 7.89182,7.67466 7.89681,10.06752 7.07617,25.5918 -0.6828,12.91673 -0.62437,13.48386 2.35938,23.08789 4.04791,13.02937 5.76228,15.16992 12.15429,15.16992 4.30164,0 4.9813,-0.28674 5.49219,-2.32227 0.32062,-1.27743 -0.54772,-6.77636 -1.92969,-12.21875 -1.38196,-5.44238 -2.3799,-10.0283 -2.21679,-10.1914 0.16311,-0.16311 5.34814,4.09831 11.52148,9.46875 6.17334,5.37043 13.25541,11.45117 15.73828,13.51367 2.48289,2.0625 4.68148,3.75 4.88672,3.75 1.13403,0 5.94052,-6.17504 8.15625,-10.47852 0,0 2.6581,-3.90598 2.5625,-4.97656 -0.0956,-1.07058 -5.51562,-5.31445 -5.51562,-5.31445 -2.68528,-2.36979 -10.99806,-8.08472 -19.24805,-13.92774 -8.24999,-5.84301 -15.45,-11.05518 -16,-11.58398 -0.64093,-0.61622 2.14,-0.72065 7.74414,-0.28906 8.42711,0.64899 9.62753,0.71426 12.04297,-1.70117 1.95027,-1.95027 2.29492,-4.05817 2.29492,-7.64649 0,-2.53615 -1.61173,-6.17763 -2.24023,-7.13672 -0.91723,-1.3997 -0.30335,-0.82915 -20.5918,-3.05664 -5.91249,-0.64914 -10.6706,-0.97624 -10.75,-1.72851 -0.0317,-0.30071 1.63948,-1.72023 2.45312,-2.58594 0.85387,-0.90852 2.51303,-1.74644 2.54883,-2.73828 0.0358,-0.99184 -0.92869,-2.80272 -3.35351,-4.92188 -1.84864,-1.73323 -2.84476,-2.80379 -4.51758,-2.77734 z m -42.99219,4.01562 c -2.72773,-0.0512 -4.57566,0.40755 -7.21289,1.59961 -5.79703,2.62033 -9.36435,6.01478 -8.02148,7.63282 0.27182,0.32752 -0.0737,1.67558 3.26758,1.90234 3.34122,0.22677 6.78861,-0.51448 14.62109,-0.36328 4.31908,0.0834 13.65337,0.64565 15.89062,0.59765 1.31912,-0.0283 2.06788,-0.36994 1.42579,-1.7832 -0.41974,-0.92386 -6.249,-6.39916 -8.8125,-7.6289 -2.49378,-1.1963 -4.84704,-1.40664 -8.07618,-1.74415 -1.16639,-0.12191 -2.17278,-0.19584 -3.08203,-0.21289 z m 13.87695,16.92188 C 160.63166,160.01207 160,160.3179 160,160.98438 c 0,0.54107 3.2625,4.57396 7.25,8.96289 3.9875,4.38892 7.76393,7.99562 8.39258,8.01562 1.63377,0.0519 2.35742,-2.40545 2.35742,-8.00977 0,-5.54286 -0.81762,-6.2862 -9.45312,-8.58593 -3.01026,-0.80167 -5.14729,-1.23082 -6.53126,-1.29297 z m -14.73046,0.99805 c -1.02782,-0.0535 -2.49342,0.18871 -4.91797,0.69726 -11.61188,2.43562 -14.71088,7.4056 -14.17188,22.91406 0.46638,13.41917 2.54021,15.59258 10.89844,19.06055 6.14073,2.54789 13.21459,2.67707 13.67383,0.25 0.15675,-0.82838 -2.0093,-5.00243 -4.81446,-9.27539 -5.85567,-8.91967 -5.85228,-8.62007 -0.30664,-22.37305 3.1566,-7.82823 3.3381,-8.78884 1.92579,-10.20117 -0.66957,-0.66956 -1.2593,-1.01878 -2.28711,-1.07226 z m 8.99609,11.40625 c -0.58657,0.0779 -0.98946,0.67284 -1.76563,1.85742 -0.86393,1.31854 -2.42348,4.81637 -3.46484,7.77344 -2.24574,6.37698 -1.85239,7.13573 5.44922,10.53906 2.75,1.28179 5.45,2.18825 6,2.01367 1.48855,-0.47247 5.46548,-7.85637 5.48438,-10.18359 0.0207,-2.54654 -4.79807,-8.41862 -8.83008,-10.75977 -1.51557,-0.88 -2.28648,-1.31819 -2.87305,-1.24023 z m 18.77734,15.18945 c -0.99709,0.0406 -2.08666,2.83152 -3.91406,5.88672 -1.8274,3.0552 -5.53329,8.21133 -8.23437,11.45703 -1.35055,1.62285 -3.40844,3.78194 -4.58399,4.91211 -1.28632,1.23666 -1.21679,1.92743 -1.21679,2.23633 -10e-6,2.59475 13.82512,-1.77099 18.32226,-5.98438 3.50316,-3.28213 4.33398,-4.84916 4.33398,-7.13867 0,-3.40083 -2.92702,-11.44164 -4.70703,-11.36914 z m -51.91015,18.29101 c -0.097,0.0186 -0.14844,0.0628 -0.14844,0.13086 0,4.6753 8.53808,13.85949 16.64844,17.90821 5.28574,2.63865 6.38908,2.51924 15.16797,-1.63477 0,0 6.77353,-2.57708 6.86523,-3.4082 -0.0902,-0.4445 -2.68164,-1.1875 -2.68164,-1.1875 -1.925,-0.52838 -7.55,-2.0575 -12.5,-3.39844 -4.95,-1.34094 -12.2625,-3.97677 -16.25,-5.85547 -3.48906,-1.64386 -6.42258,-2.68508 -7.10156,-2.55469 z" />
    <path
       style="display:inline;fill:#f6f6e1;fill-opacity:1"
       d="M 139.64908,223.99792 C 131.53871,219.9492 123,210.76443 123,206.08913 c 0,-0.5448 3.2625,0.54657 7.25,2.42527 3.9875,1.8787 11.3,4.51295 16.25,5.85389 4.95,1.34094 10.575,2.87037 12.5,3.39875 0,0 2.59108,0.74359 2.68131,1.18809 -0.0917,0.83112 -6.86577,3.40873 -6.86577,3.40873 -8.7789,4.15401 -9.88071,4.27272 -15.16646,1.63406 z M 113.19093,219.25 c -12.17332,-7.39676 -19.190315,-16.4192 -22.264411,-28.62754 -3.080991,-12.23572 2.654087,-30.69714 13.211511,-41.20742 8.16564,-8.12917 17.15269,-12.80978 25.8882,-13.4348 4.13451,-0.29583 7.10629,0.0653 7.57421,0.67006 1.28644,1.6626 -2.16389,3.21287 -5.33492,5.66212 C 124.02988,148.6735 114,159.43673 114,161.91345 c 0,2.64394 0.44144,2.61522 6.41948,-0.41764 5.38459,-2.73178 8.05691,-3.18661 7.31967,-1.24581 -1.63265,4.29797 -5.74894,18.91626 -6.29683,22.3621 -0.88866,5.58896 -1.88498,7.09534 -3.69779,5.59084 -2.66403,-2.21094 -6.74902,-10.68696 -8.31409,-17.57823 -2.988,-13.15676 -2.42935,-14.47023 -8.22279,-2.87471 -3.160029,6.32477 -3.226485,8.69836 -3.520732,14.98048 -0.513644,10.96618 2.330702,17.41577 3.574822,7.6521 0.34985,-2.7456 0.71049,-5.73615 0.7463,-7.35568 0.0968,-4.37811 1.80924,-4.80675 3.09619,-3.28882 0.95983,1.1321 1.1565,3.22129 1.74675,5.54216 1.5068,5.92475 7.92084,18.80134 13.98816,28.08211 2.82701,4.32429 4.89316,8.26179 4.59143,8.75 -1.18673,1.92017 -6.3597,0.71042 -12.23964,-2.86235 z m 43.91845,-7.08935 c 0,-0.3089 -0.0691,-1.00085 1.21722,-2.23751 1.17555,-1.13017 3.23394,-3.28917 4.58449,-4.91202 2.70109,-3.2457 6.40623,-8.40099 8.23363,-11.4562 1.8274,-3.0552 2.91695,-5.84577 3.91404,-5.88638 1.78001,-0.0725 4.70686,7.96691 4.70686,11.36774 0,2.28951 -0.83005,3.85828 -4.33321,7.14041 -4.49715,4.21339 -18.32303,8.57872 -18.32303,5.98396 z m -18.01655,-8.41713 c -8.35824,-3.46797 -10.43074,-5.64133 -10.89712,-19.06051 -0.539,-15.50848 2.55924,-20.47869 14.17113,-22.91431 4.8491,-1.01711 5.86625,-0.96418 7.20539,0.37495 1.41232,1.41233 1.23087,2.37359 -1.92573,10.20183 -5.54565,13.75299 -5.54975,13.45353 0.30593,22.37321 2.80516,4.27296 4.97205,8.44679 4.8153,9.27517 -0.45924,2.42707 -7.53416,2.29755 -13.6749,-0.25034 z M 156.5,192.6488 c -7.30162,-3.40333 -7.69408,-4.16252 -5.44834,-10.53951 1.04136,-2.95707 2.60025,-6.45529 3.46419,-7.77383 1.55233,-2.36915 1.60688,-2.3764 4.63802,-0.6164 4.03202,2.34115 8.8504,8.21224 8.82968,10.75878 -0.0189,2.32723 -3.995,9.71161 -5.48355,10.18408 -0.55,0.17458 -3.25,-0.73133 -6,-2.01312 z m 10.75,-22.70135 c -3.9875,-4.38893 -7.25,-8.42258 -7.25,-8.96366 0,-1.33296 2.52562,-1.21954 8.54613,0.38379 8.63551,2.29973 9.45387,3.04295 9.45387,8.58582 0,5.60432 -0.72322,8.0622 -2.35699,8.01026 -0.62865,-0.02 -4.40551,-3.62728 -8.39301,-8.01621 z m -34.3461,-17.56324 c -1.34287,-1.61804 2.22399,-5.0121 8.02103,-7.63243 3.51631,-1.58942 5.63051,-1.87412 10.29609,-1.38647 3.22914,0.33751 5.5813,0.54787 8.07508,1.74417 2.56351,1.22975 8.39353,6.70482 8.81327,7.62868 0.6421,1.41326 -0.10737,1.75582 -1.42649,1.78413 -2.23726,0.048 -11.57041,-0.51426 -15.8895,-0.59763 -7.83249,-0.1512 -11.27954,0.58868 -14.62077,0.36191 -3.34123,-0.22676 -2.99689,-1.57484 -3.26871,-1.90236 z"
       id="path957" />
    <path
       style="display:inline;fill:#ce9e9a;fill-opacity:1"
       d="m 230.65839,216.25 c -2.48288,-2.0625 -9.56524,-8.144 -15.73858,-13.51444 -6.17335,-5.37044 -11.35771,-9.63099 -11.52082,-9.46788 -0.16311,0.1631 0.83415,4.74942 2.21612,10.19181 1.38197,5.44239 2.25035,10.94044 1.92973,12.21788 -0.51089,2.03553 -1.18967,2.32263 -5.49131,2.32263 -6.39202,0 -8.10681,-2.14012 -12.15473,-15.1695 -2.98375,-9.60404 -3.04173,-10.17152 -2.35893,-23.08827 0.82064,-15.52429 0.81431,-17.91706 -7.07752,-25.59173 -6.47156,-6.29348 -6.33226,-6.30421 2.08983,-11.21011 9.11387,-5.30886 9.39957,-4.49345 13.09684,-1.02698 2.42482,2.11916 3.38872,3.93079 3.35288,4.92263 -0.0358,0.99184 -1.69491,1.82902 -2.54878,2.73754 -0.81365,0.86571 -2.48486,2.28493 -2.45312,2.58564 0.0794,0.75227 4.8375,1.0809 10.75,1.73004 20.28847,2.22749 19.67535,1.65604 20.59258,3.05574 0.6285,0.95909 2.23962,4.60161 2.23962,7.13776 0,3.58832 -0.34423,5.69641 -2.2945,7.64668 -2.41544,2.41544 -3.61679,2.3495 -12.04391,1.70051 -5.60415,-0.43159 -8.38472,-0.32815 -7.74379,0.28807 0.55,0.5288 7.75,5.7421 16,11.58512 8.25,5.84302 16.56191,11.55698 19.24719,13.92677 0,0 5.4218,4.24376 5.51745,5.31434 0.0956,1.07058 -2.56295,4.97787 -2.56295,4.97787 C 241.48596,213.8256 236.67992,220 235.54589,220 c -0.20524,0 -2.40461,-1.6875 -4.8875,-3.75 z M 66.649974,150.99987 c -1.019364,-5.09682 -0.765342,-9.66041 0.600026,-10.77965 0.6875,-0.56357 3.1625,-1.53602 5.5,-2.16099 2.3375,-0.62498 4.25,-1.32721 4.25,-1.56051 0,-0.23331 -2.643589,-2.21942 -5.874643,-4.41359 -3.231053,-2.19417 -6.154632,-4.71904 -6.496841,-5.61082 -0.908579,-2.36772 3.523964,-12.87999 5.599436,-13.27969 0.950313,-0.18302 6.125288,2.12994 11.499945,5.13989 C 92.006837,124.091 96,125.73769 96,124.21999 96,123.71685 92.9625,119.78846 89.25,115.49022 76.407808,100.62184 74,97.506651 74,95.759973 74,93.105616 80.874155,86 83.442048,86 c 2.695992,0 4.74509,2.198457 11.533472,12.374154 3.862564,5.789936 5.48338,7.510426 6.12342,6.499996 1.62018,-2.55777 0.91295,-11.16354 -1.723775,-20.975521 -1.477238,-5.497203 -2.35915,-10.8263 -2.017149,-12.188943 0.732861,-2.919949 8.468844,-8.442074 9.088474,-6.487564 0.22282,0.702833 1.40406,4.765378 2.62499,9.027878 1.22093,4.2625 2.5184,7.75 2.88327,7.75 0.36488,0 3.92986,-3.6 7.9222,-8 6.93757,-7.645985 7.45001,-8 11.58013,-8 2.71504,0 5.17084,0.68787 6.60666,1.850531 0,0 1.93466,1.528105 1.96775,1.91669 0.0331,0.388585 -2.05375,3.33331 -2.05375,3.33331 -1.30422,1.869708 -6.75414,8.659952 -12.11094,15.089431 C 116.40342,99.548347 114.00576,103.96057 114.01496,110 c 0.003,2.04636 0.56418,1.52277 3.09203,-2.88549 0,0 3.10033,-4.59866 4.27115,-5.015 1.17083,-0.41634 5.44581,-0.1112 5.44581,-0.1112 8.01291,0.75128 14.60066,2.97895 14.55993,4.89268 -0.0442,2.0768 -6.76887,7.96603 -13.2496,13.57954 -5.90877,5.11809 -12.26059,9.27695 -16.13428,11.49941 -4.53101,2.59958 -9.8621,6.59846 -14.141398,10.9784 -3.856623,3.94732 -4.513551,6.34118 -7.951654,7.89835 -3.438103,1.55717 -9.65738,2.27765 -16.506974,2.87821 0,0 -5.028298,0.95399 -5.613498,0.64712 -0.5852,-0.30688 -1.136502,-3.36215 -1.136502,-3.36215 z"
       id="path959" />
  </g>
</svg>
