<?xml version="1.0" encoding="UTF-8" standalone="no"?>
<!-- Created with Inkscape (http://www.inkscape.org/) -->

<svg
   version="1.1"
   id="svg2"
   width="300"
   height="300"
   viewBox="0 0 300 300"
   sodipodi:docname="race_out.svg"
   inkscape:version="1.2.2 (732a01da63, 2022-12-09)"
   xmlns:inkscape="http://www.inkscape.org/namespaces/inkscape"
   xmlns:sodipodi="http://sodipodi.sourceforge.net/DTD/sodipodi-0.dtd"
   xmlns="http://www.w3.org/2000/svg"
   xmlns:svg="http://www.w3.org/2000/svg">
  <defs
     id="defs6">
    <filter
       inkscape:collect="always"
       style="color-interpolation-filters:sRGB"
       id="filter1377"
       x="-0.034100731"
       y="-0.036883297"
       width="1.068083"
       height="1.073776">
      <feGaussianBlur
         inkscape:collect="always"
         stdDeviation="1.0703252"
         id="feGaussianBlur1379" />
    </filter>
  </defs>
  <sodipodi:namedview
     id="namedview4"
     pagecolor="#ffffff"
     bordercolor="#000000"
     borderopacity="0.25"
     inkscape:showpageshadow="2"
     inkscape:pageopacity="0.0"
     inkscape:pagecheckerboard="0"
     inkscape:deskcolor="#d1d1d1"
     showgrid="false"
     inkscape:zoom="4"
     inkscape:cx="96.375"
     inkscape:cy="132.75"
     inkscape:window-width="2560"
     inkscape:window-height="1369"
     inkscape:window-x="1912"
     inkscape:window-y="-8"
     inkscape:window-maximized="1"
     inkscape:current-layer="g8" />
  <g
     inkscape:groupmode="layer"
     inkscape:label="Image"
     id="g8">
    <path
       id="path1370"
       style="display:inline;fill:none;fill-opacity:1;stroke:#753f4b;filter:url(#filter1377);stroke-width:10;stroke-dasharray:none"
       inkscape:label="border"
       d="M 152.02148 54.634766 C 148.58679 55.023453 145.99609 57.95397 145.99609 62.15625 C 145.99609 65.040597 146.61628 66.415336 148.63086 68 C 150.08003 69.139918 152.26943 70.074219 153.49609 70.074219 C 157.22412 70.074219 160.99909 66.369812 160.96289 62.75 C 160.92453 58.918008 159.24131 56.497725 155.67188 55.140625 C 154.40434 54.658708 153.16638 54.505203 152.02148 54.634766 z M 184.60156 55.074219 C 180.39032 55.074219 177.99609 57.641458 177.99609 62.15625 C 177.99609 65.040597 178.61628 66.415336 180.63086 68 C 184.93114 71.382602 189.15685 70.594071 191.55273 65.960938 C 194.34204 60.567011 190.83507 55.074219 184.60156 55.074219 z M 120.94531 55.078125 C 119.15248 55.198391 117.39426 56.023376 116.06836 57.708984 C 113.14956 61.419631 113.46015 64.444985 117.07227 67.484375 C 120.79278 70.614988 122.88965 70.73082 126.36133 68 C 128.19967 66.55396 128.99609 64.986372 128.99609 62.814453 C 128.99609 57.953755 124.88954 54.81354 120.94531 55.078125 z M 253.47656 56.556641 C 246.65156 56.519748 245.70539 56.753928 243.94922 58.921875 C 242.37683 60.862954 242.12313 62.218684 242.64258 65.921875 C 242.99691 68.447846 243.30585 70.72361 244.47461 71.677734 C 245.99806 72.921411 249.33031 73.015625 253.26562 73.015625 C 262.30129 73.015625 264.52788 71.081634 263.83203 63.839844 C 263.57082 61.121313 262.83963 58.38064 262.20703 57.748047 C 261.55084 57.091855 257.80027 56.580011 253.47656 56.556641 z M 52.513672 59.613281 C 49.066304 59.648393 45.424083 59.906831 43.597656 60.365234 C 41.14808 60.98004 41.007812 61.360355 41.007812 67.445312 C 41.007813 72.490562 41.384957 74.110276 42.757812 74.960938 C 45.433414 76.618818 59.193458 75.304973 60.757812 73.242188 C 61.445312 72.335638 62.007812 69.191043 62.007812 66.253906 C 62.007812 62.108377 61.616301 60.753159 60.257812 60.195312 C 59.212713 59.766156 55.96104 59.578169 52.513672 59.613281 z M 256.25195 75.037109 C 255.45134 75.020288 254.41367 75.051929 253.05664 75.117188 L 247.13867 75.402344 C 247.13867 75.402344 246.67806 75.390871 246.53906 75.541016 C 246.39981 75.691465 246.34401 75.853209 246.31836 75.980469 C 246.29492 76.096768 246.29688 76.185547 246.29688 76.185547 C 246.2969 76.185903 246.29688 76.195312 246.29688 76.195312 L 246.21289 78.265625 L 245.88086 86.5 C 245.78175 88.965482 245.58928 94.171915 245.39844 99.527344 C 245.35508 100.74408 245.334 101.17886 245.28906 102.48633 C 245.28891 102.49064 245.28921 102.49178 245.28906 102.49609 C 245.25317 103.54045 245.22373 104.80471 245.1875 105.89453 C 244.97848 112.18094 244.76102 118.93756 244.60742 125.5 C 244.41852 133.57067 244.25687 139.85446 244.08789 145.94922 C 244.0662 146.54809 243.95703 150.52544 243.91406 151.90039 C 243.32101 171.44178 242.56765 186.62786 240.45117 225.83789 C 239.60987 241.42399 239.18533 255.0074 239.50781 256.02344 C 239.83029 257.03948 240.86022 258.10021 241.79688 258.37891 C 244.13498 259.07459 253.98482 258.3953 255.78516 257.48633 C 255.8845 257.43617 255.92686 257.42838 256.00586 257.33398 C 256.40774 256.85361 257.04988 229.94997 257.37891 197.5 C 257.53693 181.91615 257.78019 164.67817 258.04102 149.07617 C 258.17975 143.13451 258.3257 138.00084 258.40039 134.08789 C 258.47616 130.11862 258.51408 127.14711 258.55859 124.08984 C 258.65934 119.59383 258.76476 113.19718 258.85742 110.05273 C 258.87199 109.5458 258.8724 109.24351 258.88867 108.71094 C 259.26141 96.512331 259.451 85.498686 259.4043 80.195312 C 259.40399 80.160738 259.40462 80.092679 259.4043 80.058594 C 259.40424 80.053139 259.40435 80.054271 259.4043 80.048828 C 259.38756 78.301166 259.34355 77.207156 259.27148 76.925781 C 259.27126 76.924903 259.27171 76.916878 259.27148 76.916016 C 258.92099 75.575721 258.65378 75.087573 256.25195 75.037109 z M 52.150391 77.691406 C 50.747801 77.731296 49.34924 77.854387 48.203125 78.044922 C 47.009963 78.243142 46.08687 78.514693 45.742188 78.859375 C 44.959232 79.64233 44.984318 100.45248 45.835938 153.22266 C 45.862335 154.85839 45.874746 155.47575 45.900391 157.06055 C 45.914151 157.97673 45.929562 158.97262 45.935547 159.3457 L 45.914062 160.40625 C 45.914453 160.46947 45.952259 160.51961 45.960938 160.58008 C 47.421416 250.54473 47.691782 257.21507 49.779297 258.83789 C 51.733969 260.35744 64.466336 259.93405 66.105469 258.29492 C 66.722307 257.67808 66.696708 252.51262 66.035156 243.91602 C 64.079401 218.50176 62.654787 192.25362 61.4375 159.39648 C 61.449696 159.31461 61.495099 159.23867 61.492188 159.1543 C 61.221539 151.55347 60.718715 138.92173 60.464844 130.51172 C 59.600498 101.87852 59.071009 79.041716 58.537109 78.507812 C 58.536077 78.50678 58.532294 78.50689 58.53125 78.505859 C 58.368519 78.345207 58.069368 78.20822 57.666016 78.095703 C 57.400118 78.021265 57.031763 77.972129 56.685547 77.917969 C 56.508512 77.89039 56.379603 77.850532 56.185547 77.828125 C 56.171276 77.826469 56.153028 77.825847 56.138672 77.824219 C 54.992373 77.694837 53.581787 77.651742 52.166016 77.691406 C 52.160482 77.69156 52.155924 77.69125 52.150391 77.691406 z M 167.16602 78.175781 C 155.65466 78.214608 144.66996 78.385665 133.72461 78.564453 C 121.16727 78.769572 110.01403 79.017385 99.9375 79.322266 C 99.893349 79.323601 99.864419 79.324835 99.820312 79.326172 C 88.806507 79.660095 78.973922 80.005927 73.267578 80.345703 C 71.136409 80.463274 69.400214 80.579162 68.242188 80.689453 L 65.478516 80.953125 C 65.478516 80.953125 65.282292 80.968211 65.017578 81.050781 C 64.884997 81.091986 64.734641 81.151385 64.583984 81.232422 C 64.433929 81.313416 64.282674 81.417483 64.146484 81.550781 C 63.746947 81.966156 63.818359 82.830078 63.818359 82.830078 L 64.347656 110.05664 C 64.393291 112.03778 64.458474 113.45712 64.509766 115.36914 C 64.867752 128.71388 65.326012 140.38006 65.619141 141.8457 C 66.13975 144.44875 66.758869 144.95985 69.865234 145.35547 C 72.201331 145.65299 84.439461 145.7262 101.07617 145.66211 C 107.86297 145.63596 116.52009 145.53266 124.83398 145.44336 C 128.37644 145.41216 131.70814 145.38428 135.38672 145.3457 C 147.21877 145.22163 157.98746 145.12396 169.9082 144.94141 C 182.93571 144.74191 195.12293 144.52444 205.74023 144.28906 C 205.76177 144.28859 205.78708 144.28759 205.80859 144.28711 C 224.00784 143.88329 237.2608 143.45542 237.85547 143.08789 C 238.62393 142.61296 239.34214 131.4982 239.8418 113.49609 C 239.99634 107.92814 240.13334 101.80241 240.24023 95 L 240.45703 81.273438 C 240.45703 81.273438 240.46424 80.8538 240.4043 80.367188 C 240.37432 80.123019 240.32744 79.863551 240.25391 79.630859 C 240.1808 79.398789 240.08226 79.194742 239.94727 79.0625 C 239.77758 78.896271 239.51808 78.77714 239.22461 78.691406 C 238.34419 78.434206 237.15625 78.480469 237.15625 78.480469 L 203.91992 78.292969 L 186 78.193359 C 180.63367 78.163242 175.17052 78.165347 169.70703 78.177734 C 168.85496 78.179666 168.01859 78.172906 167.16602 78.175781 z " />
    <path
       style="display:inline;fill:#ce9e9a;fill-opacity:1"
       d="M 49.779611,258.83742 C 47.623643,257.16138 47.43058,251.99007 45.836648,153.22296 44.985028,100.45273 44.958344,79.641656 45.7413,78.8587 c 1.353828,-1.353828 11.498686,-1.643714 12.789752,-0.352648 0.533904,0.533904 1.063172,23.370388 1.927518,52.003618 1.433709,47.49451 3.077824,80.92407 5.57748,113.4061 0.661552,8.59661 0.686619,13.76156 0.06978,14.3784 -1.639134,1.63913 -14.371548,2.0628 -16.326222,0.54325 z m 192.017379,-0.45925 c -0.93666,-0.2787 -1.96686,-1.33803 -2.28934,-2.35407 -0.32248,-1.01604 0.10202,-14.59961 0.94332,-30.18572 2.93927,-54.45304 3.26982,-62.43165 4.15705,-100.33838 0.36045,-15.4 1.03029,-32.945339 1.27367,-39 l 0.41422,-10.304741 c 0,0 -0.0234,-0.356537 0.24311,-0.644478 0.139,-0.150145 0.59794,-0.138685 0.59794,-0.138685 l 5.91835,-0.284607 c 5.42814,-0.261033 5.74789,0.0121 6.21522,1.799161 0.28987,1.108483 0.11758,15.415958 -0.38288,31.79439 -0.50046,16.37843 -1.17913,56.32896 -1.50817,88.77896 -0.32903,32.45 -0.97134,59.35397 -1.37322,59.83434 -0.079,0.0944 -0.12255,0.10223 -0.22189,0.15239 -1.80034,0.90897 -11.64931,1.58712 -13.98742,0.89144 z M 69.86429,145.35593 c -3.106368,-0.39562 -3.724426,-0.90661 -4.245036,-3.50966 -0.335128,-1.67564 -0.907254,-15.98069 -1.27139,-31.78899 L 63.818817,82.829429 c 0,0 -0.07279,-0.863539 0.326749,-1.278914 0.546352,-0.534752 1.333826,-0.597015 1.333826,-0.597015 l 2.763331,-0.263181 C 79.780596,79.591445 136.37394,77.915616 186,78.194131 l 51.15715,0.287108 c 0,0 2.11166,-0.08268 2.79042,0.582237 0.53999,0.52897 0.50885,2.209893 0.50885,2.209893 L 240.2407,95 c -0.45252,28.79575 -1.37834,47.46703 -2.38448,48.08886 -2.12424,1.31285 -158.874738,3.42822 -167.99193,2.26707 z"
       id="path293"
       sodipodi:nodetypes="sssssssssssssscscsssssssssscscssccacsss"
       inkscape:label="bg" />
    <path
       style="display:inline;fill:#f6f6e1;fill-opacity:1"
       d="m 117.07204,67.48449 c -3.61212,-3.039393 -3.92295,-6.065597 -1.00415,-9.776247 4.24288,-5.393951 12.92742,-1.963101 12.92742,5.107012 0,2.171921 -0.79652,3.739508 -2.63486,5.185549 -3.47168,2.730823 -5.56789,2.614302 -9.28841,-0.516314 z m 31.55813,0.516314 c -2.01458,-1.584666 -2.63486,-2.960663 -2.63486,-5.845013 0,-5.603046 4.60704,-8.942708 9.67719,-7.01504 3.56944,1.357101 5.25265,3.778057 5.29101,7.610053 0.0362,3.619816 -3.74017,7.32258 -7.4682,7.32258 -1.22666,0 -3.41597,-0.932661 -4.86514,-2.07258 z m 32,0 c -2.01458,-1.584666 -2.63486,-2.960663 -2.63486,-5.845013 0,-4.514797 2.39498,-7.082407 6.60623,-7.082407 6.23351,0 9.74128,5.493516 6.95197,10.887448 -2.39589,4.633138 -6.62306,5.422577 -10.92334,2.039972 z m 63.84389,3.676216 c -1.16876,-0.954125 -1.47673,-3.228319 -1.83106,-5.754293 -0.51945,-3.703195 -0.26654,-5.058919 1.30585,-7 1.75617,-2.167949 2.70364,-2.403246 9.52865,-2.366353 4.32371,0.02337 8.07255,0.534943 8.72874,1.191136 0.6326,0.632594 1.3639,3.374426 1.62511,6.092959 0.69585,7.241797 -1.53041,9.174939 -10.56608,9.174939 -3.93532,0 -7.26776,-0.09471 -8.79121,-1.338388 z M 42.758309,74.961184 c -1.372857,-0.850662 -1.75,-2.470354 -1.75,-7.515609 0,-6.084964 0.139405,-6.466246 2.588984,-7.081052 3.652857,-0.916808 14.570814,-1.028009 16.661016,-0.169695 1.35849,0.557847 1.75,1.913338 1.75,6.058871 0,2.93714 -0.5625,6.081978 -1.25,6.988528 -1.564356,2.062788 -15.324396,3.376839 -18,1.718957 z M 243.61016,162.32468 c 0.81755,-30.33989 0.29734,-6.87244 0.99862,-36.83464 0.36045,-15.4 1.03029,-32.945343 1.27367,-39.000004 l 0.41422,-10.304741 c 0,0 -0.0234,-0.356537 0.24311,-0.644478 0.139,-0.150145 0.59794,-0.138685 0.59794,-0.138685 l 5.91835,-0.284607 c 5.42814,-0.261033 5.74789,0.0121 6.21522,1.799161 0.28987,1.108483 0.11758,15.415958 -0.38288,31.794394 -0.3077,10.06999 -0.29641,15.30024 -0.48876,25.37735 -0.1205,6.31289 -0.45517,14.52793 -0.58191,27.02661 0.003,3.55988 -14.201,3.17878 -14.20758,1.20964 z M 45.935775,159.34533 c -0.01603,-0.99935 -0.07645,-5.10198 -0.09289,-6.1208 -0.85162,-52.77023 -0.8783,-73.5813 -0.0953,-74.364256 1.35383,-1.353828 11.49869,-1.643714 12.78976,-0.352648 0.5339,0.533904 1.063163,23.370384 1.92751,52.003614 0.253872,8.41002 0.757409,21.04151 1.028058,28.64234 0.131768,3.8183 -15.555444,5.10694 -15.579231,1.25241 z"
       id="path1004"
       inkscape:label="ln"
       sodipodi:nodetypes="ssssssssssssssssssssssssssssssscsscscsssscccscssccc" />
    <path
       id="path1365"
       style="display:inline;fill:#f6f6e1;fill-opacity:1"
       inkscape:label="checks"
       d="M 167.16602 78.175781 C 155.65466 78.214608 144.66996 78.385665 133.72461 78.564453 L 134.1582 96 L 134.78125 113.14453 L 125.51367 113.09375 C 120.55166 112.97555 112.79759 113.47252 108.25 113.6543 L 100.45703 113.96484 L 100.0918 98.609375 C 100.06826 92.485939 100.08303 84.18666 99.9375 79.322266 C 85.045874 79.772834 72.696561 80.265216 68.242188 80.689453 L 65.478516 80.953125 C 65.478516 80.953125 64.692836 81.01603 64.146484 81.550781 C 63.746946 81.966156 63.818359 82.830078 63.818359 82.830078 L 64.347656 110.05664 C 64.393291 112.03778 64.458474 113.45712 64.509766 115.36914 L 82.683594 114.88281 L 99.925781 114.60547 L 100 125.00781 C 100 130.89952 100.4232 137.79457 100.63672 140.36133 L 101.07617 145.66211 C 110.87753 145.62435 123.4264 145.47112 135.38672 145.3457 L 135.54883 140.52148 C 135.64684 137.63071 136.02764 131.08313 135.80664 125.02148 L 135.39062 113.64648 L 152.19531 114 L 169.19531 113.9375 L 169 125.875 C 169 132.40624 169.50784 139.13716 169.62891 140.89844 L 169.9082 144.94141 C 182.96213 144.7415 195.17733 144.52301 205.80859 144.28711 L 205.77734 128.75 L 205.41211 113.46875 L 221.9668 114 C 230.20005 114 236.89478 113.88932 239.8418 113.49609 C 239.99634 107.92813 240.13334 101.80242 240.24023 95 L 240.45703 81.273438 C 240.45703 81.273438 240.48726 79.591469 239.94727 79.0625 C 239.26851 78.397584 237.15625 78.480469 237.15625 78.480469 L 203.91992 78.292969 C 203.92236 83.691865 204 89.991335 204 95.361328 L 204.08789 112.75977 L 198.5957 112.72656 C 195.57563 112.78613 188.21249 112.98523 181.75 112.99023 L 169.75 113.15625 L 169.98633 98.25 C 169.97952 90.891593 169.95646 80.956769 169.70703 78.177734 C 168.85496 78.179666 168.0186 78.172906 167.16602 78.175781 z " />
  </g>
</svg>
