<?xml version="1.0" encoding="UTF-8" standalone="no"?>
<!-- Created with Inkscape (http://www.inkscape.org/) -->

<svg
   version="1.1"
   id="svg3416"
   width="300"
   height="300"
   viewBox="0 0 300 300"
   xmlns="http://www.w3.org/2000/svg"
   xmlns:svg="http://www.w3.org/2000/svg">
  <defs
     id="defs3420">
    <filter
       style="color-interpolation-filters:sRGB"
       id="filter3973"
       x="-0.033751172"
       y="-0.033602914"
       width="1.0678265"
       height="1.0672828">
      <feGaussianBlur
         stdDeviation="1.1445693"
         id="feGaussianBlur3975" />
    </filter>
  </defs>
  <g
     id="g3422">
    <path
       id="path3547"
       style="fill:none;fill-opacity:0.518414;stroke:#753f4b;stroke-width:10;stroke-dasharray:none;filter:url(#filter3973)"
       d="m 221.74805,34.726562 c -3.79443,-0.05277 -7.58059,0.943329 -11.92969,2.978516 -8.28784,3.878351 -15.0913,10.553256 -30.36914,29.794922 -6.55048,8.249992 -15.08061,18.600004 -18.95508,23 -9.77709,11.10327 -15.51584,18.01765 -15.49414,18.74023 0.0156,0.52037 0.7875,0.77974 1.75,0.98438 2.00465,0.42621 13.29883,-0.009 20.91406,-0.80664 4.86889,-0.50985 5.81083,-1.12176 16.4961,-10.728517 C 201.73235,82.890917 240,44.550816 240,42.744141 c 0,-0.991709 -2.43022,-2.815019 -6.27344,-4.707032 -4.38065,-2.156589 -8.18408,-3.257778 -11.97851,-3.310547 z m 23.27929,10.652344 c -0.47092,0.03256 -0.92517,0.598295 -1.64257,1.275391 -5.91151,5.579342 -31.22266,31.564453 -31.22266,31.564453 -18.07659,17.897665 -34.02189,33.29767 -35.43359,34.22266 -1.91164,1.25254 -2.74391,2.19713 -20.32813,2.60156 -17.1756,0.39503 -17.95698,1.75669 -19.84766,2.91211 -5.85141,3.57588 -8.96234,8.25364 -15.40625,14.58594 l -9.61914,9.45117 c 0,0 -1.55383,1.58857 -1.88476,2.6875 -0.25307,0.84043 -0.18946,3.15039 -0.18946,3.15039 l 0.10352,16.00195 0.0449,16.34766 c 0,0 0.0561,1.0916 -0.0879,1.61328 -0.0909,0.32954 -0.43359,0.88672 -0.43359,0.88672 l -4.83399,8.10156 c -3.06044,5.04714 -7.259287,11.74101 -9.169918,14.57813 -1.91063,2.83712 -3.546362,5.78667 -3.451172,6.22265 0.40625,1.86075 5.75762,-3.12401 18.60938,-12.64258 l 9.0957,-6.73633 c 0,10e-6 0.40856,-0.31481 0.74804,-0.42773 0.33949,-0.1129 0.80847,-0.0818 1.24219,-0.0918 11.14623,-0.25117 21.62418,-0.36613 32.82031,0.19141 0.6367,0.0317 2.02834,-0.009 2.47657,-0.18945 0.44822,-0.18083 0.87109,-0.61719 0.87109,-0.61719 l 11.69922,-12.56445 11.58398,-12.13086 c 0,0 0.60474,-0.5242 0.92579,-1.22266 0.32105,-0.69847 0.47656,-2.93164 0.47656,-2.93164 l 1.22656,-12.30664 c 1.04421,-8.67321 1.72762,-17.74393 2.05664,-21.69727 l 0.60742,-7.29101 c 0,0 0.0622,-1.08713 0.28321,-1.58985 0.20514,-0.46659 0.89062,-1.17578 0.89062,-1.17578 l 13.21484,-14.31836 c 7.83904,-8.492639 22.19481,-23.436037 31.9004,-33.207028 7.42579,-7.475828 14.26767,-14.101171 17.04492,-17.013671 0.87563,-0.918272 1.48155,-1.348983 1.46875,-2 -0.0196,-1.003006 -1.53709,-2.545652 -2.9043,-3.830079 0,0 -2.33213,-2.451876 -2.93555,-2.410156 z m 9.10938,10.601563 c -0.55082,0.06558 -1.30664,0.892578 -1.30664,0.892578 L 234.21875,75.595703 C 203.51645,106.48199 190.21186,121.26562 189.58789,125.18359 189.09004,128.30965 187,153.71535 187,156.64258 c 0,0.74624 0.36267,1.35742 0.80664,1.35742 0.44397,0 6.63148,-5.4661 13.75,-12.14648 7.11852,-6.68038 19.89808,-18.26789 28.39844,-25.75 21.58865,-19.00255 25.17499,-22.68934 29.36523,-30.199223 3.25332,-5.830688 3.67892,-7.397228 3.66992,-13.5 -0.0106,-7.519928 -2.40638,-15.468169 -6.62695,-18.832031 l -1.07812,-0.857422 c 0,0 -0.79082,-0.776945 -1.14844,-0.734375 z M 152.58789,136.11133 c 5.87294,0.1041 7.10259,0.91672 8.22266,3.375 1.57992,3.46754 2.78086,24.02977 1.45117,24.85156 -1.58758,0.98118 -17.29858,1.58412 -21.73633,0.83399 -5.74726,-0.9715 -6.58198,-3.25199 -6.27734,-17.17188 l 0.21679,-9.90625 c 0,0 0.06,-1.1676 0.2793,-1.36914 0.21933,-0.20158 1.37891,-0.26953 1.37891,-0.26953 L 145,136.20898 c 3.15735,-0.0877 5.63025,-0.13235 7.58789,-0.0976 z m -7.56836,8.91601 c -1.59677,0.006 -2.04777,-0.0689 -2.83789,0.36133 -0.80978,0.9122 -0.51931,3.12578 -0.18945,6.01563 0.1165,1.02062 0.26209,2.78034 0.57422,3.51172 0.6925,1.62264 1.85979,1.65078 2.91015,1.86914 0.97652,0.10176 1.14525,0.13894 4.82422,0.15234 3.67897,0.0134 3.33963,0.45526 3.36133,-5.26758 0.008,-2.1222 0.44319,-5.93429 -0.27149,-6.41406 -0.18629,-0.19294 -1.625,-0.16016 -1.625,-0.16016 -2.78277,0.0688 -5.14932,-0.0744 -6.74609,-0.0684 z m -40.64453,6.76758 c -0.37184,-0.10358 -0.87542,0.0102 -1.58984,0.33985 -2.18687,1.00906 -6.434305,4.90959 -15.218754,13.19726 l -11.230468,10.5957 c 0,0 -0.41203,0.45027 -0.515626,0.75586 -0.112339,0.33146 -0.02148,0.94532 -0.02148,0.94532 l 2.582031,15.91601 c 1.51251,9.32476 2.993564,17.96357 3.291016,19.19727 0.297452,1.2337 0.921977,2.00987 1.386719,1.72265 1.226415,-0.75797 11.181019,-15.03853 17.499996,-25.10351 L 106,180.69531 l -0.0156,-13.09765 c -0.008,-7.20358 -0.50791,-13.9356 -0.81055,-14.83204 -0.18694,-0.54502 -0.42699,-0.86712 -0.79883,-0.9707 z M 69.958984,182 c -1.157287,0 -13.415761,9.5538 -22.554687,18.45898 -10.543674,10.274 -13.376898,20.12097 -10.945313,31.89063 1.112576,5.38522 5.060267,13.56561 7.5,16.60351 0.552129,0.6875 1.642885,1.39063 2.136719,1.39063 0.439296,0 1.195195,-0.558 2.154297,-1.32031 4.470639,-3.55334 15.979561,-14.14409 23.744141,-21.70703 2.729132,-2.65826 5.978515,-5.47851 5.978515,-6.32032 0,-2.16102 -5.920198,-35.1275 -6.570312,-37.24609 -0.295355,-0.9625 -0.944545,-1.75 -1.44336,-1.75 z m 52.744136,13.28906 -9.92382,7.47461 C 102.19905,210.73366 91,220.65986 91,222.06836 c 0,1.1983 5.972843,2.59497 16.5,3.85742 4.95,0.59362 10.125,1.24279 11.5,1.44141 2.28389,0.32556 3.68559,0.76773 4.96094,-0.26758 C 129.50999,223.03735 150,200.96427 150,198.91211 c 0,-1.8461 -5.0956,-2.87096 -16.1543,-3.24609 z m -39.085932,31.34961 c -0.440405,-0.037 -0.967694,-0.0447 -1.320313,0.0723 -0.666093,0.22087 -1.507813,1.16797 -1.507813,1.16797 l -12.603515,13.61132 c -6.267627,6.76912 -12.240878,12.18788 -13.988281,14.6543 -0.383694,0.54157 -0.670283,1.12366 -0.56836,1.47266 7.258342,7.1019 22.629223,8.98539 31.88086,6.77734 5.464044,-1.43543 10.443607,-4.70609 14.193359,-8.46289 3.945775,-3.95319 13.131315,-14.97933 17.398435,-20.22852 1.37598,-1.69265 1.58272,-2.03351 1.36524,-2.57812 -0.23719,-0.59393 -1.0703,-0.77604 -3.06836,-1.04688 -3.65047,-0.49483 -9.28805,-1.31047 -15.445315,-2.45312 l -15.542969,-2.88477 c 0,0 -0.352564,-0.0645 -0.792968,-0.10156 z" />
    <path
       style="fill:#ce9e9a;fill-opacity:1"
       d="m 119,227.36651 c -1.375,-0.19862 -6.55,-0.84681 -11.5,-1.44043 -10.527168,-1.26245 -16.5,-2.65861 -16.5,-3.85691 0,-1.4085 11.19919,-11.33563 21.77945,-19.30563 l 9.92294,-7.47484 11.14241,0.37797 c 11.05871,0.37513 16.1552,1.3988 16.1552,3.2449 0,2.05216 -20.48939,24.12572 -26.03845,28.18798 -1.27535,1.03531 -2.67766,0.59252 -4.96155,0.26696 z M 81.672525,212.74309 c -0.297452,-1.2337 -1.778331,-9.87245 -3.290842,-19.19722 l -2.581914,-15.91774 c 0,0 -0.0913,-0.61388 0.02104,-0.94534 0.103596,-0.30559 0.514952,-0.75536 0.514952,-0.75536 L 87.56581,165.33246 c 8.784458,-8.28768 13.03329,-12.18812 15.22016,-13.19719 1.42885,-0.6593 2.01485,-0.46036 2.38873,0.62969 0.30264,0.89644 0.80155,7.62887 0.80997,14.83245 l 0.0153,13.0974 -5.44159,8.66744 c -6.318987,10.06499 -16.273662,24.34373 -17.500078,25.1017 -0.464742,0.28722 -1.088356,-0.48716 -1.385808,-1.72086 z M 187,156.64319 c 0,-2.92723 2.08957,-28.33375 2.58742,-31.45981 0.62397,-3.91798 13.92917,-18.70038 44.6315,-49.586701 l 18.61155,-18.723083 c 0,0 0.75497,-0.827402 1.30579,-0.892977 0.35762,-0.04257 1.14918,0.734322 1.14918,0.734322 l 1.07689,0.858301 c 4.22057,3.363866 6.61726,11.310723 6.6279,18.830658 0.009,6.102778 -0.4173,7.669306 -3.67062,13.5 -4.19025,7.509891 -7.77572,11.19738 -29.36439,30.19994 -8.50037,7.48212 -21.27947,19.06962 -28.398,25.75 C 194.43869,152.53423 188.25119,158 187.80722,158 187.36325,158 187,157.38943 187,156.64319 Z m -40.25,-46.41777 c -0.9625,-0.20464 -1.73438,-0.46402 -1.75,-0.98439 -0.0217,-0.72259 5.71672,-7.63775 15.49382,-18.74103 3.87447,-4.4 12.40398,-14.75 18.95447,-23 15.27786,-19.241685 22.08235,-25.917482 30.3702,-29.795837 8.6982,-4.070379 15.14618,-3.980708 23.9075,0.332475 3.84322,1.892015 6.27401,3.715929 6.27401,4.707639 0,1.806677 -38.26737,40.145975 -55.83958,55.944527 -10.68528,9.606766 -11.62765,10.219696 -16.49654,10.729546 -7.61524,0.79744 -18.90923,1.23328 -20.91388,0.80707 z"
       id="path3964" />
    <path
       style="fill:#f6f6e1;fill-opacity:1"
       d="m 61.157757,262.55645 c -3.753663,-1.45325 -7.071098,-3.3708 -7.529299,-4.93974 -0.101924,-0.349 0.184332,-0.93114 0.568026,-1.47271 1.747405,-2.46642 7.721668,-7.88469 13.989301,-14.65381 L 80.788418,227.8792 c 0,0 0.841578,-0.94825 1.507672,-1.16912 0.705239,-0.23385 2.114239,0.0311 2.114239,0.0311 l 15.542758,2.88437 c 6.157273,1.14265 11.795703,1.95759 15.446173,2.45243 1.99806,0.27084 2.8303,0.45373 3.06749,1.04766 0.21748,0.54461 0.0102,0.88445 -1.36578,2.57711 -4.26713,5.24919 -13.45248,16.27565 -17.398259,20.22884 -3.749756,3.7568 -8.573321,7.24841 -14.037371,8.68384 -5.322325,1.39819 -9.946888,0.95638 -14.876774,0.40386 -3.292959,-0.36906 -6.098182,-1.09516 -9.630809,-2.46284 z M 43.959768,248.95312 C 41.520032,245.91521 37.571339,237.73471 36.458762,232.34948 34.027174,220.57981 36.859935,210.73333 47.403619,200.45932 56.542554,191.55413 68.801,182 69.958289,182 c 0.498815,0 1.14859,0.7875 1.443945,1.75 0.650115,2.11859 6.570038,35.086 6.570038,37.24703 0,0.84181 -3.249398,3.66131 -5.978533,6.31957 -7.764587,7.56295 -19.272242,18.15432 -23.742885,21.70766 -0.959103,0.76231 -1.715662,1.31949 -2.154958,1.31949 -0.493835,0 -1.583999,-0.70313 -2.136128,-1.39063 z M 91.625,211.58156 c -0.09519,-0.43598 1.540497,-3.38535 3.451129,-6.22248 1.910633,-2.83712 6.110471,-9.53096 9.170921,-14.57811 l 4.83385,-8.10083 c 0,0 0.34138,-0.55844 0.43231,-0.88798 0.14396,-0.52168 0.0887,-1.61244 0.0887,-1.61244 l -0.0445,-16.34846 -0.10411,-16.00179 c 0,0 -0.0631,-2.30868 0.18997,-3.14911 0.33093,-1.09893 1.88401,-2.68781 1.88401,-2.68781 l 9.61903,-9.45243 c 6.44391,-6.3323 9.55527,-11.0098 15.40669,-14.58569 1.89068,-1.15542 2.67259,-2.51675 19.84821,-2.91178 17.58424,-0.40443 18.41556,-1.34783 20.3272,-2.60038 1.41171,-0.92499 17.3567,-16.325364 35.43331,-34.223047 0,0 25.31227,-25.986449 31.22378,-31.565797 0.71741,-0.677097 1.17185,-1.24229 1.64277,-1.274847 0.60342,-0.04172 2.93494,2.410174 2.93494,2.410174 1.36721,1.284428 2.88444,2.826885 2.90409,3.829892 0.0128,0.651018 -0.59309,1.081955 -1.46872,2.000228 -2.77725,2.912503 -9.61938,9.538701 -17.04518,17.014537 -9.7056,9.771 -24.06032,24.713979 -31.89936,33.20663 l -13.21567,14.3176 c 0,0 -0.68643,0.70993 -0.89157,1.17652 -0.22102,0.50272 -0.28219,1.58889 -0.28219,1.58889 l -0.60689,7.29195 c -0.32902,3.95334 -1.01257,13.02407 -2.05678,21.69729 l -1.2263,12.30674 c 0,0 -0.15538,2.23331 -0.47643,2.93178 -0.32105,0.69846 -0.9274,1.22276 -0.9274,1.22276 l -11.58377,12.12987 -11.69882,12.56481 c 0,0 -0.4232,0.43654 -0.87142,0.61737 -0.44823,0.18083 -1.84025,0.22068 -2.47695,0.18897 -11.19615,-0.55754 -21.67375,-0.44192 -32.81999,-0.19075 -0.43372,0.01 -0.90229,-0.0205 -1.24178,0.0924 -0.33949,0.11292 -0.74817,0.42627 -0.74817,0.42627 l -9.09513,6.73624 c -12.851768,9.51858 -18.20355,14.50356 -18.6098,12.64281 z m 70.63628,-47.24304 c 1.32969,-0.82179 0.13002,-21.38561 -1.4499,-24.85316 -1.49343,-3.27771 -3.18195,-3.62766 -15.81138,-3.27694 l -8.87625,0.24649 c 0,0 -1.16111,0.0674 -1.38044,0.26898 -0.21934,0.20154 -0.27821,1.36979 -0.27821,1.36979 L 134.24832,148 c -0.30464,13.9199 0.5289,16.20051 6.27617,17.17201 4.43775,0.75014 20.14921,0.14769 21.73679,-0.83349 z m -16.78422,-7.5524 c -1.05036,-0.21836 -2.21872,-0.24828 -2.91122,-1.87093 -0.31213,-0.73138 -0.45715,-2.49065 -0.57365,-3.51127 -0.32986,-2.88985 -0.62005,-5.10402 0.18973,-6.01622 0.79012,-0.43025 1.24016,-0.35547 2.83693,-0.36133 1.59677,-0.006 3.96326,0.13771 6.74604,0.0689 0,0 1.43985,-0.033 1.62615,0.15994 0.71468,0.47977 0.27877,4.2924 0.27073,6.4146 -0.0217,5.72284 0.31718,5.28012 -3.36179,5.26677 -3.67897,-0.0134 -3.8464,-0.0487 -4.82292,-0.15046 z"
       id="path3966" />
  </g>
</svg>
