<?xml version="1.0" encoding="UTF-8" standalone="no"?>
<!-- Created with Inkscape (http://www.inkscape.org/) -->

<svg
   version="1.1"
   id="svg239"
   width="300"
   height="300"
   viewBox="0 0 300 300"
   xmlns="http://www.w3.org/2000/svg"
   xmlns:svg="http://www.w3.org/2000/svg">
  <defs
     id="defs243">
    <filter
       style="color-interpolation-filters:sRGB"
       id="filter2315"
       x="-0.044659239"
       y="-0.035323463"
       width="1.089312"
       height="1.070664">
      <feGaussianBlur
         stdDeviation="0.91101928"
         id="feGaussianBlur2317" />
    </filter>
  </defs>
  <g
     id="g245">
    <path
       style="fill:none;stroke:#753f4b;stroke-width:10;stroke-dasharray:none;filter:url(#filter2315)"
       d="M 96.861922,250.48143 C 81.560585,247.62523 73,242.94366 73,237.43196 c 0,-2.3541 0.315301,-2.60217 2.75,-2.16362 1.5125,0.27243 8.015584,1.43712 14.451298,2.58818 15.099072,2.70056 38.449942,3.74278 50.490812,2.25356 20.00735,-2.47452 41.00045,-9.68849 60.0686,-20.64167 6.19339,-3.55763 11.70589,-6.46841 12.25,-6.46841 2.89857,0 -0.16152,10.08432 -4.13183,13.61616 -7.17128,6.3793 -28.99476,17.07956 -44.16578,21.65491 -10.07636,3.03888 -10.54781,3.08384 -35.2131,3.35812 -18.42366,0.20487 -27.00922,-0.097 -32.638078,-1.14776 z M 111,233.96746 c -11.533777,-0.9004 -26.806081,-3.45956 -33.25122,-5.57186 -5.71576,-1.87326 -6.283505,-3.36568 -5.427405,-14.26693 0.96547,-12.29392 7.706979,-29.8354 14.051756,-36.56283 l 3.217943,-3.41201 9.615349,2.85868 c 17.777717,5.28539 39.932137,5.83655 62.062497,1.544 14.40532,-2.79415 31.3607,-6.67062 37.58337,-8.59261 3.49711,-1.08014 6.74355,-1.9639 7.2143,-1.9639 2.60221,0 7.82256,30.53117 6.02759,35.25228 -1.38514,3.64321 -5.84188,6.72074 -21.13277,14.59287 -14.97722,7.71065 -21.76894,10.16368 -36.46141,13.16906 -8.14003,1.66507 -31.52965,4.33533 -33.5,3.82451 -0.275,-0.0713 -4.775,-0.46337 -10,-0.87126 z m 76.31537,-69.95142 c -2.9589,-1.22335 -4.37143,-4.17214 -4.47521,-9.34247 -0.14215,-7.08225 0.75506,-8.46722 7.48486,-11.5539 6.95698,-3.19087 13.90369,-8.95619 18.11689,-15.03585 2.49786,-3.60442 2.73797,-5.30963 3.17519,-13.66843 0.17671,-3.37836 0.1392,-6.47473 0.43976,-7.94136 0.34329,-1.67512 1.54982,-1.44757 2.11898,-1.44757 0.77028,0 3.95991,2.24348 7.15276,5.40598 10.3843,10.2856 11.08569,21.47595 3.18815,34.83909 -4.8299,8.1725 -9.80379,12.36367 -18.94955,15.9459 -8.94696,3.50437 -15.11362,4.0961 -18.25183,2.79861 z m -59.25838,-3.56922 c -6.50076,-3.02602 -15.08222,-10.13354 -18.06804,-14.96469 -2.75663,-4.46033 -5.4418,-5.08349 -11.013817,-2.556 -2.461323,1.11647 -5.859192,2.03983 -7.550819,2.05191 -5.703598,0.0407 -10.4582,-7.7194 -11.215621,-18.30535 -0.552106,-7.71641 -1.966678,-9.18813 -5.574025,-5.7992 C 73.389704,122.04307 71.893851,123 71.310549,123 68.280803,123 68.069351,100.22376 71.010685,90.700829 73.151896,83.768394 74.482028,79.921262 82.159472,72.46675 88.452133,66.35681 91.48339,65.743392 97,63.58426 c 2.475,-0.968684 7.14498,-3.525564 10.37772,-5.681947 5.28541,-3.525605 9.53403,-5.989977 14.99253,-6.878372 4.41868,-0.71916 7.34005,-1.430698 14.80939,-0.259854 2.26018,0.354291 5.22546,0.471301 9.897,-0.832074 2.06348,-0.575719 4.444,-1.027551 8.94469,-1.250369 4.42515,-0.219079 9.40286,0.387019 14.69573,0.314494 0,0 8.73669,-0.840944 12.78454,-0.771595 2.91772,0.04999 6.15006,0.674577 7.68886,1.070432 4.58333,1.179061 7.19401,3.353205 7.19401,3.353205 9.10393,6.220235 11.19597,7.29426 16.46126,18.710383 3.21622,6.973357 3.64361,9.136137 3.99501,17.884968 0,0 1.86442,8.029218 0.58877,9.738711 -0.61494,0.82408 -0.55851,1.095338 -2.65608,0.897188 -2.25369,-0.212896 -6.70214,-0.909888 -8.38148,-0.310631 -1.00851,0.359871 -3.10085,1.127771 -3.10085,7.724941 0,1.22903 -0.15122,3.49137 -0.56107,5.6014 -0.37586,1.93503 -0.80081,4.64418 -1.35321,6.43261 -1.78214,5.76988 -3.52686,7.00747 -8.86688,12.34749 -6.56484,6.56484 -8.69663,8.26794 -13.63477,8.19244 -3.46175,-0.0529 -4.45981,1.00742 -7.45032,5.68234 -5.02091,7.84895 -6.85885,8.44838 -14.01679,4.57147 -6.89271,-3.73325 -7.73088,-3.80394 -9.68796,-0.81707 -3.61457,5.51654 -12.023,13.69512 -14.07044,13.68581 -1.18231,-0.005 -4.59901,-1.14991 -7.59267,-2.54341 z M 142.5,74.86564 c 18.42631,-2.601531 25.70922,-4.510176 30.52723,-8.000326 C 177.55545,63.585086 177.78528,62.785281 175,60 c -2.07689,-2.076887 -3.9073,-2.278246 -18.5,-2.035131 -9.0778,0.151237 -30.19281,3.532554 -35.70106,5.717099 -9.81003,3.890612 -15.64694,8.924956 -13.14828,11.340412 1.85688,1.795043 8.1807,2.824149 14.34934,2.335138 3.575,-0.283403 12.8,-1.404749 20.5,-2.491878 z"
       id="path422" />
    <path
       style="fill:#f6f6e1"
       d="M 96.861922,250.48143 C 81.560585,247.62523 73,242.94366 73,237.43196 c 0,-2.3541 0.315301,-2.60217 2.75,-2.16362 1.5125,0.27243 8.015584,1.43712 14.451298,2.58818 15.099072,2.70056 38.449942,3.74278 50.490812,2.25356 20.00735,-2.47452 41.00045,-9.68849 60.0686,-20.64167 6.19339,-3.55763 11.70589,-6.46841 12.25,-6.46841 2.89857,0 -0.16152,10.08432 -4.13183,13.61616 -7.17128,6.3793 -28.99476,17.07956 -44.16578,21.65491 -10.07636,3.03888 -10.54781,3.08384 -35.2131,3.35812 -18.42366,0.20487 -27.00922,-0.097 -32.638078,-1.14776 z M 111,233.96746 c -11.533777,-0.9004 -26.806081,-3.45956 -33.25122,-5.57186 -5.71576,-1.87326 -6.283505,-3.36568 -5.427405,-14.26693 0.96547,-12.29392 7.706979,-29.8354 14.051756,-36.56283 l 3.217943,-3.41201 9.615349,2.85868 c 17.777717,5.28539 39.932137,5.83655 62.062497,1.544 14.40532,-2.79415 31.3607,-6.67062 37.58337,-8.59261 3.49711,-1.08014 6.74355,-1.9639 7.2143,-1.9639 2.60221,0 7.82256,30.53117 6.02759,35.25228 -1.38514,3.64321 -5.84188,6.72074 -21.13277,14.59287 -14.97722,7.71065 -21.76894,10.16368 -36.46141,13.16906 -8.14003,1.66507 -31.52965,4.33533 -33.5,3.82451 -0.275,-0.0713 -4.775,-0.46337 -10,-0.87126 z m 76.31537,-69.95142 c -2.9589,-1.22335 -4.37143,-4.17214 -4.47521,-9.34247 -0.14215,-7.08225 0.75506,-8.46722 7.48486,-11.5539 6.95698,-3.19087 13.90369,-8.95619 18.11689,-15.03585 2.49786,-3.60442 2.73797,-5.30963 3.17519,-13.66843 0.17671,-3.37836 0.1392,-6.47473 0.43976,-7.94136 0.34329,-1.67512 1.54982,-1.44757 2.11898,-1.44757 0.77028,0 3.95991,2.24348 7.15276,5.40598 10.3843,10.2856 11.08569,21.47595 3.18815,34.83909 -4.8299,8.1725 -9.80379,12.36367 -18.94955,15.9459 -8.94696,3.50437 -15.11362,4.0961 -18.25183,2.79861 z m -59.25838,-3.56922 c -6.50076,-3.02602 -15.08222,-10.13354 -18.06804,-14.96469 -2.75663,-4.46033 -5.4418,-5.08349 -11.013817,-2.556 -2.461323,1.11647 -5.859192,2.03983 -7.550819,2.05191 -5.703598,0.0407 -10.4582,-7.7194 -11.215621,-18.30535 -0.552106,-7.71641 -1.966678,-9.18813 -5.574025,-5.7992 C 73.389704,122.04307 71.893851,123 71.310549,123 68.280803,123 68.069351,100.22376 71.010685,90.700829 73.151896,83.768394 74.482028,79.921262 82.159472,72.46675 88.452133,66.35681 91.48339,65.743392 97,63.58426 c 2.475,-0.968684 7.14498,-3.525564 10.37772,-5.681947 5.28541,-3.525605 9.53403,-5.989977 14.99253,-6.878372 4.41868,-0.71916 7.34005,-1.430698 14.80939,-0.259854 2.26018,0.354291 5.22546,0.471301 9.897,-0.832074 2.06348,-0.575719 4.444,-1.027551 8.94469,-1.250369 4.42515,-0.219079 9.40286,0.387019 14.69573,0.314494 0,0 8.73669,-0.840944 12.78454,-0.771595 2.91772,0.04999 6.15006,0.674577 7.68886,1.070432 4.58333,1.179061 7.19401,3.353205 7.19401,3.353205 9.10393,6.220235 11.19597,7.29426 16.46126,18.710383 3.21622,6.973357 3.64361,9.136137 3.99501,17.884968 0,0 1.86442,8.029218 0.58877,9.738711 -0.61494,0.82408 -0.55851,1.095338 -2.65608,0.897188 -2.25369,-0.212896 -6.70214,-0.909888 -8.38148,-0.310631 -1.00851,0.359871 -3.10085,1.127771 -3.10085,7.724941 0,1.22903 -0.15122,3.49137 -0.56107,5.6014 -0.37586,1.93503 -0.80081,4.64418 -1.35321,6.43261 -1.78214,5.76988 -3.52686,7.00747 -8.86688,12.34749 -6.56484,6.56484 -8.69663,8.26794 -13.63477,8.19244 -3.46175,-0.0529 -4.45981,1.00742 -7.45032,5.68234 -5.02091,7.84895 -6.85885,8.44838 -14.01679,4.57147 -6.89271,-3.73325 -7.73088,-3.80394 -9.68796,-0.81707 -3.61457,5.51654 -12.023,13.69512 -14.07044,13.68581 -1.18231,-0.005 -4.59901,-1.14991 -7.59267,-2.54341 z M 142.5,74.86564 c 18.42631,-2.601531 25.70922,-4.510176 30.52723,-8.000326 C 177.55545,63.585086 177.78528,62.785281 175,60 c -2.07689,-2.076887 -3.9073,-2.278246 -18.5,-2.035131 -9.0778,0.151237 -30.19281,3.532554 -35.70106,5.717099 -9.81003,3.890612 -15.64694,8.924956 -13.14828,11.340412 1.85688,1.795043 8.1807,2.824149 14.34934,2.335138 3.575,-0.283403 12.8,-1.404749 20.5,-2.491878 z"
       id="path2313" />
  </g>
</svg>
