<?xml version="1.0" encoding="UTF-8" standalone="no"?>
<!-- Created with Inkscape (http://www.inkscape.org/) -->

<svg
   version="1.1"
   id="svg23833"
   width="300"
   height="300"
   viewBox="0 0 300 300"
   sodipodi:docname="hunter_cape.svg"
   inkscape:version="1.2.2 (732a01da63, 2022-12-09)"
   xmlns:inkscape="http://www.inkscape.org/namespaces/inkscape"
   xmlns:sodipodi="http://sodipodi.sourceforge.net/DTD/sodipodi-0.dtd"
   xmlns="http://www.w3.org/2000/svg"
   xmlns:svg="http://www.w3.org/2000/svg">
  <defs
     id="defs23837">
    <filter
       inkscape:collect="always"
       style="color-interpolation-filters:sRGB"
       id="filter26790"
       x="-0.0155952"
       y="-0.0155952"
       width="1.0311904"
       height="1.0311904">
      <feGaussianBlur
         inkscape:collect="always"
         stdDeviation="1.9494"
         id="feGaussianBlur26792" />
    </filter>
    <filter
       inkscape:collect="always"
       style="color-interpolation-filters:sRGB"
       id="filter26794"
       x="-0.057374266"
       y="-0.048801642"
       width="1.1147491"
       height="1.0975915">
      <feGaussianBlur
         inkscape:collect="always"
         stdDeviation="1.9494"
         id="feGaussianBlur26796" />
    </filter>
  </defs>
  <sodipodi:namedview
     id="namedview23835"
     pagecolor="#ffffff"
     bordercolor="#000000"
     borderopacity="0.25"
     inkscape:showpageshadow="2"
     inkscape:pageopacity="0.0"
     inkscape:pagecheckerboard="0"
     inkscape:deskcolor="#d1d1d1"
     showgrid="false"
     inkscape:zoom="1"
     inkscape:cx="-173.5"
     inkscape:cy="-122"
     inkscape:window-width="2560"
     inkscape:window-height="1369"
     inkscape:window-x="1912"
     inkscape:window-y="-8"
     inkscape:window-maximized="1"
     inkscape:current-layer="g23839" />
  <g
     inkscape:groupmode="layer"
     inkscape:label="Image"
     id="g23839">
    <rect
       style="display:none;fill:#d99c6d;fill-opacity:1;stroke:none;stroke-width:12.3;stroke-opacity:1;filter:url(#filter26790);stroke-dasharray:none"
       id="rect26683"
       width="300"
       height="300"
       x="0"
       y="0" />
    <path
       id="path25053"
       style="display:inline;fill:none;fill-opacity:1;stroke:#86523d;stroke-opacity:1;filter:url(#filter26794);stroke-width:12.3;stroke-dasharray:none"
       inkscape:label="stroke"
       d="M 147.56836 47 L 123.24805 47.027344 C 122.73211 47.027344 121.80445 47.429112 121.67188 47.664062 L 120.55469 49.894531 C 120.15358 50.696047 119.70672 51.871057 119.31641 53.121094 C 118.9261 54.371131 118.59233 55.696203 118.41602 56.798828 C 118.23671 57.920144 118.06175 58.884753 118.04883 59.693359 C 118.04225 60.097492 118.07565 60.463446 118.16992 60.789062 C 118.26427 61.114807 118.41965 61.401506 118.6543 61.648438 C 118.79996 61.801732 118.97175 61.940493 119.17188 62.066406 C 119.17233 62.066694 119.17337 62.066119 119.17383 62.066406 C 119.37362 62.19197 119.59969 62.30558 119.85352 62.40625 C 119.8541 62.406482 119.85489 62.406018 119.85547 62.40625 C 119.95859 62.447112 120.11846 62.464923 120.23047 62.501953 C 121.22365 62.830543 122.51292 63.032903 124.20117 63.121094 C 125.14063 63.170202 126.18723 63.190206 127.33984 63.191406 C 127.33984 63.191406 136.74981 63.317971 141.79883 63.658203 C 144.13765 63.840259 145.90775 63.877356 147.11523 64.015625 C 147.11568 64.015676 147.11675 64.015574 147.11719 64.015625 C 147.71975 64.084735 148.18205 64.179737 148.50391 64.330078 C 148.50434 64.330279 148.50543 64.329877 148.50586 64.330078 C 148.82712 64.480555 149.0091 64.68745 149.05078 64.980469 C 149.32429 66.90318 143.43558 66.792203 131.94141 67.546875 C 131.94141 67.546875 128.3431 67.494873 124.66016 67.621094 C 122.81868 67.684204 120.9563 67.79184 119.51172 67.972656 C 118.06704 68.153606 117.04036 68.407715 116.87109 68.763672 C 116.79469 68.92434 116.73575 69.227939 116.69141 69.636719 C 116.64691 70.045898 116.6164 70.559162 116.59766 71.140625 C 116.48541 74.621944 116.77734 80.5 116.77734 80.5 C 116.96163 88.483446 117.6428 96.844575 118.66992 104.69141 C 118.67 104.69204 118.66984 104.69273 118.66992 104.69336 C 120.03941 115.15503 122.02341 124.70103 124.26953 131.21289 C 124.26972 131.21343 124.26935 131.21431 124.26953 131.21484 C 124.83108 132.84292 125.40943 134.28042 125.99805 135.49609 C 126.26463 136.04667 126.59771 136.62167 126.9707 137.19141 C 126.97103 137.1919 126.97038 137.19287 126.9707 137.19336 C 127.71652 138.33237 128.62481 139.44599 129.48633 140.28125 C 129.91763 140.6995 130.33602 141.04805 130.71875 141.29492 C 131.19386 141.60138 131.77783 141.85641 132.46289 142.06055 C 132.46667 142.06167 132.46887 142.06333 132.47266 142.06445 C 132.47328 142.06464 132.47399 142.06427 132.47461 142.06445 C 133.16471 142.26898 133.95831 142.42159 134.85156 142.52344 C 135.7461 142.62551 136.7388 142.67599 137.82812 142.67578 C 138.91656 142.67559 140.1011 142.62503 141.375 142.52344 C 143.92235 142.32025 146.83149 141.91485 150.06641 141.31055 C 153.30207 140.70608 156.8653 139.90237 160.7168 138.90234 C 163.78741 138.10507 166.83187 137.22058 169.8457 136.25195 C 169.84629 136.25177 169.84707 136.25214 169.84766 136.25195 C 172.86207 135.2831 175.84514 134.229 178.79688 133.0918 C 181.74861 131.9546 184.66761 130.73411 187.55078 129.43164 C 190.43396 128.12917 193.28111 126.74591 196.08984 125.28125 C 198.89857 123.81659 201.67003 122.27027 204.39844 120.64648 C 207.12684 119.0227 209.81288 117.32084 212.45508 115.54102 C 215.09685 113.76148 217.69443 111.90315 220.24414 109.9707 C 220.24454 109.9704 220.24569 109.97101 220.24609 109.9707 C 222.79621 108.03792 225.29785 106.02994 227.75 103.94727 C 235.32033 97.517569 237.65393 95.415812 231.59766 88.511719 C 228.8448 85.373494 224.35767 81.243489 217.8418 75.263672 C 214.563 72.254619 211.88143 69.790189 209.56641 67.763672 C 208.40912 66.750463 207.34401 65.845724 206.3418 65.039062 C 204.33769 63.4263 202.58662 62.200625 200.85938 61.257812 C 200.85884 61.257522 200.85795 61.258103 200.85742 61.257812 C 199.13029 60.315205 197.42721 59.654374 195.51953 59.173828 C 195.51894 59.17368 195.51817 59.173976 195.51758 59.173828 C 194.56336 58.933535 193.55982 58.73792 192.47461 58.574219 C 190.61106 58.293107 189.13282 58.057621 187.88281 57.775391 C 187.88215 57.775242 187.88152 57.775539 187.88086 57.775391 C 185.38019 57.21062 183.7883 56.460181 181.82422 54.792969 C 180.84218 53.959363 179.76718 52.897341 178.43945 51.513672 C 178.43945 51.513672 177.21827 49.82148 175.42188 48.546875 C 175.06272 48.291904 174.68123 48.054327 174.28125 47.849609 C 173.48129 47.440173 172.61019 47.164131 171.70898 47.158203 L 147.56836 47 z M 105.11914 56.080078 C 104.40973 56.080078 103.54226 56.104786 102.625 56.25 C 102.16637 56.322607 101.69388 56.425549 101.22461 56.570312 C 100.7559 56.714989 100.28777 56.902046 99.835938 57.142578 C 96.960311 58.673423 93.356018 62.074573 86.453125 69.009766 C 84.152531 71.321125 81.485308 74.025742 78.357422 77.183594 C 74.171644 81.409473 70.7072 84.780846 67.931641 87.542969 C 66.543661 88.923802 65.328096 90.151057 64.279297 91.257812 C 63.230278 92.3651 62.349519 93.349907 61.630859 94.244141 C 60.844301 95.222863 60.292955 96.191606 59.904297 97.025391 C 59.515525 97.858959 59.289667 98.558005 59.15625 99 C 58.933312 99.738567 58.712527 100.7081 58.494141 101.7832 C 58.421984 102.13674 58.352602 102.52454 58.28125 102.91211 C 58.175489 103.48949 58.07412 104.14138 57.970703 104.79102 C 57.66373 106.7064 57.366737 108.84334 57.089844 111.32227 C 57.088673 111.33283 57.087107 111.34099 57.085938 111.35156 C 56.780876 114.08663 56.50669 117.16211 56.257812 120.45508 C 56.242761 120.65555 56.227697 120.86024 56.212891 121.0625 C 55.970325 124.3541 55.761875 127.84503 55.595703 131.54688 C 55.465261 134.45276 55.357558 137.43956 55.285156 140.52734 C 55.211688 143.66059 55.161906 146.84961 55.158203 150.10547 C 55.157301 150.89885 55.180645 151.38579 55.181641 152.14844 C 55.211193 174.78722 56.086569 184.32642 59.796875 189.20898 C 61.140902 190.97765 63.290561 191.90636 65.5 193.01953 C 68.725457 194.6446 74.403996 199.55664 81.5 206.86133 C 87.549994 213.08926 93.424336 219.06607 94.875 219.82227 C 97.634115 221.26051 118.10885 224.67476 123.36914 225.42578 L 125.22266 225.68945 C 125.22266 225.68945 122.9992 228.03991 121.8418 230.30859 L 119.73828 234.43359 L 123.48828 237.67773 C 127.1576 240.8496 127.22681 241.03455 126.61328 246.20898 C 125.73064 253.65299 125.62596 266.58534 126.4375 267.89844 C 127.28016 269.26189 127.37418 269.25802 133.5 267.64258 C 138.15403 266.41527 138.49127 266.11495 138.36914 263.31055 C 138.29697 261.65346 136.23435 255.56966 133.78516 249.79102 L 129.33203 239.28516 L 131.41602 235.58008 L 133.5 231.875 L 130.03711 228.9375 L 126.57617 226 L 129.22852 226 C 130.68777 226 132.14563 225.57165 132.46875 225.04883 C 132.90751 224.33889 130.22051 208.051 127.50977 194.11914 C 126.8113 190.52937 126.10406 186.94258 125.45703 184 C 125.22032 182.92347 124.93862 181.36361 124.66797 179.93945 C 124.03983 176.63417 123.4 172.99251 123.00781 170.17773 C 123.00093 170.12834 122.96044 169.88015 122.95312 169.82812 C 122.36359 165.63827 120.39703 153.18228 118.50586 141.67773 C 116.99339 132.47693 115.70597 124.30962 114.625 117.0293 C 113.54403 109.74898 112.66943 103.35474 111.98438 97.701172 C 110.61427 86.394042 110 78.046874 110 71.484375 C 110 67.166869 110.10936 64.044639 110.0293 61.789062 C 109.9893 60.662139 109.90197 59.751364 109.73047 59.015625 C 109.73031 59.014964 109.73062 59.014333 109.73047 59.013672 C 109.64459 58.645655 109.53707 58.322654 109.4043 58.037109 C 109.27151 57.751567 109.11281 57.504399 108.92383 57.291016 C 108.08189 56.340367 106.8648 56.080078 105.11914 56.080078 z M 235.84961 106.30664 C 235.80505 106.31467 235.74939 106.34585 235.70312 106.35742 C 235.62801 106.37626 235.54276 106.41121 235.46289 106.43945 C 235.2466 106.51597 235.00946 106.62866 234.75391 106.77539 C 234.65378 106.83293 234.55412 106.88656 234.44727 106.95508 C 234.08645 107.18652 233.69891 107.45915 233.25195 107.81836 C 229.41143 110.90486 224.75646 114.25451 219.63281 117.64062 C 214.50919 121.02641 208.9169 124.44803 203.20312 127.67578 C 198.69428 130.22285 195.2399 132.17923 192.58984 133.70898 C 188.61583 136.00293 186.44854 137.33934 185.24219 138.26953 C 184.83929 138.58025 184.54447 138.84485 184.32422 139.08594 C 184.10483 139.32608 183.96012 139.54191 183.85938 139.75391 C 183.75777 139.96706 183.70099 140.17443 183.65625 140.40039 C 183.58764 140.74689 183.55904 141.24022 183.5625 141.82422 C 183.56582 142.40829 183.60135 143.08238 183.6582 143.79102 C 183.77226 145.20865 183.97378 146.76189 184.19141 148 C 184.44856 149.46294 184.71941 151.58119 185.00586 153.61523 C 185.20402 155.02239 185.43672 156.37549 185.56836 157.5 C 185.64429 158.14865 185.92233 159.81072 186.05664 160.78711 C 186.49174 163.95019 187.01617 167.68062 187.64062 171.43555 C 187.64205 171.44412 187.6431 171.46211 187.64453 171.4707 C 188.46113 176.39302 189.5079 186.1248 189.97266 193.13281 C 190.43823 200.15307 191.11139 206.37101 191.46875 206.94922 C 192.75051 209.02316 197.49552 207.93222 203.94141 204.08398 C 212.38981 199.04024 215.66563 195.43021 221.28516 184.9668 C 224.93117 178.17799 226.6051 176.08238 229.46875 174.7168 C 231.44852 173.77271 234.32617 172.76172 234.32617 172.76172 C 234.32617 172.76172 235.91903 172.26053 237.34375 171.12305 C 237.84125 170.72586 238.31755 170.25144 238.69922 169.69336 C 239.54911 168.45063 240.19727 166.3966 240.44531 165.26172 C 240.83462 163.48052 241.52268 162.31175 242.6582 161.50586 C 244.36313 160.29585 244.03817 150.21234 243.26367 142.06641 C 243.26361 142.06571 243.26374 142.06515 243.26367 142.06445 C 243.08572 140.19307 242.89097 138.48203 242.68359 136.95312 C 242.65862 136.7649 242.63643 136.58332 242.61133 136.40234 C 242.40053 134.91382 242.18756 133.5972 241.99023 132.76367 C 241.94768 132.58393 241.86671 132.0631 241.81836 131.83594 C 241.36966 129.72801 240.74388 125.93348 240.13086 121.78125 C 239.94795 120.54233 239.75047 119.3547 239.58789 118.14648 C 239.39635 116.723 239.18304 115.33406 238.96094 114.04102 C 238.51674 111.45492 238.03794 109.25454 237.63477 107.94141 C 237.43318 107.28484 237.25013 106.84974 237.09961 106.69922 C 236.90138 106.50099 236.6874 106.37203 236.44531 106.31445 C 236.26375 106.27127 236.0662 106.26764 235.84961 106.30664 z M 212.56836 165.09961 C 214.24515 164.93064 215.52831 165.88722 216.11133 168 C 216.55323 169.60139 216.63842 172.05176 216.69922 174.07617 C 216.7961 177.30121 216.58576 180.0158 215.80078 180.80078 C 214.87591 181.72561 212.94746 181.76429 210.89453 181.66406 C 208.61555 181.55279 206.19097 181.19097 205 180 C 201.99799 176.99799 202.51833 173.53784 206.66211 168.95117 C 208.82045 166.56215 210.89156 165.26858 212.56836 165.09961 z M 67 208.01562 C 66.175001 208.02037 64.428429 209.67727 63.119141 211.69727 L 60.738281 215.37109 L 63.029297 217.22461 C 64.28908 218.24472 65.874272 219.39847 66.552734 219.78906 C 67.505542 220.33758 67.58285 223.57262 66.890625 234 C 66.397714 241.42499 66.224283 248.10963 66.505859 248.85547 C 66.820689 249.68934 67.881857 250.00455 69.259766 249.67383 C 70.492139 249.37805 73.223668 248.82341 75.330078 248.44141 C 79.627365 247.66209 80.794334 245.90811 79.162109 242.68164 C 78.554846 241.48124 76.963021 237.52444 75.625 233.88672 C 74.28698 230.249 72.46079 225.8565 71.566406 224.12695 C 69.999555 221.097 70.032811 220.84744 72.470703 217.25977 C 73.862291 215.21186 75 213.18432 75 212.75391 C 75 211.66326 68.824159 208.00513 67 208.01562 z M 94.703125 221 C 94.332462 221 92.799532 222.85824 91.296875 225.12891 L 88.564453 229.25781 L 92.0625 232.37891 L 95.5625 235.5 L 94.880859 244 C 94.506001 248.675 94.154199 255.0875 94.099609 258.25 C 93.987918 264.72075 93.867965 264.65054 102.01953 262.90234 C 107.18837 261.79382 109.01023 260.00488 107.28125 257.73633 C 106.7626 257.05583 105.30845 253.575 104.05078 250 C 102.79312 246.425 100.90492 241.58309 99.853516 239.24023 L 97.941406 234.98047 L 100.39453 231.37109 C 101.74338 229.3861 102.64947 227.253 102.4082 226.63086 C 101.94827 225.44487 95.865963 221 94.703125 221 z " />
    <path
       id="path28418"
       style="display:inline;fill:#c78563;fill-opacity:1"
       inkscape:label="tassels"
       d="M 67 208.01562 C 66.175002 208.02037 64.428427 209.67727 63.119141 211.69727 L 60.738281 215.37109 L 63.029297 217.22461 C 64.289079 218.24472 65.874273 219.39847 66.552734 219.78906 C 67.505541 220.33758 67.582849 223.57263 66.890625 234 C 66.397714 241.42498 66.224284 248.10963 66.505859 248.85547 C 66.820689 249.68934 67.881858 250.00455 69.259766 249.67383 C 70.492137 249.37805 73.22367 248.82341 75.330078 248.44141 C 79.627361 247.66209 80.794333 245.90811 79.162109 242.68164 C 78.554847 241.48124 76.96302 237.52444 75.625 233.88672 C 74.286981 230.249 72.460789 225.8565 71.566406 224.12695 C 69.999557 221.09701 70.032814 220.84743 72.470703 217.25977 C 73.86229 215.21186 75 213.18432 75 212.75391 C 75 211.66326 68.824157 208.00514 67 208.01562 z M 94.703125 221 C 94.332462 221 92.79953 222.85824 91.296875 225.12891 L 88.564453 229.25781 L 92.0625 232.37891 L 95.5625 235.5 L 94.880859 244 C 94.506002 248.675 94.154199 255.0875 94.099609 258.25 C 93.987918 264.72074 93.867974 264.65054 102.01953 262.90234 C 107.18837 261.79382 109.01023 260.00488 107.28125 257.73633 C 106.7626 257.05583 105.30845 253.575 104.05078 250 C 102.79312 246.425 100.90492 241.58309 99.853516 239.24023 L 97.941406 234.98047 L 100.39453 231.37109 C 101.74338 229.38611 102.64947 227.253 102.4082 226.63086 C 101.94827 225.44487 95.865962 221 94.703125 221 z M 125.14453 225.82031 C 125.10523 225.86191 122.98881 228.06027 121.8418 230.30859 L 119.73828 234.43359 L 123.48828 237.67773 C 127.1576 240.8496 127.22681 241.03457 126.61328 246.20898 C 125.73064 253.65299 125.62596 266.58534 126.4375 267.89844 C 127.28016 269.26189 127.3742 269.25802 133.5 267.64258 C 138.15403 266.41527 138.49127 266.11493 138.36914 263.31055 C 138.29694 261.65346 136.23433 255.56964 133.78516 249.79102 L 129.33203 239.28516 L 131.41602 235.58008 L 133.5 231.875 L 130.03711 228.9375 L 126.57617 226 L 125.14453 225.82031 z " />
    <path
       id="path28424"
       style="display:inline;fill:#d99c6d;fill-opacity:1"
       d="m 147.56836,47 -24.32031,0.02734 c -0.51594,0 -1.4436,0.401768 -1.57617,0.636718 l -1.11719,2.230469 c -0.80222,1.603034 -1.78604,4.699044 -2.13867,6.904297 -0.35861,2.242634 -0.7003,3.861883 0.23828,4.84961 1.16533,1.226355 4.0751,1.538168 8.68554,1.542968 0,0 9.40997,0.126565 14.45899,0.466797 4.67763,0.364113 7.08493,0.14819 7.25195,1.322266 0.27351,1.922711 -5.6152,1.811734 -17.10937,2.566406 0,0 -14.39326,-0.20703 -15.07032,1.216797 -0.61122,1.285343 -0.0937,11.736328 -0.0937,11.736328 0.49142,21.289194 4.5118,45.270684 9.22071,54.996094 1.06633,2.20231 3.19091,4.81208 4.7207,5.79883 3.82402,2.46659 14.59207,1.60751 29.99805,-2.39258 24.56975,-6.37942 47.41602,-18.29366 67.0332,-34.95507 11.01139,-9.352294 10.94261,-9.548187 -9.9082,-28.683602 -13.11288,-12.034085 -16.68548,-15.37984 -25.36719,-16.689453 -7.45728,-1.12491 -8.72423,-1.525871 -14.03516,-7.060547 0,0 -3.12564,-4.331759 -6.73047,-4.355469 z m -42.44922,9.080078 c -1.41883,0 -3.47371,0.09922 -5.283202,1.0625 -3.834015,2.041045 -8.965464,7.408083 -21.478516,20.041016 C 69.985866,85.635352 64.504729,90.668162 61.630859,94.244141 60.05774,96.201587 59.423084,98.116011 59.15625,99 c -2.017364,6.68329 -3.971467,27.73443 -3.998047,51.10547 -0.02768,24.34456 0.803374,34.05647 4.638672,39.10351 1.344027,1.76867 3.493686,2.69738 5.703125,3.81055 3.225457,1.62507 8.903996,6.53711 16,13.8418 6.049994,6.22793 11.924336,12.20474 13.375,12.96094 2.759115,1.43824 23.23385,4.85249 28.49414,5.60351 0,0 3.8969,0.57422 5.85938,0.57422 1.45925,0 2.91711,-0.42835 3.24023,-0.95117 0.55182,-0.89286 -3.85357,-26.68611 -7.01172,-41.04883 -0.78609,-3.575 -1.88805,-9.79468 -2.44922,-13.82227 -0.56117,-4.02759 -2.5873,-16.85261 -4.50195,-28.5 C 112.45598,104.87452 110,84.609373 110,71.484375 c 0,-8.63502 0.43569,-12.486289 -1.07617,-14.193359 -0.84194,-0.950649 -2.05903,-1.210938 -3.80469,-1.210938 z M 236.06055,106.2832 c -0.67955,0.0375 -1.56243,0.53365 -2.8086,1.53516 -7.68103,6.17299 -18.62128,13.40193 -30.04883,19.85742 -18.03536,10.18829 -19.1901,10.92291 -19.54687,12.72461 -0.27445,1.38601 0.10012,5.12461 0.53516,7.59961 0.43505,2.475 1.05503,6.75 1.37695,9.5 0.32192,2.75 1.25506,9.02153 2.07226,13.93555 0.81722,4.91401 1.86647,14.67702 2.33204,21.69726 0.46557,7.02026 1.13873,13.2382 1.49609,13.81641 1.28176,2.07394 6.02677,0.983 12.47266,-2.86524 8.44839,-5.04373 11.72422,-8.65378 17.34375,-19.11718 3.646,-6.78881 5.31994,-8.88442 8.18359,-10.25 1.97977,-0.94409 4.85742,-1.95508 4.85742,-1.95508 0,0 1.59286,-0.50119 3.01758,-1.63867 0.4975,-0.39719 0.9738,-0.87161 1.35547,-1.42969 0.84989,-1.24273 1.49805,-3.29676 1.74609,-4.43164 0.38931,-1.7812 1.07737,-2.94997 2.21289,-3.75586 2.53911,-1.80204 0.59635,-23.40169 -0.66797,-28.74219 -0.55526,-2.34539 -1.63616,-8.92326 -2.40234,-14.61719 -0.76617,-5.69391 -1.88621,-10.84519 -2.48828,-11.44726 -0.29734,-0.29734 -0.63133,-0.43853 -1.03906,-0.41602 z m -23.1836,58.79883 c 1.52472,-0.0264 2.6878,0.93724 3.23438,2.91797 0.4419,1.60139 0.52709,4.05176 0.58789,6.07617 0.0969,3.22504 -0.11346,5.93963 -0.89844,6.72461 -0.92487,0.92483 -2.85332,0.96351 -4.90625,0.86328 C 208.61555,181.55279 206.19097,181.19097 205,180 c -3.00201,-3.00201 -2.48167,-6.46216 1.66211,-11.04883 2.29323,-2.53833 4.48683,-3.83921 6.21484,-3.86914 z"
       inkscape:label="cape"
       sodipodi:nodetypes="ccccssccscscsssssscccssssssssssccssssssssssssssssssscssssssssssssssss" />
    <path
       id="path26628"
       style="fill:#ffe696;fill-opacity:1;stroke-width:12.3"
       inkscape:label="main"
       d="M 147.56836 47 L 123.24805 47.027344 C 122.73211 47.027344 121.80445 47.429112 121.67188 47.664062 L 120.55469 49.894531 C 119.75247 51.497565 118.76865 54.593575 118.41602 56.798828 C 118.05741 59.041462 117.71572 60.660711 118.6543 61.648438 C 119.81963 62.874793 122.7294 63.186606 127.33984 63.191406 C 127.33984 63.191406 136.74981 63.317971 141.79883 63.658203 C 146.47646 64.022316 148.88376 63.806393 149.05078 64.980469 C 149.32429 66.90318 143.43558 66.792203 131.94141 67.546875 C 131.94141 67.546875 117.54815 67.339845 116.87109 68.763672 C 116.25987 70.049015 116.77734 80.5 116.77734 80.5 C 117.26876 101.78919 121.28914 125.77068 125.99805 135.49609 C 127.06438 137.6984 129.18896 140.30817 130.71875 141.29492 C 134.54277 143.76151 145.31082 142.90243 160.7168 138.90234 C 185.28655 132.52292 208.13282 120.60868 227.75 103.94727 C 238.76139 94.59498 238.69261 94.399087 217.8418 75.263672 C 204.72892 63.229587 201.15632 59.883832 192.47461 58.574219 C 185.01733 57.449309 183.75038 57.048348 178.43945 51.513672 C 178.43945 51.513672 175.31381 47.181913 171.70898 47.158203 L 147.56836 47 z M 105.11914 56.080078 C 103.70031 56.080078 101.64543 56.179294 99.835938 57.142578 C 96.001923 59.183623 90.870474 64.550661 78.357422 77.183594 C 69.985866 85.635352 64.504729 90.668162 61.630859 94.244141 C 60.05774 96.201587 59.423084 98.116011 59.15625 99 C 57.696893 103.83468 56.283016 116.23542 55.595703 131.54688 C 58.426644 134.98305 66.179532 142.67419 85.478516 153.29297 C 103.32481 163.11244 117.29997 168.03328 122.95312 169.82812 C 122.36359 165.63827 120.39703 153.18228 118.50586 141.67773 C 112.45598 104.87452 110 84.609373 110 71.484375 C 110 62.849355 110.43569 58.998086 108.92383 57.291016 C 108.08189 56.340367 106.8648 56.080078 105.11914 56.080078 z M 236.44531 106.31445 C 235.71904 106.14171 234.74735 106.61655 233.25195 107.81836 C 225.57091 113.99136 214.63068 121.22028 203.20312 127.67578 C 185.16774 137.86408 184.01302 138.59869 183.65625 140.40039 C 183.3818 141.7864 183.75637 145.525 184.19141 148 C 184.44856 149.46294 184.71941 151.58118 185.00586 153.61523 C 187.15156 152.44605 205.00592 142.71218 214.63867 137.12695 C 222.46122 132.59132 233.32253 125.95603 240.13086 121.78125 C 239.94795 120.54233 239.75047 119.3547 239.58789 118.14648 C 238.82172 112.45256 237.70168 107.30129 237.09961 106.69922 C 236.90138 106.50099 236.6874 106.37203 236.44531 106.31445 z M 241.81836 131.83594 C 238.09897 133.88431 223.50637 141.91286 214.67188 146.50195 C 205.5907 151.2192 190.76013 158.48601 186.05664 160.78711 C 186.49174 163.95019 187.01617 167.68062 187.64062 171.43555 C 187.64205 171.44412 187.6431 171.46211 187.64453 171.4707 C 190.52806 170.27361 194.74935 168.47624 200.4375 165.77539 C 205.65022 163.30029 211.55856 160.02782 216.63086 157.40625 C 225.27869 152.93669 236.80309 145.995 243.26367 142.06641 C 242.88473 138.08077 242.40561 134.51821 241.99023 132.76367 C 241.94768 132.58393 241.86671 132.0631 241.81836 131.83594 z M 55.285156 140.52734 C 55.211688 143.66059 55.161906 146.84961 55.158203 150.10547 C 55.157301 150.89885 55.180645 151.38579 55.181641 152.14844 C 58.048244 155.12891 61.66123 158.76146 64.595703 161.04102 C 75.139876 169.23192 86.037544 175.75531 98.777344 181.92383 C 98.777344 181.92383 113.2452 188.85873 118.61719 190.83984 L 127.50977 194.11914 C 126.8113 190.52937 126.10406 186.94258 125.45703 184 C 125.22032 182.92347 124.93862 181.36361 124.66797 179.93945 C 122.45963 179.4935 119.23773 178.74191 114.33984 177.10547 C 106.99701 174.65212 97.153278 170.49477 87.875 164.44531 C 75.176417 156.16583 60.804959 144.91752 55.285156 140.52734 z " />
  </g>
</svg>
