<?xml version="1.0" encoding="UTF-8" standalone="no"?>
<!-- Created with Inkscape (http://www.inkscape.org/) -->

<svg
   version="1.1"
   id="svg2"
   width="300"
   height="300"
   viewBox="0 0 300 300"
   sodipodi:docname="ult_cape.svg"
   inkscape:version="1.2.2 (732a01da63, 2022-12-09)"
   inkscape:export-filename="ult_cape.png"
   inkscape:export-xdpi="96"
   inkscape:export-ydpi="96"
   xmlns:inkscape="http://www.inkscape.org/namespaces/inkscape"
   xmlns:sodipodi="http://sodipodi.sourceforge.net/DTD/sodipodi-0.dtd"
   xmlns:xlink="http://www.w3.org/1999/xlink"
   xmlns="http://www.w3.org/2000/svg"
   xmlns:svg="http://www.w3.org/2000/svg">
  <defs
     id="defs6">
    <linearGradient
       inkscape:collect="always"
       id="linearGradient17503">
      <stop
         style="stop-color:#fadd79;stop-opacity:1;"
         offset="0"
         id="stop17499" />
      <stop
         style="stop-color:#da9a5c;stop-opacity:1;"
         offset="1"
         id="stop17501" />
    </linearGradient>
    <linearGradient
       inkscape:collect="always"
       xlink:href="#linearGradient17503"
       id="linearGradient17505"
       x1="147.06224"
       y1="161.38245"
       x2="147.06224"
       y2="107.10572"
       gradientUnits="userSpaceOnUse" />
    <filter
       inkscape:collect="always"
       style="color-interpolation-filters:sRGB"
       id="filter19811"
       x="-0.0155952"
       y="-0.0155952"
       width="1.0311904"
       height="1.0311904">
      <feGaussianBlur
         inkscape:collect="always"
         stdDeviation="1.9494"
         id="feGaussianBlur19813" />
    </filter>
    <filter
       inkscape:collect="always"
       style="color-interpolation-filters:sRGB"
       id="filter19815"
       x="-0.046285735"
       y="-0.044327308"
       width="1.0926126"
       height="1.088667">
      <feGaussianBlur
         inkscape:collect="always"
         stdDeviation="1.9494"
         id="feGaussianBlur19817" />
    </filter>
  </defs>
  <sodipodi:namedview
     id="namedview4"
     pagecolor="#ffffff"
     bordercolor="#000000"
     borderopacity="0.25"
     inkscape:showpageshadow="2"
     inkscape:pageopacity="0.0"
     inkscape:pagecheckerboard="0"
     inkscape:deskcolor="#d1d1d1"
     showgrid="false"
     inkscape:zoom="2.3617366"
     inkscape:cx="-42.553432"
     inkscape:cy="109.24165"
     inkscape:window-width="2560"
     inkscape:window-height="1369"
     inkscape:window-x="1912"
     inkscape:window-y="-8"
     inkscape:window-maximized="1"
     inkscape:current-layer="g8" />
  <g
     inkscape:groupmode="layer"
     inkscape:label="Image"
     id="g8">
    <rect
       style="display:none;fill:#753f4b;fill-opacity:1;stroke:none;stroke-width:268.434;stroke-dasharray:none;stroke-opacity:1;filter:url(#filter19811)"
       id="rect19756"
       width="300"
       height="300"
       x="0"
       y="0" />
    <path
       id="path13825"
       style="display:inline;fill:none;fill-opacity:1;stroke-width:12.3;stroke-dasharray:none;stroke:#743b27;stroke-opacity:1;filter:url(#filter19815)"
       inkscape:label="stroke"
       d="M 148.49023 31.402344 C 145.66043 31.387998 142.97494 31.569555 140.5 31.962891 C 100.36572 38.341331 78.442211 58.516259 70.496094 96.380859 C 68.244599 107.10962 68.60259 108.05903 79.146484 119.43164 C 89.568695 130.67299 100.21915 139.47157 108.30664 143.51758 C 112.13543 145.43305 115.63253 147 116.07617 147 C 118.42155 147 117.56633 144.5459 113.4707 139.51758 C 106.2988 130.71242 94.583755 113.18295 90.736328 105.5 C 86.338877 96.718703 82.890358 85.684216 83.183594 81.330078 C 83.306949 79.498439 83.661008 78 83.96875 78 C 84.276493 78 85.596731 80.250003 86.902344 83 C 88.207956 85.749997 89.931664 88 90.734375 88 C 91.537086 88 94.234507 85.730968 96.728516 82.957031 C 109.3383 68.931913 130.80091 59 148.5 59 C 166.00534 59 186.2185 68.300597 200.46289 82.910156 C 203.19221 85.709447 205.97654 88 206.65039 88 C 207.32423 88 209.14067 85.664634 210.6875 82.810547 L 213.5 77.621094 L 213.80859 81.849609 C 214.61226 92.832923 204.21945 113.54523 186.3125 136.64453 C 177.53217 147.97083 177.79005 149.02509 188.11133 144.02539 C 198.95736 138.77151 213.92052 125.84021 223.82812 113.16016 C 228.39693 107.31286 228.8709 104.67091 226.86133 96.263672 C 221.68827 74.621674 217.53712 66.362283 206.11914 54.994141 C 199.28509 48.189919 195.57743 45.424429 188.21094 41.638672 C 175.74187 35.230631 160.75274 31.46451 148.49023 31.402344 z M 171.64062 92.044922 C 169.90527 92.060844 169.46846 92.944756 167.98047 96.308594 C 162.57258 108.534 163.36594 136.17959 169.3125 142.75 C 170.4325 143.9875 171.70368 145 172.13867 145 C 172.71741 145 173.75388 144.32281 175.04102 143.22266 C 175.4136 142.90413 175.8328 142.50077 176.24609 142.11133 C 176.63441 141.74568 177.02827 141.36529 177.44531 140.94531 C 177.80483 140.58304 178.15707 140.22346 178.5332 139.82617 C 179.02248 139.30992 179.52247 138.761 180.03125 138.19531 C 180.36335 137.82577 180.68256 137.48435 181.01953 137.09766 C 181.84171 136.15505 182.67066 135.16752 183.49414 134.1543 C 183.74938 133.84001 183.99127 133.5233 184.24414 133.20508 C 184.85747 132.43389 185.45725 131.66389 186.04492 130.88281 C 186.33498 130.49711 186.60987 130.12288 186.89062 129.73828 C 187.45127 128.97075 187.97861 128.21846 188.49023 127.46875 C 188.71766 127.13543 188.94863 126.80565 189.16406 126.47852 C 189.8567 125.42709 190.50256 124.40266 191.04102 123.44922 C 191.98207 121.78288 192.81603 120.28674 193.57031 118.9082 C 194.09553 117.951 194.52927 117.12328 194.97266 116.28711 C 195.13546 115.9787 195.32477 115.63245 195.47656 115.33984 C 195.98716 114.36024 196.42299 113.48021 196.81641 112.66211 C 196.85511 112.58118 196.89794 112.49353 196.93555 112.41406 C 199.63457 106.7408 199.5729 104.72013 197.7168 103.17969 C 194.62752 100.61582 177.43475 92.734344 173.89648 92.259766 C 172.94204 92.131745 172.21908 92.039614 171.64062 92.044922 z M 124.91797 92.244141 C 121.38868 92.288531 114.63247 94.888474 107.07812 99.232422 C 98.674788 104.06458 96.888749 106.09602 98.710938 108.75 C 98.952071 109.10121 99.414743 109.95354 99.855469 110.75977 C 100.14439 111.28829 100.46093 111.89173 100.77539 112.49414 C 101.30417 113.52192 101.84964 114.58473 102.36328 115.66797 C 105.88367 123.09234 112.53512 132.61112 118.8418 139.25 C 119.53201 139.97658 120.21848 140.66269 120.87891 141.29492 C 123.11691 143.44894 125.06713 145 125.62891 145 C 127.52901 145 129.59148 141.37785 131.52148 134.65039 C 134.99571 122.54032 132.00525 95.830245 126.81641 92.630859 C 126.37538 92.358933 125.73242 92.233897 124.91797 92.244141 z M 218.23828 127.66406 L 212.86914 132.36328 C 209.91607 134.94779 203.70912 139.6462 199.07617 142.80273 C 197.83368 143.64928 196.66096 144.48109 195.57422 145.27344 C 195.50418 145.32465 195.45191 145.3672 195.38281 145.41797 C 194.3494 146.17492 193.44715 146.8604 192.67383 147.47656 L 192.67188 147.47852 C 191.30843 148.565 190.36428 149.40913 190.26758 149.69922 C 190.0548 150.33756 191.14178 151.04439 192.69141 151.27734 C 197.34423 151.97679 219.31792 151.85101 222 151.10938 C 223.57996 150.67248 224.62167 149.56761 224.83203 148.10742 C 225.31949 144.72374 222.19163 132.88711 220.06836 130.08203 L 218.23828 127.66406 z M 78.988281 128.26758 C 78.842122 128.26264 78.711909 128.28113 78.599609 128.32422 C 77.079714 128.90747 73.468279 139.21473 72.363281 146.125 C 71.819724 149.52424 72.025806 150.08166 74.125 150.92188 C 76.802195 151.99342 98.504127 152.30716 104.25 151.35742 C 106.3125 151.01651 108 150.3703 108 149.91992 C 108 149.70597 106.90352 148.76624 105.20117 147.46094 C 105.19896 147.45924 105.19558 147.45678 105.19336 147.45508 C 103.31262 146.01341 100.68244 144.11892 97.71875 142.10156 C 92.063825 138.25232 85.78305 133.44907 83.761719 131.42773 C 81.818281 129.48431 80.011394 128.30212 78.988281 128.26758 z M 125.06641 149 C 121.38682 149 116.3817 151.6547 114.14844 154.79102 C 111.59231 158.38075 111.25017 165.64714 113.5 168.55859 C 114.98262 170.47719 115.01826 170.47682 116.55859 168.5 C 117.42854 167.38354 117.91142 165.40313 117.65234 164.01758 C 117.10695 161.10074 119.23701 156.50672 121.54492 155.62109 C 126.68704 153.6479 132.20197 157.71824 131.86328 163.23633 C 131.75312 165.03111 131.99394 167.5125 132.39844 168.75 C 133.39364 171.79459 134.64954 171.5781 136.47461 168.04883 C 138.51728 164.09875 138.39705 160.69671 136.05078 156.09766 C 134.05369 152.18305 129.1268 149 125.06641 149 z M 176.06641 149 C 172.14299 149 167.06279 151.84775 165.02539 155.18945 C 162.63396 159.11188 162.3711 165.80363 164.5 168.55859 C 165.98484 170.4801 166.01516 170.4801 167.5 168.55859 C 168.325 167.49097 169 164.90347 169 162.80859 C 169 155.81163 174.94681 152.81012 180.36523 157.07227 C 182.35138 158.63455 183.00337 160.05024 183.01367 162.82227 C 183.02118 164.84483 183.29922 167.5125 183.63086 168.75 C 183.96249 169.9875 184.62007 171 185.0918 171 C 186.53948 171 189 165.28153 189 161.91797 C 189 155.64718 182.34475 149 176.06641 149 z M 174.88086 165.04883 C 173.94515 165.09876 173.03253 165.33254 172.36133 165.76562 C 171.18048 166.52758 169.12981 179.89291 164.03906 220 C 162.39851 232.92497 160.76136 245.6134 160.40039 248.19531 C 160.03942 250.77725 160.01743 253.60194 160.35156 254.47266 C 160.61038 255.14714 161.26499 255.53104 163.34375 255.71875 C 163.39127 255.72304 163.46659 255.72443 163.51562 255.72852 C 164.56418 255.81581 165.93988 255.86018 167.80469 255.86523 C 167.81636 255.86526 167.8379 255.86521 167.84961 255.86523 C 169.77143 255.86991 172.17898 255.83667 175.22852 255.77734 L 189.5 255.5 L 189.22266 247 C 188.94198 238.4169 188.17365 231.43096 183.62109 196 C 180.30543 170.19515 179.89899 167.71913 178.74023 166.25 C 178.06331 165.39174 176.44037 164.9656 174.88086 165.04883 z M 124.41211 165.05078 C 123.07778 165.11245 121.7243 165.62583 120.94531 166.56445 C 120.20686 167.45422 118.44863 177.487 116.86914 189.81445 C 110.69147 238.02982 108.92773 253.37167 109.41992 254.6543 C 110.21207 256.71858 137.83406 256.59671 138.62891 254.52539 C 139.23553 252.94456 135.13711 214.21983 132.01172 192 C 130.96734 184.57503 129.81293 176.025 129.44531 173 C 129.07769 169.975 128.32138 166.9375 127.76562 166.25 C 127.06227 165.37989 125.74644 164.98911 124.41211 165.05078 z M 187.08594 176.99609 C 186.74295 177.04414 186.41379 177.25155 186.09375 177.61719 C 183.90874 180.11351 192.82696 231.78917 198.5 249.5 C 204.21205 267.3326 207.61346 270.78247 222.73047 274.07031 C 228.20251 275.26046 234.1638 275.85286 238.58594 275.64844 C 244.59722 275.37056 246.3658 274.84356 250.24609 272.17383 C 255.50826 268.55336 261.37186 262.06823 263.96484 257 C 266.48241 252.0792 267.37619 247.35096 265.95508 246.47266 C 264.10103 245.3268 235.62521 239.27947 234.29883 239.75 C 232.41559 240.41809 230.76831 246.67117 231.54492 250.20703 C 231.98235 252.19864 234.46912 255.62928 238.125 259.28516 C 241.35662 262.51675 244 265.57408 244 266.08008 C 244 269.25501 236.16298 264.07574 229.86719 256.74023 C 216.77012 241.48032 203.10091 215.50553 192.45898 185.6543 C 190.29711 179.59006 188.57222 176.78789 187.08594 176.99609 z M 112.08789 177 C 110.6349 177 109.51647 178.73948 107.42188 184.25 C 96.419611 213.19493 89.672529 227.26552 79.158203 243.20117 C 69.034629 258.54461 57.610637 269.41553 55.388672 265.82031 C 55.051554 265.27484 57.249216 262.47072 60.271484 259.58984 C 67.588021 252.61562 69.468591 248.95166 68.005859 244.51953 C 66.133817 238.8472 65.494191 238.72408 52.388672 241.53516 C 45.849959 242.93765 39.149994 244.35465 37.5 244.68359 C 32.724445 245.63565 32.050584 246.58758 33.179688 250.79492 C 35.281116 258.62543 44.083442 269.46092 51.5 273.34766 C 59.504358 277.5424 86.252939 273.52478 92.28125 267.22266 C 99.536909 259.6374 106.84371 232.3292 112.54102 191.5 C 114.42721 177.9826 114.39629 177 112.08789 177 z " />
    <path
       id="path19691"
       style="display:inline;fill:#fadd79;fill-opacity:1"
       d="M 125.06641 149 C 121.38682 149 116.3817 151.6547 114.14844 154.79102 C 111.59231 158.38076 111.25017 165.64713 113.5 168.55859 C 114.98262 170.47719 115.01825 170.47682 116.55859 168.5 C 117.42854 167.38354 117.91142 165.40313 117.65234 164.01758 C 117.10695 161.10074 119.23701 156.50672 121.54492 155.62109 C 126.68704 153.64789 132.20197 157.71824 131.86328 163.23633 C 131.75312 165.03111 131.99394 167.5125 132.39844 168.75 C 133.39364 171.79459 134.64954 171.57811 136.47461 168.04883 C 138.51728 164.09875 138.39705 160.69672 136.05078 156.09766 C 134.05369 152.18305 129.12681 149 125.06641 149 z M 176.06641 149 C 172.14299 149 167.06279 151.84774 165.02539 155.18945 C 162.63396 159.11188 162.3711 165.80362 164.5 168.55859 C 165.98484 170.4801 166.01516 170.4801 167.5 168.55859 C 168.325 167.49097 169 164.90347 169 162.80859 C 169 155.81162 174.9468 152.81012 180.36523 157.07227 C 182.35138 158.63456 183.00337 160.05024 183.01367 162.82227 C 183.02118 164.84484 183.29922 167.5125 183.63086 168.75 C 183.96249 169.9875 184.62007 171 185.0918 171 C 186.53948 171 189 165.28153 189 161.91797 C 189 155.64717 182.34476 149 176.06641 149 z "
       inkscape:label="ring" />
    <path
       id="path19693"
       style="display:inline;fill:#fadd79;fill-opacity:1"
       inkscape:label="bottom"
       d="M 174.88086 165.04883 C 173.94515 165.09876 173.03253 165.33253 172.36133 165.76562 C 171.18048 166.52758 169.12981 179.89287 164.03906 220 C 162.39851 232.92498 160.76136 245.61339 160.40039 248.19531 C 160.03942 250.77725 160.01743 253.60194 160.35156 254.47266 C 160.8736 255.8331 162.9654 256.01588 175.22852 255.77734 L 189.5 255.5 L 189.22266 247 C 188.94198 238.41689 188.17365 231.431 183.62109 196 C 180.30542 170.19512 179.89899 167.71913 178.74023 166.25 C 178.0633 165.39174 176.44037 164.9656 174.88086 165.04883 z M 124.41211 165.05078 C 123.07778 165.11245 121.7243 165.62583 120.94531 166.56445 C 120.20686 167.45422 118.44863 177.48698 116.86914 189.81445 C 110.69146 238.02987 108.92773 253.37167 109.41992 254.6543 C 110.21207 256.71859 137.83406 256.59671 138.62891 254.52539 C 139.23553 252.94456 135.13711 214.21985 132.01172 192 C 130.96734 184.57502 129.81293 176.025 129.44531 173 C 129.07769 169.975 128.32138 166.9375 127.76562 166.25 C 127.06226 165.37989 125.74644 164.98911 124.41211 165.05078 z M 187.08594 176.99609 C 186.74295 177.04414 186.41379 177.25155 186.09375 177.61719 C 183.90874 180.11351 192.82695 231.78915 198.5 249.5 C 204.21206 267.33262 207.61345 270.78246 222.73047 274.07031 C 228.20252 275.26046 234.1638 275.85286 238.58594 275.64844 C 244.59723 275.37056 246.36579 274.84356 250.24609 272.17383 C 255.50826 268.55336 261.37185 262.06824 263.96484 257 C 266.48241 252.0792 267.37619 247.35096 265.95508 246.47266 C 264.10103 245.3268 235.62521 239.27947 234.29883 239.75 C 232.41559 240.41809 230.76831 246.67117 231.54492 250.20703 C 231.98235 252.19864 234.46912 255.62928 238.125 259.28516 C 241.35662 262.51676 244 265.57408 244 266.08008 C 244 269.25502 236.16299 264.07574 229.86719 256.74023 C 216.77011 241.4803 203.10092 215.50556 192.45898 185.6543 C 190.2971 179.59006 188.57222 176.78789 187.08594 176.99609 z M 112.08789 177 C 110.6349 177 109.51648 178.73947 107.42188 184.25 C 96.419605 213.19496 89.672539 227.2655 79.158203 243.20117 C 69.034619 258.54462 57.610639 269.41553 55.388672 265.82031 C 55.051554 265.27484 57.249213 262.47072 60.271484 259.58984 C 67.588028 252.61561 69.468592 248.95166 68.005859 244.51953 C 66.133815 238.84719 65.494204 238.72408 52.388672 241.53516 C 45.849953 242.93766 39.149996 244.35465 37.5 244.68359 C 32.72444 245.63565 32.050583 246.58757 33.179688 250.79492 C 35.281119 258.62544 44.083435 269.46092 51.5 273.34766 C 59.504366 277.54241 86.252933 273.52479 92.28125 267.22266 C 99.536916 259.6374 106.84371 232.32924 112.54102 191.5 C 114.42722 177.98259 114.39629 177 112.08789 177 z " />
    <path
       id="path19695"
       style="display:inline;fill:#dd9d5f;fill-opacity:1"
       inkscape:label="accent"
       d="M 124.03516 225.64258 C 123.14466 225.63258 119.01984 229.39224 118.99414 230.03516 C 118.96844 230.67807 123.36584 234.72742 124.06055 234.73242 C 124.75527 234.73742 128.65969 231.8678 128.74609 231.01367 C 128.83249 230.15954 124.92566 225.65258 124.03516 225.64258 z M 175.00977 225.6875 C 174.11925 225.6795 169.8091 229.35875 169.73047 230.3457 C 169.67937 230.98709 173.62591 235.02139 174.32031 235.04297 C 175.33259 235.07447 179.39602 231.70179 179.48242 230.84766 C 179.56882 229.99353 176.1649 225.6975 175.00977 225.6875 z M 123.9082 243.69336 C 121.00392 243.94261 118.03369 248.11351 112.67188 255.58008 C 118.42221 256.35551 130.3275 256.28485 135.76758 255.42188 C 129.9532 247.24629 126.90202 243.43643 123.9082 243.69336 z M 175.06836 243.79688 C 171.93086 243.67806 168.97128 248.05839 163.3418 255.71875 C 165.45624 255.90987 169.04529 255.89762 175.22852 255.77734 L 186.34375 255.56055 C 180.93401 247.5997 177.88896 243.90368 175.06836 243.79688 z " />
    <path
       id="path19697"
       style="display:inline;fill:#fadd79;fill-opacity:1"
       d="M 171.64062 92.044922 C 169.90526 92.060844 169.46846 92.944753 167.98047 96.308594 C 162.57258 108.53401 163.36593 136.17958 169.3125 142.75 C 170.4325 143.9875 171.70368 145 172.13867 145 C 174.74937 145 186.32001 131.80872 191.04102 123.44922 C 199.43468 108.5865 200.46373 105.45946 197.7168 103.17969 C 194.62752 100.61582 177.43475 92.734345 173.89648 92.259766 C 172.94203 92.131745 172.21908 92.039614 171.64062 92.044922 z M 124.91797 92.244141 C 121.38868 92.288531 114.63247 94.88847 107.07812 99.232422 C 98.674775 104.06458 96.888748 106.09602 98.710938 108.75 C 99.371777 109.7125 101.01541 112.82537 102.36328 115.66797 C 105.88367 123.09235 112.53512 132.61111 118.8418 139.25 C 121.84602 142.4125 124.90031 145 125.62891 145 C 127.52902 145 129.59147 141.37786 131.52148 134.65039 C 134.99571 122.54031 132.00526 95.830248 126.81641 92.630859 C 126.37538 92.358932 125.73242 92.233897 124.91797 92.244141 z M 218.23828 127.66406 L 212.86914 132.36328 C 209.91607 134.94779 203.70912 139.64619 199.07617 142.80273 C 194.44324 145.95928 190.47974 149.06275 190.26758 149.69922 C 190.0548 150.33756 191.14178 151.04439 192.69141 151.27734 C 197.34424 151.97679 219.31792 151.85102 222 151.10938 C 223.57996 150.67248 224.62167 149.56761 224.83203 148.10742 C 225.31949 144.72373 222.19163 132.88711 220.06836 130.08203 L 218.23828 127.66406 z M 78.988281 128.26758 C 78.842122 128.26264 78.711909 128.28113 78.599609 128.32422 C 77.079712 128.90747 73.46828 139.21472 72.363281 146.125 C 71.819723 149.52424 72.025804 150.08166 74.125 150.92188 C 76.802198 151.99343 98.504121 152.30716 104.25 151.35742 C 106.3125 151.01651 108 150.3703 108 149.91992 C 108 149.46954 103.37368 145.95082 97.71875 142.10156 C 92.063819 138.25231 85.783052 133.44907 83.761719 131.42773 C 81.818279 129.4843 80.011395 128.30212 78.988281 128.26758 z "
       inkscape:label="back" />
    <path
       id="path19699"
       style="fill:url(#linearGradient17505);fill-opacity:1;stroke:none;stroke-width:12.3"
       inkscape:label="lr"
       d="M 122.99414 98.966797 C 120.5375 98.831242 114.48047 102.125 114.48047 102.125 C 108.92483 104.92739 104.07433 107.76788 99.855469 110.75977 C 100.62257 112.16304 101.50724 113.86261 102.36328 115.66797 C 105.88367 123.09234 112.53512 132.61112 118.8418 139.25 C 120.21625 140.69687 121.57624 141.98657 122.74414 143 C 123.22706 142.17347 123.70858 141.05483 124.36328 139.4082 C 125.58443 136.33692 127.48645 125.01711 127.3125 117.47852 C 127.17873 111.6814 126.38477 105.50195 126.38477 105.50195 C 125.84615 102.26109 125.1383 99.591128 123.43555 99.042969 C 123.30664 99.00147 123.15792 98.975834 122.99414 98.966797 z M 174.64258 98.96875 C 174.4788 98.977787 174.33008 99.003423 174.20117 99.044922 C 172.49842 99.593081 171.79057 102.26303 171.25195 105.50391 C 171.25195 105.50391 170.45799 111.68335 170.32422 117.48047 C 170.15027 125.01906 172.05035 136.33886 173.27148 139.41016 C 173.99201 141.22234 174.50478 142.38425 175.03906 143.22461 C 179.55819 139.36197 187.36656 129.95558 191.04102 123.44922 C 194.62304 117.1065 196.7981 112.9808 197.97656 110.06641 C 194.03017 107.58704 189.24331 105.1974 183.15625 102.12695 C 183.15625 102.12695 177.09922 98.833195 174.64258 98.96875 z M 82.625 130.38086 C 80.996982 133.90415 79.796486 137.71244 79.041016 141.91602 C 78.095896 146.53783 83.594092 147.0527 88.810547 147.64258 C 92.297721 148.03691 99.012473 147.92588 105.20117 147.46094 C 103.31998 146.0185 100.68733 144.12225 97.71875 142.10156 C 92.063825 138.25232 85.78305 133.44907 83.761719 131.42773 C 83.373176 131.03919 82.997455 130.70546 82.625 130.38086 z M 214.63477 130.81836 L 212.86914 132.36328 C 209.91607 134.94779 203.70912 139.6462 199.07617 142.80273 C 196.55482 144.52061 194.29991 146.18118 192.67188 147.47852 C 198.79512 147.92904 205.38338 148.03385 208.82617 147.64453 C 214.04263 147.05465 219.53887 146.76439 218.59375 142.14258 C 218.02702 138.9892 216.40741 134.74737 214.63477 130.81836 z " />
    <path
       style="display:inline;fill:#fadd79;fill-opacity:1"
       d="M 108.30727,143.51733 C 100.21977,139.47132 89.567841,130.67377 79.14562,119.43241 68.601715,108.05979 68.244884,107.10875 70.496381,96.379977 78.442506,58.515339 100.36568,38.341876 140.5,31.963429 c 13.19968,-2.097791 32.36341,1.788521 47.70997,9.675349 7.3665,3.785761 11.07452,6.550997 17.90858,13.355225 11.41799,11.368154 15.56958,19.628328 20.74264,41.270348 2.00957,8.407249 1.53535,11.048549 -3.03346,16.895849 -9.90761,12.68007 -24.87086,25.61035 -35.7169,30.86424 -10.32129,4.9997 -10.57804,3.94557 -1.7977,-7.38074 17.90697,-23.09932 28.29997,-43.80999 27.4963,-54.793315 L 213.5,77.62149 210.68759,82.810745 C 209.14076,85.664835 207.32384,88 206.65,88 205.97615,88 203.19173,85.709668 200.46241,82.910374 186.21801,68.3008 166.00536,59 148.5,59 130.80089,59 109.33884,68.93134 96.729044,82.956472 94.235033,85.730412 91.537714,88 90.735002,88 c -0.802712,0 -2.527706,-2.25 -3.83332,-5 -1.305614,-2.75 -2.625633,-5 -2.933376,-5 -0.307742,0 -0.660458,1.498615 -0.783813,3.330256 -0.293236,4.354142 3.154472,15.388438 7.551928,24.169744 3.847431,7.68296 15.562369,25.2119 22.734279,34.01707 4.09563,5.02833 4.95002,7.48293 2.60464,7.48293 -0.44364,0 -3.93928,-1.5672 -7.76807,-3.48267 z"
       id="path19701"
       inkscape:label="top" />
  </g>
</svg>
