<?xml version="1.0" encoding="UTF-8" standalone="no"?>
<!-- Created with Inkscape (http://www.inkscape.org/) -->

<svg
   version="1.1"
   id="svg3571"
   width="300"
   height="300"
   viewBox="0 0 300 300"
   sodipodi:docname="princess_cape.svg"
   inkscape:version="1.2.2 (732a01da63, 2022-12-09)"
   xmlns:inkscape="http://www.inkscape.org/namespaces/inkscape"
   xmlns:sodipodi="http://sodipodi.sourceforge.net/DTD/sodipodi-0.dtd"
   xmlns="http://www.w3.org/2000/svg"
   xmlns:svg="http://www.w3.org/2000/svg">
  <defs
     id="defs3575">
    <filter
       inkscape:collect="always"
       style="color-interpolation-filters:sRGB"
       id="filter6893"
       x="-0.0155952"
       y="-0.0155952"
       width="1.0311904"
       height="1.0311904">
      <feGaussianBlur
         inkscape:collect="always"
         stdDeviation="1.9494"
         id="feGaussianBlur6895" />
    </filter>
    <filter
       inkscape:collect="always"
       style="color-interpolation-filters:sRGB"
       id="filter6897"
       x="-0.056687948"
       y="-0.0547918"
       width="1.1136601"
       height="1.1100109">
      <feGaussianBlur
         inkscape:collect="always"
         stdDeviation="1.9494"
         id="feGaussianBlur6899" />
    </filter>
  </defs>
  <sodipodi:namedview
     id="namedview3573"
     pagecolor="#ffffff"
     bordercolor="#000000"
     borderopacity="0.25"
     inkscape:showpageshadow="2"
     inkscape:pageopacity="0.0"
     inkscape:pagecheckerboard="0"
     inkscape:deskcolor="#d1d1d1"
     showgrid="false"
     inkscape:zoom="1.1402097"
     inkscape:cx="-36.396814"
     inkscape:cy="-41.220488"
     inkscape:window-width="2560"
     inkscape:window-height="1369"
     inkscape:window-x="1912"
     inkscape:window-y="-8"
     inkscape:window-maximized="1"
     inkscape:current-layer="g3577" />
  <g
     inkscape:groupmode="layer"
     inkscape:label="Image"
     id="g3577">
    <rect
       style="display:none;fill:none;fill-opacity:0.977716;stroke:none;stroke-width:12.3;stroke-dasharray:none;filter:url(#filter6893)"
       id="rect6303"
       width="300"
       height="300"
       x="0"
       y="0"
       inkscape:label="bg" />
    <path
       id="path4089"
       style="fill:none;stroke:#785434;stroke-width:12.3;stroke-dasharray:none;filter:url(#filter6897);stroke-opacity:1"
       inkscape:label="stroke"
       d="M 155.5918 53.929688 C 151.94039 53.918979 148.53906 54 148.53906 54 C 144.62347 54 141.74827 53.974324 139.5625 53.990234 C 133.0052 54.038074 132.64158 54.458171 128.92969 57.052734 C 126.63782 58.654707 123.42172 60.947933 122.10352 62.365234 C 118.06698 66.705153 120.5233 68.665114 138.36328 69.595703 C 141.64683 69.767032 146.38111 69.950882 152.13672 69.773438 C 160.81039 69.506028 170.30005 69.171803 173.75 67.953125 C 175.5375 67.321701 177 66.212121 177 65.488281 C 177 64.764444 175.6767 63.078413 171.1543 59.496094 C 171.1543 59.496094 165.50189 54.90545 164.14844 54.410156 C 163.14468 54.042835 159.2432 53.940396 155.5918 53.929688 z M 147.3418 75.140625 C 145.18674 75.221635 142.98238 76.503918 139.98242 79.015625 C 130.54755 86.914951 121.23407 90.686482 106.5 86.589844 C 106.5 86.589844 103.57556 85.666223 100.78711 87.382812 L 79 100.79492 C 66.625024 109.00115 55.487498 117.11047 54.25 118.81641 C 52.5866 121.10945 52.002866 123.29779 52.009766 127.20898 C 52.028656 137.85794 62.185619 149.52545 79.148438 158.38281 C 89.828593 163.95961 99.135191 170.32273 103.5 175.0332 C 110.46785 182.55288 122.81402 188.50579 136.66016 191.01953 C 143.622 192.28344 158.34397 191.37075 166.61914 189.16406 C 176.02737 186.65525 182.80105 182.85273 191.08594 175.42383 C 199.18344 168.16296 205.51769 163.82937 217 157.69727 C 227.64468 152.01249 236.98818 143.67368 240.41406 136.79883 C 243.77757 130.04913 243.9055 123.17119 240.75 118.80859 C 239.5125 117.09771 228.59998 109.12892 216.5 101.09961 L 195.92578 87.759766 C 192.24549 85.373796 189 86.863281 189 86.863281 C 182.3671 88.756675 175.53237 89.844797 164.84375 85.777344 C 161.48672 84.499855 156.73333 80.382723 154.40234 78.472656 C 151.60318 76.178951 149.49684 75.059612 147.3418 75.140625 z M 98.460938 181 C 96.47017 181 92 185.03469 92 186.83203 C 92 187.76023 93.143761 189.75289 94.541016 191.25977 C 95.938268 192.76662 97.413193 194 97.818359 194 C 99.550413 194 105.07666 187.92546 104.41211 186.75195 C 103.00352 184.2646 99.625833 181 98.460938 181 z M 201.82812 181 C 200.15771 181 196 185.86304 196 187.81641 C 196 188.37011 197.38397 189.98626 199.07617 191.41016 C 200.76836 192.83402 202.52937 194 202.98828 194 C 204.02182 194 209 188.17248 209 186.96289 C 209 185.47114 203.62202 181 201.82812 181 z M 96.839844 196.22266 C 96.311784 196.26636 95.703711 196.61945 94.732422 197.25586 C 90.381891 200.10645 81.590295 221.99071 83.876953 224.27734 C 84.356942 224.75733 86.493643 225.77153 88.625 226.53125 C 93.453778 228.25247 100.21067 228.39089 101.80078 226.80078 C 104.63042 223.97114 102.49482 201.05146 99.083984 197.64062 C 98.065614 196.62227 97.518776 196.16653 96.839844 196.22266 z M 203.71484 196.48242 C 203.18238 196.49442 202.64571 196.65382 202.09375 196.94922 C 199.22227 198.48599 198.74962 200.56198 198.23242 213.86328 C 197.85147 223.66076 198.03581 226.40968 199.125 227.09961 C 202.34704 229.14054 213.62854 227.35697 216.06445 224.42188 C 217.7931 222.33899 215.93899 214.90259 211.33594 205.46094 C 208.25414 199.13965 206.02218 196.43064 203.71484 196.48242 z M 149.10156 199 C 147.12187 199 141 204.96833 141 206.89844 C 141 207.72686 142.43742 209.88947 144.19531 211.70312 C 145.9532 213.51681 148.07002 215 148.89844 215 C 150.87813 215 157 209.03167 157 207.10156 C 157 205.12187 151.03167 199 149.10156 199 z M 148.89648 217.32617 C 147.87063 217.28897 146.84962 217.71739 145.93555 218.64453 C 143.82817 220.78202 139.52814 234.92732 138.51172 243.0625 C 137.75692 249.10368 138.45242 250.38531 143 251.32617 C 145.87609 251.92121 156.72394 251.28896 158.08594 250.44727 C 158.58915 250.13627 158.99333 248.22142 158.98633 246.19141 C 158.96763 240.94234 155.52193 224.91036 153.62305 221.23828 C 152.33319 218.74395 150.60627 217.38819 148.89648 217.32617 z " />
    <path
       id="path6888"
       style="fill:#d69e6d;fill-opacity:1"
       inkscape:label="accent"
       d="m 139.5625,53.990234 c -6.55731,0.04784 -6.92091,0.467934 -10.63281,3.0625 -2.29187,1.601974 -5.50796,3.895197 -6.82617,5.3125 -4.03654,4.339923 -1.58024,6.299879 16.25976,7.230469 3.28355,0.171329 8.01783,0.35518 13.77344,0.177735 8.67368,-0.26741 18.16333,-0.601634 21.61328,-1.820313 1.7875,-0.631425 3.25,-1.741004 3.25,-2.464844 0,-0.723838 -1.32329,-2.409864 -5.8457,-5.992187 0,0 -5.65241,-4.590644 -7.00586,-5.085938 C 162.14093,53.675512 148.53906,54 148.53906,54 c -3.9156,0 -6.79079,-0.02571 -8.97656,-0.0098 z M 98.460938,181 C 96.470169,181 92,185.03469 92,186.83203 c 0,0.9282 1.14376,2.92086 2.541016,4.42774 1.397254,1.50686 2.872176,2.74023 3.277343,2.74023 1.732055,0 7.258301,-6.07454 6.593751,-7.24805 C 103.00352,184.26459 99.625835,181 98.460938,181 Z m 103.367182,0 C 200.1577,181 196,185.86304 196,187.81641 c 0,0.5537 1.38397,2.16985 3.07617,3.59375 1.69219,1.42387 3.4532,2.58984 3.91211,2.58984 C 204.02182,194 209,188.17248 209,186.96289 209,185.47114 203.62202,181 201.82812,181 Z m -52.72656,18 C 147.12187,199 141,204.96833 141,206.89844 c 0,0.82842 1.43742,2.99102 3.19531,4.80468 C 145.9532,213.51681 148.07002,215 148.89844,215 150.87813,215 157,209.03167 157,207.10156 157,205.12187 151.03167,199 149.10156,199 Z"
       sodipodi:nodetypes="ssccssscscsssssssssssssssssss" />
    <path
       id="path6890"
       style="fill:#fff198;fill-opacity:1"
       inkscape:label="body"
       d="m 147.3418,75.140625 c -2.15506,0.08101 -4.35942,1.36329 -7.35938,3.875 -9.43488,7.899334 -18.74834,11.670861 -33.48242,7.574219 0,0 -2.92414,-0.924037 -5.71259,0.792554 L 79,100.79492 c -12.374988,8.20624 -23.512501,16.31555 -24.75,18.02149 -1.663402,2.29305 -2.247134,4.48137 -2.240234,8.39257 0.01889,10.64897 10.175837,22.31646 27.138672,31.17383 10.680166,5.5768 19.986749,11.93991 24.351562,16.65039 6.96786,7.51968 19.31401,13.47259 33.16016,15.98633 6.96185,1.26391 21.6838,0.35122 29.95898,-1.85547 9.40824,-2.50882 16.1819,-6.31132 24.4668,-13.74023 8.09751,-7.26088 14.43174,-11.59445 25.91406,-17.72656 10.64469,-5.68478 19.98817,-14.02358 23.41406,-20.89844 3.36351,-6.7497 3.49144,-13.62764 0.33594,-17.99024 -1.2375,-1.71089 -12.15001,-9.67966 -24.25,-17.70898 L 195.92518,87.760733 C 192.24489,85.374761 189,86.863281 189,86.863281 c -6.63291,1.893396 -13.46699,2.982107 -24.15562,-1.08535 -3.35703,-1.27749 -8.11105,-5.395206 -10.44204,-7.305275 -2.79917,-2.293708 -4.90549,-3.413044 -7.06054,-3.332031 z M 96.839844,196.22266 c -0.52806,0.0437 -1.136132,0.39679 -2.107422,1.0332 -4.350535,2.85059 -13.142129,24.73484 -10.855469,27.02148 0.479989,0.47999 2.616688,1.49419 4.748047,2.25391 4.828783,1.72122 11.58567,1.85964 13.17578,0.26953 2.82964,-2.82964 0.69404,-25.74932 -2.716796,-29.16016 -1.018371,-1.01836 -1.565207,-1.47409 -2.24414,-1.41796 z m 106.874996,0.25976 c -0.53246,0.012 -1.06913,0.1714 -1.62109,0.4668 -2.87148,1.53677 -3.34413,3.61275 -3.86133,16.91406 -0.38095,9.79749 -0.19661,12.5464 0.89258,13.23633 3.22204,2.04093 14.50353,0.25737 16.93945,-2.67773 1.72865,-2.08289 -0.12545,-9.51928 -4.72851,-18.96094 -3.0818,-6.32129 -5.31376,-9.0303 -7.6211,-8.97852 z m -54.81836,20.84375 c -1.02586,-0.0372 -2.04686,0.39122 -2.96093,1.31836 -2.10738,2.13749 -6.40741,16.28278 -7.42383,24.41797 -0.7548,6.04119 -0.0593,7.32281 4.48828,8.26367 2.87609,0.59504 13.72394,-0.0372 15.08594,-0.8789 0.50321,-0.311 0.90739,-2.22584 0.90039,-4.25586 -0.0187,-5.24907 -3.46439,-21.28105 -5.36328,-24.95313 -1.28986,-2.49433 -3.01678,-3.85009 -4.72657,-3.91211 z"
       sodipodi:nodetypes="sscscscsssssssscscsssssssssssssssssssssscss" />
  </g>
</svg>
