<?xml version="1.0" encoding="UTF-8" standalone="no"?>
<!-- Created with Inkscape (http://www.inkscape.org/) -->

<svg
   version="1.1"
   id="svg32971"
   width="300"
   height="300"
   viewBox="0 0 300 300"
   sodipodi:docname="princess_hair.svg"
   inkscape:version="1.2.2 (732a01da63, 2022-12-09)"
   xmlns:inkscape="http://www.inkscape.org/namespaces/inkscape"
   xmlns:sodipodi="http://sodipodi.sourceforge.net/DTD/sodipodi-0.dtd"
   xmlns="http://www.w3.org/2000/svg"
   xmlns:svg="http://www.w3.org/2000/svg">
  <defs
     id="defs32975">
    <filter
       inkscape:collect="always"
       style="color-interpolation-filters:sRGB"
       id="filter33555"
       x="-0.047372516"
       y="-0.050372092"
       width="1.0948923"
       height="1.1007696">
      <feGaussianBlur
         inkscape:collect="always"
         stdDeviation="1.9494"
         id="feGaussianBlur33557" />
    </filter>
    <filter
       inkscape:collect="always"
       style="color-interpolation-filters:sRGB"
       id="filter33559"
       x="-0.0360952"
       y="-0.0360952"
       width="1.0721904"
       height="1.0721904">
      <feGaussianBlur
         inkscape:collect="always"
         stdDeviation="1.9494"
         id="feGaussianBlur33561" />
    </filter>
  </defs>
  <sodipodi:namedview
     id="namedview32973"
     pagecolor="#ffffff"
     bordercolor="#000000"
     borderopacity="0.25"
     inkscape:showpageshadow="2"
     inkscape:pageopacity="0.0"
     inkscape:pagecheckerboard="0"
     inkscape:deskcolor="#d1d1d1"
     showgrid="false"
     inkscape:zoom="1.67"
     inkscape:cx="22.45509"
     inkscape:cy="-1.1976048"
     inkscape:window-width="2560"
     inkscape:window-height="1369"
     inkscape:window-x="1912"
     inkscape:window-y="-8"
     inkscape:window-maximized="1"
     inkscape:current-layer="g32977" />
  <g
     inkscape:groupmode="layer"
     inkscape:label="Image"
     id="g32977">
    <rect
       style="display:none;fill:none;fill-opacity:1;stroke:#753f4b;stroke-width:12.3;filter:url(#filter33559);stroke-dasharray:none"
       id="rect33552"
       width="300"
       height="300"
       x="0"
       y="0" />
    <path
       id="path33475"
       style="fill:none;fill-opacity:1;filter:url(#filter33555);stroke-width:12.3;stroke-dasharray:none;stroke:#753f4b"
       inkscape:label="stroke"
       d="M 158.37109 17 C 148.47878 17 124.75134 32.816542 117.11523 44.5 C 114.68867 48.212721 114.51442 49.218194 114.71094 58.5 C 114.8274 63.999984 115.29505 70.075006 115.75 72 L 116.57812 75.5 L 138.03906 76.101562 C 164.0711 76.831009 174.93057 78.754168 190.5 85.394531 C 193.8 86.801977 197.34827 87.851405 198.38477 87.726562 C 199.64486 87.574787 201.91334 84.410363 205.23047 78.175781 C 212.38758 64.723834 211.98294 59.670304 202.65625 46 C 198.03843 39.231585 184.42162 26.24843 179.12891 23.566406 C 172.60906 20.262555 162.29657 17 158.37109 17 z M 155.26367 32.648438 C 155.58052 32.692837 156.36263 33.143411 156.32422 34.984375 C 156.25802 38.156314 158.10267 37.676305 159.44922 38.558594 C 160.79577 39.440884 162.69803 42.260789 163.67773 44.826172 C 164.18633 46.157927 164.40831 48.371426 165.14844 49.689453 C 165.52753 50.364531 167.25185 51.16082 168.01758 51.597656 C 170.44015 52.979706 170.26221 53.857081 168.33984 54.486328 C 166.87264 54.966595 164.51109 54.640639 163.36523 55.697266 C 162.30786 56.672322 161.21679 58.136225 159.85352 59.197266 C 158.97136 59.883848 157.33978 60.89538 156.2168 61.119141 C 153.03695 61.752743 152.88836 62.89939 152.26172 63.943359 C 150.63204 66.658367 149.16747 66.328615 148.45508 63.490234 C 148.29592 62.856089 148.31349 61.890522 147.68359 61.207031 C 147.04492 60.514023 145.75442 60.104104 144.94336 59.625 C 143.33238 58.673375 141.57786 57.079794 141.04492 56.083984 C 140.7235 55.4834 140.37146 54.537782 139.43359 53.892578 C 138.81641 53.467993 137.70227 53.290334 137.03906 53.015625 C 133.55713 51.573353 133.16965 50.397424 135.89258 49.533203 C 136.35753 49.385634 137.3825 49.188723 137.89648 48.640625 C 138.53312 47.961732 138.64497 46.856248 139.02148 45.947266 C 140.47036 42.449366 145.1539 38.302582 147.58984 38.185547 C 149.24227 38.106157 150.10164 37.793695 151.09375 37.015625 C 151.73703 36.511125 152.25034 35.180753 152.83398 34.515625 C 154.06557 33.112086 154.606 32.556278 155.26367 32.648438 z M 151.45703 41.046875 C 147.03638 41.212961 143 44.644496 143 49.857422 C 143 52.559708 147.55658 57.790046 150.2832 58.216797 C 153.86388 58.77721 155.86723 57.94553 158.51172 54.802734 C 161.82196 50.868749 161.71357 47.0582 158.19531 43.6875 C 156.19362 41.769759 153.77262 40.959878 151.45703 41.046875 z M 66.863281 74.757812 L 63.943359 77.554688 C 60.42569 80.924828 59.430224 83.608937 60.998047 85.498047 C 62.1264 86.857629 72.889569 89.589078 80 90.320312 C 87.010374 91.04126 107.53181 90.949194 108.72461 90.191406 C 109.39849 89.763289 110.07349 88.307485 110.22461 86.957031 C 110.49495 84.54116 110.3171 84.481476 99.154297 83.246094 C 91.267202 82.373231 84.61674 80.887394 77.335938 78.373047 L 66.863281 74.757812 z M 134.12891 81.078125 C 128.27593 81.011194 123.32874 81.335999 120.69141 82.068359 C 117.27851 83.016088 116.91484 83.426953 117.19141 86.025391 L 117.41992 88.175781 C 117.48698 88.878659 118.37695 88.953125 118.37695 88.953125 L 133.5 89.421875 C 155.72272 90.11053 178.37746 94.219979 191 99.851562 C 193.475 100.9558 195.82845 101.89089 196.23047 101.92969 C 197.27936 102.03106 198.31398 97.316216 197.52344 96.037109 C 195.13501 92.172547 171.20657 84.863644 153 82.4375 C 146.74066 81.603401 139.98188 81.145056 134.12891 81.078125 z M 58.716797 88 C 57.543867 88 48 95.131334 48 96.007812 C 48 96.824239 54.201416 105.33577 55.408203 106.17578 C 56.312895 106.80551 63.928466 101.99499 66.023438 99.470703 C 67.038521 98.247601 60.511042 88 58.716797 88 z M 249.80664 88.378906 C 247.75288 88.446846 245.10698 88.956032 241.30078 89.830078 C 236.4599 90.941734 228.22497 92.371767 223 93.007812 C 206.31613 95.038768 207 94.852357 207 97.378906 C 207 98.637315 207.3375 100.00577 207.75 100.41992 C 208.1625 100.83378 219.30003 101.0174 232.5 100.82812 C 262.08876 100.40386 265.1883 99.331368 257.77148 92.080078 C 255.00913 89.379346 253.22958 88.265679 249.80664 88.378906 z M 134.91602 94.519531 C 126.25464 94.493841 117.97615 95.071025 113.62695 96.263672 C 105.07697 98.608275 92.920351 106.37501 83.835938 115.29688 C 71.946394 126.97361 69.18295 132.0703 66.003906 148.19336 C 65.225281 152.14231 63.727421 155.35994 61.117188 158.69336 C 59.047241 161.3368 55.364341 167.1 52.931641 171.5 C 48.676969 179.19535 48.507906 179.82369 48.503906 188 C 48.500206 195.55021 48.870516 197.28135 51.808594 203.48633 C 55.556171 211.40088 61.664172 219.97304 66.931641 224.70898 C 71.125174 228.47939 74.454051 228.88878 76.087891 225.83594 C 77.444037 223.30195 76.764907 213.28103 74.277344 199.12305 C 72.904264 191.30814 72.820935 188.43939 73.773438 181.9043 C 75.03413 173.25469 79.433018 161.70859 84.224609 154.47461 L 87.332031 149.7832 L 92.916016 150.2207 C 96.530026 150.50335 101.35577 151.97765 106.5957 154.39844 L 114.69336 158.13867 L 124.0957 153.15625 C 135.84301 146.93247 153 141.94573 153 144.75586 C 153 145.17199 152.57456 146.99592 152.05469 148.80859 C 151.35177 151.25951 151.43522 152.22967 152.37891 152.5918 C 154.70995 153.48631 168.69399 148.57704 197 136.92578 C 207.05695 132.78618 208.83802 129.52409 205.07227 122.14258 C 199.89854 112.00128 179.62064 100.79053 158.5 96.396484 C 152.62154 95.173502 143.57737 94.545223 134.91602 94.519531 z M 256.75391 102 C 255.42538 102 248 110.19738 248 111.66406 C 248 112.30506 250.10462 114.68231 252.67773 116.94727 L 257.35742 121.06641 L 261.67773 116.82422 C 264.0546 114.49149 266 111.83137 266 110.91211 C 266 109.2006 258.52946 102 256.75391 102 z M 52.615234 109.01953 C 51.001173 109.02253 49.619829 109.78584 48.992188 111.25 C 47.004221 115.88751 41.242148 139.77382 41.867188 140.78516 C 42.225116 141.3643 44.087625 142.02609 46.007812 142.25781 C 53.669298 143.18238 58.79034 142.98595 59.212891 141.75 C 59.447934 141.0625 59.384014 134.04916 59.070312 126.16602 C 58.566871 113.51475 58.27196 111.6667 56.558594 110.41602 C 55.266984 109.47318 53.870616 109.01695 52.615234 109.01953 z M 258.89648 124.69531 C 256.85618 124.66531 254.722 125.50732 253.56836 127.37109 C 252.78758 128.63249 251.7481 136.19295 251.01367 145.93164 C 249.86434 161.17196 249.8987 162.45302 251.49609 163.62109 C 253.66255 165.20524 269.27191 163.98821 270.41016 162.14648 C 270.67394 161.71967 269.34828 154.4249 267.46484 145.93555 C 265.58143 137.4462 264.03063 129.74545 264.01953 128.82227 C 263.98833 126.21589 261.51976 124.73392 258.89648 124.69531 z M 209.57617 137.94336 C 207.11358 138.06101 204.3546 139.12886 200.5 140.9668 C 197.78758 142.26013 182.07095 148.4974 173.61719 151.63477 C 163.98254 155.21036 160.55075 157.30921 160.17578 159.85938 C 159.74556 162.78535 161.96709 164.48662 176.91992 172.6875 C 183.75075 176.43387 191.49017 181.43331 194.11914 183.79688 C 205.15218 193.71609 207.33409 207.56077 200.58008 224.79492 C 199.27137 228.13437 198.45608 231.12209 198.76758 231.43359 C 199.73506 232.40107 203.82532 232.06332 211.05078 230.41992 C 219.04466 228.60174 228.1616 222.58784 232.44727 216.30664 C 236.5478 210.29677 242 192.2141 242 184.62305 C 242 171.43834 235.38618 157.95735 223.11328 146.125 C 216.96121 140.19376 213.68049 137.74727 209.57617 137.94336 z " />
    <path
       id="path33495"
       style="fill:#ce9e9a;fill-opacity:1"
       d="M 134.12891 81.078125 C 128.27593 81.011194 123.32875 81.335998 120.69141 82.068359 C 117.27851 83.016089 116.91484 83.426951 117.19141 86.025391 L 117.41992 88.175781 C 117.48698 88.878659 118.37695 88.953125 118.37695 88.953125 L 133.5 89.421875 C 155.72274 90.110531 178.37745 94.219973 191 99.851562 C 193.475 100.9558 195.82845 101.89089 196.23047 101.92969 C 197.27936 102.03106 198.31398 97.316217 197.52344 96.037109 C 195.13501 92.172543 171.20659 84.863646 153 82.4375 C 146.74065 81.6034 139.98189 81.145056 134.12891 81.078125 z M 58.716797 88 C 57.543866 88 48 95.131333 48 96.007812 C 48 96.824239 54.201415 105.33577 55.408203 106.17578 C 56.312896 106.80551 63.928464 101.99499 66.023438 99.470703 C 67.038523 98.2476 60.511044 88 58.716797 88 z M 256.75391 102 C 255.42538 102 248 110.19738 248 111.66406 C 248 112.30506 250.10461 114.68231 252.67773 116.94727 L 257.35742 121.06641 L 261.67773 116.82422 C 264.0546 114.49149 266 111.83137 266 110.91211 C 266 109.2006 258.52947 102 256.75391 102 z "
       inkscape:label="accent" />
    <path
       id="path33497"
       style="fill:#f6f6e1;fill-opacity:1"
       d="m 158.37109,17 c -9.89232,0 -33.61975,15.81653 -41.25586,27.5 -2.42657,3.712725 -2.60081,4.718185 -2.40429,14 0.11646,5.499989 0.58411,11.575004 1.03906,13.5 l 0.82812,3.5 21.46094,0.601562 c 26.03206,0.729447 36.89149,2.652599 52.46094,9.292969 3.3,1.407447 6.84827,2.456874 7.88477,2.332031 1.2601,-0.151776 3.52857,-3.316193 6.8457,-9.550781 C 212.38759,64.72382 211.98295,59.670318 202.65625,46 198.03843,39.231578 184.42163,26.248432 179.12891,23.566406 172.60906,20.262551 162.29657,17 158.37109,17 Z m -3.10788,15.648715 c 0.31685,0.0444 1.09945,0.493814 1.06104,2.33478 -0.0662,3.171942 1.77842,2.692809 3.12497,3.575099 1.34655,0.882291 3.2488,3.702193 4.22851,6.267578 0.5086,1.331756 0.73058,3.545253 1.47071,4.863281 0.37909,0.675079 2.10341,1.471366 2.86914,1.908203 2.42257,1.382051 2.24463,2.259424 0.32226,2.888672 -1.46721,0.480267 -3.82875,0.15431 -4.97461,1.210938 -1.05738,0.975057 -2.14843,2.438958 -3.51171,3.5 -0.88216,0.686583 -2.51374,1.698114 -3.63672,1.921875 -3.17985,0.633603 -3.32844,1.780248 -3.95508,2.824218 -1.62968,2.71501 -3.09425,2.385258 -3.80664,-0.453125 -0.15916,-0.634146 -0.14159,-1.599712 -0.77149,-2.283203 -0.63867,-0.693009 -1.92917,-1.102927 -2.74023,-1.582031 -1.61098,-0.951626 -3.3655,-2.545205 -3.89844,-3.541016 -0.32142,-0.600585 -0.67346,-1.546201 -1.61133,-2.191406 -0.61718,-0.424586 -1.73132,-0.602244 -2.39453,-0.876953 -3.48194,-1.442273 -3.86941,-2.6182 -1.14648,-3.482422 0.46495,-0.147569 1.48992,-0.344479 2.0039,-0.892578 0.63664,-0.678894 0.74849,-1.784376 1.125,-2.693359 1.44888,-3.497903 6.13145,-7.644986 8.5674,-7.762021 1.65243,-0.07939 2.51251,-0.391117 3.50462,-1.169188 0.64328,-0.504501 1.15684,-1.835303 1.74048,-2.500432 1.23159,-1.40354 1.77156,-1.95907 2.42923,-1.86691 z m -3.80618,8.39816 C 147.03637,41.212961 143,44.644491 143,49.857422 c 0,2.702289 4.55657,7.932624 7.2832,8.359375 3.58068,0.560414 5.58403,-0.271264 8.22852,-3.414063 3.31024,-3.933989 3.20185,-7.744531 -0.31641,-11.115234 -2.00169,-1.917743 -4.42269,-2.727622 -6.73828,-2.640625 z m -84.593749,33.710937 -2.919922,2.796876 c -3.517673,3.370144 -4.513136,6.054247 -2.945312,7.943359 1.128354,1.359583 11.891515,4.09103 19.001953,4.822265 7.010381,0.720948 27.53181,0.628883 28.72461,-0.128906 0.67388,-0.428118 1.34888,-1.88392 1.5,-3.234375 0.27034,-2.415874 0.0925,-2.475554 -11.070313,-3.710937 C 91.267194,82.37323 84.616748,80.887397 77.335938,78.373047 Z M 249.80664,88.378906 c -2.05376,0.06794 -4.69966,0.577125 -8.50586,1.451172 -4.84089,1.111657 -13.0758,2.541688 -18.30078,3.177734 -16.68389,2.030958 -16,1.844542 -16,4.371094 0,1.25841 0.3375,2.626864 0.75,3.041014 0.4125,0.41386 11.55002,0.59748 24.75,0.4082 29.58879,-0.42427 32.6883,-1.496745 25.27148,-8.748042 -2.76236,-2.700735 -4.5419,-3.814399 -7.96484,-3.701172 z m -114.89062,6.140625 c -8.66138,-0.02569 -16.93987,0.551493 -21.28907,1.744141 -8.54999,2.344605 -20.706589,10.111338 -29.791012,19.033208 -11.889555,11.67675 -14.652985,16.7734 -17.832032,32.89648 -0.778626,3.94895 -2.276482,7.16658 -4.886718,10.5 -2.069949,2.64344 -5.752844,8.40664 -8.185547,12.80664 -4.254676,7.69536 -4.423735,8.32368 -4.427735,16.5 -0.0037,7.55022 0.366607,9.28135 3.304688,15.48633 3.747581,7.91456 9.855573,16.4867 15.123047,21.22265 4.193538,3.77041 7.522409,4.17981 9.15625,1.12696 1.356148,-2.53399 0.677019,-12.55489 -1.810547,-26.71289 -1.373081,-7.81491 -1.456409,-10.68365 -0.503906,-17.21875 1.260694,-8.64962 5.659575,-20.1957 10.451171,-27.42969 l 3.107422,-4.69141 5.583985,0.4375 c 3.614014,0.28265 8.439744,1.75695 13.679684,4.17774 l 8.09766,3.74023 9.40234,-4.98242 C 135.84302,146.93246 153,141.94573 153,144.75586 c 0,0.41613 -0.42544,2.24005 -0.94531,4.05273 -0.70292,2.45092 -0.61947,3.42108 0.32422,3.78321 2.33105,0.89451 16.31505,-4.01475 44.62109,-15.66602 10.05696,-4.13961 11.83803,-7.40168 8.07227,-14.7832 C 199.89854,112.00127 179.62066,100.79053 158.5,96.396484 152.62153,95.1735 143.57738,94.545223 134.91602,94.519531 Z M 52.615234,109.01953 c -1.614063,0.003 -2.995404,0.76631 -3.623046,2.23047 -1.987968,4.63751 -7.75004,28.52382 -7.125,29.53516 0.357929,0.57914 2.220435,1.24093 4.140624,1.47265 7.661493,0.92457 12.782528,0.72814 13.205079,-0.50781 0.235044,-0.6875 0.171123,-7.70083 -0.142579,-15.58398 -0.503442,-12.65128 -0.79835,-14.49931 -2.511718,-15.75 -1.291611,-0.94284 -2.687977,-1.39907 -3.94336,-1.39649 z m 206.281246,15.67578 c -2.04031,-0.03 -4.17448,0.812 -5.32812,2.67578 -0.78078,1.2614 -1.82026,8.82185 -2.55469,18.56055 -1.14933,15.24033 -1.11498,16.52138 0.48242,17.68945 2.16646,1.58415 17.77582,0.36712 18.91407,-1.47461 0.26378,-0.42681 -1.06188,-7.72157 -2.94532,-16.21093 -1.88342,-8.48936 -3.43421,-16.19009 -3.44531,-17.11328 -0.0312,-2.60638 -2.49977,-4.08835 -5.12305,-4.12696 z m -49.32031,13.24805 c -2.46259,0.11765 -5.22157,1.1855 -9.07617,3.02344 -2.71242,1.29333 -18.42904,7.5306 -26.88281,10.66797 -9.63466,3.5756 -13.06644,5.67444 -13.44141,8.22461 -0.43022,2.92598 1.79129,4.62723 16.74414,12.82812 6.83083,3.74637 14.57025,8.74581 17.19922,11.10938 11.03305,9.91922 13.21496,23.76387 6.46094,40.99804 -1.30871,3.33945 -2.124,6.32717 -1.8125,6.63867 0.96748,0.96748 5.05773,0.62973 12.2832,-1.01367 7.99389,-1.81818 17.11082,-7.83207 21.39649,-14.11328 C 236.54781,210.29676 242,192.21411 242,184.62305 c 0,-13.18472 -6.61381,-26.66569 -18.88672,-38.49805 -6.15208,-5.93125 -9.43279,-8.37773 -13.53711,-8.18164 z"
       sodipodi:nodetypes="ssscccssssssssssssssssssssssssssssssssssssccsssssccsssscssssscsssssssssscccccssssssssssssssssssssscssssssssssssss"
       inkscape:label="main" />
  </g>
</svg>
