<?xml version="1.0" encoding="UTF-8" standalone="no"?>
<!-- Created with Inkscape (http://www.inkscape.org/) -->

<svg
   version="1.1"
   id="svg13135"
   width="300"
   height="300"
   viewBox="0 0 300 300"
   sodipodi:docname="deer_hairacc.svg"
   inkscape:version="1.2.2 (732a01da63, 2022-12-09)"
   xmlns:inkscape="http://www.inkscape.org/namespaces/inkscape"
   xmlns:sodipodi="http://sodipodi.sourceforge.net/DTD/sodipodi-0.dtd"
   xmlns:xlink="http://www.w3.org/1999/xlink"
   xmlns="http://www.w3.org/2000/svg"
   xmlns:svg="http://www.w3.org/2000/svg">
  <defs
     id="defs13139">
    <linearGradient
       inkscape:collect="always"
       id="linearGradient16197">
      <stop
         style="stop-color:#a35b61;stop-opacity:1;"
         offset="0"
         id="stop16193" />
      <stop
         style="stop-color:#f6f6e1;stop-opacity:1;"
         offset="1"
         id="stop16195" />
    </linearGradient>
    <linearGradient
       inkscape:collect="always"
       xlink:href="#linearGradient16197"
       id="linearGradient16199"
       x1="148.84656"
       y1="55.621162"
       x2="148.84656"
       y2="100.29168"
       gradientUnits="userSpaceOnUse" />
    <filter
       inkscape:collect="always"
       style="color-interpolation-filters:sRGB"
       id="filter18021"
       x="-0.0155952"
       y="-0.0155952"
       width="1.0311904"
       height="1.0311904">
      <feGaussianBlur
         inkscape:collect="always"
         stdDeviation="1.9494"
         id="feGaussianBlur18023" />
    </filter>
    <filter
       inkscape:collect="always"
       style="color-interpolation-filters:sRGB"
       id="filter18025"
       x="-0.048835956"
       y="-0.074053399"
       width="1.0976689"
       height="1.1490844">
      <feGaussianBlur
         inkscape:collect="always"
         stdDeviation="1.9494"
         id="feGaussianBlur18027" />
    </filter>
  </defs>
  <sodipodi:namedview
     id="namedview13137"
     pagecolor="#ffffff"
     bordercolor="#000000"
     borderopacity="0.25"
     inkscape:showpageshadow="2"
     inkscape:pageopacity="0.0"
     inkscape:pagecheckerboard="0"
     inkscape:deskcolor="#d1d1d1"
     showgrid="false"
     showguides="false"
     inkscape:zoom="0.835"
     inkscape:cx="8.9820359"
     inkscape:cy="-194.01198"
     inkscape:window-width="2560"
     inkscape:window-height="1369"
     inkscape:window-x="1912"
     inkscape:window-y="-8"
     inkscape:window-maximized="1"
     inkscape:current-layer="g13141" />
  <g
     inkscape:groupmode="layer"
     inkscape:label="Image"
     id="g13141">
    <rect
       style="display:none;fill:none;stroke:none;stroke-width:252.842;stroke-dasharray:none;stroke-opacity:1;filter:url(#filter18021)"
       id="rect18018"
       width="300"
       height="300"
       x="0"
       y="0" />
    <path
       style="fill:none;fill-opacity:1;stroke-width:12.3;stroke-dasharray:none;stroke:#753f4b;stroke-opacity:1;filter:url(#filter18025)"
       d="m 63.702676,197.61902 c -10.489294,-3.91107 -17.427859,-12.31267 -21.386179,-25.89555 -2.966314,-10.17884 -4.015476,-20.17633 -2.330428,-22.20668 2.675119,-3.22333 19.404012,-0.7143 30.685863,4.60231 12.47975,5.88113 19.329829,13.64237 19.539108,22.1381 0.253631,10.29622 -1.104683,11.25111 -10.829008,7.61278 -6.519991,-2.43944 -13.192188,-8.59364 -20.614665,-19.01424 -2.659067,-3.73313 -6.821417,-8.03183 -9.5,-9.8112 -4.338671,-2.88215 -4.794151,-2.99647 -5.065224,-1.27128 -0.536342,3.41344 2.701262,16.44119 5.37763,21.63898 3.356142,6.51798 9.815997,13.30799 14.920227,15.68279 2.537424,1.18057 6.296751,1.86908 10.281385,1.88301 4.766515,0.0167 6.426423,0.39992 6.882782,1.58918 0.330769,0.86197 0.13316,2.03545 -0.439132,2.60775 -1.724319,1.72431 -13.301876,2.01772 -17.522359,0.44405 z M 221,198.10524 c -1.57697,-0.43866 -2.5,-1.41719 -2.5,-2.65032 0,-1.71684 0.9134,-2.02244 7.5,-2.50936 8.48156,-0.62701 10.46341,-1.48799 16.7376,-7.27134 6.88037,-6.3421 13.19514,-21.09506 13.24762,-30.9499 0.0145,-2.71335 -0.047,-2.74315 -2.73522,-1.32704 -3.5224,1.85553 -12.06567,10.75229 -16.09714,16.76319 -1.71916,2.56327 -5.00864,6.27217 -7.30996,8.24201 C 225.70571,181.94376 216.71852,186 213.00949,186 c -2.47975,0 -3.96974,-5.17303 -3.27228,-11.36089 0.7046,-6.25118 8.49389,-14.94453 17.41756,-19.43911 11.12494,-5.6033 27.16875,-8.70277 31.91097,-6.16482 2.6931,1.44131 2.53521,7.33936 -0.51875,19.37844 -5.08921,20.06225 -16.17534,30.88112 -31.23981,30.4867 C 225.21323,198.8455 222.375,198.48771 221,198.10524 Z M 99.510905,191.63163 C 97.664159,190.28126 95.206906,183.20935 92.515829,171.5 88.469233,153.89254 88.132396,126.95309 91.855048,118.6522 92.879212,116.36849 97.153381,110.675 101.3532,106 c 4.19982,-4.675 7.63759,-9.175 7.63949,-10 0.003,-1.164358 -5.19297,-15.120705 -9.511194,-25.432437 C 99.141995,69.756851 99.68528,69 101.34487,69 c 3.02621,0 8.07807,4.847611 13.80829,13.25 2.15675,3.1625 4.24209,5.735859 4.6341,5.718575 2.43703,-0.107449 6.96197,-10.979224 9.6302,-23.137831 2.983,-13.592931 6.72894,-12.917213 8.6361,1.557836 2.19771,16.680299 0.22792,23.267458 -12.75831,42.66488 -12.76661,19.06938 -12.66658,18.82949 -11.99936,28.77797 0.33409,4.98145 1.74272,12.49667 3.31173,17.66857 3.36069,11.07776 4.03388,16.68976 2.23039,18.59355 -0.7359,0.77684 -3.48562,4.11108 -6.11049,7.40944 C 107.25023,188.38566 102.95454,193 102.02446,193 c -0.35321,0 -1.48431,-0.61577 -2.513555,-1.36837 z m 96.790915,-0.13278 C 192.25592,188.66499 180,172.30741 180,169.74134 c 0,-1.36444 0.9237,-5.35192 2.05267,-8.86107 3.16127,-9.82609 5.04802,-19.75319 5.06075,-26.62714 0.0108,-5.82956 -0.35112,-6.83159 -5.41785,-15 -2.98619,-4.81422 -7.71972,-12.06732 -10.51897,-16.11801 -2.79925,-4.050679 -6.29219,-10.512161 -7.76209,-14.358846 -2.47712,-6.482556 -2.62256,-7.698955 -1.98899,-16.635123 0.78866,-11.123564 2.04328,-16.723334 3.9071,-17.438549 2.03077,-0.779277 3.68376,2.759274 6.75199,14.453969 2.94284,11.216751 4.75627,15.636558 7.27244,17.724794 1.25184,1.038935 2.15662,0.252491 5.68205,-4.938942 C 190.41401,74.027524 196.44952,68 199,68 c 1.1,0 2,0.281707 2,0.626016 0,0.728394 -6.49098,17.391799 -8.57956,22.025113 C 191.6392,92.38425 191,94.592761 191,95.55893 c 0,0.966169 3.05996,5.17316 6.79992,9.34887 9.65957,10.78504 10.97478,12.97037 12.1444,20.17899 1.9121,11.78458 0.77387,33.90716 -2.41373,46.91321 -4.58993,18.72787 -6.81444,22.59076 -11.22877,19.49885 z"
       id="path15805"
       sodipodi:nodetypes="sssssssssssssssssssssssssssssssssscsssssssssssssssssssssssssssssssss"
       inkscape:label="stroke" />
    <path
       style="fill:url(#linearGradient16199);fill-opacity:1"
       d="m 63.702676,197.61902 c -10.489294,-3.91107 -17.427859,-12.31267 -21.386179,-25.89555 -2.966314,-10.17884 -4.015476,-20.17633 -2.330428,-22.20668 2.675119,-3.22333 19.404012,-0.7143 30.685863,4.60231 12.47975,5.88113 19.329829,13.64237 19.539108,22.1381 0.253631,10.29622 -1.104683,11.25111 -10.829008,7.61278 -6.519991,-2.43944 -13.192188,-8.59364 -20.614665,-19.01424 -2.659067,-3.73313 -6.821417,-8.03183 -9.5,-9.8112 -4.338671,-2.88215 -4.794151,-2.99647 -5.065224,-1.27128 -0.536342,3.41344 2.701262,16.44119 5.37763,21.63898 3.356142,6.51798 9.815997,13.30799 14.920227,15.68279 2.537424,1.18057 6.296751,1.86908 10.281385,1.88301 4.766515,0.0167 6.426423,0.39992 6.882782,1.58918 0.330769,0.86197 0.13316,2.03545 -0.439132,2.60775 -1.724319,1.72431 -13.301876,2.01772 -17.522359,0.44405 z M 221,198.10524 c -1.57697,-0.43866 -2.5,-1.41719 -2.5,-2.65032 0,-1.71684 0.9134,-2.02244 7.5,-2.50936 8.48156,-0.62701 10.46341,-1.48799 16.7376,-7.27134 6.88037,-6.3421 13.19514,-21.09506 13.24762,-30.9499 0.0145,-2.71335 -0.047,-2.74315 -2.73522,-1.32704 -3.5224,1.85553 -12.06567,10.75229 -16.09714,16.76319 -1.71916,2.56327 -5.00864,6.27217 -7.30996,8.24201 C 225.70571,181.94376 216.71852,186 213.00949,186 c -2.47975,0 -3.96974,-5.17303 -3.27228,-11.36089 0.7046,-6.25118 8.49389,-14.94453 17.41756,-19.43911 11.12494,-5.6033 27.16875,-8.70277 31.91097,-6.16482 2.6931,1.44131 2.53521,7.33936 -0.51875,19.37844 -5.08921,20.06225 -16.17534,30.88112 -31.23981,30.4867 C 225.21323,198.8455 222.375,198.48771 221,198.10524 Z M 99.510905,191.63163 C 97.664159,190.28126 95.206906,183.20935 92.515829,171.5 88.469233,153.89254 88.132396,126.95309 91.855048,118.6522 92.879212,116.36849 97.153381,110.675 101.3532,106 c 4.19982,-4.675 7.63759,-9.175 7.63949,-10 0.003,-1.164358 -5.19297,-15.120705 -9.511194,-25.432437 C 99.141995,69.756851 99.68528,69 101.34487,69 c 3.02621,0 8.07807,4.847611 13.80829,13.25 2.15675,3.1625 4.24209,5.735859 4.6341,5.718575 2.43703,-0.107449 6.96197,-10.979224 9.6302,-23.137831 2.983,-13.592931 6.72894,-12.917213 8.6361,1.557836 2.19771,16.680299 0.22792,23.267458 -12.75831,42.66488 -12.76661,19.06938 -12.66658,18.82949 -11.99936,28.77797 0.33409,4.98145 1.74272,12.49667 3.31173,17.66857 3.36069,11.07776 4.03388,16.68976 2.23039,18.59355 -0.7359,0.77684 -3.48562,4.11108 -6.11049,7.40944 C 107.25023,188.38566 102.95454,193 102.02446,193 c -0.35321,0 -1.48431,-0.61577 -2.513555,-1.36837 z m 96.790915,-0.13278 C 192.25592,188.66499 180,172.30741 180,169.74134 c 0,-1.36444 0.9237,-5.35192 2.05267,-8.86107 3.16127,-9.82609 5.04802,-19.75319 5.06075,-26.62714 0.0108,-5.82956 -0.35112,-6.83159 -5.41785,-15 -2.98619,-4.81422 -7.71972,-12.06732 -10.51897,-16.11801 -2.79925,-4.050679 -6.29219,-10.512161 -7.76209,-14.358846 -2.47712,-6.482556 -2.62256,-7.698955 -1.98899,-16.635123 0.78866,-11.123564 2.04328,-16.723334 3.9071,-17.438549 2.03077,-0.779277 3.68376,2.759274 6.75199,14.453969 2.94284,11.216751 4.75627,15.636558 7.27244,17.724794 1.25184,1.038935 2.15662,0.252491 5.68205,-4.938942 C 190.41401,74.027524 196.44952,68 199,68 c 1.1,0 2,0.281707 2,0.626016 0,0.728394 -6.49098,17.391799 -8.57956,22.025113 C 191.6392,92.38425 191,94.592761 191,95.55893 c 0,0.966169 3.05996,5.17316 6.79992,9.34887 9.65957,10.78504 10.97478,12.97037 12.1444,20.17899 1.9121,11.78458 0.77387,33.90716 -2.41373,46.91321 -4.58993,18.72787 -6.81444,22.59076 -11.22877,19.49885 z"
       id="path17290"
       sodipodi:nodetypes="sssssssssssssssssssssssssssssssssscsssssssssssssssssssssssssssssssss"
       inkscape:label="path17290" />
  </g>
</svg>
