<?xml version="1.0" encoding="UTF-8" standalone="no"?>
<!-- Created with Inkscape (http://www.inkscape.org/) -->

<svg
   version="1.1"
   id="svg2"
   width="300"
   height="300"
   viewBox="0 0 300 300"
   sodipodi:docname="lord_hairacc.svg"
   inkscape:version="1.2.2 (732a01da63, 2022-12-09)"
   xmlns:inkscape="http://www.inkscape.org/namespaces/inkscape"
   xmlns:sodipodi="http://sodipodi.sourceforge.net/DTD/sodipodi-0.dtd"
   xmlns="http://www.w3.org/2000/svg"
   xmlns:svg="http://www.w3.org/2000/svg">
  <defs
     id="defs6">
    <filter
       inkscape:collect="always"
       style="color-interpolation-filters:sRGB"
       id="filter1837"
       x="-0.0360952"
       y="-0.0360952"
       width="1.0721904"
       height="1.0721904">
      <feGaussianBlur
         inkscape:collect="always"
         stdDeviation="1.9494"
         id="feGaussianBlur1839" />
    </filter>
    <filter
       inkscape:collect="always"
       style="color-interpolation-filters:sRGB"
       id="filter1841"
       x="-0.092051083"
       y="-0.057328181"
       width="1.1839308"
       height="1.1155247">
      <feGaussianBlur
         inkscape:collect="always"
         stdDeviation="1.9494"
         id="feGaussianBlur1843" />
    </filter>
  </defs>
  <sodipodi:namedview
     id="namedview4"
     pagecolor="#ffffff"
     bordercolor="#000000"
     borderopacity="0.25"
     inkscape:showpageshadow="2"
     inkscape:pageopacity="0.0"
     inkscape:pagecheckerboard="0"
     inkscape:deskcolor="#d1d1d1"
     showgrid="false"
     inkscape:zoom="2.8284271"
     inkscape:cx="105.18213"
     inkscape:cy="176.77669"
     inkscape:window-width="2560"
     inkscape:window-height="1369"
     inkscape:window-x="1912"
     inkscape:window-y="-8"
     inkscape:window-maximized="1"
     inkscape:current-layer="g8" />
  <g
     inkscape:groupmode="layer"
     inkscape:label="Image"
     id="g8">
    <rect
       style="display:none;mix-blend-mode:normal;fill:none;fill-opacity:1;stroke:#753f4b;stroke-width:12.3;stroke-dasharray:none;filter:url(#filter1837)"
       id="rect1004"
       width="300"
       height="300"
       x="0"
       y="0" />
    <path
       style="fill:none;fill-opacity:1;stroke:#753f4b;stroke-width:12.3;stroke-dasharray:none;filter:url(#filter1841)"
       d="m 136.59798,237.2814 c -3.44176,-0.88052 -14.7754,-10.55862 -21.24728,-18.14362 -7.78037,-9.11855 -11.8638,-16.95023 -10.88455,-20.8757 2.04393,-8.19349 25.25001,-30.57718 34.63043,-33.40319 5.00357,-1.50741 7.17112,-0.14878 16.97756,10.64163 13.42975,14.77729 19.93137,24.03786 19.89406,28.33607 -0.0175,2.01488 -0.58,4.37258 -1.25,5.23935 -3.10283,4.014 -34.5994,29.28679 -35.90246,28.80806 -0.17366,-0.0638 -1.17165,-0.33497 -2.21776,-0.6026 z M 151.5429,217.91648 C 163.91091,207.66331 166,205.51357 166,203.0397 c 0,-2.52285 -4.61189,-9.00637 -13.60695,-19.12902 -9.22287,-10.37903 -11.19062,-10.99151 -18.49301,-5.7561 -5.74662,4.12 -17.58994,16.29303 -18.43154,18.94465 -1.17835,3.71267 0.44421,8.29043 4.99084,14.08074 5.21764,6.64489 15.88067,15.82003 18.38548,15.82003 0.95754,0 6.67168,-4.08758 12.69808,-9.08352 z m -22.04794,-0.98702 c -8.5417,-8.28243 -12.13814,-14.23069 -11.10148,-18.36107 0.87869,-3.50097 14.73663,-17.30698 19.2758,-19.20357 4.30787,-1.79994 5.5556,-1.13221 12.83048,6.86633 C 157.97438,194.4493 162,200.34092 162,203.0621 c 0,1.21096 -1.52952,3.64427 -3.39894,5.40736 C 151.98668,214.70762 139.86036,224 138.33409,224 c -0.85098,0 -4.8286,-3.18174 -8.83913,-7.07054 z m 14.80542,-9.00945 C 147.43517,205.12602 150,202.44938 150,201.97193 150,199.89343 139.81185,189 137.86791,189 c -2.68959,0 -7.20675,3.26662 -10.51507,7.60406 -2.2395,2.93613 -2.47496,3.83251 -1.54361,5.87658 1.90869,4.18912 8.29198,10.51936 10.60751,10.51936 1.21076,0 4.72393,-2.26378 7.88364,-5.07999 z m 27.92881,-22.09082 c -2.06815,-2.06815 -3.25384,1.35579 16.2167,-46.82919 8.85624,-21.91711 12.65775,-30 14.10946,-30 2.08958,0 8.57272,10.49395 9.03335,14.62187 0.39861,3.57207 -0.98125,6.20627 -17.48429,33.37813 -9.85437,16.225 -18.53107,29.62563 -19.28154,29.77919 -0.75047,0.15355 -1.91763,-0.27395 -2.59368,-0.95 z M 164,177.24682 c 0,-1.23624 3.33006,-12.04449 13.78667,-44.74682 5.45175,-17.05 10.1861,-32.12798 10.52078,-33.506633 0.66496,-2.73926 0.6959,-2.688431 -14.80745,-24.331417 -4.95,-6.9103 -9.59927,-12.58618 -10.3317,-12.613066 -0.73244,-0.02689 -3.35966,1.612872 -5.83827,3.643908 l -3.64917,2.990215 c -0.64248,0.639882 -0.9186,0.629679 -1.66657,-0.261235 l -2.47785,-2.951405 -2.83397,-3.375583 c -0.35748,-0.415141 -0.9153,-0.199733 -1.14743,-0.05843 l -3.49232,2.420178 C 136.0306,68.636798 123.11195,81.73425 118.7725,88.069115 L 115.05228,93.5 116.51377,107 c 1.21536,11.22642 4.2331,41.5779 5.83735,58.71023 0.28695,3.06446 -0.0688,4.62927 -1.30718,5.75 -1.97499,1.78734 -3.65777,1.97362 -4.56522,0.50534 -1.40428,-2.27217 -7.21454,-51.56438 -8.15542,-69.18779 -0.60855,-11.398485 -0.55535,-11.828738 1.92644,-15.578975 3.83996,-5.802572 18.25282,-20.677438 25.027,-25.829243 9.33102,-7.096303 18.4959,-12.369892 21.49087,-12.366132 7.05047,0.0089 39.89897,37.851308 42.76362,49.264972 0.62593,2.493918 -1.07261,7.891098 -6.52442,20.731598 -2.55747,6.02354 -13.7007,33.98905 -16.53623,41.5 -5.41408,14.3412 -7.20386,17.5 -9.91555,17.5 C 165.14976,178 164,177.66107 164,177.24682 Z m -55,-0.6751 c 0,-0.23556 -3.37193,-13.39806 -7.49318,-29.25 -4.121254,-15.85195 -7.496254,-29.76951 -7.500004,-30.92792 -0.0096,-2.97617 6.774584,-11.58255 8.819794,-11.18868 2.02178,0.38936 2.28253,2.08789 5.6249,36.64099 C 111.23541,170.62584 111.51618,177 110,177 c -0.55,0 -1,-0.19273 -1,-0.42828 z m 48.45322,-7.66371 c -2.17427,-2.2509 -5.91181,-5.45435 -8.30564,-7.11878 -5.9118,-4.11049 -11.62468,-3.70554 -17.88094,1.84049 l -4.84126,4.29168 c -0.29339,0.26008 -1.61913,-12.21683 -2.93423,-25.06361 -1.3151,-12.84679 -3.04714,-28.95004 -3.84899,-35.78502 -0.80753,-6.88353 -1.10097,-13.351881 -0.65779,-14.500002 1.01173,-2.621014 25.07504,-26.71963 26.27957,-26.318121 0.49172,0.163908 1.63443,1.518235 2.53935,3.009616 1.63551,2.695475 1.61572,2.741721 -3.329,7.77631 l -4.00805,4.080904 c -1.0618,1.022266 -0.40853,2.033696 -0.40853,2.033696 l 2.95859,5.569569 c 1.93397,3.640703 4.02283,6.7883 4.64191,6.994661 1.33743,0.44581 13.3437,-10.425868 13.33751,-12.077116 -0.002,-0.628258 -1.3654,-3.167287 -3.02899,-5.642287 -3.92756,-5.41666 -3.69698,-3.859569 0.63986,-7.723177 1.21467,-1.082129 2.52607,-2.756085 3.83298,-2.699226 1.05939,0.04609 5.75292,6.5121 5.75292,6.5121 C 185.20129,95.033152 185,95.69418 185,98.592787 c 0,2.699243 -11.60535,39.900193 -19.85883,63.657483 l -3.73474,10.75028 z M 145.98904,87.75 c -1.08986,-1.7875 -1.98325,-3.611543 -1.9853,-4.053429 -0.007,-1.400075 5.44579,-7.696511 6.6647,-7.696542 C 152.06119,75.999994 156,82.094359 156,84.249345 156,85.594333 150.03594,91 148.55202,91 c -0.31978,0 -1.47312,-1.4625 -2.56298,-3.25 z"
       id="path948"
       sodipodi:nodetypes="sssssscsssssssssssssssssssssssssssssssssssssscccccsscssssssscssssssscssssssssssssssccssscssssscsscssss" />
    <path
       style="fill:#f6f6e1;fill-opacity:1"
       d="m 136.59798,237.2814 c -3.44176,-0.88052 -14.7754,-10.55862 -21.24728,-18.14362 -7.78037,-9.11855 -11.8638,-16.95023 -10.88455,-20.8757 2.04393,-8.19349 25.25001,-30.57718 34.63043,-33.40319 5.00357,-1.50741 7.17112,-0.14878 16.97756,10.64163 13.42975,14.77729 19.93137,24.03786 19.89406,28.33607 -0.0175,2.01488 -0.58,4.37258 -1.25,5.23935 -3.10283,4.014 -34.5994,29.28679 -35.90246,28.80806 -0.17366,-0.0638 -1.17165,-0.33497 -2.21776,-0.6026 z M 151.5429,217.91648 C 163.91091,207.66331 166,205.51357 166,203.0397 c 0,-2.52285 -4.61189,-9.00637 -13.60695,-19.12902 -9.22287,-10.37903 -11.19062,-10.99151 -18.49301,-5.7561 -5.74662,4.12 -17.58994,16.29303 -18.43154,18.94465 -1.17835,3.71267 0.44421,8.29043 4.99084,14.08074 5.21764,6.64489 15.88067,15.82003 18.38548,15.82003 0.95754,0 6.67168,-4.08758 12.69808,-9.08352 z m -22.04794,-0.98702 c -8.5417,-8.28243 -12.13814,-14.23069 -11.10148,-18.36107 0.87869,-3.50097 14.73663,-17.30698 19.2758,-19.20357 4.30787,-1.79994 5.5556,-1.13221 12.83048,6.86633 C 157.97438,194.4493 162,200.34092 162,203.0621 c 0,1.21096 -1.52952,3.64427 -3.39894,5.40736 C 151.98668,214.70762 139.86036,224 138.33409,224 c -0.85098,0 -4.8286,-3.18174 -8.83913,-7.07054 z m 14.80542,-9.00945 C 147.43517,205.12602 150,202.44938 150,201.97193 150,199.89343 139.81185,189 137.86791,189 c -2.68959,0 -7.20675,3.26662 -10.51507,7.60406 -2.2395,2.93613 -2.47496,3.83251 -1.54361,5.87658 1.90869,4.18912 8.29198,10.51936 10.60751,10.51936 1.21076,0 4.72393,-2.26378 7.88364,-5.07999 z m 27.92881,-22.09082 c -2.06815,-2.06815 -3.25384,1.35579 16.2167,-46.82919 8.85624,-21.91711 12.65775,-30 14.10946,-30 2.08958,0 8.57272,10.49395 9.03335,14.62187 0.39861,3.57207 -0.98125,6.20627 -17.48429,33.37813 -9.85437,16.225 -18.53107,29.62563 -19.28154,29.77919 -0.75047,0.15355 -1.91763,-0.27395 -2.59368,-0.95 z M 164,177.24682 c 0,-1.23624 3.33006,-12.04449 13.78667,-44.74682 5.45175,-17.05 10.1861,-32.12798 10.52078,-33.506633 0.66496,-2.73926 0.6959,-2.688431 -14.80745,-24.331417 -4.95,-6.9103 -9.59927,-12.58618 -10.3317,-12.613066 -0.73244,-0.02689 -3.35966,1.612872 -5.83827,3.643908 l -3.64917,2.990215 c -0.64248,0.639882 -0.9186,0.629679 -1.66657,-0.261235 l -2.47785,-2.951405 -2.83397,-3.375583 c -0.35748,-0.415141 -0.9153,-0.199733 -1.14743,-0.05843 l -3.49232,2.420178 C 136.0306,68.636798 123.11195,81.73425 118.7725,88.069115 L 115.05228,93.5 116.51377,107 c 1.21536,11.22642 4.2331,41.5779 5.83735,58.71023 0.28695,3.06446 -0.0688,4.62927 -1.30718,5.75 -1.97499,1.78734 -3.65777,1.97362 -4.56522,0.50534 -1.40428,-2.27217 -7.21454,-51.56438 -8.15542,-69.18779 -0.60855,-11.398485 -0.55535,-11.828738 1.92644,-15.578975 3.83996,-5.802572 18.25282,-20.677438 25.027,-25.829243 9.33102,-7.096303 18.4959,-12.369892 21.49087,-12.366132 7.05047,0.0089 39.89897,37.851308 42.76362,49.264972 0.62593,2.493918 -1.07261,7.891098 -6.52442,20.731598 -2.55747,6.02354 -13.7007,33.98905 -16.53623,41.5 -5.41408,14.3412 -7.20386,17.5 -9.91555,17.5 C 165.14976,178 164,177.66107 164,177.24682 Z m -55,-0.6751 c 0,-0.23556 -3.37193,-13.39806 -7.49318,-29.25 -4.121254,-15.85195 -7.496254,-29.76951 -7.500004,-30.92792 -0.0096,-2.97617 6.774584,-11.58255 8.819794,-11.18868 2.02178,0.38936 2.28253,2.08789 5.6249,36.64099 C 111.23541,170.62584 111.51618,177 110,177 c -0.55,0 -1,-0.19273 -1,-0.42828 z m 48.45322,-7.66371 c -2.17427,-2.2509 -5.91181,-5.45435 -8.30564,-7.11878 -5.9118,-4.11049 -11.62468,-3.70554 -17.88094,1.84049 l -4.84126,4.29168 c -0.29339,0.26008 -1.61913,-12.21683 -2.93423,-25.06361 -1.3151,-12.84679 -3.04714,-28.95004 -3.84899,-35.78502 -0.80753,-6.88353 -1.10097,-13.351881 -0.65779,-14.500002 1.01173,-2.621014 25.07504,-26.71963 26.27957,-26.318121 0.49172,0.163908 1.63443,1.518235 2.53935,3.009616 1.63551,2.695475 1.61572,2.741721 -3.329,7.77631 l -4.00805,4.080904 c -1.0618,1.022266 -0.40853,2.033696 -0.40853,2.033696 l 2.95859,5.569569 c 1.93397,3.640703 4.02283,6.7883 4.64191,6.994661 1.33743,0.44581 13.3437,-10.425868 13.33751,-12.077116 -0.002,-0.628258 -1.3654,-3.167287 -3.02899,-5.642287 -3.92756,-5.41666 -3.69698,-3.859569 0.63986,-7.723177 1.21467,-1.082129 2.52607,-2.756085 3.83298,-2.699226 1.05939,0.04609 5.75292,6.5121 5.75292,6.5121 C 185.20129,95.033152 185,95.69418 185,98.592787 c 0,2.699243 -11.60535,39.900193 -19.85883,63.657483 l -3.73474,10.75028 z M 145.98904,87.75 c -1.08986,-1.7875 -1.98325,-3.611543 -1.9853,-4.053429 -0.007,-1.400075 5.44579,-7.696511 6.6647,-7.696542 C 152.06119,75.999994 156,82.094359 156,84.249345 156,85.594333 150.03594,91 148.55202,91 c -0.31978,0 -1.47312,-1.4625 -2.56298,-3.25 z"
       id="path950"
       sodipodi:nodetypes="sssssscsssssssssssssssssssssssssssssssssssssscccccsscssssssscssssssscssssssssssssssccssscssssscsscssss" />
  </g>
</svg>
