<?xml version="1.0" encoding="UTF-8" standalone="no"?>
<!-- Created with Inkscape (http://www.inkscape.org/) -->

<svg
   version="1.1"
   id="svg2"
   width="300"
   height="300"
   viewBox="0 0 300 300"
   sodipodi:docname="lord_mask.svg"
   inkscape:version="1.2.2 (732a01da63, 2022-12-09)"
   xmlns:inkscape="http://www.inkscape.org/namespaces/inkscape"
   xmlns:sodipodi="http://sodipodi.sourceforge.net/DTD/sodipodi-0.dtd"
   xmlns="http://www.w3.org/2000/svg"
   xmlns:svg="http://www.w3.org/2000/svg">
  <defs
     id="defs6">
    <filter
       inkscape:collect="always"
       style="color-interpolation-filters:sRGB"
       id="filter2374"
       x="-0.060654371"
       y="-0.056873436"
       width="1.1213092"
       height="1.1149941">
      <feGaussianBlur
         inkscape:collect="always"
         stdDeviation="1.9494"
         id="feGaussianBlur2376" />
    </filter>
  </defs>
  <sodipodi:namedview
     id="namedview4"
     pagecolor="#ffffff"
     bordercolor="#000000"
     borderopacity="0.25"
     inkscape:showpageshadow="2"
     inkscape:pageopacity="0.0"
     inkscape:pagecheckerboard="0"
     inkscape:deskcolor="#d1d1d1"
     showgrid="false"
     inkscape:zoom="1.67"
     inkscape:cx="-41.616766"
     inkscape:cy="132.93413"
     inkscape:window-width="2560"
     inkscape:window-height="1369"
     inkscape:window-x="1912"
     inkscape:window-y="-8"
     inkscape:window-maximized="1"
     inkscape:current-layer="g8" />
  <g
     inkscape:groupmode="layer"
     inkscape:label="Image"
     id="g8">
    <path
       id="path2309"
       style="fill:none;stroke:#753f4b;filter:url(#filter2374);stroke-width:12.3;stroke-dasharray:none"
       d="M 149.63672 50.318359 C 135.68461 50.038918 116.10303 55.289632 102.30273 63.169922 C 87.757953 71.475331 72.26764 88.726253 68.558594 100.75 C 67.973136 102.6479 68.238662 103 70.248047 103 C 71.954614 103 73.072971 102.07195 74.191406 99.726562 C 77.395526 93.007454 88.307424 79.873367 95.107422 74.552734 C 104.72301 67.029055 111.12405 63.554876 121.78125 60.072266 C 140.45298 53.97063 155.69698 53.677815 172.67969 59.095703 C 192.95585 65.564292 209.0829 78.311999 220.94922 97.25 C 224.84758 103.47159 226.67264 104.9953 228.28906 103.37891 C 229.24407 102.4239 224.3058 93.237977 218.94727 86 C 202.99215 64.448861 180.96231 52.689529 152.34766 50.449219 C 151.47092 50.380577 150.56686 50.336989 149.63672 50.318359 z M 63.876953 107.17383 C 55.896415 107.39649 57.608363 111.20429 69.029297 118.77539 C 79.718249 125.86125 82.896463 131 76.589844 131 C 73.594058 131 67.688408 133.04107 66.806641 134.38086 C 65.855024 135.82679 67.893102 138.05661 71.570312 139.59375 C 73.258942 140.29962 82.708964 141.82989 92.570312 142.99609 C 102.43166 144.16229 112.975 145.48448 116 145.93359 C 125.07156 147.28042 130.63311 147.14642 131.95898 145.54883 C 134.39872 142.60912 124.60781 131.61485 111.72852 122.83203 C 99.097825 114.21874 82.659055 108.39461 67.890625 107.29883 C 66.355019 107.18489 65.01703 107.14202 63.876953 107.17383 z M 232.39258 107.99609 C 226.71824 108.09095 216.96224 109.35869 211.33984 110.94141 C 194.4786 115.68788 174.96731 128.16259 166.82617 139.40039 C 163.4128 144.11213 163.28316 145.79437 166.25 146.91406 C 167.4875 147.38104 169.85 147.58764 171.5 147.37305 C 173.15 147.15845 185.67749 145.63192 199.33789 143.98047 C 224.26326 140.96715 226.53461 140.46982 228.99609 137.50391 C 230.93437 135.16843 228.39092 133.00074 222.39648 131.88086 C 219.74905 131.38626 217.14139 130.54178 216.60352 130.00391 C 215.21322 128.61361 218.57424 125.33209 227.95898 118.91797 C 236.27477 113.23443 239.30231 109.43705 236.40234 108.32422 C 235.72258 108.06337 234.28402 107.96448 232.39258 107.99609 z M 63.173828 121.19727 C 61.692852 121.49177 61.183253 124.36048 60.419922 134.55273 C 59.133276 151.73242 64.229294 179.44836 71.421875 194.40234 C 82.844547 218.15106 102.93393 234.18103 128 239.54688 C 137.6358 241.60958 163.14357 240.83418 173.13672 238.17383 C 192.64913 232.97927 209.67074 220.72865 220.17969 204.32031 C 230.79412 187.74731 234.81298 173.12899 235.70508 147.85156 C 236.36986 129.01537 235.70912 123 232.97461 123 C 231.18067 123 231.07529 123.92822 231.11719 139.25 C 231.16665 157.33864 229.40892 170.95248 225.5332 182.49805 C 217.00583 207.90065 193.32615 229.08769 167.85352 234.10938 C 155.25334 236.59337 135.46078 236.30119 125 233.47656 C 100.38409 226.82978 81.860318 209.4508 72.416016 184.14258 C 67.60468 171.24948 65.681984 158.40598 65.583984 138.51367 C 65.510779 123.65411 65.296209 121.48971 63.871094 121.21484 C 63.616228 121.16569 63.385396 121.15519 63.173828 121.19727 z " />
    <path
       id="path2314"
       style="fill:#ce9e9a"
       d="M 149.63672 50.318359 C 135.6846 50.038917 116.10304 55.289624 102.30273 63.169922 C 87.757934 71.475339 72.267644 88.726241 68.558594 100.75 C 67.973136 102.6479 68.23866 103 70.248047 103 C 71.954616 103 73.07297 102.07195 74.191406 99.726562 C 77.395529 93.007447 88.307417 79.873372 95.107422 74.552734 C 104.72302 67.029047 111.12404 63.55488 121.78125 60.072266 C 140.453 53.970624 155.69697 53.677809 172.67969 59.095703 C 192.95587 65.564298 209.08289 78.31198 220.94922 97.25 C 224.84759 103.4716 226.67264 104.99531 228.28906 103.37891 C 229.24407 102.4239 224.30581 93.237984 218.94727 86 C 202.99214 64.448839 180.96234 52.689531 152.34766 50.449219 C 151.47092 50.380577 150.56686 50.336989 149.63672 50.318359 z M 63.173828 121.19727 C 61.69285 121.49177 61.183254 124.36047 60.419922 134.55273 C 59.133275 151.73243 64.229287 179.44834 71.421875 194.40234 C 82.844558 218.15108 102.9339 234.18103 128 239.54688 C 137.63581 241.60959 163.14356 240.83418 173.13672 238.17383 C 192.64915 232.97927 209.67073 220.72866 220.17969 204.32031 C 230.79413 187.74729 234.81298 173.12901 235.70508 147.85156 C 236.36986 129.01535 235.70912 123 232.97461 123 C 231.18067 123 231.07529 123.9282 231.11719 139.25 C 231.16665 157.33866 229.40892 170.95247 225.5332 182.49805 C 217.00582 207.90068 193.32618 229.08769 167.85352 234.10938 C 155.25333 236.59338 135.46079 236.30119 125 233.47656 C 100.38407 226.82977 81.860328 209.45083 72.416016 184.14258 C 67.604676 171.24947 65.681984 158.406 65.583984 138.51367 C 65.510779 123.65409 65.296211 121.48971 63.871094 121.21484 C 63.616228 121.16569 63.385396 121.15519 63.173828 121.19727 z " />
    <path
       id="path2316"
       style="fill:#f6f6e1"
       d="M 63.876953 107.17383 C 55.896407 107.39649 57.608352 111.20428 69.029297 118.77539 C 79.71826 125.86126 82.89647 131 76.589844 131 C 73.594055 131 67.688409 133.04107 66.806641 134.38086 C 65.855023 135.82679 67.893098 138.05661 71.570312 139.59375 C 73.258943 140.29962 82.708954 141.82989 92.570312 142.99609 C 102.43167 144.16229 112.975 145.48448 116 145.93359 C 125.07157 147.28042 130.6331 147.14642 131.95898 145.54883 C 134.39872 142.60912 124.60783 131.61486 111.72852 122.83203 C 99.097817 114.21873 82.65907 108.39461 67.890625 107.29883 C 66.355017 107.18489 65.017031 107.14202 63.876953 107.17383 z M 232.39258 107.99609 C 226.71824 108.09095 216.96224 109.35869 211.33984 110.94141 C 194.47858 115.68789 174.96732 128.16258 166.82617 139.40039 C 163.41279 144.11213 163.28316 145.79437 166.25 146.91406 C 167.4875 147.38104 169.85 147.58764 171.5 147.37305 C 173.15 147.15845 185.67748 145.63192 199.33789 143.98047 C 224.26328 140.96715 226.5346 140.46983 228.99609 137.50391 C 230.93437 135.16843 228.39092 133.00074 222.39648 131.88086 C 219.74904 131.38626 217.14139 130.54178 216.60352 130.00391 C 215.21322 128.61361 218.57423 125.3321 227.95898 118.91797 C 236.27477 113.23443 239.30231 109.43705 236.40234 108.32422 C 235.72258 108.06337 234.28402 107.96448 232.39258 107.99609 z " />
  </g>
</svg>
