<?xml version="1.0" encoding="UTF-8" standalone="no"?>
<!-- Created with Inkscape (http://www.inkscape.org/) -->

<svg
   version="1.1"
   id="svg2"
   width="300"
   height="300"
   viewBox="0 0 300 300"
   sodipodi:docname="quest_mask.svg"
   inkscape:version="1.2.2 (732a01da63, 2022-12-09)"
   xmlns:inkscape="http://www.inkscape.org/namespaces/inkscape"
   xmlns:sodipodi="http://sodipodi.sourceforge.net/DTD/sodipodi-0.dtd"
   xmlns="http://www.w3.org/2000/svg"
   xmlns:svg="http://www.w3.org/2000/svg">
  <defs
     id="defs6">
    <filter
       inkscape:collect="always"
       style="color-interpolation-filters:sRGB"
       id="filter2569"
       x="-0.0360952"
       y="-0.0360952"
       width="1.0721904"
       height="1.0721904">
      <feGaussianBlur
         inkscape:collect="always"
         stdDeviation="1.9494"
         id="feGaussianBlur2571" />
    </filter>
    <filter
       inkscape:collect="always"
       style="color-interpolation-filters:sRGB"
       id="filter2573"
       x="-0.071746748"
       y="-0.060688211"
       width="1.1434923"
       height="1.1213743">
      <feGaussianBlur
         inkscape:collect="always"
         stdDeviation="1.9494"
         id="feGaussianBlur2575" />
    </filter>
  </defs>
  <sodipodi:namedview
     id="namedview4"
     pagecolor="#ffffff"
     bordercolor="#000000"
     borderopacity="0.25"
     inkscape:showpageshadow="2"
     inkscape:pageopacity="0.0"
     inkscape:pagecheckerboard="0"
     inkscape:deskcolor="#d1d1d1"
     showgrid="false"
     inkscape:zoom="2.3617366"
     inkscape:cx="-65.417963"
     inkscape:cy="148.19603"
     inkscape:window-width="2560"
     inkscape:window-height="1369"
     inkscape:window-x="1912"
     inkscape:window-y="-8"
     inkscape:window-maximized="1"
     inkscape:current-layer="g8" />
  <g
     inkscape:groupmode="layer"
     inkscape:label="Image"
     id="g8">
    <rect
       style="display:none;fill:none;fill-opacity:1;stroke:#753f4b;stroke-width:12.3;stroke-dasharray:none;filter:url(#filter2569)"
       id="rect2462"
       width="300"
       height="300"
       x="0"
       y="0" />
    <path
       id="path847"
       style="display:inline;fill:none;fill-opacity:1;stroke:#753f4b;stroke-width:12.3;stroke-dasharray:none;filter:url(#filter2573)"
       inkscape:label="bg"
       d="M 146.79883 64.945312 C 145.21329 64.965795 143.6265 65.028708 142.04102 65.115234 C 141.55824 65.141576 141.07957 65.180497 140.59766 65.212891 C 139.50025 65.286647 138.40795 65.373672 137.31836 65.478516 C 136.75931 65.53231 136.20449 65.588491 135.64844 65.650391 C 134.56634 65.770816 133.49496 65.909735 132.42773 66.060547 C 131.93991 66.129491 131.4508 66.192345 130.9668 66.267578 C 129.4713 66.499976 127.99135 66.755193 126.54102 67.046875 C 126.49204 67.056726 126.44345 67.066254 126.39453 67.076172 C 124.94961 67.369093 123.5388 67.698078 122.15234 68.048828 C 121.70602 68.161749 121.27531 68.28546 120.83594 68.404297 C 119.86741 68.666219 118.91573 68.940089 117.98438 69.230469 C 117.51096 69.378074 117.04493 69.528715 116.58203 69.683594 C 115.67056 69.988525 114.7871 70.309744 113.91992 70.642578 C 113.52403 70.794526 113.12032 70.939955 112.73438 71.097656 C 111.51969 71.593957 110.34144 72.111543 109.23438 72.664062 C 107.97111 73.294536 106.74797 73.997262 105.54492 74.740234 C 105.3675 74.850032 105.18786 74.956052 105.01172 75.068359 C 103.82902 75.820783 102.67555 76.631421 101.54883 77.498047 C 101.43356 77.586937 101.31977 77.679425 101.20508 77.769531 C 98.798992 79.654905 96.516346 81.804769 94.347656 84.242188 C 88.233029 91.114496 83.003796 100.23246 78.378906 112 C 78.336 112.10917 78.319279 112.16457 78.277344 112.27148 C 78.249757 112.34182 78.238113 112.37788 78.210938 112.44727 C 74.869827 120.97849 74.614116 122.48304 74.205078 135.41211 C 74.015731 141.39711 74.098083 147.75649 74.402344 154.07422 C 74.858735 163.55082 75.813618 172.93351 77.099609 180.81641 C 78.385601 188.6993 80.002878 195.08219 81.78125 198.56055 C 82.130246 199.24316 82.64849 200.0639 83.306641 200.99219 C 83.30702 200.99272 83.306261 200.99361 83.306641 200.99414 C 86.597417 205.63562 93.369352 212.94554 99.800781 218.91016 C 99.80112 218.91047 99.802396 218.90984 99.802734 218.91016 C 101.08864 220.10271 102.35986 221.24213 103.58789 222.29492 C 103.58824 222.29522 103.58949 222.29462 103.58984 222.29492 C 104.81778 223.3476 106.0024 224.31534 107.11133 225.16406 C 110.28861 227.5958 113.53703 229.82287 116.80664 231.82031 C 120.07625 233.81776 123.36639 235.58645 126.625 237.10156 C 129.45882 238.41917 132.25928 239.50497 135.01172 240.42383 C 135.4238 240.56139 135.84452 240.73507 136.25391 240.86328 C 139.39877 241.84829 142.45962 242.55457 145.38672 242.96094 C 147.00154 243.18512 148.3727 243.32929 149.69336 243.36133 C 153.65535 243.45745 157.16748 242.5525 165.47852 239.82812 C 167.42838 239.18895 169.34809 238.48681 171.23828 237.7207 C 173.12902 236.95432 174.99238 236.12313 176.82812 235.22656 C 178.66335 234.33027 180.47285 233.36744 182.25781 232.33789 C 184.04327 231.30799 185.80504 230.21131 187.54492 229.04492 C 192.76417 225.54608 197.78972 221.42451 202.68359 216.64062 C 204.31535 215.04554 205.9321 213.37708 207.53711 211.63281 C 214.16653 204.4282 218.0001 197.94099 220.51953 188.00586 C 221.01539 186.05048 221.45794 183.95728 221.86328 181.70312 C 222.69397 177.08448 223.35991 171.77936 223.95508 165.5 C 224.21774 162.72878 224.42341 160.06973 224.59375 157.47266 C 224.64486 156.69102 224.6762 155.94027 224.71875 155.17383 C 224.82206 153.32065 224.90624 151.49989 224.95898 149.73242 C 224.9812 148.97886 224.99495 148.23457 225.00781 147.49609 C 225.0398 145.69945 225.04162 143.94708 225.01758 142.23633 C 225.00912 141.65534 225.00721 141.06361 224.99219 140.49219 C 224.93587 138.30737 224.83927 136.17834 224.68555 134.12695 C 224.68228 134.08367 224.68105 134.03736 224.67773 133.99414 C 224.33949 129.54667 223.75413 125.41333 222.9375 121.51953 C 222.8935 121.31033 222.84229 121.1062 222.79688 120.89844 C 222.42291 119.18324 221.99942 117.51434 221.52734 115.89258 C 221.4385 115.58779 221.35211 115.2802 221.25977 114.97852 C 220.77542 113.39438 220.24463 111.84905 219.66211 110.3457 C 219.63167 110.26715 219.60493 110.18577 219.57422 110.10742 C 216.08255 101.19957 210.86051 93.615921 203.63086 86.5 C 203.1354 86.012333 202.66732 85.598287 202.18164 85.134766 C 200.92502 83.935476 199.68634 82.804189 198.47656 81.755859 C 198.43488 81.719709 198.39321 81.686373 198.35156 81.650391 C 197.18116 80.640009 196.01544 79.684316 194.86328 78.800781 C 194.77146 78.730262 194.67968 78.665472 194.58789 78.595703 C 193.47521 77.751344 192.3562 76.946878 191.23633 76.207031 C 191.11585 76.127249 190.9918 76.057177 190.87109 75.978516 C 189.7807 75.269698 188.67852 74.587973 187.55859 73.964844 C 187.36068 73.854365 187.15233 73.758415 186.95312 73.650391 C 185.89222 73.077097 184.81854 72.51893 183.71094 72.009766 C 183.40758 71.869741 183.08305 71.74699 182.77539 71.611328 C 181.75127 71.161649 180.72272 70.712887 179.64258 70.306641 C 179.05478 70.084656 178.41776 69.888375 177.81055 69.677734 C 176.95497 69.382095 176.11992 69.075081 175.2207 68.798828 C 173.67318 68.321977 172.06053 67.870491 170.36133 67.439453 C 168.791 67.041108 167.1498 66.709769 165.48242 66.408203 C 165.04484 66.329048 164.60739 66.254214 164.16406 66.181641 C 162.48336 65.906514 160.77884 65.660161 159.0293 65.478516 C 157.26166 65.294992 155.45646 65.175925 153.64062 65.085938 C 153.18559 65.063374 152.73258 65.044108 152.27539 65.027344 C 150.46009 64.960795 148.63444 64.9216 146.79883 64.945312 z M 91.533203 154.66797 C 92.561522 154.74201 94.965628 155.27592 97.75 156.07227 C 101.4625 157.13406 107.2 158.47482 110.5 159.05273 C 117.39848 160.26084 119.46554 160.66907 119.41992 161.56445 C 119.41041 161.75116 119.31961 161.95789 119.1582 162.19727 C 118.9968 162.43664 118.76479 162.70864 118.47461 163.0293 C 117.95152 163.6073 116.73613 164.26748 115.30664 164.84766 C 114.2228 165.28713 113.0252 165.6858 111.85156 165.9375 C 110.35177 166.25915 108.97654 166.48513 107.69727 166.62891 C 107.25438 166.68191 106.84756 166.70355 106.42773 166.73633 C 105.597 166.79524 104.79361 166.82907 104.04297 166.8125 C 104.04231 166.81249 104.04168 166.81251 104.04102 166.8125 C 98.696746 166.69408 95.425897 164.51176 93.140625 159.79102 C 91.962885 157.35813 91 155.09144 91 154.75391 C 91 154.66952 91.19043 154.64329 91.533203 154.66797 z M 207.31836 154.91602 C 207.75765 154.91146 208 154.97363 208 155.10742 C 208 158.12498 203.57375 164.28045 200.47266 165.57617 C 199.74275 165.88114 199.0397 166.11215 198.33789 166.30859 C 196.759 166.75055 195.19096 166.91442 193.4043 166.8125 C 193.33924 166.80865 193.2766 166.80927 193.21094 166.80469 C 192.41275 166.75085 191.55134 166.62648 190.64062 166.46484 C 189.47473 166.25624 188.2356 165.98626 186.80664 165.60156 C 185.67135 165.29593 184.66179 164.94888 183.74219 164.5918 C 183.04824 164.32102 182.39827 164.04374 181.85547 163.75977 C 181.82024 163.74147 181.79042 163.7234 181.75586 163.70508 C 180.52927 163.04975 179.72271 162.38023 179.48828 161.78125 C 179.38049 161.50583 179.35176 161.24061 179.49805 161.00391 C 179.75972 160.58051 182.38647 159.93296 185.33594 159.56445 C 188.28539 159.19594 194.5918 157.82268 199.34961 156.51367 C 202.91796 155.53192 206.0005 154.92968 207.31836 154.91602 z " />
    <path
       style="display:inline;fill:#ce9e9a;fill-opacity:1"
       d="M 145.3872,242.96168 C 133.68091,241.33651 119.81975,234.89167 107.11061,225.16472 98.236239,218.3727 84.572333,204.02181 81.780357,198.56092 77.038028,189.2853 73.446881,159.35203 74.204272,135.41202 74.621647,122.21943 74.837487,121.00873 78.378107,112 86.371674,91.661217 96.152144,79.192864 109.23441,72.663722 c 15.49859,-7.735091 42.22368,-10.019173 61.12606,-5.22419 14.03604,3.560532 22.37723,8.339252 33.2698,19.060468 18.5909,18.29844 24.06299,39.56711 20.32545,79 -2.36122,24.91209 -5.81106,34.60573 -16.41815,46.13312 -12.83735,13.95114 -26.45487,23.07996 -42.05844,28.19486 -11.08139,3.63251 -13.63265,4.03043 -20.09193,3.1337 z m -33.53568,-77.02326 c 2.72247,-0.58386 5.70249,-1.89311 6.62225,-2.90943 1.97204,-2.17909 1.80161,-2.26407 -7.97377,-3.97599 -3.3,-0.57791 -9.0375,-1.91949 -12.75,-2.98129 -3.7125,-1.0618 -6.75,-1.65438 -6.75,-1.31685 0,0.33753 0.963605,2.60423 2.141346,5.03712 3.236026,6.68474 8.356594,8.36689 18.710174,6.14644 z m 88.62168,-0.36278 c 3.1011,-1.29572 7.5268,-7.45139 7.5268,-10.46895 0,-0.53515 -3.89275,0.098 -8.65056,1.40701 -4.75781,1.30901 -11.06375,2.68152 -14.01321,3.05003 -2.94947,0.36851 -5.57676,1.01644 -5.83843,1.43984 -0.79403,1.28475 2.35046,3.26305 7.308,4.59769 6.26921,1.68777 9.58155,1.68156 13.6674,-0.0256 z"
       id="path2405"
       inkscape:label="bg" />
    <path
       id="path2407"
       style="display:inline;fill:#f6f6e1;fill-opacity:1"
       inkscape:label="fg"
       d="M 146.79883 64.945312 C 132.99221 65.123669 118.92098 67.829635 109.23438 72.664062 C 103.72121 75.41559 98.801419 79.236546 94.347656 84.242188 C 95.152898 84.663897 96.681177 85.453161 97.902344 85.958984 C 101.47515 87.438889 113.47753 99.405676 119.50781 107.5 C 126.3609 116.69876 128.69265 122.58904 131.4707 137.71289 C 132.86362 145.29603 134.71584 154.7291 135.58594 158.67578 C 137.16433 165.83519 137.1809 165.86086 143.2832 169.87109 L 149.40039 173.89062 L 154.2793 171.19531 C 161.15958 167.39499 164 164.54681 164 161.44727 C 164 155.9924 169.21229 130.28549 171.43359 124.7832 C 176.73521 111.65092 192.33248 90.94601 200.5 86.199219 C 200.5 86.199219 201.44723 85.59766 202.18164 85.134766 C 191.9898 75.407909 183.75891 70.838027 170.36133 67.439453 C 163.27294 65.641336 155.0828 64.838299 146.79883 64.945312 z M 149.89453 78.523438 C 150.448 78.524347 151.22872 78.886169 152.48633 80.136719 C 154.81361 82.450944 158.66176 86.289564 162.82031 90.458984 C 172.9643 100.62948 174.06399 103.00835 173.18945 104.61914 C 172.62808 105.65312 167.47002 111.11251 161.72852 116.75 C 155.98702 122.38749 152.00209 127.74805 149.91602 127.74805 C 148.02256 127.74805 125.9453 105.99837 125.73828 102.96875 C 125.54178 100.09305 147.25873 79.859975 148.66992 79.074219 C 149.01476 78.882212 149.34106 78.522528 149.89453 78.523438 z M 217.08984 109.48242 C 213.20626 109.25502 207.93538 111.77496 200.77148 116.60547 C 188.69734 124.74689 185.37767 128.5571 179.16406 141.40234 C 173.7555 152.58334 172.18096 156.88431 170.54492 164.94727 C 169.46431 170.27282 169.22619 170.55697 159.84766 177.76367 L 150.94531 184.60547 C 150.54879 184.9283 150.03894 185.02499 149.54492 184.63086 L 140.20312 178.04688 C 134.9006 174.30905 131.82299 172.4335 130.44727 170.69922 C 129.83674 169.92958 129.75216 168.86936 129.63086 168.23047 C 126.77192 153.17281 125.20622 147.93537 121.0957 139.70312 C 117.05677 131.61424 115.53163 129.66813 108.5 123.63086 C 97.310689 114.02385 91.784532 111.02147 85.273438 111.00977 C 82.726729 111.00519 80.358564 111.27505 78.277344 112.27148 C 74.858725 120.9872 74.617395 122.3794 74.205078 135.41211 C 73.447688 159.3521 77.038926 189.28494 81.78125 198.56055 C 84.573223 204.02143 98.236966 218.37205 107.11133 225.16406 C 119.82046 234.891 133.68044 241.33577 145.38672 242.96094 C 151.84599 243.85767 154.39714 243.46063 165.47852 239.82812 C 181.08207 234.71323 194.69977 225.58394 207.53711 211.63281 C 218.14419 200.10543 221.59386 190.41207 223.95508 165.5 C 226.23916 141.40186 225.06129 124.1059 219.57422 110.10742 C 218.81444 109.75167 217.99338 109.53533 217.08984 109.48242 z M 82.789062 139 C 86.571972 139 96.290284 142.12024 102.95117 145.47461 C 110.96837 149.51202 115.42497 153.14749 117.91602 158.23828 L 119.51953 161.51367 L 119.41992 161.56445 C 119.4009 161.93786 119.05498 162.38799 118.47461 163.0293 C 117.55485 164.04562 114.57403 165.35364 111.85156 165.9375 C 108.80966 166.58987 106.26441 166.86177 104.04102 166.8125 C 95.767388 167.08541 90.642366 163.22151 84.945312 151.89062 C 80.608649 143.26543 79.894238 139 82.789062 139 z M 216.35938 139.01172 C 218.97531 139.00086 219.15906 139.23327 218.54492 141.75 C 217.19677 147.2746 212.78103 157.05883 209.41992 160.41992 C 207.28404 162.5558 204.52586 164.98113 201.70508 165.69141 C 200.65479 165.95587 199.45343 166.14476 198.33789 166.30859 C 195.11117 167.2118 191.95589 166.98782 186.80664 165.60156 C 182.76247 164.51282 179.96556 163.00074 179.48828 161.78125 C 178.83308 161.20577 178.74734 160.50246 179.71875 158.81055 C 184.68859 150.15449 205.22553 139.05792 216.35938 139.01172 z M 84.556641 163.37109 C 84.639951 163.32752 84.735441 163.33661 84.841797 163.40234 C 85.478796 163.79603 86.09375 165.54297 86.09375 165.54297 C 86.895277 167.78729 91.898124 173.74193 96.248047 175.48242 C 101.51819 177.59112 108.98697 176.84689 115.46289 173.56836 C 119.85715 171.3437 120 171.33306 120 173.23438 C 120 175.77731 115.16311 180.25796 109.41406 183.04102 C 106.87373 184.27077 102.14451 185.44161 98.685547 185.69727 C 91.696748 186.21383 89.065875 184.96306 86.429688 179.86523 C 84.585437 176.29885 83.30699 164.02463 84.556641 163.37109 z M 215.33203 164.20898 C 216.49957 164.51755 216.02657 166.46939 215.63672 170.19922 C 214.88017 177.43748 212.31004 182.99159 208.91016 184.73438 C 203.55828 187.47774 193.67699 185.69879 185.98047 180.60547 C 182.34758 178.20134 178.46146 172.87253 179.54883 171.78516 C 179.80696 171.52703 182.37661 172.48231 185.25781 173.9082 C 192.74583 177.61398 202.2192 177.59562 207.10742 173.86719 C 209.0057 172.4193 211.43438 169.6068 212.50586 167.61719 C 213.85769 165.10699 214.76434 164.05895 215.33203 164.20898 z M 212.14453 189.4668 C 212.72952 189.73464 212.46194 191.40535 212.08789 193.25 C 211.53849 195.95942 210.93641 196.53827 208.46484 196.73242 C 205.45669 196.96872 198.42967 194.31486 199.51172 192.91797 C 199.51172 192.91797 199.75442 192.34275 200.17578 192.25195 C 201.05033 192.0636 202.70091 192.20286 204 192.09375 C 205.925 191.93207 208.25725 191.39524 209.18359 190.90039 C 210.50258 190.19578 211.66174 189.24577 212.14453 189.4668 z M 87.943359 189.67578 C 88.416006 189.7521 89.055834 190.011 89.873047 190.43359 C 91.453336 191.25079 94.37834 192.02972 96.373047 192.16406 C 100.77033 192.4602 100.97107 193.44633 97.048828 195.47461 C 92.479131 197.83769 89.12203 197.45349 87.974609 194.43555 C 86.616388 190.86315 86.525418 189.44682 87.943359 189.67578 z " />
  </g>
</svg>
