<?xml version="1.0" encoding="UTF-8" standalone="no"?>
<!-- Created with Inkscape (http://www.inkscape.org/) -->

<svg
   version="1.1"
   id="svg2"
   width="300"
   height="300"
   viewBox="0 0 300 300"
   sodipodi:docname="princess_mask.svg"
   inkscape:version="1.2.2 (732a01da63, 2022-12-09)"
   xmlns:inkscape="http://www.inkscape.org/namespaces/inkscape"
   xmlns:sodipodi="http://sodipodi.sourceforge.net/DTD/sodipodi-0.dtd"
   xmlns="http://www.w3.org/2000/svg"
   xmlns:svg="http://www.w3.org/2000/svg">
  <defs
     id="defs6">
    <filter
       inkscape:collect="always"
       style="color-interpolation-filters:sRGB"
       id="filter1735"
       x="-0.064343904"
       y="-0.061362248"
       width="1.1295391"
       height="1.122723">
      <feGaussianBlur
         inkscape:collect="always"
         stdDeviation="1.9494"
         id="feGaussianBlur1737" />
    </filter>
    <filter
       inkscape:collect="always"
       style="color-interpolation-filters:sRGB"
       id="filter1739"
       x="-0.0360952"
       y="-0.0360952"
       width="1.0721904"
       height="1.0721904">
      <feGaussianBlur
         inkscape:collect="always"
         stdDeviation="1.9494"
         id="feGaussianBlur1741" />
    </filter>
  </defs>
  <sodipodi:namedview
     id="namedview4"
     pagecolor="#ffffff"
     bordercolor="#000000"
     borderopacity="0.25"
     inkscape:showpageshadow="2"
     inkscape:pageopacity="0.0"
     inkscape:pagecheckerboard="0"
     inkscape:deskcolor="#d1d1d1"
     showgrid="false"
     inkscape:zoom="1.67"
     inkscape:cx="20.05988"
     inkscape:cy="47.305389"
     inkscape:window-width="2560"
     inkscape:window-height="1369"
     inkscape:window-x="1912"
     inkscape:window-y="-8"
     inkscape:window-maximized="1"
     inkscape:current-layer="g8" />
  <g
     inkscape:groupmode="layer"
     inkscape:label="Image"
     id="g8">
    <rect
       style="display:none;mix-blend-mode:normal;fill:none;fill-opacity:0.977716;stroke:#753f4b;stroke-width:12.3;stroke-dasharray:none;filter:url(#filter1739)"
       id="rect1733"
       width="300"
       height="300"
       x="6.1500001"
       y="6.1500001" />
    <path
       id="path899"
       style="display:inline;mix-blend-mode:normal;fill:none;fill-opacity:0.977716;stroke:#753f4b;stroke-width:12.3;stroke-dasharray:none;filter:url(#filter1735)"
       d="m 155.08008,61.173828 c -18.8454,-0.212039 -37.99137,3.623118 -50.92578,11.023438 -26.556768,15.194243 -41.762571,48.504254 -38.130862,83.527344 4.604964,44.40887 28.560702,74.96415 63.740232,81.29883 2.60513,0.4691 12.16134,0.72722 21.23633,0.57422 15.32216,-0.25833 17.16202,-0.49649 25.78125,-3.3418 12.08896,-3.99069 21.6283,-9.84953 30.75586,-18.88867 11.39169,-11.28133 20.28468,-28.14812 24.05664,-45.625 5.33839,-24.73478 0.75651,-59.8818 -10.14648,-77.830081 -6.79487,-11.185546 -20.2116,-21.345131 -34.17579,-25.880859 -9.68525,-3.145881 -20.88416,-4.730198 -32.1914,-4.857422 z m 40.83203,84.416012 c 1.25829,-0.0953 2.08325,0.005 2.38672,0.3086 1.74197,1.74197 -0.2443,5.90539 -3.89258,8.16015 -2.53974,1.56964 -5.55281,2.31831 -10.25195,2.55079 -10.01597,0.4955 -17.00812,-2.47877 -17.42578,-6.9043 -0.0748,-0.79313 0.0221,-1.96652 0.94336,-2.25781 1.00006,-0.31619 2.3981,0.19074 3.44335,0.30468 1.32097,0.14404 2.34339,0.29111 4.74024,0.28711 4.81249,-0.008 11.53454,-0.74953 15.06641,-1.58203 2.04013,-0.48088 3.73194,-0.77193 4.99023,-0.86719 z m -96.218751,0.0801 c 0.847311,-0.15455 2.171411,0.0385 4.080081,0.49805 7.89513,1.90093 9.6029,1.65166 14.50976,1.65234 3.35459,4.6e-4 6.17489,-0.42836 8.12891,-0.58398 3.0491,-0.24284 3.54715,0.30517 3.79101,1.02539 0.46807,1.38236 -1.78418,4.08628 -5.27343,5.82617 v -0.002 c -4.89968,2.3546 -10.73769,2.88874 -16.31836,1.64258 -4.4443,-0.99242 -10.134768,-5.65794 -10.134768,-8.47266 0,-0.92857 0.36949,-1.43139 1.216797,-1.58594 z" />
    <path
       style="display:inline;fill:#ce9e9a;fill-opacity:0.977716"
       d="M 129.76339,237.02253 C 94.583823,230.68785 70.628255,200.13348 66.023286,155.72456 62.391574,120.70144 77.598009,87.39176 104.1548,72.197501 c 20.69508,-11.840523 57.28945,-14.555458 83.11681,-6.166434 13.9642,4.535733 27.38061,14.69627 34.17548,25.881828 10.90301,17.948295 15.48508,53.094825 10.14668,77.829625 -3.77196,17.4769 -12.66539,34.34351 -24.05709,45.62485 -9.12757,9.03915 -18.66591,14.89699 -30.75488,18.88768 -8.61924,2.84531 -10.45962,3.08388 -25.7818,3.34221 -9.075,0.153 -18.63148,-0.10563 -21.23661,-0.57473 z m -4.83348,-82.93557 c 3.48926,-1.73989 5.74172,-4.44304 5.27365,-5.8254 -0.24387,-0.72022 -0.74201,-1.26811 -3.79111,-1.02527 -1.95402,0.15562 -4.77524,0.58479 -8.12983,0.58433 -4.90687,-6.8e-4 -6.61353,0.24836 -14.50867,-1.65257 -3.817335,-0.9191 -5.297902,-0.76991 -5.297902,1.08723 0,2.81472 5.690682,7.48132 10.134982,8.47374 5.58068,1.24617 11.4192,0.71233 16.31888,-1.64227 z m 69.47669,-0.0292 c 3.64828,-2.25477 5.63373,-6.4174 3.89176,-8.15937 -0.60693,-0.60693 -3.2965,-0.40333 -7.37678,0.55844 -3.53187,0.8325 -10.25323,1.57324 -15.06573,1.58135 -2.39685,0.004 -3.41906,-0.14289 -4.74003,-0.28693 -1.04526,-0.11394 -2.44382,-0.62097 -3.44389,-0.30478 -0.92129,0.29129 -1.01811,1.4651 -0.94326,2.25823 0.41766,4.42554 7.41027,7.40072 17.42625,6.90521 4.69915,-0.23248 7.71194,-0.98251 10.25168,-2.55215 z"
       id="path1676"
       sodipodi:nodetypes="ssssssssssssssssscssssssssss" />
    <path
       style="display:inline;fill:#f6f6e1"
       d="M 93.313822,168.11459 C 89.285531,165.57642 88,163.16516 88,158.14753 c 0,-7.71324 2.133143,-9.22998 5.5,-3.9107 2.931318,4.63117 10.32028,8.04165 18.86475,8.7073 3.92439,0.30573 7.09206,1.00587 7.03928,1.55587 -0.44567,4.64371 -20.128995,7.37068 -26.090208,3.61459 z m 89.289198,0.45863 c -2.14333,-0.79123 -4.58573,-2.12735 -5.42754,-2.96917 -1.95426,-1.95426 -1.0402,-2.285 8.03472,-2.90725 7.60719,-0.52161 14.31421,-3.78195 17.98003,-8.74022 1.20224,-1.62612 2.51636,-2.95658 2.92028,-2.95658 1.34639,0 3.05561,6.96719 2.4196,9.86292 -0.34501,1.5708 -1.98278,4.15465 -3.6395,5.74189 -2.71715,2.60319 -3.76544,2.91141 -10.70142,3.14645 -4.8345,0.16383 -9.13598,-0.27353 -11.58617,-1.17804 z m -39.87089,-45.10927 c -2.05267,-1.39483 -3.7304,-3.08233 -3.72828,-3.75 0.002,-0.66767 2.07627,-2.89098 4.60922,-4.94068 5.04315,-4.08099 5.23255,-4.06324 11.29898,1.05883 3.98745,3.36672 3.73479,5.19333 -1.12847,8.15844 -4.32395,2.63629 -6.55316,2.53008 -11.05145,-0.52659 z M 128.5,113.84527 c -5.04812,-2.76111 -5.90474,-7.53144 -2.04545,-11.39072 1.35,-1.35 3.4481,-2.45455 4.66245,-2.45455 2.70834,0 11.883,5.74189 11.883,7.43688 0,1.928 -7.62855,7.56647 -10.19136,7.53271 -1.26975,-0.0167 -3.20864,-0.52267 -4.30864,-1.12432 z m 29.25,-2.18134 C 155.6875,109.80719 154,107.82015 154,107.24827 154,105.69641 163.33884,100 165.883,100 c 1.21435,0 3.31245,1.10455 4.66245,2.45455 4.77777,4.77776 2.05305,11.31426 -5.05567,12.12835 -3.45237,0.39537 -4.49489,0.002 -7.73978,-2.91897 z M 141.76836,99.686129 c -2.60241,-1.752371 -4.73991,-3.568085 -4.75,-4.034919 -0.0101,-0.466835 1.32087,-2.099816 2.9577,-3.628847 5.15395,-4.814508 11.89858,-4.810164 17.05964,0.01099 1.63037,1.522988 2.95621,3.151025 2.94633,3.61786 -0.0279,1.317762 -9.74353,7.356597 -11.72042,7.284917 -0.96888,-0.0351 -3.89085,-1.49763 -6.49325,-3.249998 z"
       id="path1678" />
  </g>
</svg>
