<?xml version="1.0" encoding="UTF-8" standalone="no"?>
<!-- Created with Inkscape (http://www.inkscape.org/) -->

<svg
   version="1.1"
   id="svg2"
   width="300"
   height="300"
   viewBox="0 0 300 300"
   sodipodi:docname="deer_mask.svg"
   inkscape:version="1.2.2 (732a01da63, 2022-12-09)"
   xmlns:inkscape="http://www.inkscape.org/namespaces/inkscape"
   xmlns:sodipodi="http://sodipodi.sourceforge.net/DTD/sodipodi-0.dtd"
   xmlns="http://www.w3.org/2000/svg"
   xmlns:svg="http://www.w3.org/2000/svg">
  <defs
     id="defs6">
    <filter
       inkscape:collect="always"
       style="color-interpolation-filters:sRGB"
       id="filter1786"
       x="-0.0155952"
       y="-0.0155952"
       width="1.0311904"
       height="1.0311904">
      <feGaussianBlur
         inkscape:collect="always"
         stdDeviation="1.9494"
         id="feGaussianBlur1788" />
    </filter>
    <filter
       inkscape:collect="always"
       style="color-interpolation-filters:sRGB"
       id="filter1790"
       x="-0.065962314"
       y="-0.061326202"
       width="1.1310778"
       height="1.1231373">
      <feGaussianBlur
         inkscape:collect="always"
         stdDeviation="1.9494"
         id="feGaussianBlur1792" />
    </filter>
  </defs>
  <sodipodi:namedview
     id="namedview4"
     pagecolor="#ffffff"
     bordercolor="#000000"
     borderopacity="0.25"
     inkscape:showpageshadow="2"
     inkscape:pageopacity="0.0"
     inkscape:pagecheckerboard="0"
     inkscape:deskcolor="#d1d1d1"
     showgrid="false"
     inkscape:zoom="3.34"
     inkscape:cx="17.215569"
     inkscape:cy="142.21557"
     inkscape:window-width="2560"
     inkscape:window-height="1369"
     inkscape:window-x="1912"
     inkscape:window-y="-8"
     inkscape:window-maximized="1"
     inkscape:current-layer="g8" />
  <g
     inkscape:groupmode="layer"
     inkscape:label="Image"
     id="g8">
    <rect
       style="display:none;fill:#f6f6e1;fill-opacity:0.994429;stroke:none;stroke-width:12.3;stroke-dasharray:none;filter:url(#filter1786)"
       id="rect1731"
       width="300"
       height="300"
       x="0"
       y="0" />
    <path
       id="path1573"
       style="display:inline;fill:none;fill-opacity:0.994429;stroke:#753f4b;stroke-width:12.3;stroke-dasharray:none;filter:url(#filter1790)"
       inkscape:label="stroke"
       d="M 150.14062 60.162109 C 134.93212 60.127594 124.99961 61.818382 113.88281 66.105469 C 98.432991 72.063552 87.704226 80.996164 78.150391 95.855469 C 56.93631 128.85022 62.343982 183.18241 89.933594 214.23242 C 95.445257 220.43539 109.99591 230.09914 117.25781 232.38086 C 120.42428 233.37577 126.49929 234.80763 130.75781 235.56055 C 143.00619 237.72606 162.38265 236.80593 173.46289 233.5332 C 201.46105 225.26347 220.98663 204.7735 229.45703 174.77539 C 236.30798 150.51261 233.73671 116.75992 223.39648 95.197266 C 218.2878 84.54402 207.48777 73.725932 196.87891 68.638672 C 184.3813 62.645711 175.81004 60.849932 157 60.28125 C 154.59313 60.208483 152.31327 60.16704 150.14062 60.162109 z M 200.17969 143.76367 C 201.16711 143.77944 201.66566 144.09739 202.18945 144.72852 C 203.97915 146.88497 201.3317 151.07942 196.76367 153.32031 C 191.13405 156.08197 183.47402 156.40016 177.12891 154.13867 C 171.59254 152.16542 170.04212 150.77363 170.01562 147.75 C 170.00839 146.92258 170.21628 146.03056 171.83398 145.79492 C 173.24084 145.59 176.60224 146.40248 180.61133 146.39648 C 185.97382 146.38789 192.082 145.3619 195.23828 144.61914 C 197.71645 144.03596 199.19227 143.7479 200.17969 143.76367 z M 95.341797 144.36328 C 96.30553 144.40441 97.503027 144.58549 98.953125 144.89648 C 101.78324 145.50343 108.32478 146 113.49023 146 C 116.39653 146 119.58931 145.45163 121.39844 145.66016 C 122.9789 145.84233 123.35295 146.76079 123.52734 147.04297 C 124.43728 148.51528 122.26831 150.822 117.85742 153.07227 C 112.53951 155.78526 104.81105 155.59041 98.345703 152.58008 C 95.201081 151.11591 92.920427 149.32718 92.496094 147.99023 C 91.664815 145.3711 92.450599 144.2399 95.341797 144.36328 z " />
    <path
       style="display:inline;fill:#ce9e9a;fill-opacity:0.994429"
       d="m 130.75722,235.55962 c -4.25853,-0.75292 -10.33353,-2.18296 -13.5,-3.17787 C 109.99531,230.10003 95.446192,220.43597 89.934523,214.233 62.344884,183.18296 56.93618,128.85035 78.150282,95.855562 87.704127,80.996242 98.433333,72.063388 113.88317,66.105299 126.58809,61.205766 137.74506,59.69859 157,60.280723 c 18.81006,0.568683 27.38054,2.364935 39.87816,8.357902 10.60887,5.087265 21.4104,15.904559 26.51909,26.557815 10.34024,21.56268 12.91038,55.31701 6.05942,79.57981 -8.47041,29.99814 -27.99571,50.48676 -55.9939,58.7565 -11.08025,3.27273 -30.45716,4.19239 -42.70555,2.02687 z m 66.00571,-82.24015 c 4.56803,-2.24089 7.2171,-6.43368 5.4274,-8.59014 -1.04759,-1.26226 -1.9953,-1.2774 -6.95164,-0.11104 -3.15628,0.74276 -9.26541,1.76918 -14.62791,1.77777 -4.00909,0.006 -7.37074,-0.80661 -8.7776,-0.60169 -1.61771,0.23564 -1.82511,1.12821 -1.81787,1.95563 0.0265,3.02363 1.5769,4.41633 7.11327,6.38958 6.34512,2.26149 14.00472,1.94155 19.63435,-0.82011 z m -78.90619,-0.24638 c 4.41089,-2.25027 6.58027,-4.55698 5.67033,-6.02929 -0.17439,-0.28218 -0.54818,-1.2018 -2.12864,-1.38397 C 119.5893,145.4513 116.3965,146 113.4902,146 c -5.16546,0 -11.70731,-0.4966 -14.53743,-1.10355 -5.800396,-1.24396 -7.564356,-0.39875 -6.455983,3.09343 0.424334,1.33695 2.704712,3.12672 5.849337,4.59089 6.465356,3.01033 14.192696,3.20532 19.510616,0.49232 z"
       id="path1674"
       sodipodi:nodetypes="sssssssssssssssscssssssssss"
       inkscape:label="bg" />
    <path
       style="fill:#f6f6e1;fill-opacity:1"
       d="m 153.41611,130.51271 c -14.25657,-4.50174 -19.67463,-13.23184 -16.01809,-25.80991 2.3777,-8.179007 9.08173,-13.490974 19.10198,-15.13553 2.69057,-0.441585 4.6012,-0.216375 5.83651,0.687962 1.75253,1.282976 1.68561,1.639416 -1.46359,7.794612 -4.43078,8.660076 -5.06835,17.405646 -1.88875,25.907826 3.06044,8.18355 2.32631,9.04781 -5.56806,6.55504 z m 14.20025,-10.51559 c -1.989,-2.20159 -2.92105,-3.0483 -3.12983,-4.64209 -0.26749,-2.04196 7.8173,-9.35503 8.79844,-9.35503 1.82924,0 8.71503,7.44294 8.71503,9.4202 0,2.74919 -5.89955,8.5798 -8.68124,8.5798 -1.165,0 -3.68276,-1.76738 -5.7024,-4.00288 z m -50.91341,-0.78928 c -2.03662,-2.08569 -3.24325,-3.55564 -3.25307,-4.92411 -0.0169,-2.36232 7.57713,-9.11376 8.89685,-9.09848 2.28669,0.0265 8.65327,7.34635 8.65327,9.41075 0,2.56783 -5.96858,8.404 -8.59466,8.404 -1.09969,0 -3.66577,-1.70647 -5.70239,-3.79216 z"
       id="path1676"
       inkscape:label="fg"
       sodipodi:nodetypes="sssssssssssssssssss" />
  </g>
</svg>
