<?xml version="1.0" encoding="UTF-8" standalone="no"?>
<!-- Created with Inkscape (http://www.inkscape.org/) -->

<svg
   version="1.1"
   id="svg2"
   width="300"
   height="300"
   viewBox="0 0 300 300"
   sodipodi:docname="princess_outfit.svg"
   inkscape:version="1.2.2 (732a01da63, 2022-12-09)"
   xmlns:inkscape="http://www.inkscape.org/namespaces/inkscape"
   xmlns:sodipodi="http://sodipodi.sourceforge.net/DTD/sodipodi-0.dtd"
   xmlns="http://www.w3.org/2000/svg"
   xmlns:svg="http://www.w3.org/2000/svg">
  <defs
     id="defs6">
    <filter
       inkscape:collect="always"
       style="color-interpolation-filters:sRGB"
       id="filter1871"
       x="-0.0360952"
       y="-0.0360952"
       width="1.0721904"
       height="1.0721904">
      <feGaussianBlur
         inkscape:collect="always"
         stdDeviation="1.9494"
         id="feGaussianBlur1873" />
    </filter>
    <filter
       inkscape:collect="always"
       style="color-interpolation-filters:sRGB"
       id="filter1875"
       x="-0.070888697"
       y="-0.042878314"
       width="1.1419835"
       height="1.0857629">
      <feGaussianBlur
         inkscape:collect="always"
         stdDeviation="1.9494"
         id="feGaussianBlur1877" />
    </filter>
  </defs>
  <sodipodi:namedview
     id="namedview4"
     pagecolor="#ffffff"
     bordercolor="#000000"
     borderopacity="0.25"
     inkscape:showpageshadow="2"
     inkscape:pageopacity="0.0"
     inkscape:pagecheckerboard="0"
     inkscape:deskcolor="#d1d1d1"
     showgrid="false"
     inkscape:zoom="3.34"
     inkscape:cx="119.91018"
     inkscape:cy="140.11976"
     inkscape:window-width="2560"
     inkscape:window-height="1369"
     inkscape:window-x="1912"
     inkscape:window-y="-8"
     inkscape:window-maximized="1"
     inkscape:current-layer="g8" />
  <g
     inkscape:groupmode="layer"
     inkscape:label="Image"
     id="g8">
    <rect
       style="display:none;mix-blend-mode:normal;fill:none;fill-opacity:1;stroke:#753f4b;stroke-width:12.3;stroke-dasharray:none;filter:url(#filter1871)"
       id="rect1816"
       width="300"
       height="300"
       x="0"
       y="0" />
    <path
       id="path1755"
       style="display:inline;fill:none;fill-opacity:1;stroke-width:12.3;stroke-dasharray:none;filter:url(#filter1875);stroke:#753f4b"
       d="M 158.88086 27.230469 C 158.55686 27.238669 158.18083 27.315419 157.73242 27.451172 C 152.82658 28.936338 147.04985 29.170524 143.58008 28.025391 C 139.29559 26.611385 137 27.824145 137 31.5 C 137 34.08477 138.25888 35.295197 142.5 36.787109 C 146.93104 38.345833 152.44454 38.205544 156.90234 36.421875 C 161.43958 34.606439 162.34498 33.034607 160.95508 29.378906 C 160.35859 27.810032 159.85286 27.205953 158.88086 27.230469 z M 131.0918 36.021484 C 130.72882 36.059845 130.32739 36.201815 129.80078 36.333984 C 126.53238 37.154302 114 48.707851 114 50.900391 C 114 53.057825 126.91218 67.173002 132.97461 71.642578 C 135.46338 73.477432 138.17243 74.865269 138.99414 74.726562 C 140.59839 74.455758 147 65.324455 147 63.306641 C 147 62.637252 144.1875 56.991856 140.75 50.761719 C 134.07118 38.656947 132.83234 36.196988 131.44531 36.021484 C 131.32973 36.006859 131.21279 36.008697 131.0918 36.021484 z M 166.54492 36.224609 C 165.10072 36.427889 162.08086 41.471489 155.00586 55.5 C 149.7356 65.94997 143.27212 77.776078 140.64258 81.78125 C 135.7122 89.290953 131 98.942337 131 101.5293 C 131 102.33862 131.34321 103 131.76367 103 C 133.68335 103 155.62225 84.298772 169.84375 70.539062 C 179.85352 60.854308 185 54.299695 185 51.236328 C 185 48.697972 169.20535 35.850139 166.54492 36.224609 z M 149.97656 39.404297 C 149.4928 39.416117 149.0012 39.585172 148.55078 39.958984 C 146.68836 41.504647 146.57214 43.171763 148.21289 44.8125 C 149.68398 46.28359 151.00759 45.935595 152.41211 43.708984 C 153.65705 41.735342 151.8744 39.357935 149.97656 39.404297 z M 111.65039 55.818359 C 111.40896 55.807316 111.25417 55.877544 111.14258 55.888672 C 108.89712 56.112572 104.71531 62.7315 91.558594 87.5 C 79.780788 109.67262 77.68668 114.54488 78.931641 116.87109 C 80.366228 119.55165 85.17366 122.86769 90.835938 125.08203 C 98.473625 128.06888 99.270507 127.78002 102.76953 120.75 C 111.94495 102.3153 117.01135 89.913434 117.98828 83.5 C 118.69811 78.840091 118.76277 79.078154 118.93164 87 C 119.0991 94.855639 119.9317 100.41425 121.59375 102.36133 C 122.23677 103.11464 123.41736 102.98633 124.32617 102.98633 C 126.35143 102.98633 127.04439 101.01555 131.13672 92.923828 C 136.2498 82.813748 138.53452 79.574387 136.69336 77.125 C 136.02647 76.237804 133.98977 75.665217 132.51953 74.609375 C 130.04007 72.828767 125.11688 68.929621 120.73828 64.810547 C 118.06358 62.294389 115.59445 59.008061 113.79297 57.185547 C 112.69798 56.077767 112.05277 55.836765 111.65039 55.818359 z M 188.26562 57.005859 C 187.58681 57.002359 181.28678 62.567722 174.26562 69.373047 C 167.24449 76.178372 156.43747 86.125581 150.25 91.478516 C 144.06253 96.831447 139 101.83877 139 102.60547 C 139 103.73885 141.96435 104 154.85156 104 C 174.82895 104 176.51763 103.47943 177.93359 96.876953 C 178.52037 94.14087 179.06202 88.661588 179.13672 84.701172 L 179.27148 77.5 L 180.0332 84.755859 C 180.53303 89.513423 181.73144 93.816856 183.51367 97.255859 C 191.49575 112.65814 198.64408 124.89951 200.4668 126.28711 C 203.62826 128.69387 219.97339 120.62689 219.99219 116.65039 C 220.0038 114.19569 210.13956 93.807642 200.80859 77 C 190.23183 57.948345 189.6449 57.012959 188.26562 57.005859 z M 176.8125 106.24414 L 148.93164 106.37109 L 121.05078 106.5 L 120.40039 110.82422 C 119.99605 113.51293 120.16958 115.56997 120.85938 116.25977 C 121.46964 116.87006 125.23853 117.69947 129.23438 118.10156 C 137.62353 118.94575 171.44539 118.48172 174.68164 117.47852 C 177.39485 116.63743 177.77851 115.56814 177.24023 110.37109 L 176.8125 106.24414 z M 177.48242 120.15625 C 177.15801 120.16125 176.81633 120.23995 176.44922 120.38086 C 174.49087 121.13235 174.23234 118.59691 179.51172 150.5 C 181.51404 162.59997 184.45762 180.60003 186.05273 190.5 C 192.79474 232.34315 198.92621 268.82836 199.53906 270.75 C 200.04155 272.3256 200.31163 272.31517 204.53906 270.54883 C 209.23506 268.58671 210.05878 265.91518 208.41211 257.99609 C 207.6691 254.42287 205.66441 243.39997 203.95703 233.5 C 200.74277 214.86271 195.41403 188.46577 189.625 162.5 C 187.78567 154.25003 185.05975 141.87497 183.56836 135 C 181.1194 123.71089 179.75329 120.12194 177.48242 120.15625 z M 76.822266 120.25 C 76.354895 120.2554 76.009366 120.63422 75.501953 121.32812 C 74.812971 122.27036 73.952885 124.89032 73.591797 127.14844 C 72.785396 132.19138 74.477167 135.14745 79.761719 137.9375 C 85.685271 141.06493 89.668919 140.63262 93.632812 136.42969 C 95.485251 134.46546 97 132.28489 97 131.58594 C 97 130.887 93.826412 129.07076 89.947266 127.54883 C 86.06812 126.02689 81.512615 123.61991 79.824219 122.19922 C 78.403138 121.00345 77.611632 120.38829 77.03125 120.27148 C 76.958702 120.25688 76.889033 120.24923 76.822266 120.25 z M 120.75586 120.3457 C 117.97415 120.138 118.0911 121.96445 116.08398 131.73242 C 112.70419 148.18093 107.29189 175.71534 103.94336 193.5 C 102.28648 202.29997 100.28221 212.425 99.490234 216 C 95.510092 233.96647 89.865873 265.2104 90.365234 266.51172 C 90.677084 267.32439 92.410833 268.88917 94.216797 269.99023 C 97.596275 272.05069 99.982262 272.56884 100.02148 271.25 C 100.03378 270.8375 100.92844 265.32497 102.00977 259 C 105.24638 240.06799 110.91671 205.68254 113.96484 186.5 C 115.53797 176.60003 117.53553 164.675 118.4043 160 C 119.27306 155.325 120.89149 145.26454 122 137.64258 C 123.10852 130.02062 124.27344 123.29102 124.27344 123.29102 C 124.6018 121.17995 124.41162 120.58681 121.56641 120.40625 L 120.75586 120.3457 z M 223.07617 120.52148 C 222.98641 120.51512 222.89233 120.51616 222.79492 120.52539 C 221.85978 120.61399 220.77079 122.04781 218.85742 123.42188 C 216.39718 125.18861 213.2207 126.84961 213.2207 126.84961 C 213.2207 126.84961 208.20377 129.30324 206.81641 129.67969 C 205.16783 130.12701 202.83159 129.96173 203 131.78711 C 203.0714 132.56075 204.53039 134.72961 206.40039 136.59961 C 210.51308 140.7123 213.28789 140.90199 219.95898 137.52148 C 225.43533 134.74643 226.48683 132.70958 225.57031 126.65039 C 224.94 122.48325 224.42267 120.61689 223.07617 120.52148 z M 149.77148 122.03516 C 149.77148 122.03516 137.94413 121.96537 137.30078 122.7793 C 136.65743 123.59323 136.77148 141.2207 136.77148 141.2207 L 136.5 160.5 L 132.19531 160.81055 C 129.82785 160.98114 127.66862 160.65052 127.51367 162.31055 C 127.44987 162.99422 126.41681 175.42503 125.53906 190 C 124.66131 204.57497 123.19283 226.85003 122.27539 239.5 C 121.35794 252.14997 120.58223 266.1 120.55273 270.5 C 120.55273 270.5 119.79713 278.82066 121.13672 278.90234 L 124.5 279.10742 C 129.91042 279.92993 166.14394 279.962 173 279.15039 C 173 279.15039 178.10993 279.0819 178.84375 278.20898 C 179.69513 277.19616 179.21484 270.31445 179.21484 270.31445 C 178.88904 265.92655 178.14573 257.09997 177.71289 250.5 C 177.28005 243.90003 176.05297 224.09994 174.98633 206.5 C 173.02096 174.0706 172.28096 164.88076 171.38477 161.78711 C 171.01546 160.5123 169.94152 160.12819 167.19336 160.28711 L 163.5 160.5 L 163 141.5 C 163 141.5 163.73412 123.61153 162.60547 122.71094 C 161.47683 121.81035 149.77148 122.03516 149.77148 122.03516 z M 170.11523 122.09961 C 169.72024 122.09534 169.24606 122.13763 168.66797 122.19336 C 165.85268 122.46642 165.46116 122.88892 165.1543 126 C 164.96443 127.925 165.1233 135.91253 165.50781 143.75 L 166.17969 157.39062 C 166.23159 158.44393 171.01758 158.05273 171.01758 158.05273 C 173.67795 158.05273 176.08142 157.6625 176.32422 157.25 C 176.87465 156.31488 174.38946 134.36102 172.92188 127.19336 C 172.1285 123.31862 171.8664 122.27443 170.48438 122.12109 C 170.3692 122.10832 170.2469 122.10103 170.11523 122.09961 z M 129.65234 122.10938 C 128.53361 122.10502 127.01099 122.32466 126.84375 123.51953 L 126.11914 128.69531 C 124.31575 140.06438 123 150.95977 123 154.51562 C 123 157.76498 123.15232 157.89701 127.25 158.19727 C 129.5875 158.36855 132.63439 158.28903 133.26758 158.11133 C 134.49309 157.76747 135.45957 135.26547 134.83789 127 C 134.50816 122.61602 134.40596 122.49189 130.84961 122.19531 C 130.84961 122.19531 130.32359 122.11198 129.65234 122.10938 z M 176.45508 160.07812 C 176.21753 160.08942 175.95093 160.15432 175.64062 160.19922 C 173.80431 160.46509 173.59364 161.08808 173.8457 165.5 C 174.00282 168.25 174.56181 173.425 175.08789 177 C 175.61397 180.575 177.3764 196.10006 179.00391 211.5 C 182.83944 247.79295 185.90546 274.18552 186.46484 275.71289 C 186.79867 276.62441 187.66868 276.66296 189.95703 275.86523 C 191.63295 275.281 193.20488 274.47663 193.45117 274.07812 C 193.69746 273.67964 193.4502 270.23756 192.90039 266.42773 C 191.60919 257.4805 186.79228 223.11233 182.4707 192 C 178.37202 162.4922 178.11794 159.99933 176.45508 160.07812 z M 122.75195 160.51562 C 122.37653 160.55452 122.0882 160.87865 121.73828 161.50391 C 121.26933 162.34187 119.34233 174.38374 117.45703 188.26367 C 113.60962 216.58923 110.84366 236.2269 107.95703 255.71484 C 105.39564 273.00705 105.42252 274.83224 108.25 275.96875 C 113.32876 278.01017 113.35159 277.95607 115.00391 260.5 C 115.57658 254.45003 116.71528 244.09997 117.5332 237.5 C 118.35112 230.90003 120.14296 214.92497 121.51562 202 C 122.88831 189.07503 124.45506 174.9 124.99609 170.5 C 125.86572 163.42783 125.78294 162.35403 124.28516 161.24023 C 123.58983 160.72318 123.12738 160.47678 122.75195 160.51562 z " />
    <path
       id="path1759"
       style="display:inline;fill:#f6f6e1;fill-opacity:1"
       d="M 158.88086 27.230469 C 158.55686 27.238669 158.18083 27.315419 157.73242 27.451172 C 152.82657 28.93634 147.04986 29.170526 143.58008 28.025391 C 139.29559 26.611384 137 27.824141 137 31.5 C 137 34.084773 138.25888 35.295195 142.5 36.787109 C 146.93104 38.345834 152.44453 38.205546 156.90234 36.421875 C 161.43958 34.606437 162.34498 33.03461 160.95508 29.378906 C 160.35859 27.81003 159.85286 27.205953 158.88086 27.230469 z M 149.97656 39.404297 C 149.4928 39.416117 149.0012 39.585171 148.55078 39.958984 C 146.68836 41.504648 146.57214 43.171761 148.21289 44.8125 C 149.68398 46.283591 151.00759 45.935597 152.41211 43.708984 C 153.65705 41.73534 151.8744 39.357935 149.97656 39.404297 z M 111.65039 55.818359 C 111.40896 55.807316 111.25417 55.877544 111.14258 55.888672 C 108.89712 56.112572 104.71532 62.731475 91.558594 87.5 C 79.780776 109.67264 77.686679 114.54487 78.931641 116.87109 C 80.36623 119.55165 85.173655 122.86769 90.835938 125.08203 C 98.473633 128.06888 99.270502 127.78003 102.76953 120.75 C 111.94496 102.31528 117.01135 89.91344 117.98828 83.5 C 118.69811 78.840086 118.76277 79.078146 118.93164 87 C 119.0991 94.855647 119.9317 100.41425 121.59375 102.36133 C 122.23677 103.11464 123.41736 102.98633 124.32617 102.98633 C 126.35143 102.98633 127.04439 101.01556 131.13672 92.923828 C 136.24981 82.813738 138.53452 79.574389 136.69336 77.125 C 136.02647 76.237803 133.98977 75.665218 132.51953 74.609375 C 130.04007 72.828765 125.11688 68.929625 120.73828 64.810547 C 118.06358 62.294387 115.59445 59.008063 113.79297 57.185547 C 112.69798 56.077766 112.05277 55.836765 111.65039 55.818359 z M 188.26562 57.005859 C 187.5868 57.002359 181.28678 62.567715 174.26562 69.373047 C 167.24448 76.178379 156.43748 86.125576 150.25 91.478516 C 144.06252 96.831453 139 101.83877 139 102.60547 C 139 103.73885 141.96433 104 154.85156 104 C 174.82897 104 176.51762 103.47944 177.93359 96.876953 C 178.52037 94.140867 179.06202 88.661592 179.13672 84.701172 L 179.27148 77.5 L 180.0332 84.755859 C 180.53303 89.513427 181.73144 93.816852 183.51367 97.255859 C 191.49576 112.65816 198.64408 124.89951 200.4668 126.28711 C 203.62827 128.69387 219.97339 120.62689 219.99219 116.65039 C 220.0038 114.19569 210.13957 93.807659 200.80859 77 C 190.23182 57.948326 189.6449 57.012959 188.26562 57.005859 z M 177.48242 120.15625 C 177.15801 120.16125 176.81633 120.23995 176.44922 120.38086 C 174.49087 121.13235 174.23234 118.59688 179.51172 150.5 C 181.51404 162.59998 184.45761 180.60002 186.05273 190.5 C 192.79474 232.34319 198.92621 268.82836 199.53906 270.75 C 200.04155 272.3256 200.31162 272.31517 204.53906 270.54883 C 209.23506 268.58671 210.05878 265.91518 208.41211 257.99609 C 207.6691 254.42286 205.66441 243.39998 203.95703 233.5 C 200.74277 214.86269 195.41404 188.4658 189.625 162.5 C 187.78567 154.25002 185.05975 141.87498 183.56836 135 C 181.1194 123.71088 179.75329 120.12194 177.48242 120.15625 z M 120.75586 120.3457 C 117.97415 120.138 118.0911 121.96444 116.08398 131.73242 C 112.70418 148.18094 107.29189 175.71532 103.94336 193.5 C 102.28648 202.29998 100.28221 212.425 99.490234 216 C 95.510088 233.96649 89.865872 265.2104 90.365234 266.51172 C 90.677084 267.32439 92.410831 268.88916 94.216797 269.99023 C 97.596279 272.05069 99.982258 272.56884 100.02148 271.25 C 100.03378 270.8375 100.92844 265.32498 102.00977 259 C 105.24639 240.06797 110.9167 205.68256 113.96484 186.5 C 115.53797 176.60002 117.53553 164.675 118.4043 160 C 119.27306 155.325 120.89149 145.26455 122 137.64258 C 123.10852 130.02061 124.27344 123.29102 124.27344 123.29102 C 124.6018 121.17995 124.41163 120.58681 121.56641 120.40625 L 120.75586 120.3457 z M 149.77148 122.03516 C 149.77148 122.03516 137.94413 121.96537 137.30078 122.7793 C 136.65743 123.59323 136.77148 141.2207 136.77148 141.2207 L 136.5 160.5 L 132.19531 160.81055 C 129.82785 160.98114 127.66862 160.65052 127.51367 162.31055 C 127.44987 162.99422 126.41681 175.42502 125.53906 190 C 124.66131 204.57498 123.19283 226.85002 122.27539 239.5 C 121.35794 252.14998 120.58223 266.1 120.55273 270.5 C 120.55273 270.5 119.79713 278.82066 121.13672 278.90234 L 124.5 279.10742 C 129.91043 279.92993 166.14393 279.962 173 279.15039 C 173 279.15039 178.10993 279.0819 178.84375 278.20898 C 179.69513 277.19615 179.21484 270.31445 179.21484 270.31445 C 178.88904 265.92654 178.14573 257.09998 177.71289 250.5 C 177.28005 243.90002 176.05297 224.09996 174.98633 206.5 C 173.02096 174.07057 172.28097 164.88076 171.38477 161.78711 C 171.01546 160.5123 169.94152 160.12819 167.19336 160.28711 L 163.5 160.5 L 163 141.5 C 163 141.5 163.73412 123.61153 162.60547 122.71094 C 161.47683 121.81035 149.77148 122.03516 149.77148 122.03516 z M 176.45508 160.07812 C 176.21753 160.08942 175.95093 160.15432 175.64062 160.19922 C 173.8043 160.46509 173.59364 161.08808 173.8457 165.5 C 174.00282 168.25 174.56181 173.425 175.08789 177 C 175.61397 180.575 177.3764 196.10004 179.00391 211.5 C 182.83945 247.79299 185.90546 274.18552 186.46484 275.71289 C 186.79867 276.62441 187.66868 276.66296 189.95703 275.86523 C 191.63295 275.281 193.20488 274.47663 193.45117 274.07812 C 193.69746 273.67963 193.4502 270.23756 192.90039 266.42773 C 191.60919 257.48049 186.79228 223.11236 182.4707 192 C 178.37201 162.49217 178.11794 159.99932 176.45508 160.07812 z M 122.75195 160.51562 C 122.37653 160.55452 122.0882 160.87865 121.73828 161.50391 C 121.26933 162.34187 119.34233 174.38372 117.45703 188.26367 C 113.60961 216.58926 110.84366 236.22688 107.95703 255.71484 C 105.39564 273.00706 105.42252 274.83224 108.25 275.96875 C 113.32877 278.01017 113.35159 277.95609 115.00391 260.5 C 115.57658 254.45002 116.71528 244.09998 117.5332 237.5 C 118.35112 230.90002 120.14295 214.92498 121.51562 202 C 122.88831 189.07502 124.45506 174.9 124.99609 170.5 C 125.86572 163.42782 125.78295 162.35403 124.28516 161.24023 C 123.58983 160.72318 123.12738 160.47677 122.75195 160.51562 z " />
    <path
       id="path1761"
       style="display:inline;fill:#ce9e9a;fill-opacity:1"
       d="M 131.0918 36.021484 C 130.72882 36.059845 130.32739 36.201814 129.80078 36.333984 C 126.53238 37.154302 114 48.707849 114 50.900391 C 114 53.057828 126.91217 67.172997 132.97461 71.642578 C 135.46338 73.477434 138.17243 74.865269 138.99414 74.726562 C 140.59839 74.455757 147 65.324457 147 63.306641 C 147 62.637252 144.1875 56.991862 140.75 50.761719 C 134.07117 38.656935 132.83234 36.196988 131.44531 36.021484 C 131.32973 36.006859 131.21279 36.008697 131.0918 36.021484 z M 166.54492 36.224609 C 165.10072 36.427889 162.08087 41.471475 155.00586 55.5 C 149.7356 65.94998 143.27212 77.776074 140.64258 81.78125 C 135.7122 89.290961 131 98.942338 131 101.5293 C 131 102.33862 131.34321 103 131.76367 103 C 133.68335 103 155.62224 84.298785 169.84375 70.539062 C 179.85353 60.854298 185 54.299698 185 51.236328 C 185 48.697969 169.20535 35.850138 166.54492 36.224609 z M 176.8125 106.24414 L 148.93164 106.37109 L 121.05078 106.5 L 120.40039 110.82422 C 119.99605 113.51293 120.16958 115.56997 120.85938 116.25977 C 121.46965 116.87006 125.23853 117.69947 129.23438 118.10156 C 137.62354 118.94575 171.44539 118.48173 174.68164 117.47852 C 177.39485 116.63743 177.77851 115.56814 177.24023 110.37109 L 176.8125 106.24414 z M 76.822266 120.25 C 76.354895 120.2554 76.009366 120.63421 75.501953 121.32812 C 74.81297 122.27036 73.952885 124.89032 73.591797 127.14844 C 72.785395 132.19139 74.477162 135.14745 79.761719 137.9375 C 85.685277 141.06493 89.668915 140.63263 93.632812 136.42969 C 95.485252 134.46546 97 132.28489 97 131.58594 C 97 130.887 93.826416 129.07076 89.947266 127.54883 C 86.068116 126.02689 81.512617 123.61991 79.824219 122.19922 C 78.403137 121.00345 77.611633 120.38829 77.03125 120.27148 C 76.958702 120.25688 76.889033 120.24923 76.822266 120.25 z M 223.07617 120.52148 C 222.98641 120.51512 222.89233 120.51616 222.79492 120.52539 C 221.85978 120.61399 220.77079 122.04781 218.85742 123.42188 C 216.39718 125.18862 213.2207 126.84961 213.2207 126.84961 C 213.2207 126.84961 208.20378 129.30324 206.81641 129.67969 C 205.16783 130.12701 202.83159 129.96173 203 131.78711 C 203.0714 132.56075 204.53039 134.72961 206.40039 136.59961 C 210.51308 140.7123 213.28788 140.90199 219.95898 137.52148 C 225.43533 134.74642 226.48683 132.70959 225.57031 126.65039 C 224.94 122.48325 224.42267 120.61689 223.07617 120.52148 z M 170.11523 122.09961 C 169.72024 122.09534 169.24606 122.13763 168.66797 122.19336 C 165.85268 122.46642 165.46116 122.88892 165.1543 126 C 164.96443 127.925 165.1233 135.91252 165.50781 143.75 L 166.17969 157.39062 C 166.23159 158.44393 171.01758 158.05273 171.01758 158.05273 C 173.67795 158.05273 176.08142 157.6625 176.32422 157.25 C 176.87465 156.31488 174.38947 134.36103 172.92188 127.19336 C 172.1285 123.31862 171.86641 122.27443 170.48438 122.12109 C 170.3692 122.10832 170.2469 122.10103 170.11523 122.09961 z M 129.65234 122.10938 C 128.53361 122.10502 127.01099 122.32466 126.84375 123.51953 L 126.11914 128.69531 C 124.31575 140.06439 123 150.95976 123 154.51562 C 123 157.76498 123.15232 157.89701 127.25 158.19727 C 129.5875 158.36855 132.63439 158.28903 133.26758 158.11133 C 134.49309 157.76747 135.45957 135.26548 134.83789 127 C 134.50816 122.61602 134.40596 122.49189 130.84961 122.19531 C 130.84961 122.19531 130.32359 122.11199 129.65234 122.10938 z " />
  </g>
</svg>
